<?xml version="1.0" encoding="utf-8"?>
<!-- Generator: Adobe Illustrator 27.1.1, SVG Export Plug-In . SVG Version: 6.00 Build 0)  -->
<svg version="1.1" id="Ebene_1" xmlns="http://www.w3.org/2000/svg" xmlns:xlink="http://www.w3.org/1999/xlink" x="0px" y="0px"
	 viewBox="0 0 78.1 39.8" style="enable-background:new 0 0 78.1 39.8;" xml:space="preserve">
<style type="text/css">
	.st0{fill:#FF0000;}
	.st1{fill:#FFCC00;}
</style>
<g>
	<path d="M24.5,19.2c0.8,1.4,1.2,3,1.2,4.6c0.1,4.9-3.7,8.9-8.6,9c-4.9-0.1-8.7-4.2-8.6-9c0-1.6,0.4-3.2,1.2-4.6l-2.4-3.1
		c-1.7,2.2-2.6,4.9-2.6,7.6C4.6,30.5,10.1,36.1,17,36.2c6.8,0.1,12.4-5.4,12.5-12.3c0-0.1,0-0.1,0-0.2c0-2.8-0.9-5.5-2.6-7.7
		L24.5,19.2z"/>
	<path d="M60,21.8h12.5c0.1,0.6,0.1,1.3,0.1,1.9c0.2,6.7-5.2,12.3-11.9,12.5c-0.2,0-0.3,0-0.5,0c-6.9,0.1-12.5-5.5-12.6-12.4
		c0.1-6.9,5.6-12.5,12.5-12.6c4,0,7.7,1.8,10.1,5c0,0-2.9,2.3-2.9,2.2c-1.5-2.3-4.2-3.8-7-3.8c-4.9,0.1-8.7,4.2-8.6,9.1
		c-0.1,4.9,3.7,8.9,8.6,9c4.9,0,8.3-3.2,8.6-7.7H60C60,25,60,21.8,60,21.8z"/>
	<path d="M35.6,32.3h10.6v3.4H30.9v-2.5L41.5,15H31v-3.4h14.9v3L35.6,32.3z"/>
	<path d="M26.5,11.1l1.9-2.4C22,3,12.3,3,5.8,8.7l1.8,2.4L8,11.5c5.2-4.7,13-4.7,18.2,0L26.5,11.1z"/>
	<path class="st0" d="M24.5,13.7c-4.4-3.4-10.5-3.4-14.8,0l2.2,2.8c3-2.5,7.4-2.5,10.5,0L24.5,13.7z"/>
	<path class="st1" d="M20.6,18.8c-2.2-1-4.8-1-7,0l2.3,3c0.8-0.2,1.7-0.2,2.5,0L20.6,18.8z"/>
</g>
</svg>
