<?xml version="1.0" encoding="utf-8"?>
<!-- Generator: Adobe Illustrator 27.4.0, SVG Export Plug-In . SVG Version: 6.00 Build 0)  -->
<svg version="1.1" xmlns="http://www.w3.org/2000/svg" xmlns:xlink="http://www.w3.org/1999/xlink" x="0px" y="0px"
	 viewBox="0 0 325.4 566.9" enable-background="new 0 0 325.4 566.9" xml:space="preserve">
<g id="Adler_x5F_Ausschnitt_x5F_1">
	<g>
		<path fill="#F4F4F4" d="M348.1,532.8c-15.7-19.5-23.3-54.7-23.3-98.1c0-24.8,2.2-36.5,3.9-47.9c11.4,13.4,17.1,34.4,19.4,47.1V318
			c-1.5-7.1-2.3-14.3-2.3-21.7c0-5.2,0.9-10.4,2.3-15.8V137.7c-1.3-3.9-2.2-8-2.2-12.2c0-6,0.9-11.7,2.2-17.2V5
			c-17.7-0.7-32.4-5-46.9-5c-8.9,0-11.3,2.8-11.3,5.4c0,1,0.2,1.9,0.4,2.4c-3.3-1.3-6.5-2.2-10.2-2.9c-4.6-0.9-9.6-1.3-14.9-1.3
			c-19,0-25.8,8-25.8,14.8c0,5.8,4.6,16.4,9.7,24.4c7.4-3.7,16.3-6.3,20.4-6.3c10.1,0,19.1,9.6,23.9,21c-6.8,0.8-8.1,1.1-15,1.1
			c-18.5,0-31.2-6.6-33.8-6.6c-0.3,0-0.7,0.1-0.7,0.5c0,2.6,5.3,9.5,15.6,13.3c13.6,5,34.1,7.1,37.5,7.6c0,0.6-3.5,7.1-7.3,8.3
			c-0.8,0.3-1.5,0.3-2.4,0.1c-14.3-2.8-18.2-4-36.3-10.9c-0.6-0.2-0.9,0.1-0.9,0.7c0,7.2,18.5,23,35.1,29
			c-13.9,17.7-31.2,35.8-39.3,63.4c-2.3,0.2-4.5,0.3-6.9,0.3c-41.1,0-81.9-26.6-81.9-60.7c0-18.2,8.2-30.9,18.3-45
			c5.9,1,11.3,1.5,15.6,1.5c18.7,0,28.8-10,29.5-19.8c0-8.8-7.2-15.5-18.3-15.5c-17.3,0-48.8,16.1-80.6,16.1
			c3.1,2.4,8.3,4.9,14.6,7.2c-18.6,16.7-31.1,39.2-35.8,63.3l-48.7,77.9C43.3,202.7,26,228.3,0,248.3c31.5,0,52.4,0.7,79-41.4
			l24.9-39.9c1.9,5.2,4.1,10.2,6.8,15.2l-49.6,79.4c-8.3,13.2-25.4,38.5-51.5,58.6c31.5,0,52.4,0.7,79-41.4l42.7-68.4
			c3.2,3.4,6.6,6.7,10.1,9.9l-60.3,96.5c-8.3,13.2-25.3,38.5-51.5,58.6c31.5,0,52.4,0.8,79-41.4l58.8-94.1c3.9,2.4,7.8,4.8,11.9,7.1
			l-71.7,114.8c-8.3,13.2-25.3,38.4-51.5,58.6c31.5,0,52.4,0.7,79-41.4l73.9-118.2c4.4,1.7,8.8,3.3,13.3,4.7l-83.5,133.6
			c-8.2,13-25.6,38.7-51.5,58.6c31.5,0,52.4,0.7,79-41.4l89-142.4c0.9,0.2,1.8,0.3,2.7,0.5c2.4,7.7,4.1,14.9,4.1,22
			c0,44.7-29.4,84.2-64.6,114.7c2.2,1,6.2,1.3,9.8,1.3c7.3,0,12-0.4,15.3-1c-8.2,18.6-25.7,42.5-34.6,54.9
			c-11.5-2.1-28.3-3.7-39.3-3.7c-11.5,0-12.8,6.7-12.8,12.7c0,10.4,4.9,18.8,10.6,23.4c2.1-5.3,6.4-12.5,27.7-12.5
			c0.4,0,1.1,0,2.1,0.1c-6.2,6.9-25.7,22.6-25.7,35.3c0,8.4,9.2,20.9,21.3,20.9c-0.7-2.7-0.6-5.2-0.6-7c0-10.3,9.1-22.3,16.7-30.6
			c-0.2,2.5-0.1,2.2-0.1,5.1c0,24.2,2.2,35.4,17.6,35.4c7.5,0,12.8-4.1,14.5-5.4c-10-9.2-10.5-16.4-10.5-30c0-3.5,0-7,0.1-11.8
			c0-3.1,0-7.2-0.5-10.2c5.5-0.8,7.7-0.8,12-0.8c0,0,21.9-1.7,27.1,9.6c5.9-5.4,14.6-13.1,14.6-21.6c0-5.6-2.7-11.9-13.9-11.9
			c-4.3,0-17.7,2.6-28.9,2.6c3-6.7,16.4-26.3,28.1-40.6c1.8,5.5,4.5,11.5,10.6,16.4c0.8-9.2,6.2-38.1,20.5-55
			c1.7,11.4,3.9,23.2,3.9,47.9c0,60.2-14.5,104.7-45.2,113.2c4,7,12.5,13.2,21.2,13.2c11.2,0,17.4-12.7,23.6-24.7
			c3.3,8.8,12.2,30.5,21.2,30.5c9,0,18-21.7,21.2-30.5c6.1,11.7,12.1,24.2,22.9,24.7V532.8z M130.5,115.4
			c0-29.7,21.6-53.1,29.2-59.7c1.8,0.4,3.6,0.9,5.5,1.3c-8.1,9.8-22.3,26.4-22.3,48.2c0,43.4,46.4,81.1,98.9,81.1
			c-0.3,3.7-0.5,7.6-0.5,11.6c0,6.4,0.4,12.4,1,18C182.7,215.5,130.5,167.3,130.5,115.4z M210.9,471.3l-0.3,1h1
			c16.7,0,24.8-1.2,30.2-2c2.8-0.4,4.8-0.7,7-0.7c4.3,0,7.6,0.4,7.6,5.7c0,3.6-4.2,9.2-8.2,12.5c-6.2-5.8-14.7-6.9-27.1-6.9
			c-5.8,0-13.5,1-17.6,1.6l-0.6,0.1l-0.7,0.1l0.2,2c0.5,3.5,1.1,7.8,1.1,13.5l-0.1,5.3l-0.1,6.5c0,14.2,1.9,22.2,6.9,28.3
			c-1.3,0.5-3.4,0.9-4.7,0.9c-8.8,0-11.3-3.8-11.3-29.2c0-5.1-0.3-9.9-0.5-13l-0.2-4.7l-1.1,0.9c-13.1,10-26.5,27.8-27.3,41.1
			c-3.9-2.5-8.2-8.2-8.2-12.6c0-7.3,10.9-18.2,23.6-30.8l7.3-7.3l0.9-0.9l-2.4-0.6c-2.7-0.7-7.8-2-12.1-2c-14.2,0-23.1,2.7-28.5,8.6
			c-2-2.8-3.6-9.5-3.6-13.4c0-2.5,0.5-4.3,1.5-5.3c1.2-1.2,3.2-1.2,4.9-1.2h0.4c15.6,0,34.3,2.8,41.6,4l0.4,0.1l0.3-0.4
			c1.3-1.7,31-41.4,38.8-62.4c1.8-0.7,3.3-1.2,6.4-1.2c5.9,0,7.5,4,9.2,10C226.7,441.6,215.1,459.2,210.9,471.3z M302.6,62.8
			c-1.9-7.7-5.8-15.6-10.8-21.6c-4.6-5.4-12.1-11.8-22.3-11.8c-4.7,0-12.5,2.2-17.4,4.3c-1.9-3.4-5.5-11.5-5.5-15.2
			c0-3.8,6.4-7.6,18.6-7.6C292,10.9,308,23,308,43.4C308,50.5,305.2,57,302.6,62.8z M314.7,36.3c-1-5.7-3.2-11-6.5-15.4
			c0.2-5.3,2.3-10.3,10.8-6.2c-4.6,4.7-1,13-1,13s9.4-4.3,7.4-10.5C339.3,20.5,329.3,39.2,314.7,36.3z"/>
	</g>
</g>
<g id="Schnittmarken">
	<g>
		<line fill="none" stroke="#000000" stroke-miterlimit="10" x1="325.4" y1="575.4" x2="325.4" y2="603.8"/>
	</g>
	<g>
		<line fill="none" stroke="#000000" stroke-miterlimit="10" x1="325.4" y1="-36.9" x2="325.4" y2="-8.5"/>
	</g>
</g>
</svg>
