<?xml version="1.0" encoding="utf-8"?>
<!-- Generator: Adobe Illustrator 27.1.1, SVG Export Plug-In . SVG Version: 6.00 Build 0)  -->
<svg version="1.1" id="Ebene_1" xmlns:serif="http://www.serif.com/"
	 xmlns="http://www.w3.org/2000/svg" xmlns:xlink="http://www.w3.org/1999/xlink" x="0px" y="0px" viewBox="0 0 180 90.4"
	 style="enable-background:new 0 0 180 90.4;" xml:space="preserve">
<style type="text/css">
	.st0{fill:#FF0000;}
	.st1{fill:#FFCC00;}
</style>
<g>
	<path d="M20.9,12.3c0-0.3,0.1-0.7,0.1-1c0-0.2,0-0.4,0-0.7c3,0,5.5-2.2,5.5-4.6c0-1.2-0.8-2.2-1.3-2.7c0.1,0,0.2,0,0.3-0.1
		c0.4,0.4,1.7,1.7,1.7,3.4C27.2,9.5,24.3,12.2,20.9,12.3 M17.9,2.1c-0.1-0.3-0.2-0.6-0.4-0.9c0-0.3,0.1-0.6,0.6-0.3
		c-0.3,0.3-0.1,0.7-0.1,0.7s0.5-0.2,0.4-0.6C19.3,1.2,18.8,2.2,17.9,2.1 M17.2,3.6c-0.1-0.4-0.3-0.9-0.6-1.2
		c-0.3-0.3-0.7-0.7-1.3-0.7c-0.3,0-0.7,0.1-1,0.2C14.3,1.7,14,1.3,14,1.1c0-0.2,0.4-0.4,1.1-0.4c1.5,0,2.4,0.7,2.4,1.9
		C17.6,2.9,17.4,3.2,17.2,3.6 M21.2,23.3c0.2,0,0.3,0,0.4,0.1c0.4,1.2,2.1,3.5,2.2,3.6l0,0l0,0c0.4-0.1,1.5-0.2,2.4-0.2h0
		c0.1,0,0.2,0,0.3,0.1c0.1,0.1,0.1,0.2,0.1,0.3c0,0.2-0.1,0.6-0.2,0.8c-0.3-0.3-0.8-0.5-1.6-0.5c-0.2,0-0.5,0.1-0.7,0.1l-0.1,0
		l-0.1,0l0.5,0.5c0.7,0.7,1.3,1.3,1.3,1.8c0,0.2-0.2,0.6-0.5,0.7c0-0.8-0.8-1.8-1.6-2.3l-0.1,0l0,0.3c0,0.2,0,0.5,0,0.7
		c0,1.4-0.1,1.7-0.6,1.7c-0.1,0-0.2,0-0.3,0c0.3-0.3,0.4-0.8,0.4-1.6l0-0.4l0-0.3c0-0.3,0-0.6,0.1-0.8l0-0.1l-0.1,0
		c-0.2,0-0.7-0.1-1-0.1c-0.7,0-1.2,0.1-1.5,0.4c-0.2-0.2-0.5-0.5-0.5-0.7c0-0.3,0.2-0.3,0.4-0.3c0.1,0,0.2,0,0.4,0
		c0.3,0,0.8,0.1,1.7,0.1h0.1l0-0.1c-0.2-0.7-0.9-1.7-2-3C20.7,23.5,20.8,23.3,21.2,23.3 M12,26.9L12,26.9L12,26.9
		c1,0.1,1.5,0,1.8-0.1c0.2,0,0.3,0,0.4,0c0.2,0,0.4,0,0.4,0.3c0,0.2-0.2,0.5-0.5,0.7c-0.4-0.3-0.8-0.4-1.5-0.4c-0.3,0-0.8,0.1-1,0.1
		l0,0l0,0l0,0.1c0,0.2,0.1,0.4,0.1,0.8l0,0.3l0,0.4c0,0.8,0.1,1.3,0.4,1.6c-0.1,0-0.2,0-0.3,0c-0.5,0-0.6-0.2-0.6-1.7
		c0-0.3,0-0.6,0-0.7l0-0.3l-0.1,0c-0.7,0.6-1.5,1.6-1.6,2.3c-0.2-0.1-0.5-0.5-0.5-0.7c0-0.4,0.6-1,1.3-1.8l0.5-0.5l-0.1,0
		c-0.2,0-0.4-0.1-0.7-0.1c-0.8,0-1.3,0.2-1.6,0.5c-0.1-0.2-0.2-0.5-0.2-0.8c0-0.1,0-0.2,0.1-0.3c0.1-0.1,0.2-0.1,0.3-0.1h0
		c0.9,0,2,0.2,2.4,0.2l0,0l0,0c0.1-0.1,1.8-2.4,2.2-3.6c0.1,0,0.2-0.1,0.4-0.1c0.3,0,0.4,0.2,0.5,0.6C12.9,25.2,12.3,26.2,12,26.9
		 M7.4,6.6c0-1.7,1.2-3,1.7-3.4c0.1,0,0.2,0,0.3,0.1C8.9,3.8,8.1,4.7,8.1,6c0,2.5,2.6,4.6,5.6,4.6c0,0.2,0,0.4,0,0.7
		c0,0.4,0,0.7,0.1,1C10.4,12.3,7.4,9.5,7.4,6.6 M30.1,11.8c1.5,2.4,2.7,2.4,4.5,2.4c-1.5-1.1-2.5-2.6-2.9-3.3l-2.8-4.4
		c-0.3-1.4-1-2.7-2-3.6c0.4-0.1,0.7-0.3,0.8-0.4c-1.8,0-3.6-0.9-4.6-0.9c-0.6,0-1,0.4-1,0.9c0,0.6,0.6,1.1,1.7,1.1
		c0.2,0,0.5,0,0.9-0.1c0.6,0.8,1,1.5,1,2.6c0,1.9-2.3,3.5-4.7,3.5c-0.1,0-0.3,0-0.4,0c-0.2-0.5-0.9-1.3-0.9-2.2c0-1.5,1-2.8,1-4.3
		c0-1-0.5-1.5-0.6-1.8c0.3-0.3,0.6-0.6,0.7-0.8c-0.2,0.1-0.4,0.1-0.7,0.1c-1.1,0-2-0.3-2.9-0.3c-0.5,0-0.6,0.2-0.6,0.3
		c0,0.1,0,0.1,0,0.1c-0.2-0.1-0.4-0.1-0.6-0.2c-0.3-0.1-0.5-0.1-0.8-0.1c-1.1,0-1.5,0.5-1.5,0.8c0,0.3,0.3,0.9,0.6,1.4
		c0.4-0.2,0.9-0.4,1.2-0.4c0.6,0,1.1,0.5,1.4,1.2c-0.4,0-0.5,0.1-0.9,0.1c-1.1,0-1.8-0.4-1.9-0.4c0,0,0,0,0,0c0,0.1,0.3,0.5,0.9,0.8
		c0.8,0.3,1.9,0.4,2.1,0.4c0,0-0.2,0.4-0.4,0.5c0,0-0.1,0-0.1,0c-0.8-0.2-1-0.2-2.1-0.6c0,0-0.1,0-0.1,0c0,0.4,1.1,1.3,2,1.7
		c-0.8,1-1.8,2-2.2,3.6c-0.1,0-0.3,0-0.4,0c-2.3,0-4.7-1.5-4.7-3.5c0-1,0.5-1.8,1-2.6c0.3,0.1,0.6,0.1,0.9,0.1
		c1.1,0,1.6-0.6,1.7-1.1c0-0.5-0.4-0.9-1-0.9c-1,0-2.8,0.9-4.6,0.9c0.2,0.1,0.5,0.3,0.8,0.4C6.7,3.7,6,5,5.7,6.4l-2.8,4.4
		C2.5,11.6,1.5,13,0,14.1c1.8,0,3,0,4.5-2.4l1.4-2.3c0.1,0.3,0.2,0.6,0.4,0.9l-2.8,4.5C3,15.6,2,17.1,0.5,18.2c1.8,0,3,0,4.5-2.4
		L7.5,12c0.2,0.2,0.4,0.4,0.6,0.6L4.6,18c-0.5,0.8-1.4,2.2-2.9,3.3c1.8,0,3,0,4.5-2.4l3.3-5.4c0.2,0.1,0.4,0.3,0.7,0.4l-4.1,6.5
		c-0.5,0.8-1.4,2.2-2.9,3.3c1.8,0,3,0,4.5-2.4l4.2-6.7c0.2,0.1,0.5,0.2,0.8,0.3l-4.8,7.6c-0.5,0.7-1.5,2.2-2.9,3.3
		c1.8,0,3,0,4.5-2.4l5.1-8.1c0.1,0,0.1,0,0.2,0c0.1,0.4,0.2,0.8,0.2,1.3c0,2.5-1.7,4.8-3.7,6.5c0.1,0.1,0.4,0.1,0.6,0.1
		c0.4,0,0.7,0,0.9-0.1c-0.5,1.1-1.5,2.4-2,3.1c-0.7-0.1-1.6-0.2-2.2-0.2c-0.7,0-0.7,0.4-0.7,0.7c0,0.6,0.3,1.1,0.6,1.3
		c0.1-0.3,0.4-0.7,1.6-0.7c0,0,0.1,0,0.1,0c-0.4,0.4-1.5,1.3-1.5,2c0,0.5,0.5,1.2,1.2,1.2c0-0.2,0-0.3,0-0.4c0-0.6,0.5-1.3,1-1.7
		c0,0.1,0,0.1,0,0.3c0,1.4,0.1,2,1,2c0.4,0,0.7-0.2,0.8-0.3c-0.6-0.5-0.6-0.9-0.6-1.7c0-0.2,0-0.4,0-0.7c0-0.2,0-0.4,0-0.6
		c0.3,0,0.4,0,0.7,0c0,0,1.2-0.1,1.5,0.5c0.3-0.3,0.8-0.7,0.8-1.2c0-0.3-0.2-0.7-0.8-0.7c-0.2,0-1,0.1-1.6,0.1
		c0.2-0.4,0.9-1.5,1.6-2.3c0.1,0.3,0.3,0.7,0.6,0.9c0-0.5,0.4-2.2,1.2-3.1c0.1,0.7,0.2,1.3,0.2,2.7c0,3.4-0.8,6-2.6,6.4
		c0.2,0.4,0.7,0.8,1.2,0.8c0.6,0,1-0.7,1.3-1.4c0.2,0.5,0.7,1.7,1.2,1.7c0.5,0,1-1.2,1.2-1.7c0.4,0.7,0.7,1.4,1.3,1.4
		c0.5,0,1-0.4,1.2-0.8c-1.8-0.5-2.6-3-2.6-6.4c0-1.4,0.1-2.1,0.2-2.7c0.8,1,1.1,2.6,1.2,3.1c0.3-0.3,0.5-0.6,0.6-0.9
		c0.7,0.8,1.4,1.9,1.6,2.3c-0.6,0-1.4-0.1-1.6-0.1c-0.6,0-0.8,0.4-0.8,0.7c0,0.5,0.5,0.9,0.8,1.2c0.3-0.6,1.5-0.5,1.5-0.5
		c0.2,0,0.4,0,0.7,0c0,0.2,0,0.4,0,0.6c0,0.3,0,0.5,0,0.7c0,0.8,0,1.2-0.6,1.7c0.1,0.1,0.4,0.3,0.8,0.3c0.9,0,1-0.6,1-2
		c0-0.2,0-0.2,0-0.3c0.4,0.5,1,1.2,1,1.7c0,0.1,0,0.2,0,0.4c0.7,0,1.2-0.7,1.2-1.2c0-0.7-1.1-1.6-1.5-2c0.1,0,0.1,0,0.1,0
		c1.2,0,1.5,0.4,1.6,0.7c0.3-0.3,0.6-0.7,0.6-1.3c0-0.3-0.1-0.7-0.7-0.7c-0.6,0-1.6,0.1-2.2,0.2c-0.5-0.7-1.5-2.1-2-3.1
		c0.2,0,0.5,0.1,0.9,0.1c0.2,0,0.4,0,0.6-0.1c-2-1.7-3.7-4-3.7-6.5c0-0.4,0.1-0.8,0.2-1.3c0,0,0.1,0,0.2,0l5.1,8.1
		c1.5,2.4,2.7,2.4,4.5,2.4c-1.5-1.1-2.5-2.6-2.9-3.3L22,15.1c0.3-0.1,0.5-0.2,0.8-0.3l4.2,6.7c1.5,2.4,2.7,2.4,4.5,2.4
		c-1.5-1.1-2.5-2.6-2.9-3.3l-4.1-6.5c0.2-0.1,0.5-0.3,0.7-0.4l3.4,5.4c1.5,2.4,2.7,2.4,4.5,2.4c-1.5-1.1-2.5-2.6-2.9-3.3l-3.4-5.5
		c0.2-0.2,0.4-0.4,0.6-0.6l2.4,3.9c1.5,2.4,2.7,2.4,4.5,2.4c-1.5-1.1-2.5-2.6-2.9-3.3l-2.8-4.5c0.2-0.3,0.3-0.6,0.4-0.9L30.1,11.8z"
		/>
	<rect x="43.6" y="1.4" width="5.2" height="29.7"/>
	<rect x="43.6" y="31.1" class="st0" width="5.2" height="29.7"/>
	<rect x="43.6" y="60.7" class="st1" width="5.2" height="29.7"/>
	<g transform="matrix(1.47694,0,0,-1.47694,-30.9354,127.433)">
		<path d="M66,83.3c0-0.3,0-0.5-0.1-0.8c-0.1-0.2-0.2-0.4-0.3-0.6c-0.1-0.2-0.3-0.3-0.4-0.4c-0.2-0.1-0.3-0.2-0.5-0.2v0
			c0.2,0,0.4-0.1,0.6-0.2c0.2-0.1,0.3-0.2,0.5-0.4s0.2-0.4,0.3-0.6c0.1-0.2,0.1-0.5,0.1-0.7c0-0.3-0.1-0.6-0.2-0.9
			c-0.1-0.3-0.3-0.5-0.5-0.7c-0.2-0.2-0.5-0.4-0.9-0.5s-0.8-0.2-1.3-0.2h-1.7v8.2h1.6c0.5,0,0.9,0,1.2-0.1c0.3-0.1,0.6-0.2,0.9-0.4
			c0.2-0.2,0.4-0.4,0.5-0.7C65.9,83.9,66,83.6,66,83.3z M64.9,83.2c0,0.4-0.1,0.7-0.4,0.9c-0.3,0.2-0.7,0.4-1.3,0.4h-0.5v-2.8h0.5
			c0.6,0,1,0.1,1.3,0.4C64.8,82.4,64.9,82.8,64.9,83.2z M65.1,79.4c0,0.4-0.1,0.8-0.4,1.1c-0.3,0.3-0.7,0.4-1.2,0.4h-0.7V78h0.6
			c0.6,0,1.1,0.1,1.3,0.4C64.9,78.6,65.1,79,65.1,79.4z M71.5,77.1h-0.9v0.6h0c0,0-0.1-0.1-0.2-0.2c-0.1-0.1-0.2-0.2-0.3-0.3
			c-0.1-0.1-0.3-0.2-0.4-0.2C69.5,77,69.3,77,69.1,77c-0.3,0-0.5,0-0.7,0.1c-0.2,0.1-0.4,0.2-0.5,0.4c-0.1,0.2-0.3,0.4-0.3,0.6
			c-0.1,0.3-0.1,0.6-0.1,1v3.7h1v-3.7c0-0.5,0.1-0.8,0.2-1c0.2-0.2,0.4-0.3,0.7-0.3c0.3,0,0.5,0.1,0.7,0.2c0.2,0.1,0.3,0.3,0.5,0.4
			v4.4h1V77.1z M76.1,77.1v3.7c0,0.5-0.1,0.8-0.2,1c-0.2,0.2-0.4,0.3-0.7,0.3c-0.3,0-0.5-0.1-0.7-0.2c-0.2-0.1-0.3-0.3-0.5-0.4v-4.4
			h-1v5.7h0.9v-0.6h0c0,0,0.1,0.1,0.2,0.2c0.1,0.1,0.2,0.2,0.3,0.3c0.1,0.1,0.3,0.2,0.5,0.2c0.2,0.1,0.4,0.1,0.6,0.1
			c0.3,0,0.5,0,0.7-0.1c0.2-0.1,0.4-0.2,0.5-0.4c0.1-0.2,0.3-0.4,0.3-0.6c0.1-0.3,0.1-0.6,0.1-1v-3.7H76.1z M78.2,79.9
			c0,0.6,0.1,1.1,0.2,1.5c0.2,0.4,0.3,0.7,0.6,0.9s0.5,0.4,0.8,0.5c0.3,0.1,0.6,0.1,0.9,0.1c0.2,0,0.3,0,0.5,0
			c0.1,0,0.2-0.1,0.3-0.1v2.7l1,0.1v-8.5h-0.9v0.6h0c0,0-0.1-0.1-0.1-0.2c-0.1-0.1-0.2-0.2-0.3-0.2c-0.1-0.1-0.2-0.2-0.4-0.2
			C80.6,77,80.4,77,80.2,77c-0.3,0-0.5,0.1-0.8,0.2c-0.2,0.1-0.5,0.3-0.6,0.5c-0.2,0.2-0.3,0.5-0.4,0.9C78.2,79,78.2,79.4,78.2,79.9
			z M80.5,77.9c0.2,0,0.3,0,0.4,0.1c0.1,0,0.2,0.1,0.3,0.1c0.1,0.1,0.2,0.1,0.2,0.2c0.1,0.1,0.1,0.1,0.1,0.2v3.5
			c-0.1,0.1-0.2,0.1-0.3,0.1c-0.1,0-0.3,0.1-0.4,0.1c-0.2,0-0.4,0-0.6-0.1c-0.2-0.1-0.4-0.2-0.5-0.4c-0.1-0.2-0.3-0.4-0.3-0.7
			c-0.1-0.3-0.1-0.6-0.1-1c0-0.4,0-0.7,0.1-1s0.2-0.5,0.3-0.6c0.1-0.2,0.3-0.3,0.4-0.4C80.1,77.9,80.3,77.9,80.5,77.9z M87.6,80.9
			c0-0.2,0-0.5,0-0.6c0-0.2,0-0.3,0-0.5h-2.9c0-0.7,0.2-1.2,0.4-1.5c0.3-0.3,0.6-0.5,1.1-0.5c0.2,0,0.3,0,0.5,0.1
			c0.1,0,0.3,0.1,0.4,0.1c0.1,0.1,0.2,0.1,0.2,0.2c0.1,0.1,0.1,0.1,0.1,0.1l0.4-0.7c0,0-0.1-0.1-0.2-0.2c-0.1-0.1-0.2-0.2-0.3-0.2
			c-0.1-0.1-0.3-0.1-0.5-0.2C86.6,77,86.3,77,86,77c-0.4,0-0.7,0.1-1,0.2c-0.3,0.1-0.5,0.3-0.7,0.6c-0.2,0.2-0.4,0.6-0.5,1
			c-0.1,0.4-0.2,0.8-0.2,1.4c0,0.5,0.1,0.9,0.2,1.3c0.1,0.4,0.3,0.7,0.5,0.9c0.2,0.2,0.4,0.4,0.7,0.5c0.3,0.1,0.5,0.2,0.8,0.2
			c0.5,0,1-0.2,1.3-0.5C87.5,82.1,87.6,81.6,87.6,80.9z M85.8,82.2c-0.3,0-0.6-0.1-0.8-0.4c-0.2-0.3-0.3-0.7-0.4-1.2h2.1
			c0,0,0,0.1,0,0.2c0,0.1,0,0.2,0,0.2c0,0.4-0.1,0.7-0.2,0.9C86.4,82.1,86.1,82.2,85.8,82.2z M91.4,81.7c-0.1,0.1-0.2,0.2-0.3,0.3
			c-0.2,0.1-0.4,0.2-0.7,0.2c-0.3,0-0.4-0.1-0.6-0.2c-0.1-0.1-0.2-0.3-0.2-0.4c0-0.2,0.1-0.4,0.2-0.5s0.3-0.3,0.6-0.4l0.4-0.2
			c0.4-0.2,0.7-0.5,0.9-0.7c0.2-0.3,0.3-0.6,0.3-1c0-0.5-0.2-0.8-0.5-1.1c-0.3-0.3-0.8-0.5-1.4-0.5c-0.2,0-0.4,0-0.6,0.1
			c-0.2,0-0.3,0.1-0.5,0.2c-0.1,0.1-0.2,0.1-0.3,0.2c-0.1,0.1-0.2,0.1-0.2,0.2l0.5,0.8c0,0,0.1-0.1,0.2-0.2c0.1-0.1,0.1-0.1,0.2-0.2
			c0.1-0.1,0.2-0.1,0.3-0.1c0.1,0,0.3-0.1,0.4-0.1c0.3,0,0.5,0.1,0.7,0.2c0.2,0.1,0.2,0.3,0.2,0.5c0,0.1,0,0.3-0.1,0.4
			c0,0.1-0.1,0.2-0.2,0.3c-0.1,0.1-0.2,0.2-0.3,0.2c-0.1,0.1-0.2,0.2-0.4,0.2l-0.4,0.2c-0.4,0.2-0.6,0.5-0.8,0.7
			c-0.2,0.3-0.3,0.6-0.3,1c0,0.2,0,0.4,0.1,0.6c0.1,0.2,0.2,0.3,0.4,0.5c0.2,0.1,0.3,0.2,0.5,0.3c0.2,0.1,0.4,0.1,0.6,0.1
			c0.2,0,0.4,0,0.6-0.1c0.2,0,0.3-0.1,0.4-0.2c0.1-0.1,0.2-0.1,0.3-0.2c0.1-0.1,0.1-0.1,0.2-0.2L91.4,81.7z M96.1,77.1v3.7
			c0,0.5-0.1,0.8-0.2,1c-0.1,0.2-0.4,0.3-0.7,0.3c-0.2,0-0.3,0-0.4-0.1c-0.1,0-0.2-0.1-0.3-0.1c-0.1-0.1-0.2-0.1-0.2-0.2
			c-0.1-0.1-0.1-0.1-0.2-0.2v-4.4h-1v5.7H94v-0.6h0c0,0.1,0.1,0.1,0.2,0.2c0.1,0.1,0.2,0.2,0.3,0.3c0.1,0.1,0.3,0.2,0.4,0.2
			C95,83,95.2,83,95.4,83c0.6,0,1.1-0.3,1.4-0.8c0.1,0.1,0.1,0.2,0.2,0.3c0.1,0.1,0.2,0.2,0.3,0.2c0.1,0.1,0.3,0.1,0.4,0.2
			c0.2,0,0.3,0.1,0.5,0.1c1.2,0,1.7-0.7,1.7-2v-3.8h-1v3.7c0,0.5-0.1,0.8-0.2,1c-0.2,0.2-0.4,0.3-0.7,0.3c-0.3,0-0.5-0.1-0.7-0.2
			c-0.2-0.1-0.3-0.3-0.4-0.4c0-0.1,0-0.2,0-0.3c0-0.1,0-0.2,0-0.3v-3.8H96.1z M102.4,77.1h-1v5.7h1V77.1z M102,84.2
			c-0.2,0-0.4,0.1-0.5,0.2c-0.1,0.1-0.2,0.3-0.2,0.5c0,0.2,0.1,0.4,0.2,0.5c0.1,0.1,0.3,0.2,0.5,0.2c0.2,0,0.3-0.1,0.5-0.2
			c0.1-0.1,0.2-0.3,0.2-0.5c0-0.2-0.1-0.4-0.2-0.5C102.3,84.3,102.2,84.2,102,84.2z M107,77.1v3.7c0,0.5-0.1,0.8-0.2,1
			c-0.2,0.2-0.4,0.3-0.7,0.3c-0.3,0-0.5-0.1-0.7-0.2c-0.2-0.1-0.3-0.3-0.5-0.4v-4.4h-1v5.7h0.9v-0.6h0c0,0,0.1,0.1,0.2,0.2
			c0.1,0.1,0.2,0.2,0.3,0.3c0.1,0.1,0.3,0.2,0.5,0.2c0.2,0.1,0.4,0.1,0.6,0.1c0.3,0,0.5,0,0.7-0.1c0.2-0.1,0.4-0.2,0.5-0.4
			c0.1-0.2,0.3-0.4,0.3-0.6c0.1-0.3,0.1-0.6,0.1-1v-3.7H107z M110.4,77.1h-1v5.7h1V77.1z M109.9,84.2c-0.2,0-0.4,0.1-0.5,0.2
			c-0.1,0.1-0.2,0.3-0.2,0.5c0,0.2,0.1,0.4,0.2,0.5c0.1,0.1,0.3,0.2,0.5,0.2c0.2,0,0.3-0.1,0.5-0.2c0.1-0.1,0.2-0.3,0.2-0.5
			c0-0.2-0.1-0.4-0.2-0.5C110.3,84.3,110.1,84.2,109.9,84.2z M114.3,81.7c-0.1,0.1-0.2,0.2-0.3,0.3c-0.2,0.1-0.4,0.2-0.7,0.2
			c-0.3,0-0.4-0.1-0.6-0.2c-0.1-0.1-0.2-0.3-0.2-0.4c0-0.2,0.1-0.4,0.2-0.5c0.1-0.1,0.3-0.3,0.6-0.4l0.4-0.2
			c0.4-0.2,0.7-0.5,0.9-0.7c0.2-0.3,0.3-0.6,0.3-1c0-0.5-0.2-0.8-0.5-1.1c-0.3-0.3-0.8-0.5-1.4-0.5c-0.2,0-0.4,0-0.6,0.1
			c-0.2,0-0.3,0.1-0.5,0.2c-0.1,0.1-0.2,0.1-0.3,0.2c-0.1,0.1-0.2,0.1-0.2,0.2l0.5,0.8c0,0,0.1-0.1,0.2-0.2c0.1-0.1,0.1-0.1,0.2-0.2
			c0.1-0.1,0.2-0.1,0.3-0.1c0.1,0,0.3-0.1,0.4-0.1c0.3,0,0.5,0.1,0.7,0.2c0.2,0.1,0.2,0.3,0.2,0.5c0,0.1,0,0.3-0.1,0.4
			c0,0.1-0.1,0.2-0.2,0.3c-0.1,0.1-0.2,0.2-0.3,0.2c-0.1,0.1-0.2,0.2-0.4,0.2l-0.4,0.2c-0.4,0.2-0.6,0.5-0.8,0.7
			c-0.2,0.3-0.3,0.6-0.3,1c0,0.2,0,0.4,0.1,0.6c0.1,0.2,0.2,0.3,0.4,0.5c0.2,0.1,0.3,0.2,0.5,0.3c0.2,0.1,0.4,0.1,0.6,0.1
			c0.2,0,0.4,0,0.6-0.1c0.2,0,0.3-0.1,0.4-0.2c0.1-0.1,0.2-0.1,0.3-0.2c0.1-0.1,0.1-0.1,0.2-0.2L114.3,81.7z M118.5,82.1h-1.2v-3.2
			c0-0.4,0.1-0.7,0.2-0.8c0.1-0.1,0.3-0.2,0.5-0.2c0.1,0,0.3,0,0.4,0.1c0.1,0,0.2,0.1,0.2,0.1l0.1-0.8c0,0-0.1-0.1-0.3-0.1
			c-0.2-0.1-0.4-0.1-0.6-0.1c-0.5,0-0.9,0.1-1.1,0.4c-0.2,0.3-0.4,0.7-0.4,1.4v3.3h-0.7v0.6l0.7,0.1l0.1,1.6h0.9v-1.6h1.4
			L118.5,82.1z M123.2,80.9c0-0.2,0-0.5,0-0.6c0-0.2,0-0.3,0-0.5h-2.9c0-0.7,0.2-1.2,0.4-1.5c0.3-0.3,0.6-0.5,1.1-0.5
			c0.2,0,0.3,0,0.5,0.1c0.1,0,0.3,0.1,0.4,0.1c0.1,0.1,0.2,0.1,0.2,0.2c0.1,0.1,0.1,0.1,0.1,0.1l0.4-0.7c0,0-0.1-0.1-0.2-0.2
			c-0.1-0.1-0.2-0.2-0.3-0.2c-0.1-0.1-0.3-0.1-0.5-0.2c-0.2-0.1-0.4-0.1-0.7-0.1c-0.4,0-0.7,0.1-1,0.2c-0.3,0.1-0.5,0.3-0.7,0.6
			c-0.2,0.2-0.4,0.6-0.5,1s-0.2,0.8-0.2,1.4c0,0.5,0.1,0.9,0.2,1.3c0.1,0.4,0.3,0.7,0.5,0.9s0.4,0.4,0.7,0.5s0.5,0.2,0.8,0.2
			c0.5,0,1-0.2,1.3-0.5C123,82.1,123.2,81.6,123.2,80.9z M121.4,82.2c-0.3,0-0.6-0.1-0.8-0.4c-0.2-0.3-0.3-0.7-0.4-1.2h2.1
			c0,0,0,0.1,0,0.2c0,0.1,0,0.2,0,0.2c0,0.4-0.1,0.7-0.2,0.9C121.9,82.1,121.7,82.2,121.4,82.2z M127,82c0,0-0.1,0-0.2,0.1
			c-0.1,0-0.2,0-0.3,0c-0.3,0-0.5-0.1-0.7-0.2c-0.2-0.2-0.3-0.3-0.4-0.5v-4.2h-1v5.7h0.9v-0.8h0c0,0.1,0.1,0.2,0.2,0.3
			c0.1,0.1,0.1,0.2,0.2,0.3c0.1,0.1,0.2,0.1,0.3,0.2c0.1,0,0.3,0.1,0.5,0.1c0.1,0,0.2,0,0.3,0c0.1,0,0.1,0,0.2-0.1L127,82z
			 M128.9,77.1h-1v5.7h1V77.1z M128.4,84.2c-0.2,0-0.4,0.1-0.5,0.2c-0.1,0.1-0.2,0.3-0.2,0.5c0,0.2,0.1,0.4,0.2,0.5
			c0.1,0.1,0.3,0.2,0.5,0.2c0.2,0,0.3-0.1,0.5-0.2c0.1-0.1,0.2-0.3,0.2-0.5c0-0.2-0.1-0.4-0.2-0.5C128.7,84.3,128.6,84.2,128.4,84.2
			z M134.3,77.1h-0.9v0.6h0c0,0-0.1-0.1-0.2-0.2c-0.1-0.1-0.2-0.2-0.3-0.3c-0.1-0.1-0.3-0.2-0.4-0.2c-0.2-0.1-0.4-0.1-0.6-0.1
			c-0.3,0-0.5,0-0.7,0.1c-0.2,0.1-0.4,0.2-0.5,0.4c-0.1,0.2-0.3,0.4-0.3,0.6c-0.1,0.3-0.1,0.6-0.1,1v3.7h1v-3.7c0-0.5,0.1-0.8,0.2-1
			c0.2-0.2,0.4-0.3,0.7-0.3c0.3,0,0.5,0.1,0.7,0.2c0.2,0.1,0.3,0.3,0.5,0.4v4.4h1V77.1z M138.8,77.1v3.7c0,0.5-0.1,0.8-0.2,1
			c-0.1,0.2-0.4,0.3-0.7,0.3c-0.2,0-0.3,0-0.4-0.1c-0.1,0-0.2-0.1-0.3-0.1c-0.1-0.1-0.2-0.1-0.2-0.2c-0.1-0.1-0.1-0.1-0.2-0.2v-4.4
			h-1v5.7h0.9v-0.6h0c0,0.1,0.1,0.1,0.2,0.2c0.1,0.1,0.2,0.2,0.3,0.3c0.1,0.1,0.3,0.2,0.4,0.2c0.2,0.1,0.3,0.1,0.5,0.1
			c0.7,0,1.1-0.3,1.4-0.8c0.1,0.1,0.1,0.2,0.2,0.3c0.1,0.1,0.2,0.2,0.3,0.2c0.1,0.1,0.3,0.1,0.4,0.2c0.2,0,0.3,0.1,0.5,0.1
			c1.2,0,1.7-0.7,1.7-2v-3.8h-1v3.7c0,0.5-0.1,0.8-0.2,1c-0.2,0.2-0.4,0.3-0.7,0.3c-0.3,0-0.5-0.1-0.7-0.2c-0.2-0.1-0.3-0.3-0.4-0.4
			c0-0.1,0-0.2,0-0.3c0-0.1,0-0.2,0-0.3v-3.8H138.8z M61.2,67.9c0,0.6,0.1,1.1,0.2,1.5c0.2,0.4,0.3,0.7,0.6,0.9
			c0.2,0.2,0.5,0.4,0.8,0.5c0.3,0.1,0.6,0.1,0.9,0.1c0.2,0,0.3,0,0.5,0c0.1,0,0.2-0.1,0.3-0.1v2.7l1,0.1v-8.5h-0.9v0.6h0
			c0,0-0.1-0.1-0.1-0.2c-0.1-0.1-0.2-0.2-0.3-0.2c-0.1-0.1-0.2-0.2-0.4-0.2C63.6,65,63.4,65,63.2,65c-0.3,0-0.5,0.1-0.8,0.2
			c-0.2,0.1-0.5,0.3-0.6,0.5c-0.2,0.2-0.3,0.5-0.4,0.9C61.3,67,61.2,67.4,61.2,67.9z M63.5,65.9c0.2,0,0.3,0,0.4,0.1
			c0.1,0,0.2,0.1,0.3,0.1c0.1,0.1,0.2,0.1,0.2,0.2c0.1,0.1,0.1,0.1,0.1,0.2v3.5c-0.1,0.1-0.2,0.1-0.3,0.1c-0.1,0-0.3,0.1-0.4,0.1
			c-0.2,0-0.4,0-0.6-0.1c-0.2-0.1-0.4-0.2-0.5-0.4c-0.1-0.2-0.3-0.4-0.3-0.7c-0.1-0.3-0.1-0.6-0.1-1c0-0.4,0-0.7,0.1-1
			c0.1-0.3,0.2-0.5,0.3-0.6c0.1-0.2,0.3-0.3,0.4-0.4C63.1,65.9,63.3,65.9,63.5,65.9z M70.6,68.9c0-0.2,0-0.5,0-0.6
			c0-0.2,0-0.3,0-0.5h-2.9c0-0.7,0.2-1.2,0.4-1.5c0.3-0.3,0.6-0.5,1.1-0.5c0.2,0,0.3,0,0.5,0.1c0.1,0,0.3,0.1,0.4,0.1
			c0.1,0.1,0.2,0.1,0.2,0.2c0.1,0.1,0.1,0.1,0.1,0.1l0.4-0.7c0,0-0.1-0.1-0.2-0.2c-0.1-0.1-0.2-0.2-0.3-0.2
			c-0.1-0.1-0.3-0.1-0.5-0.2C69.6,65,69.3,65,69.1,65c-0.4,0-0.7,0.1-1,0.2c-0.3,0.1-0.5,0.3-0.7,0.6c-0.2,0.2-0.4,0.6-0.5,1
			c-0.1,0.4-0.2,0.8-0.2,1.4c0,0.5,0.1,0.9,0.2,1.3c0.1,0.4,0.3,0.7,0.5,0.9c0.2,0.2,0.4,0.4,0.7,0.5c0.3,0.1,0.5,0.2,0.8,0.2
			c0.5,0,1-0.2,1.3-0.5C70.5,70.1,70.6,69.6,70.6,68.9z M68.8,70.2c-0.3,0-0.6-0.1-0.8-0.4c-0.2-0.3-0.3-0.7-0.4-1.2h2.1
			c0,0,0,0.1,0,0.2c0,0.1,0,0.2,0,0.2c0,0.4-0.1,0.7-0.2,0.9C69.4,70.1,69.1,70.2,68.8,70.2z M74.4,69.7c-0.1,0.1-0.2,0.2-0.3,0.3
			c-0.2,0.1-0.4,0.2-0.7,0.2c-0.3,0-0.4-0.1-0.6-0.2c-0.1-0.1-0.2-0.3-0.2-0.4c0-0.2,0.1-0.4,0.2-0.5c0.1-0.1,0.3-0.3,0.6-0.4
			l0.4-0.2c0.4-0.2,0.7-0.5,0.9-0.7c0.2-0.3,0.3-0.6,0.3-1c0-0.5-0.2-0.8-0.5-1.1c-0.3-0.3-0.8-0.5-1.3-0.5c-0.2,0-0.4,0-0.6,0.1
			c-0.2,0-0.3,0.1-0.5,0.2c-0.1,0.1-0.2,0.1-0.3,0.2c-0.1,0.1-0.2,0.1-0.2,0.2l0.5,0.8c0,0,0.1-0.1,0.2-0.2c0.1-0.1,0.1-0.1,0.2-0.2
			c0.1-0.1,0.2-0.1,0.3-0.1c0.1,0,0.3-0.1,0.4-0.1c0.3,0,0.5,0.1,0.7,0.2c0.2,0.1,0.2,0.3,0.2,0.5c0,0.1,0,0.3-0.1,0.4
			c0,0.1-0.1,0.2-0.2,0.3c-0.1,0.1-0.2,0.2-0.3,0.2c-0.1,0.1-0.2,0.2-0.4,0.2l-0.4,0.2c-0.4,0.2-0.6,0.5-0.8,0.7
			c-0.2,0.3-0.3,0.6-0.3,1c0,0.2,0,0.4,0.1,0.6c0.1,0.2,0.2,0.3,0.4,0.5c0.2,0.1,0.3,0.2,0.5,0.3c0.2,0.1,0.4,0.1,0.6,0.1
			c0.2,0,0.4,0,0.6-0.1c0.2,0,0.3-0.1,0.4-0.2c0.1-0.1,0.2-0.1,0.3-0.2c0.1-0.1,0.1-0.1,0.2-0.2L74.4,69.7z M79.2,72.6h-0.9v0.7h2.8
			v-0.7h-0.9v-6.7h0.9v-0.8h-2.8v0.8h0.9V72.6z M85.4,65.1v3.7c0,0.5-0.1,0.8-0.2,1c-0.2,0.2-0.4,0.3-0.7,0.3
			c-0.3,0-0.5-0.1-0.7-0.2c-0.2-0.1-0.3-0.3-0.5-0.4v-4.4h-1v5.7h0.9v-0.6h0c0,0,0.1,0.1,0.2,0.2c0.1,0.1,0.2,0.2,0.3,0.3
			c0.1,0.1,0.3,0.2,0.5,0.2c0.2,0.1,0.4,0.1,0.6,0.1c0.3,0,0.5,0,0.7-0.1c0.2-0.1,0.4-0.2,0.5-0.4c0.1-0.2,0.3-0.4,0.3-0.6
			c0.1-0.3,0.1-0.6,0.1-1v-3.7H85.4z M90.9,65.1v3.7c0,0.5-0.1,0.8-0.2,1c-0.2,0.2-0.4,0.3-0.7,0.3c-0.3,0-0.5-0.1-0.7-0.2
			c-0.2-0.1-0.3-0.3-0.5-0.4v-4.4h-1v5.7h0.9v-0.6h0c0,0,0.1,0.1,0.2,0.2c0.1,0.1,0.2,0.2,0.3,0.3c0.1,0.1,0.3,0.2,0.5,0.2
			C89.8,71,90,71,90.2,71c0.3,0,0.5,0,0.7-0.1c0.2-0.1,0.4-0.2,0.5-0.4c0.1-0.2,0.3-0.4,0.3-0.6c0.1-0.3,0.1-0.6,0.1-1v-3.7H90.9z
			 M97,68.9c0-0.2,0-0.5,0-0.6c0-0.2,0-0.3,0-0.5H94c0-0.7,0.2-1.2,0.4-1.5c0.3-0.3,0.6-0.5,1.1-0.5c0.2,0,0.3,0,0.5,0.1
			c0.1,0,0.3,0.1,0.4,0.1c0.1,0.1,0.2,0.1,0.2,0.2c0.1,0.1,0.1,0.1,0.1,0.1l0.4-0.7c0,0-0.1-0.1-0.2-0.2c-0.1-0.1-0.2-0.2-0.3-0.2
			c-0.1-0.1-0.3-0.1-0.5-0.2C95.9,65,95.7,65,95.4,65c-0.4,0-0.7,0.1-1,0.2c-0.3,0.1-0.5,0.3-0.7,0.6c-0.2,0.2-0.4,0.6-0.5,1
			c-0.1,0.4-0.2,0.8-0.2,1.4c0,0.5,0.1,0.9,0.2,1.3c0.1,0.4,0.3,0.7,0.5,0.9c0.2,0.2,0.4,0.4,0.7,0.5c0.3,0.1,0.5,0.2,0.8,0.2
			c0.5,0,1-0.2,1.3-0.5S97,69.6,97,68.9z M95.2,70.2c-0.3,0-0.6-0.1-0.8-0.4c-0.2-0.3-0.3-0.7-0.4-1.2h2.1c0,0,0,0.1,0,0.2
			c0,0.1,0,0.2,0,0.2c0,0.4-0.1,0.7-0.2,0.9C95.7,70.1,95.5,70.2,95.2,70.2z M100.8,70c0,0-0.1,0-0.2,0.1c-0.1,0-0.2,0-0.3,0
			c-0.3,0-0.5-0.1-0.7-0.2c-0.2-0.2-0.3-0.3-0.4-0.5v-4.2h-1v5.7h0.9v-0.8h0c0,0.1,0.1,0.2,0.2,0.3c0.1,0.1,0.1,0.2,0.2,0.3
			c0.1,0.1,0.2,0.1,0.3,0.2c0.1,0,0.3,0.1,0.5,0.1c0.1,0,0.2,0,0.3,0c0.1,0,0.1,0,0.2-0.1L100.8,70z M104.9,65.1v3.7
			c0,0.5-0.1,0.8-0.2,1c-0.2,0.2-0.4,0.3-0.7,0.3c-0.3,0-0.5-0.1-0.7-0.2c-0.2-0.1-0.3-0.3-0.5-0.4v-4.4h-1v5.7h0.9v-0.6h0
			c0,0,0.1,0.1,0.2,0.2c0.1,0.1,0.2,0.2,0.3,0.3c0.1,0.1,0.3,0.2,0.5,0.2c0.2,0.1,0.4,0.1,0.6,0.1c0.3,0,0.5,0,0.7-0.1
			c0.2-0.1,0.4-0.2,0.5-0.4c0.1-0.2,0.3-0.4,0.3-0.6c0.1-0.3,0.1-0.6,0.1-1v-3.7H104.9z M65.5,53.1h-0.9v0.6h0c0,0-0.1-0.1-0.2-0.2
			c-0.1-0.1-0.2-0.2-0.3-0.3c-0.1-0.1-0.3-0.2-0.4-0.2C63.5,53,63.3,53,63.1,53c-0.3,0-0.5,0-0.7,0.1c-0.2,0.1-0.4,0.2-0.5,0.4
			c-0.1,0.2-0.3,0.4-0.3,0.6c-0.1,0.3-0.1,0.6-0.1,1v3.7h1v-3.7c0-0.5,0.1-0.8,0.2-1c0.2-0.2,0.4-0.3,0.7-0.3c0.3,0,0.5,0.1,0.7,0.2
			c0.2,0.1,0.3,0.3,0.5,0.4v4.4h1V53.1z M70.1,53.1v3.7c0,0.5-0.1,0.8-0.2,1c-0.2,0.2-0.4,0.3-0.7,0.3c-0.3,0-0.5-0.1-0.7-0.2
			c-0.2-0.1-0.3-0.3-0.5-0.4v-4.4h-1v5.7h0.9v-0.6h0c0,0,0.1,0.1,0.2,0.2c0.1,0.1,0.2,0.2,0.3,0.3c0.1,0.1,0.3,0.2,0.5,0.2
			c0.2,0.1,0.4,0.1,0.6,0.1c0.3,0,0.5,0,0.7-0.1c0.2-0.1,0.4-0.2,0.5-0.4c0.1-0.2,0.3-0.4,0.3-0.6c0.1-0.3,0.1-0.6,0.1-1v-3.7H70.1z
			 M72.2,55.9c0,0.6,0.1,1.1,0.2,1.5c0.2,0.4,0.3,0.7,0.6,0.9c0.2,0.2,0.5,0.4,0.8,0.5c0.3,0.1,0.6,0.1,0.9,0.1c0.2,0,0.3,0,0.5,0
			c0.1,0,0.2-0.1,0.3-0.1v2.7l1,0.1v-8.5h-0.9v0.6h0c0,0-0.1-0.1-0.1-0.2c-0.1-0.1-0.2-0.2-0.3-0.2c-0.1-0.1-0.2-0.2-0.4-0.2
			C74.6,53,74.4,53,74.2,53c-0.3,0-0.5,0.1-0.8,0.2c-0.2,0.1-0.5,0.3-0.6,0.5c-0.2,0.2-0.3,0.5-0.4,0.9C72.2,55,72.2,55.4,72.2,55.9
			z M74.5,53.9c0.2,0,0.3,0,0.4,0.1c0.1,0,0.2,0.1,0.3,0.1c0.1,0.1,0.2,0.1,0.2,0.2c0.1,0.1,0.1,0.1,0.1,0.2v3.5
			c-0.1,0.1-0.2,0.1-0.3,0.1c-0.1,0-0.3,0.1-0.4,0.1c-0.2,0-0.4,0-0.6-0.1c-0.2-0.1-0.4-0.2-0.5-0.4c-0.1-0.2-0.3-0.4-0.3-0.7
			c-0.1-0.3-0.1-0.6-0.1-1c0-0.4,0-0.7,0.1-1c0.1-0.3,0.2-0.5,0.3-0.6c0.1-0.2,0.3-0.3,0.4-0.4C74.1,53.9,74.3,53.9,74.5,53.9z
			 M82.9,58.1h-1.2v-4.9h-1v4.9h-0.7v0.6l0.7,0.1V60c0,0.3,0,0.6,0.1,0.8c0.1,0.2,0.2,0.4,0.3,0.5c0.1,0.1,0.3,0.2,0.5,0.3
			c0.2,0.1,0.4,0.1,0.6,0.1c0.2,0,0.4,0,0.5-0.1c0.1-0.1,0.2-0.1,0.3-0.1L83,60.7c0,0-0.1,0.1-0.2,0.1c-0.1,0-0.2,0.1-0.3,0.1
			c-0.2,0-0.4-0.1-0.5-0.2c-0.1-0.1-0.2-0.4-0.2-0.8v-1H83L82.9,58.1z M87.8,53.1H87v0.6h0c0,0-0.1-0.1-0.2-0.2
			c-0.1-0.1-0.2-0.2-0.3-0.3c-0.1-0.1-0.3-0.2-0.4-0.2C85.9,53,85.7,53,85.5,53c-0.3,0-0.5,0-0.7,0.1c-0.2,0.1-0.4,0.2-0.5,0.4
			c-0.1,0.2-0.3,0.4-0.3,0.6c-0.1,0.3-0.1,0.6-0.1,1v3.7h1v-3.7c0-0.5,0.1-0.8,0.2-1c0.2-0.2,0.4-0.3,0.7-0.3c0.3,0,0.5,0.1,0.7,0.2
			c0.2,0.1,0.3,0.3,0.5,0.4v4.4h1V53.1z M85.5,60.5c0-0.2-0.1-0.3-0.2-0.4c-0.1-0.1-0.2-0.2-0.4-0.2s-0.3,0.1-0.4,0.2
			s-0.2,0.3-0.2,0.4c0,0.2,0.1,0.3,0.2,0.4c0.1,0.1,0.2,0.2,0.4,0.2s0.3-0.1,0.4-0.2C85.4,60.8,85.5,60.7,85.5,60.5z M87.3,60.5
			c0-0.2-0.1-0.3-0.2-0.4s-0.2-0.2-0.4-0.2c-0.2,0-0.3,0.1-0.4,0.2s-0.2,0.3-0.2,0.4c0,0.2,0.1,0.3,0.2,0.4c0.1,0.1,0.2,0.2,0.4,0.2
			c0.2,0,0.3-0.1,0.4-0.2C87.3,60.8,87.3,60.7,87.3,60.5z M91.8,58c0,0-0.1,0-0.2,0.1c-0.1,0-0.2,0-0.3,0c-0.3,0-0.5-0.1-0.7-0.2
			c-0.2-0.2-0.3-0.3-0.4-0.5v-4.2h-1v5.7h0.9v-0.8h0c0,0.1,0.1,0.2,0.2,0.3c0.1,0.1,0.1,0.2,0.2,0.3c0.1,0.1,0.2,0.1,0.3,0.2
			c0.1,0,0.3,0.1,0.5,0.1c0.1,0,0.2,0,0.3,0c0.1,0,0.1,0,0.2-0.1L91.8,58z M100.7,53.1h-1v3.7h-3.4v-3.7h-1v8.2h1v-3.7h3.4v3.7h1
			V53.1z M106,56.9c0-0.2,0-0.5,0-0.6c0-0.2,0-0.3,0-0.5H103c0-0.7,0.2-1.2,0.4-1.5c0.3-0.3,0.6-0.5,1.1-0.5c0.2,0,0.3,0,0.5,0.1
			c0.1,0,0.3,0.1,0.4,0.1c0.1,0.1,0.2,0.1,0.2,0.2c0.1,0.1,0.1,0.1,0.1,0.1l0.4-0.7c0,0-0.1-0.1-0.2-0.2s-0.2-0.2-0.3-0.2
			s-0.3-0.1-0.5-0.2c-0.2-0.1-0.4-0.1-0.7-0.1c-0.4,0-0.7,0.1-1,0.2c-0.3,0.1-0.5,0.3-0.7,0.6c-0.2,0.2-0.4,0.6-0.5,1
			c-0.1,0.4-0.2,0.8-0.2,1.4c0,0.5,0.1,0.9,0.2,1.3c0.1,0.4,0.3,0.7,0.5,0.9c0.2,0.2,0.4,0.4,0.7,0.5c0.3,0.1,0.5,0.2,0.8,0.2
			c0.5,0,1-0.2,1.3-0.5C105.8,58.1,106,57.6,106,56.9z M104.2,58.2c-0.3,0-0.6-0.1-0.8-0.4c-0.2-0.3-0.3-0.7-0.4-1.2h2.1
			c0,0,0,0.1,0,0.2c0,0.1,0,0.2,0,0.2c0,0.4-0.1,0.7-0.2,0.9C104.7,58.1,104.5,58.2,104.2,58.2z M108.2,53.1h-1v5.7h1V53.1z
			 M107.8,60.2c-0.2,0-0.4,0.1-0.5,0.2c-0.1,0.1-0.2,0.3-0.2,0.5c0,0.2,0.1,0.4,0.2,0.5c0.1,0.1,0.3,0.2,0.5,0.2
			c0.2,0,0.3-0.1,0.5-0.2c0.1-0.1,0.2-0.3,0.2-0.5c0-0.2-0.1-0.4-0.2-0.5C108.1,60.3,108,60.2,107.8,60.2z M112.7,53.1v3.7
			c0,0.5-0.1,0.8-0.2,1c-0.1,0.2-0.4,0.3-0.7,0.3c-0.2,0-0.3,0-0.4-0.1c-0.1,0-0.2-0.1-0.3-0.1c-0.1-0.1-0.2-0.1-0.2-0.2
			c-0.1-0.1-0.1-0.1-0.2-0.2v-4.4h-1v5.7h0.9v-0.6h0c0,0.1,0.1,0.1,0.2,0.2c0.1,0.1,0.2,0.2,0.3,0.3c0.1,0.1,0.3,0.2,0.4,0.2
			c0.2,0.1,0.3,0.1,0.5,0.1c0.7,0,1.1-0.3,1.4-0.8c0.1,0.1,0.1,0.2,0.2,0.3s0.2,0.2,0.3,0.2c0.1,0.1,0.3,0.1,0.4,0.2
			c0.2,0,0.3,0.1,0.5,0.1c1.2,0,1.7-0.7,1.7-2v-3.8h-1v3.7c0,0.5-0.1,0.8-0.2,1c-0.2,0.2-0.4,0.3-0.7,0.3c-0.3,0-0.5-0.1-0.7-0.2
			c-0.2-0.1-0.3-0.3-0.4-0.4c0-0.1,0-0.2,0-0.3c0-0.1,0-0.2,0-0.3v-3.8H112.7z M117.8,54.6c0,0.3,0.1,0.6,0.2,0.8s0.3,0.4,0.5,0.5
			c0.2,0.1,0.5,0.2,0.8,0.3c0.3,0.1,0.6,0.1,0.9,0.1h0.3v0.5c0,0.5-0.1,0.8-0.3,1c-0.2,0.2-0.4,0.3-0.7,0.3c-0.3,0-0.5-0.1-0.7-0.2
			c-0.2-0.1-0.3-0.2-0.5-0.3l-0.4,0.6c0.1,0.1,0.1,0.1,0.2,0.2c0.1,0.1,0.2,0.2,0.4,0.2c0.1,0.1,0.3,0.1,0.5,0.2
			c0.2,0,0.4,0.1,0.6,0.1c0.6,0,1-0.2,1.3-0.5c0.3-0.3,0.5-0.8,0.5-1.6v-2.6c0-0.2,0-0.5,0-0.7c0-0.2,0-0.4,0-0.5h-0.9l0,0.6h0
			c0-0.1-0.1-0.2-0.1-0.2c-0.1-0.1-0.1-0.2-0.2-0.2s-0.2-0.1-0.3-0.2c-0.1-0.1-0.3-0.1-0.5-0.1c-0.2,0-0.4,0-0.6,0.1
			c-0.2,0.1-0.3,0.2-0.5,0.3c-0.1,0.1-0.2,0.3-0.3,0.5C117.8,54.2,117.8,54.4,117.8,54.6z M119.5,53.8c0.1,0,0.3,0,0.4,0.1
			c0.1,0,0.2,0.1,0.3,0.1c0.1,0.1,0.1,0.1,0.2,0.2c0.1,0.1,0.1,0.1,0.1,0.2v1.3l-0.3,0c-0.5,0-0.8-0.1-1-0.2
			c-0.2-0.1-0.4-0.4-0.4-0.7c0-0.3,0.1-0.5,0.2-0.7C119.1,53.9,119.3,53.8,119.5,53.8z M125.3,58.1h-1.2v-3.2c0-0.4,0.1-0.7,0.2-0.8
			c0.1-0.1,0.3-0.2,0.5-0.2c0.1,0,0.3,0,0.4,0.1c0.1,0,0.2,0.1,0.2,0.1l0.1-0.8c0,0-0.1-0.1-0.3-0.1c-0.1-0.1-0.4-0.1-0.6-0.1
			c-0.5,0-0.9,0.1-1.1,0.4c-0.2,0.3-0.4,0.7-0.4,1.4v3.3h-0.7v0.6l0.7,0.1l0.1,1.6h0.9v-1.6h1.4L125.3,58.1z"/>
	</g>
</g>
</svg>
