<svg width="255" height="156" viewBox="0 0 255 156" fill="none" xmlns="http://www.w3.org/2000/svg">
<path d="M255 0H0V156H255V0Z" fill="white"/>
<path d="M81.7905 92.9922H84.0416V122.989H78.7891V92.9922" fill="#FFCC00"/>
<path d="M81.7905 62.8438H84.0416V92.9904H78.7891V62.8438" fill="#FF0000"/>
<path d="M55.7811 44.008C55.8035 43.6634 55.8035 43.3177 55.7811 42.9731C55.7948 42.7483 55.7948 42.5229 55.7811 42.2982C58.7826 42.2982 61.3938 40.0934 61.3938 37.6187C61.3011 36.5715 60.8445 35.5898 60.1032 34.844L60.4183 34.769C60.9143 35.2041 61.3194 35.7328 61.6104 36.3248C61.9015 36.9168 62.0726 37.5604 62.1141 38.2186C61.9612 39.8033 61.2232 41.2742 60.044 42.3445C58.8648 43.4148 57.329 44.0079 55.7361 44.008H55.7811ZM52.7347 33.6591C52.6753 33.3405 52.5473 33.0385 52.3595 32.7742C52.3595 32.4593 52.4946 32.1743 52.9748 32.4143C52.7197 32.6842 52.9748 33.1642 52.9748 33.1642C52.9748 33.1642 53.5151 32.9092 53.41 32.5493C54.2054 32.7442 53.6351 33.8241 52.7947 33.6591H52.7347ZM52.0894 35.159C51.98 34.7033 51.7697 34.2779 51.4741 33.9141C51.322 33.7124 51.1277 33.5461 50.9049 33.427C50.682 33.3079 50.4358 33.2386 50.1835 33.2242C49.8367 33.2539 49.497 33.34 49.178 33.4792C49.0247 33.2036 48.9182 32.9046 48.8629 32.5943C48.8629 32.3843 49.223 32.1593 49.9284 32.1593C51.4291 32.1593 52.4045 32.8642 52.4045 34.0341C52.3779 34.4267 52.2706 34.8096 52.0894 35.159ZM56.0663 55.1068C56.1905 55.0861 56.3173 55.0861 56.4415 55.1068C57.0668 56.3771 57.8158 57.5828 58.6775 58.7064C59.471 58.5707 60.2737 58.4955 61.0787 58.4814C61.1714 58.4516 61.2711 58.4516 61.3638 58.4814C61.3951 58.584 61.3951 58.6937 61.3638 58.7964C61.3583 59.0648 61.2861 59.3276 61.1537 59.5613C60.9315 59.368 60.6708 59.224 60.3889 59.1387C60.1069 59.0534 59.8101 59.0287 59.5179 59.0663C59.2801 59.0798 59.044 59.115 58.8126 59.1713L59.2928 59.6363C60.0131 60.3712 60.6434 61.0011 60.6434 61.4211C60.6192 61.5664 60.5654 61.7053 60.4854 61.8291C60.4054 61.9529 60.3008 62.0591 60.1782 62.141C59.8936 61.2563 59.31 60.4981 58.5274 59.9962V60.2662C58.5274 60.4462 58.5274 60.7161 58.5274 61.0161C58.5274 62.5159 58.3774 62.6959 57.8671 62.6959C57.7777 62.7102 57.6865 62.7102 57.597 62.6959C57.9204 62.2156 58.0638 61.6367 58.0022 61.0611V60.3862C57.9812 60.1266 57.9812 59.8658 58.0022 59.6063V59.4863C57.664 59.4367 57.3233 59.4067 56.9817 59.3963C56.448 59.333 55.9104 59.4781 55.481 59.8012C55.2501 59.6197 55.0864 59.3663 55.0158 59.0813C55.0158 58.7664 55.1959 58.7514 55.451 58.7514H55.8562C56.432 58.8402 57.0144 58.8804 57.597 58.8713C57.0985 57.7737 56.4299 56.7614 55.6161 55.8717C55.7061 55.5267 55.8112 55.3017 56.1413 55.3017L56.0663 55.1068ZM46.8819 58.8863C47.4646 58.8961 48.047 58.856 48.6227 58.7664H49.0279C49.2831 58.7664 49.4782 58.7664 49.4782 59.0963C49.4069 59.3849 49.2371 59.6396 48.9979 59.8162C48.5686 59.4931 48.031 59.348 47.4972 59.4113C47.1556 59.4217 46.8149 59.4517 46.4767 59.5013H46.4017V59.6213C46.4227 59.8808 46.4227 60.1416 46.4017 60.4012V61.0761C46.3401 61.6517 46.4835 62.2306 46.8069 62.7109C46.7174 62.7252 46.6262 62.7252 46.5368 62.7109C46.0265 62.7109 45.8764 62.4859 45.8764 61.0311C45.8764 60.7311 45.8764 60.4612 45.8764 60.2812V59.9962H45.8014C45.0036 60.5667 44.4429 61.4099 44.2257 62.366C44.1031 62.284 43.9985 62.1779 43.9185 62.0541C43.8385 61.9303 43.7847 61.7914 43.7604 61.646C43.7604 61.2261 44.3907 60.5962 45.1111 59.8612L45.5313 59.4413H45.3962C45.1648 59.3849 44.9287 59.3498 44.6909 59.3363C44.3987 59.2987 44.1019 59.3233 43.8199 59.4087C43.538 59.494 43.2773 59.638 43.0551 59.8312C42.9227 59.5976 42.8505 59.3348 42.845 59.0663C42.8328 58.9536 42.8651 58.8406 42.935 58.7514C43.0224 58.7205 43.1178 58.7205 43.2052 58.7514C44.0051 58.7653 44.8028 58.8405 45.5913 58.9763C46.4531 57.8527 47.202 56.647 47.8274 55.3767C47.9516 55.356 48.0783 55.356 48.2025 55.3767C48.5327 55.3767 48.6378 55.6017 48.7278 55.9467C47.9193 56.8405 47.2513 57.8519 46.7469 58.9463L46.8819 58.8863ZM42.1547 38.2186C42.2411 36.8931 42.8446 35.6544 43.8355 34.769L44.1506 34.844C43.4093 35.5898 42.9527 36.5715 42.86 37.6187C42.86 40.1234 45.5313 42.2982 48.5627 42.2982C48.5627 42.5082 48.5627 42.7331 48.5627 42.9731C48.5394 43.3177 48.5394 43.6634 48.5627 44.008C46.9595 44.0229 45.4089 43.4366 44.217 42.3648C43.0251 41.293 42.2785 39.8136 42.1247 38.2186H42.1547ZM65.1156 43.498C65.507 44.3287 66.1573 45.0102 66.9691 45.4401C67.7808 45.8701 68.7102 46.0254 69.6177 45.8828C68.4273 44.9421 67.4115 43.7999 66.6163 42.5082L63.81 38.0087C63.5384 36.5996 62.8107 35.3189 61.739 34.3641C62.0362 34.2613 62.3188 34.1202 62.5794 33.9441C61.0482 33.7087 59.5304 33.3933 58.0322 32.9992C57.3869 32.9992 56.9667 33.3742 56.9667 33.8841C56.9667 34.3941 57.597 35.024 58.6775 35.024C58.9747 35.0194 59.2709 34.9893 59.5629 34.934C60.1935 35.6572 60.5634 36.5707 60.6134 37.5287C60.6134 39.4935 58.2723 41.0233 55.9012 41.0233H55.526C55.0488 40.3594 54.7305 39.5948 54.5956 38.7886C54.5956 37.2887 55.6161 35.9539 55.6161 34.4091C55.6135 33.753 55.3857 33.1176 54.9708 32.6093C55.2504 32.3798 55.4846 32.1 55.6611 31.7843C55.4375 31.821 55.2094 31.821 54.9858 31.7843C53.8602 31.7843 52.9298 31.4844 51.9843 31.4844C51.4591 31.4844 51.324 31.6494 51.324 31.7993C51.3138 31.8438 51.3138 31.8899 51.324 31.9343C51.1292 31.8617 50.9283 31.8065 50.7237 31.7693C50.4413 31.7201 50.1551 31.695 49.8683 31.6944C48.7728 31.6944 48.3676 32.1593 48.3676 32.5493C48.4392 33.0563 48.6294 33.5394 48.9229 33.9591C49.2935 33.7695 49.695 33.6476 50.1084 33.5991C50.6937 33.5991 51.204 34.1541 51.4741 34.814C51.1894 34.8364 50.9034 34.8364 50.6187 34.814C49.9535 34.7856 49.2961 34.6593 48.6678 34.439C48.6678 34.439 48.9679 34.979 49.5682 35.204C50.278 35.418 51.0067 35.5637 51.7442 35.6389C51.6561 35.8425 51.5031 36.0113 51.309 36.1189H51.174C50.4519 35.9895 49.747 35.7782 49.073 35.4889C49.073 35.9089 50.1385 36.8088 51.0989 37.1687C50.1036 38.2171 49.3326 39.4572 48.8328 40.8133H48.4277C46.0565 40.8133 43.7154 39.3135 43.7154 37.3187C43.7654 36.3608 44.1353 35.4472 44.7659 34.724C45.063 34.7793 45.3642 34.8094 45.6663 34.814C46.7318 34.814 47.3171 34.2441 47.3621 33.6741C47.4072 33.1042 46.9419 32.7892 46.2966 32.7892C44.7685 33.1814 43.2206 33.4918 41.6594 33.7191C41.92 33.8952 42.2026 34.0364 42.4998 34.1391C41.4333 35.0981 40.7066 36.3769 40.4289 37.7837L37.6225 42.2832C36.8273 43.5749 35.8115 44.7171 34.6211 45.6578C35.5286 45.8005 36.458 45.6451 37.2698 45.2152C38.0815 44.7852 38.7318 44.1038 39.1232 43.2731L40.6239 40.9783C40.7323 41.2775 40.8627 41.5683 41.0141 41.8482L38.1478 46.4227C37.3564 47.7173 36.34 48.8601 35.1463 49.7974C36.0539 49.94 36.9833 49.7847 37.795 49.3547C38.6067 48.9247 39.2571 48.2433 39.6485 47.4126L42.1096 43.4681C42.2933 43.6741 42.4887 43.8694 42.6949 44.053L39.2133 49.6024C38.4219 50.897 37.4055 52.0398 36.2118 52.977C37.1194 53.1196 38.0488 52.9643 38.8605 52.5344C39.6722 52.1044 40.3226 51.4229 40.714 50.5923L44.1056 45.1779L44.7809 45.5828L40.654 52.1971C39.8626 53.4917 38.8462 54.6345 37.6525 55.5717C38.5603 55.7169 39.4907 55.5627 40.303 55.1324C41.1152 54.7021 41.7652 54.0192 42.1547 53.187L46.4167 46.3777L47.1821 46.6477L42.3798 54.3418C41.5788 55.6292 40.5637 56.7705 39.3784 57.7165C40.2861 57.8616 41.2165 57.7074 42.0288 57.2772C42.8411 56.8469 43.4911 56.164 43.8805 55.3317L49.0129 47.1276H49.163C49.3124 47.5366 49.3935 47.9673 49.4031 48.4025C49.2829 49.7045 48.8893 50.9666 48.248 52.1063C47.6067 53.246 46.7321 54.2378 45.6813 55.0168C45.8705 55.0436 46.0625 55.0436 46.2516 55.0168C46.5413 55.0409 46.8324 55.0409 47.122 55.0168C46.6796 56.2247 46.127 57.3895 45.4712 58.4964C44.7223 58.3692 43.9648 58.299 43.2052 58.2864C42.5299 58.2864 42.4548 58.6764 42.4548 59.0213C42.4505 59.2757 42.5036 59.5278 42.6102 59.7589C42.7167 59.99 42.8739 60.1941 43.0701 60.3562C43.1902 60.0562 43.4453 59.6363 44.6609 59.6363H44.7959C44.4358 60.0412 43.2952 60.9411 43.2952 61.676C43.3262 61.9888 43.4665 62.2807 43.6917 62.5002C43.9168 62.7196 44.2122 62.8527 44.5258 62.8759C44.5061 62.7416 44.5061 62.6052 44.5258 62.471C44.6433 61.7884 44.9868 61.1651 45.5013 60.7011C45.4934 60.801 45.4934 60.9013 45.5013 61.0011C45.5013 62.396 45.6363 63.0409 46.5217 63.0409C46.8289 63.0312 47.1244 62.9205 47.3621 62.7259C47.1206 62.515 46.9372 62.2457 46.8295 61.9437C46.7217 61.6417 46.6933 61.3172 46.7469 61.0011C46.7469 60.7911 46.7469 60.5962 46.7469 60.3262C46.7622 60.1315 46.7622 59.9359 46.7469 59.7413C46.9765 59.7212 47.2075 59.7212 47.4372 59.7413C47.4372 59.7413 48.6978 59.6363 48.9379 60.2962C49.2831 59.9812 49.7783 59.5313 49.7783 59.0513C49.7783 58.5714 49.6282 58.3614 48.9679 58.3614C48.7278 58.3614 47.9624 58.5114 47.3021 58.5114C47.7793 57.6897 48.3213 56.9073 48.9229 56.1716C49.0475 56.4943 49.2544 56.7787 49.5232 56.9966C49.6363 55.852 50.0448 54.7564 50.7087 53.8169C50.8943 54.741 50.9998 55.6794 51.0239 56.6216C51.0239 60.0862 50.1835 62.6209 48.4126 63.1309C48.5365 63.3518 48.7142 63.5379 48.9294 63.6716C49.1446 63.8054 49.3902 63.8825 49.6432 63.8958C50.2885 63.8958 50.6337 63.1609 50.9939 62.396C51.189 62.9059 51.6992 64.1658 52.2245 64.1658C52.7497 64.1658 53.2599 62.9059 53.455 62.396C53.8152 63.0859 54.1604 63.8958 54.8057 63.8958C55.0587 63.8825 55.3043 63.8054 55.5195 63.6716C55.7347 63.5379 55.9124 63.3518 56.0363 63.1309C54.2654 62.6509 53.425 60.1312 53.425 56.6216C53.4211 55.692 53.4964 54.7637 53.6501 53.8469C54.2826 54.7852 54.6648 55.8693 54.7607 56.9966C55.0579 56.7521 55.2727 56.4223 55.3759 56.0517C55.9981 56.8157 56.5506 57.6339 57.0267 58.4964C56.3814 58.4964 55.6011 58.3464 55.3609 58.3464C54.7006 58.3464 54.5506 58.7064 54.5506 59.0363C54.5506 59.3663 55.0458 59.9662 55.391 60.2812C55.6911 59.6213 56.8917 59.7263 56.8917 59.7263C57.1213 59.7057 57.3523 59.7057 57.582 59.7263C57.5666 59.9209 57.5666 60.1165 57.582 60.3112C57.582 60.5812 57.582 60.7761 57.582 60.9861C57.6375 61.2925 57.6159 61.6078 57.5189 61.9037C57.422 62.1996 57.2528 62.4667 57.0267 62.6809C57.2645 62.8755 57.5599 62.9862 57.8671 62.9959C58.7526 62.9959 58.8876 62.351 58.8876 60.9561C58.8955 60.8563 58.8955 60.756 58.8876 60.6561C59.4021 61.1201 59.7456 61.7434 59.8631 62.426C59.8828 62.5602 59.8828 62.6966 59.8631 62.8309C60.1767 62.8077 60.4721 62.6747 60.6972 62.4552C60.9223 62.2357 61.0627 61.9438 61.0937 61.631C61.0937 60.8961 59.9681 59.9962 59.5929 59.5913H59.713C60.9286 59.5913 61.2137 60.0112 61.3038 60.3112C61.5 60.1491 61.6572 59.945 61.7637 59.7139C61.8702 59.4828 61.9233 59.2307 61.9191 58.9763C61.9191 58.6314 61.844 58.2414 61.1837 58.2414C60.424 58.2525 59.6664 58.3227 58.9176 58.4514C58.1542 57.4616 57.486 56.402 56.9217 55.2867C57.2113 55.3102 57.5024 55.3102 57.7921 55.2867C57.9812 55.3136 58.1732 55.3136 58.3624 55.2867C57.3116 54.5077 56.437 53.516 55.7957 52.3763C55.1544 51.2366 54.7608 49.9745 54.6406 48.6725C54.6502 48.2372 54.7314 47.8066 54.8807 47.3976H55.0308L60.0282 55.4967C60.4176 56.329 61.0676 57.0119 61.8799 57.4421C62.6922 57.8724 63.6225 58.0266 64.5303 57.8815C63.3391 56.9417 62.323 55.7993 61.5289 54.5068L56.7116 46.8127L57.4769 46.5427L61.739 53.352C62.1284 54.1842 62.7784 54.8671 63.5907 55.2974C64.403 55.7276 65.3333 55.8818 66.2411 55.7367C65.0516 54.7951 64.0359 53.6531 63.2397 52.3621L59.1127 45.7478L59.803 45.3428L63.1797 50.7572C63.571 51.5879 64.2214 52.2694 65.0331 52.6993C65.8449 53.1293 66.7742 53.2846 67.6818 53.142C66.4882 52.2048 65.4717 51.0619 64.6804 49.7674L61.5289 44.263C61.7351 44.0794 61.9305 43.8841 62.1141 43.678L64.5303 47.6226C64.9217 48.4533 65.572 49.1347 66.3838 49.5647C67.1955 49.9947 68.1249 50.15 69.0324 50.0073C67.8388 49.0701 66.8224 47.9273 66.031 46.6327L63.2847 41.9982C63.4422 41.7213 63.5729 41.43 63.6749 41.1283" fill="black"/>
<path d="M84.0416 33V62.9967H81.7905H78.7891V33" fill="black"/>
<path d="M102.984 40.776C102.984 41.1707 102.931 41.512 102.824 41.8C102.717 42.0773 102.568 42.3173 102.376 42.52C102.195 42.712 101.981 42.872 101.736 43C101.501 43.128 101.251 43.2347 100.984 43.32V43.352C101.315 43.416 101.619 43.5173 101.896 43.656C102.184 43.7947 102.429 43.976 102.632 44.2C102.845 44.424 103.011 44.6907 103.128 45C103.245 45.2987 103.304 45.6347 103.304 46.008C103.304 46.4453 103.219 46.8453 103.048 47.208C102.888 47.5707 102.632 47.8853 102.28 48.152C101.928 48.4187 101.48 48.6267 100.936 48.776C100.392 48.9253 99.7413 49 98.984 49H96.488V37.96H98.84C99.5867 37.96 100.221 38.0293 100.744 38.168C101.277 38.296 101.709 38.4827 102.04 38.728C102.371 38.9733 102.611 39.272 102.76 39.624C102.909 39.9653 102.984 40.3493 102.984 40.776ZM101.544 40.824C101.544 40.3227 101.331 39.912 100.904 39.592C100.488 39.272 99.8 39.112 98.84 39.112H97.88V42.856H98.824C99.752 42.856 100.435 42.68 100.872 42.328C101.32 41.976 101.544 41.4747 101.544 40.824ZM101.816 45.912C101.816 45.304 101.576 44.8347 101.096 44.504C100.616 44.1733 99.944 44.008 99.08 44.008H97.88V47.848H98.984C99.9973 47.848 100.723 47.6827 101.16 47.352C101.597 47.0213 101.816 46.5413 101.816 45.912ZM111.227 49H110.027V48.136H109.995C109.931 48.2107 109.84 48.3067 109.723 48.424C109.605 48.5413 109.451 48.6587 109.259 48.776C109.077 48.8827 108.853 48.9787 108.587 49.064C108.32 49.1493 108 49.192 107.627 49.192C106.827 49.192 106.219 48.9413 105.803 48.44C105.387 47.9387 105.179 47.1493 105.179 46.072V41.32H106.475V45.864C106.475 46.632 106.592 47.1867 106.827 47.528C107.061 47.8693 107.44 48.04 107.963 48.04C108.229 48.04 108.464 48.0133 108.667 47.96C108.88 47.896 109.067 47.8213 109.227 47.736C109.387 47.6507 109.52 47.56 109.627 47.464C109.744 47.368 109.845 47.2827 109.931 47.208V41.32H111.227V49ZM118.29 49V44.456C118.29 43.72 118.167 43.176 117.922 42.824C117.687 42.4613 117.298 42.28 116.754 42.28C116.498 42.28 116.263 42.312 116.05 42.376C115.837 42.4293 115.645 42.4987 115.474 42.584C115.314 42.6587 115.17 42.7493 115.042 42.856C114.925 42.952 114.823 43.0373 114.738 43.112V49H113.442V41.32H114.642V42.184H114.674C114.749 42.0987 114.85 41.9973 114.978 41.88C115.117 41.7627 115.282 41.6507 115.474 41.544C115.677 41.4267 115.906 41.3307 116.162 41.256C116.429 41.1707 116.727 41.128 117.058 41.128C117.879 41.128 118.503 41.384 118.93 41.896C119.367 42.408 119.586 43.192 119.586 44.248V49H118.29ZM121.335 45.32C121.335 44.584 121.442 43.9547 121.655 43.432C121.869 42.8987 122.151 42.4667 122.503 42.136C122.855 41.8053 123.255 41.5653 123.703 41.416C124.151 41.256 124.61 41.176 125.079 41.176C125.421 41.176 125.709 41.208 125.943 41.272C126.178 41.3253 126.37 41.384 126.519 41.448V37.688L127.815 37.544V49H126.615V48.136H126.583C126.53 48.2107 126.45 48.3067 126.343 48.424C126.247 48.5413 126.109 48.6587 125.927 48.776C125.757 48.8827 125.538 48.9787 125.271 49.064C125.005 49.1493 124.679 49.192 124.295 49.192C123.879 49.192 123.49 49.112 123.127 48.952C122.765 48.7813 122.45 48.5307 122.183 48.2C121.917 47.8693 121.709 47.464 121.559 46.984C121.41 46.504 121.335 45.9493 121.335 45.32ZM124.775 48.04C125.031 48.04 125.255 48.008 125.447 47.944C125.65 47.88 125.821 47.8053 125.959 47.72C126.098 47.6347 126.21 47.544 126.295 47.448C126.391 47.3413 126.466 47.256 126.519 47.192V42.712C126.381 42.616 126.199 42.5307 125.975 42.456C125.762 42.3707 125.485 42.328 125.143 42.328C124.397 42.328 123.799 42.552 123.351 43C122.903 43.448 122.679 44.1893 122.679 45.224C122.679 45.736 122.733 46.1733 122.839 46.536C122.957 46.888 123.106 47.176 123.287 47.4C123.479 47.624 123.703 47.7893 123.959 47.896C124.215 47.992 124.487 48.04 124.775 48.04ZM135.548 44.136C135.548 44.392 135.532 44.6267 135.5 44.84C135.479 45.0533 135.447 45.2507 135.404 45.432H130.94C130.994 46.328 131.218 46.9893 131.612 47.416C132.018 47.832 132.572 48.04 133.276 48.04C133.575 48.04 133.836 48.0133 134.06 47.96C134.295 47.896 134.492 47.8267 134.652 47.752C134.823 47.6773 134.956 47.6027 135.052 47.528C135.159 47.4427 135.239 47.3733 135.292 47.32L135.676 48.248C135.612 48.312 135.516 48.3973 135.388 48.504C135.271 48.6107 135.111 48.7173 134.908 48.824C134.716 48.92 134.471 49.0053 134.172 49.08C133.884 49.1547 133.538 49.192 133.132 49.192C132.044 49.192 131.191 48.8613 130.572 48.2C129.954 47.5387 129.644 46.4933 129.644 45.064C129.644 44.392 129.735 43.8107 129.916 43.32C130.098 42.8187 130.343 42.408 130.652 42.088C130.962 41.768 131.314 41.528 131.708 41.368C132.114 41.208 132.535 41.128 132.972 41.128C133.772 41.128 134.402 41.3893 134.86 41.912C135.319 42.424 135.548 43.1653 135.548 44.136ZM132.86 42.232C132.316 42.232 131.874 42.424 131.532 42.808C131.191 43.1813 130.994 43.72 130.94 44.424H134.3C134.322 44.328 134.332 44.2427 134.332 44.168C134.332 44.0827 134.332 43.9973 134.332 43.912C134.332 43.368 134.199 42.952 133.932 42.664C133.676 42.376 133.319 42.232 132.86 42.232ZM141.239 42.92C141.175 42.8667 141.09 42.8027 140.983 42.728C140.876 42.6427 140.748 42.568 140.599 42.504C140.46 42.4293 140.3 42.3707 140.119 42.328C139.948 42.2747 139.756 42.248 139.543 42.248C139.127 42.248 138.818 42.328 138.615 42.488C138.412 42.6373 138.311 42.824 138.311 43.048C138.311 43.3573 138.402 43.5973 138.583 43.768C138.775 43.9387 139.074 44.1307 139.479 44.344L140.055 44.632C140.663 44.9413 141.122 45.2773 141.431 45.64C141.751 45.992 141.911 46.4507 141.911 47.016C141.911 47.304 141.852 47.5813 141.735 47.848C141.628 48.1147 141.463 48.3493 141.239 48.552C141.015 48.744 140.732 48.8987 140.391 49.016C140.05 49.1333 139.644 49.192 139.175 49.192C138.855 49.192 138.572 49.1653 138.327 49.112C138.082 49.0587 137.863 48.9893 137.671 48.904C137.49 48.8187 137.33 48.7333 137.191 48.648C137.063 48.552 136.956 48.4613 136.871 48.376L137.351 47.24C137.522 47.4107 137.751 47.5867 138.039 47.768C138.327 47.9493 138.706 48.04 139.175 48.04C139.666 48.04 140.034 47.96 140.279 47.8C140.524 47.6293 140.647 47.4213 140.647 47.176C140.647 46.9947 140.615 46.84 140.551 46.712C140.498 46.5733 140.412 46.4507 140.295 46.344C140.188 46.2267 140.05 46.12 139.879 46.024C139.708 45.928 139.516 45.8213 139.303 45.704L138.743 45.4C138.188 45.1013 137.772 44.7813 137.495 44.44C137.228 44.088 137.095 43.6453 137.095 43.112C137.095 42.824 137.154 42.5627 137.271 42.328C137.399 42.0827 137.57 41.8747 137.783 41.704C138.007 41.5227 138.268 41.384 138.567 41.288C138.876 41.1813 139.212 41.128 139.575 41.128C139.884 41.128 140.151 41.1547 140.375 41.208C140.61 41.2613 140.812 41.3307 140.983 41.416C141.154 41.4907 141.292 41.5707 141.399 41.656C141.516 41.7413 141.607 41.8107 141.671 41.864L141.239 42.92ZM148.271 49V44.456C148.271 43.688 148.159 43.1333 147.935 42.792C147.721 42.4507 147.375 42.28 146.895 42.28C146.617 42.28 146.372 42.312 146.159 42.376C145.945 42.4293 145.759 42.4987 145.599 42.584C145.439 42.6693 145.3 42.76 145.183 42.856C145.076 42.952 144.985 43.0373 144.911 43.112V49H143.615V41.32H144.815V42.184H144.847C144.921 42.0987 145.028 41.9973 145.167 41.88C145.305 41.752 145.471 41.6347 145.663 41.528C145.855 41.4107 146.079 41.3147 146.335 41.24C146.591 41.1653 146.879 41.128 147.199 41.128C147.647 41.128 148.036 41.224 148.367 41.416C148.708 41.5973 148.975 41.88 149.167 42.264C149.263 42.1573 149.385 42.04 149.535 41.912C149.695 41.7733 149.876 41.6507 150.079 41.544C150.281 41.4267 150.511 41.3307 150.767 41.256C151.023 41.1707 151.305 41.128 151.615 41.128C152.457 41.128 153.103 41.384 153.551 41.896C153.999 42.408 154.223 43.192 154.223 44.248V49H152.927V44.456C152.927 43.688 152.788 43.1333 152.511 42.792C152.233 42.4507 151.833 42.28 151.311 42.28C150.852 42.28 150.468 42.3813 150.159 42.584C149.86 42.776 149.625 42.952 149.455 43.112C149.529 43.4213 149.567 43.8 149.567 44.248V49H148.271ZM157.945 38.552C157.945 38.8293 157.854 39.0533 157.673 39.224C157.492 39.384 157.273 39.464 157.017 39.464C156.761 39.464 156.542 39.384 156.361 39.224C156.19 39.0533 156.105 38.8293 156.105 38.552C156.105 38.2747 156.19 38.0507 156.361 37.88C156.542 37.7093 156.761 37.624 157.017 37.624C157.273 37.624 157.492 37.7093 157.673 37.88C157.854 38.0507 157.945 38.2747 157.945 38.552ZM157.657 49H156.361V41.32H157.657V49ZM164.705 49V44.456C164.705 43.72 164.582 43.176 164.337 42.824C164.102 42.4613 163.713 42.28 163.169 42.28C162.913 42.28 162.678 42.312 162.465 42.376C162.252 42.4293 162.06 42.4987 161.889 42.584C161.729 42.6587 161.585 42.7493 161.457 42.856C161.34 42.952 161.238 43.0373 161.153 43.112V49H159.857V41.32H161.057V42.184H161.089C161.164 42.0987 161.265 41.9973 161.393 41.88C161.532 41.7627 161.697 41.6507 161.889 41.544C162.092 41.4267 162.321 41.3307 162.577 41.256C162.844 41.1707 163.142 41.128 163.473 41.128C164.294 41.128 164.918 41.384 165.345 41.896C165.782 42.408 166.001 43.192 166.001 44.248V49H164.705ZM169.734 38.552C169.734 38.8293 169.644 39.0533 169.462 39.224C169.281 39.384 169.062 39.464 168.806 39.464C168.55 39.464 168.332 39.384 168.15 39.224C167.98 39.0533 167.894 38.8293 167.894 38.552C167.894 38.2747 167.98 38.0507 168.15 37.88C168.332 37.7093 168.55 37.624 168.806 37.624C169.062 37.624 169.281 37.7093 169.462 37.88C169.644 38.0507 169.734 38.2747 169.734 38.552ZM169.446 49H168.15V41.32H169.446V49ZM175.455 42.92C175.391 42.8667 175.305 42.8027 175.199 42.728C175.092 42.6427 174.964 42.568 174.815 42.504C174.676 42.4293 174.516 42.3707 174.335 42.328C174.164 42.2747 173.972 42.248 173.759 42.248C173.343 42.248 173.033 42.328 172.831 42.488C172.628 42.6373 172.527 42.824 172.527 43.048C172.527 43.3573 172.617 43.5973 172.799 43.768C172.991 43.9387 173.289 44.1307 173.695 44.344L174.271 44.632C174.879 44.9413 175.337 45.2773 175.647 45.64C175.967 45.992 176.127 46.4507 176.127 47.016C176.127 47.304 176.068 47.5813 175.951 47.848C175.844 48.1147 175.679 48.3493 175.455 48.552C175.231 48.744 174.948 48.8987 174.607 49.016C174.265 49.1333 173.86 49.192 173.391 49.192C173.071 49.192 172.788 49.1653 172.543 49.112C172.297 49.0587 172.079 48.9893 171.887 48.904C171.705 48.8187 171.545 48.7333 171.407 48.648C171.279 48.552 171.172 48.4613 171.087 48.376L171.567 47.24C171.737 47.4107 171.967 47.5867 172.255 47.768C172.543 47.9493 172.921 48.04 173.391 48.04C173.881 48.04 174.249 47.96 174.495 47.8C174.74 47.6293 174.863 47.4213 174.863 47.176C174.863 46.9947 174.831 46.84 174.767 46.712C174.713 46.5733 174.628 46.4507 174.511 46.344C174.404 46.2267 174.265 46.12 174.095 46.024C173.924 45.928 173.732 45.8213 173.519 45.704L172.959 45.4C172.404 45.1013 171.988 44.7813 171.711 44.44C171.444 44.088 171.311 43.6453 171.311 43.112C171.311 42.824 171.369 42.5627 171.487 42.328C171.615 42.0827 171.785 41.8747 171.999 41.704C172.223 41.5227 172.484 41.384 172.783 41.288C173.092 41.1813 173.428 41.128 173.791 41.128C174.1 41.128 174.367 41.1547 174.591 41.208C174.825 41.2613 175.028 41.3307 175.199 41.416C175.369 41.4907 175.508 41.5707 175.615 41.656C175.732 41.7413 175.823 41.8107 175.887 41.864L175.455 42.92ZM181.446 42.424H179.462V46.392C179.462 47 179.548 47.4267 179.718 47.672C179.889 47.9173 180.188 48.04 180.614 48.04C180.828 48.04 181.009 48.0133 181.158 47.96C181.308 47.9067 181.425 47.8587 181.51 47.816L181.638 48.856C181.564 48.8987 181.414 48.9627 181.19 49.048C180.977 49.144 180.668 49.192 180.262 49.192C179.505 49.192 178.966 48.9787 178.646 48.552C178.326 48.1147 178.166 47.4533 178.166 46.568V42.424H177.11V41.512L178.166 41.32L178.31 39.176H179.462V41.32H181.606L181.446 42.424ZM188.565 44.136C188.565 44.392 188.549 44.6267 188.517 44.84C188.496 45.0533 188.464 45.2507 188.421 45.432H183.957C184.011 46.328 184.235 46.9893 184.629 47.416C185.035 47.832 185.589 48.04 186.293 48.04C186.592 48.04 186.853 48.0133 187.077 47.96C187.312 47.896 187.509 47.8267 187.669 47.752C187.84 47.6773 187.973 47.6027 188.069 47.528C188.176 47.4427 188.256 47.3733 188.309 47.32L188.693 48.248C188.629 48.312 188.533 48.3973 188.405 48.504C188.288 48.6107 188.128 48.7173 187.925 48.824C187.733 48.92 187.488 49.0053 187.189 49.08C186.901 49.1547 186.555 49.192 186.149 49.192C185.061 49.192 184.208 48.8613 183.589 48.2C182.971 47.5387 182.661 46.4933 182.661 45.064C182.661 44.392 182.752 43.8107 182.933 43.32C183.115 42.8187 183.36 42.408 183.669 42.088C183.979 41.768 184.331 41.528 184.725 41.368C185.131 41.208 185.552 41.128 185.989 41.128C186.789 41.128 187.419 41.3893 187.877 41.912C188.336 42.424 188.565 43.1653 188.565 44.136ZM185.877 42.232C185.333 42.232 184.891 42.424 184.549 42.808C184.208 43.1813 184.011 43.72 183.957 44.424H187.317C187.339 44.328 187.349 44.2427 187.349 44.168C187.349 44.0827 187.349 43.9973 187.349 43.912C187.349 43.368 187.216 42.952 186.949 42.664C186.693 42.376 186.336 42.232 185.877 42.232ZM194.224 42.472C194.17 42.4507 194.09 42.424 193.984 42.392C193.888 42.3493 193.733 42.328 193.52 42.328C193.264 42.328 193.034 42.3653 192.832 42.44C192.64 42.504 192.469 42.5893 192.32 42.696C192.181 42.8027 192.064 42.92 191.968 43.048C191.872 43.176 191.797 43.2987 191.744 43.416V49H190.448V41.32H191.648V42.456H191.68C191.744 42.3173 191.824 42.1733 191.92 42.024C192.016 41.8747 192.138 41.736 192.288 41.608C192.448 41.48 192.634 41.3787 192.848 41.304C193.072 41.2187 193.333 41.176 193.632 41.176C193.792 41.176 193.925 41.1867 194.032 41.208C194.138 41.2293 194.24 41.256 194.336 41.288L194.224 42.472ZM197.262 38.552C197.262 38.8293 197.172 39.0533 196.99 39.224C196.809 39.384 196.59 39.464 196.334 39.464C196.078 39.464 195.86 39.384 195.678 39.224C195.508 39.0533 195.422 38.8293 195.422 38.552C195.422 38.2747 195.508 38.0507 195.678 37.88C195.86 37.7093 196.078 37.624 196.334 37.624C196.59 37.624 196.809 37.7093 196.99 37.88C197.172 38.0507 197.262 38.2747 197.262 38.552ZM196.974 49H195.678V41.32H196.974V49ZM205.159 49H203.959V48.136H203.927C203.863 48.2107 203.772 48.3067 203.655 48.424C203.537 48.5413 203.383 48.6587 203.191 48.776C203.009 48.8827 202.785 48.9787 202.519 49.064C202.252 49.1493 201.932 49.192 201.559 49.192C200.759 49.192 200.151 48.9413 199.735 48.44C199.319 47.9387 199.111 47.1493 199.111 46.072V41.32H200.407V45.864C200.407 46.632 200.524 47.1867 200.759 47.528C200.993 47.8693 201.372 48.04 201.895 48.04C202.161 48.04 202.396 48.0133 202.599 47.96C202.812 47.896 202.999 47.8213 203.159 47.736C203.319 47.6507 203.452 47.56 203.559 47.464C203.676 47.368 203.777 47.2827 203.863 47.208V41.32H205.159V49ZM212.03 49V44.456C212.03 43.688 211.918 43.1333 211.694 42.792C211.481 42.4507 211.134 42.28 210.654 42.28C210.377 42.28 210.131 42.312 209.918 42.376C209.705 42.4293 209.518 42.4987 209.358 42.584C209.198 42.6693 209.059 42.76 208.942 42.856C208.835 42.952 208.745 43.0373 208.67 43.112V49H207.374V41.32H208.574V42.184H208.606C208.681 42.0987 208.787 41.9973 208.926 41.88C209.065 41.752 209.23 41.6347 209.422 41.528C209.614 41.4107 209.838 41.3147 210.094 41.24C210.35 41.1653 210.638 41.128 210.958 41.128C211.406 41.128 211.795 41.224 212.126 41.416C212.467 41.5973 212.734 41.88 212.926 42.264C213.022 42.1573 213.145 42.04 213.294 41.912C213.454 41.7733 213.635 41.6507 213.838 41.544C214.041 41.4267 214.27 41.3307 214.526 41.256C214.782 41.1707 215.065 41.128 215.374 41.128C216.217 41.128 216.862 41.384 217.31 41.896C217.758 42.408 217.982 43.192 217.982 44.248V49H216.686V44.456C216.686 43.688 216.547 43.1333 216.27 42.792C215.993 42.4507 215.593 42.28 215.07 42.28C214.611 42.28 214.227 42.3813 213.918 42.584C213.619 42.776 213.385 42.952 213.214 43.112C213.289 43.4213 213.326 43.8 213.326 44.248V49H212.03ZM95.784 63.32C95.784 62.584 95.8907 61.9547 96.104 61.432C96.3173 60.8987 96.6 60.4667 96.952 60.136C97.304 59.8053 97.704 59.5653 98.152 59.416C98.6 59.256 99.0587 59.176 99.528 59.176C99.8693 59.176 100.157 59.208 100.392 59.272C100.627 59.3253 100.819 59.384 100.968 59.448V55.688L102.264 55.544V67H101.064V66.136H101.032C100.979 66.2107 100.899 66.3067 100.792 66.424C100.696 66.5413 100.557 66.6587 100.376 66.776C100.205 66.8827 99.9867 66.9787 99.72 67.064C99.4533 67.1493 99.128 67.192 98.744 67.192C98.328 67.192 97.9387 67.112 97.576 66.952C97.2133 66.7813 96.8987 66.5307 96.632 66.2C96.3653 65.8693 96.1573 65.464 96.008 64.984C95.8587 64.504 95.784 63.9493 95.784 63.32ZM99.224 66.04C99.48 66.04 99.704 66.008 99.896 65.944C100.099 65.88 100.269 65.8053 100.408 65.72C100.547 65.6347 100.659 65.544 100.744 65.448C100.84 65.3413 100.915 65.256 100.968 65.192V60.712C100.829 60.616 100.648 60.5307 100.424 60.456C100.211 60.3707 99.9333 60.328 99.592 60.328C98.8453 60.328 98.248 60.552 97.8 61C97.352 61.448 97.128 62.1893 97.128 63.224C97.128 63.736 97.1813 64.1733 97.288 64.536C97.4053 64.888 97.5547 65.176 97.736 65.4C97.928 65.624 98.152 65.7893 98.408 65.896C98.664 65.992 98.936 66.04 99.224 66.04ZM109.997 62.136C109.997 62.392 109.981 62.6267 109.949 62.84C109.928 63.0533 109.896 63.2507 109.853 63.432H105.389C105.442 64.328 105.666 64.9893 106.061 65.416C106.466 65.832 107.021 66.04 107.725 66.04C108.024 66.04 108.285 66.0133 108.509 65.96C108.744 65.896 108.941 65.8267 109.101 65.752C109.272 65.6773 109.405 65.6027 109.501 65.528C109.608 65.4427 109.688 65.3733 109.741 65.32L110.125 66.248C110.061 66.312 109.965 66.3973 109.837 66.504C109.72 66.6107 109.56 66.7173 109.357 66.824C109.165 66.92 108.92 67.0053 108.621 67.08C108.333 67.1547 107.986 67.192 107.581 67.192C106.493 67.192 105.64 66.8613 105.021 66.2C104.402 65.5387 104.093 64.4933 104.093 63.064C104.093 62.392 104.184 61.8107 104.365 61.32C104.546 60.8187 104.792 60.408 105.101 60.088C105.41 59.768 105.762 59.528 106.157 59.368C106.562 59.208 106.984 59.128 107.421 59.128C108.221 59.128 108.85 59.3893 109.309 59.912C109.768 60.424 109.997 61.1653 109.997 62.136ZM107.309 60.232C106.765 60.232 106.322 60.424 105.981 60.808C105.64 61.1813 105.442 61.72 105.389 62.424H108.749C108.77 62.328 108.781 62.2427 108.781 62.168C108.781 62.0827 108.781 61.9973 108.781 61.912C108.781 61.368 108.648 60.952 108.381 60.664C108.125 60.376 107.768 60.232 107.309 60.232ZM115.688 60.92C115.624 60.8667 115.538 60.8027 115.432 60.728C115.325 60.6427 115.197 60.568 115.048 60.504C114.909 60.4293 114.749 60.3707 114.568 60.328C114.397 60.2747 114.205 60.248 113.992 60.248C113.576 60.248 113.266 60.328 113.064 60.488C112.861 60.6373 112.76 60.824 112.76 61.048C112.76 61.3573 112.85 61.5973 113.032 61.768C113.224 61.9387 113.522 62.1307 113.928 62.344L114.504 62.632C115.112 62.9413 115.57 63.2773 115.88 63.64C116.2 63.992 116.36 64.4507 116.36 65.016C116.36 65.304 116.301 65.5813 116.184 65.848C116.077 66.1147 115.912 66.3493 115.688 66.552C115.464 66.744 115.181 66.8987 114.84 67.016C114.498 67.1333 114.093 67.192 113.624 67.192C113.304 67.192 113.021 67.1653 112.776 67.112C112.53 67.0587 112.312 66.9893 112.12 66.904C111.938 66.8187 111.778 66.7333 111.64 66.648C111.512 66.552 111.405 66.4613 111.32 66.376L111.8 65.24C111.97 65.4107 112.2 65.5867 112.488 65.768C112.776 65.9493 113.154 66.04 113.624 66.04C114.114 66.04 114.482 65.96 114.728 65.8C114.973 65.6293 115.096 65.4213 115.096 65.176C115.096 64.9947 115.064 64.84 115 64.712C114.946 64.5733 114.861 64.4507 114.744 64.344C114.637 64.2267 114.498 64.12 114.328 64.024C114.157 63.928 113.965 63.8213 113.752 63.704L113.192 63.4C112.637 63.1013 112.221 62.7813 111.944 62.44C111.677 62.088 111.544 61.6453 111.544 61.112C111.544 60.824 111.602 60.5627 111.72 60.328C111.848 60.0827 112.018 59.8747 112.232 59.704C112.456 59.5227 112.717 59.384 113.016 59.288C113.325 59.1813 113.661 59.128 114.024 59.128C114.333 59.128 114.6 59.1547 114.824 59.208C115.058 59.2613 115.261 59.3307 115.432 59.416C115.602 59.4907 115.741 59.5707 115.848 59.656C115.965 59.7413 116.056 59.8107 116.12 59.864L115.688 60.92ZM122.441 56.968H121.097V55.96H125.177V56.968H123.833V65.992H125.225V67H121.049V65.992H122.441V56.968ZM131.732 67V62.456C131.732 61.72 131.609 61.176 131.364 60.824C131.129 60.4613 130.74 60.28 130.196 60.28C129.94 60.28 129.705 60.312 129.492 60.376C129.279 60.4293 129.087 60.4987 128.916 60.584C128.756 60.6587 128.612 60.7493 128.484 60.856C128.367 60.952 128.265 61.0373 128.18 61.112V67H126.884V59.32H128.084V60.184H128.116C128.191 60.0987 128.292 59.9973 128.42 59.88C128.559 59.7627 128.724 59.6507 128.916 59.544C129.119 59.4267 129.348 59.3307 129.604 59.256C129.871 59.1707 130.169 59.128 130.5 59.128C131.321 59.128 131.945 59.384 132.372 59.896C132.809 60.408 133.028 61.192 133.028 62.248V67H131.732ZM140.025 67V62.456C140.025 61.72 139.902 61.176 139.657 60.824C139.422 60.4613 139.033 60.28 138.489 60.28C138.233 60.28 137.998 60.312 137.785 60.376C137.572 60.4293 137.38 60.4987 137.209 60.584C137.049 60.6587 136.905 60.7493 136.777 60.856C136.66 60.952 136.558 61.0373 136.473 61.112V67H135.177V59.32H136.377V60.184H136.409C136.484 60.0987 136.585 59.9973 136.713 59.88C136.852 59.7627 137.017 59.6507 137.209 59.544C137.412 59.4267 137.641 59.3307 137.897 59.256C138.164 59.1707 138.462 59.128 138.793 59.128C139.614 59.128 140.238 59.384 140.665 59.896C141.102 60.408 141.321 61.192 141.321 62.248V67H140.025ZM148.99 62.136C148.99 62.392 148.974 62.6267 148.942 62.84C148.921 63.0533 148.889 63.2507 148.846 63.432H144.382C144.436 64.328 144.66 64.9893 145.054 65.416C145.46 65.832 146.014 66.04 146.718 66.04C147.017 66.04 147.278 66.0133 147.502 65.96C147.737 65.896 147.934 65.8267 148.094 65.752C148.265 65.6773 148.398 65.6027 148.494 65.528C148.601 65.4427 148.681 65.3733 148.734 65.32L149.118 66.248C149.054 66.312 148.958 66.3973 148.83 66.504C148.713 66.6107 148.553 66.7173 148.35 66.824C148.158 66.92 147.913 67.0053 147.614 67.08C147.326 67.1547 146.98 67.192 146.574 67.192C145.486 67.192 144.633 66.8613 144.014 66.2C143.396 65.5387 143.086 64.4933 143.086 63.064C143.086 62.392 143.177 61.8107 143.358 61.32C143.54 60.8187 143.785 60.408 144.094 60.088C144.404 59.768 144.756 59.528 145.15 59.368C145.556 59.208 145.977 59.128 146.414 59.128C147.214 59.128 147.844 59.3893 148.302 59.912C148.761 60.424 148.99 61.1653 148.99 62.136ZM146.302 60.232C145.758 60.232 145.316 60.424 144.974 60.808C144.633 61.1813 144.436 61.72 144.382 62.424H147.742C147.764 62.328 147.774 62.2427 147.774 62.168C147.774 62.0827 147.774 61.9973 147.774 61.912C147.774 61.368 147.641 60.952 147.374 60.664C147.118 60.376 146.761 60.232 146.302 60.232ZM154.649 60.472C154.595 60.4507 154.515 60.424 154.409 60.392C154.313 60.3493 154.158 60.328 153.945 60.328C153.689 60.328 153.459 60.3653 153.257 60.44C153.065 60.504 152.894 60.5893 152.745 60.696C152.606 60.8027 152.489 60.92 152.393 61.048C152.297 61.176 152.222 61.2987 152.169 61.416V67H150.873V59.32H152.073V60.456H152.105C152.169 60.3173 152.249 60.1733 152.345 60.024C152.441 59.8747 152.563 59.736 152.713 59.608C152.873 59.48 153.059 59.3787 153.273 59.304C153.497 59.2187 153.758 59.176 154.057 59.176C154.217 59.176 154.35 59.1867 154.457 59.208C154.563 59.2293 154.665 59.256 154.761 59.288L154.649 60.472ZM160.951 67V62.456C160.951 61.72 160.829 61.176 160.583 60.824C160.349 60.4613 159.959 60.28 159.415 60.28C159.159 60.28 158.925 60.312 158.711 60.376C158.498 60.4293 158.306 60.4987 158.135 60.584C157.975 60.6587 157.831 60.7493 157.703 60.856C157.586 60.952 157.485 61.0373 157.399 61.112V67H156.103V59.32H157.303V60.184H157.335C157.41 60.0987 157.511 59.9973 157.639 59.88C157.778 59.7627 157.943 59.6507 158.135 59.544C158.338 59.4267 158.567 59.3307 158.823 59.256C159.09 59.1707 159.389 59.128 159.719 59.128C160.541 59.128 161.165 59.384 161.591 59.896C162.029 60.408 162.247 61.192 162.247 62.248V67H160.951ZM102.168 85H100.968V84.136H100.936C100.872 84.2107 100.781 84.3067 100.664 84.424C100.547 84.5413 100.392 84.6587 100.2 84.776C100.019 84.8827 99.7947 84.9787 99.528 85.064C99.2613 85.1493 98.9413 85.192 98.568 85.192C97.768 85.192 97.16 84.9413 96.744 84.44C96.328 83.9387 96.12 83.1493 96.12 82.072V77.32H97.416V81.864C97.416 82.632 97.5333 83.1867 97.768 83.528C98.0027 83.8693 98.3813 84.04 98.904 84.04C99.1707 84.04 99.4053 84.0133 99.608 83.96C99.8213 83.896 100.008 83.8213 100.168 83.736C100.328 83.6507 100.461 83.56 100.568 83.464C100.685 83.368 100.787 83.2827 100.872 83.208V77.32H102.168V85ZM109.231 85V80.456C109.231 79.72 109.109 79.176 108.863 78.824C108.629 78.4613 108.239 78.28 107.695 78.28C107.439 78.28 107.205 78.312 106.991 78.376C106.778 78.4293 106.586 78.4987 106.415 78.584C106.255 78.6587 106.111 78.7493 105.983 78.856C105.866 78.952 105.765 79.0373 105.679 79.112V85H104.383V77.32H105.583V78.184H105.615C105.69 78.0987 105.791 77.9973 105.919 77.88C106.058 77.7627 106.223 77.6507 106.415 77.544C106.618 77.4267 106.847 77.3307 107.103 77.256C107.37 77.1707 107.669 77.128 107.999 77.128C108.821 77.128 109.445 77.384 109.871 77.896C110.309 78.408 110.527 79.192 110.527 80.248V85H109.231ZM112.277 81.32C112.277 80.584 112.383 79.9547 112.597 79.432C112.81 78.8987 113.093 78.4667 113.445 78.136C113.797 77.8053 114.197 77.5653 114.645 77.416C115.093 77.256 115.551 77.176 116.021 77.176C116.362 77.176 116.65 77.208 116.885 77.272C117.119 77.3253 117.311 77.384 117.461 77.448V73.688L118.757 73.544V85H117.557V84.136H117.525C117.471 84.2107 117.391 84.3067 117.285 84.424C117.189 84.5413 117.05 84.6587 116.869 84.776C116.698 84.8827 116.479 84.9787 116.213 85.064C115.946 85.1493 115.621 85.192 115.237 85.192C114.821 85.192 114.431 85.112 114.069 84.952C113.706 84.7813 113.391 84.5307 113.125 84.2C112.858 83.8693 112.65 83.464 112.501 82.984C112.351 82.504 112.277 81.9493 112.277 81.32ZM115.717 84.04C115.973 84.04 116.197 84.008 116.389 83.944C116.591 83.88 116.762 83.8053 116.901 83.72C117.039 83.6347 117.151 83.544 117.237 83.448C117.333 83.3413 117.407 83.256 117.461 83.192V78.712C117.322 78.616 117.141 78.5307 116.917 78.456C116.703 78.3707 116.426 78.328 116.085 78.328C115.338 78.328 114.741 78.552 114.293 79C113.845 79.448 113.621 80.1893 113.621 81.224C113.621 81.736 113.674 82.1733 113.781 82.536C113.898 82.888 114.047 83.176 114.229 83.4C114.421 83.624 114.645 83.7893 114.901 83.896C115.157 83.992 115.429 84.04 115.717 84.04ZM127.907 78.424H126.067V85H124.771V78.424H123.715V77.512L124.771 77.32V76.024C124.771 75.16 124.984 74.5147 125.411 74.088C125.838 73.6613 126.44 73.448 127.219 73.448C127.496 73.448 127.72 73.4853 127.891 73.56C128.072 73.624 128.19 73.6667 128.243 73.688L128.067 74.792C128.014 74.7707 127.907 74.7333 127.747 74.68C127.598 74.6267 127.416 74.6 127.203 74.6C126.83 74.6 126.547 74.7067 126.355 74.92C126.163 75.1333 126.067 75.5067 126.067 76.04V77.32H128.067L127.907 78.424ZM135.384 85H134.184V84.136H134.152C134.088 84.2107 133.997 84.3067 133.88 84.424C133.762 84.5413 133.608 84.6587 133.416 84.776C133.234 84.8827 133.01 84.9787 132.744 85.064C132.477 85.1493 132.157 85.192 131.784 85.192C130.984 85.192 130.376 84.9413 129.96 84.44C129.544 83.9387 129.336 83.1493 129.336 82.072V77.32H130.632V81.864C130.632 82.632 130.749 83.1867 130.984 83.528C131.218 83.8693 131.597 84.04 132.12 84.04C132.386 84.04 132.621 84.0133 132.824 83.96C133.037 83.896 133.224 83.8213 133.384 83.736C133.544 83.6507 133.677 83.56 133.784 83.464C133.901 83.368 134.002 83.2827 134.088 83.208V77.32H135.384V85ZM131.768 75.112C131.768 75.3573 131.688 75.5547 131.528 75.704C131.378 75.8533 131.197 75.928 130.984 75.928C130.77 75.928 130.584 75.8533 130.424 75.704C130.274 75.5547 130.2 75.3573 130.2 75.112C130.2 74.8667 130.274 74.6693 130.424 74.52C130.584 74.3707 130.77 74.296 130.984 74.296C131.197 74.296 131.378 74.3707 131.528 74.52C131.688 74.6693 131.768 74.8667 131.768 75.112ZM134.488 75.112C134.488 75.3573 134.408 75.5547 134.248 75.704C134.098 75.8533 133.917 75.928 133.704 75.928C133.49 75.928 133.304 75.8533 133.144 75.704C132.994 75.5547 132.92 75.3573 132.92 75.112C132.92 74.8667 132.994 74.6693 133.144 74.52C133.304 74.3707 133.49 74.296 133.704 74.296C133.917 74.296 134.098 74.3707 134.248 74.52C134.408 74.6693 134.488 74.8667 134.488 75.112ZM141.375 78.472C141.322 78.4507 141.242 78.424 141.135 78.392C141.039 78.3493 140.884 78.328 140.671 78.328C140.415 78.328 140.186 78.3653 139.983 78.44C139.791 78.504 139.62 78.5893 139.471 78.696C139.332 78.8027 139.215 78.92 139.119 79.048C139.023 79.176 138.948 79.2987 138.895 79.416V85H137.599V77.32H138.799V78.456H138.831C138.895 78.3173 138.975 78.1733 139.071 78.024C139.167 77.8747 139.29 77.736 139.439 77.608C139.599 77.48 139.786 77.3787 139.999 77.304C140.223 77.2187 140.484 77.176 140.783 77.176C140.943 77.176 141.076 77.1867 141.183 77.208C141.29 77.2293 141.391 77.256 141.487 77.288L141.375 78.472ZM154.855 85H153.463V80.008H147.975V85H146.583V73.96H147.975V78.856H153.463V73.96H154.855V85ZM162.795 80.136C162.795 80.392 162.779 80.6267 162.747 80.84C162.726 81.0533 162.694 81.2507 162.651 81.432H158.187C158.241 82.328 158.465 82.9893 158.859 83.416C159.265 83.832 159.819 84.04 160.523 84.04C160.822 84.04 161.083 84.0133 161.307 83.96C161.542 83.896 161.739 83.8267 161.899 83.752C162.07 83.6773 162.203 83.6027 162.299 83.528C162.406 83.4427 162.486 83.3733 162.539 83.32L162.923 84.248C162.859 84.312 162.763 84.3973 162.635 84.504C162.518 84.6107 162.358 84.7173 162.155 84.824C161.963 84.92 161.718 85.0053 161.419 85.08C161.131 85.1547 160.785 85.192 160.379 85.192C159.291 85.192 158.438 84.8613 157.819 84.2C157.201 83.5387 156.891 82.4933 156.891 81.064C156.891 80.392 156.982 79.8107 157.163 79.32C157.345 78.8187 157.59 78.408 157.899 78.088C158.209 77.768 158.561 77.528 158.955 77.368C159.361 77.208 159.782 77.128 160.219 77.128C161.019 77.128 161.649 77.3893 162.107 77.912C162.566 78.424 162.795 79.1653 162.795 80.136ZM160.107 78.232C159.563 78.232 159.121 78.424 158.779 78.808C158.438 79.1813 158.241 79.72 158.187 80.424H161.547C161.569 80.328 161.579 80.2427 161.579 80.168C161.579 80.0827 161.579 79.9973 161.579 79.912C161.579 79.368 161.446 78.952 161.179 78.664C160.923 78.376 160.566 78.232 160.107 78.232ZM166.262 74.552C166.262 74.8293 166.171 75.0533 165.99 75.224C165.808 75.384 165.59 75.464 165.334 75.464C165.078 75.464 164.859 75.384 164.678 75.224C164.507 75.0533 164.422 74.8293 164.422 74.552C164.422 74.2747 164.507 74.0507 164.678 73.88C164.859 73.7093 165.078 73.624 165.334 73.624C165.59 73.624 165.808 73.7093 165.99 73.88C166.171 74.0507 166.262 74.2747 166.262 74.552ZM165.974 85H164.678V77.32H165.974V85ZM172.83 85V80.456C172.83 79.688 172.718 79.1333 172.494 78.792C172.281 78.4507 171.934 78.28 171.454 78.28C171.177 78.28 170.931 78.312 170.718 78.376C170.505 78.4293 170.318 78.4987 170.158 78.584C169.998 78.6693 169.859 78.76 169.742 78.856C169.635 78.952 169.545 79.0373 169.47 79.112V85H168.174V77.32H169.374V78.184H169.406C169.481 78.0987 169.587 77.9973 169.726 77.88C169.865 77.752 170.03 77.6347 170.222 77.528C170.414 77.4107 170.638 77.3147 170.894 77.24C171.15 77.1653 171.438 77.128 171.758 77.128C172.206 77.128 172.595 77.224 172.926 77.416C173.267 77.5973 173.534 77.88 173.726 78.264C173.822 78.1573 173.945 78.04 174.094 77.912C174.254 77.7733 174.435 77.6507 174.638 77.544C174.841 77.4267 175.07 77.3307 175.326 77.256C175.582 77.1707 175.865 77.128 176.174 77.128C177.017 77.128 177.662 77.384 178.11 77.896C178.558 78.408 178.782 79.192 178.782 80.248V85H177.486V80.456C177.486 79.688 177.347 79.1333 177.07 78.792C176.793 78.4507 176.393 78.28 175.87 78.28C175.411 78.28 175.027 78.3813 174.718 78.584C174.419 78.776 174.185 78.952 174.014 79.112C174.089 79.4213 174.126 79.8 174.126 80.248V85H172.83ZM180.424 83C180.424 82.6053 180.515 82.264 180.696 81.976C180.878 81.688 181.123 81.4533 181.432 81.272C181.752 81.0907 182.126 80.9573 182.552 80.872C182.979 80.776 183.443 80.728 183.944 80.728H184.584V80.136C184.584 79.464 184.456 78.9893 184.2 78.712C183.944 78.424 183.566 78.28 183.064 78.28C182.595 78.28 182.2 78.3653 181.88 78.536C181.571 78.696 181.331 78.8453 181.16 78.984L180.68 78.024C180.776 77.9493 180.899 77.864 181.048 77.768C181.208 77.6613 181.395 77.56 181.608 77.464C181.822 77.368 182.067 77.288 182.344 77.224C182.622 77.16 182.942 77.128 183.304 77.128C184.147 77.128 184.787 77.3733 185.224 77.864C185.662 78.3547 185.88 79.112 185.88 80.136V83.4C185.88 83.7307 185.891 84.056 185.912 84.376C185.934 84.6853 185.955 84.8933 185.976 85H184.728L184.68 84.152H184.648C184.584 84.2587 184.494 84.376 184.376 84.504C184.259 84.6213 184.11 84.7333 183.928 84.84C183.758 84.936 183.55 85.016 183.304 85.08C183.07 85.1547 182.803 85.192 182.504 85.192C181.864 85.192 181.358 84.9893 180.984 84.584C180.611 84.1787 180.424 83.6507 180.424 83ZM182.792 84.088C183.048 84.088 183.272 84.0613 183.464 84.008C183.656 83.9547 183.822 83.8907 183.96 83.816C184.11 83.7413 184.232 83.6613 184.328 83.576C184.424 83.48 184.51 83.3947 184.584 83.32V81.656L183.848 81.688C183.112 81.72 182.574 81.832 182.232 82.024C181.891 82.216 181.72 82.5147 181.72 82.92C181.72 83.2933 181.827 83.5813 182.04 83.784C182.264 83.9867 182.515 84.088 182.792 84.088ZM191.657 78.424H189.673V82.392C189.673 83 189.759 83.4267 189.929 83.672C190.1 83.9173 190.399 84.04 190.825 84.04C191.039 84.04 191.22 84.0133 191.369 83.96C191.519 83.9067 191.636 83.8587 191.721 83.816L191.849 84.856C191.775 84.8987 191.625 84.9627 191.401 85.048C191.188 85.144 190.879 85.192 190.473 85.192C189.716 85.192 189.177 84.9787 188.857 84.552C188.537 84.1147 188.377 83.4533 188.377 82.568V78.424H187.321V77.512L188.377 77.32L188.521 75.176H189.673V77.32H191.817L191.657 78.424Z" fill="black"/>
</svg>
