<?xml version="1.0" encoding="utf-8"?>
<!-- Generator: Adobe Illustrator 27.0.1, SVG Export Plug-In . SVG Version: 6.00 Build 0)  -->
<svg version="1.1" id="Ebene_1" xmlns="http://www.w3.org/2000/svg" xmlns:xlink="http://www.w3.org/1999/xlink" x="0px" y="0px"
	 viewBox="0 0 183.4 91.5" style="enable-background:new 0 0 183.4 91.5;" xml:space="preserve">
<style type="text/css">
	.st0{fill:#FFCC00;}
	.st1{fill:#FF0000;}
</style>
<path class="st0" d="M47.2,61.5h2.3v30h-5.3v-30"/>
<path class="st1" d="M47.2,31.4h2.3v30.1h-5.3V31.4"/>
<path d="M21.2,12.5c0-0.3,0-0.7,0-1c0-0.2,0-0.5,0-0.7c3,0,5.6-2.2,5.6-4.7c-0.1-1-0.5-2-1.3-2.8l0.3-0.1c0.5,0.4,0.9,1,1.2,1.6
	c0.3,0.6,0.5,1.2,0.5,1.9c-0.2,1.6-0.9,3.1-2.1,4.1C24.2,11.9,22.7,12.5,21.2,12.5L21.2,12.5z M18.1,2.2c-0.1-0.3-0.2-0.6-0.4-0.9
	c0-0.3,0.1-0.6,0.6-0.4c-0.3,0.3,0,0.7,0,0.7s0.5-0.3,0.4-0.6C19.6,1.3,19,2.3,18.1,2.2L18.1,2.2z M17.5,3.7
	c-0.1-0.5-0.3-0.9-0.6-1.2c-0.2-0.2-0.3-0.4-0.6-0.5c-0.2-0.1-0.5-0.2-0.7-0.2c-0.3,0-0.7,0.1-1,0.3c-0.2-0.3-0.3-0.6-0.3-0.9
	c0-0.2,0.4-0.4,1.1-0.4c1.5,0,2.5,0.7,2.5,1.9C17.8,2.9,17.6,3.3,17.5,3.7z M21.4,23.6c0.1,0,0.3,0,0.4,0c0.6,1.3,1.4,2.5,2.2,3.6
	c0.8-0.1,1.6-0.2,2.4-0.2c0.1,0,0.2,0,0.3,0c0,0.1,0,0.2,0,0.3c0,0.3-0.1,0.5-0.2,0.8c-0.2-0.2-0.5-0.3-0.8-0.4
	c-0.3-0.1-0.6-0.1-0.9-0.1c-0.2,0-0.5,0-0.7,0.1l0.5,0.5c0.7,0.7,1.4,1.4,1.4,1.8c0,0.1-0.1,0.3-0.2,0.4c-0.1,0.1-0.2,0.2-0.3,0.3
	c-0.3-0.9-0.9-1.6-1.7-2.1v0.3c0,0.2,0,0.4,0,0.7c0,1.5-0.2,1.7-0.7,1.7c-0.1,0-0.2,0-0.3,0c0.3-0.5,0.5-1.1,0.4-1.6v-0.7
	c0-0.3,0-0.5,0-0.8V28c-0.3,0-0.7-0.1-1-0.1c-0.5-0.1-1.1,0.1-1.5,0.4c-0.2-0.2-0.4-0.4-0.5-0.7c0-0.3,0.2-0.3,0.4-0.3h0.4
	c0.6,0.1,1.2,0.1,1.7,0.1c-0.5-1.1-1.2-2.1-2-3c0.1-0.3,0.2-0.6,0.5-0.6L21.4,23.6z M12.3,27.4c0.6,0,1.2,0,1.7-0.1h0.4
	c0.3,0,0.5,0,0.5,0.3c-0.1,0.3-0.2,0.5-0.5,0.7c-0.4-0.3-1-0.5-1.5-0.4c-0.3,0-0.7,0-1,0.1h-0.1v0.1c0,0.3,0,0.5,0,0.8v0.7
	c-0.1,0.6,0.1,1.2,0.4,1.6c-0.1,0-0.2,0-0.3,0c-0.5,0-0.7-0.2-0.7-1.7c0-0.3,0-0.6,0-0.7v-0.3h-0.1c-0.8,0.6-1.4,1.4-1.6,2.4
	c-0.1-0.1-0.2-0.2-0.3-0.3c-0.1-0.1-0.1-0.3-0.2-0.4c0-0.4,0.6-1,1.4-1.8l0.4-0.4h-0.1c-0.2-0.1-0.5-0.1-0.7-0.1
	c-0.3,0-0.6,0-0.9,0.1c-0.3,0.1-0.5,0.2-0.8,0.4c-0.1-0.2-0.2-0.5-0.2-0.8c0-0.1,0-0.2,0.1-0.3c0.1,0,0.2,0,0.3,0
	c0.8,0,1.6,0.1,2.4,0.2c0.9-1.1,1.6-2.3,2.2-3.6c0.1,0,0.3,0,0.4,0c0.3,0,0.4,0.2,0.5,0.6c-0.8,0.9-1.5,1.9-2,3L12.3,27.4z M7.5,6.7
	c0.1-1.3,0.7-2.6,1.7-3.4l0.3,0.1C8.8,4.1,8.3,5.1,8.2,6.1c0,2.5,2.7,4.7,5.7,4.7c0,0.2,0,0.4,0,0.7c0,0.3,0,0.7,0,1
	c-1.6,0-3.2-0.6-4.3-1.6C8.4,9.8,7.7,8.3,7.5,6.7L7.5,6.7z M30.5,12c0.4,0.8,1,1.5,1.9,1.9c0.8,0.4,1.7,0.6,2.6,0.4
	c-1.2-0.9-2.2-2.1-3-3.4l-2.8-4.5c-0.3-1.4-1-2.7-2.1-3.6c0.3-0.1,0.6-0.2,0.8-0.4c-1.5-0.2-3-0.6-4.5-0.9c-0.6,0-1.1,0.4-1.1,0.9
	c0,0.5,0.6,1.1,1.7,1.1c0.3,0,0.6,0,0.9-0.1c0.6,0.7,1,1.6,1.1,2.6c0,2-2.3,3.5-4.7,3.5h-0.4c-0.5-0.7-0.8-1.4-0.9-2.2
	c0-1.5,1-2.8,1-4.4c0-0.7-0.2-1.3-0.6-1.8c0.3-0.2,0.5-0.5,0.7-0.8c-0.2,0-0.5,0-0.7,0c-1.1,0-2.1-0.3-3-0.3c-0.5,0-0.7,0.2-0.7,0.3
	c0,0,0,0.1,0,0.1c-0.2-0.1-0.4-0.1-0.6-0.2c-0.3,0-0.6-0.1-0.9-0.1c-1.1,0-1.5,0.5-1.5,0.9c0.1,0.5,0.3,1,0.6,1.4
	c0.4-0.2,0.8-0.3,1.2-0.4c0.6,0,1.1,0.6,1.4,1.2c-0.3,0-0.6,0-0.9,0c-0.7,0-1.3-0.2-2-0.4c0,0,0.3,0.5,0.9,0.8
	c0.7,0.2,1.4,0.4,2.2,0.4c-0.1,0.2-0.2,0.4-0.4,0.5h-0.1c-0.7-0.1-1.4-0.3-2.1-0.6c0,0.4,1.1,1.3,2,1.7c-1,1-1.8,2.3-2.3,3.6h-0.4
	c-2.4,0-4.7-1.5-4.7-3.5c0-1,0.4-1.9,1.1-2.6c0.3,0.1,0.6,0.1,0.9,0.1c1.1,0,1.7-0.6,1.7-1.1c0-0.6-0.4-0.9-1.1-0.9
	C10.1,1.7,8.6,2,7,2.2c0.3,0.2,0.5,0.3,0.8,0.4c-1.1,1-1.8,2.2-2.1,3.6L3,10.8c-0.8,1.3-1.8,2.4-3,3.4c0.9,0.1,1.8,0,2.6-0.4
	c0.8-0.4,1.5-1.1,1.9-1.9L6,9.5c0.1,0.3,0.2,0.6,0.4,0.9l-2.9,4.6c-0.8,1.3-1.8,2.4-3,3.4c0.9,0.1,1.8,0,2.6-0.4
	C4,17.4,4.6,16.8,5,15.9L7.5,12c0.2,0.2,0.4,0.4,0.6,0.6l-3.5,5.5c-0.8,1.3-1.8,2.4-3,3.4c0.9,0.1,1.8,0,2.6-0.4
	c0.8-0.4,1.5-1.1,1.9-1.9l3.4-5.4l0.7,0.4L6,20.7c-0.8,1.3-1.8,2.4-3,3.4c0.9,0.1,1.8,0,2.7-0.4c0.8-0.4,1.5-1.1,1.9-1.9l4.3-6.8
	l0.8,0.3l-4.8,7.7c-0.8,1.3-1.8,2.4-3,3.4c0.9,0.1,1.8,0,2.7-0.4c0.8-0.4,1.5-1.1,1.9-1.9l5.1-8.2h0.2c0.1,0.4,0.2,0.8,0.2,1.3
	c-0.1,1.3-0.5,2.6-1.2,3.7c-0.6,1.1-1.5,2.1-2.6,2.9c0.2,0,0.4,0,0.6,0c0.3,0,0.6,0,0.9,0c-0.4,1.2-1,2.4-1.7,3.5
	c-0.7-0.1-1.5-0.2-2.3-0.2c-0.7,0-0.8,0.4-0.8,0.7c0,0.3,0,0.5,0.2,0.7c0.1,0.2,0.3,0.4,0.5,0.6c0.1-0.3,0.4-0.7,1.6-0.7h0.1
	c-0.4,0.4-1.5,1.3-1.5,2c0,0.3,0.2,0.6,0.4,0.8c0.2,0.2,0.5,0.4,0.8,0.4c0-0.1,0-0.3,0-0.4c0.1-0.7,0.5-1.3,1-1.8c0,0.1,0,0.2,0,0.3
	c0,1.4,0.1,2,1,2c0.3,0,0.6-0.1,0.8-0.3c-0.2-0.2-0.4-0.5-0.5-0.8c-0.1-0.3-0.1-0.6-0.1-0.9c0-0.2,0-0.4,0-0.7c0-0.2,0-0.4,0-0.6
	c0.2,0,0.5,0,0.7,0c0,0,1.3-0.1,1.5,0.6c0.3-0.3,0.8-0.8,0.8-1.2c0-0.5-0.2-0.7-0.8-0.7c-0.2,0-1,0.1-1.7,0.1c0.5-0.8,1-1.6,1.6-2.3
	c0.1,0.3,0.3,0.6,0.6,0.8c0.1-1.1,0.5-2.2,1.2-3.2c0.2,0.9,0.3,1.9,0.3,2.8c0,3.5-0.8,6-2.6,6.5c0.1,0.2,0.3,0.4,0.5,0.5
	c0.2,0.1,0.5,0.2,0.7,0.2c0.6,0,1-0.7,1.4-1.5c0.2,0.5,0.7,1.8,1.2,1.8c0.5,0,1-1.3,1.2-1.8c0.4,0.7,0.7,1.5,1.4,1.5
	c0.3,0,0.5-0.1,0.7-0.2c0.2-0.1,0.4-0.3,0.5-0.5c-1.8-0.5-2.6-3-2.6-6.5c0-0.9,0.1-1.9,0.2-2.8c0.6,0.9,1,2,1.1,3.1
	c0.3-0.2,0.5-0.6,0.6-0.9c0.6,0.8,1.2,1.6,1.7,2.4c-0.6,0-1.4-0.1-1.7-0.1c-0.7,0-0.8,0.4-0.8,0.7c0,0.3,0.5,0.9,0.8,1.2
	c0.3-0.7,1.5-0.6,1.5-0.6c0.2,0,0.5,0,0.7,0c0,0.2,0,0.4,0,0.6c0,0.3,0,0.5,0,0.7c0.1,0.3,0,0.6-0.1,0.9c-0.1,0.3-0.3,0.6-0.5,0.8
	c0.2,0.2,0.5,0.3,0.8,0.3c0.9,0,1-0.6,1-2c0-0.1,0-0.2,0-0.3c0.5,0.5,0.9,1.1,1,1.8c0,0.1,0,0.3,0,0.4c0.3,0,0.6-0.2,0.8-0.4
	c0.2-0.2,0.4-0.5,0.4-0.8c0-0.7-1.1-1.6-1.5-2h0.1c1.2,0,1.5,0.4,1.6,0.7c0.2-0.2,0.4-0.4,0.5-0.6c0.1-0.2,0.2-0.5,0.2-0.7
	c0-0.3-0.1-0.7-0.7-0.7c-0.8,0-1.5,0.1-2.3,0.2c-0.8-1-1.4-2-2-3.2c0.3,0,0.6,0,0.9,0c0.2,0,0.4,0,0.6,0c-1.1-0.8-1.9-1.8-2.6-2.9
	c-0.6-1.1-1-2.4-1.2-3.7c0-0.4,0.1-0.9,0.2-1.3h0.2l5,8.1c0.4,0.8,1,1.5,1.9,1.9c0.8,0.4,1.7,0.6,2.7,0.4c-1.2-0.9-2.2-2.1-3-3.4
	l-4.8-7.7l0.8-0.3l4.3,6.8c0.4,0.8,1,1.5,1.9,1.9c0.8,0.4,1.7,0.6,2.7,0.4c-1.2-0.9-2.2-2.1-3-3.4l-4.1-6.6l0.7-0.4l3.4,5.4
	c0.4,0.8,1,1.5,1.9,1.9c0.8,0.4,1.7,0.6,2.6,0.4c-1.2-0.9-2.2-2.1-3-3.4l-3.2-5.5c0.2-0.2,0.4-0.4,0.6-0.6l2.4,3.9
	c0.4,0.8,1,1.5,1.9,1.9c0.8,0.4,1.7,0.6,2.6,0.4c-1.2-0.9-2.2-2.1-3-3.4l-2.7-4.6c0.2-0.3,0.3-0.6,0.4-0.9"/>
<path d="M49.4,1.5v30h-2.3h-3v-30"/>
<path d="M68.4,9.3c0,0.4-0.1,0.7-0.2,1c-0.1,0.3-0.3,0.5-0.4,0.7c-0.2,0.2-0.4,0.4-0.6,0.5c-0.2,0.1-0.5,0.2-0.8,0.3v0
	c0.3,0.1,0.6,0.2,0.9,0.3c0.3,0.1,0.5,0.3,0.7,0.5c0.2,0.2,0.4,0.5,0.5,0.8c0.1,0.3,0.2,0.6,0.2,1c0,0.4-0.1,0.8-0.3,1.2
	c-0.2,0.4-0.4,0.7-0.8,0.9c-0.4,0.3-0.8,0.5-1.3,0.6c-0.5,0.1-1.2,0.2-2,0.2h-2.5v-11h2.4c0.7,0,1.4,0.1,1.9,0.2
	c0.5,0.1,1,0.3,1.3,0.6s0.6,0.5,0.7,0.9C68.3,8.5,68.4,8.9,68.4,9.3z M66.9,9.3c0-0.5-0.2-0.9-0.6-1.2c-0.4-0.3-1.1-0.5-2.1-0.5h-1
	v3.7h0.9c0.9,0,1.6-0.2,2-0.5C66.7,10.5,66.9,10,66.9,9.3z M67.2,14.4c0-0.6-0.2-1.1-0.7-1.4c-0.5-0.3-1.2-0.5-2-0.5h-1.2v3.8h1.1
	c1,0,1.7-0.2,2.2-0.5C67,15.5,67.2,15.1,67.2,14.4z M76.6,17.5h-1.2v-0.9h0c-0.1,0.1-0.2,0.2-0.3,0.3c-0.1,0.1-0.3,0.2-0.5,0.4
	c-0.2,0.1-0.4,0.2-0.7,0.3c-0.3,0.1-0.6,0.1-1,0.1c-0.8,0-1.4-0.3-1.8-0.8c-0.4-0.5-0.6-1.3-0.6-2.4V9.8h1.3v4.5
	c0,0.8,0.1,1.3,0.4,1.7c0.2,0.3,0.6,0.5,1.1,0.5c0.3,0,0.5,0,0.7-0.1c0.2-0.1,0.4-0.1,0.6-0.2c0.2-0.1,0.3-0.2,0.4-0.3
	c0.1-0.1,0.2-0.2,0.3-0.3V9.8h1.3V17.5z M83.7,17.5V13c0-0.7-0.1-1.3-0.4-1.6c-0.2-0.4-0.6-0.5-1.2-0.5c-0.3,0-0.5,0-0.7,0.1
	c-0.2,0.1-0.4,0.1-0.6,0.2c-0.2,0.1-0.3,0.2-0.4,0.3c-0.1,0.1-0.2,0.2-0.3,0.3v5.9h-1.3V9.8H80v0.9h0c0.1-0.1,0.2-0.2,0.3-0.3
	c0.1-0.1,0.3-0.2,0.5-0.3c0.2-0.1,0.4-0.2,0.7-0.3c0.3-0.1,0.6-0.1,0.9-0.1c0.8,0,1.4,0.3,1.9,0.8c0.4,0.5,0.7,1.3,0.7,2.4v4.8H83.7
	z M86.7,13.8c0-0.7,0.1-1.4,0.3-1.9c0.2-0.5,0.5-1,0.8-1.3c0.4-0.3,0.8-0.6,1.2-0.7c0.4-0.2,0.9-0.2,1.4-0.2c0.3,0,0.6,0,0.9,0.1
	c0.2,0.1,0.4,0.1,0.6,0.2V6.2l1.3-0.1v11.5H92v-0.9h0c-0.1,0.1-0.1,0.2-0.2,0.3c-0.1,0.1-0.2,0.2-0.4,0.4c-0.2,0.1-0.4,0.2-0.7,0.3
	c-0.3,0.1-0.6,0.1-1,0.1c-0.4,0-0.8-0.1-1.2-0.2c-0.4-0.2-0.7-0.4-0.9-0.8c-0.3-0.3-0.5-0.7-0.6-1.2C86.8,15,86.7,14.5,86.7,13.8z
	 M90.2,16.6c0.3,0,0.5,0,0.7-0.1c0.2-0.1,0.4-0.1,0.5-0.2c0.1-0.1,0.3-0.2,0.3-0.3c0.1-0.1,0.2-0.2,0.2-0.3v-4.5
	c-0.1-0.1-0.3-0.2-0.5-0.3c-0.2-0.1-0.5-0.1-0.8-0.1c-0.7,0-1.3,0.2-1.8,0.7c-0.4,0.4-0.7,1.2-0.7,2.2c0,0.5,0.1,0.9,0.2,1.3
	c0.1,0.4,0.3,0.6,0.4,0.9c0.2,0.2,0.4,0.4,0.7,0.5C89.6,16.5,89.9,16.6,90.2,16.6z M100.9,12.7c0,0.3,0,0.5,0,0.7
	c0,0.2-0.1,0.4-0.1,0.6h-4.5c0.1,0.9,0.3,1.6,0.7,2c0.4,0.4,1,0.6,1.7,0.6c0.3,0,0.6,0,0.8-0.1c0.2-0.1,0.4-0.1,0.6-0.2
	c0.2-0.1,0.3-0.1,0.4-0.2c0.1-0.1,0.2-0.2,0.2-0.2l0.4,0.9c-0.1,0.1-0.2,0.1-0.3,0.3c-0.1,0.1-0.3,0.2-0.5,0.3
	c-0.2,0.1-0.4,0.2-0.7,0.3c-0.3,0.1-0.6,0.1-1,0.1c-1.1,0-1.9-0.3-2.6-1C95.3,16.1,95,15,95,13.6c0-0.7,0.1-1.3,0.3-1.7
	c0.2-0.5,0.4-0.9,0.7-1.2c0.3-0.3,0.7-0.6,1.1-0.7c0.4-0.2,0.8-0.2,1.3-0.2c0.8,0,1.4,0.3,1.9,0.8C100.7,10.9,100.9,11.7,100.9,12.7
	z M98.2,10.7c-0.5,0-1,0.2-1.3,0.6c-0.3,0.4-0.5,0.9-0.6,1.6h3.4c0-0.1,0-0.2,0-0.3c0-0.1,0-0.2,0-0.3c0-0.5-0.1-1-0.4-1.2
	C99.1,10.9,98.7,10.7,98.2,10.7z M106.6,11.4c-0.1-0.1-0.1-0.1-0.3-0.2c-0.1-0.1-0.2-0.2-0.4-0.2c-0.1-0.1-0.3-0.1-0.5-0.2
	c-0.2-0.1-0.4-0.1-0.6-0.1c-0.4,0-0.7,0.1-0.9,0.2c-0.2,0.1-0.3,0.3-0.3,0.6c0,0.3,0.1,0.5,0.3,0.7c0.2,0.2,0.5,0.4,0.9,0.6l0.6,0.3
	c0.6,0.3,1.1,0.6,1.4,1c0.3,0.4,0.5,0.8,0.5,1.4c0,0.3-0.1,0.6-0.2,0.8c-0.1,0.3-0.3,0.5-0.5,0.7c-0.2,0.2-0.5,0.3-0.8,0.5
	c-0.3,0.1-0.7,0.2-1.2,0.2c-0.3,0-0.6,0-0.8-0.1c-0.2-0.1-0.5-0.1-0.7-0.2c-0.2-0.1-0.3-0.2-0.5-0.3c-0.1-0.1-0.2-0.2-0.3-0.3
	l0.5-1.1c0.2,0.2,0.4,0.3,0.7,0.5c0.3,0.2,0.7,0.3,1.1,0.3c0.5,0,0.9-0.1,1.1-0.2c0.2-0.2,0.4-0.4,0.4-0.6c0-0.2,0-0.3-0.1-0.5
	c-0.1-0.1-0.1-0.3-0.3-0.4c-0.1-0.1-0.2-0.2-0.4-0.3c-0.2-0.1-0.4-0.2-0.6-0.3l-0.6-0.3c-0.6-0.3-1-0.6-1.2-1
	c-0.3-0.4-0.4-0.8-0.4-1.3c0-0.3,0.1-0.5,0.2-0.8c0.1-0.2,0.3-0.5,0.5-0.6c0.2-0.2,0.5-0.3,0.8-0.4c0.3-0.1,0.6-0.2,1-0.2
	c0.3,0,0.6,0,0.8,0.1c0.2,0.1,0.4,0.1,0.6,0.2c0.2,0.1,0.3,0.2,0.4,0.2c0.1,0.1,0.2,0.2,0.3,0.2L106.6,11.4z M113.6,17.5V13
	c0-0.8-0.1-1.3-0.3-1.7c-0.2-0.3-0.6-0.5-1-0.5c-0.3,0-0.5,0-0.7,0.1c-0.2,0.1-0.4,0.1-0.6,0.2s-0.3,0.2-0.4,0.3
	c-0.1,0.1-0.2,0.2-0.3,0.3v5.9H109V9.8h1.2v0.9h0c0.1-0.1,0.2-0.2,0.3-0.3c0.1-0.1,0.3-0.2,0.5-0.4c0.2-0.1,0.4-0.2,0.7-0.3
	c0.3-0.1,0.5-0.1,0.9-0.1c0.4,0,0.8,0.1,1.2,0.3c0.3,0.2,0.6,0.5,0.8,0.8c0.1-0.1,0.2-0.2,0.4-0.4c0.2-0.1,0.3-0.3,0.5-0.4
	c0.2-0.1,0.4-0.2,0.7-0.3c0.3-0.1,0.5-0.1,0.8-0.1c0.8,0,1.5,0.3,1.9,0.8s0.7,1.3,0.7,2.4v4.8h-1.3V13c0-0.8-0.1-1.3-0.4-1.7
	c-0.3-0.3-0.7-0.5-1.2-0.5c-0.5,0-0.8,0.1-1.2,0.3c-0.3,0.2-0.5,0.4-0.7,0.5c0.1,0.3,0.1,0.7,0.1,1.1v4.8H113.6z M123.3,7.1
	c0,0.3-0.1,0.5-0.3,0.7c-0.2,0.2-0.4,0.2-0.7,0.2s-0.5-0.1-0.7-0.2c-0.2-0.2-0.3-0.4-0.3-0.7c0-0.3,0.1-0.5,0.3-0.7
	c0.2-0.2,0.4-0.3,0.7-0.3s0.5,0.1,0.7,0.3S123.3,6.8,123.3,7.1z M123,17.5h-1.3V9.8h1.3V17.5z M130.1,17.5V13c0-0.7-0.1-1.3-0.4-1.6
	c-0.2-0.4-0.6-0.5-1.2-0.5c-0.3,0-0.5,0-0.7,0.1c-0.2,0.1-0.4,0.1-0.6,0.2c-0.2,0.1-0.3,0.2-0.4,0.3c-0.1,0.1-0.2,0.2-0.3,0.3v5.9
	h-1.3V9.8h1.2v0.9h0c0.1-0.1,0.2-0.2,0.3-0.3c0.1-0.1,0.3-0.2,0.5-0.3c0.2-0.1,0.4-0.2,0.7-0.3c0.3-0.1,0.6-0.1,0.9-0.1
	c0.8,0,1.4,0.3,1.9,0.8c0.4,0.5,0.7,1.3,0.7,2.4v4.8H130.1z M135.1,7.1c0,0.3-0.1,0.5-0.3,0.7c-0.2,0.2-0.4,0.2-0.7,0.2
	c-0.3,0-0.5-0.1-0.7-0.2c-0.2-0.2-0.3-0.4-0.3-0.7c0-0.3,0.1-0.5,0.3-0.7c0.2-0.2,0.4-0.3,0.7-0.3c0.3,0,0.5,0.1,0.7,0.3
	C135,6.6,135.1,6.8,135.1,7.1z M134.8,17.5h-1.3V9.8h1.3V17.5z M140.8,11.4c-0.1-0.1-0.1-0.1-0.3-0.2c-0.1-0.1-0.2-0.2-0.4-0.2
	c-0.1-0.1-0.3-0.1-0.5-0.2c-0.2-0.1-0.4-0.1-0.6-0.1c-0.4,0-0.7,0.1-0.9,0.2c-0.2,0.1-0.3,0.3-0.3,0.6c0,0.3,0.1,0.5,0.3,0.7
	c0.2,0.2,0.5,0.4,0.9,0.6l0.6,0.3c0.6,0.3,1.1,0.6,1.4,1c0.3,0.4,0.5,0.8,0.5,1.4c0,0.3-0.1,0.6-0.2,0.8c-0.1,0.3-0.3,0.5-0.5,0.7
	c-0.2,0.2-0.5,0.3-0.8,0.5c-0.3,0.1-0.7,0.2-1.2,0.2c-0.3,0-0.6,0-0.8-0.1c-0.2-0.1-0.5-0.1-0.7-0.2c-0.2-0.1-0.3-0.2-0.5-0.3
	c-0.1-0.1-0.2-0.2-0.3-0.3l0.5-1.1c0.2,0.2,0.4,0.3,0.7,0.5c0.3,0.2,0.7,0.3,1.1,0.3c0.5,0,0.9-0.1,1.1-0.2c0.2-0.2,0.4-0.4,0.4-0.6
	c0-0.2,0-0.3-0.1-0.5c-0.1-0.1-0.1-0.3-0.3-0.4c-0.1-0.1-0.2-0.2-0.4-0.3c-0.2-0.1-0.4-0.2-0.6-0.3l-0.6-0.3c-0.6-0.3-1-0.6-1.2-1
	c-0.3-0.4-0.4-0.8-0.4-1.3c0-0.3,0.1-0.5,0.2-0.8c0.1-0.2,0.3-0.5,0.5-0.6c0.2-0.2,0.5-0.3,0.8-0.4c0.3-0.1,0.6-0.2,1-0.2
	c0.3,0,0.6,0,0.8,0.1c0.2,0.1,0.4,0.1,0.6,0.2c0.2,0.1,0.3,0.2,0.4,0.2c0.1,0.1,0.2,0.2,0.3,0.2L140.8,11.4z M146.8,10.9h-2v4
	c0,0.6,0.1,1,0.3,1.3c0.2,0.2,0.5,0.4,0.9,0.4c0.2,0,0.4,0,0.5-0.1c0.1-0.1,0.3-0.1,0.4-0.1l0.1,1c-0.1,0-0.2,0.1-0.4,0.2
	c-0.2,0.1-0.5,0.1-0.9,0.1c-0.8,0-1.3-0.2-1.6-0.6c-0.3-0.4-0.5-1.1-0.5-2v-4.1h-1.1V10l1.1-0.2l0.1-2.1h1.2v2.1h2.1L146.8,10.9z
	 M153.9,12.7c0,0.3,0,0.5,0,0.7c0,0.2-0.1,0.4-0.1,0.6h-4.5c0.1,0.9,0.3,1.6,0.7,2c0.4,0.4,1,0.6,1.7,0.6c0.3,0,0.6,0,0.8-0.1
	c0.2-0.1,0.4-0.1,0.6-0.2c0.2-0.1,0.3-0.1,0.4-0.2c0.1-0.1,0.2-0.2,0.2-0.2l0.4,0.9c-0.1,0.1-0.2,0.1-0.3,0.3
	c-0.1,0.1-0.3,0.2-0.5,0.3c-0.2,0.1-0.4,0.2-0.7,0.3c-0.3,0.1-0.6,0.1-1,0.1c-1.1,0-1.9-0.3-2.6-1c-0.6-0.7-0.9-1.7-0.9-3.1
	c0-0.7,0.1-1.3,0.3-1.7c0.2-0.5,0.4-0.9,0.7-1.2c0.3-0.3,0.7-0.6,1.1-0.7c0.4-0.2,0.8-0.2,1.3-0.2c0.8,0,1.4,0.3,1.9,0.8
	C153.7,10.9,153.9,11.7,153.9,12.7z M151.3,10.7c-0.5,0-1,0.2-1.3,0.6c-0.3,0.4-0.5,0.9-0.6,1.6h3.4c0-0.1,0-0.2,0-0.3
	c0-0.1,0-0.2,0-0.3c0-0.5-0.1-1-0.4-1.2C152.1,10.9,151.7,10.7,151.3,10.7z M159.6,11c-0.1,0-0.1,0-0.2-0.1c-0.1,0-0.3-0.1-0.5-0.1
	c-0.3,0-0.5,0-0.7,0.1c-0.2,0.1-0.4,0.1-0.5,0.3c-0.1,0.1-0.3,0.2-0.4,0.4c-0.1,0.1-0.2,0.3-0.2,0.4v5.6h-1.3V9.8h1.2V11h0
	c0.1-0.1,0.1-0.3,0.2-0.4c0.1-0.1,0.2-0.3,0.4-0.4c0.2-0.1,0.3-0.2,0.6-0.3c0.2-0.1,0.5-0.1,0.8-0.1c0.2,0,0.3,0,0.4,0
	c0.1,0,0.2,0,0.3,0.1L159.6,11z M162.6,7.1c0,0.3-0.1,0.5-0.3,0.7C162.2,7.9,162,8,161.7,8c-0.3,0-0.5-0.1-0.7-0.2
	c-0.2-0.2-0.3-0.4-0.3-0.7c0-0.3,0.1-0.5,0.3-0.7c0.2-0.2,0.4-0.3,0.7-0.3c0.3,0,0.5,0.1,0.7,0.3C162.6,6.6,162.6,6.8,162.6,7.1z
	 M162.4,17.5h-1.3V9.8h1.3V17.5z M170.5,17.5h-1.2v-0.9h0c-0.1,0.1-0.2,0.2-0.3,0.3c-0.1,0.1-0.3,0.2-0.5,0.4
	c-0.2,0.1-0.4,0.2-0.7,0.3c-0.3,0.1-0.6,0.1-1,0.1c-0.8,0-1.4-0.3-1.8-0.8c-0.4-0.5-0.6-1.3-0.6-2.4V9.8h1.3v4.5
	c0,0.8,0.1,1.3,0.4,1.7c0.2,0.3,0.6,0.5,1.1,0.5c0.3,0,0.5,0,0.7-0.1c0.2-0.1,0.4-0.1,0.6-0.2s0.3-0.2,0.4-0.3
	c0.1-0.1,0.2-0.2,0.3-0.3V9.8h1.3V17.5z M177.4,17.5V13c0-0.8-0.1-1.3-0.3-1.7c-0.2-0.3-0.6-0.5-1-0.5c-0.3,0-0.5,0-0.7,0.1
	c-0.2,0.1-0.4,0.1-0.6,0.2s-0.3,0.2-0.4,0.3c-0.1,0.1-0.2,0.2-0.3,0.3v5.9h-1.3V9.8h1.2v0.9h0c0.1-0.1,0.2-0.2,0.3-0.3
	c0.1-0.1,0.3-0.2,0.5-0.4c0.2-0.1,0.4-0.2,0.7-0.3c0.3-0.1,0.5-0.1,0.9-0.1c0.4,0,0.8,0.1,1.2,0.3c0.3,0.2,0.6,0.5,0.8,0.8
	c0.1-0.1,0.2-0.2,0.4-0.4c0.2-0.1,0.3-0.3,0.5-0.4c0.2-0.1,0.4-0.2,0.7-0.3c0.3-0.1,0.5-0.1,0.8-0.1c0.8,0,1.5,0.3,1.9,0.8
	s0.7,1.3,0.7,2.4v4.8h-1.3V13c0-0.8-0.1-1.3-0.4-1.7s-0.7-0.5-1.2-0.5c-0.5,0-0.8,0.1-1.2,0.3c-0.3,0.2-0.5,0.4-0.7,0.5
	c0.1,0.3,0.1,0.7,0.1,1.1v4.8H177.4z M61.2,31.8c0-0.7,0.1-1.4,0.3-1.9c0.2-0.5,0.5-1,0.8-1.3c0.4-0.3,0.8-0.6,1.2-0.7
	c0.4-0.2,0.9-0.2,1.4-0.2c0.3,0,0.6,0,0.9,0.1c0.2,0.1,0.4,0.1,0.6,0.2v-3.8l1.3-0.1v11.5h-1.2v-0.9h0c-0.1,0.1-0.1,0.2-0.2,0.3
	c-0.1,0.1-0.2,0.2-0.4,0.4c-0.2,0.1-0.4,0.2-0.7,0.3c-0.3,0.1-0.6,0.1-1,0.1c-0.4,0-0.8-0.1-1.2-0.2c-0.4-0.2-0.7-0.4-0.9-0.8
	c-0.3-0.3-0.5-0.7-0.6-1.2C61.2,33,61.2,32.5,61.2,31.8z M64.6,34.6c0.3,0,0.5,0,0.7-0.1c0.2-0.1,0.4-0.1,0.5-0.2
	c0.1-0.1,0.3-0.2,0.3-0.3c0.1-0.1,0.2-0.2,0.2-0.3v-4.5C66.2,29.1,66,29,65.8,29c-0.2-0.1-0.5-0.1-0.8-0.1c-0.7,0-1.3,0.2-1.8,0.7
	c-0.4,0.4-0.7,1.2-0.7,2.2c0,0.5,0.1,0.9,0.2,1.3c0.1,0.4,0.3,0.6,0.4,0.9c0.2,0.2,0.4,0.4,0.7,0.5C64,34.5,64.3,34.6,64.6,34.6z
	 M75.4,30.7c0,0.3,0,0.5,0,0.7c0,0.2-0.1,0.4-0.1,0.6h-4.5c0.1,0.9,0.3,1.6,0.7,2c0.4,0.4,1,0.6,1.7,0.6c0.3,0,0.6,0,0.8-0.1
	c0.2-0.1,0.4-0.1,0.6-0.2c0.2-0.1,0.3-0.1,0.4-0.2c0.1-0.1,0.2-0.2,0.2-0.2l0.4,0.9c-0.1,0.1-0.2,0.1-0.3,0.3
	c-0.1,0.1-0.3,0.2-0.5,0.3c-0.2,0.1-0.4,0.2-0.7,0.3c-0.3,0.1-0.6,0.1-1,0.1c-1.1,0-1.9-0.3-2.6-1c-0.6-0.7-0.9-1.7-0.9-3.1
	c0-0.7,0.1-1.3,0.3-1.7c0.2-0.5,0.4-0.9,0.7-1.2c0.3-0.3,0.7-0.6,1.1-0.7c0.4-0.2,0.8-0.2,1.3-0.2c0.8,0,1.4,0.3,1.9,0.8
	C75.1,28.9,75.4,29.7,75.4,30.7z M72.7,28.7c-0.5,0-1,0.2-1.3,0.6c-0.3,0.4-0.5,0.9-0.6,1.6h3.4c0-0.1,0-0.2,0-0.3
	c0-0.1,0-0.2,0-0.3c0-0.5-0.1-1-0.4-1.2C73.5,28.9,73.1,28.7,72.7,28.7z M81.1,29.4c-0.1-0.1-0.2-0.1-0.3-0.2
	c-0.1-0.1-0.2-0.2-0.4-0.2c-0.1-0.1-0.3-0.1-0.5-0.2c-0.2-0.1-0.4-0.1-0.6-0.1c-0.4,0-0.7,0.1-0.9,0.2c-0.2,0.1-0.3,0.3-0.3,0.6
	c0,0.3,0.1,0.5,0.3,0.7c0.2,0.2,0.5,0.4,0.9,0.6l0.6,0.3c0.6,0.3,1.1,0.6,1.4,1c0.3,0.4,0.5,0.8,0.5,1.4c0,0.3-0.1,0.6-0.2,0.8
	c-0.1,0.3-0.3,0.5-0.5,0.7c-0.2,0.2-0.5,0.3-0.8,0.5c-0.3,0.1-0.7,0.2-1.2,0.2c-0.3,0-0.6,0-0.8-0.1c-0.2-0.1-0.5-0.1-0.7-0.2
	c-0.2-0.1-0.3-0.2-0.5-0.3c-0.1-0.1-0.2-0.2-0.3-0.3l0.5-1.1c0.2,0.2,0.4,0.3,0.7,0.5c0.3,0.2,0.7,0.3,1.1,0.3
	c0.5,0,0.9-0.1,1.1-0.2c0.2-0.2,0.4-0.4,0.4-0.6c0-0.2,0-0.3-0.1-0.5c-0.1-0.1-0.1-0.3-0.3-0.4c-0.1-0.1-0.2-0.2-0.4-0.3
	c-0.2-0.1-0.4-0.2-0.6-0.3l-0.6-0.3c-0.6-0.3-1-0.6-1.2-1c-0.3-0.4-0.4-0.8-0.4-1.3c0-0.3,0.1-0.5,0.2-0.8c0.1-0.2,0.3-0.5,0.5-0.6
	c0.2-0.2,0.5-0.3,0.8-0.4c0.3-0.1,0.6-0.2,1-0.2c0.3,0,0.6,0,0.8,0.1c0.2,0.1,0.4,0.1,0.6,0.2c0.2,0.1,0.3,0.2,0.4,0.2
	c0.1,0.1,0.2,0.2,0.3,0.2L81.1,29.4z M87.8,25.5h-1.3v-1h4.1v1h-1.3v9h1.4v1h-4.2v-1h1.4V25.5z M97.1,35.5V31c0-0.7-0.1-1.3-0.4-1.6
	c-0.2-0.4-0.6-0.5-1.2-0.5c-0.3,0-0.5,0-0.7,0.1c-0.2,0.1-0.4,0.1-0.6,0.2c-0.2,0.1-0.3,0.2-0.4,0.3c-0.1,0.1-0.2,0.2-0.3,0.3v5.9
	h-1.3v-7.7h1.2v0.9h0c0.1-0.1,0.2-0.2,0.3-0.3c0.1-0.1,0.3-0.2,0.5-0.3c0.2-0.1,0.4-0.2,0.7-0.3c0.3-0.1,0.6-0.1,0.9-0.1
	c0.8,0,1.4,0.3,1.9,0.8c0.4,0.5,0.7,1.3,0.7,2.4v4.8H97.1z M105.4,35.5V31c0-0.7-0.1-1.3-0.4-1.6c-0.2-0.4-0.6-0.5-1.2-0.5
	c-0.3,0-0.5,0-0.7,0.1c-0.2,0.1-0.4,0.1-0.6,0.2c-0.2,0.1-0.3,0.2-0.4,0.3c-0.1,0.1-0.2,0.2-0.3,0.3v5.9h-1.3v-7.7h1.2v0.9h0
	c0.1-0.1,0.2-0.2,0.3-0.3c0.1-0.1,0.3-0.2,0.5-0.3c0.2-0.1,0.4-0.2,0.7-0.3c0.3-0.1,0.6-0.1,0.9-0.1c0.8,0,1.4,0.3,1.9,0.8
	c0.4,0.5,0.7,1.3,0.7,2.4v4.8H105.4z M114.4,30.7c0,0.3,0,0.5,0,0.7c0,0.2-0.1,0.4-0.1,0.6h-4.5c0.1,0.9,0.3,1.6,0.7,2
	c0.4,0.4,1,0.6,1.7,0.6c0.3,0,0.6,0,0.8-0.1c0.2-0.1,0.4-0.1,0.6-0.2c0.2-0.1,0.3-0.1,0.4-0.2c0.1-0.1,0.2-0.2,0.2-0.2l0.4,0.9
	c-0.1,0.1-0.2,0.1-0.3,0.3c-0.1,0.1-0.3,0.2-0.5,0.3c-0.2,0.1-0.4,0.2-0.7,0.3c-0.3,0.1-0.6,0.1-1,0.1c-1.1,0-1.9-0.3-2.6-1
	c-0.6-0.7-0.9-1.7-0.9-3.1c0-0.7,0.1-1.3,0.3-1.7c0.2-0.5,0.4-0.9,0.7-1.2c0.3-0.3,0.7-0.6,1.1-0.7c0.4-0.2,0.8-0.2,1.3-0.2
	c0.8,0,1.4,0.3,1.9,0.8C114.1,28.9,114.4,29.7,114.4,30.7z M111.7,28.7c-0.5,0-1,0.2-1.3,0.6c-0.3,0.4-0.5,0.9-0.6,1.6h3.4
	c0-0.1,0-0.2,0-0.3c0-0.1,0-0.2,0-0.3c0-0.5-0.1-1-0.4-1.2C112.5,28.9,112.1,28.7,111.7,28.7z M120,29c-0.1,0-0.1,0-0.2-0.1
	c-0.1,0-0.3-0.1-0.5-0.1c-0.3,0-0.5,0-0.7,0.1c-0.2,0.1-0.4,0.1-0.5,0.3c-0.1,0.1-0.3,0.2-0.4,0.4c-0.1,0.1-0.2,0.3-0.2,0.4v5.6
	h-1.3v-7.7h1.2V29h0c0.1-0.1,0.1-0.3,0.2-0.4c0.1-0.1,0.2-0.3,0.4-0.4c0.2-0.1,0.3-0.2,0.6-0.3c0.2-0.1,0.5-0.1,0.8-0.1
	c0.2,0,0.3,0,0.4,0c0.1,0,0.2,0,0.3,0.1L120,29z M126.3,35.5V31c0-0.7-0.1-1.3-0.4-1.6c-0.2-0.4-0.6-0.5-1.2-0.5
	c-0.3,0-0.5,0-0.7,0.1c-0.2,0.1-0.4,0.1-0.6,0.2c-0.2,0.1-0.3,0.2-0.4,0.3c-0.1,0.1-0.2,0.2-0.3,0.3v5.9h-1.3v-7.7h1.2v0.9h0
	c0.1-0.1,0.2-0.2,0.3-0.3c0.1-0.1,0.3-0.2,0.5-0.3c0.2-0.1,0.4-0.2,0.7-0.3c0.3-0.1,0.6-0.1,0.9-0.1c0.8,0,1.4,0.3,1.9,0.8
	c0.4,0.5,0.7,1.3,0.7,2.4v4.8H126.3z M67.5,53.5h-1.2v-0.9h0c-0.1,0.1-0.2,0.2-0.3,0.3c-0.1,0.1-0.3,0.2-0.5,0.4
	c-0.2,0.1-0.4,0.2-0.7,0.3c-0.3,0.1-0.6,0.1-1,0.1c-0.8,0-1.4-0.3-1.8-0.8c-0.4-0.5-0.6-1.3-0.6-2.4v-4.8h1.3v4.5
	c0,0.8,0.1,1.3,0.4,1.7c0.2,0.3,0.6,0.5,1.1,0.5c0.3,0,0.5,0,0.7-0.1c0.2-0.1,0.4-0.1,0.6-0.2c0.2-0.1,0.3-0.2,0.4-0.3
	c0.1-0.1,0.2-0.2,0.3-0.3v-5.9h1.3V53.5z M74.6,53.5V49c0-0.7-0.1-1.3-0.4-1.6c-0.2-0.4-0.6-0.5-1.2-0.5c-0.3,0-0.5,0-0.7,0.1
	c-0.2,0.1-0.4,0.1-0.6,0.2c-0.2,0.1-0.3,0.2-0.4,0.3c-0.1,0.1-0.2,0.2-0.3,0.3v5.9h-1.3v-7.7H71v0.9h0c0.1-0.1,0.2-0.2,0.3-0.3
	c0.1-0.1,0.3-0.2,0.5-0.3c0.2-0.1,0.4-0.2,0.7-0.3c0.3-0.1,0.6-0.1,0.9-0.1c0.8,0,1.4,0.3,1.9,0.8c0.4,0.5,0.7,1.3,0.7,2.4v4.8H74.6
	z M77.7,49.8c0-0.7,0.1-1.4,0.3-1.9c0.2-0.5,0.5-1,0.8-1.3c0.4-0.3,0.8-0.6,1.2-0.7c0.4-0.2,0.9-0.2,1.4-0.2c0.3,0,0.6,0,0.9,0.1
	c0.2,0.1,0.4,0.1,0.6,0.2v-3.8l1.3-0.1v11.5h-1.2v-0.9h0c-0.1,0.1-0.1,0.2-0.2,0.3c-0.1,0.1-0.2,0.2-0.4,0.4
	c-0.2,0.1-0.4,0.2-0.7,0.3c-0.3,0.1-0.6,0.1-1,0.1c-0.4,0-0.8-0.1-1.2-0.2c-0.4-0.2-0.7-0.4-0.9-0.8c-0.3-0.3-0.5-0.7-0.6-1.2
	C77.7,51,77.7,50.5,77.7,49.8z M81.1,52.6c0.3,0,0.5,0,0.7-0.1c0.2-0.1,0.4-0.1,0.5-0.2c0.1-0.1,0.2-0.2,0.3-0.3
	c0.1-0.1,0.2-0.2,0.2-0.3v-4.5c-0.1-0.1-0.3-0.2-0.5-0.3c-0.2-0.1-0.5-0.1-0.8-0.1c-0.7,0-1.3,0.2-1.8,0.7S79,48.7,79,49.7
	c0,0.5,0.1,0.9,0.2,1.3c0.1,0.4,0.3,0.6,0.4,0.9c0.2,0.2,0.4,0.4,0.7,0.5C80.5,52.5,80.8,52.6,81.1,52.6z M93.3,46.9h-1.8v6.6h-1.3
	v-6.6h-1.1V46l1.1-0.2v-1.3c0-0.9,0.2-1.5,0.6-1.9c0.4-0.4,1-0.6,1.8-0.6c0.3,0,0.5,0,0.7,0.1c0.2,0.1,0.3,0.1,0.4,0.1l-0.2,1.1
	c-0.1,0-0.2-0.1-0.3-0.1c-0.1-0.1-0.3-0.1-0.5-0.1c-0.4,0-0.7,0.1-0.8,0.3c-0.2,0.2-0.3,0.6-0.3,1.1v1.3h2L93.3,46.9z M100.8,53.5
	h-1.2v-0.9h0c-0.1,0.1-0.2,0.2-0.3,0.3c-0.1,0.1-0.3,0.2-0.5,0.4c-0.2,0.1-0.4,0.2-0.7,0.3c-0.3,0.1-0.6,0.1-1,0.1
	c-0.8,0-1.4-0.3-1.8-0.8c-0.4-0.5-0.6-1.3-0.6-2.4v-4.8H96v4.5c0,0.8,0.1,1.3,0.4,1.7c0.2,0.3,0.6,0.5,1.1,0.5c0.3,0,0.5,0,0.7-0.1
	c0.2-0.1,0.4-0.1,0.6-0.2s0.3-0.2,0.4-0.3c0.1-0.1,0.2-0.2,0.3-0.3v-5.9h1.3V53.5z M97.1,43.6c0,0.2-0.1,0.4-0.2,0.6
	c-0.1,0.1-0.3,0.2-0.5,0.2c-0.2,0-0.4-0.1-0.6-0.2c-0.1-0.1-0.2-0.3-0.2-0.6s0.1-0.4,0.2-0.6c0.2-0.1,0.3-0.2,0.6-0.2
	c0.2,0,0.4,0.1,0.5,0.2C97.1,43.2,97.1,43.4,97.1,43.6z M99.9,43.6c0,0.2-0.1,0.4-0.2,0.6c-0.1,0.1-0.3,0.2-0.5,0.2
	c-0.2,0-0.4-0.1-0.6-0.2c-0.1-0.1-0.2-0.3-0.2-0.6s0.1-0.4,0.2-0.6c0.2-0.1,0.3-0.2,0.6-0.2c0.2,0,0.4,0.1,0.5,0.2
	C99.8,43.2,99.9,43.4,99.9,43.6z M106.8,47c-0.1,0-0.1,0-0.2-0.1c-0.1,0-0.3-0.1-0.5-0.1c-0.3,0-0.5,0-0.7,0.1
	c-0.2,0.1-0.4,0.1-0.5,0.3c-0.1,0.1-0.3,0.2-0.4,0.4c-0.1,0.1-0.2,0.3-0.2,0.4v5.6H103v-7.7h1.2V47h0c0.1-0.1,0.1-0.3,0.2-0.4
	c0.1-0.1,0.2-0.3,0.4-0.4c0.2-0.1,0.3-0.2,0.6-0.3c0.2-0.1,0.5-0.1,0.8-0.1c0.2,0,0.3,0,0.4,0s0.2,0,0.3,0.1L106.8,47z M120.2,53.5
	h-1.4v-5h-5.5v5H112v-11h1.4v4.9h5.5v-4.9h1.4V53.5z M128.2,48.7c0,0.3,0,0.5,0,0.7c0,0.2-0.1,0.4-0.1,0.6h-4.5
	c0.1,0.9,0.3,1.6,0.7,2c0.4,0.4,1,0.6,1.7,0.6c0.3,0,0.6,0,0.8-0.1c0.2-0.1,0.4-0.1,0.6-0.2c0.2-0.1,0.3-0.1,0.4-0.2
	c0.1-0.1,0.2-0.2,0.2-0.2l0.4,0.9c-0.1,0.1-0.2,0.1-0.3,0.3c-0.1,0.1-0.3,0.2-0.5,0.3c-0.2,0.1-0.4,0.2-0.7,0.3
	c-0.3,0.1-0.6,0.1-1,0.1c-1.1,0-1.9-0.3-2.6-1c-0.6-0.7-0.9-1.7-0.9-3.1c0-0.7,0.1-1.3,0.3-1.7c0.2-0.5,0.4-0.9,0.7-1.2
	c0.3-0.3,0.7-0.6,1.1-0.7c0.4-0.2,0.8-0.2,1.3-0.2c0.8,0,1.4,0.3,1.9,0.8C127.9,46.9,128.2,47.7,128.2,48.7z M125.5,46.7
	c-0.5,0-1,0.2-1.3,0.6c-0.3,0.4-0.5,0.9-0.6,1.6h3.4c0-0.1,0-0.2,0-0.3c0-0.1,0-0.2,0-0.3c0-0.5-0.1-1-0.4-1.2
	C126.3,46.9,125.9,46.7,125.5,46.7z M131.6,43.1c0,0.3-0.1,0.5-0.3,0.7c-0.2,0.2-0.4,0.2-0.7,0.2c-0.3,0-0.5-0.1-0.7-0.2
	c-0.2-0.2-0.3-0.4-0.3-0.7c0-0.3,0.1-0.5,0.3-0.7c0.2-0.2,0.4-0.3,0.7-0.3c0.3,0,0.5,0.1,0.7,0.3C131.5,42.6,131.6,42.8,131.6,43.1z
	 M131.4,53.5h-1.3v-7.7h1.3V53.5z M138.2,53.5V49c0-0.8-0.1-1.3-0.3-1.7c-0.2-0.3-0.6-0.5-1-0.5c-0.3,0-0.5,0-0.7,0.1
	c-0.2,0.1-0.4,0.1-0.6,0.2s-0.3,0.2-0.4,0.3c-0.1,0.1-0.2,0.2-0.3,0.3v5.9h-1.3v-7.7h1.2v0.9h0c0.1-0.1,0.2-0.2,0.3-0.3
	c0.1-0.1,0.3-0.2,0.5-0.4c0.2-0.1,0.4-0.2,0.7-0.3c0.3-0.1,0.5-0.1,0.9-0.1c0.4,0,0.8,0.1,1.2,0.3c0.3,0.2,0.6,0.5,0.8,0.8
	c0.1-0.1,0.2-0.2,0.4-0.4c0.2-0.1,0.3-0.3,0.5-0.4c0.2-0.1,0.4-0.2,0.7-0.3c0.3-0.1,0.5-0.1,0.8-0.1c0.8,0,1.5,0.3,1.9,0.8
	c0.4,0.5,0.7,1.3,0.7,2.4v4.8h-1.3V49c0-0.8-0.1-1.3-0.4-1.7c-0.3-0.3-0.7-0.5-1.2-0.5c-0.5,0-0.8,0.1-1.2,0.3
	c-0.3,0.2-0.5,0.4-0.7,0.5c0.1,0.3,0.1,0.7,0.1,1.1v4.8H138.2z M145.8,51.5c0-0.4,0.1-0.7,0.3-1c0.2-0.3,0.4-0.5,0.7-0.7
	c0.3-0.2,0.7-0.3,1.1-0.4c0.4-0.1,0.9-0.1,1.4-0.1h0.6v-0.6c0-0.7-0.1-1.1-0.4-1.4c-0.3-0.3-0.6-0.4-1.1-0.4c-0.5,0-0.9,0.1-1.2,0.3
	c-0.3,0.2-0.5,0.3-0.7,0.4l-0.5-1c0.1-0.1,0.2-0.2,0.4-0.3c0.2-0.1,0.3-0.2,0.6-0.3c0.2-0.1,0.5-0.2,0.7-0.2c0.3-0.1,0.6-0.1,1-0.1
	c0.8,0,1.5,0.2,1.9,0.7c0.4,0.5,0.7,1.2,0.7,2.3v3.3c0,0.3,0,0.7,0,1c0,0.3,0,0.5,0.1,0.6h-1.2l0-0.8h0c-0.1,0.1-0.2,0.2-0.3,0.4
	c-0.1,0.1-0.3,0.2-0.4,0.3c-0.2,0.1-0.4,0.2-0.6,0.2c-0.2,0.1-0.5,0.1-0.8,0.1c-0.6,0-1.1-0.2-1.5-0.6
	C146,52.7,145.8,52.2,145.8,51.5z M148.2,52.6c0.3,0,0.5,0,0.7-0.1c0.2-0.1,0.4-0.1,0.5-0.2c0.1-0.1,0.3-0.2,0.4-0.2
	c0.1-0.1,0.2-0.2,0.3-0.3v-1.7l-0.7,0c-0.7,0-1.3,0.1-1.6,0.3c-0.3,0.2-0.5,0.5-0.5,0.9c0,0.4,0.1,0.7,0.3,0.9
	C147.6,52.5,147.9,52.6,148.2,52.6z M157,46.9h-2v4c0,0.6,0.1,1,0.3,1.3c0.2,0.2,0.5,0.4,0.9,0.4c0.2,0,0.4,0,0.5-0.1
	c0.1-0.1,0.3-0.1,0.4-0.1l0.1,1c-0.1,0-0.2,0.1-0.4,0.2c-0.2,0.1-0.5,0.1-0.9,0.1c-0.8,0-1.3-0.2-1.6-0.6c-0.3-0.4-0.5-1.1-0.5-2
	v-4.1h-1.1V46l1.1-0.2l0.1-2.1h1.2v2.1h2.1L157,46.9z"/>
</svg>
