<?xml version="1.0" encoding="utf-8"?>
<!-- Generator: Adobe Illustrator 27.5.0, SVG Export Plug-In . SVG Version: 6.00 Build 0)  -->
<svg version="1.1" id="Layer_1" xmlns="http://www.w3.org/2000/svg" xmlns:xlink="http://www.w3.org/1999/xlink" x="0px" y="0px"
	 viewBox="0 0 122.6 61" style="enable-background:new 0 0 122.6 61;" xml:space="preserve">
<style type="text/css">
	.st0{fill:#FFFFFF;}
</style>
<path class="st0" d="M14.1,8.3c0-0.2,0-0.5,0-0.7c0-0.1,0-0.3,0-0.4c2,0,3.7-1.5,3.7-3.1c0-0.8-0.5-1.5-0.9-1.8c0.1,0,0.1,0,0.2,0
	c0.3,0.2,1.1,1.1,1.1,2.3C18.3,6.4,16.3,8.2,14.1,8.3 M12,1.4c0-0.2-0.1-0.4-0.2-0.6c0-0.2,0.1-0.4,0.4-0.2c-0.2,0.2,0,0.5,0,0.5
	s0.4-0.2,0.3-0.4C13,0.8,12.6,1.5,12,1.4 M11.6,2.4c-0.1-0.3-0.2-0.6-0.4-0.8c-0.2-0.2-0.5-0.5-0.9-0.5c-0.2,0-0.5,0.1-0.7,0.2
	C9.6,1.1,9.4,0.8,9.4,0.7s0.2-0.3,0.7-0.3c1,0,1.6,0.5,1.6,1.2C11.8,1.9,11.7,2.2,11.6,2.4 M14.2,15.7c0.1,0,0.2,0,0.2,0.1
	c0.3,0.8,1.4,2.3,1.5,2.4h0h0c0.3,0,1-0.1,1.6-0.1h0c0.1,0,0.1,0,0.2,0c0,0,0.1,0.1,0.1,0.2c0,0.1-0.1,0.4-0.1,0.5
	c-0.2-0.2-0.5-0.3-1.1-0.3c-0.2,0-0.4,0-0.5,0.1h0l0,0l0.3,0.3c0.5,0.5,0.9,0.9,0.9,1.2c0,0.2-0.2,0.4-0.3,0.5
	c0-0.5-0.5-1.2-1.1-1.6l0,0v0.2c0,0.1,0,0.3,0,0.5c0,1-0.1,1.1-0.4,1.1c0,0-0.1,0-0.2,0c0.2-0.2,0.3-0.5,0.3-1.1v-0.2v-0.2
	c0-0.2,0-0.4,0-0.5v-0.1h0c-0.2,0-0.4-0.1-0.7-0.1c-0.5,0-0.8,0-1,0.3c-0.2-0.1-0.3-0.3-0.3-0.5c0-0.2,0.1-0.2,0.3-0.2
	c0.1,0,0.2,0,0.3,0c0.2,0,0.5,0.1,1.2,0.1h0v0c-0.2-0.5-0.6-1.1-1.3-2C13.9,15.9,14,15.7,14.2,15.7 M8.1,18.1L8.1,18.1L8.1,18.1
	c0.7,0,1,0,1.2,0c0.1,0,0.2,0,0.3,0c0.2,0,0.3,0,0.3,0.2c0,0.1-0.2,0.4-0.3,0.5c-0.2-0.2-0.6-0.3-1-0.3c-0.2,0-0.5,0-0.7,0.1h0h0
	v0.1c0,0.1,0.1,0.3,0.1,0.5v0.2v0.2c0,0.5,0.1,0.9,0.3,1.1c0,0-0.1,0-0.2,0c-0.3,0-0.4-0.1-0.4-1.1c0-0.2,0-0.4,0-0.5v-0.2l-0.1,0
	c-0.5,0.4-1,1.1-1,1.6C6.1,20.4,6,20.2,6,20c0-0.3,0.4-0.7,0.9-1.2l0.3-0.3l0,0l-0.1,0c-0.1,0-0.3-0.1-0.5-0.1
	c-0.5,0-0.9,0.1-1.1,0.3c-0.1-0.1-0.1-0.4-0.1-0.5c0-0.1,0-0.2,0.1-0.2c0.1,0,0.1,0,0.2,0h0c0.6,0,1.3,0.1,1.6,0.1h0l0,0
	c0.1-0.1,1.2-1.6,1.5-2.4c0.1,0,0.1-0.1,0.2-0.1c0.2,0,0.3,0.1,0.4,0.4C8.7,17,8.2,17.6,8.1,18.1 M5,4.4c0-1.1,0.8-2,1.1-2.3
	c0.1,0,0.1,0,0.2,0C6,2.6,5.5,3.2,5.5,4c0,1.7,1.8,3.1,3.8,3.1c0,0.1,0,0.3,0,0.4c0,0.2,0,0.5,0,0.7C7,8.3,5,6.4,5,4.4 M20.3,7.9
	c1,1.6,1.8,1.6,3,1.6c-1-0.8-1.7-1.8-2-2.3l-1.9-3c-0.2-0.9-0.7-1.8-1.4-2.4c0.2-0.1,0.4-0.2,0.6-0.3c-1.2,0-2.4-0.6-3.1-0.6
	c-0.4,0-0.7,0.3-0.7,0.6c0,0.4,0.4,0.8,1.1,0.8c0.2,0,0.4,0,0.6-0.1c0.4,0.5,0.7,1,0.7,1.7c0,1.3-1.6,2.3-3.1,2.3
	c-0.1,0-0.2,0-0.3,0c-0.1-0.3-0.6-0.9-0.6-1.5c0-1,0.7-1.9,0.7-2.9c0-0.6-0.3-1-0.4-1.2c0.2-0.2,0.4-0.4,0.5-0.6c-0.1,0-0.2,0-0.4,0
	c-0.8,0-1.4-0.2-2-0.2c-0.3,0-0.4,0.1-0.4,0.2c0,0,0,0.1,0,0.1c-0.1-0.1-0.2-0.1-0.4-0.1c-0.2,0-0.4,0-0.6,0c-0.7,0-1,0.3-1,0.6
	c0,0.2,0.2,0.6,0.4,0.9c0.3-0.1,0.6-0.2,0.8-0.2c0.4,0,0.7,0.4,0.9,0.8c-0.3,0-0.3,0-0.6,0C10,2.3,9.5,2,9.4,2c0,0,0,0,0,0
	c0,0.1,0.2,0.4,0.6,0.5c0.5,0.2,1.3,0.3,1.4,0.3c0,0-0.1,0.3-0.3,0.3c0,0-0.1,0-0.1,0C10.5,3,10.3,3,9.6,2.7c0,0,0,0,0,0
	c0,0.3,0.7,0.9,1.4,1.1c-0.5,0.7-1.2,1.4-1.5,2.4c-0.1,0-0.2,0-0.3,0C7.6,6.3,6,5.3,6,4c0-0.7,0.3-1.2,0.7-1.7
	c0.2,0,0.4,0.1,0.6,0.1C8,2.3,8.4,2,8.5,1.6C8.5,1.2,8.2,1,7.8,1C7.1,1,5.9,1.6,4.7,1.6C4.8,1.7,5,1.8,5.2,1.9
	C4.5,2.5,4,3.4,3.8,4.3L2,7.3C1.7,7.8,1,8.8,0,9.6c1.2,0,2,0,3-1.6l1-1.5C4.1,6.6,4.2,6.8,4.3,7l-1.9,3.1c-0.3,0.5-1,1.5-2,2.2
	c1.2,0,2,0,3-1.6L5,8.1c0.1,0.1,0.2,0.3,0.4,0.4l-2.3,3.7c-0.3,0.5-1,1.5-2,2.2c1.2,0,2,0,3-1.6l2.3-3.6c0.2,0.1,0.3,0.2,0.5,0.3
	l-2.8,4.4c-0.3,0.5-1,1.5-2,2.3c1.2,0,2,0,3-1.6L8,10c0.2,0.1,0.3,0.1,0.5,0.2l-3.2,5.1c-0.3,0.5-1,1.5-2,2.2c1.2,0,2,0,3-1.6
	l3.4-5.5c0,0,0.1,0,0.1,0c0.1,0.3,0.2,0.6,0.2,0.9c0,1.7-1.1,3.2-2.5,4.4c0.1,0,0.2,0.1,0.4,0.1c0.3,0,0.5,0,0.6,0
	c-0.3,0.7-1,1.6-1.3,2.1c-0.4-0.1-1.1-0.1-1.5-0.1s-0.5,0.3-0.5,0.5c0,0.4,0.2,0.7,0.4,0.9c0.1-0.2,0.2-0.5,1.1-0.5c0,0,0.1,0,0.1,0
	c-0.2,0.3-1,0.9-1,1.4c0,0.3,0.3,0.8,0.8,0.8c0-0.1,0-0.2,0-0.3c0-0.4,0.3-0.9,0.6-1.2c0,0.1,0,0.1,0,0.2c0,0.9,0.1,1.4,0.7,1.4
	c0.3,0,0.5-0.2,0.6-0.2c-0.4-0.4-0.4-0.6-0.4-1.1c0-0.1,0-0.3,0-0.5c0-0.1,0-0.3,0-0.4c0.2,0,0.3,0,0.5,0c0,0,0.8-0.1,1,0.4
	c0.2-0.2,0.6-0.5,0.6-0.8c0-0.2-0.1-0.5-0.5-0.5c-0.2,0-0.7,0.1-1.1,0.1c0.1-0.3,0.6-1,1.1-1.6c0.1,0.2,0.2,0.4,0.4,0.6
	c0-0.4,0.2-1.5,0.8-2.1c0.1,0.4,0.1,0.9,0.1,1.8c0,2.3-0.6,4-1.7,4.4c0.1,0.3,0.5,0.5,0.8,0.5c0.4,0,0.7-0.5,0.9-1
	c0.1,0.3,0.5,1.2,0.8,1.2c0.3,0,0.7-0.8,0.8-1.2c0.2,0.5,0.5,1,0.9,1c0.3,0,0.7-0.2,0.8-0.5c-1.2-0.3-1.7-2-1.7-4.4
	c0-0.9,0.1-1.4,0.1-1.8c0.5,0.6,0.8,1.8,0.8,2.1c0.2-0.2,0.3-0.4,0.4-0.6c0.5,0.5,1,1.3,1.1,1.6c-0.4,0-0.9-0.1-1.1-0.1
	c-0.4,0-0.5,0.2-0.5,0.5c0,0.3,0.3,0.6,0.6,0.8c0.2-0.4,1-0.4,1-0.4c0.2,0,0.2,0,0.5,0c0,0.1,0,0.3,0,0.4v0.5c0,0.5,0,0.8-0.4,1.1
	c0.1,0,0.3,0.2,0.6,0.2c0.6,0,0.7-0.4,0.7-1.4c0-0.1,0-0.1,0-0.2c0.3,0.3,0.6,0.8,0.6,1.2c0,0.1,0,0.2,0,0.3c0.5,0,0.8-0.5,0.8-0.8
	c0-0.5-0.8-1.1-1-1.4c0,0,0.1,0,0.1,0c0.8,0,1,0.3,1.1,0.5c0.2-0.2,0.4-0.5,0.4-0.9c0-0.2,0-0.5-0.5-0.5s-1.1,0.1-1.5,0.1
	c-0.3-0.5-1-1.4-1.3-2.1c0.1,0,0.3,0,0.6,0c0.1,0,0.3,0,0.4-0.1c-1.4-1.2-2.5-2.7-2.5-4.4c0-0.3,0.1-0.6,0.2-0.9c0,0,0.1,0,0.1,0
	L17,16c1,1.6,1.8,1.6,3,1.6c-1-0.8-1.7-1.8-2-2.2l-3.2-5.1c0.2-0.1,0.3-0.1,0.5-0.2l2.8,4.5c1,1.6,1.8,1.6,3,1.6
	c-1-0.8-1.7-1.8-2-2.2l-2.8-4.4c0.2-0.1,0.3-0.2,0.5-0.3l2.3,3.6c1,1.6,1.8,1.6,3,1.6c-1-0.8-1.7-1.7-2-2.2L18,8.5
	c0.1-0.1,0.3-0.2,0.4-0.4l1.6,2.6c1,1.6,1.8,1.6,3,1.6c-1-0.8-1.7-1.8-2-2.2L19.2,7c0.1-0.2,0.2-0.4,0.3-0.6L20.3,7.9L20.3,7.9z"/>
<rect x="29.4" y="1" class="st0" width="3.5" height="20"/>
<rect x="29.4" y="22.2" class="st0" width="3.5" height="1.2"/>
<rect x="29.4" y="24.7" class="st0" width="3.5" height="1.2"/>
<rect x="29.4" y="27.2" class="st0" width="3.5" height="1.2"/>
<rect x="29.4" y="29.7" class="st0" width="3.5" height="1.2"/>
<rect x="29.4" y="32.2" class="st0" width="3.5" height="1.2"/>
<rect x="29.4" y="34.7" class="st0" width="3.5" height="1.2"/>
<rect x="29.4" y="37.2" class="st0" width="3.5" height="1.2"/>
<rect x="29.4" y="39.7" class="st0" width="3.5" height="1.2"/>
<rect x="29.4" y="60.6" class="st0" width="3.5" height="0.4"/>
<rect x="29.4" y="58.6" class="st0" width="3.5" height="0.4"/>
<rect x="29.4" y="56.6" class="st0" width="3.5" height="0.4"/>
<rect x="29.4" y="54.6" class="st0" width="3.5" height="0.4"/>
<rect x="29.4" y="52.6" class="st0" width="3.5" height="0.4"/>
<rect x="29.4" y="50.6" class="st0" width="3.5" height="0.4"/>
<rect x="29.4" y="48.6" class="st0" width="3.5" height="0.4"/>
<rect x="29.4" y="46.6" class="st0" width="3.5" height="0.4"/>
<rect x="29.4" y="44.6" class="st0" width="3.5" height="0.4"/>
<rect x="29.4" y="42.6" class="st0" width="3.5" height="0.4"/>
<path class="st0" d="M45.2,2.8c0-1.3-0.8-2.1-2.8-2.1h-1.6V9h1.7c2,0,2.9-0.9,2.9-2.3c0-1.1-0.7-1.8-1.6-2v0
	C44.6,4.5,45.2,4,45.2,2.8C45.2,2.8,45.2,2.8,45.2,2.8z M44.1,2.9c0,1-0.6,1.5-1.7,1.5h-0.5V1.5h0.5C43.6,1.5,44.1,2.1,44.1,2.9
	L44.1,2.9L44.1,2.9z M44.3,6.7c0,0.9-0.5,1.5-1.8,1.5h-0.7V5.2h0.7C43.7,5.2,44.3,5.8,44.3,6.7L44.3,6.7L44.3,6.7z"/>
<path class="st0" d="M49.8,8.3L49.8,8.3l0,0.6h0.9V3.2h-1v4.4c-0.2,0.2-0.6,0.6-1.2,0.6c-0.7,0-1-0.4-1-1.3V3.2h-1V7
	c0,1.6,0.6,2.1,1.7,2.1C49.2,9.1,49.7,8.5,49.8,8.3L49.8,8.3L49.8,8.3z"/>
<path class="st0" d="M54.4,3.9c0.7,0,1,0.4,1,1.4V9h1V5.2c0-1.6-0.7-2.1-1.7-2.1c-0.9,0-1.4,0.6-1.5,0.8h0V3.2h-0.9V9h1V4.5
	C53.4,4.3,53.8,3.9,54.4,3.9L54.4,3.9L54.4,3.9z"/>
<path class="st0" d="M59.8,8.3c-0.7,0-1.3-0.5-1.3-2.1s0.7-2.2,1.6-2.2c0.3,0,0.6,0.1,0.8,0.2v3.6C60.7,7.9,60.4,8.3,59.8,8.3
	L59.8,8.3L59.8,8.3z M60.9,8.4L60.9,8.4l0,0.6h0.9V0.4l-1,0.1v2.8c-0.2-0.1-0.5-0.1-0.8-0.1c-1.2,0-2.5,0.7-2.5,3.1
	c0,2.1,0.9,2.9,2,2.9C60.4,9.1,60.8,8.5,60.9,8.4L60.9,8.4L60.9,8.4z"/>
<path class="st0" d="M65.2,3.9c0.6,0,0.9,0.5,0.9,1.3c0,0.2,0,0.3,0,0.4H64C64.1,4.5,64.5,3.9,65.2,3.9C65.2,3.9,65.2,3.9,65.2,3.9z
	 M67.1,8.4l-0.4-0.7c-0.1,0.1-0.5,0.5-1.2,0.5c-1,0-1.5-0.6-1.6-2H67C67,6,67,5.7,67,5.2c0-1.4-0.7-2.1-1.8-2.1
	c-1.2,0-2.2,0.9-2.2,2.9c0,2.2,0.9,3.1,2.4,3.1C66.5,9.1,67,8.6,67.1,8.4L67.1,8.4L67.1,8.4z"/>
<path class="st0" d="M71.2,3.7c-0.2-0.2-0.6-0.6-1.5-0.6c-0.9,0-1.7,0.6-1.7,1.5c0,0.8,0.4,1.3,1.2,1.7l0.4,0.2
	c0.6,0.3,0.8,0.5,0.8,1.1c0,0.4-0.3,0.7-0.9,0.7c-0.6,0-1-0.4-1.2-0.6l-0.5,0.8c0.2,0.2,0.7,0.7,1.6,0.7c1.2,0,1.8-0.7,1.8-1.6
	c0-0.8-0.5-1.3-1.3-1.8l-0.4-0.2c-0.5-0.3-0.8-0.6-0.8-1c0-0.3,0.3-0.6,0.8-0.6c0.5,0,0.9,0.3,1,0.5L71.2,3.7L71.2,3.7z"/>
<path class="st0" d="M74.7,3.9c0.6,0,0.9,0.4,0.9,1.3V9h1V5.1c0-0.2,0-0.4-0.1-0.6c0.2-0.2,0.6-0.6,1.1-0.6c0.7,0,1,0.4,1,1.3V9h1
	V5.1c0-1.4-0.6-2-1.8-2c-0.7,0-1.3,0.4-1.5,0.8c-0.3-0.5-0.7-0.8-1.4-0.8c-0.8,0-1.3,0.5-1.4,0.8h0V3.2h-0.9V9h1V4.5
	C73.7,4.3,74.1,3.9,74.7,3.9L74.7,3.9L74.7,3.9z"/>
<path class="st0" d="M81.5,1.8c0.4,0,0.7-0.3,0.7-0.7s-0.3-0.7-0.7-0.7s-0.7,0.3-0.7,0.7S81.1,1.8,81.5,1.8
	C81.5,1.8,81.5,1.8,81.5,1.8z M82,3.2h-1V9h1V3.2z"/>
<path class="st0" d="M85.6,3.9c0.7,0,1,0.4,1,1.4V9h1V5.2c0-1.6-0.7-2.1-1.7-2.1c-0.9,0-1.4,0.6-1.5,0.8h0V3.2h-0.9V9h1V4.5
	C84.6,4.3,85,3.9,85.6,3.9L85.6,3.9L85.6,3.9z"/>
<path class="st0" d="M89.5,1.8c0.4,0,0.7-0.3,0.7-0.7s-0.3-0.7-0.7-0.7s-0.7,0.3-0.7,0.7S89.1,1.8,89.5,1.8
	C89.5,1.8,89.5,1.8,89.5,1.8z M90,3.2h-1V9h1V3.2z"/>
<path class="st0" d="M94.4,3.7c-0.2-0.2-0.6-0.6-1.5-0.6c-0.9,0-1.7,0.6-1.7,1.5c0,0.8,0.4,1.3,1.2,1.7l0.4,0.2
	c0.6,0.3,0.8,0.5,0.8,1.1c0,0.4-0.3,0.7-0.9,0.7c-0.6,0-1-0.4-1.2-0.6l-0.5,0.8c0.2,0.2,0.7,0.7,1.6,0.7c1.2,0,1.8-0.7,1.8-1.6
	c0-0.8-0.5-1.3-1.3-1.8l-0.4-0.2c-0.5-0.3-0.8-0.6-0.8-1c0-0.3,0.3-0.6,0.8-0.6c0.5,0,0.9,0.3,1,0.5L94.4,3.7L94.4,3.7z"/>
<path class="st0" d="M98.3,8.9l-0.1-0.8c-0.1,0.1-0.3,0.2-0.6,0.2c-0.5,0-0.7-0.2-0.7-1.1V4h1.3l0.1-0.8h-1.4V1.6H96l-0.1,1.6
	l-0.7,0.1V4h0.7v3.3c0,1.3,0.5,1.8,1.5,1.8C97.9,9.1,98.2,8.9,98.3,8.9L98.3,8.9L98.3,8.9z"/>
<path class="st0" d="M101,3.9c0.6,0,0.9,0.5,0.9,1.3c0,0.2,0,0.3,0,0.4h-2.1C99.9,4.5,100.3,3.9,101,3.9C101,3.9,101,3.9,101,3.9z
	 M103,8.4l-0.4-0.7c-0.1,0.1-0.5,0.5-1.2,0.5c-1,0-1.5-0.6-1.6-2h2.9c0-0.3,0.1-0.6,0.1-1.1c0-1.4-0.7-2.1-1.8-2.1
	c-1.2,0-2.2,0.9-2.2,2.9c0,2.2,0.9,3.1,2.4,3.1C102.3,9.1,102.8,8.6,103,8.4L103,8.4L103,8.4z"/>
<path class="st0" d="M106.8,3.2c-0.1,0-0.2-0.1-0.5-0.1c-0.7,0-1,0.4-1.2,0.9h0V3.2h-0.9V9h1V4.8c0.1-0.4,0.5-0.8,1.1-0.8
	c0.3,0,0.4,0.1,0.5,0.1L106.8,3.2L106.8,3.2z"/>
<path class="st0" d="M108.1,1.8c0.4,0,0.7-0.3,0.7-0.7s-0.3-0.7-0.7-0.7s-0.7,0.3-0.7,0.7S107.7,1.8,108.1,1.8
	C108.1,1.8,108.1,1.8,108.1,1.8z M108.6,3.2h-1V9h1V3.2z"/>
<path class="st0" d="M113.2,8.3L113.2,8.3l0,0.6h0.9V3.2h-1v4.4c-0.2,0.2-0.6,0.6-1.2,0.6c-0.7,0-1-0.4-1-1.3V3.2h-1V7
	c0,1.6,0.6,2.1,1.7,2.1C112.6,9.1,113.1,8.5,113.2,8.3L113.2,8.3L113.2,8.3z"/>
<path class="st0" d="M117.8,3.9c0.6,0,0.9,0.4,0.9,1.3V9h1V5.1c0-0.2,0-0.4-0.1-0.6c0.2-0.2,0.6-0.6,1.1-0.6c0.7,0,1,0.4,1,1.3V9h1
	V5.1c0-1.4-0.6-2-1.8-2c-0.8,0-1.3,0.4-1.5,0.8c-0.3-0.5-0.8-0.8-1.4-0.8c-0.8,0-1.3,0.5-1.4,0.8h0V3.2h-0.9V9h1V4.5
	C116.8,4.3,117.1,3.9,117.8,3.9C117.8,3.9,117.8,3.9,117.8,3.9z"/>
<path class="st0" d="M42.6,20.3c-0.7,0-1.3-0.5-1.3-2.1s0.7-2.2,1.6-2.2c0.3,0,0.6,0.1,0.7,0.2v3.5C43.6,19.9,43.3,20.3,42.6,20.3
	C42.6,20.3,42.6,20.3,42.6,20.3z M43.8,20.4L43.8,20.4l0,0.6h0.9v-8.6l-1,0.1v2.8c-0.2-0.1-0.5-0.1-0.8-0.1c-1.2,0-2.5,0.7-2.5,3.1
	c0,2.1,0.9,2.9,2,2.9C43.3,21.1,43.7,20.6,43.8,20.4L43.8,20.4L43.8,20.4z"/>
<path class="st0" d="M48.1,15.9c0.6,0,0.9,0.5,0.9,1.3c0,0.2,0,0.3,0,0.4h-2.1C46.9,16.5,47.4,15.9,48.1,15.9
	C48.1,15.9,48.1,15.9,48.1,15.9z M50,20.4l-0.4-0.7c-0.1,0.1-0.5,0.5-1.2,0.5c-1,0-1.5-0.6-1.6-2h2.9c0-0.3,0.1-0.6,0.1-1.1
	c0-1.4-0.7-2.1-1.8-2.1c-1.2,0-2.2,0.9-2.2,3c0,2.2,0.9,3.1,2.4,3.1C49.4,21.1,49.9,20.6,50,20.4L50,20.4z"/>
<path class="st0" d="M54.1,15.7c-0.2-0.2-0.6-0.6-1.5-0.6c-0.9,0-1.7,0.6-1.7,1.5c0,0.8,0.4,1.3,1.2,1.7l0.4,0.2
	c0.5,0.4,0.8,0.5,0.8,1.1c0,0.4-0.3,0.7-0.9,0.7c-0.6,0-1-0.4-1.2-0.6l-0.5,0.8c0.2,0.2,0.7,0.7,1.6,0.7c1.2,0,1.8-0.7,1.8-1.6
	c0-0.9-0.5-1.3-1.3-1.8l-0.4-0.2c-0.5-0.3-0.8-0.5-0.8-1c0-0.3,0.3-0.6,0.8-0.6s0.9,0.3,1,0.5L54.1,15.7L54.1,15.7z"/>
<path class="st0" d="M58.6,20.2h-0.9V21h2.8v-0.8h-0.9v-6.8h0.9v-0.7h-2.8v0.7h0.9L58.6,20.2L58.6,20.2z"/>
<path class="st0" d="M63.8,15.9c0.7,0,1,0.4,1,1.4V21h1v-3.8c0-1.6-0.7-2.1-1.7-2.1c-0.9,0-1.4,0.6-1.5,0.8h0v-0.6h-0.9V21h1v-4.4
	C62.8,16.3,63.2,15.9,63.8,15.9L63.8,15.9L63.8,15.9z"/>
<path class="st0" d="M69.4,15.9c0.7,0,1,0.4,1,1.4V21h1v-3.8c0-1.6-0.7-2.1-1.7-2.1c-0.9,0-1.4,0.6-1.5,0.8h0v-0.6h-0.9V21h1v-4.4
	C68.4,16.3,68.8,15.9,69.4,15.9L69.4,15.9L69.4,15.9z"/>
<path class="st0" d="M74.7,15.9c0.6,0,0.9,0.5,0.9,1.3c0,0.2,0,0.3,0,0.4h-2.1C73.5,16.5,74,15.9,74.7,15.9L74.7,15.9L74.7,15.9z
	 M76.6,20.4l-0.4-0.7c-0.1,0.1-0.5,0.5-1.2,0.5c-1,0-1.5-0.6-1.6-2h2.9c0-0.3,0.1-0.6,0.1-1.1c0-1.4-0.7-2.1-1.8-2.1
	c-1.2,0-2.2,0.9-2.2,3c0,2.2,0.9,3.1,2.4,3.1C76,21.1,76.4,20.6,76.6,20.4L76.6,20.4L76.6,20.4z"/>
<path class="st0" d="M80.4,15.2c-0.1,0-0.2-0.1-0.5-0.1c-0.7,0-1,0.4-1.2,0.9h0v-0.8h-0.9V21h1v-4.2c0.1-0.4,0.5-0.8,1.1-0.8
	c0.3,0,0.4,0.1,0.5,0.1L80.4,15.2L80.4,15.2z"/>
<path class="st0" d="M83.4,15.9c0.7,0,1,0.4,1,1.4V21h1v-3.8c0-1.6-0.7-2.1-1.7-2.1c-0.9,0-1.4,0.6-1.5,0.8h0v-0.6h-0.9V21h1v-4.4
	C82.4,16.3,82.8,15.9,83.4,15.9C83.4,15.9,83.4,15.9,83.4,15.9z"/>
<path class="st0" d="M43.8,32.3L43.8,32.3l0,0.7h0.9v-5.8h-1v4.4c-0.2,0.2-0.6,0.6-1.2,0.6c-0.7,0-1-0.4-1-1.3v-3.7h-1V31
	c0,1.6,0.6,2.1,1.7,2.1C43.1,33.1,43.7,32.5,43.8,32.3L43.8,32.3L43.8,32.3z"/>
<path class="st0" d="M48.3,27.9c0.7,0,1,0.4,1,1.4V33h1v-3.8c0-1.6-0.7-2.1-1.7-2.1c-0.9,0-1.4,0.6-1.5,0.8h0v-0.6h-0.9V33h1v-4.4
	C47.3,28.3,47.7,27.9,48.3,27.9L48.3,27.9L48.3,27.9z"/>
<path class="st0" d="M53.7,32.3c-0.7,0-1.3-0.5-1.3-2.1s0.7-2.2,1.6-2.2c0.3,0,0.6,0.1,0.7,0.2v3.5C54.7,31.9,54.4,32.3,53.7,32.3
	L53.7,32.3z M54.9,32.4L54.9,32.4l0,0.6h0.9v-8.6l-1,0.1v2.8c-0.2-0.1-0.4-0.1-0.8-0.1c-1.2,0-2.5,0.7-2.5,3.1c0,2.1,0.9,2.9,2,2.9
	C54.4,33.1,54.8,32.6,54.9,32.4C54.9,32.4,54.9,32.4,54.9,32.4z"/>
<path class="st0" d="M62.2,28l0.1-0.8h-1.3v-1c0-0.8,0.2-1,0.7-1c0.2,0,0.4,0.1,0.5,0.2l0.2-0.8c-0.1-0.1-0.4-0.2-0.8-0.2
	c-0.8,0-1.6,0.5-1.6,1.8v1.1l-0.7,0.1V28h0.7v5h1v-5C61.1,28,62.2,28,62.2,28z"/>
<path class="st0" d="M66.7,25.6c0-0.4-0.2-0.6-0.6-0.6s-0.6,0.2-0.6,0.6s0.2,0.6,0.6,0.6S66.7,25.9,66.7,25.6L66.7,25.6z M64.9,25.6
	c0-0.4-0.2-0.6-0.6-0.6s-0.6,0.2-0.6,0.6s0.2,0.6,0.6,0.6S64.9,25.9,64.9,25.6L64.9,25.6z M66.3,32.3L66.3,32.3l0,0.7h0.9v-5.8h-1
	v4.4c-0.2,0.2-0.6,0.6-1.2,0.6c-0.7,0-1-0.4-1-1.3v-3.7h-1V31c0,1.6,0.6,2.1,1.7,2.1C65.7,33.1,66.2,32.5,66.3,32.3L66.3,32.3
	L66.3,32.3z"/>
<path class="st0" d="M71.4,27.2c-0.1,0-0.2-0.1-0.5-0.1c-0.7,0-1.1,0.4-1.2,0.9h0v-0.8h-0.9V33h1v-4.2c0.1-0.4,0.5-0.8,1.1-0.8
	c0.3,0,0.4,0.1,0.5,0.1L71.4,27.2L71.4,27.2z"/>
<path class="st0" d="M80.2,24.7h-1.1v3.7h-3.4v-3.7h-1V33h1v-3.8h3.4V33h1.1V24.7z"/>
<path class="st0" d="M83.7,27.9c0.6,0,0.9,0.5,0.9,1.3c0,0.2,0,0.3,0,0.4h-2.1C82.6,28.5,83,27.9,83.7,27.9
	C83.7,27.9,83.7,27.9,83.7,27.9z M85.7,32.4l-0.4-0.7c-0.1,0.1-0.5,0.5-1.2,0.5c-1,0-1.5-0.6-1.6-2h2.9c0-0.3,0.1-0.6,0.1-1.1
	c0-1.4-0.7-2.1-1.8-2.1c-1.2,0-2.2,0.9-2.2,3c0,2.2,0.9,3.1,2.4,3.1C85,33.1,85.5,32.6,85.7,32.4C85.7,32.4,85.7,32.4,85.7,32.4z"/>
<path class="st0" d="M87.3,25.8c0.4,0,0.6-0.3,0.6-0.7s-0.3-0.7-0.6-0.7s-0.7,0.3-0.7,0.7S86.9,25.8,87.3,25.8L87.3,25.8z
	 M87.8,27.2h-1V33h1C87.8,33,87.8,27.2,87.8,27.2z"/>
<path class="st0" d="M91.5,27.9c0.6,0,0.9,0.4,0.9,1.3V33h1v-3.9c0-0.2,0-0.4-0.1-0.6c0.2-0.2,0.6-0.6,1.1-0.6c0.7,0,1,0.4,1,1.3V33
	h1v-3.9c0-1.4-0.6-2-1.8-2c-0.8,0-1.3,0.4-1.5,0.8c-0.3-0.5-0.8-0.8-1.4-0.8c-0.8,0-1.3,0.5-1.4,0.8h0v-0.6h-0.9V33h1v-4.4
	C90.4,28.3,90.8,27.9,91.5,27.9L91.5,27.9L91.5,27.9z"/>
<path class="st0" d="M100.1,29.7h-0.3c-1.3,0-2.4,0.5-2.4,1.8c0,0.9,0.7,1.6,1.5,1.6c0.7,0,1.1-0.5,1.2-0.8h0c0,0.3,0,0.5,0,0.6h0.9
	c0-0.2-0.1-0.7-0.1-1.2v-2.6c0-1.5-0.6-2.1-1.8-2.1c-0.9,0-1.5,0.4-1.7,0.7l0.4,0.6c0.2-0.2,0.6-0.5,1.2-0.5c0.6,0,1,0.3,1,1.3
	L100.1,29.7L100.1,29.7z M100.1,30.5v1.3c-0.1,0.2-0.4,0.6-1,0.6c-0.5,0-0.8-0.3-0.8-0.9c0-0.6,0.5-0.9,1.4-0.9L100.1,30.5
	L100.1,30.5z"/>
<path class="st0" d="M105.2,32.9l-0.1-0.8c-0.1,0.1-0.3,0.2-0.6,0.2c-0.5,0-0.7-0.2-0.7-1.1V28h1.3l0.1-0.8h-1.4v-1.6h-0.9l-0.1,1.6
	l-0.7,0.1V28h0.7v3.3c0,1.3,0.5,1.8,1.5,1.8C104.8,33.1,105.1,32.9,105.2,32.9L105.2,32.9L105.2,32.9z"/>
</svg>
