<?xml version="1.0" encoding="utf-8"?>
<!-- Generator: Adobe Illustrator 27.2.0, SVG Export Plug-In . SVG Version: 6.00 Build 0)  -->
<svg version="1.1" id="Ebene_1" xmlns="http://www.w3.org/2000/svg" xmlns:xlink="http://www.w3.org/1999/xlink" x="0px" y="0px"
	 viewBox="0 0 223.9 61" style="enable-background:new 0 0 223.9 61;" xml:space="preserve">
<style type="text/css">
	.st0{fill:#FF0000;}
	.st1{fill:#FFCC00;}
</style>
<g transform="translate(23.354, 21.785)">
	<g transform="translate(0, 0)">
		<path d="M-9.3-13.5c0-0.2,0-0.5,0-0.7c0-0.1,0-0.3,0-0.4c2,0,3.7-1.5,3.7-3.1c0-0.8-0.5-1.5-0.9-1.9c0.1,0,0.1,0,0.2,0
			c0.3,0.3,1.1,1.2,1.1,2.3C-5-15.4-7-13.5-9.3-13.5 M-11.3-20.4c0-0.2-0.1-0.4-0.2-0.6c0-0.2,0.1-0.4,0.4-0.2c-0.2,0.2,0,0.5,0,0.5
			s0.4-0.2,0.3-0.4C-10.3-21-10.7-20.3-11.3-20.4 M-11.7-19.4c-0.1-0.3-0.2-0.6-0.4-0.8c-0.2-0.2-0.5-0.5-0.9-0.5
			c-0.2,0-0.5,0.1-0.7,0.2c-0.1-0.1-0.2-0.4-0.2-0.6c0-0.1,0.2-0.3,0.7-0.3c1,0,1.6,0.5,1.6,1.2C-11.5-19.8-11.6-19.6-11.7-19.4
			 M-9.1-6.1c0.1,0,0.2,0,0.2,0c0.3,0.8,1.4,2.3,1.5,2.4l0,0l0,0c0.3,0,1-0.2,1.6-0.2h0c0.1,0,0.1,0,0.2,0c0,0,0.1,0.1,0.1,0.2
			c0,0.1-0.1,0.4-0.1,0.5c-0.2-0.2-0.6-0.3-1.1-0.3c-0.2,0-0.4,0-0.5,0.1l0,0l0,0l0.3,0.3C-6.4-2.4-6-2-6-1.7c0,0.2-0.2,0.4-0.3,0.5
			c0-0.5-0.5-1.2-1.1-1.6l0,0l0,0.2c0,0.1,0,0.3,0,0.5c0,1-0.1,1.1-0.4,1.1c-0.1,0-0.1,0-0.2,0c0.2-0.2,0.3-0.5,0.3-1.1l0-0.3l0-0.2
			c0-0.2,0-0.4,0-0.5l0-0.1l-0.1,0c-0.2,0-0.5-0.1-0.7-0.1c-0.5,0-0.8,0-1,0.3c-0.2-0.1-0.3-0.3-0.3-0.5c0-0.2,0.1-0.2,0.3-0.2
			c0.1,0,0.2,0,0.3,0c0.2,0,0.5,0.1,1.2,0.1h0l0,0c-0.2-0.5-0.6-1.1-1.3-2C-9.4-5.9-9.3-6.1-9.1-6.1 M-15.2-3.7L-15.2-3.7L-15.2-3.7
			c0.7,0,1,0,1.2,0c0.1,0,0.2,0,0.3,0c0.2,0,0.3,0,0.3,0.2c0,0.1-0.2,0.4-0.3,0.5c-0.2-0.2-0.6-0.3-1-0.3c-0.2,0-0.5,0-0.7,0.1l0,0
			l0,0l0,0.1c0,0.1,0,0.3,0,0.5l0,0.2l0,0.3c0,0.5,0.1,0.9,0.3,1.1c-0.1,0-0.1,0-0.2,0c-0.3,0-0.4-0.1-0.4-1.1c0-0.2,0-0.4,0-0.5
			l0-0.2l0,0c-0.5,0.4-1,1.1-1.1,1.6c-0.2-0.1-0.3-0.3-0.3-0.5c0-0.3,0.4-0.7,0.9-1.2l0.3-0.3l0,0l-0.1,0c-0.1,0-0.3-0.1-0.5-0.1
			c-0.5,0-0.9,0.1-1.1,0.3c-0.1-0.1-0.1-0.4-0.1-0.5c0-0.1,0-0.2,0.1-0.2c0,0,0.1,0,0.2,0h0c0.6,0,1.3,0.1,1.6,0.2l0,0l0,0
			c0-0.1,1.2-1.6,1.5-2.4c0.1,0,0.1,0,0.2,0c0.2,0,0.3,0.2,0.4,0.4C-14.6-4.8-15.1-4.1-15.2-3.7 M-18.3-17.4c0-1.1,0.8-2,1.1-2.3
			c0.1,0,0.1,0,0.2,0c-0.3,0.4-0.9,1-0.9,1.9c0,1.7,1.8,3.1,3.8,3.1c0,0.1,0,0.3,0,0.4c0,0.2,0,0.5,0,0.7
			C-16.3-13.5-18.3-15.4-18.3-17.4 M-3-13.8c1,1.6,1.8,1.6,3,1.6C-1-13-1.7-14-2-14.5l-1.9-3c-0.2-0.9-0.7-1.8-1.4-2.4
			c0.2-0.1,0.4-0.2,0.6-0.3c-1.2,0-2.4-0.6-3.1-0.6c-0.4,0-0.7,0.3-0.7,0.6c0,0.4,0.4,0.8,1.1,0.8c0.2,0,0.4,0,0.6-0.1
			c0.4,0.5,0.7,1,0.7,1.7c0,1.3-1.6,2.3-3.1,2.3c-0.1,0-0.2,0-0.3,0c-0.1-0.3-0.6-0.9-0.6-1.5c0-1,0.7-1.9,0.7-2.9
			c0-0.6-0.3-1-0.4-1.2c0.2-0.2,0.4-0.4,0.5-0.6c-0.1,0-0.2,0.1-0.4,0.1c-0.8,0-1.4-0.2-2-0.2c-0.3,0-0.4,0.1-0.4,0.2
			c0,0,0,0.1,0,0.1c-0.1,0-0.2-0.1-0.4-0.1c-0.2,0-0.4-0.1-0.6-0.1c-0.7,0-1,0.3-1,0.6c0,0.2,0.2,0.6,0.4,0.9
			c0.3-0.1,0.6-0.2,0.8-0.2c0.4,0,0.7,0.4,0.9,0.8c-0.3,0-0.3,0-0.6,0c-0.7,0-1.2-0.3-1.3-0.3c0,0,0,0,0,0c0,0.1,0.2,0.4,0.6,0.5
			c0.5,0.2,1.3,0.3,1.4,0.3c0,0-0.1,0.3-0.3,0.3c0,0-0.1,0-0.1,0c-0.5-0.1-0.7-0.2-1.4-0.4c0,0,0,0,0,0c0,0.3,0.7,0.9,1.4,1.1
			c-0.5,0.7-1.2,1.4-1.5,2.4c-0.1,0-0.2,0-0.3,0c-1.6,0-3.1-1-3.1-2.3c0-0.7,0.3-1.2,0.7-1.7c0.2,0,0.4,0.1,0.6,0.1
			c0.7,0,1.1-0.4,1.1-0.8c0-0.3-0.3-0.6-0.7-0.6c-0.7,0-1.9,0.6-3.1,0.6c0.1,0.1,0.3,0.2,0.6,0.3c-0.7,0.6-1.2,1.5-1.4,2.4l-1.9,3
			c-0.3,0.5-1,1.5-2,2.3c1.2,0,2,0,3-1.6l1-1.5c0.1,0.2,0.2,0.4,0.3,0.6l-1.9,3.1c-0.3,0.5-1,1.5-2,2.3c1.2,0,2,0,3-1.6l1.6-2.6
			c0.1,0.1,0.3,0.3,0.4,0.4l-2.3,3.7c-0.3,0.5-1,1.5-2,2.2c1.2,0,2,0,3-1.6l2.3-3.6c0.1,0.1,0.3,0.2,0.5,0.3l-2.8,4.4
			c-0.3,0.5-1,1.5-2,2.2c1.2,0,2,0,3-1.6l2.8-4.5c0.2,0.1,0.3,0.1,0.5,0.2L-18-6.5C-18.3-6-19-5-20-4.2c1.2,0,2,0,3-1.6l3.4-5.5
			c0,0,0.1,0,0.1,0c0.1,0.3,0.2,0.6,0.2,0.8c0,1.7-1.1,3.2-2.5,4.4c0.1,0,0.2,0.1,0.4,0.1c0.3,0,0.5,0,0.6,0c-0.3,0.7-1,1.6-1.3,2.1
			C-16.6-3.9-17.2-4-17.6-4c-0.4,0-0.5,0.3-0.5,0.5c0,0.4,0.2,0.7,0.4,0.9c0.1-0.2,0.2-0.5,1.1-0.5c0,0,0,0,0.1,0
			c-0.2,0.3-1,0.9-1,1.4c0,0.3,0.4,0.8,0.8,0.8c0-0.1,0-0.2,0-0.3c0-0.4,0.3-0.9,0.6-1.2c0,0.1,0,0.1,0,0.2c0,0.9,0.1,1.4,0.7,1.4
			c0.3,0,0.5-0.2,0.6-0.2c-0.4-0.4-0.4-0.6-0.4-1.2c0-0.1,0-0.3,0-0.5c0-0.1,0-0.3,0-0.4c0.2,0,0.3,0,0.5,0c0,0,0.8-0.1,1,0.4
			c0.2-0.2,0.6-0.5,0.6-0.8c0-0.2-0.1-0.5-0.5-0.5c-0.2,0-0.7,0.1-1.1,0.1c0.1-0.3,0.6-1,1.1-1.6c0.1,0.2,0.2,0.4,0.4,0.6
			c0-0.4,0.2-1.5,0.8-2.1c0.1,0.4,0.1,0.9,0.1,1.8c0,2.3-0.6,4-1.7,4.3c0.2,0.3,0.5,0.5,0.8,0.5c0.4,0,0.7-0.5,0.9-1
			C-12.4-0.8-12,0-11.7,0s0.7-0.8,0.8-1.2c0.2,0.5,0.5,1,0.9,1c0.3,0,0.7-0.2,0.8-0.5c-1.2-0.3-1.7-2-1.7-4.3c0-1,0.1-1.4,0.1-1.8
			c0.6,0.7,0.8,1.8,0.8,2.1C-9.7-5-9.6-5.2-9.5-5.4c0.4,0.5,1,1.3,1.1,1.6C-8.9-3.9-9.4-4-9.6-4c-0.4,0-0.5,0.2-0.5,0.5
			c0,0.3,0.3,0.6,0.6,0.8c0.2-0.4,1-0.4,1-0.4c0.2,0,0.2,0,0.5,0c0,0.1,0,0.3,0,0.4c0,0.2,0,0.3,0,0.5c0,0.5,0,0.8-0.4,1.2
			c0.1,0,0.3,0.2,0.6,0.2c0.6,0,0.7-0.4,0.7-1.4c0-0.1,0-0.1,0-0.2c0.3,0.3,0.6,0.8,0.6,1.2c0,0.1,0,0.2,0,0.3
			c0.5,0,0.8-0.5,0.8-0.8c0-0.5-0.7-1.1-1-1.4c0,0,0.1,0,0.1,0c0.8,0,1,0.3,1.1,0.5c0.2-0.2,0.4-0.5,0.4-0.9c0-0.2,0-0.5-0.5-0.5
			c-0.4,0-1.1,0.1-1.5,0.1c-0.3-0.5-1-1.4-1.3-2.1c0.1,0,0.3,0,0.6,0c0.1,0,0.3,0,0.4-0.1c-1.4-1.2-2.5-2.7-2.5-4.4
			c0-0.3,0.1-0.6,0.2-0.8c0,0,0.1,0,0.1,0l3.4,5.5c1,1.6,1.8,1.6,3,1.6C-4.4-5-5-6-5.3-6.5l-3.2-5.1c0.2-0.1,0.3-0.1,0.5-0.2
			l2.8,4.5c1,1.6,1.8,1.6,3,1.6c-1-0.8-1.7-1.7-2-2.2l-2.8-4.4c0.2-0.1,0.3-0.2,0.5-0.3L-4.2-9c1,1.6,1.8,1.6,3,1.6
			c-1-0.8-1.7-1.7-2-2.2l-2.3-3.7c0.1-0.1,0.3-0.2,0.4-0.4l1.6,2.6c1,1.6,1.8,1.6,3,1.6c-1-0.8-1.7-1.7-2-2.3l-1.9-3.1
			c0.1-0.2,0.2-0.4,0.3-0.6C-4-15.4-3-13.8-3-13.8z"/>
	</g>
	<g transform="translate(29.427, 1)">
		<path d="M-23.4-21.8h3.5v20h-3.5V-21.8z"/>
		<path class="st0" d="M-23.4-1.8h3.5v20h-3.5V-1.8z"/>
		<path class="st1" d="M-23.4,18.2h3.5v20h-3.5V18.2z"/>
	</g>
	<g transform="translate(39.927, 8.988)">
		<g transform="translate(0, 0)">
			<path d="M-18.1-28c0-1.3-0.8-2.1-2.7-2.1h-1.6v8.3h1.7c2,0,2.9-0.9,2.9-2.2c0-1.1-0.7-1.8-1.6-2v0C-18.7-26.2-18.1-26.8-18.1-28z
				 M-19.1-27.9c0,0.9-0.6,1.5-1.7,1.5h-0.5v-2.9h0.6C-19.6-29.2-19.1-28.7-19.1-27.9z M-19-24.1c0,0.9-0.5,1.5-1.8,1.5h-0.6v-2.9
				h0.7C-19.6-25.6-19-25-19-24.1z"/>
			<path d="M-13.4-22.4L-13.4-22.4l0,0.6h0.9v-5.8h-1v4.4c-0.2,0.2-0.6,0.6-1.2,0.6c-0.6,0-1-0.4-1-1.3v-3.7h-1v3.8
				c0,1.6,0.6,2.1,1.7,2.1C-14.1-21.6-13.6-22.2-13.4-22.4z"/>
			<path d="M-8.9-26.9c0.7,0,1,0.4,1,1.4v3.7h1v-3.8c0-1.6-0.6-2.1-1.7-2.1c-0.9,0-1.4,0.6-1.5,0.8h0v-0.6H-11v5.8h1v-4.4
				C-9.9-26.5-9.5-26.9-8.9-26.9z"/>
			<path d="M-3.5-22.5c-0.7,0-1.3-0.5-1.3-2.1c0-1.6,0.7-2.2,1.6-2.2c0.3,0,0.6,0.1,0.7,0.2v3.6C-2.5-22.9-2.8-22.5-3.5-22.5z
				 M-2.3-22.4L-2.3-22.4l0,0.6h0.9v-8.6l-1,0.1v2.8c-0.2-0.1-0.4-0.1-0.8-0.1c-1.2,0-2.5,0.7-2.5,3.1c0,2.1,0.9,2.9,2,2.9
				C-2.8-21.6-2.4-22.2-2.3-22.4z"/>
			<path d="M2-26.9c0.6,0,0.9,0.5,0.9,1.3c0,0.2,0,0.3,0,0.4H0.8C0.8-26.3,1.3-26.9,2-26.9z M3.9-22.3L3.5-23
				c-0.1,0.1-0.5,0.5-1.2,0.5c-1,0-1.5-0.6-1.6-2h2.9c0-0.3,0.1-0.6,0.1-1.1c0-1.4-0.7-2.1-1.8-2.1c-1.2,0-2.2,0.9-2.2,3
				c0,2.2,0.9,3.1,2.4,3.1C3.3-21.6,3.7-22.2,3.9-22.3z"/>
			<path d="M8-27.1c-0.2-0.2-0.6-0.6-1.5-0.6c-0.9,0-1.7,0.6-1.7,1.5c0,0.8,0.4,1.3,1.2,1.7l0.4,0.2c0.6,0.3,0.8,0.5,0.8,1.1
				c0,0.4-0.3,0.7-0.9,0.7c-0.6,0-1-0.4-1.2-0.6l-0.5,0.8c0.2,0.2,0.7,0.7,1.6,0.7c1.2,0,1.8-0.7,1.8-1.6c0-0.9-0.5-1.3-1.3-1.8
				l-0.4-0.2c-0.5-0.3-0.8-0.6-0.8-1c0-0.3,0.3-0.6,0.8-0.6c0.5,0,0.9,0.3,1,0.5L8-27.1z"/>
			<path d="M11.4-26.8c0.6,0,0.9,0.4,0.9,1.3v3.7h1v-3.9c0-0.2,0-0.4,0-0.6c0.2-0.3,0.6-0.6,1.1-0.6c0.6,0,1,0.4,1,1.3v3.7h1v-3.9
				c0-1.4-0.6-2-1.8-2c-0.7,0-1.3,0.4-1.5,0.8c-0.3-0.5-0.7-0.8-1.4-0.8c-0.8,0-1.3,0.5-1.4,0.8h0v-0.6H9.3v5.8h1v-4.4
				C10.4-26.4,10.8-26.8,11.4-26.8z"/>
			<path d="M18.2-28.9c0.4,0,0.6-0.3,0.6-0.7c0-0.4-0.3-0.7-0.6-0.7c-0.4,0-0.7,0.3-0.7,0.7C17.6-29.2,17.8-28.9,18.2-28.9z
				 M18.7-27.5h-1v5.8h1V-27.5z"/>
			<path d="M22.4-26.9c0.7,0,1,0.4,1,1.4v3.7h1v-3.8c0-1.6-0.6-2.1-1.7-2.1c-0.9,0-1.4,0.6-1.5,0.8h0v-0.6h-0.9v5.8h1v-4.4
				C21.4-26.5,21.8-26.9,22.4-26.9z"/>
			<path d="M26.3-28.9c0.4,0,0.6-0.3,0.6-0.7c0-0.4-0.3-0.7-0.6-0.7c-0.4,0-0.7,0.3-0.7,0.7C25.6-29.2,25.9-28.9,26.3-28.9z
				 M26.7-27.5h-1v5.8h1V-27.5z"/>
			<path d="M31.1-27.1c-0.2-0.2-0.6-0.6-1.5-0.6c-0.9,0-1.7,0.6-1.7,1.5c0,0.8,0.4,1.3,1.2,1.7l0.4,0.2c0.6,0.3,0.8,0.5,0.8,1.1
				c0,0.4-0.3,0.7-0.9,0.7c-0.6,0-1-0.4-1.2-0.6l-0.5,0.8c0.2,0.2,0.7,0.7,1.6,0.7c1.2,0,1.8-0.7,1.8-1.6c0-0.9-0.5-1.3-1.3-1.8
				l-0.4-0.2c-0.5-0.3-0.8-0.6-0.8-1c0-0.3,0.3-0.6,0.8-0.6c0.5,0,0.9,0.3,1,0.5L31.1-27.1z"/>
			<path d="M35-21.9l-0.1-0.8c-0.1,0.1-0.3,0.2-0.6,0.2c-0.5,0-0.7-0.2-0.7-1.1v-3.2h1.3l0.1-0.8h-1.4v-1.6h-0.9l-0.1,1.6L32-27.4
				v0.6h0.7v3.3c0,1.3,0.5,1.8,1.5,1.8C34.7-21.6,35-21.8,35-21.9z"/>
			<path d="M37.8-26.9c0.6,0,0.9,0.5,0.9,1.3c0,0.2,0,0.3,0,0.4h-2.1C36.7-26.3,37.1-26.9,37.8-26.9z M39.7-22.3L39.4-23
				c-0.1,0.1-0.5,0.5-1.2,0.5c-1,0-1.5-0.6-1.6-2h2.9c0-0.3,0.1-0.6,0.1-1.1c0-1.4-0.7-2.1-1.8-2.1c-1.2,0-2.2,0.9-2.2,3
				c0,2.2,0.9,3.1,2.4,3.1C39.1-21.6,39.6-22.2,39.7-22.3z"/>
			<path d="M43.6-27.6c-0.1,0-0.3-0.1-0.5-0.1c-0.7,0-1,0.4-1.2,0.9h0v-0.8h-0.9v5.8h1V-26c0.1-0.4,0.5-0.8,1.1-0.8
				c0.3,0,0.4,0.1,0.5,0.1L43.6-27.6z"/>
			<path d="M44.9-28.9c0.4,0,0.6-0.3,0.6-0.7c0-0.4-0.3-0.7-0.6-0.7c-0.4,0-0.7,0.3-0.7,0.7C44.2-29.2,44.5-28.9,44.9-28.9z
				 M45.4-27.5h-1v5.8h1V-27.5z"/>
			<path d="M50-22.4L50-22.4l0,0.6h0.9v-5.8h-1v4.4c-0.2,0.2-0.6,0.6-1.2,0.6c-0.6,0-1-0.4-1-1.3v-3.7h-1v3.8c0,1.6,0.6,2.1,1.7,2.1
				C49.4-21.6,49.9-22.2,50-22.4z"/>
			<path d="M54.5-26.8c0.6,0,0.9,0.4,0.9,1.3v3.7h1v-3.9c0-0.2,0-0.4,0-0.6c0.2-0.3,0.6-0.6,1.1-0.6c0.6,0,1,0.4,1,1.3v3.7h1v-3.9
				c0-1.4-0.6-2-1.8-2c-0.7,0-1.3,0.4-1.5,0.8c-0.3-0.5-0.7-0.8-1.4-0.8c-0.8,0-1.3,0.5-1.4,0.8h0v-0.6h-0.9v5.8h1v-4.4
				C53.5-26.4,53.9-26.8,54.5-26.8z"/>
		</g>
		<g transform="translate(0, 12)">
			<path d="M-20.6-22.5c-0.7,0-1.3-0.5-1.3-2.1c0-1.6,0.7-2.2,1.6-2.2c0.3,0,0.6,0.1,0.7,0.2v3.6C-19.6-22.9-20-22.5-20.6-22.5z
				 M-19.5-22.4L-19.5-22.4l0,0.6h0.9v-8.6l-1,0.1v2.8c-0.2-0.1-0.4-0.1-0.8-0.1c-1.2,0-2.5,0.7-2.5,3.1c0,2.1,0.9,2.9,2,2.9
				C-19.9-21.6-19.6-22.2-19.5-22.4z"/>
			<path d="M-15.2-26.9c0.6,0,0.9,0.5,0.9,1.3c0,0.2,0,0.3,0,0.4h-2.1C-16.3-26.3-15.9-26.9-15.2-26.9z M-13.2-22.3l-0.4-0.7
				c-0.1,0.1-0.5,0.5-1.2,0.5c-1,0-1.5-0.6-1.6-2h2.9c0-0.3,0.1-0.6,0.1-1.1c0-1.4-0.7-2.1-1.8-2.1c-1.2,0-2.2,0.9-2.2,3
				c0,2.2,0.9,3.1,2.4,3.1C-13.9-21.6-13.4-22.2-13.2-22.3z"/>
			<path d="M-9.2-27.1c-0.2-0.2-0.6-0.6-1.5-0.6c-0.9,0-1.7,0.6-1.7,1.5c0,0.8,0.4,1.3,1.2,1.7l0.4,0.2c0.6,0.3,0.8,0.5,0.8,1.1
				c0,0.4-0.3,0.7-0.9,0.7c-0.6,0-1-0.4-1.2-0.6l-0.5,0.8c0.2,0.2,0.7,0.7,1.6,0.7c1.2,0,1.8-0.7,1.8-1.6c0-0.9-0.5-1.3-1.3-1.8
				l-0.4-0.2c-0.5-0.3-0.8-0.6-0.8-1c0-0.3,0.3-0.6,0.8-0.6c0.5,0,0.9,0.3,1,0.5L-9.2-27.1z"/>
			<path d="M-4.7-22.5h-0.9v0.8h2.8v-0.8h-0.9v-6.8h0.9v-0.7h-2.8v0.7h0.9V-22.5z"/>
			<path d="M0.5-26.9c0.7,0,1,0.4,1,1.4v3.7h1v-3.8c0-1.6-0.6-2.1-1.7-2.1c-0.9,0-1.4,0.6-1.5,0.8h0v-0.6h-0.9v5.8h1v-4.4
				C-0.4-26.5,0-26.9,0.5-26.9z"/>
			<path d="M6.1-26.9c0.7,0,1,0.4,1,1.4v3.7h1v-3.8c0-1.6-0.6-2.1-1.7-2.1c-0.9,0-1.4,0.6-1.5,0.8h0v-0.6H4v5.8h1v-4.4
				C5.1-26.5,5.5-26.9,6.1-26.9z"/>
			<path d="M11.4-26.9c0.6,0,0.9,0.5,0.9,1.3c0,0.2,0,0.3,0,0.4h-2.1C10.3-26.3,10.7-26.9,11.4-26.9z M13.4-22.3L13-23
				c-0.1,0.1-0.5,0.5-1.2,0.5c-1,0-1.5-0.6-1.6-2h2.9c0-0.3,0.1-0.6,0.1-1.1c0-1.4-0.7-2.1-1.8-2.1c-1.2,0-2.2,0.9-2.2,3
				c0,2.2,0.9,3.1,2.4,3.1C12.7-21.6,13.2-22.2,13.4-22.3z"/>
			<path d="M17.2-27.6c-0.1,0-0.3-0.1-0.5-0.1c-0.7,0-1,0.4-1.2,0.9h0v-0.8h-0.9v5.8h1V-26c0.1-0.4,0.5-0.8,1.1-0.8
				c0.3,0,0.4,0.1,0.5,0.1L17.2-27.6z"/>
			<path d="M20.2-26.9c0.7,0,1,0.4,1,1.4v3.7h1v-3.8c0-1.6-0.6-2.1-1.7-2.1c-0.9,0-1.4,0.6-1.5,0.8h0v-0.6H18v5.8h1v-4.4
				C19.2-26.5,19.6-26.9,20.2-26.9z"/>
		</g>
		<g transform="translate(0, 24)">
			<path d="M-19.5-22.4L-19.5-22.4l0,0.6h0.9v-5.8h-1v4.4c-0.2,0.2-0.6,0.6-1.2,0.6c-0.6,0-1-0.4-1-1.3v-3.7h-1v3.8
				c0,1.6,0.6,2.1,1.7,2.1C-20.1-21.6-19.6-22.2-19.5-22.4z"/>
			<path d="M-14.9-26.9c0.7,0,1,0.4,1,1.4v3.7h1v-3.8c0-1.6-0.6-2.1-1.7-2.1c-0.9,0-1.4,0.6-1.5,0.8h0v-0.6h-0.9v5.8h1v-4.4
				C-15.9-26.5-15.5-26.9-14.9-26.9z"/>
			<path d="M-9.5-22.5c-0.7,0-1.3-0.5-1.3-2.1c0-1.6,0.7-2.2,1.6-2.2c0.3,0,0.6,0.1,0.7,0.2v3.6C-8.6-22.9-8.9-22.5-9.5-22.5z
				 M-8.4-22.4L-8.4-22.4l0,0.6h0.9v-8.6l-1,0.1v2.8c-0.2-0.1-0.4-0.1-0.8-0.1c-1.2,0-2.5,0.7-2.5,3.1c0,2.1,0.9,2.9,2,2.9
				C-8.9-21.6-8.5-22.2-8.4-22.4z"/>
			<path d="M-1-26.8l0.1-0.8h-1.3v-1c0-0.8,0.3-1,0.7-1c0.3,0,0.4,0.1,0.5,0.2l0.2-0.8c-0.1-0.1-0.4-0.2-0.8-0.2
				c-0.9,0-1.6,0.5-1.6,1.8v1.2l-0.7,0.1v0.6h0.7v5h1v-5H-1z"/>
			<path d="M3.5-29.2c0-0.4-0.3-0.6-0.6-0.6s-0.6,0.2-0.6,0.6s0.3,0.6,0.6,0.6S3.5-28.8,3.5-29.2z M1.6-29.2c0-0.4-0.3-0.6-0.6-0.6
				s-0.6,0.2-0.6,0.6s0.3,0.6,0.6,0.6S1.6-28.8,1.6-29.2z M3.1-22.4L3.1-22.4l0,0.6H4v-5.8H3v4.4c-0.2,0.2-0.6,0.6-1.2,0.6
				c-0.6,0-1-0.4-1-1.3v-3.7h-1v3.8c0,1.6,0.6,2.1,1.7,2.1C2.5-21.6,3-22.2,3.1-22.4z"/>
			<path d="M8.1-27.6c-0.1,0-0.3-0.1-0.5-0.1c-0.7,0-1,0.4-1.2,0.9h0v-0.8H5.5v5.8h1V-26c0.1-0.4,0.5-0.8,1.1-0.8
				c0.3,0,0.4,0.1,0.5,0.1L8.1-27.6z"/>
			<path d="M17-30.1h-1v3.7h-3.4v-3.7h-1v8.3h1v-3.8h3.4v3.8h1V-30.1z"/>
			<path d="M20.5-26.9c0.6,0,0.9,0.5,0.9,1.3c0,0.2,0,0.3,0,0.4h-2.1C19.3-26.3,19.8-26.9,20.5-26.9z M22.4-22.3L22.1-23
				c-0.1,0.1-0.5,0.5-1.2,0.5c-1,0-1.5-0.6-1.6-2h2.9c0-0.3,0.1-0.6,0.1-1.1c0-1.4-0.7-2.1-1.8-2.1c-1.2,0-2.2,0.9-2.2,3
				c0,2.2,0.9,3.1,2.4,3.1C21.8-21.6,22.3-22.2,22.4-22.3z"/>
			<path d="M24.1-28.9c0.4,0,0.6-0.3,0.6-0.7c0-0.4-0.3-0.7-0.6-0.7c-0.4,0-0.7,0.3-0.7,0.7C23.4-29.2,23.7-28.9,24.1-28.9z
				 M24.6-27.5h-1v5.8h1V-27.5z"/>
			<path d="M28.2-26.8c0.6,0,0.9,0.4,0.9,1.3v3.7h1v-3.9c0-0.2,0-0.4,0-0.6c0.2-0.3,0.6-0.6,1.1-0.6c0.6,0,1,0.4,1,1.3v3.7h1v-3.9
				c0-1.4-0.6-2-1.8-2c-0.7,0-1.3,0.4-1.5,0.8c-0.3-0.5-0.7-0.8-1.4-0.8c-0.8,0-1.3,0.5-1.4,0.8h0v-0.6H26v5.8h1v-4.4
				C27.2-26.4,27.6-26.8,28.2-26.8z"/>
			<path d="M36.9-25h-0.3c-1.3,0-2.4,0.4-2.4,1.8c0,0.9,0.7,1.6,1.5,1.6c0.7,0,1.1-0.5,1.2-0.8h0c0,0.3,0,0.5,0,0.6h0.9
				c0-0.2-0.1-0.7-0.1-1.2v-2.6c0-1.5-0.6-2.1-1.8-2.1c-0.9,0-1.5,0.4-1.7,0.7l0.4,0.6c0.2-0.2,0.6-0.5,1.2-0.5c0.6,0,1,0.3,1,1.3
				V-25z M36.9-24.3v1.3c-0.1,0.2-0.4,0.6-1,0.6c-0.5,0-0.8-0.3-0.8-0.9c0-0.6,0.5-0.9,1.4-0.9L36.9-24.3z"/>
			<path d="M41.9-21.9l-0.1-0.8c-0.1,0.1-0.3,0.2-0.6,0.2c-0.5,0-0.7-0.2-0.7-1.1v-3.2h1.3l0.1-0.8h-1.4v-1.6h-0.9l-0.1,1.6
				l-0.7,0.1v0.6h0.7v3.3c0,1.3,0.5,1.8,1.5,1.8C41.5-21.6,41.8-21.8,41.9-21.9z"/>
		</g>
	</g>
	<g transform="translate(136.1988, 8.988)">
		<g transform="translate(0, 0)">
			<path d="M-18.1-28c0-1.3-0.8-2.1-2.7-2.1h-1.6v8.3h1.7c2,0,2.9-0.9,2.9-2.2c0-1.1-0.7-1.8-1.6-2v0C-18.7-26.2-18.1-26.8-18.1-28z
				 M-19.1-27.9c0,0.9-0.6,1.5-1.7,1.5h-0.5v-2.9h0.6C-19.6-29.2-19.1-28.7-19.1-27.9z M-19-24.1c0,0.9-0.5,1.5-1.8,1.5h-0.6v-2.9
				h0.7C-19.6-25.6-19-25-19-24.1z"/>
			<path d="M-13.4-22.4L-13.4-22.4l0,0.6h0.9v-5.8h-1v4.4c-0.2,0.2-0.6,0.6-1.2,0.6c-0.6,0-1-0.4-1-1.3v-3.7h-1v3.8
				c0,1.6,0.6,2.1,1.7,2.1C-14.1-21.6-13.6-22.2-13.4-22.4z"/>
			<path d="M-8.9-26.9c0.7,0,1,0.4,1,1.4v3.7h1v-3.8c0-1.6-0.6-2.1-1.7-2.1c-0.9,0-1.4,0.6-1.5,0.8h0v-0.6H-11v5.8h1v-4.4
				C-9.9-26.5-9.5-26.9-8.9-26.9z"/>
			<path d="M-3.5-22.5c-0.7,0-1.3-0.5-1.3-2.1c0-1.6,0.7-2.2,1.6-2.2c0.3,0,0.6,0.1,0.7,0.2v3.6C-2.5-22.9-2.8-22.5-3.5-22.5z
				 M-2.3-22.4L-2.3-22.4l0,0.6h0.9v-8.6l-1,0.1v2.8c-0.2-0.1-0.4-0.1-0.8-0.1c-1.2,0-2.5,0.7-2.5,3.1c0,2.1,0.9,2.9,2,2.9
				C-2.8-21.6-2.4-22.2-2.3-22.4z"/>
			<path d="M2-26.9c0.6,0,0.9,0.5,0.9,1.3c0,0.2,0,0.3,0,0.4H0.8C0.8-26.3,1.3-26.9,2-26.9z M3.9-22.3L3.5-23
				c-0.1,0.1-0.5,0.5-1.2,0.5c-1,0-1.5-0.6-1.6-2h2.9c0-0.3,0.1-0.6,0.1-1.1c0-1.4-0.7-2.1-1.8-2.1c-1.2,0-2.2,0.9-2.2,3
				c0,2.2,0.9,3.1,2.4,3.1C3.3-21.6,3.7-22.2,3.9-22.3z"/>
			<path d="M8-27.1c-0.2-0.2-0.6-0.6-1.5-0.6c-0.9,0-1.7,0.6-1.7,1.5c0,0.8,0.4,1.3,1.2,1.7l0.4,0.2c0.6,0.3,0.8,0.5,0.8,1.1
				c0,0.4-0.3,0.7-0.9,0.7c-0.6,0-1-0.4-1.2-0.6l-0.5,0.8c0.2,0.2,0.7,0.7,1.6,0.7c1.2,0,1.8-0.7,1.8-1.6c0-0.9-0.5-1.3-1.3-1.8
				l-0.4-0.2c-0.5-0.3-0.8-0.6-0.8-1c0-0.3,0.3-0.6,0.8-0.6c0.5,0,0.9,0.3,1,0.5L8-27.1z"/>
			<path d="M11.6-25h-0.3c-1.3,0-2.4,0.4-2.4,1.8c0,0.9,0.7,1.6,1.5,1.6c0.7,0,1.1-0.5,1.2-0.8h0c0,0.3,0,0.5,0,0.6h0.9
				c0-0.2-0.1-0.7-0.1-1.2v-2.6c0-1.5-0.6-2.1-1.8-2.1c-0.9,0-1.5,0.4-1.7,0.7l0.4,0.6c0.2-0.2,0.6-0.5,1.2-0.5c0.6,0,1,0.3,1,1.3
				V-25z M11.6-24.3v1.3c-0.1,0.2-0.4,0.6-1,0.6c-0.5,0-0.8-0.3-0.8-0.9c0-0.6,0.5-0.9,1.4-0.9L11.6-24.3z"/>
			<path d="M16.2-26.8c0.6,0,0.9,0.4,0.9,1.3v3.7h1v-3.9c0-0.2,0-0.4,0-0.6c0.2-0.3,0.6-0.6,1.1-0.6c0.6,0,1,0.4,1,1.3v3.7h1v-3.9
				c0-1.4-0.6-2-1.8-2c-0.7,0-1.3,0.4-1.5,0.8c-0.3-0.5-0.7-0.8-1.4-0.8c-0.8,0-1.3,0.5-1.4,0.8h0v-0.6h-0.9v5.8h1v-4.4
				C15.2-26.4,15.6-26.8,16.2-26.8z"/>
			<path d="M25.1-21.9L25-22.7c-0.1,0.1-0.3,0.2-0.6,0.2c-0.5,0-0.7-0.2-0.7-1.1v-3.2H25l0.1-0.8h-1.4v-1.6h-0.9l-0.1,1.6l-0.7,0.1
				v0.6h0.7v3.3c0,1.3,0.5,1.8,1.5,1.8C24.8-21.6,25.1-21.8,25.1-21.9z"/>
		</g>
		<g transform="translate(0, 12)">
			<path d="M-20.2-26.8l0.1-0.8h-1.3v-1c0-0.8,0.3-1,0.7-1c0.3,0,0.4,0.1,0.5,0.2l0.2-0.8c-0.1-0.1-0.4-0.2-0.8-0.2
				c-0.9,0-1.6,0.5-1.6,1.8v1.2l-0.7,0.1v0.6h0.7v5h1v-5H-20.2z"/>
			<path d="M-15.7-29.2c0-0.4-0.3-0.6-0.6-0.6c-0.3,0-0.6,0.2-0.6,0.6s0.3,0.6,0.6,0.6C-16-28.6-15.7-28.8-15.7-29.2z M-17.6-29.2
				c0-0.4-0.3-0.6-0.6-0.6c-0.3,0-0.6,0.2-0.6,0.6s0.3,0.6,0.6,0.6C-17.8-28.6-17.6-28.8-17.6-29.2z M-16.1-22.4L-16.1-22.4l0,0.6
				h0.9v-5.8h-1v4.4c-0.2,0.2-0.6,0.6-1.2,0.6c-0.6,0-1-0.4-1-1.3v-3.7h-1v3.8c0,1.6,0.6,2.1,1.7,2.1
				C-16.7-21.6-16.2-22.2-16.1-22.4z"/>
			<path d="M-11.1-27.6c-0.1,0-0.3-0.1-0.5-0.1c-0.7,0-1,0.4-1.2,0.9h0v-0.8h-0.9v5.8h1V-26c0.1-0.4,0.5-0.8,1.1-0.8
				c0.3,0,0.4,0.1,0.5,0.1L-11.1-27.6z"/>
			<path d="M-4.2-29.6c-0.2-0.1-0.7-0.6-1.8-0.6c-1.3,0-2.1,0.8-2.1,1.9c0,1.1,0.5,1.7,1.4,2.5l0.7,0.6c0.7,0.6,1,1,1,1.7
				c0,0.6-0.5,1-1.3,1c-0.9,0-1.4-0.5-1.6-0.7l-0.4,0.9c0.2,0.2,0.9,0.7,2.1,0.7c1.5,0,2.3-0.9,2.3-2.1c0-1.1-0.6-1.7-1.4-2.4
				L-6-26.7c-0.8-0.6-1.1-1-1.1-1.7c0-0.5,0.4-1,1.1-1c0.8,0,1.2,0.4,1.4,0.5L-4.2-29.6z"/>
			<path d="M-2.3-28.9c0.4,0,0.6-0.3,0.6-0.7c0-0.4-0.3-0.7-0.6-0.7c-0.4,0-0.7,0.3-0.7,0.7C-2.9-29.2-2.7-28.9-2.3-28.9z
				 M-1.8-27.5h-1v5.8h1V-27.5z"/>
			<path d="M3.3-27.1c-0.2-0.2-0.6-0.6-1.5-0.6c-1.1,0-2.4,0.8-2.4,3c0,2.3,1,3,2.3,3c0.9,0,1.3-0.4,1.5-0.6l-0.4-0.7
				c-0.1,0.1-0.4,0.4-1,0.4c-0.8,0-1.4-0.6-1.4-2.2c0-1.5,0.6-2.1,1.5-2.1c0.6,0,0.9,0.3,1,0.4L3.3-27.1z"/>
			<path d="M6.5-26.9c0.7,0,1,0.4,1,1.4v3.7h1v-3.8c0-1.5-0.6-2.1-1.6-2.1c-0.9,0-1.4,0.6-1.5,0.7h0v-3.4l-1,0.1v8.5h1v-4.4
				C5.5-26.5,5.9-26.9,6.5-26.9z"/>
			<path d="M11.8-26.9c0.6,0,0.9,0.5,0.9,1.3c0,0.2,0,0.3,0,0.4h-2.1C10.7-26.3,11.1-26.9,11.8-26.9z M13.7-22.3L13.4-23
				c-0.1,0.1-0.5,0.5-1.2,0.5c-1,0-1.5-0.6-1.6-2h2.9c0-0.3,0.1-0.6,0.1-1.1c0-1.4-0.7-2.1-1.8-2.1c-1.2,0-2.2,0.9-2.2,3
				c0,2.2,0.9,3.1,2.4,3.1C13.1-21.6,13.6-22.2,13.7-22.3z"/>
			<path d="M17.6-27.6c-0.1,0-0.3-0.1-0.5-0.1c-0.7,0-1,0.4-1.2,0.9h0v-0.8h-0.9v5.8h1V-26c0.1-0.4,0.5-0.8,1.1-0.8
				c0.3,0,0.4,0.1,0.5,0.1L17.6-27.6z"/>
			<path d="M20.5-26.9c0.7,0,1,0.4,1,1.4v3.7h1v-3.8c0-1.5-0.6-2.1-1.6-2.1c-0.9,0-1.4,0.6-1.5,0.7h0v-3.4l-1,0.1v8.5h1v-4.4
				C19.6-26.5,20-26.9,20.5-26.9z"/>
			<path d="M25.8-26.9c0.6,0,0.9,0.5,0.9,1.3c0,0.2,0,0.3,0,0.4h-2.1C24.7-26.3,25.1-26.9,25.8-26.9z M27.8-22.3L27.4-23
				c-0.1,0.1-0.5,0.5-1.2,0.5c-1,0-1.5-0.6-1.6-2h2.9c0-0.3,0.1-0.6,0.1-1.1c0-1.4-0.7-2.1-1.8-2.1c-1.2,0-2.2,0.9-2.2,3
				c0,2.2,0.9,3.1,2.4,3.1C27.2-21.6,27.6-22.2,27.8-22.3z"/>
			<path d="M29.4-28.9c0.4,0,0.6-0.3,0.6-0.7c0-0.4-0.3-0.7-0.6-0.7c-0.4,0-0.7,0.3-0.7,0.7C28.8-29.2,29-28.9,29.4-28.9z
				 M29.9-27.5h-1v5.8h1V-27.5z"/>
			<path d="M34-21.9l-0.1-0.8c-0.1,0.1-0.3,0.2-0.6,0.2c-0.5,0-0.7-0.2-0.7-1.1v-3.2h1.3l0.1-0.8h-1.4v-1.6h-0.9l-0.1,1.6l-0.7,0.1
				v0.6h0.7v3.3c0,1.3,0.5,1.8,1.5,1.8C33.6-21.6,33.9-21.8,34-21.9z"/>
			<path d="M38-28.9c0.4,0,0.6-0.3,0.6-0.7c0-0.4-0.3-0.7-0.6-0.7c-0.4,0-0.7,0.3-0.7,0.7C37.4-29.2,37.6-28.9,38-28.9z M38.5-27.5
				h-1v5.8h1V-27.5z"/>
			<path d="M42.1-26.9c0.7,0,1,0.4,1,1.4v3.7h1v-3.8c0-1.6-0.6-2.1-1.7-2.1c-0.9,0-1.4,0.6-1.5,0.8h0v-0.6H40v5.8h1v-4.4
				C41.1-26.5,41.5-26.9,42.1-26.9z"/>
			<path d="M50.1-22.5c-0.7,0-1.3-0.5-1.3-2.1c0-1.6,0.7-2.2,1.6-2.2c0.3,0,0.6,0.1,0.7,0.2v3.6C51.1-22.9,50.7-22.5,50.1-22.5z
				 M51.2-22.4L51.2-22.4l0,0.6h0.9v-8.6l-1,0.1v2.8c-0.2-0.1-0.4-0.1-0.8-0.1c-1.2,0-2.5,0.7-2.5,3.1c0,2.1,0.9,2.9,2,2.9
				C50.8-21.6,51.1-22.2,51.2-22.4z"/>
			<path d="M55.5-26.9c0.6,0,0.9,0.5,0.9,1.3c0,0.2,0,0.3,0,0.4h-2.1C54.4-26.3,54.8-26.9,55.5-26.9z M57.5-22.3L57.1-23
				c-0.1,0.1-0.5,0.5-1.2,0.5c-1,0-1.5-0.6-1.6-2h2.9c0-0.3,0.1-0.6,0.1-1.1c0-1.4-0.7-2.1-1.8-2.1c-1.2,0-2.2,0.9-2.2,3
				c0,2.2,0.9,3.1,2.4,3.1C56.8-21.6,57.3-22.2,57.5-22.3z"/>
			<path d="M61.3-27.6c-0.1,0-0.3-0.1-0.5-0.1c-0.7,0-1,0.4-1.2,0.9h0v-0.8h-0.9v5.8h1V-26c0.1-0.4,0.5-0.8,1.1-0.8
				c0.3,0,0.4,0.1,0.5,0.1L61.3-27.6z"/>
		</g>
		<g transform="translate(0, 24)">
			<path d="M-22-22.5h-0.9v0.8h2.8v-0.8h-0.9v-6.8h0.9v-0.7h-2.8v0.7h0.9V-22.5z"/>
			<path d="M-16.7-26.9c0.7,0,1,0.4,1,1.4v3.7h1v-3.8c0-1.6-0.6-2.1-1.7-2.1c-0.9,0-1.4,0.6-1.5,0.8h0v-0.6h-0.9v5.8h1v-4.4
				C-17.7-26.5-17.3-26.9-16.7-26.9z"/>
			<path d="M-10.9-26.8l0.1-0.8h-1.3v-1c0-0.8,0.3-1,0.7-1c0.3,0,0.4,0.1,0.5,0.2l0.2-0.8c-0.1-0.1-0.4-0.2-0.8-0.2
				c-0.9,0-1.6,0.5-1.6,1.8v1.2l-0.7,0.1v0.6h0.7v5h1v-5H-10.9z"/>
			<path d="M-10.3-24.7c0,2.2,1,3,2.2,3c1.3,0,2.3-0.9,2.3-3c0-2.1-1-3-2.2-3C-9.2-27.7-10.3-26.8-10.3-24.7z M-6.8-24.7
				c0,1.5-0.5,2.2-1.3,2.2s-1.3-0.6-1.3-2.2s0.5-2.2,1.3-2.2C-7.3-26.9-6.8-26.2-6.8-24.7z"/>
			<path d="M-1.9-27.6c-0.1,0-0.3-0.1-0.5-0.1c-0.7,0-1,0.4-1.2,0.9h0v-0.8h-0.9v5.8h1V-26c0.1-0.4,0.5-0.8,1.1-0.8
				c0.3,0,0.4,0.1,0.5,0.1L-1.9-27.6z"/>
			<path d="M1.1-26.8c0.6,0,0.9,0.4,0.9,1.3v3.7h1v-3.9c0-0.2,0-0.4,0-0.6c0.2-0.3,0.6-0.6,1.1-0.6c0.6,0,1,0.4,1,1.3v3.7h1v-3.9
				c0-1.4-0.6-2-1.8-2c-0.7,0-1.3,0.4-1.5,0.8c-0.3-0.5-0.7-0.8-1.4-0.8c-0.8,0-1.3,0.5-1.4,0.8h0v-0.6H-1v5.8h1v-4.4
				C0.1-26.4,0.5-26.8,1.1-26.8z"/>
			<path d="M9.8-25H9.5c-1.3,0-2.4,0.4-2.4,1.8c0,0.9,0.7,1.6,1.5,1.6c0.7,0,1.1-0.5,1.2-0.8h0c0,0.3,0,0.5,0,0.6h0.9
				c0-0.2-0.1-0.7-0.1-1.2v-2.6c0-1.5-0.6-2.1-1.8-2.1c-0.9,0-1.5,0.4-1.7,0.7l0.4,0.6c0.2-0.2,0.6-0.5,1.2-0.5c0.6,0,1,0.3,1,1.3
				V-25z M9.8-24.3v1.3c-0.1,0.2-0.4,0.6-1,0.6c-0.5,0-0.8-0.3-0.8-0.9c0-0.6,0.5-0.9,1.4-0.9L9.8-24.3z"/>
			<path d="M14.8-21.9l-0.1-0.8c-0.1,0.1-0.3,0.2-0.6,0.2c-0.5,0-0.7-0.2-0.7-1.1v-3.2h1.3l0.1-0.8h-1.4v-1.6h-0.9l-0.1,1.6
				l-0.7,0.1v0.6h0.7v3.3c0,1.3,0.5,1.8,1.5,1.8C14.4-21.6,14.7-21.8,14.8-21.9z"/>
			<path d="M16.3-28.9c0.4,0,0.6-0.3,0.6-0.7c0-0.4-0.3-0.7-0.6-0.7c-0.4,0-0.7,0.3-0.7,0.7C15.6-29.2,15.9-28.9,16.3-28.9z
				 M16.7-27.5h-1v5.8h1V-27.5z"/>
			<path d="M18-24.7c0,2.2,1,3,2.2,3c1.3,0,2.3-0.9,2.3-3c0-2.1-1-3-2.2-3C19-27.7,18-26.8,18-24.7z M21.5-24.7
				c0,1.5-0.5,2.2-1.3,2.2S19-23.1,19-24.7s0.5-2.2,1.3-2.2S21.5-26.2,21.5-24.7z"/>
			<path d="M25.9-26.9c0.7,0,1,0.4,1,1.4v3.7h1v-3.8c0-1.6-0.6-2.1-1.7-2.1c-0.9,0-1.4,0.6-1.5,0.8h0v-0.6h-0.9v5.8h1v-4.4
				C24.9-26.5,25.3-26.9,25.9-26.9z"/>
			<path d="M32.2-27.1c-0.2-0.2-0.6-0.6-1.5-0.6c-0.9,0-1.7,0.6-1.7,1.5c0,0.8,0.4,1.3,1.2,1.7l0.4,0.2c0.6,0.3,0.8,0.5,0.8,1.1
				c0,0.4-0.3,0.7-0.9,0.7c-0.6,0-1-0.4-1.2-0.6l-0.5,0.8c0.2,0.2,0.7,0.7,1.6,0.7c1.2,0,1.8-0.7,1.8-1.6c0-0.9-0.5-1.3-1.3-1.8
				l-0.4-0.2c-0.5-0.3-0.8-0.6-0.8-1c0-0.3,0.3-0.6,0.8-0.6c0.5,0,0.9,0.3,1,0.5L32.2-27.1z"/>
			<path d="M36.1-21.9L36-22.7c-0.1,0.1-0.3,0.2-0.6,0.2c-0.5,0-0.7-0.2-0.7-1.1v-3.2H36l0.1-0.8h-1.4v-1.6h-0.9l-0.1,1.6L33-27.4
				v0.6h0.7v3.3c0,1.3,0.5,1.8,1.5,1.8C35.7-21.6,36-21.8,36.1-21.9z"/>
			<path d="M38.9-26.9c0.6,0,0.9,0.5,0.9,1.3c0,0.2,0,0.3,0,0.4h-2.1C37.7-26.3,38.2-26.9,38.9-26.9z M40.8-22.3L40.4-23
				c-0.1,0.1-0.5,0.5-1.2,0.5c-1,0-1.5-0.6-1.6-2h2.9c0-0.3,0.1-0.6,0.1-1.1c0-1.4-0.7-2.1-1.8-2.1c-1.2,0-2.2,0.9-2.2,3
				c0,2.2,0.9,3.1,2.4,3.1C40.2-21.6,40.7-22.2,40.8-22.3z"/>
			<path d="M45.6-27.1c-0.2-0.2-0.6-0.6-1.5-0.6c-1.1,0-2.4,0.8-2.4,3c0,2.3,1,3,2.3,3c0.9,0,1.3-0.4,1.5-0.6l-0.4-0.7
				c-0.1,0.1-0.4,0.4-1,0.4c-0.8,0-1.4-0.6-1.4-2.2c0-1.5,0.6-2.1,1.5-2.1c0.6,0,0.9,0.3,1,0.4L45.6-27.1z"/>
			<path d="M48.8-26.9c0.7,0,1,0.4,1,1.4v3.7h1v-3.8c0-1.5-0.6-2.1-1.6-2.1c-0.9,0-1.4,0.6-1.5,0.7h0v-3.4l-1,0.1v8.5h1v-4.4
				C47.8-26.5,48.2-26.9,48.8-26.9z"/>
			<path d="M54.3-26.9c0.7,0,1,0.4,1,1.4v3.7h1v-3.8c0-1.6-0.6-2.1-1.7-2.1c-0.9,0-1.4,0.6-1.5,0.8h0v-0.6h-0.9v5.8h1v-4.4
				C53.3-26.5,53.7-26.9,54.3-26.9z"/>
			<path d="M58.2-28.9c0.4,0,0.6-0.3,0.6-0.7c0-0.4-0.3-0.7-0.6-0.7c-0.4,0-0.7,0.3-0.7,0.7C57.6-29.2,57.8-28.9,58.2-28.9z
				 M58.7-27.5h-1v5.8h1V-27.5z"/>
			<path d="M64.3-27.5h-1.2l-1.5,2.2h-0.4v-5.1l-1,0.1v8.5h1v-2.7h0.4l1.6,2.7h1.2l-2-3.1L64.3-27.5z"/>
		</g>
	</g>
</g>
</svg>
