<?xml version="1.0" encoding="utf-8"?>
<!-- Generator: Adobe Illustrator 27.1.1, SVG Export Plug-In . SVG Version: 6.00 Build 0)  -->
<svg version="1.1"
	 id="Ebene_1" xmlns:dc="http://purl.org/dc/elements/1.1/" xmlns:svg="http://www.w3.org/2000/svg" xmlns:sodipodi="http://sodipodi.sourceforge.net/DTD/sodipodi-0.dtd" xmlns:inkscape="http://www.inkscape.org/namespaces/inkscape" xmlns:cc="http://creativecommons.org/ns#" xmlns:rdf="http://www.w3.org/1999/02/22-rdf-syntax-ns#" inkscape:version="1.0.1 (3bc2e813f5, 2020-09-07)" sodipodi:docname="logo-weiss.svg"
	 xmlns="http://www.w3.org/2000/svg" xmlns:xlink="http://www.w3.org/1999/xlink" x="0px" y="0px" viewBox="0 0 168 81"
	 style="enable-background:new 0 0 168 81;" xml:space="preserve">
<style type="text/css">
	.st0{fill:#FFFFFF;}
	.st1{fill:#1A1919;}
	.st2{fill:#FFCC00;}
	.st3{fill:#D8232A;}
</style>
<sodipodi:namedview  bordercolor="#666666" borderopacity="1" gridtolerance="10" guidetolerance="10" id="namedview15" inkscape:current-layer="Ebene_1" inkscape:cx="84" inkscape:cy="40.5" inkscape:pageopacity="0" inkscape:pageshadow="2" inkscape:window-height="1077" inkscape:window-maximized="0" inkscape:window-width="1695" inkscape:window-x="1107" inkscape:window-y="118" inkscape:zoom="6.0297619" objecttolerance="10" pagecolor="#ffffff" showgrid="false">
	</sodipodi:namedview>
<rect id="rect2" class="st0" width="168" height="81"/>
<g id="Symbols">
	<g id="Header_x2F_BSI-Top" transform="translate(-117.000000, -54.000000)">
		<g id="BSI_2017_DTP_CMYK_de" transform="translate(117.000000, 54.000000)">
			<path id="Fill-2" class="st1" d="M59.5,3.2c0,0.4,0,0.7-0.1,1C59.3,4.5,59.2,4.8,59,5c-0.2,0.2-0.4,0.4-0.6,0.5S58,5.7,57.8,5.8
				v0c0.3,0.1,0.5,0.2,0.8,0.3c0.2,0.1,0.5,0.3,0.6,0.6c0.2,0.2,0.3,0.5,0.4,0.8c0.1,0.3,0.2,0.6,0.2,1c0,0.4-0.1,0.8-0.2,1.2
				c-0.1,0.4-0.4,0.7-0.7,0.9c-0.3,0.3-0.7,0.5-1.2,0.6c-0.5,0.2-1,0.2-1.7,0.2h-2.2V0.4h2.1c0.6,0,1.2,0.1,1.6,0.2
				c0.5,0.1,0.8,0.3,1.1,0.6c0.3,0.2,0.5,0.5,0.6,0.9C59.5,2.4,59.5,2.8,59.5,3.2z M58.1,3.3c0-0.5-0.2-0.9-0.5-1.3
				c-0.4-0.3-0.9-0.5-1.7-0.5h-0.7v3.8h0.7c0.7,0,1.3-0.2,1.7-0.5C58,4.4,58.1,3.9,58.1,3.3z M58.4,8.4c0-0.6-0.2-1.1-0.6-1.4
				c-0.4-0.3-0.9-0.5-1.7-0.5h-0.9v3.9H56c0.8,0,1.4-0.2,1.8-0.5C58.2,9.5,58.4,9,58.4,8.4z M66.8,11.5h-1.2v-0.9h0
				c0,0.1-0.1,0.2-0.2,0.3c-0.1,0.1-0.2,0.2-0.4,0.4c-0.2,0.1-0.4,0.2-0.6,0.3c-0.2,0.1-0.5,0.1-0.8,0.1c-0.3,0-0.6-0.1-0.9-0.2
				c-0.3-0.1-0.5-0.3-0.7-0.5c-0.2-0.2-0.3-0.5-0.4-0.9c-0.1-0.4-0.2-0.8-0.2-1.3v-5h1.3v5c0,0.6,0.1,1.1,0.3,1.4
				c0.2,0.3,0.5,0.4,1,0.4c0.4,0,0.7-0.1,0.9-0.3c0.3-0.2,0.5-0.4,0.6-0.6V3.8h1.3C66.8,3.8,66.8,11.5,66.8,11.5z M72.9,11.5v-5
				c0-0.7-0.1-1.1-0.3-1.4c-0.2-0.3-0.5-0.4-1-0.4c-0.4,0-0.7,0.1-0.9,0.3s-0.5,0.4-0.6,0.6v5.9h-1.3V3.8h1.2v0.9h0
				c0-0.1,0.1-0.2,0.2-0.3c0.1-0.1,0.2-0.2,0.4-0.4c0.2-0.1,0.4-0.2,0.6-0.3c0.2-0.1,0.5-0.1,0.8-0.1c0.3,0,0.6,0.1,0.9,0.2
				c0.3,0.1,0.5,0.3,0.7,0.5c0.2,0.2,0.3,0.5,0.4,0.9s0.2,0.8,0.2,1.3v5L72.9,11.5L72.9,11.5z M75.8,7.7c0-0.8,0.1-1.4,0.3-2
				c0.2-0.5,0.5-0.9,0.8-1.3c0.3-0.3,0.7-0.5,1.1-0.7c0.4-0.1,0.8-0.2,1.2-0.2c0.2,0,0.5,0,0.6,0.1c0.2,0,0.3,0.1,0.4,0.1V0.1
				L81.5,0v11.5h-1.2v-0.8h0c0,0.1-0.1,0.2-0.2,0.3c-0.1,0.1-0.2,0.2-0.3,0.3c-0.1,0.1-0.3,0.2-0.6,0.3c-0.2,0.1-0.5,0.1-0.8,0.1
				c-0.4,0-0.7-0.1-1-0.2c-0.3-0.1-0.6-0.4-0.8-0.7c-0.2-0.3-0.4-0.7-0.6-1.2S75.8,8.4,75.8,7.7z M78.8,10.5c0.2,0,0.4,0,0.5-0.1
				c0.2-0.1,0.3-0.1,0.4-0.2c0.1-0.1,0.2-0.2,0.3-0.2c0.1-0.1,0.1-0.2,0.2-0.2V5c-0.1-0.1-0.2-0.1-0.4-0.2c-0.2-0.1-0.3-0.1-0.6-0.1
				c-0.3,0-0.6,0.1-0.8,0.2c-0.3,0.1-0.5,0.3-0.7,0.5c-0.2,0.2-0.3,0.5-0.4,0.9c-0.1,0.4-0.2,0.8-0.2,1.4c0,0.5,0,1,0.1,1.3
				s0.2,0.6,0.4,0.9c0.2,0.2,0.3,0.4,0.5,0.5C78.3,10.5,78.5,10.5,78.8,10.5z M88.3,6.4c0,0.3,0,0.6,0,0.9c0,0.2,0,0.5-0.1,0.6h-3.9
				c0,0.9,0.2,1.6,0.6,2c0.3,0.4,0.8,0.6,1.5,0.6c0.2,0,0.4,0,0.6-0.1c0.2-0.1,0.3-0.1,0.5-0.2c0.1-0.1,0.2-0.1,0.3-0.2
				c0.1-0.1,0.2-0.1,0.2-0.2l0.5,0.9c-0.1,0.1-0.1,0.1-0.2,0.2c-0.1,0.1-0.2,0.2-0.4,0.3c-0.2,0.1-0.4,0.2-0.7,0.3
				c-0.3,0.1-0.6,0.1-0.9,0.1c-0.5,0-0.9-0.1-1.3-0.2c-0.4-0.2-0.7-0.4-1-0.7c-0.3-0.3-0.5-0.8-0.6-1.3c-0.1-0.5-0.2-1.1-0.2-1.9
				c0-0.7,0.1-1.3,0.2-1.8c0.2-0.5,0.4-0.9,0.6-1.2c0.3-0.3,0.6-0.6,0.9-0.7c0.3-0.2,0.7-0.2,1.1-0.2c0.7,0,1.3,0.2,1.7,0.7
				C88.1,4.8,88.3,5.4,88.3,6.4z M85.9,4.6c-0.5,0-0.8,0.2-1.1,0.6c-0.3,0.4-0.4,0.9-0.5,1.7h2.8c0-0.1,0-0.1,0-0.2s0-0.2,0-0.3
				c0-0.5-0.1-0.9-0.3-1.2C86.6,4.8,86.3,4.6,85.9,4.6z M93.2,5.3c-0.1-0.1-0.2-0.2-0.5-0.4c-0.2-0.2-0.5-0.2-0.9-0.2
				c-0.3,0-0.6,0.1-0.8,0.2c-0.2,0.2-0.3,0.4-0.3,0.6c0,0.3,0.1,0.5,0.2,0.7c0.2,0.2,0.4,0.4,0.7,0.6l0.5,0.3c0.5,0.3,0.9,0.6,1.2,1
				C93.9,8.5,94,8.9,94,9.5c0,0.6-0.2,1.1-0.6,1.5c-0.4,0.4-1,0.6-1.8,0.6c-0.3,0-0.6,0-0.8-0.1c-0.2-0.1-0.4-0.1-0.6-0.2
				c-0.2-0.1-0.3-0.2-0.4-0.3c-0.1-0.1-0.2-0.2-0.3-0.3l0.6-1c0.1,0.1,0.1,0.1,0.2,0.2c0.1,0.1,0.2,0.2,0.3,0.2
				c0.1,0.1,0.3,0.1,0.4,0.2c0.2,0.1,0.3,0.1,0.6,0.1c0.4,0,0.7-0.1,0.9-0.3c0.2-0.2,0.3-0.4,0.3-0.6c0-0.2,0-0.3-0.1-0.5
				c0-0.1-0.1-0.3-0.2-0.4c-0.1-0.1-0.2-0.2-0.3-0.3c-0.1-0.1-0.3-0.2-0.5-0.3l-0.5-0.3c-0.5-0.3-0.8-0.6-1.1-1
				c-0.3-0.3-0.4-0.8-0.4-1.3c0-0.3,0.1-0.6,0.2-0.8c0.1-0.2,0.3-0.4,0.5-0.6C90.5,4,90.7,3.8,91,3.7c0.3-0.1,0.6-0.2,0.9-0.2
				c0.3,0,0.5,0,0.8,0.1c0.2,0.1,0.4,0.1,0.5,0.2c0.2,0.1,0.3,0.2,0.4,0.3c0.1,0.1,0.2,0.2,0.2,0.2L93.2,5.3z M95.1,9.5
				c0-0.4,0.1-0.8,0.3-1.1c0.2-0.3,0.4-0.5,0.7-0.7c0.3-0.2,0.6-0.3,1-0.4c0.4-0.1,0.8-0.1,1.2-0.1h0.4V6.4c0-0.7-0.1-1.1-0.3-1.3
				c-0.2-0.2-0.5-0.4-1-0.4c-0.4,0-0.7,0.1-0.9,0.2c-0.3,0.2-0.5,0.3-0.6,0.4l-0.5-0.9c0.1-0.1,0.2-0.2,0.3-0.3
				C95.7,4.1,95.9,4,96,3.9s0.4-0.2,0.6-0.2c0.2-0.1,0.5-0.1,0.8-0.1c0.8,0,1.4,0.2,1.8,0.7c0.4,0.4,0.6,1.1,0.6,2.1v3.5
				c0,0.3,0,0.7,0,1c0,0.3,0,0.5,0.1,0.6h-1.2l0-0.9h0c0,0.1-0.1,0.2-0.2,0.3s-0.2,0.2-0.3,0.3s-0.3,0.2-0.5,0.3
				c-0.2,0.1-0.4,0.1-0.6,0.1c-0.3,0-0.5-0.1-0.8-0.2c-0.2-0.1-0.5-0.3-0.6-0.4c-0.2-0.2-0.3-0.4-0.4-0.7S95.1,9.8,95.1,9.5z
				 M97.4,10.6c0.2,0,0.3,0,0.5-0.1c0.1-0.1,0.3-0.1,0.4-0.2c0.1-0.1,0.2-0.2,0.3-0.2c0.1-0.1,0.1-0.2,0.2-0.2V8.1l-0.4,0
				c-0.6,0-1.1,0.1-1.4,0.3c-0.3,0.2-0.5,0.5-0.5,0.9c0,0.4,0.1,0.7,0.3,0.9C96.8,10.5,97,10.6,97.4,10.6z M105.8,11.5v-5
				c0-0.6-0.1-1.1-0.3-1.4c-0.2-0.3-0.5-0.4-0.9-0.4c-0.2,0-0.4,0-0.6,0.1c-0.2,0.1-0.3,0.1-0.4,0.2c-0.1,0.1-0.2,0.2-0.3,0.3
				c-0.1,0.1-0.2,0.2-0.2,0.3v5.9h-1.3V3.8h1.2v0.9h0c0.1-0.1,0.1-0.2,0.2-0.3c0.1-0.1,0.2-0.2,0.4-0.4c0.2-0.1,0.3-0.2,0.6-0.3
				c0.2-0.1,0.4-0.1,0.7-0.1c0.9,0,1.5,0.3,1.8,1c0.1-0.1,0.2-0.2,0.3-0.3s0.3-0.2,0.4-0.3c0.2-0.1,0.4-0.2,0.6-0.2
				c0.2-0.1,0.4-0.1,0.7-0.1c1.5,0,2.3,0.9,2.3,2.7v5.2h-1.3v-5c0-0.6-0.1-1.1-0.3-1.4c-0.2-0.3-0.5-0.4-1-0.4
				c-0.4,0-0.7,0.1-0.9,0.3s-0.4,0.3-0.6,0.5c0,0.1,0,0.2,0,0.4c0,0.1,0,0.3,0,0.4v5.2L105.8,11.5L105.8,11.5z M116.2,4.8h-1.7v4.3
				c0,0.5,0.1,0.9,0.2,1.1c0.1,0.2,0.4,0.3,0.7,0.3c0.2,0,0.4,0,0.5-0.1c0.1-0.1,0.2-0.1,0.3-0.1l0.2,1c-0.1,0-0.2,0.1-0.4,0.2
				c-0.2,0.1-0.5,0.1-0.8,0.1c-0.7,0-1.1-0.2-1.5-0.6c-0.3-0.4-0.5-1-0.5-1.8V4.8h-0.9V4l0.9-0.2l0.1-2.1h1.1v2.1h1.8L116.2,4.8z
				 M56.7,21h-1.5v6.6h-1.3V21H53v-0.9l0.9-0.2v-1.5c0-0.4,0.1-0.8,0.2-1.1c0.1-0.3,0.3-0.5,0.5-0.7c0.2-0.2,0.4-0.3,0.7-0.4
				c0.3-0.1,0.5-0.1,0.8-0.1c0.3,0,0.5,0,0.7,0.1c0.2,0.1,0.3,0.1,0.4,0.2l-0.3,1.1c-0.1,0-0.2-0.1-0.3-0.1c-0.1,0-0.3-0.1-0.4-0.1
				c-0.3,0-0.5,0.1-0.7,0.3c-0.2,0.2-0.2,0.5-0.2,1.1v1.4h1.7L56.7,21z M63.3,27.6h-1.2v-0.9h0c0,0.1-0.1,0.2-0.2,0.3
				c-0.1,0.1-0.2,0.2-0.4,0.4c-0.2,0.1-0.4,0.2-0.6,0.3c-0.2,0.1-0.5,0.1-0.8,0.1c-0.3,0-0.6-0.1-0.9-0.2c-0.3-0.1-0.5-0.3-0.7-0.5
				c-0.2-0.2-0.3-0.5-0.4-0.9C58,26,58,25.5,58,25v-5h1.3v5c0,0.6,0.1,1.1,0.3,1.4c0.2,0.3,0.5,0.4,1,0.4c0.4,0,0.7-0.1,0.9-0.3
				c0.3-0.2,0.5-0.4,0.6-0.6v-5.9h1.3V27.6z M60.2,17.7c0,0.2-0.1,0.4-0.2,0.6c-0.1,0.1-0.3,0.2-0.5,0.2c-0.2,0-0.4-0.1-0.5-0.2
				c-0.1-0.1-0.2-0.3-0.2-0.6c0-0.2,0.1-0.4,0.2-0.6c0.1-0.1,0.3-0.2,0.5-0.2c0.2,0,0.4,0.1,0.5,0.2C60.1,17.3,60.2,17.5,60.2,17.7z
				 M62.6,17.7c0,0.2-0.1,0.4-0.2,0.6c-0.1,0.1-0.3,0.2-0.5,0.2c-0.2,0-0.4-0.1-0.5-0.2c-0.1-0.1-0.2-0.3-0.2-0.6
				c0-0.2,0.1-0.4,0.2-0.6c0.1-0.1,0.3-0.2,0.5-0.2c0.2,0,0.4,0.1,0.5,0.2C62.5,17.3,62.6,17.5,62.6,17.7z M68.6,21.1
				c0,0-0.1,0-0.2-0.1c-0.1,0-0.2,0-0.4,0c-0.4,0-0.7,0.1-0.9,0.3c-0.2,0.2-0.4,0.5-0.5,0.7v5.6h-1.3v-7.7h1.2v1h0
				c0.1-0.2,0.1-0.3,0.2-0.4c0.1-0.1,0.2-0.3,0.3-0.4c0.1-0.1,0.3-0.2,0.4-0.3c0.2-0.1,0.4-0.1,0.6-0.1c0.2,0,0.3,0,0.4,0
				c0.1,0,0.2,0.1,0.3,0.1L68.6,21.1z M77.2,18.3c0,0-0.1-0.1-0.2-0.2c-0.1-0.1-0.2-0.2-0.4-0.2c-0.2-0.1-0.3-0.1-0.5-0.2
				c-0.2-0.1-0.4-0.1-0.7-0.1c-0.5,0-0.8,0.1-1.1,0.4c-0.2,0.3-0.4,0.6-0.4,0.9c0,0.2,0,0.4,0.1,0.6c0.1,0.2,0.1,0.4,0.3,0.5
				c0.1,0.2,0.3,0.4,0.4,0.5c0.2,0.2,0.4,0.4,0.6,0.6l0.9,0.7c0.3,0.2,0.5,0.4,0.7,0.7c0.2,0.2,0.4,0.5,0.6,0.7
				c0.2,0.2,0.3,0.5,0.4,0.8c0.1,0.3,0.1,0.6,0.1,1c0,0.8-0.3,1.5-0.8,2c-0.5,0.5-1.3,0.8-2.3,0.8c-0.4,0-0.7,0-1-0.1
				c-0.3-0.1-0.6-0.2-0.8-0.3c-0.2-0.1-0.4-0.2-0.6-0.3c-0.1-0.1-0.3-0.2-0.3-0.3l0.6-1.2c0.1,0.1,0.2,0.1,0.3,0.3s0.3,0.2,0.5,0.3
				s0.4,0.2,0.6,0.3c0.2,0.1,0.5,0.1,0.8,0.1c0.5,0,0.9-0.1,1.2-0.4c0.3-0.3,0.4-0.6,0.4-1c0-0.2,0-0.4-0.1-0.6
				c-0.1-0.2-0.1-0.4-0.3-0.6c-0.1-0.2-0.3-0.4-0.4-0.5c-0.2-0.2-0.4-0.4-0.6-0.5l-0.9-0.8c-0.3-0.3-0.6-0.5-0.8-0.7
				c-0.2-0.2-0.4-0.5-0.6-0.7c-0.2-0.2-0.3-0.5-0.4-0.8c-0.1-0.3-0.1-0.6-0.1-1c0-0.4,0.1-0.7,0.2-1c0.1-0.3,0.3-0.6,0.6-0.8
				c0.2-0.2,0.5-0.4,0.9-0.5c0.3-0.1,0.7-0.2,1.2-0.2c0.4,0,0.7,0,0.9,0.1c0.3,0.1,0.5,0.1,0.7,0.2s0.3,0.2,0.5,0.3
				c0.1,0.1,0.2,0.2,0.3,0.2L77.2,18.3z M79.7,27.6H81v-7.7h-1.3V27.6z M80.3,18.1c-0.3,0-0.5-0.1-0.6-0.3c-0.2-0.2-0.2-0.4-0.2-0.7
				c0-0.3,0.1-0.5,0.2-0.7c0.2-0.2,0.4-0.3,0.6-0.3c0.3,0,0.5,0.1,0.6,0.3c0.2,0.2,0.2,0.4,0.2,0.7c0,0.3-0.1,0.5-0.2,0.7
				C80.8,18,80.6,18.1,80.3,18.1z M87.1,21.4c0,0-0.1-0.1-0.2-0.1c-0.1-0.1-0.2-0.1-0.3-0.2c-0.1-0.1-0.2-0.1-0.4-0.2
				c-0.1,0-0.3-0.1-0.5-0.1c-0.3,0-0.5,0.1-0.8,0.2c-0.2,0.1-0.4,0.3-0.6,0.5c-0.2,0.2-0.3,0.5-0.4,0.9c-0.1,0.4-0.2,0.8-0.2,1.3
				c0,0.6,0,1,0.1,1.4c0.1,0.4,0.2,0.7,0.4,0.9c0.2,0.2,0.4,0.4,0.6,0.5c0.2,0.1,0.5,0.2,0.7,0.2c0.4,0,0.7-0.1,0.9-0.2
				c0.2-0.1,0.3-0.2,0.4-0.3l0.5,0.9c-0.1,0.1-0.1,0.1-0.2,0.2c-0.1,0.1-0.2,0.2-0.4,0.3c-0.2,0.1-0.4,0.2-0.6,0.2
				c-0.2,0.1-0.5,0.1-0.8,0.1c-0.4,0-0.8-0.1-1.2-0.2c-0.4-0.1-0.7-0.4-1-0.7c-0.3-0.3-0.5-0.7-0.6-1.2c-0.2-0.5-0.2-1.1-0.2-1.9
				c0-0.7,0.1-1.4,0.3-1.9c0.2-0.5,0.4-0.9,0.7-1.2c0.3-0.3,0.6-0.5,1-0.7c0.4-0.1,0.7-0.2,1.1-0.2c0.3,0,0.5,0,0.7,0.1
				c0.2,0.1,0.4,0.1,0.6,0.2c0.2,0.1,0.3,0.2,0.4,0.3c0.1,0.1,0.2,0.2,0.2,0.2L87.1,21.4z M93.2,27.6v-5c0-0.7-0.1-1.1-0.3-1.4
				c-0.2-0.3-0.5-0.4-1-0.4c-0.4,0-0.7,0.1-0.9,0.3c-0.3,0.2-0.5,0.4-0.6,0.6v5.9H89V16.3l1.3-0.1v4.6h0c0-0.1,0.1-0.1,0.2-0.3
				c0.1-0.1,0.2-0.2,0.4-0.3c0.2-0.1,0.3-0.2,0.6-0.3c0.2-0.1,0.5-0.1,0.8-0.1c0.7,0,1.2,0.2,1.6,0.7c0.4,0.4,0.6,1.2,0.6,2.2v5
				L93.2,27.6L93.2,27.6z M101.2,22.5c0,0.3,0,0.6,0,0.9c0,0.2,0,0.5-0.1,0.6h-3.9c0,0.9,0.2,1.6,0.6,2c0.3,0.4,0.8,0.6,1.5,0.6
				c0.2,0,0.4,0,0.6-0.1c0.2-0.1,0.3-0.1,0.5-0.2c0.1-0.1,0.2-0.1,0.3-0.2c0.1-0.1,0.2-0.1,0.2-0.2l0.5,0.9
				c-0.1,0.1-0.1,0.1-0.2,0.2c-0.1,0.1-0.2,0.2-0.4,0.3s-0.4,0.2-0.7,0.3c-0.3,0.1-0.6,0.1-0.9,0.1c-0.5,0-0.9-0.1-1.3-0.2
				c-0.4-0.2-0.7-0.4-1-0.7c-0.3-0.3-0.5-0.8-0.6-1.3C96.1,25,96,24.4,96,23.7c0-0.7,0.1-1.3,0.2-1.8s0.4-0.9,0.6-1.2
				s0.6-0.6,0.9-0.7c0.3-0.2,0.7-0.2,1.1-0.2c0.7,0,1.3,0.2,1.7,0.7C101,20.9,101.2,21.6,101.2,22.5z M98.8,20.8
				c-0.5,0-0.8,0.2-1.1,0.6c-0.3,0.4-0.4,0.9-0.5,1.7h2.8c0-0.1,0-0.1,0-0.2c0-0.1,0-0.2,0-0.3c0-0.5-0.1-0.9-0.3-1.2
				C99.5,21,99.2,20.8,98.8,20.8z M106.2,21.1c0,0-0.1,0-0.2-0.1c-0.1,0-0.2,0-0.4,0c-0.4,0-0.7,0.1-0.9,0.3
				c-0.2,0.2-0.4,0.5-0.5,0.7v5.6h-1.3v-7.7h1.2v1h0c0.1-0.2,0.1-0.3,0.2-0.4s0.2-0.3,0.3-0.4c0.1-0.1,0.3-0.2,0.4-0.3
				c0.2-0.1,0.4-0.1,0.6-0.1c0.2,0,0.3,0,0.4,0c0.1,0,0.2,0.1,0.3,0.1L106.2,21.1z M111.6,27.6v-5c0-0.7-0.1-1.1-0.3-1.4
				c-0.2-0.3-0.5-0.4-1-0.4c-0.4,0-0.7,0.1-0.9,0.3c-0.3,0.2-0.5,0.4-0.6,0.6v5.9h-1.3V16.3l1.3-0.1v4.6h0c0-0.1,0.1-0.1,0.2-0.3
				c0.1-0.1,0.2-0.2,0.4-0.3c0.2-0.1,0.3-0.2,0.6-0.3c0.2-0.1,0.5-0.1,0.8-0.1c0.7,0,1.2,0.2,1.6,0.7c0.4,0.4,0.6,1.2,0.6,2.2v5
				L111.6,27.6L111.6,27.6z M119.7,22.5c0,0.3,0,0.6,0,0.9c0,0.2,0,0.5-0.1,0.6h-3.9c0,0.9,0.2,1.6,0.6,2c0.3,0.4,0.8,0.6,1.5,0.6
				c0.2,0,0.4,0,0.6-0.1c0.2-0.1,0.3-0.1,0.5-0.2c0.1-0.1,0.2-0.1,0.3-0.2c0.1-0.1,0.2-0.1,0.2-0.2l0.5,0.9
				c-0.1,0.1-0.1,0.1-0.2,0.2s-0.2,0.2-0.4,0.3s-0.4,0.2-0.7,0.3c-0.3,0.1-0.6,0.1-0.9,0.1c-0.5,0-0.9-0.1-1.3-0.2
				c-0.4-0.2-0.7-0.4-1-0.7c-0.3-0.3-0.5-0.8-0.6-1.3c-0.1-0.5-0.2-1.1-0.2-1.9c0-0.7,0.1-1.3,0.2-1.8c0.2-0.5,0.4-0.9,0.6-1.2
				s0.6-0.6,0.9-0.7c0.3-0.2,0.7-0.2,1.1-0.2c0.7,0,1.3,0.2,1.7,0.7C119.5,20.9,119.7,21.6,119.7,22.5z M117.3,20.8
				c-0.5,0-0.8,0.2-1.1,0.6c-0.3,0.4-0.4,0.9-0.5,1.7h2.8c0-0.1,0-0.1,0-0.2c0-0.1,0-0.2,0-0.3c0-0.5-0.1-0.9-0.3-1.2
				C118,21,117.7,20.8,117.3,20.8z M121.4,27.6h1.3v-7.7h-1.3V27.6z M122.1,18.1c-0.3,0-0.5-0.1-0.6-0.3c-0.2-0.2-0.2-0.4-0.2-0.7
				c0-0.3,0.1-0.5,0.2-0.7c0.2-0.2,0.4-0.3,0.6-0.3c0.3,0,0.5,0.1,0.6,0.3c0.2,0.2,0.2,0.4,0.2,0.7c0,0.3-0.1,0.5-0.2,0.7
				C122.5,18,122.3,18.1,122.1,18.1z M127.9,21h-1.7v4.3c0,0.5,0.1,0.9,0.2,1.1s0.4,0.3,0.7,0.3c0.2,0,0.4,0,0.5-0.1
				c0.1-0.1,0.2-0.1,0.3-0.1l0.2,1c-0.1,0-0.2,0.1-0.4,0.2c-0.2,0.1-0.5,0.1-0.8,0.1c-0.7,0-1.1-0.2-1.5-0.6c-0.3-0.4-0.5-1-0.5-1.8
				V21H124v-0.9l0.9-0.2l0.1-2.1h1.1v2.1h1.8L127.9,21z M132.7,27.6h1.3v-7.7h-1.3V27.6z M133.3,18.1c-0.3,0-0.5-0.1-0.6-0.3
				s-0.2-0.4-0.2-0.7c0-0.3,0.1-0.5,0.2-0.7c0.2-0.2,0.4-0.3,0.6-0.3c0.3,0,0.5,0.1,0.6,0.3c0.2,0.2,0.2,0.4,0.2,0.7
				c0,0.3-0.1,0.5-0.2,0.7C133.8,18,133.6,18.1,133.3,18.1z M140.1,27.6v-5c0-0.7-0.1-1.1-0.3-1.4c-0.2-0.3-0.5-0.4-1-0.4
				c-0.4,0-0.7,0.1-0.9,0.3c-0.3,0.2-0.5,0.4-0.6,0.6v5.9h-1.3v-7.7h1.2v0.9h0c0-0.1,0.1-0.2,0.2-0.3c0.1-0.1,0.2-0.2,0.4-0.4
				c0.2-0.1,0.4-0.2,0.6-0.3c0.2-0.1,0.5-0.1,0.8-0.1c0.3,0,0.6,0.1,0.9,0.2c0.3,0.1,0.5,0.3,0.7,0.5c0.2,0.2,0.3,0.5,0.4,0.9
				s0.2,0.8,0.2,1.3v5C141.3,27.6,140.1,27.6,140.1,27.6z M146.2,23.9c0-0.8,0.1-1.4,0.3-2c0.2-0.5,0.5-0.9,0.8-1.3
				c0.3-0.3,0.7-0.5,1.1-0.7c0.4-0.1,0.8-0.2,1.2-0.2c0.2,0,0.5,0,0.6,0.1c0.2,0,0.3,0.1,0.4,0.1v-3.7l1.3-0.1v11.5h-1.2v-0.8h0
				c0,0.1-0.1,0.2-0.2,0.3c-0.1,0.1-0.2,0.2-0.3,0.3c-0.1,0.1-0.3,0.2-0.6,0.3c-0.2,0.1-0.5,0.1-0.8,0.1c-0.4,0-0.7-0.1-1-0.2
				c-0.3-0.1-0.6-0.4-0.8-0.7c-0.2-0.3-0.4-0.7-0.6-1.2C146.3,25.2,146.2,24.6,146.2,23.9z M149.2,26.7c0.2,0,0.4,0,0.5-0.1
				c0.2-0.1,0.3-0.1,0.4-0.2c0.1-0.1,0.2-0.2,0.3-0.2c0.1-0.1,0.1-0.2,0.2-0.2v-4.7c-0.1-0.1-0.2-0.1-0.4-0.2
				c-0.2-0.1-0.3-0.1-0.6-0.1c-0.3,0-0.6,0.1-0.8,0.2c-0.3,0.1-0.5,0.3-0.7,0.5c-0.2,0.2-0.3,0.5-0.5,0.9c-0.1,0.4-0.2,0.8-0.2,1.4
				c0,0.5,0,1,0.1,1.3c0.1,0.4,0.2,0.6,0.4,0.9c0.2,0.2,0.3,0.4,0.5,0.5C148.8,26.6,149,26.7,149.2,26.7z M158.8,22.5
				c0,0.3,0,0.6,0,0.9c0,0.2,0,0.5-0.1,0.6h-3.9c0,0.9,0.2,1.6,0.6,2s0.8,0.6,1.5,0.6c0.2,0,0.4,0,0.6-0.1c0.2-0.1,0.3-0.1,0.5-0.2
				c0.1-0.1,0.2-0.1,0.3-0.2c0.1-0.1,0.2-0.1,0.2-0.2l0.5,0.9c-0.1,0.1-0.1,0.1-0.2,0.2c-0.1,0.1-0.2,0.2-0.4,0.3s-0.4,0.2-0.7,0.3
				c-0.3,0.1-0.6,0.1-0.9,0.1c-0.5,0-0.9-0.1-1.3-0.2c-0.4-0.2-0.7-0.4-1-0.7c-0.3-0.3-0.5-0.8-0.6-1.3c-0.1-0.5-0.2-1.1-0.2-1.9
				c0-0.7,0.1-1.3,0.2-1.8s0.4-0.9,0.6-1.2c0.3-0.3,0.6-0.6,0.9-0.7c0.3-0.2,0.7-0.2,1.1-0.2c0.7,0,1.3,0.2,1.7,0.7
				C158.6,20.9,158.8,21.6,158.8,22.5z M156.4,20.8c-0.5,0-0.8,0.2-1.1,0.6c-0.3,0.4-0.4,0.9-0.5,1.7h2.8c0-0.1,0-0.1,0-0.2
				c0-0.1,0-0.2,0-0.3c0-0.5-0.1-0.9-0.3-1.2S156.8,20.8,156.4,20.8z M163.8,21.1c0,0-0.1,0-0.2-0.1c-0.1,0-0.2,0-0.4,0
				c-0.4,0-0.7,0.1-0.9,0.3c-0.2,0.2-0.4,0.5-0.5,0.7v5.6h-1.3v-7.7h1.2v1h0c0.1-0.2,0.1-0.3,0.2-0.4s0.2-0.3,0.3-0.4
				c0.1-0.1,0.3-0.2,0.4-0.3c0.2-0.1,0.4-0.1,0.6-0.1c0.2,0,0.3,0,0.4,0c0.1,0,0.2,0.1,0.3,0.1L163.8,21.1z M54.4,33.7h-1.2v-1h3.7
				v1h-1.2v9.1h1.2v1h-3.7v-1h1.2V33.7z M62.6,43.8v-5c0-0.7-0.1-1.1-0.3-1.4c-0.2-0.3-0.5-0.4-1-0.4c-0.4,0-0.7,0.1-0.9,0.3
				c-0.3,0.2-0.5,0.4-0.6,0.6v5.9h-1.3v-7.7h1.2V37h0c0-0.1,0.1-0.2,0.2-0.3c0.1-0.1,0.2-0.2,0.4-0.4c0.2-0.1,0.4-0.2,0.6-0.3
				c0.2-0.1,0.5-0.1,0.8-0.1c0.3,0,0.6,0.1,0.9,0.2c0.3,0.1,0.5,0.3,0.7,0.5c0.2,0.2,0.3,0.5,0.4,0.9c0.1,0.4,0.2,0.8,0.2,1.3v5
				H62.6z M69,37.2h-1.5v6.6h-1.3v-6.6h-0.9v-0.9l0.9-0.2v-1.5c0-0.4,0.1-0.8,0.2-1.1c0.1-0.3,0.3-0.5,0.5-0.7s0.4-0.3,0.7-0.4
				c0.3-0.1,0.5-0.1,0.8-0.1c0.3,0,0.5,0,0.7,0.1c0.2,0.1,0.3,0.1,0.4,0.2L69,33.6c-0.1,0-0.2-0.1-0.3-0.1c-0.1,0-0.3-0.1-0.4-0.1
				c-0.3,0-0.5,0.1-0.7,0.3c-0.2,0.2-0.2,0.5-0.2,1.1v1.4h1.7L69,37.2z M69.7,40c0-0.7,0.1-1.3,0.2-1.8c0.2-0.5,0.4-0.9,0.7-1.3
				c0.3-0.3,0.6-0.6,1-0.7c0.4-0.2,0.8-0.2,1.2-0.2c0.4,0,0.8,0.1,1.2,0.2c0.4,0.2,0.7,0.4,0.9,0.7c0.3,0.3,0.5,0.7,0.6,1.3
				c0.2,0.5,0.2,1.1,0.2,1.8c0,0.7-0.1,1.3-0.2,1.8c-0.2,0.5-0.4,0.9-0.7,1.3c-0.3,0.3-0.6,0.6-1,0.7c-0.4,0.1-0.8,0.2-1.2,0.2
				c-0.4,0-0.8-0.1-1.2-0.2c-0.4-0.2-0.7-0.4-0.9-0.7s-0.5-0.7-0.6-1.3C69.8,41.3,69.7,40.7,69.7,40z M74.4,40c0-1-0.1-1.8-0.4-2.2
				S73.2,37,72.7,37c-0.5,0-0.9,0.2-1.2,0.7c-0.3,0.5-0.4,1.2-0.4,2.2s0.1,1.8,0.4,2.2c0.3,0.4,0.7,0.7,1.2,0.7
				c0.5,0,0.9-0.2,1.2-0.7C74.3,41.7,74.4,41,74.4,40z M80.7,37.3c0,0-0.1,0-0.2-0.1c-0.1,0-0.2,0-0.4,0c-0.4,0-0.7,0.1-0.9,0.3
				c-0.2,0.2-0.4,0.5-0.5,0.7v5.6h-1.3v-7.7h1.2v1h0c0.1-0.2,0.1-0.3,0.2-0.4c0.1-0.1,0.2-0.3,0.3-0.4c0.1-0.1,0.3-0.2,0.4-0.3
				c0.2-0.1,0.4-0.1,0.6-0.1c0.2,0,0.3,0,0.4,0c0.1,0,0.2,0.1,0.3,0.1L80.7,37.3z M85.9,43.8v-5c0-0.6-0.1-1.1-0.3-1.4
				c-0.2-0.3-0.5-0.4-0.9-0.4c-0.2,0-0.4,0-0.6,0.1c-0.2,0.1-0.3,0.1-0.4,0.2c-0.1,0.1-0.2,0.2-0.3,0.3c-0.1,0.1-0.2,0.2-0.2,0.3
				v5.9h-1.3v-7.7h1.2V37h0c0.1-0.1,0.1-0.2,0.2-0.3c0.1-0.1,0.2-0.2,0.4-0.4c0.2-0.1,0.3-0.2,0.6-0.3c0.2-0.1,0.4-0.1,0.7-0.1
				c0.9,0,1.5,0.3,1.8,1c0.1-0.1,0.2-0.2,0.3-0.3c0.1-0.1,0.3-0.2,0.4-0.3c0.2-0.1,0.4-0.2,0.6-0.2c0.2-0.1,0.4-0.1,0.7-0.1
				c1.5,0,2.3,0.9,2.3,2.7v5.2h-1.3v-5c0-0.6-0.1-1.1-0.3-1.4c-0.2-0.3-0.5-0.4-1-0.4c-0.4,0-0.7,0.1-0.9,0.3
				c-0.2,0.2-0.4,0.3-0.6,0.5c0,0.1,0,0.2,0,0.4c0,0.1,0,0.3,0,0.4v5.2L85.9,43.8L85.9,43.8z M92.6,41.9c0-0.4,0.1-0.8,0.3-1.1
				s0.4-0.5,0.7-0.7c0.3-0.2,0.6-0.3,1-0.4c0.4-0.1,0.8-0.1,1.2-0.1h0.4v-0.7c0-0.7-0.1-1.1-0.3-1.3c-0.2-0.2-0.5-0.4-1-0.4
				c-0.4,0-0.7,0.1-0.9,0.2c-0.3,0.2-0.5,0.3-0.6,0.4l-0.5-0.9c0.1-0.1,0.2-0.2,0.3-0.3c0.1-0.1,0.3-0.2,0.5-0.3
				c0.2-0.1,0.4-0.2,0.6-0.2c0.2-0.1,0.5-0.1,0.8-0.1c0.8,0,1.4,0.2,1.8,0.7c0.4,0.4,0.6,1.1,0.6,2.1v3.5c0,0.3,0,0.7,0,1
				c0,0.3,0,0.5,0.1,0.6h-1.2l0-0.9h0c0,0.1-0.1,0.2-0.2,0.3c-0.1,0.1-0.2,0.2-0.3,0.3c-0.1,0.1-0.3,0.2-0.5,0.3
				C95.1,44,94.9,44,94.7,44c-0.3,0-0.6-0.1-0.8-0.2c-0.2-0.1-0.5-0.3-0.6-0.4c-0.2-0.2-0.3-0.4-0.4-0.7
				C92.7,42.4,92.6,42.2,92.6,41.9z M94.9,42.9c0.2,0,0.3,0,0.5-0.1c0.1-0.1,0.3-0.1,0.4-0.2c0.1-0.1,0.2-0.2,0.3-0.2
				c0.1-0.1,0.1-0.2,0.2-0.2v-1.7l-0.4,0c-0.6,0-1.1,0.1-1.4,0.3c-0.3,0.2-0.5,0.5-0.5,0.9c0,0.4,0.1,0.7,0.3,0.9
				C94.4,42.8,94.6,42.9,94.9,42.9z M102.6,37.2H101v4.3c0,0.5,0.1,0.9,0.2,1.1c0.1,0.2,0.4,0.3,0.7,0.3c0.2,0,0.4,0,0.5-0.1
				s0.2-0.1,0.3-0.1l0.2,1c-0.1,0-0.2,0.1-0.4,0.2c-0.2,0.1-0.5,0.1-0.8,0.1c-0.7,0-1.1-0.2-1.5-0.6c-0.3-0.4-0.5-1-0.5-1.8v-4.4
				h-0.9v-0.9l0.9-0.2l0.1-2.1h1.1v2.1h1.8L102.6,37.2z M104.1,43.8h1.3v-7.7h-1.3V43.8z M104.7,34.3c-0.3,0-0.5-0.1-0.6-0.3
				s-0.2-0.4-0.2-0.7c0-0.3,0.1-0.5,0.2-0.7c0.2-0.2,0.4-0.3,0.6-0.3c0.3,0,0.5,0.1,0.6,0.3c0.2,0.2,0.2,0.4,0.2,0.7
				c0,0.3-0.1,0.5-0.2,0.7C105.2,34.2,105,34.3,104.7,34.3z M107,40c0-0.7,0.1-1.3,0.2-1.8c0.2-0.5,0.4-0.9,0.7-1.3
				c0.3-0.3,0.6-0.6,1-0.7c0.4-0.2,0.8-0.2,1.2-0.2c0.4,0,0.8,0.1,1.2,0.2c0.4,0.2,0.7,0.4,0.9,0.7s0.5,0.7,0.6,1.3
				c0.2,0.5,0.2,1.1,0.2,1.8c0,0.7-0.1,1.3-0.2,1.8c-0.2,0.5-0.4,0.9-0.7,1.3c-0.3,0.3-0.6,0.6-1,0.7c-0.4,0.1-0.8,0.2-1.2,0.2
				c-0.4,0-0.8-0.1-1.2-0.2c-0.4-0.2-0.7-0.4-0.9-0.7c-0.3-0.3-0.5-0.7-0.6-1.3C107,41.3,107,40.7,107,40z M111.6,40
				c0-1-0.1-1.8-0.4-2.2c-0.3-0.5-0.7-0.7-1.2-0.7c-0.5,0-0.9,0.2-1.2,0.7c-0.3,0.5-0.4,1.2-0.4,2.2s0.1,1.8,0.4,2.2
				c0.3,0.4,0.7,0.7,1.2,0.7c0.5,0,0.9-0.2,1.2-0.7C111.5,41.7,111.6,41,111.6,40z M118.7,43.8v-5c0-0.7-0.1-1.1-0.3-1.4
				c-0.2-0.3-0.5-0.4-1-0.4c-0.4,0-0.7,0.1-0.9,0.3c-0.3,0.2-0.5,0.4-0.6,0.6v5.9h-1.3v-7.7h1.2V37h0c0-0.1,0.1-0.2,0.2-0.3
				c0.1-0.1,0.2-0.2,0.4-0.4c0.2-0.1,0.4-0.2,0.6-0.3c0.2-0.1,0.5-0.1,0.8-0.1c0.3,0,0.6,0.1,0.9,0.2c0.3,0.1,0.5,0.3,0.7,0.5
				c0.2,0.2,0.3,0.5,0.4,0.9c0.1,0.4,0.2,0.8,0.2,1.3v5H118.7z M125.1,37.7c-0.1-0.1-0.2-0.2-0.5-0.4c-0.2-0.2-0.5-0.2-0.9-0.2
				c-0.3,0-0.6,0.1-0.8,0.2c-0.2,0.2-0.3,0.4-0.3,0.6c0,0.3,0.1,0.5,0.2,0.7c0.2,0.2,0.4,0.4,0.8,0.6l0.5,0.3c0.5,0.3,0.9,0.6,1.2,1
				s0.4,0.8,0.4,1.4c0,0.6-0.2,1.1-0.6,1.5c-0.4,0.4-1,0.6-1.8,0.6c-0.3,0-0.6,0-0.8-0.1c-0.2-0.1-0.4-0.1-0.6-0.2
				c-0.2-0.1-0.3-0.2-0.4-0.3c-0.1-0.1-0.2-0.2-0.3-0.3l0.6-1c0.1,0.1,0.1,0.1,0.2,0.2c0.1,0.1,0.2,0.2,0.3,0.2
				c0.1,0.1,0.3,0.1,0.4,0.2c0.2,0.1,0.3,0.1,0.6,0.1c0.4,0,0.7-0.1,0.9-0.3c0.2-0.2,0.3-0.4,0.3-0.6c0-0.2,0-0.3-0.1-0.5
				c0-0.1-0.1-0.3-0.2-0.4c-0.1-0.1-0.2-0.2-0.3-0.3c-0.1-0.1-0.3-0.2-0.5-0.3l-0.5-0.3c-0.5-0.3-0.8-0.6-1.1-1
				c-0.3-0.3-0.4-0.8-0.4-1.3c0-0.3,0.1-0.6,0.2-0.8c0.1-0.2,0.3-0.4,0.5-0.6c0.2-0.2,0.4-0.3,0.7-0.4c0.3-0.1,0.6-0.2,0.9-0.2
				c0.3,0,0.5,0,0.8,0.1c0.2,0.1,0.4,0.1,0.5,0.2c0.2,0.1,0.3,0.2,0.4,0.3c0.1,0.1,0.2,0.2,0.2,0.2L125.1,37.7z M130.6,37.2H129v4.3
				c0,0.5,0.1,0.9,0.2,1.1c0.1,0.2,0.4,0.3,0.7,0.3c0.2,0,0.4,0,0.5-0.1s0.2-0.1,0.3-0.1l0.2,1c-0.1,0-0.2,0.1-0.4,0.2
				S130,44,129.7,44c-0.7,0-1.1-0.2-1.5-0.6c-0.3-0.4-0.5-1-0.5-1.8v-4.4h-0.9v-0.9l0.9-0.2l0.1-2.1h1.1v2.1h1.8L130.6,37.2z
				 M136.8,38.7c0,0.3,0,0.6,0,0.9c0,0.2,0,0.5-0.1,0.6h-3.9c0,0.9,0.2,1.6,0.6,2c0.3,0.4,0.8,0.6,1.5,0.6c0.2,0,0.4,0,0.6-0.1
				s0.3-0.1,0.5-0.2c0.1-0.1,0.2-0.1,0.3-0.2c0.1-0.1,0.2-0.1,0.2-0.2l0.5,0.9c-0.1,0.1-0.1,0.1-0.2,0.2c-0.1,0.1-0.2,0.2-0.4,0.3
				c-0.2,0.1-0.4,0.2-0.7,0.3c-0.3,0.1-0.6,0.1-0.9,0.1c-0.5,0-0.9-0.1-1.3-0.2c-0.4-0.2-0.7-0.4-1-0.7c-0.3-0.3-0.5-0.8-0.6-1.3
				s-0.2-1.1-0.2-1.9c0-0.7,0.1-1.3,0.2-1.8c0.2-0.5,0.4-0.9,0.6-1.2c0.3-0.3,0.6-0.6,0.9-0.7c0.3-0.2,0.7-0.2,1.1-0.2
				c0.7,0,1.3,0.2,1.7,0.7C136.6,37.1,136.8,37.8,136.8,38.7z M134.4,37c-0.5,0-0.8,0.2-1.1,0.6c-0.3,0.4-0.4,0.9-0.5,1.7h2.8
				c0-0.1,0-0.1,0-0.2s0-0.2,0-0.3c0-0.5-0.1-0.9-0.3-1.2C135.2,37.1,134.8,37,134.4,37z M142.8,37.6c0,0-0.1-0.1-0.1-0.1
				c-0.1-0.1-0.2-0.1-0.3-0.2c-0.1-0.1-0.2-0.1-0.4-0.2s-0.3-0.1-0.5-0.1c-0.3,0-0.5,0.1-0.8,0.2c-0.2,0.1-0.4,0.3-0.6,0.5
				c-0.2,0.2-0.3,0.5-0.4,0.9c-0.1,0.4-0.1,0.8-0.1,1.3c0,0.6,0,1,0.1,1.4c0.1,0.4,0.2,0.7,0.4,0.9s0.4,0.4,0.6,0.5
				c0.2,0.1,0.5,0.2,0.8,0.2c0.4,0,0.7-0.1,0.9-0.2c0.2-0.1,0.4-0.2,0.4-0.3l0.5,0.9c-0.1,0.1-0.1,0.1-0.2,0.2
				c-0.1,0.1-0.2,0.2-0.4,0.3c-0.2,0.1-0.4,0.2-0.6,0.2c-0.2,0.1-0.5,0.1-0.8,0.1c-0.4,0-0.8-0.1-1.2-0.2c-0.4-0.1-0.7-0.4-1-0.7
				s-0.5-0.7-0.6-1.2c-0.2-0.5-0.2-1.1-0.2-1.9c0-0.7,0.1-1.4,0.3-1.9s0.4-0.9,0.7-1.2c0.3-0.3,0.6-0.5,1-0.7
				c0.4-0.1,0.8-0.2,1.1-0.2c0.3,0,0.5,0,0.7,0.1c0.2,0.1,0.4,0.1,0.6,0.2c0.2,0.1,0.3,0.2,0.4,0.3c0.1,0.1,0.2,0.2,0.2,0.2
				L142.8,37.6z M148.8,43.8v-5c0-0.7-0.1-1.1-0.3-1.4c-0.2-0.3-0.5-0.4-1-0.4c-0.4,0-0.7,0.1-0.9,0.3c-0.3,0.2-0.5,0.4-0.6,0.6v5.9
				h-1.3V32.5l1.3-0.1v4.6h0c0-0.1,0.1-0.1,0.2-0.3c0.1-0.1,0.2-0.2,0.4-0.3c0.2-0.1,0.4-0.2,0.6-0.3c0.2-0.1,0.5-0.1,0.8-0.1
				c0.7,0,1.2,0.2,1.6,0.7c0.4,0.4,0.6,1.2,0.6,2.2v5H148.8z M156.1,43.8v-5c0-0.7-0.1-1.1-0.3-1.4c-0.2-0.3-0.5-0.4-1-0.4
				c-0.4,0-0.7,0.1-0.9,0.3c-0.3,0.2-0.5,0.4-0.6,0.6v5.9H152v-7.7h1.2V37h0c0-0.1,0.1-0.2,0.2-0.3c0.1-0.1,0.2-0.2,0.4-0.4
				c0.2-0.1,0.4-0.2,0.6-0.3c0.2-0.1,0.5-0.1,0.8-0.1c0.3,0,0.6,0.1,0.9,0.2c0.3,0.1,0.5,0.3,0.7,0.5c0.2,0.2,0.3,0.5,0.4,0.9
				c0.1,0.4,0.2,0.8,0.2,1.3v5H156.1z M159.3,43.8h1.3v-7.7h-1.3V43.8z M159.9,34.3c-0.3,0-0.5-0.1-0.6-0.3s-0.2-0.4-0.2-0.7
				c0-0.3,0.1-0.5,0.2-0.7c0.2-0.2,0.4-0.3,0.6-0.3c0.3,0,0.5,0.1,0.6,0.3c0.2,0.2,0.2,0.4,0.2,0.7c0,0.3-0.1,0.5-0.2,0.7
				C160.4,34.2,160.2,34.3,159.9,34.3z M165.4,39.6l2.6,4.2h-1.5l-2.1-3.6h-0.5v3.6h-1.3V32.5l1.3-0.1v6.8h0.5l2-3h1.5L165.4,39.6
				L165.4,39.6z"/>
			<polyline id="Fill-3" class="st2" points="42.3,54 44,54 44,81 40,81 40,54 42.3,54 			"/>
			<polyline id="Fill-4" class="st3" points="42.3,27 44,27 44,54 40,54 40,27 42.3,27 			"/>
			<path id="Fill-5" class="st1" d="M27,10.6c1.4,2.2,2.4,2.1,4,2.1c-1.3-1-2.2-2.3-2.6-3l-2.5-4c-0.2-1.2-0.9-2.4-1.8-3.2
				c0.3-0.1,0.6-0.2,0.7-0.4c-1.6,0-3.2-0.8-4.1-0.8c-0.6,0-0.9,0.3-0.9,0.8c0,0.5,0.6,1,1.5,1c0.2,0,0.5,0,0.8-0.1
				C22.6,3.7,23,4.4,23,5.3c0,1.7-2.1,3.1-4.2,3.1c-0.1,0-0.2,0-0.4,0c-0.2-0.4-0.8-1.2-0.8-2c0-1.4,0.9-2.5,0.9-3.9
				c0-0.9-0.4-1.4-0.6-1.6c0.3-0.2,0.5-0.5,0.6-0.7c-0.1,0.1-0.3,0.1-0.6,0.1c-1,0-1.8-0.3-2.6-0.3c-0.5,0-0.6,0.1-0.6,0.3
				c0,0,0,0.1,0,0.1c-0.2-0.1-0.3-0.1-0.5-0.1c-0.2,0-0.5-0.1-0.8-0.1c-1,0-1.3,0.4-1.3,0.8c0,0.3,0.2,0.8,0.5,1.2
				c0.4-0.2,0.8-0.3,1-0.3c0.5,0,1,0.5,1.2,1.1C14.6,3,14.5,3,14.2,3c-0.9,0-1.6-0.3-1.7-0.3c0,0,0,0,0,0c0,0.1,0.3,0.5,0.8,0.7
				c0.7,0.3,1.7,0.4,1.9,0.4c0,0-0.2,0.4-0.4,0.4c0,0-0.1,0-0.1,0C13.9,4,13.7,4,12.8,3.6c0,0,0,0,0,0c0,0.4,0.9,1.2,1.8,1.5
				c-0.7,0.9-1.6,1.8-2,3.2c-0.1,0-0.2,0-0.4,0C10.1,8.4,8,7.1,8,5.3C8,4.4,8.4,3.7,8.9,3c0.3,0.1,0.6,0.1,0.8,0.1
				c1,0,1.5-0.5,1.5-1c0-0.5-0.4-0.8-0.9-0.8c-0.9,0-2.5,0.8-4.1,0.8c0.2,0.1,0.4,0.2,0.7,0.4C6,3.3,5.4,4.5,5.1,5.7l-2.5,4
				c-0.4,0.7-1.3,2-2.6,3c1.6,0,2.7,0,4-2.1l1.3-2c0.1,0.3,0.2,0.5,0.3,0.8l-2.5,4.1c-0.4,0.7-1.3,2-2.6,3c1.6,0,2.7,0,4-2.1
				l2.2-3.5c0.2,0.2,0.3,0.3,0.5,0.5l-3.1,4.9c-0.4,0.7-1.3,2-2.6,3c1.6,0,2.7,0,4-2.1l3-4.8c0.2,0.1,0.4,0.2,0.6,0.4l-3.7,5.9
				c-0.4,0.7-1.3,2-2.6,3c1.6,0,2.7,0,4-2.1l3.8-6c0.2,0.1,0.4,0.2,0.7,0.2l-4.3,6.8c-0.4,0.7-1.3,2-2.6,3c1.6,0,2.7,0,4-2.1L13,14
				c0,0,0.1,0,0.1,0c0.1,0.4,0.2,0.8,0.2,1.1c0,2.3-1.5,4.3-3.3,5.9c0.1,0.1,0.3,0.1,0.5,0.1c0.4,0,0.6,0,0.8,0
				c-0.4,0.9-1.3,2.2-1.8,2.8c-0.6-0.1-1.4-0.2-2-0.2c-0.6,0-0.7,0.3-0.7,0.7c0,0.5,0.2,1,0.5,1.2c0.1-0.3,0.3-0.6,1.4-0.6
				c0,0,0.1,0,0.1,0c-0.3,0.4-1.3,1.2-1.3,1.8c0,0.4,0.5,1.1,1.1,1.1c0-0.1,0-0.3,0-0.4c0-0.5,0.5-1.1,0.9-1.6c0,0.1,0,0.1,0,0.3
				c0,1.2,0.1,1.8,0.9,1.8c0.4,0,0.6-0.2,0.7-0.3c-0.5-0.5-0.5-0.8-0.5-1.5c0-0.2,0-0.4,0-0.6c0-0.2,0-0.4,0-0.5c0.3,0,0.4,0,0.6,0
				c0,0,1.1-0.1,1.4,0.5c0.3-0.3,0.7-0.7,0.7-1.1c0-0.3-0.1-0.6-0.7-0.6c-0.2,0-0.9,0.1-1.5,0.1c0.2-0.3,0.8-1.3,1.4-2.1
				c0.1,0.3,0.2,0.6,0.5,0.8c0-0.5,0.3-2,1-2.8c0.1,0.6,0.2,1.2,0.2,2.5c0,3.1-0.7,5.4-2.3,5.8c0.2,0.4,0.6,0.7,1.1,0.7
				c0.6,0,0.9-0.7,1.2-1.3c0.2,0.5,0.6,1.6,1.1,1.6s0.9-1.1,1.1-1.6c0.3,0.6,0.6,1.3,1.2,1.3c0.4,0,0.9-0.3,1.1-0.7
				c-1.6-0.4-2.3-2.7-2.3-5.8c0-1.3,0.1-1.9,0.2-2.5c0.7,0.9,1,2.3,1,2.8c0.3-0.2,0.5-0.6,0.5-0.8c0.6,0.7,1.3,1.7,1.4,2.1
				c-0.6,0-1.3-0.1-1.5-0.1c-0.6,0-0.7,0.3-0.7,0.6c0,0.4,0.4,0.8,0.7,1.1c0.3-0.6,1.4-0.5,1.4-0.5c0.2,0,0.3,0,0.6,0
				c0,0.2,0,0.4,0,0.5c0,0.2,0,0.4,0,0.6c0,0.7,0,1.1-0.5,1.5c0.1,0.1,0.4,0.3,0.7,0.3c0.8,0,0.9-0.6,0.9-1.8c0-0.1,0-0.1,0-0.3
				c0.4,0.4,0.9,1,0.9,1.6c0,0.1,0,0.2,0,0.4c0.6,0,1.1-0.6,1.1-1.1c0-0.6-1-1.5-1.3-1.8c0.1,0,0.1,0,0.1,0c1.1,0,1.3,0.4,1.4,0.6
				c0.3-0.2,0.5-0.7,0.5-1.2c0-0.3-0.1-0.7-0.7-0.7c-0.6,0-1.4,0.1-2,0.2C21,23.2,20.1,22,19.7,21c0.2,0,0.4,0,0.8,0
				c0.2,0,0.4,0,0.5-0.1c-1.8-1.6-3.3-3.6-3.3-5.9c0-0.4,0.1-0.7,0.2-1.1c0,0,0.1,0,0.1,0l4.5,7.3c1.4,2.2,2.4,2.1,4,2.1
				c-1.3-1-2.2-2.3-2.6-3l-4.3-6.8c0.2-0.1,0.5-0.2,0.7-0.2l3.8,6c1.4,2.2,2.4,2.1,4,2.1c-1.3-1-2.2-2.3-2.6-3l-3.7-5.9
				c0.2-0.1,0.4-0.2,0.6-0.4l3,4.8c1.4,2.2,2.4,2.1,4,2.1c-1.3-1-2.2-2.3-2.6-3l-3.1-4.9c0.2-0.2,0.4-0.3,0.5-0.5l2.2,3.5
				c1.4,2.2,2.4,2.1,4,2.1c-1.3-1-2.2-2.3-2.6-3l-2.5-4.1c0.1-0.3,0.3-0.5,0.3-0.8L27,10.6z M6.7,5.9c0-1.5,1.1-2.7,1.5-3.1
				c0.1,0,0.2,0,0.3,0.1C8,3.4,7.3,4.3,7.3,5.4c0,2.2,2.4,4.1,5,4.1c0,0.2,0,0.4,0,0.6c0,0.3,0,0.6,0.1,0.9C9.3,11,6.7,8.6,6.7,5.9z
				 M10.8,24.1L10.8,24.1L10.8,24.1c0.9,0.1,1.3,0,1.6,0c0.1,0,0.2,0,0.4,0c0.2,0,0.4,0,0.4,0.3c0,0.2-0.2,0.5-0.4,0.6
				c-0.3-0.3-0.7-0.4-1.4-0.4c-0.3,0-0.7,0.1-0.9,0.1l0,0l0,0l0,0.1c0,0.2,0.1,0.4,0.1,0.7l0,0.3l0,0.3c0,0.7,0.1,1.1,0.4,1.5
				c-0.1,0-0.2,0-0.2,0c-0.4,0-0.6-0.2-0.6-1.5c0-0.3,0-0.5,0-0.7l0-0.2l-0.1,0c-0.7,0.5-1.4,1.4-1.4,2.1C8.2,27.2,8,26.9,8,26.7
				c0-0.4,0.6-0.9,1.2-1.6l0.4-0.4l0,0l-0.1,0c-0.1,0-0.4-0.1-0.6-0.1c-0.7,0-1.2,0.1-1.5,0.4c-0.1-0.1-0.2-0.5-0.2-0.7
				c0-0.1,0-0.2,0.1-0.3C7.4,24,7.5,24,7.6,24h0c0.8,0,1.7,0.1,2.1,0.2l0,0l0,0c0.1-0.1,1.6-2.1,2-3.2c0.1,0,0.2-0.1,0.3-0.1
				c0.3,0,0.4,0.2,0.5,0.5C11.6,22.6,11,23.5,10.8,24.1z M19,20.9c0.2,0,0.2,0,0.3,0.1c0.4,1.1,1.9,3.1,2,3.2l0,0l0,0
				c0.4-0.1,1.3-0.2,2.1-0.2h0c0.1,0,0.2,0,0.2,0.1c0.1,0.1,0.1,0.1,0.1,0.3c0,0.2-0.1,0.5-0.2,0.7c-0.3-0.3-0.7-0.4-1.5-0.4
				c-0.2,0-0.5,0.1-0.6,0.1l-0.1,0l-0.1,0l0.4,0.4c0.6,0.6,1.2,1.2,1.2,1.6c0,0.2-0.2,0.5-0.4,0.6c0-0.7-0.7-1.6-1.4-2.1l-0.1,0
				l0,0.2c0,0.2,0,0.4,0,0.7c0,1.3-0.1,1.5-0.6,1.5c-0.1,0-0.2,0-0.2,0c0.3-0.3,0.4-0.7,0.4-1.5l0-0.3l0-0.3c0-0.3,0-0.5,0.1-0.7
				l0-0.1l-0.1,0c-0.2,0-0.6-0.1-0.9-0.1c-0.6,0-1.1,0.1-1.4,0.4c-0.2-0.2-0.4-0.5-0.4-0.6c0-0.3,0.2-0.3,0.4-0.3c0.1,0,0.2,0,0.4,0
				c0.3,0,0.7,0.1,1.5,0.1h0.1l0-0.1c-0.2-0.6-0.8-1.5-1.8-2.7C18.6,21.1,18.7,20.9,19,20.9z M15.4,3.2c-0.1-0.4-0.3-0.8-0.6-1.1
				c-0.2-0.3-0.6-0.6-1.1-0.6c-0.2,0-0.6,0.1-0.9,0.2c-0.1-0.2-0.3-0.6-0.3-0.8c0-0.2,0.3-0.4,0.9-0.4c1.4,0,2.2,0.6,2.2,1.7
				C15.7,2.6,15.6,2.9,15.4,3.2z M16.1,1.9c0-0.3-0.2-0.6-0.3-0.8c0-0.3,0.1-0.5,0.6-0.3C16,1,16.2,1.4,16.2,1.4s0.5-0.2,0.4-0.5
				C17.3,1,16.8,2,16.1,1.9z M18.7,11c0-0.3,0.1-0.6,0.1-0.9c0-0.2,0-0.4,0-0.6c2.6,0,5-1.9,5-4.1c0-1.1-0.7-2-1.1-2.5
				c0.1,0,0.2,0,0.3-0.1c0.4,0.3,1.5,1.5,1.5,3.1C24.3,8.5,21.7,11,18.7,11L18.7,11z"/>
			<polygon id="Fill-6" class="st1" points="40,28 44,28 44,1 40,1 			"/>
		</g>
	</g>
</g>
</svg>
