<?xml version="1.0" encoding="UTF-8"?>
<svg id="Layer_1" data-name="Layer 1" xmlns="http://www.w3.org/2000/svg" xmlns:xlink="http://www.w3.org/1999/xlink" viewBox="0 0 123.65 142.77">
  <defs>
    <linearGradient id="linear-gradient" x1=".86" y1="73.36" x2="122.12" y2="73.36" gradientTransform="translate(0 145.29) scale(1 -1)" gradientUnits="userSpaceOnUse">
      <stop offset="0" stop-color="#d7b23c"/>
      <stop offset=".14" stop-color="#f1ef98"/>
      <stop offset=".51" stop-color="#a5924b"/>
      <stop offset=".77" stop-color="#f6f192"/>
      <stop offset=".88" stop-color="#e7c247"/>
      <stop offset=".97" stop-color="#bb7232"/>
      <stop offset="1" stop-color="#bb7232"/>
    </linearGradient>
  </defs>
  <path d="m61.81,8.73c16.26,0,35.84,13.7,47.3,23.05,14.05,11.46,12.99,20.34,12.99,39.34,0,14.77,1,28.93-12.24,39.91-17.69,14.67-45.85,24-48,24.09-2.31.1-36.82-10.94-54.02-30.12C-.06,96.2,1.07,73.89,1.07,71.12c0-24.62-3.36-31.44,16.94-41.6,8.16-4.08,33.42-20.79,43.8-20.79Z" fill="url(#linear-gradient)"/>
  <g>
    <path d="m82.42,66.48h-2v-11.3c0-5.09-1.98-9.88-5.29-12.82-.05-.04.02.02.14.08l.87-1.8c.18.09.3.2.36.27,3.75,3.33,5.92,8.55,5.92,14.28v11.3h0Z" fill="#231f20"/>
    <path d="m44.19,66.52h-2v-11.2c0-5.78,2.24-11.13,6-14.29l1.29,1.53c-3.31,2.79-5.29,7.56-5.29,12.76v11.2Z" fill="#231f20"/>
    <path d="m77.3,65.69h-2v-11.25c0-2.98-.97-5.78-2.82-8.11l1.57-1.24c2.13,2.68,3.25,5.92,3.25,9.35v11.25Z" fill="#231f20"/>
    <path d="m49.26,65.75h-2v-11.15c0-3.37,1.15-6.67,3.22-9.28l1.56,1.25c-1.8,2.26-2.79,5.11-2.79,8.03v11.15h0Z" fill="#231f20"/>
    <polygon points="88.82 75.57 86.82 75.57 86.82 68.3 62.21 64.58 37.61 68.3 37.61 75.57 35.61 75.57 35.61 66.58 62.21 62.56 88.82 66.58 88.82 75.57" fill="#231f20"/>
    <polygon points="62.21 106.89 35.61 102.87 35.61 93.31 37.61 93.31 37.61 101.15 62.21 104.86 86.82 101.15 86.82 93.31 88.82 93.31 88.82 102.87 62.21 106.89" fill="#231f20"/>
  </g>
  <g>
    <path d="m49.38,96.77c-.07-.06-.32-.25-.69-.25-.61,0-1.06.35-1.06,1.22,0,.97.41,1.31,1,1.31.36,0,.58-.13.69-.22l.17.43c-.13.11-.4.3-.97.3-.88,0-1.49-.53-1.49-1.79s.84-1.74,1.62-1.74c.51,0,.76.19.9.29l-.18.45h.01Z" fill="#231f20"/>
    <path d="m51.51,99.56c-.83,0-1.45-.56-1.45-1.77s.73-1.76,1.53-1.76,1.45.55,1.45,1.76-.73,1.77-1.53,1.77Zm.04-3.03c-.53,0-.9.4-.9,1.26s.38,1.26.9,1.26.9-.41.9-1.26-.38-1.26-.9-1.26Z" fill="#231f20"/>
    <path d="m55.94,99.47v-1.99c0-.67-.19-.95-.6-.95-.48,0-.74.23-.87.36v2.58h-.57v-3.36h.53v.38h0c.14-.15.47-.46,1.03-.46.39,0,.69.16.86.5.17-.19.54-.5,1.07-.5.74,0,1.14.45,1.14,1.37v2.08h-.57v-1.99c0-.67-.25-.95-.71-.95-.4,0-.67.22-.81.36.04.15.05.31.05.5v2.08h-.57,0Z" fill="#231f20"/>
    <path d="m60.76,99.53c-.31,0-.51-.06-.64-.11v1.45h-.57v-4.76h.53v.38h.01c.09-.13.34-.46,1-.46.8,0,1.29.55,1.29,1.69,0,1.27-.71,1.82-1.63,1.82h0Zm-.64-2.63v1.95c.12.08.31.17.6.17.69,0,1.08-.34,1.08-1.27,0-.86-.35-1.23-.9-1.23-.46,0-.69.25-.78.37h0Z" fill="#231f20"/>
    <path d="m63.82,98.64c0,.32.1.42.32.42.12,0,.2-.03.24-.04l.04.41s-.2.1-.46.1c-.44,0-.7-.2-.7-.86v-4.15l.57-.06v4.19h-.01Z" fill="#231f20"/>
    <path d="m67.41,97.91h-1.95c.04.78.41,1.14,1.02,1.14.53,0,.79-.23.88-.31l.17.41c-.11.11-.4.41-1.11.41-.95,0-1.53-.55-1.53-1.81,0-1.18.69-1.72,1.46-1.72.69,0,1.13.47,1.13,1.32,0,.22-.03.41-.06.57h0Zm-1.95-.44h1.47c.01-.08.01-.15.01-.22,0-.47-.25-.74-.64-.74-.47,0-.8.34-.84.96Z" fill="#231f20"/>
    <path d="m69.95,96.59h-.87v1.74c0,.53.13.72.5.72.18,0,.32-.06.39-.1l.06.46c-.06.04-.25.15-.6.15-.66,0-.92-.38-.92-1.15v-1.81h-.46v-.4l.46-.08.06-.94h.5v.94h.94l-.07.48h.01Z" fill="#231f20"/>
    <path d="m73.07,97.91h-1.95c.04.78.41,1.14,1.02,1.14.53,0,.79-.23.88-.31l.17.41c-.11.11-.4.41-1.11.41-.95,0-1.53-.55-1.53-1.81,0-1.18.69-1.72,1.46-1.72.69,0,1.13.47,1.13,1.32,0,.22-.03.41-.06.57h0Zm-1.95-.44h1.47c.01-.08.01-.15.01-.22,0-.47-.25-.74-.64-.74-.47,0-.8.34-.84.96Z" fill="#231f20"/>
    <path d="m75.49,96.05c.29,0,.5.06.63.12v-1.65l.57-.06v5.01h-.53v-.38h-.01c-.09.13-.32.46-1,.46-.74,0-1.3-.6-1.3-1.7,0-1.3.83-1.81,1.64-1.81h0Zm.63,2.63v-1.96c-.12-.08-.3-.17-.6-.17-.65,0-1.08.36-1.08,1.27s.41,1.23.92,1.23c.46,0,.67-.25.76-.37Z" fill="#231f20"/>
  </g>
  <g>
    <path d="m56.41,57.89h1.86v.49h-2.56l-.04-.41c1.54-1.61,1.94-2.02,1.94-2.83,0-.56-.25-.89-.78-.89s-.86.32-.97.44l-.25-.41c.14-.15.54-.54,1.28-.54.88,0,1.32.53,1.32,1.31,0,.98-.6,1.64-1.79,2.83h-.01Z" fill="#231f20"/>
    <path d="m60.44,58.47c-.84,0-1.39-.69-1.39-2.36s.64-2.36,1.48-2.36,1.39.69,1.39,2.36-.64,2.36-1.48,2.36Zm.04-4.22c-.5,0-.85.5-.85,1.86s.35,1.86.85,1.86.85-.5.85-1.86-.35-1.86-.85-1.86Z" fill="#231f20"/>
    <path d="m63.41,57.89h1.86v.49h-2.56l-.04-.41c1.54-1.61,1.94-2.02,1.94-2.83,0-.56-.25-.89-.78-.89s-.86.32-.97.44l-.25-.41c.14-.15.54-.54,1.28-.54.88,0,1.32.53,1.32,1.31,0,.98-.6,1.64-1.79,2.83h-.01Z" fill="#231f20"/>
    <path d="m67.76,56.09h0c.51.15.92.46.92,1.16,0,.74-.51,1.23-1.39,1.23-.62,0-1-.31-1.15-.48l.24-.47c.12.13.39.45.9.45s.82-.24.82-.69c0-.6-.43-.92-1.2-.92h-.15l-.03-.48h.26c.7,0,1.03-.41,1.03-.95,0-.38-.22-.69-.66-.69s-.72.22-.87.37l-.2-.39c.17-.19.57-.48,1.16-.48.67,0,1.13.39,1.13,1.15,0,.65-.35,1.01-.81,1.18h0Z" fill="#231f20"/>
  </g>
  <g>
    <path d="m74.29,122c-.67.38-1.43.22-1.98-.75-.56-.98-.22-1.76.42-2.13.67-.38,1.42-.23,1.98.75.55.97.23,1.76-.42,2.13Zm-1.36-2.46c-.42.24-.54.74-.15,1.43.39.69.88.84,1.31.6.43-.25.54-.75.15-1.44-.4-.69-.88-.84-1.31-.6h0Z" fill="#231f20"/>
    <path d="m76.47,117.45l-.14,2.76h0l1.38-.78.19.41-1.94,1.11-.17-.29.15-2.76h0l-1.24.7-.22-.39,1.82-1.04.17.29h0Z" fill="#231f20"/>
    <path d="m79.42,115.84l-.41.24c.18.09.33.22.43.4.33.58.06,1.18-.54,1.52-.08.05-.16.08-.24.11-.07.09-.16.25-.07.39.06.11.19.14.4.03l.55-.32c.57-.33,1.03-.28,1.3.2.29.51.07,1.27-.87,1.81-.64.37-1.16.33-1.43-.15-.24-.41-.02-.76.09-.94h0c-.17-.03-.3-.14-.39-.3-.16-.28.01-.56.06-.64h0c-.35,0-.69-.15-.92-.55-.35-.61-.06-1.18.5-1.5.15-.08.3-.14.45-.16l.94-.54.15.39h0Zm-1.31.69c-.31.18-.5.48-.28.87.22.39.58.38.88.21.31-.18.5-.48.28-.87s-.58-.38-.88-.21Zm.83,2.57c-.09.16-.16.38,0,.64.17.31.45.32.86.09.66-.38.8-.79.64-1.07-.15-.26-.34-.28-.64-.11l-.6.34c-.09.05-.17.09-.24.11h-.02Z" fill="#231f20"/>
    <path d="m81.49,114.93c-.14-.03-.43-.07-.73.1-.29.17-.36.37-.27.53.12.21.3.24.67.22h.26c.54-.04.91.06,1.13.45.23.41.13.94-.53,1.32-.45.26-.79.22-.98.18l-.06-.5c.19.05.48.1.8-.09.34-.2.45-.43.34-.6-.15-.26-.37-.26-.77-.25h-.26c-.51.02-.83-.1-1.04-.47-.23-.4-.04-.91.47-1.2.43-.25.75-.19.89-.16l.06.46h.02Z" fill="#231f20"/>
    <path d="m84.78,114.22l-1.57.9c.39.61.86.73,1.35.45.43-.25.53-.55.57-.66l.32.25c-.04.14-.13.52-.71.85-.77.44-1.48.26-2.06-.75-.54-.95-.23-1.71.38-2.06.56-.32,1.12-.14,1.51.54.1.18.16.34.21.49h0Zm-1.78.55l1.18-.68c-.03-.08-.06-.13-.09-.19-.22-.38-.54-.48-.86-.3-.38.22-.48.65-.24,1.16h0Z" fill="#231f20"/>
    <path d="m86.77,111.86c-.08-.01-.37-.05-.67.12-.49.28-.69.77-.29,1.47.44.78.93.87,1.41.59.29-.17.41-.38.46-.5l.33.27c-.05.15-.18.43-.64.69-.71.41-1.44.26-2.02-.76-.56-.99-.12-1.79.51-2.15.41-.24.7-.2.86-.18l.06.45h-.01Z" fill="#231f20"/>
    <path d="m88.99,113.57c-.18.1-.39.06-.5-.14s-.05-.41.13-.51.4-.06.51.14.04.41-.14.51Z" fill="#231f20"/>
    <path d="m89.58,109.47c.24-.14.43-.18.56-.2l-.76-1.33.43-.31,2.3,4.04-.42.24-.17-.3h-.01c-.02.15-.05.53-.59.84-.59.34-1.32.12-1.82-.77-.59-1.04-.17-1.84.49-2.22h-.01Zm1.72,1.83l-.9-1.58c-.13-.01-.32,0-.56.14-.52.3-.7.79-.29,1.52.42.73.9.8,1.31.57.37-.21.42-.51.44-.65Z" fill="#231f20"/>
    <path d="m94.13,108.85l-1.57.9c.39.61.86.73,1.35.45.43-.25.53-.55.57-.66l.32.25c-.04.14-.13.52-.71.85-.77.44-1.48.26-2.06-.75-.54-.95-.23-1.71.38-2.06.56-.32,1.12-.14,1.51.54.1.18.16.34.21.49h0Zm-1.78.55l1.18-.68c-.03-.07-.06-.13-.09-.19-.21-.38-.53-.48-.86-.3-.38.22-.48.65-.24,1.16h0Z" fill="#231f20"/>
  </g>
  <g>
    <g>
      <g>
        <path d="m56.63,47.48c1.74-.8,3.67-1.23,5.71-1.23s3.96.43,5.7,1.22" fill="#ffca27"/>
        <path d="m56.79,47.82l-.31-.68c3.63-1.67,8.03-1.68,11.72,0l-.31.68c-3.49-1.58-7.66-1.57-11.1,0Z" fill="#231f20"/>
      </g>
      <g>
        <path d="m57.54,49.45l-1.81-3.94c2.09-1.27,4.32-1.85,6.65-1.85s4.46.48,6.56,1.83l-1.79,3.95c-3.02-1.37-6.64-1.36-9.61,0h0Z" fill="#ffca27"/>
        <path d="m57.35,49.95l-2.11-4.58.29-.17c2.09-1.26,4.39-1.9,6.84-1.9,2.6,0,4.75.6,6.76,1.89l.27.17-2.07,4.59-.34-.15c-2.93-1.33-6.4-1.32-9.3,0l-.34.16h0Zm-1.14-4.28l1.52,3.29c2.9-1.22,6.3-1.22,9.23,0l1.5-3.31c-1.81-1.09-3.75-1.6-6.08-1.6-2.2,0-4.27.55-6.16,1.62h0Z" fill="#231f20"/>
      </g>
    </g>
    <g>
      <path d="m70.51,43.28c-2.56-1.44-5.02-2.13-7.95-2.13s-5.61.79-8.14,2.23l-2.48-4.38c3.26-2.21,6.82-3.18,10.53-3.18s7.46.97,10.52,3.17c0,0-2.48,4.29-2.48,4.29Z" fill="#ee332e"/>
      <path d="m54.29,43.89l-2.84-5.01.29-.19c3.18-2.15,6.79-3.24,10.74-3.24s7.84,1.15,10.74,3.24l.28.2-2.83,4.9-.32-.18c-2.55-1.44-4.95-2.08-7.76-2.08s-5.37.71-7.95,2.18l-.33.19h-.02Zm-1.84-4.77l2.13,3.75c2.59-1.41,5.21-2.09,8-2.09s5.25.62,7.8,2l2.12-3.67c-2.74-1.88-6.29-2.91-10.02-2.91s-7.05.98-10.03,2.92h0Z" fill="#231f20"/>
    </g>
    <g>
      <path d="m74.13,36.81c-3.41-2.42-7.44-3.7-11.65-3.7s-8.46,1.21-11.88,3.63l-2.37-3.54c4.15-2.94,9.13-4.43,14.25-4.43s9.51,1.68,13.65,4.62l-2,3.41h0Z"/>
      <path d="m74.24,37.35l-.33-.24c-3.35-2.37-7.3-3.63-11.44-3.63s-8.42,1.27-11.66,3.56l-.31.22-2.79-4.16.3-.21c4.15-2.94,9.15-4.5,14.47-4.5,4.88,0,9.42,1.53,13.87,4.69l.28.2-2.38,4.06h0Zm-11.77-4.61c4.15,0,8.13,1.22,11.53,3.53l1.62-2.76c-4.23-2.93-8.54-4.36-13.16-4.36-5.03,0-9.77,1.43-13.73,4.15l1.96,2.91c3.32-2.25,7.48-3.48,11.78-3.48h0Z" fill="#231f20"/>
    </g>
  </g>
  <g>
    <path d="m46.08,74.64c-1.08,0-1.83-.75-1.83-2.18s.78-2.18,1.86-2.18,1.82.75,1.82,2.18-.78,2.18-1.86,2.18h.01Zm.02-3.89c-.79,0-1.28.59-1.28,1.72s.49,1.7,1.28,1.7,1.27-.6,1.27-1.7-.49-1.72-1.27-1.72Z" fill="#231f20"/>
    <path d="m51.25,70.69l-2.08,3.41h2.27s-.04.47-.04.47h-2.93v-.33l2.13-3.42h-2.02v-.45h2.67v.33h0Z" fill="#231f20"/>
    <path d="m53.93,70.29c.68,0,1.03.27,1.13.35l-.2.43c-.11-.08-.42-.32-.93-.32-.75,0-1.44.48-1.44,1.7s.49,1.72,1.38,1.72c.26,0,.48-.05.66-.12v-1.18h-.77v-.44h1.3v1.84c-.12.09-.52.37-1.25.37-1.09,0-1.89-.58-1.89-2.18s1-2.18,2-2.18h0Z" fill="#231f20"/>
    <path d="m60.2,71.03c-.07-.05-.36-.29-.77-.29-.48,0-.71.23-.71.51,0,.33.14.52.65.84l.37.23c.5.31.83.62.83,1.15,0,.71-.46,1.16-1.36,1.16-.63,0-1-.26-1.13-.37l.21-.49c.1.09.43.38.93.38.57,0,.81-.27.81-.62,0-.33-.19-.49-.65-.79l-.37-.24c-.55-.37-.82-.65-.82-1.23s.47-.99,1.22-.99c.6,0,.9.23,1.01.31l-.2.43h-.02Z" fill="#231f20"/>
    <path d="m63.34,73.21h-1.7c.04.66.35.97.87.97.44,0,.69-.2.77-.26l.16.37c-.07.07-.35.35-1,.35-.79,0-1.3-.48-1.3-1.58,0-1.02.59-1.49,1.26-1.49.6,0,.99.4.99,1.11,0,.21-.02.38-.05.53Zm-1.7-.38h1.28c.01-.07.01-.13.01-.2,0-.41-.21-.64-.56-.64-.41,0-.69.3-.73.83h0Z" fill="#231f20"/>
    <path d="m66.05,72.22c-.07-.05-.27-.21-.6-.21-.53,0-.92.3-.92,1.06,0,.83.34,1.12.85,1.12.32,0,.53-.12.62-.19l.15.38c-.11.09-.37.26-.88.26-.73,0-1.26-.45-1.26-1.54s.72-1.53,1.42-1.53c.44,0,.69.18.78.25l-.17.4h0Z" fill="#231f20"/>
    <path d="m67.33,73.37c0,.57.17.81.57.81s.63-.2.75-.31v-2.23h.49v2.92h-.46v-.33h-.01c-.09.11-.33.4-.9.4-.6,0-.93-.37-.93-1.19v-1.81h.49v1.73h0Z" fill="#231f20"/>
    <path d="m71.48,72.08s-.11-.05-.27-.05c-.39,0-.59.24-.68.41v2.13h-.49v-2.92h.46v.43h.01c.09-.21.29-.49.74-.49.12,0,.2.02.27.04l-.04.45Z" fill="#231f20"/>
    <path d="m72.35,70.94c-.19,0-.35-.13-.35-.35s.15-.35.35-.35.35.14.35.35-.16.35-.35.35Zm.24,3.63h-.49v-2.92h.49v2.92Z" fill="#231f20"/>
    <path d="m74.87,72.06h-.76v1.51c0,.44.12.61.41.61.18,0,.3-.05.36-.08l.06.41c-.06.04-.23.13-.54.13-.55,0-.79-.33-.79-1v-1.58h-.4v-.35l.4-.07.05-.82h.44v.82h.82l-.06.42h0Z" fill="#231f20"/>
    <path d="m76.63,74.75c-.24.68-.52,1.07-1.14,1.07-.15,0-.24-.04-.26-.05v-.43s.12.04.23.04c.4,0,.58-.18.74-.65l.06-.18-1.07-2.92h.53l.78,2.29h.01l.72-2.29h.48l-1.08,3.11h0Z" fill="#231f20"/>
  </g>
  <g>
    <path d="m34.92,77.55c1.85,0,2.83.86,3.01,1l-.74,1.6c-.24-.21-1.01-.81-2.17-.81-1.77,0-3.2,1.09-3.2,3.8s1.14,3.88,2.99,3.88c1.31,0,2.04-.55,2.39-.84l.6,1.55c-.35.32-1.25,1.12-3.31,1.12-2.83,0-4.91-1.55-4.91-5.68s2.63-5.62,5.34-5.62Z" fill="#231f20"/>
    <path d="m44.03,88.66v-4.56c0-1.14-.38-1.63-1.24-1.63-.65,0-1.11.27-1.41.54v5.65h-2v-11.16l2-.17v4.37h.03c.29-.33.9-.93,2.12-.93,1.62,0,2.49,1.09,2.49,3.01v4.89h-2,.01Z" fill="#231f20"/>
    <path d="m51.09,84.2h.32v-.27c0-1-.43-1.5-1.3-1.5-.95,0-1.55.49-1.82.74l-.62-1.27c.36-.38,1.27-1.14,2.85-1.14,1.81,0,2.82,1.01,2.82,3.23v2.6c0,.89.06,1.58.13,2.07h-1.84c-.02-.22-.05-.55-.05-.86h-.03c-.27.48-.74,1.05-1.84,1.05-1.27,0-2.15-.92-2.15-2.31,0-1.62,1.55-2.34,3.53-2.34h0Zm-.81,3.1c.6,0,.93-.27,1.12-.49v-1.41l-.4.02c-1.03.05-1.57.32-1.57.93,0,.55.36.95.84.95h.01Z" fill="#231f20"/>
    <path d="m57.28,86.18c0,.79.19,1,.68,1,.29,0,.51-.08.59-.11l.13,1.44c-.17.1-.62.3-1.33.3-1.28,0-2.06-.6-2.06-2.34v-8.96l2-.17v8.85h0Z" fill="#231f20"/>
    <path d="m61.86,86.18c0,.79.19,1,.68,1,.29,0,.51-.08.59-.11l.13,1.44c-.17.1-.62.3-1.33.3-1.28,0-2.06-.6-2.06-2.34v-8.96l2-.17v8.85h0Z" fill="#231f20"/>
    <path d="m70.17,85.35h-4.13c.11,1.3.82,1.82,2.09,1.82,1,0,1.63-.46,1.84-.62l.46,1.39c-.24.22-.92.9-2.74.9-2.09,0-3.58-1.17-3.58-4.1,0-2.74,1.6-3.99,3.52-3.99,1.66,0,2.68,1.06,2.68,3.09,0,.7-.06,1.14-.13,1.5h0Zm-4.15-1.33h2.49c.02-.14.02-.25.02-.36,0-.82-.4-1.35-1.09-1.35-.78,0-1.35.55-1.41,1.71h0Z" fill="#231f20"/>
    <path d="m76.69,88.66v-4.56c0-1.14-.38-1.63-1.24-1.63-.65,0-1.11.27-1.41.54v5.65h-2v-7.71h1.84v.86h.03c.29-.38.97-1.05,2.23-1.05,1.65,0,2.53,1.09,2.53,3.01v4.89h-2,.02Z" fill="#231f20"/>
    <path d="m82.9,92.02c-2.04,0-2.99-.76-2.99-2.03,0-1,.76-1.5,1.22-1.74v-.03c-.32-.25-.46-.6-.46-1.05,0-.86.71-1.36.95-1.5v-.03c-.78-.41-1.28-1.14-1.28-2.23,0-1.81,1.38-2.64,3.09-2.64.43,0,.84.06,1.2.19h2.68l-.19,1.24h-.93c.21.36.32.78.32,1.22,0,1.77-1.36,2.63-3.09,2.63-.25,0-.51-.02-.74-.06-.17.13-.35.32-.35.57,0,.27.16.44.55.44h1.66c1.66,0,2.66.67,2.66,2.11,0,1.55-1.46,2.93-4.29,2.93v-.02Zm.21-1.46c1.5,0,2.3-.52,2.3-1.22,0-.52-.29-.74-1.08-.74h-1.65c-.24,0-.44-.02-.63-.05-.22.19-.44.48-.44.95,0,.76.54,1.06,1.5,1.06Zm.33-8.41c-.7,0-1.33.36-1.33,1.25s.63,1.24,1.3,1.24,1.31-.36,1.31-1.24-.62-1.25-1.28-1.25Z" fill="#231f20"/>
    <path d="m94.29,85.35h-4.13c.11,1.3.82,1.82,2.09,1.82,1,0,1.63-.46,1.84-.62l.46,1.39c-.24.22-.92.9-2.74.9-2.09,0-3.58-1.17-3.58-4.1,0-2.74,1.6-3.99,3.52-3.99,1.66,0,2.68,1.06,2.68,3.09,0,.7-.06,1.14-.13,1.5h0Zm-4.15-1.33h2.49c.02-.14.02-.25.02-.36,0-.82-.4-1.35-1.09-1.35-.78,0-1.35.55-1.41,1.71h0Z" fill="#231f20"/>
  </g>
  <path d="m119.94,33.56L65.54,2.14l-3.71-2.14-3.71,2.14L3.71,33.56l-3.71,2.14v71.4l3.71,2.14,54.41,31.41,3.71,2.14,3.71-2.14,54.41-31.41,3.71-2.14V35.69l-3.71-2.14Zm-4.08,69.04l-53.86,31.09-53.86-31.09v-62.19L62,9.32l53.86,31.09v62.19Z" fill="#231f20"/>
</svg>