<?xml version="1.0" encoding="utf-8"?>
<!-- Generator: Adobe Illustrator 27.5.0, SVG Export Plug-In . SVG Version: 6.00 Build 0)  -->
<svg version="1.1" id="Layer_1" xmlns="http://www.w3.org/2000/svg" xmlns:xlink="http://www.w3.org/1999/xlink" x="0px" y="0px"
	 viewBox="0 0 123.6 142.8" style="enable-background:new 0 0 123.6 142.8;" xml:space="preserve">
<style type="text/css">
	.st0{fill:#231F20;}
	.st1{fill:#FFCA27;}
	.st2{fill:#EE332E;}
</style>
<g>
	<path class="st0" d="M82,64.1h-2V52.8c0-4.9-1.9-9.4-5.3-12.9l0,0c0,0,0.1,0.1,0.2,0.1l0.9-1.8c0.2,0.1,0.3,0.2,0.3,0.2
		c3.8,3.8,5.9,8.9,5.9,14.3L82,64.1L82,64.1z"/>
	<path class="st0" d="M43.8,64.1h-2V52.9c0-5.8,2.2-11.1,6-14.3l1.3,1.5c-3.3,2.7-5.3,7.6-5.3,12.8L43.8,64.1L43.8,64.1z"/>
	<path class="st0" d="M76.9,63.3h-2V52c0-3-1-5.8-2.8-8.1l1.6-1.2c2.1,2.7,3.2,5.9,3.2,9.4V63.3z"/>
	<path class="st0" d="M48.9,63.3h-2V52.2c0-3.4,1.2-6.7,3.2-9.3l1.6,1.2c-1.8,2.3-2.8,5.1-2.8,8L48.9,63.3L48.9,63.3z"/>
	<polygon class="st0" points="88.4,78.4 86.4,78.4 86.4,65.9 61.8,62.2 37.2,65.9 37.2,78.4 35.2,78.4 35.2,64.2 61.8,60.1 
		88.4,64.2 	"/>
	<polygon class="st0" points="61.7,105.1 35.2,101.8 35.2,95.1 37.2,95.1 37.2,100 61.7,103.1 86.4,100 86.4,95.1 88.4,95.1 
		88.4,101.8 	"/>
</g>
<g>
	<g>
		<g>
			<path class="st1" d="M56.3,44.6c1.7-0.8,3.7-1.2,5.7-1.2c2,0,4,0.4,5.7,1.2"/>
			<path class="st0" d="M56.5,45l-0.3-0.7c3.6-1.7,8-1.7,11.7,0l-0.3,0.7C64.1,43.4,59.9,43.4,56.5,45z"/>
		</g>
		<g>
			<path class="st1" d="M57.2,46.6l-1.8-3.9c2.1-1.3,4.3-1.8,6.7-1.8c2.3,0,4.5,0.5,6.6,1.8l-1.8,4C63.8,45.2,60.2,45.2,57.2,46.6
				L57.2,46.6z"/>
			<path class="st0" d="M57.1,47.1l-2.1-4.6l0.3-0.2c2.1-1.3,4.4-1.9,6.8-1.9c2.6,0,4.8,0.6,6.8,1.9l0.3,0.2L67,47.1l-0.3-0.2
				c-2.9-1.3-6.4-1.3-9.3,0L57.1,47.1L57.1,47.1z M55.9,42.8l1.5,3.3c2.9-1.2,6.3-1.2,9.2,0l1.5-3.3c-1.8-1.1-3.8-1.6-6.1-1.6
				C59.9,41.2,57.8,41.7,55.9,42.8L55.9,42.8z"/>
		</g>
	</g>
	<g>
		<path class="st2" d="M70.2,40.4c-2.6-1.4-5-2.1-8-2.1c-2.9,0-5.6,0.8-8.1,2.2l-2.5-4.4c3.3-2.2,6.8-3.2,10.5-3.2
			c3.7,0,7.5,1,10.5,3.2C72.7,36.1,70.2,40.4,70.2,40.4z"/>
		<path class="st0" d="M54,41l-2.8-5l0.3-0.2c3.2-2.2,6.8-3.2,10.7-3.2s7.8,1.2,10.7,3.2l0.3,0.2l-2.8,4.9L70,40.7
			c-2.6-1.4-4.9-2.1-7.8-2.1c-2.8,0-5.4,0.7-8,2.2L54,41L54,41z M52.1,36.3l2.1,3.8c2.6-1.4,5.2-2.1,8-2.1c2.8,0,5.3,0.6,7.8,2
			l2.1-3.7c-2.7-1.9-6.3-2.9-10-2.9C58.4,33.3,55.1,34.3,52.1,36.3L52.1,36.3z"/>
	</g>
	<g>
		<path class="st0" d="M73.8,33.9c-3.4-2.4-7.4-3.7-11.7-3.7s-8.5,1.2-11.9,3.6l-2.4-3.5c4.2-2.9,9.1-4.4,14.2-4.4s9.5,1.7,13.7,4.6
			L73.8,33.9L73.8,33.9z"/>
		<path class="st0" d="M73.9,34.5l-0.3-0.2c-3.3-2.4-7.3-3.6-11.4-3.6s-8.4,1.3-11.7,3.6l-0.3,0.2l-2.8-4.2l0.3-0.2
			c4.2-2.9,9.1-4.5,14.5-4.5c4.9,0,9.4,1.5,13.9,4.7l0.3,0.2L73.9,34.5L73.9,34.5z M62.2,29.9c4.2,0,8.1,1.2,11.5,3.5l1.6-2.8
			c-4.2-2.9-8.5-4.4-13.2-4.4c-5,0-9.8,1.4-13.7,4.2l2,2.9C53.7,31.1,57.9,29.9,62.2,29.9L62.2,29.9z"/>
	</g>
</g>
<g>
	<path class="st0" d="M75,120.4c-0.7,0.4-1.4,0.2-2-0.8s-0.2-1.8,0.4-2.1s1.4-0.2,2,0.8C76,119.3,75.7,120.1,75,120.4z M73.7,118
		c-0.4,0.2-0.6,0.7-0.2,1.4s0.9,0.9,1.3,0.6s0.6-0.7,0.2-1.4S74.1,117.7,73.7,118z"/>
	<path class="st0" d="M77.2,115.9l-0.2,2.7l0,0l1.4-0.8l0.2,0.4l-1.9,1.1l-0.2-0.3l0.2-2.8l0,0l-1.2,0.7l-0.2-0.4l1.8-1
		C77,115.6,77.2,115.9,77.2,115.9z"/>
	<path class="st0" d="M80.2,114.3l-0.4,0.2c0.2,0.1,0.3,0.2,0.4,0.4c0.3,0.6,0.1,1.2-0.6,1.5c-0.1,0.1-0.2,0.1-0.2,0.1
		c-0.1,0.1-0.2,0.2-0.1,0.4c0.1,0.1,0.2,0.1,0.4,0l0.6-0.3c0.6-0.3,1-0.3,1.3,0.2c0.3,0.5,0.1,1.3-0.9,1.8c-0.7,0.4-1.2,0.3-1.4-0.2
		c-0.2-0.4,0-0.8,0.1-0.9l0,0c-0.2,0-0.3-0.2-0.4-0.3c-0.2-0.3,0-0.6,0.1-0.6l0,0c-0.3,0-0.7-0.2-0.9-0.6c-0.3-0.6-0.1-1.2,0.5-1.5
		c0.2-0.1,0.3-0.1,0.4-0.2l0.9-0.5L80.2,114.3L80.2,114.3z M79.7,117.6c-0.1,0.2-0.2,0.4,0,0.6c0.2,0.3,0.4,0.3,0.9,0.1
		c0.7-0.4,0.8-0.8,0.7-1.1c-0.2-0.3-0.3-0.3-0.7-0.1l-0.6,0.3C79.8,117.5,79.8,117.6,79.7,117.6L79.7,117.6z M78.9,115
		c-0.3,0.2-0.5,0.5-0.3,0.9s0.6,0.4,0.9,0.2s0.5-0.5,0.3-0.9S79.2,114.8,78.9,115z"/>
	<path class="st0" d="M82.2,113.4c-0.1,0-0.4-0.1-0.7,0.1s-0.4,0.4-0.3,0.5c0.1,0.2,0.3,0.2,0.7,0.2h0.3c0.6,0,0.9,0.1,1.1,0.5
		s0.1,0.9-0.5,1.3c-0.4,0.3-0.8,0.2-1,0.2l-0.1-0.5c0.2,0.1,0.5,0.1,0.8-0.1c0.3-0.2,0.4-0.4,0.3-0.6c-0.2-0.3-0.4-0.3-0.8-0.2h-0.3
		c-0.5,0-0.8-0.1-1-0.5c-0.2-0.4,0-0.9,0.5-1.2c0.4-0.2,0.8-0.2,0.9-0.2C82.2,113,82.2,113.4,82.2,113.4z"/>
	<path class="st0" d="M85.5,112.7l-1.6,0.9c0.4,0.6,0.8,0.7,1.3,0.5c0.4-0.2,0.5-0.6,0.6-0.7l0.3,0.2c0,0.1-0.1,0.5-0.7,0.8
		c-0.8,0.4-1.5,0.2-2.1-0.8c-0.5-0.9-0.2-1.7,0.4-2.1c0.6-0.3,1.1-0.1,1.5,0.6C85.4,112.4,85.5,112.6,85.5,112.7z M83.8,113.3
		l1.2-0.7c0-0.1-0.1-0.1-0.1-0.2c-0.2-0.4-0.5-0.5-0.9-0.3C83.6,112.3,83.5,112.8,83.8,113.3z"/>
	<path class="st0" d="M87.6,110.4c-0.1,0-0.4-0.1-0.7,0.1c-0.5,0.3-0.7,0.8-0.3,1.5c0.4,0.8,0.9,0.9,1.4,0.6
		c0.3-0.2,0.4-0.4,0.5-0.5l0.3,0.3c-0.1,0.2-0.2,0.4-0.6,0.7c-0.7,0.4-1.4,0.2-2-0.8s-0.1-1.8,0.5-2.1c0.4-0.2,0.7-0.2,0.9-0.2
		L87.6,110.4L87.6,110.4z"/>
	<path class="st0" d="M89.8,112.1c-0.2,0.1-0.4,0.1-0.5-0.1s0-0.4,0.1-0.5s0.4-0.1,0.5,0.1S89.9,112,89.8,112.1L89.8,112.1z"/>
	<path class="st0" d="M90.4,108c0.2-0.1,0.4-0.2,0.6-0.2l-0.8-1.3l0.4-0.3l2.3,4.1l-0.4,0.2l-0.2-0.3h0c0,0.2-0.1,0.5-0.6,0.8
		c-0.6,0.3-1.3,0.1-1.8-0.8C89.3,109.2,89.7,108.4,90.4,108L90.4,108z M92.1,109.9l-0.9-1.6c-0.1,0-0.3,0-0.6,0.1
		c-0.5,0.3-0.7,0.8-0.3,1.5s0.9,0.8,1.3,0.6C92,110.3,92.1,110,92.1,109.9L92.1,109.9z"/>
	<path class="st0" d="M94.9,107.4l-1.6,0.9c0.4,0.6,0.8,0.7,1.3,0.5c0.4-0.2,0.5-0.6,0.6-0.7l0.3,0.2c0,0.1-0.1,0.5-0.7,0.8
		c-0.8,0.4-1.5,0.2-2.1-0.8c-0.5-0.9-0.2-1.7,0.4-2.1c0.6-0.3,1.1-0.1,1.5,0.6C94.8,107.1,94.9,107.3,94.9,107.4z M93.2,108l1.2-0.7
		c0-0.1-0.1-0.1-0.1-0.2c-0.2-0.4-0.5-0.5-0.9-0.3C93,107,92.9,107.5,93.2,108z"/>
</g>
<g>
	<path class="st0" d="M42.9,76.4c-1.3,0-2.2-0.9-2.2-2.6s0.9-2.6,2.2-2.6s2.2,0.9,2.2,2.6S44.2,76.4,42.9,76.4z M42.9,71.8
		c-0.9,0-1.5,0.7-1.5,2.1s0.6,2,1.5,2s1.5-0.7,1.5-2S43.8,71.8,42.9,71.8z"/>
	<path class="st0" d="M49,71.7l-2.5,4.1l0,0l2.7,0l0,0.5h-3.5v-0.4l2.5-4.1l0,0l-2.4,0v-0.5H49L49,71.7L49,71.7z"/>
	<path class="st0" d="M52.2,71.2c0.8,0,1.2,0.3,1.3,0.4l-0.2,0.5c-0.1-0.1-0.5-0.4-1.1-0.4c-0.9,0-1.7,0.6-1.7,2s0.6,2.1,1.7,2.1
		c0.3,0,0.6-0.1,0.8-0.2v-1.4H52v-0.5h1.5V76c-0.2,0.1-0.6,0.4-1.5,0.4c-1.3,0-2.2-0.7-2.2-2.6S51,71.2,52.2,71.2L52.2,71.2z"/>
	<path class="st0" d="M59.7,72.1c-0.1-0.1-0.4-0.3-0.9-0.3c-0.6,0-0.8,0.3-0.8,0.6c0,0.4,0.2,0.6,0.8,1l0.4,0.3c0.6,0.4,1,0.7,1,1.4
		c0,0.8-0.6,1.4-1.6,1.4c-0.8,0-1.2-0.3-1.3-0.4l0.2-0.6c0.1,0.1,0.5,0.5,1.1,0.5c0.7,0,1-0.3,1-0.7c0-0.4-0.2-0.6-0.8-0.9l-0.4-0.3
		c-0.7-0.4-1-0.8-1-1.5s0.6-1.2,1.4-1.2c0.7,0,1.1,0.3,1.2,0.4L59.7,72.1L59.7,72.1z"/>
	<path class="st0" d="M63.4,74.7h-2c0,0.8,0.4,1.2,1,1.2c0.5,0,0.8-0.2,0.9-0.3l0.2,0.4c-0.1,0.1-0.4,0.4-1.2,0.4
		c-0.9,0-1.6-0.6-1.6-1.9c0-1.2,0.7-1.8,1.5-1.8c0.7,0,1.2,0.5,1.2,1.3C63.5,74.3,63.5,74.5,63.4,74.7L63.4,74.7z M61.4,74.2h1.5
		c0-0.1,0-0.2,0-0.2c0-0.5-0.2-0.8-0.7-0.8C61.8,73.2,61.4,73.6,61.4,74.2L61.4,74.2z"/>
	<path class="st0" d="M66.7,73.5c-0.1-0.1-0.3-0.2-0.7-0.2c-0.6,0-1.1,0.4-1.1,1.3c0,1,0.4,1.3,1,1.3c0.4,0,0.6-0.2,0.7-0.2l0.2,0.5
		c-0.1,0.1-0.4,0.3-1.1,0.3c-0.9,0-1.5-0.5-1.5-1.8s0.9-1.8,1.7-1.8c0.5,0,0.8,0.2,0.9,0.3L66.7,73.5L66.7,73.5z"/>
	<path class="st0" d="M68.2,74.9c0,0.7,0.2,1,0.7,1s0.8-0.2,0.9-0.4v-2.7h0.6v3.5h-0.5v-0.4h0c-0.1,0.1-0.4,0.5-1.1,0.5
		c-0.7,0-1.1-0.4-1.1-1.4v-2.2h0.6L68.2,74.9L68.2,74.9z"/>
	<path class="st0" d="M73.1,73.3c0,0-0.1-0.1-0.3-0.1c-0.5,0-0.7,0.3-0.8,0.5v2.5h-0.6v-3.5H72v0.5h0c0.1-0.2,0.3-0.6,0.9-0.6
		c0.2,0,0.2,0,0.3,0.1L73.1,73.3L73.1,73.3z"/>
	<path class="st0" d="M74.2,72c-0.2,0-0.4-0.2-0.4-0.4s0.2-0.4,0.4-0.4s0.4,0.2,0.4,0.4S74.4,72,74.2,72z M74.5,76.3h-0.6v-3.5h0.6
		V76.3z"/>
	<path class="st0" d="M77.2,73.3h-0.9v1.8c0,0.5,0.1,0.7,0.5,0.7c0.2,0,0.4-0.1,0.4-0.1l0.1,0.5c-0.1,0-0.3,0.2-0.6,0.2
		c-0.7,0-0.9-0.4-0.9-1.2v-1.9h-0.5v-0.4l0.5-0.1l0.1-1h0.5v1h1L77.2,73.3L77.2,73.3z"/>
	<path class="st0" d="M79.3,76.5c-0.3,0.8-0.6,1.3-1.4,1.3c-0.2,0-0.3-0.1-0.3-0.1v-0.5c0,0,0.1,0.1,0.3,0.1c0.5,0,0.7-0.2,0.9-0.8
		l0.1-0.2l-1.3-3.5h0.6l0.9,2.7h0l0.9-2.7h0.6L79.3,76.5L79.3,76.5z"/>
</g>
<g>
	<path class="st0" d="M36,80c1.8,0,2.7,0.8,2.9,0.9l-0.7,1.5c-0.2-0.2-1-0.8-2.1-0.8c-1.7,0-3,1-3,3.6s1.1,3.7,2.9,3.7
		c1.2,0,2-0.5,2.3-0.8l0.6,1.5c-0.3,0.3-1.2,1.1-3.2,1.1c-2.7,0-4.7-1.5-4.7-5.4S33.4,80,36,80L36,80z"/>
	<path class="st0" d="M44.7,90.6v-4.3c0-1.1-0.4-1.6-1.2-1.6c-0.6,0-1.1,0.3-1.3,0.5v5.4h-1.9V80l1.9-0.2V84h0
		c0.3-0.3,0.9-0.9,2-0.9c1.5,0,2.4,1,2.4,2.9v4.7L44.7,90.6L44.7,90.6z"/>
	<path class="st0" d="M51.4,86.4h0.3v-0.3c0-0.9-0.4-1.4-1.2-1.4c-0.9,0-1.5,0.5-1.7,0.7l-0.6-1.2c0.3-0.4,1.2-1.1,2.7-1.1
		c1.7,0,2.7,1,2.7,3.1v2.5c0,0.8,0.1,1.5,0.1,2H52c0-0.2,0-0.5,0-0.8h0c-0.3,0.4-0.7,1-1.8,1c-1.2,0-2.1-0.9-2.1-2.2
		C48.1,87,49.5,86.3,51.4,86.4L51.4,86.4z M50.7,89.3c0.6,0,0.9-0.3,1.1-0.5v-1.3l-0.4,0c-1,0.1-1.5,0.3-1.5,0.9
		C49.9,88.9,50.2,89.3,50.7,89.3L50.7,89.3z"/>
	<path class="st0" d="M57.4,88.2c0,0.8,0.2,0.9,0.7,0.9c0.3,0,0.5-0.1,0.6-0.1l0.1,1.4c-0.2,0.1-0.6,0.3-1.3,0.3c-1.2,0-2-0.6-2-2.2
		V80l1.9-0.2C57.4,79.8,57.4,88.2,57.4,88.2z"/>
	<path class="st0" d="M61.7,88.2c0,0.8,0.2,0.9,0.7,0.9c0.3,0,0.5-0.1,0.6-0.1l0.1,1.4c-0.2,0.1-0.6,0.3-1.3,0.3c-1.2,0-2-0.6-2-2.2
		V80l1.9-0.2C61.7,79.8,61.7,88.2,61.7,88.2z"/>
	<path class="st0" d="M69.7,87.5h-3.9c0.1,1.2,0.8,1.7,2,1.7c0.9,0,1.6-0.4,1.8-0.6l0.4,1.3c-0.2,0.2-0.9,0.9-2.6,0.9
		c-2,0-3.4-1.1-3.4-3.9c0-2.6,1.5-3.8,3.4-3.8c1.6,0,2.6,1,2.6,2.9C69.8,86.7,69.7,87.1,69.7,87.5L69.7,87.5z M65.7,86.2h2.4
		c0-0.1,0-0.2,0-0.3c0-0.8-0.4-1.3-1-1.3C66.3,84.6,65.8,85.1,65.7,86.2z"/>
	<path class="st0" d="M75.9,90.6v-4.3c0-1.1-0.4-1.6-1.2-1.6c-0.6,0-1.1,0.3-1.3,0.5v5.4h-1.9v-7.4h1.8v0.8h0c0.3-0.4,0.9-1,2.1-1
		c1.6,0,2.4,1,2.4,2.9v4.7C77.8,90.6,75.9,90.6,75.9,90.6z"/>
	<path class="st0" d="M81.8,93.8c-1.9,0-2.9-0.7-2.9-1.9c0-0.9,0.7-1.4,1.2-1.7v0c-0.3-0.2-0.4-0.6-0.4-1c0-0.8,0.7-1.3,0.9-1.4v0
		c-0.7-0.4-1.2-1.1-1.2-2.1c0-1.7,1.3-2.5,2.9-2.5c0.4,0,0.8,0.1,1.2,0.2H86l-0.2,1.2h-0.9c0.2,0.3,0.3,0.7,0.3,1.2
		c0,1.7-1.3,2.5-2.9,2.5c-0.2,0-0.5,0-0.7-0.1c-0.2,0.1-0.3,0.3-0.3,0.5c0,0.3,0.2,0.4,0.5,0.4h1.6c1.6,0,2.5,0.6,2.5,2
		C85.9,92.5,84.5,93.8,81.8,93.8L81.8,93.8z M82,92.4c1.4,0,2.2-0.5,2.2-1.2c0-0.5-0.3-0.7-1-0.7h-1.6c-0.2,0-0.4,0-0.6-0.1
		c-0.2,0.2-0.4,0.4-0.4,0.9C80.6,92.2,81.1,92.4,82,92.4L82,92.4z M82.3,84.4c-0.7,0-1.3,0.3-1.3,1.2s0.6,1.2,1.2,1.2
		s1.2-0.3,1.2-1.2S83,84.4,82.3,84.4z"/>
	<path class="st0" d="M92.7,87.5h-3.9c0.1,1.2,0.8,1.7,2,1.7c0.9,0,1.6-0.4,1.8-0.6l0.4,1.3c-0.2,0.2-0.9,0.9-2.6,0.9
		c-2,0-3.4-1.1-3.4-3.9c0-2.6,1.5-3.8,3.4-3.8c1.6,0,2.6,1,2.6,2.9C92.8,86.7,92.7,87.1,92.7,87.5L92.7,87.5z M88.7,86.2h2.4
		c0-0.1,0-0.2,0-0.3c0-0.8-0.4-1.3-1-1.3C89.3,84.6,88.8,85.1,88.7,86.2z"/>
</g>
<path class="st0" d="M119.9,33.6L65.5,2.1L61.8,0l-3.7,2.1L3.7,33.6L0,35.7v71.4l3.7,2.1l54.4,31.4l3.7,2.1l3.7-2.1l54.4-31.4
	l3.7-2.1V35.7L119.9,33.6z M115.9,102.6L62,133.7L8.1,102.6V40.4L62,9.3l53.9,31.1V102.6z"/>
</svg>
