<?xml version="1.0" encoding="UTF-8"?>
<svg id="Layer_1" data-name="Layer 1" xmlns="http://www.w3.org/2000/svg" viewBox="0 0 141.73 163.65">
  <g>
    <path d="m91.07,74.39h-2v-11.31c0-4.86-1.89-9.43-5.33-12.86h0s.06.06.17.11l.89-1.79c.17.08.28.19.34.25,3.82,3.82,5.92,8.9,5.92,14.29v11.31Z" fill="#231f20"/>
    <path d="m52.84,74.43h-2v-11.2c0-5.81,2.24-11.15,6-14.29l1.28,1.54c-3.26,2.72-5.29,7.61-5.29,12.76v11.2Z" fill="#231f20"/>
    <path d="m85.95,73.6h-2v-11.25c0-2.98-.97-5.78-2.82-8.11l1.57-1.24c2.13,2.68,3.25,5.92,3.25,9.35v11.25Z" fill="#231f20"/>
    <path d="m57.91,73.66h-2v-11.15c0-3.37,1.15-6.67,3.22-9.28l1.56,1.25c-1.8,2.26-2.79,5.11-2.79,8.03v11.15Z" fill="#231f20"/>
    <polygon points="97.47 88.68 95.47 88.68 95.47 76.21 70.86 72.49 46.26 76.21 46.26 88.68 44.26 88.68 44.26 74.49 70.86 70.47 97.47 74.49 97.47 88.68" fill="#231f20"/>
    <polygon points="70.72 115.46 44.26 112.11 44.26 105.47 46.26 105.47 46.26 110.34 70.72 113.44 95.47 110.34 95.47 105.47 97.47 105.47 97.47 112.11 70.72 115.46" fill="#231f20"/>
  </g>
  <g>
    <g>
      <g>
        <path d="m65.27,54.94c1.74-.8,3.67-1.23,5.71-1.23s3.96.43,5.7,1.22" fill="#ffca27"/>
        <path d="m65.43,55.28l-.31-.68c3.63-1.67,8.03-1.68,11.72-.01l-.31.68c-3.49-1.58-7.66-1.57-11.1.01Z" fill="#231f20"/>
      </g>
      <g>
        <path d="m66.18,56.91l-1.81-3.94c2.09-1.27,4.32-1.85,6.65-1.85s4.46.48,6.56,1.83l-1.79,3.95c-3.02-1.37-6.64-1.36-9.61,0Z" fill="#ffca27"/>
        <path d="m66,57.41l-2.11-4.58.29-.17c2.09-1.26,4.39-1.9,6.84-1.9,2.6,0,4.75.6,6.76,1.89l.27.17-2.07,4.59-.34-.15c-2.93-1.33-6.41-1.32-9.3,0l-.34.16Zm-1.14-4.28l1.52,3.29c2.9-1.22,6.3-1.22,9.23,0l1.5-3.31c-1.81-1.09-3.75-1.6-6.08-1.6-2.2,0-4.27.55-6.16,1.62Z" fill="#231f20"/>
      </g>
    </g>
    <g>
      <path d="m79.15,50.74c-2.56-1.44-5.02-2.13-7.95-2.13s-5.61.79-8.14,2.23l-2.48-4.38c3.26-2.21,6.82-3.18,10.53-3.18s7.46.97,10.52,3.17l-2.48,4.29Z" fill="#ee332e"/>
      <path d="m62.93,51.35l-2.84-5.01.29-.19c3.18-2.15,6.79-3.24,10.74-3.24s7.84,1.15,10.74,3.24l.28.2-2.83,4.9-.32-.18c-2.55-1.44-4.95-2.08-7.76-2.08s-5.38.71-7.95,2.18l-.33.19Zm-1.84-4.77l2.13,3.75c2.59-1.41,5.21-2.09,8-2.09s5.25.62,7.8,2l2.12-3.67c-2.74-1.88-6.29-2.91-10.02-2.91s-7.05.98-10.03,2.92Z" fill="#231f20"/>
    </g>
    <g>
      <path d="m82.77,44.26c-3.41-2.42-7.44-3.7-11.65-3.7s-8.46,1.21-11.88,3.63l-2.37-3.54c4.15-2.94,9.13-4.43,14.25-4.43s9.51,1.68,13.65,4.62l-2,3.41Z" fill="#231f20"/>
      <path d="m82.89,44.81l-.33-.24c-3.35-2.37-7.3-3.63-11.44-3.63s-8.42,1.27-11.66,3.56l-.31.22-2.79-4.16.3-.21c4.15-2.94,9.15-4.5,14.47-4.5,4.88,0,9.42,1.53,13.87,4.69l.28.2-2.38,4.06Zm-11.77-4.61c4.15,0,8.13,1.22,11.53,3.53l1.62-2.76c-4.23-2.93-8.54-4.36-13.16-4.36-5.03,0-9.77,1.43-13.73,4.15l1.96,2.91c3.32-2.25,7.48-3.48,11.78-3.48Z" fill="#231f20"/>
    </g>
  </g>
  <g>
    <path d="m83.95,130.77c-.67.38-1.43.21-1.98-.77s-.22-1.76.44-2.13,1.42-.22,1.98.77.21,1.76-.44,2.13Zm-1.34-2.46c-.42.24-.55.73-.16,1.43s.88.85,1.31.61.55-.74.16-1.43-.88-.85-1.31-.61Z" fill="#231f20"/>
    <path d="m86.15,126.24l-.16,2.75h0s1.38-.77,1.38-.77l.19.41-1.95,1.1-.17-.29.17-2.76h0s-1.24.69-1.24.69l-.22-.39,1.83-1.03.17.29Z" fill="#231f20"/>
    <path d="m89.12,124.65l-.41.23c.18.09.33.23.43.41.33.58.06,1.18-.55,1.52-.08.05-.16.08-.24.11-.07.09-.16.25-.08.39.06.11.19.14.4.03l.55-.31c.57-.32,1.03-.27,1.31.21.29.51.07,1.27-.88,1.8-.65.36-1.16.33-1.43-.16-.23-.41-.02-.76.1-.94h0c-.17-.03-.3-.15-.39-.3-.16-.28.01-.56.07-.64h0c-.35,0-.69-.15-.91-.56-.34-.61-.06-1.18.51-1.5.15-.08.3-.14.45-.16l.94-.53.14.39Zm-.5,3.25c-.09.16-.16.38-.01.64.17.31.45.32.86.09.66-.37.8-.79.65-1.07-.15-.26-.34-.29-.65-.11l-.6.34c-.09.05-.17.09-.24.11Zm-.81-2.57c-.31.18-.51.48-.29.87s.58.38.88.21.51-.48.29-.87-.58-.38-.88-.21Z" fill="#231f20"/>
    <path d="m91.19,123.76c-.14-.02-.43-.07-.73.1s-.37.37-.28.53c.12.22.3.24.67.23h.26c.55-.04.91.06,1.13.46s.13.94-.53,1.32c-.45.26-.79.21-.98.17l-.06-.5c.19.05.48.1.81-.08.35-.19.45-.42.35-.6-.15-.26-.37-.26-.77-.25h-.26c-.51.01-.83-.1-1.04-.48-.23-.4-.03-.91.48-1.2.44-.25.75-.18.89-.16l.06.46Z" fill="#231f20"/>
    <path d="m94.49,123.07l-1.58.89c.39.61.85.73,1.35.46.43-.24.53-.55.57-.66l.32.25c-.04.14-.13.52-.71.84-.77.43-1.49.25-2.06-.76-.54-.95-.22-1.71.39-2.06.56-.32,1.13-.13,1.51.55.1.18.16.34.21.49Zm-1.78.53l1.19-.67c-.03-.07-.06-.13-.09-.19-.21-.38-.53-.48-.86-.3-.38.21-.49.64-.24,1.16Z" fill="#231f20"/>
    <path d="m96.5,120.72c-.08-.01-.37-.05-.67.12-.49.28-.7.77-.3,1.47.44.78.93.87,1.41.6.29-.16.41-.37.46-.5l.33.27c-.05.15-.19.43-.64.68-.71.4-1.44.25-2.02-.77s-.11-1.79.52-2.14c.41-.23.7-.19.86-.17l.06.45Z" fill="#231f20"/>
    <path d="m98.71,122.45c-.18.1-.39.06-.51-.14s-.04-.41.14-.51.4-.05.51.14.03.41-.15.51Z" fill="#231f20"/>
    <path d="m99.33,118.36c.24-.13.43-.18.56-.19l-.75-1.33.43-.31,2.29,4.05-.42.24-.17-.31h-.01c-.02.15-.05.53-.6.84-.59.34-1.32.11-1.82-.78-.59-1.05-.16-1.84.5-2.21Zm1.71,1.84l-.89-1.59c-.13-.01-.32,0-.56.14-.53.3-.71.78-.29,1.52s.9.81,1.3.58c.37-.21.42-.51.45-.65Z" fill="#231f20"/>
    <path d="m103.88,117.77l-1.58.89c.39.61.85.73,1.35.46.43-.24.53-.55.57-.66l.32.25c-.04.14-.13.52-.71.84-.77.43-1.49.25-2.06-.76-.54-.95-.22-1.71.39-2.06.56-.32,1.13-.13,1.51.55.1.18.16.34.21.49Zm-1.78.53l1.19-.67c-.03-.07-.06-.13-.09-.19-.21-.38-.53-.48-.86-.3-.38.21-.49.64-.24,1.16Z" fill="#231f20"/>
  </g>
  <g>
    <path d="m51.82,86.72c-1.29,0-2.18-.89-2.18-2.59s.93-2.59,2.22-2.59,2.17.89,2.17,2.59-.93,2.59-2.21,2.59Zm.02-4.64c-.94,0-1.52.7-1.52,2.05s.58,2.03,1.52,2.03,1.52-.72,1.52-2.03-.58-2.05-1.52-2.05Z" fill="#231f20"/>
    <path d="m57.98,82.02l-2.48,4.06h0s2.7.01,2.7.01l-.04.54h-3.49v-.39l2.54-4.08h0s-2.41-.01-2.41-.01v-.52h3.19v.39Z" fill="#231f20"/>
    <path d="m61.17,81.54c.81,0,1.23.33,1.35.41l-.24.51c-.13-.09-.5-.38-1.11-.38-.89,0-1.71.57-1.71,2.03s.58,2.05,1.65,2.05c.31,0,.57-.07.78-.15v-1.4h-.92v-.52h1.55v2.19c-.15.11-.62.44-1.49.44-1.3,0-2.25-.7-2.25-2.59s1.19-2.59,2.39-2.59Z" fill="#231f20"/>
    <path d="m68.64,82.42c-.09-.07-.43-.34-.92-.34-.57,0-.84.28-.84.61,0,.39.17.62.78,1l.44.27c.6.37.99.74.99,1.37,0,.84-.55,1.39-1.62,1.39-.76,0-1.19-.3-1.35-.44l.25-.58c.12.11.52.46,1.1.46.68,0,.97-.32.97-.73,0-.39-.23-.58-.78-.94l-.44-.29c-.66-.44-.98-.78-.98-1.47s.56-1.18,1.45-1.18c.72,0,1.07.28,1.2.37l-.24.52Z" fill="#231f20"/>
    <path d="m72.38,85.02h-2.03c.04.79.41,1.16,1.04,1.16.53,0,.82-.23.91-.31l.2.44c-.08.09-.42.41-1.19.41-.94,0-1.55-.57-1.55-1.88,0-1.21.7-1.78,1.5-1.78.72,0,1.18.47,1.18,1.32,0,.25-.03.45-.07.63Zm-2.03-.46h1.52c.01-.09.01-.16.01-.23,0-.49-.25-.76-.67-.76-.49,0-.83.36-.87.99Z" fill="#231f20"/>
    <path d="m75.62,83.83c-.08-.07-.33-.25-.71-.25-.63,0-1.1.36-1.1,1.26,0,.99.41,1.34,1.01,1.34.38,0,.63-.15.74-.23l.18.46c-.13.1-.44.31-1.05.31-.87,0-1.5-.54-1.5-1.84s.86-1.82,1.69-1.82c.53,0,.82.22.93.3l-.2.47Z" fill="#231f20"/>
    <path d="m77.14,85.21c0,.68.2.97.68.97s.76-.24.89-.37v-2.66h.59v3.49h-.54v-.39h-.01c-.11.13-.39.48-1.07.48-.72,0-1.11-.44-1.11-1.42v-2.16h.59v2.06Z" fill="#231f20"/>
    <path d="m82.08,83.67s-.13-.07-.32-.07c-.46,0-.7.28-.81.49v2.53h-.59v-3.49h.54v.52h.01c.11-.25.34-.58.89-.58.15,0,.23.02.32.05l-.05.54Z" fill="#231f20"/>
    <path d="m83.12,82.31c-.23,0-.41-.16-.41-.41s.18-.42.41-.42.42.17.42.42-.19.41-.42.41Zm.29,4.33h-.59v-3.49h.59v3.49Z" fill="#231f20"/>
    <path d="m86.12,83.65h-.9v1.8c0,.53.14.73.49.73.21,0,.36-.06.43-.09l.07.49c-.07.04-.27.15-.64.15-.66,0-.94-.39-.94-1.19v-1.88h-.48v-.41l.48-.09.07-.97h.52v.97h.97l-.07.5Z" fill="#231f20"/>
    <path d="m88.22,86.85c-.28.81-.62,1.28-1.36,1.28-.18,0-.28-.05-.3-.07v-.51s.14.05.27.05c.48,0,.7-.22.89-.77l.07-.21-1.28-3.48h.63l.93,2.73h.01l.86-2.73h.57l-1.29,3.7Z" fill="#231f20"/>
  </g>
  <g>
    <path d="m44.96,90.34c1.77,0,2.71.82,2.87.95l-.71,1.53c-.23-.2-.97-.77-2.07-.77-1.69,0-3.05,1.04-3.05,3.63s1.09,3.7,2.86,3.7c1.25,0,1.95-.53,2.28-.8l.57,1.48c-.33.3-1.19,1.07-3.16,1.07-2.71,0-4.69-1.48-4.69-5.43s2.51-5.37,5.09-5.37Z" fill="#231f20"/>
    <path d="m53.65,100.95v-4.35c0-1.09-.36-1.56-1.18-1.56-.62,0-1.06.26-1.35.51v5.4h-1.9v-10.66l1.9-.17v4.17h.03c.27-.32.86-.89,2.03-.89,1.54,0,2.37,1.04,2.37,2.87v4.67h-1.9Z" fill="#231f20"/>
    <path d="m60.39,96.69h.3v-.26c0-.95-.41-1.44-1.24-1.44-.91,0-1.48.47-1.74.71l-.59-1.21c.35-.36,1.21-1.09,2.72-1.09,1.72,0,2.69.97,2.69,3.08v2.48c0,.85.06,1.51.12,1.98h-1.75c-.02-.21-.05-.53-.05-.82h-.03c-.26.45-.71,1-1.75,1-1.21,0-2.06-.88-2.06-2.21,0-1.54,1.48-2.24,3.37-2.24Zm-.77,2.96c.57,0,.89-.26,1.07-.47v-1.35l-.38.02c-.98.05-1.5.3-1.5.89,0,.53.35.91.8.91Z" fill="#231f20"/>
    <path d="m66.3,98.57c0,.76.18.95.65.95.27,0,.48-.08.56-.11l.12,1.38c-.17.09-.59.29-1.27.29-1.22,0-1.96-.57-1.96-2.24v-8.55l1.9-.17v8.45Z" fill="#231f20"/>
    <path d="m70.67,98.57c0,.76.18.95.65.95.27,0,.48-.08.56-.11l.12,1.38c-.17.09-.59.29-1.27.29-1.22,0-1.96-.57-1.96-2.24v-8.55l1.9-.17v8.45Z" fill="#231f20"/>
    <path d="m78.6,97.79h-3.94c.11,1.24.79,1.74,2,1.74.95,0,1.56-.44,1.75-.59l.44,1.33c-.23.21-.88.86-2.61.86-2,0-3.42-1.12-3.42-3.91,0-2.61,1.53-3.81,3.36-3.81,1.59,0,2.55,1.01,2.55,2.95,0,.67-.06,1.09-.12,1.44Zm-3.96-1.27h2.37c.02-.14.02-.24.02-.35,0-.79-.38-1.28-1.04-1.28-.74,0-1.28.53-1.35,1.63Z" fill="#231f20"/>
    <path d="m84.83,100.95v-4.35c0-1.09-.36-1.56-1.18-1.56-.62,0-1.06.26-1.35.51v5.4h-1.9v-7.36h1.75v.82h.03c.27-.36.92-1,2.13-1,1.57,0,2.42,1.04,2.42,2.87v4.67h-1.9Z" fill="#231f20"/>
    <path d="m90.75,104.15c-1.95,0-2.86-.73-2.86-1.93,0-.95.73-1.44,1.16-1.66v-.03c-.3-.24-.44-.57-.44-1,0-.82.68-1.3.91-1.44v-.03c-.74-.39-1.22-1.09-1.22-2.13,0-1.72,1.31-2.52,2.95-2.52.41,0,.8.06,1.15.18h2.55l-.18,1.18h-.89c.2.35.3.74.3,1.16,0,1.69-1.3,2.51-2.95,2.51-.24,0-.48-.02-.71-.06-.17.12-.33.3-.33.54,0,.26.15.42.53.42h1.59c1.59,0,2.54.63,2.54,2.01,0,1.48-1.39,2.8-4.1,2.8Zm.2-1.39c1.44,0,2.19-.5,2.19-1.16,0-.5-.27-.71-1.03-.71h-1.57c-.23,0-.42-.02-.6-.05-.21.18-.42.45-.42.91,0,.73.51,1.01,1.44,1.01Zm.32-8.03c-.67,0-1.27.35-1.27,1.19s.6,1.18,1.24,1.18,1.25-.35,1.25-1.18-.59-1.19-1.22-1.19Z" fill="#231f20"/>
    <path d="m101.62,97.79h-3.94c.11,1.24.79,1.74,2,1.74.95,0,1.56-.44,1.75-.59l.44,1.33c-.23.21-.88.86-2.61.86-2,0-3.42-1.12-3.42-3.91,0-2.61,1.53-3.81,3.36-3.81,1.59,0,2.55,1.01,2.55,2.95,0,.67-.06,1.09-.12,1.44Zm-3.96-1.27h2.37c.02-.14.02-.24.02-.35,0-.79-.38-1.28-1.04-1.28-.74,0-1.28.53-1.35,1.63Z" fill="#231f20"/>
  </g>
  <path d="m137.47,38.46L75.12,2.45l-4.25-2.45-4.25,2.45L4.25,38.46l-4.25,2.45v81.83l4.25,2.45,62.36,36,4.25,2.45,4.25-2.45,62.36-36,4.25-2.45V40.91l-4.25-2.45Zm-12.76,74.46l-53.86,31.09-53.86-31.09v-62.19l53.86-31.09,53.86,31.09v62.19Z" fill="#231f20"/>
</svg>