<?xml version="1.0" encoding="UTF-8"?>
<svg id="Layer_1" data-name="Layer 1" xmlns="http://www.w3.org/2000/svg" viewBox="0 0 23.3 21.8">
  <path d="m14,8.3v-1.1c2,0,3.7-1.5,3.7-3.1,0-.8-.5-1.5-.9-1.9h.2c.3.3,1.1,1.2,1.1,2.3.2,1.9-1.8,3.8-4.1,3.8m-2-6.9c0-.2-.1-.4-.2-.6,0-.2.1-.4.4-.2-.2.2,0,.5,0,.5,0,0,.4-.2.3-.4.5.1.1.8-.5.7m-.4,1c-.1-.3-.2-.6-.4-.8-.2-.2-.5-.5-.9-.5-.2,0-.5.1-.7.2-.1-.1-.2-.4-.2-.6,0-.1.2-.3.7-.3,1,0,1.6.5,1.6,1.2.1.4,0,.6-.1.8m2.6,13.3h.2c.3.8,1.4,2.3,1.5,2.4h0c.3,0,1-.2,1.6-.2h.2s.1.1.1.2-.1.4-.1.5c-.2-.2-.6-.3-1.1-.3-.2,0-.4,0-.5.1h0l.3.3c.5.7.9,1.1.9,1.4,0,.2-.2.4-.3.5,0-.5-.5-1.2-1.1-1.6h0v.7c0,1-.1,1.1-.4,1.1h-.2c.2-.2.3-.5.3-1.1v-1.1h-.1c-.2,0-.5-.1-.7-.1-.5,0-.8,0-1,.3-.2-.1-.3-.3-.3-.5s.1-.2.3-.2h.3c.2,0,.5.1,1.2.1h0c-.2-.5-.6-1.1-1.3-2-.1-.3,0-.5.2-.5m-6.1,2.4h1.5c.2,0,.3,0,.3.2,0,.1-.2.4-.3.5-.2-.2-.6-.3-1-.3-.2,0-.5,0-.7.1h0v1.1c0,.5.1.9.3,1.1h-.2c-.3,0-.4-.1-.4-1.1v-.7h0c-.5.4-1,1.1-1.1,1.6-.2-.1-.3-.3-.3-.5,0-.3.4-.7.9-1.2l.3-.3h-.1c-.1,0-.3-.1-.5-.1-.5,0-.9.1-1.1.3-.1-.1-.1-.4-.1-.5s0-.2.1-.2h.2c.6,0,1.3.1,1.6.2h0c0-.1,1.2-1.6,1.5-2.4h.2c.2,0,.3.2.4.4-.9.7-1.4,1.4-1.5,1.8m-3.1-13.7c0-1.1.8-2,1.1-2.3h.2c-.3.4-.9,1-.9,1.9,0,1.7,1.8,3.1,3.8,3.1v1.1c-2.2.1-4.2-1.8-4.2-3.8m15.3,3.6c1,1.6,1.8,1.6,3,1.6-1-.8-1.7-1.8-2-2.3l-1.9-3c-.2-.9-.7-1.8-1.4-2.4.2-.1.4-.2.6-.3-1.2,0-2.4-.6-3.1-.6-.4,0-.7.3-.7.6,0,.4.4.8,1.1.8.2,0,.4,0,.6-.1.4.5.7,1,.7,1.7,0,1.3-1.6,2.3-3.1,2.3h-.3c-.1-.3-.6-.9-.6-1.5,0-1,.7-1.9.7-2.9,0-.6-.3-1-.4-1.2.2-.2.4-.4.5-.6-.1,0-.2.1-.4.1-.8,0-1.4-.2-2-.2-.3,0-.4.1-.4.2v.1c-.1,0-.2-.1-.4-.1s-.4-.1-.6-.1c-.7,0-1,.3-1,.6,0,.2.2.6.4.9.3-.1.6-.2.8-.2.4,0,.7.4.9.8h-.6c-.7,0-1.2-.3-1.3-.3h0c0,.1.2.4.6.5.5.2,1.3.3,1.4.3,0,0-.1.3-.3.3h-.1c-.5-.1-.7-.2-1.4-.4h0c0,.3.7.9,1.4,1.1-.5.7-1.2,1.4-1.5,2.4h-.3c-1.6,0-3.1-1-3.1-2.3,0-.7.3-1.2.7-1.7.2,0,.4.1.6.1.7,0,1.1-.4,1.1-.8,0-.3-.3-.6-.7-.6-.7,0-1.9.6-3.1.6.1.1.3.2.6.3-.7.6-1.2,1.5-1.4,2.4l-1.9,3c-.3.5-1,1.5-2,2.3,1.2,0,2,0,3-1.6l1-1.5c.1.2.2.4.3.6l-1.9,3.1c-.3.5-1,1.5-2,2.3,1.2,0,2,0,3-1.6l1.6-2.6c.1.1.3.3.4.4l-2.3,3.7c-.3.5-1,1.5-2,2.2,1.2,0,2,0,3-1.6l2.3-3.6c.1.1.3.2.5.3l-2.8,4.4c-.3.5-1,1.5-2,2.2,1.2,0,2,0,3-1.6l2.8-4.5c.2.1.3.1.5.2l-3.1,5.1c-.3.5-1,1.5-2,2.3,1.2,0,2,0,3-1.6l3.4-5.5h.1c.1.3.2.6.2.8,0,1.7-1.1,3.2-2.5,4.4.1,0,.2.1.4.1h.6c-.3.7-1,1.6-1.3,2.1-.5,0-1.1-.1-1.5-.1s-.5.3-.5.5c0,.4.2.7.4.9.1-.2.2-.5,1.1-.5h.1c-.2.3-1,.9-1,1.4,0,.3.4.8.8.8v-.3c0-.4.3-.9.6-1.2v.2c0,.9.1,1.4.7,1.4.3,0,.5-.2.6-.2-.4-.4-.4-.6-.4-1.2v-.9h.5s.8-.1,1,.4c.2-.2.6-.5.6-.8,0-.2-.1-.5-.5-.5-.2,0-.7.1-1.1.1.1-.3.6-1,1.1-1.6.1.2.2.4.4.6,0-.4.2-1.5.8-2.1.1.4.1.9.1,1.8,0,2.3-.6,4-1.7,4.3.2.3.5.5.8.5.4,0,.7-.5.9-1-.1.6.3,1.4.6,1.4s.7-.8.8-1.2c.2.5.5,1,.9,1,.3,0,.7-.2.8-.5-1.2-.3-1.7-2-1.7-4.3,0-1,.1-1.4.1-1.8.6.7.8,1.8.8,2.1.3-.3.4-.5.5-.7.4.5,1,1.3,1.1,1.6-.5-.1-1-.2-1.2-.2-.4,0-.5.2-.5.5s.3.6.6.8c.2-.4,1-.4,1-.4h.5v.9c0,.5,0,.8-.4,1.2.1,0,.3.2.6.2.6,0,.7-.4.7-1.4v-.2c.3.3.6.8.6,1.2v.3c.5,0,.8-.5.8-.8,0-.5-.7-1.1-1-1.4h.1c.8,0,1,.3,1.1.5.2-.2.4-.5.4-.9,0-.2,0-.5-.5-.5-.4,0-1.1.1-1.5.1-.3-.5-1-1.4-1.3-2.1h.6c.1,0,.3,0,.4-.1-1.4-1.2-2.5-2.7-2.5-4.4,0-.3.1-.6.2-.8h.1l3.4,5.5c1,1.6,1.8,1.6,3,1.6-1.2-.8-1.8-1.8-2.1-2.3l-3.2-5.1c.2-.1.3-.1.5-.2l2.8,4.5c1,1.6,1.8,1.6,3,1.6-1-.8-1.7-1.7-2-2.2l-2.8-4.4c.2-.1.3-.2.5-.3l2.3,3.6c1,1.6,1.8,1.6,3,1.6-1-.8-1.7-1.7-2-2.2l-2.3-3.7c.1-.1.3-.2.4-.4l1.6,2.6c1,1.6,1.8,1.6,3,1.6-1-.8-1.7-1.7-2-2.3l-1.9-3.1.3-.6c.1.1,1.1,1.7,1.1,1.7Z"/>
</svg>