<?xml version="1.0" encoding="UTF-8"?>
<svg id="Layer_1" data-name="Layer 1" xmlns="http://www.w3.org/2000/svg" viewBox="0 0 183.57 32.8">
  <g>
    <g>
      <path d="m4.8,2.4c0-1.3-.8-2.1-2.7-2.1H.5v8.3h1.7c2,0,2.9-.9,2.9-2.2,0-1.1-.7-1.8-1.6-2h0c.7-.2,1.3-.8,1.3-2Zm-1,.1c0,.9-.6,1.5-1.7,1.5h-.5V1.1h.6c1.1.1,1.6.6,1.6,1.4Zm.1,3.8c0,.9-.5,1.5-1.8,1.5h-.6v-2.9h.7c1.1-.1,1.7.5,1.7,1.4Z"/>
      <path d="m9.5,8h0v.6h.9V2.8h-1v4.4c-.2.2-.6.6-1.2.6s-1-.4-1-1.3v-3.7h-1v3.8c0,1.6.6,2.1,1.7,2.1.9.1,1.4-.5,1.6-.7Z"/>
      <path d="m14,3.5c.7,0,1,.4,1,1.4v3.7h1v-3.8c0-1.6-.6-2.1-1.7-2.1-.9,0-1.4.6-1.5.8h0v-.6h-.9v5.8h1v-4.4c.1-.4.5-.8,1.1-.8Z"/>
      <path d="m19.4,7.9c-.7,0-1.3-.5-1.3-2.1s.7-2.2,1.6-2.2c.3,0,.6.1.7.2v3.6c0,.1-.3.5-1,.5Zm1.2.1h0v.6h.9V0l-1,.1v2.8c-.2-.1-.4-.1-.8-.1-1.2,0-2.5.7-2.5,3.1,0,2.1.9,2.9,2,2.9.9,0,1.3-.6,1.4-.8Z"/>
      <path d="m24.9,3.5c.6,0,.9.5.9,1.3v.4h-2.1c0-1.1.5-1.7,1.2-1.7Zm1.9,4.6l-.4-.7c-.1.1-.5.5-1.2.5-1,0-1.5-.6-1.6-2h2.9c0-.3.1-.6.1-1.1,0-1.4-.7-2.1-1.8-2.1-1.2,0-2.2.9-2.2,3s.9,3.1,2.4,3.1c1.2,0,1.6-.6,1.8-.7Z"/>
      <path d="m30.9,3.3c-.2-.2-.6-.6-1.5-.6s-1.7.6-1.7,1.5c0,.8.4,1.3,1.2,1.7l.4.2c.6.3.8.5.8,1.1,0,.4-.3.7-.9.7s-1-.4-1.2-.6l-.5.8c.2.2.7.7,1.6.7,1.2,0,1.8-.7,1.8-1.6s-.5-1.3-1.3-1.8l-.4-.2c-.5-.3-.8-.6-.8-1,0-.3.3-.6.8-.6s.9.3,1,.5l.7-.8Z"/>
      <path d="m34.3,3.6c.6,0,.9.4.9,1.3v3.7h1v-4.5c.2-.3.6-.6,1.1-.6.6,0,1,.4,1,1.3v3.7h1v-3.9c0-1.4-.6-2-1.8-2-.7,0-1.3.4-1.5.8-.3-.5-.7-.8-1.4-.8-.8,0-1.3.5-1.4.8h0v-.6h-1v5.8h1v-4.4c.1-.2.5-.6,1.1-.6Z"/>
      <path d="m41.1,1.5c.4,0,.6-.3.6-.7s-.3-.7-.6-.7c-.4,0-.7.3-.7.7.1.4.3.7.7.7Zm.5,1.4h-1v5.8h1V2.9Z"/>
      <path d="m45.3,3.5c.7,0,1,.4,1,1.4v3.7h1v-3.8c0-1.6-.6-2.1-1.7-2.1-.9,0-1.4.6-1.5.8h0v-.6h-.9v5.8h1v-4.4c.1-.4.5-.8,1.1-.8Z"/>
      <path d="m49.2,1.5c.4,0,.6-.3.6-.7s-.3-.7-.6-.7c-.4,0-.7.3-.7.7,0,.4.3.7.7.7Zm.4,1.4h-1v5.8h1V2.9Z"/>
      <path d="m54,3.3c-.2-.2-.6-.6-1.5-.6s-1.7.6-1.7,1.5c0,.8.4,1.3,1.2,1.7l.4.2c.6.3.8.5.8,1.1,0,.4-.3.7-.9.7s-1-.4-1.2-.6l-.5.8c.2.2.7.7,1.6.7,1.2,0,1.8-.7,1.8-1.6s-.5-1.3-1.3-1.8l-.4-.2c-.5-.3-.8-.6-.8-1,0-.3.3-.6.8-.6s.9.3,1,.5l.7-.8Z"/>
      <path d="m57.9,8.5l-.1-.8c-.1.1-.3.2-.6.2-.5,0-.7-.2-.7-1.1v-3.2h1.3l.1-.8h-1.4v-1.6h-.9l-.1,1.6-.6.2v.6h.7v3.3c0,1.3.5,1.8,1.5,1.8.5.1.8-.1.8-.2Z"/>
      <path d="m60.7,3.5c.6,0,.9.5.9,1.3v.4h-2.1c.1-1.1.5-1.7,1.2-1.7Zm1.9,4.6l-.3-.7c-.1.1-.5.5-1.2.5-1,0-1.5-.6-1.6-2h2.9c0-.3.1-.6.1-1.1,0-1.4-.7-2.1-1.8-2.1-1.2,0-2.2.9-2.2,3s.9,3.1,2.4,3.1c1.1,0,1.6-.6,1.7-.7Z"/>
      <path d="m66.5,2.8c-.1,0-.3-.1-.5-.1-.7,0-1,.4-1.2.9h0v-.8h-.9v5.8h1v-4.2c.1-.4.5-.8,1.1-.8.3,0,.4.1.5.1v-.9Z"/>
      <path d="m67.8,1.5c.4,0,.6-.3.6-.7s-.3-.7-.6-.7c-.4,0-.7.3-.7.7s.3.7.7.7Zm.5,1.4h-1v5.8h1V2.9Z"/>
      <path d="m72.9,8h0v.6h.9V2.8h-1v4.4c-.2.2-.6.6-1.2.6s-1-.4-1-1.3v-3.7h-1v3.8c0,1.6.6,2.1,1.7,2.1,1,.1,1.5-.5,1.6-.7Z"/>
      <path d="m77.4,3.6c.6,0,.9.4.9,1.3v3.7h1v-4.5c.2-.3.6-.6,1.1-.6.6,0,1,.4,1,1.3v3.7h1v-3.9c0-1.4-.6-2-1.8-2-.7,0-1.3.4-1.5.8-.3-.5-.7-.8-1.4-.8-.8,0-1.3.5-1.4.8h0v-.6h-.9v5.8h1v-4.4c0-.2.4-.6,1-.6Z"/>
    </g>
    <g>
      <path d="m2.3,19.9c-.7,0-1.3-.5-1.3-2.1s.7-2.2,1.6-2.2c.3,0,.6.1.7.2v3.6c0,.1-.4.5-1,.5Zm1.1.1h0v.6h.9v-8.6l-1,.1v2.8c-.2-.1-.4-.1-.8-.1-1.2,0-2.5.7-2.5,3.1,0,2.1.9,2.9,2,2.9,1,0,1.3-.6,1.4-.8Z"/>
      <path d="m7.7,15.5c.6,0,.9.5.9,1.3v.4h-2.1c.1-1.1.5-1.7,1.2-1.7Zm2,4.6l-.4-.7c-.1.1-.5.5-1.2.5-1,0-1.5-.6-1.6-2h2.9c0-.3.1-.6.1-1.1,0-1.4-.7-2.1-1.8-2.1-1.2,0-2.2.9-2.2,3s.9,3.1,2.4,3.1c1.1,0,1.6-.6,1.8-.7Z"/>
      <path d="m13.7,15.3c-.2-.2-.6-.6-1.5-.6s-1.7.6-1.7,1.5c0,.8.4,1.3,1.2,1.7l.4.2c.6.3.8.5.8,1.1,0,.4-.3.7-.9.7s-1-.4-1.2-.6l-.5.8c.2.2.7.7,1.6.7,1.2,0,1.8-.7,1.8-1.6s-.5-1.3-1.3-1.8l-.4-.2c-.5-.3-.8-.6-.8-1,0-.3.3-.6.8-.6s.9.3,1,.5l.7-.8Z"/>
      <path d="m18.2,19.9h-.9v.8h2.8v-.8h-.9v-6.8h.9v-.7h-2.8v.7h.9s0,6.8,0,6.8Z"/>
      <path d="m23.4,15.5c.7,0,1,.4,1,1.4v3.7h1v-3.8c0-1.6-.6-2.1-1.7-2.1-.9,0-1.4.6-1.5.8h0v-.6h-.9v5.8h1v-4.4c.2-.4.6-.8,1.1-.8Z"/>
      <path d="m29,15.5c.7,0,1,.4,1,1.4v3.7h1v-3.8c0-1.6-.6-2.1-1.7-2.1-.9,0-1.4.6-1.5.8h0v-.6h-.9v5.8h1v-4.4c.1-.4.5-.8,1.1-.8Z"/>
      <path d="m34.3,15.5c.6,0,.9.5.9,1.3v.4h-2.1c.1-1.1.5-1.7,1.2-1.7Zm2,4.6l-.4-.7c-.1.1-.5.5-1.2.5-1,0-1.5-.6-1.6-2h2.9c0-.3.1-.6.1-1.1,0-1.4-.7-2.1-1.8-2.1-1.2,0-2.2.9-2.2,3s.9,3.1,2.4,3.1c1.1,0,1.6-.6,1.8-.7Z"/>
      <path d="m40.1,14.8c-.1,0-.3-.1-.5-.1-.7,0-1,.4-1.2.9h0v-.8h-.9v5.8h1v-4.2c.1-.4.5-.8,1.1-.8.3,0,.4.1.5.1v-.9Z"/>
      <path d="m43.1,15.5c.7,0,1,.4,1,1.4v3.7h1v-3.8c0-1.6-.6-2.1-1.7-2.1-.9,0-1.4.6-1.5.8h0v-.6h-1v5.8h1v-4.4c.2-.4.6-.8,1.2-.8Z"/>
    </g>
    <g>
      <path d="m3.4,32h0v.6h.9v-5.8h-1v4.4c-.2.2-.6.6-1.2.6s-1-.4-1-1.3v-3.7H.1v3.8c0,1.6.6,2.1,1.7,2.1,1,.1,1.5-.5,1.6-.7Z"/>
      <path d="m8,27.5c.7,0,1,.4,1,1.4v3.7h1v-3.8c0-1.6-.6-2.1-1.7-2.1-.9,0-1.4.6-1.5.8h0v-.6h-.9v5.8h1v-4.4c.1-.4.5-.8,1.1-.8Z"/>
      <path d="m13.4,31.9c-.7,0-1.3-.5-1.3-2.1s.7-2.2,1.6-2.2c.3,0,.6.1.7.2v3.6c-.1.1-.4.5-1,.5Zm1.1.1h0v.6h.9v-8.6l-1,.1v2.8c-.2-.1-.4-.1-.8-.1-1.2,0-2.5.7-2.5,3.1,0,2.1.9,2.9,2,2.9.9,0,1.3-.6,1.4-.8Z"/>
      <path d="m21.9,27.6l.1-.8h-1.3v-1c0-.8.3-1,.7-1,.3,0,.4.1.5.2l.2-.8c-.1-.1-.4-.2-.8-.2-.9,0-1.6.5-1.6,1.8v1.2l-.7.1v.6h.7v5h1v-5h1.2v-.1Z"/>
      <path d="m26.4,25.2c0-.4-.3-.6-.6-.6s-.6.2-.6.6.3.6.6.6.6-.2.6-.6Zm-1.9,0c0-.4-.3-.6-.6-.6s-.6.2-.6.6.3.6.6.6.6-.2.6-.6Zm1.5,6.8h0v.6h.9v-5.8h-1v4.4c-.2.2-.6.6-1.2.6s-1-.4-1-1.3v-3.7h-1v3.8c0,1.6.6,2.1,1.7,2.1,1,.1,1.5-.5,1.6-.7Z"/>
      <path d="m31,26.8c-.1,0-.3-.1-.5-.1-.7,0-1,.4-1.2.9h0v-.8h-.9v5.8h1v-4.2c.1-.4.5-.8,1.1-.8.3,0,.4.1.5.1v-.9Z"/>
      <path d="m39.9,24.3h-1v3.7h-3.4v-3.7h-1v8.3h1v-3.8h3.4v3.8h1v-8.3Z"/>
      <path d="m43.4,27.5c.6,0,.9.5.9,1.3v.4h-2.1c0-1.1.5-1.7,1.2-1.7Zm1.9,4.6l-.3-.7c-.1.1-.5.5-1.2.5-1,0-1.5-.6-1.6-2h2.9c0-.3.1-.6.1-1.1,0-1.4-.7-2.1-1.8-2.1-1.2,0-2.2.9-2.2,3s.9,3.1,2.4,3.1c1.1,0,1.6-.6,1.7-.7Z"/>
      <path d="m47,25.5c.4,0,.6-.3.6-.7s-.3-.7-.6-.7c-.4,0-.7.3-.7.7s.3.7.7.7Zm.5,1.4h-1v5.8h1v-5.8Z"/>
      <path d="m51.1,27.6c.6,0,.9.4.9,1.3v3.7h1v-4.5c.2-.3.6-.6,1.1-.6.6,0,1,.4,1,1.3v3.7h1v-3.9c0-1.4-.6-2-1.8-2-.7,0-1.3.4-1.5.8-.3-.5-.7-.8-1.4-.8-.8,0-1.3.5-1.4.8h0v-.6h-1.1v5.8h1v-4.4c.2-.2.6-.6,1.2-.6Z"/>
      <path d="m59.8,29.4h-.3c-1.3,0-2.4.4-2.4,1.8,0,.9.7,1.6,1.5,1.6.7,0,1.1-.5,1.2-.8h0v.6h.9c0-.2-.1-.7-.1-1.2v-2.6c0-1.5-.6-2.1-1.8-2.1-.9,0-1.5.4-1.7.7l.4.6c.2-.2.6-.5,1.2-.5s1,.3,1,1.3v.6h.1Zm0,.7v1.3c-.1.2-.4.6-1,.6-.5,0-.8-.3-.8-.9s.5-.9,1.4-.9l.4-.1Z"/>
      <path d="m64.8,32.5l-.1-.8c-.1.1-.3.2-.6.2-.5,0-.7-.2-.7-1.1v-3.2h1.3l.1-.8h-1.4v-1.6h-.9l-.1,1.6-.7.1v.6h.7v3.3c0,1.3.5,1.8,1.5,1.8.5.2.8,0,.9-.1Z"/>
    </g>
  </g>
  <g>
    <g>
      <path d="m101.07,2.4c0-1.3-.8-2.1-2.7-2.1h-1.6v8.3h1.7c2,0,2.9-.9,2.9-2.2,0-1.1-.7-1.8-1.6-2h0c.7-.2,1.3-.8,1.3-2Zm-1,.1c0,.9-.6,1.5-1.7,1.5h-.5V1.1h.6c1.1.1,1.6.6,1.6,1.4Zm.1,3.8c0,.9-.5,1.5-1.8,1.5h-.6v-2.9h.7c1.1-.1,1.7.5,1.7,1.4Z"/>
      <path d="m105.77,8h0v.6h.9V2.8h-1v4.4c-.2.2-.6.6-1.2.6s-1-.4-1-1.3v-3.7h-1v3.8c0,1.6.6,2.1,1.7,2.1.9.1,1.4-.5,1.6-.7Z"/>
      <path d="m110.27,3.5c.7,0,1,.4,1,1.4v3.7h1v-3.8c0-1.6-.6-2.1-1.7-2.1-.9,0-1.4.6-1.5.8h0v-.6h-.9v5.8h1v-4.4c.1-.4.5-.8,1.1-.8Z"/>
      <path d="m115.67,7.9c-.7,0-1.3-.5-1.3-2.1s.7-2.2,1.6-2.2c.3,0,.6.1.7.2v3.6c0,.1-.3.5-1,.5Zm1.2.1h0v.6h.9V0l-1,.1v2.8c-.2-.1-.4-.1-.8-.1-1.2,0-2.5.7-2.5,3.1,0,2.1.9,2.9,2,2.9.9,0,1.3-.6,1.4-.8Z"/>
      <path d="m121.17,3.5c.6,0,.9.5.9,1.3v.4h-2.1c0-1.1.5-1.7,1.2-1.7Zm1.9,4.6l-.4-.7c-.1.1-.5.5-1.2.5-1,0-1.5-.6-1.6-2h2.9c0-.3.1-.6.1-1.1,0-1.4-.7-2.1-1.8-2.1-1.2,0-2.2.9-2.2,3s.9,3.1,2.4,3.1c1.2,0,1.6-.6,1.8-.7Z"/>
      <path d="m127.17,3.3c-.2-.2-.6-.6-1.5-.6s-1.7.6-1.7,1.5c0,.8.4,1.3,1.2,1.7l.4.2c.6.3.8.5.8,1.1,0,.4-.3.7-.9.7s-1-.4-1.2-.6l-.5.8c.2.2.7.7,1.6.7,1.2,0,1.8-.7,1.8-1.6s-.5-1.3-1.3-1.8l-.4-.2c-.5-.3-.8-.6-.8-1,0-.3.3-.6.8-.6s.9.3,1,.5l.7-.8Z"/>
      <path d="m130.77,5.4h-.3c-1.3,0-2.4.4-2.4,1.8,0,.9.7,1.6,1.5,1.6.7,0,1.1-.5,1.2-.8h0v.6h.9c0-.2-.1-.7-.1-1.2v-2.6c0-1.5-.6-2.1-1.8-2.1-.9,0-1.5.4-1.7.7l.4.6c.2-.2.6-.5,1.2-.5s1,.3,1,1.3v.6h.1Zm0,.7v1.3c-.1.2-.4.6-1,.6-.5,0-.8-.3-.8-.9s.5-.9,1.4-.9l.4-.1Z"/>
      <path d="m135.37,3.6c.6,0,.9.4.9,1.3v3.7h1v-4.5c.2-.3.6-.6,1.1-.6.6,0,1,.4,1,1.3v3.7h1v-3.9c0-1.4-.6-2-1.8-2-.7,0-1.3.4-1.5.8-.3-.5-.7-.8-1.4-.8-.8,0-1.3.5-1.4.8h0v-.6h-.9v5.8h1v-4.4c0-.2.4-.6,1-.6Z"/>
      <path d="m144.27,8.5l-.1-.8c-.1.1-.3.2-.6.2-.5,0-.7-.2-.7-1.1v-3.2h1.3l.1-.8h-1.4v-1.6h-.9l-.1,1.6-.7.1v.6h.7v3.3c0,1.3.5,1.8,1.5,1.8.6.2.9,0,.9-.1Z"/>
    </g>
    <g>
      <path d="m98.97,15.6l.1-.8h-1.3v-1c0-.8.3-1,.7-1,.3,0,.4.1.5.2l.2-.8c-.1-.1-.4-.2-.8-.2-.9,0-1.6.5-1.6,1.8v1.2l-.7.1v.6h.7v5h1v-5h1.2v-.1Z"/>
      <path d="m103.47,13.2c0-.4-.3-.6-.6-.6s-.6.2-.6.6.3.6.6.6.6-.2.6-.6Zm-1.9,0c0-.4-.3-.6-.6-.6s-.6.2-.6.6.3.6.6.6c.4,0,.6-.2.6-.6Zm1.5,6.8h0v.6h.9v-5.8h-1v4.4c-.2.2-.6.6-1.2.6s-1-.4-1-1.3v-3.7h-1v3.8c0,1.6.6,2.1,1.7,2.1,1,.1,1.5-.5,1.6-.7Z"/>
      <path d="m108.07,14.8c-.1,0-.3-.1-.5-.1-.7,0-1,.4-1.2.9h0v-.8h-.9v5.8h1v-4.2c.1-.4.5-.8,1.1-.8.3,0,.4.1.5.1v-.9Z"/>
      <path d="m114.97,12.8c-.2-.1-.7-.6-1.8-.6-1.3,0-2.1.8-2.1,1.9s.5,1.7,1.4,2.5l.7.6c.7.6,1,1,1,1.7,0,.6-.5,1-1.3,1-.9,0-1.4-.5-1.6-.7l-.4.9c.2.2.9.7,2.1.7,1.5,0,2.3-.9,2.3-2.1,0-1.1-.6-1.7-1.4-2.4l-.7-.6c-.8-.6-1.1-1-1.1-1.7,0-.5.4-1,1.1-1,.8,0,1.2.4,1.4.5l.4-.7Z"/>
      <path d="m116.87,13.5c.4,0,.6-.3.6-.7s-.3-.7-.6-.7c-.4,0-.7.3-.7.7.1.4.3.7.7.7Zm.5,1.4h-1v5.8h1v-5.8Z"/>
      <path d="m122.47,15.3c-.2-.2-.6-.6-1.5-.6-1.1,0-2.4.8-2.4,3s1,3,2.3,3c.9,0,1.3-.4,1.5-.6l-.4-.7c-.1.1-.4.4-1,.4-.8,0-1.4-.6-1.4-2.2,0-1.5.6-2.1,1.5-2.1.6,0,.9.3,1,.4l.4-.6Z"/>
      <path d="m125.67,15.5c.7,0,1,.4,1,1.4v3.7h1v-3.8c0-1.5-.6-2.1-1.6-2.1-.9,0-1.4.6-1.5.7h0v-3.4l-1,.1v8.5h1v-4.4c.1-.3.5-.7,1.1-.7Z"/>
      <path d="m130.97,15.5c.6,0,.9.5.9,1.3v.4h-2.1c.1-1.1.5-1.7,1.2-1.7Zm1.9,4.6l-.3-.7c-.1.1-.5.5-1.2.5-1,0-1.5-.6-1.6-2h2.9c0-.3.1-.6.1-1.1,0-1.4-.7-2.1-1.8-2.1-1.2,0-2.2.9-2.2,3s.9,3.1,2.4,3.1c1.1,0,1.6-.6,1.7-.7Z"/>
      <path d="m136.77,14.8c-.1,0-.3-.1-.5-.1-.7,0-1,.4-1.2.9h0v-.8h-.9v5.8h1v-4.2c.1-.4.5-.8,1.1-.8.3,0,.4.1.5.1v-.9Z"/>
      <path d="m139.67,15.5c.7,0,1,.4,1,1.4v3.7h1v-3.8c0-1.5-.6-2.1-1.6-2.1-.9,0-1.4.6-1.5.7h0v-3.4l-1,.1v8.5h1v-4.4c.2-.3.6-.7,1.1-.7Z"/>
      <path d="m144.97,15.5c.6,0,.9.5.9,1.3v.4h-2.1c.1-1.1.5-1.7,1.2-1.7Zm2,4.6l-.4-.7c-.1.1-.5.5-1.2.5-1,0-1.5-.6-1.6-2h2.9c0-.3.1-.6.1-1.1,0-1.4-.7-2.1-1.8-2.1-1.2,0-2.2.9-2.2,3s.9,3.1,2.4,3.1c1.2,0,1.6-.6,1.8-.7Z"/>
      <path d="m148.57,13.5c.4,0,.6-.3.6-.7s-.3-.7-.6-.7c-.4,0-.7.3-.7.7.1.4.3.7.7.7Zm.5,1.4h-1v5.8h1v-5.8Z"/>
      <path d="m153.17,20.5l-.1-.8c-.1.1-.3.2-.6.2-.5,0-.7-.2-.7-1.1v-3.2h1.3l.1-.8h-1.4v-1.6h-.9l-.1,1.6-.7.1v.6h.7v3.3c0,1.3.5,1.8,1.5,1.8.5.2.8,0,.9-.1Z"/>
      <path d="m157.17,13.5c.4,0,.6-.3.6-.7s-.3-.7-.6-.7c-.4,0-.7.3-.7.7.1.4.3.7.7.7Zm.5,1.4h-1v5.8h1v-5.8Z"/>
      <path d="m161.27,15.5c.7,0,1,.4,1,1.4v3.7h1v-3.8c0-1.6-.6-2.1-1.7-2.1-.9,0-1.4.6-1.5.8h0v-.6h-.9v5.8h1v-4.4c.1-.4.5-.8,1.1-.8Z"/>
      <path d="m169.27,19.9c-.7,0-1.3-.5-1.3-2.1s.7-2.2,1.6-2.2c.3,0,.6.1.7.2v3.6c0,.1-.4.5-1,.5Zm1.1.1h0v.6h.9v-8.6l-1,.1v2.8c-.2-.1-.4-.1-.8-.1-1.2,0-2.5.7-2.5,3.1,0,2.1.9,2.9,2,2.9,1,0,1.3-.6,1.4-.8Z"/>
      <path d="m174.67,15.5c.6,0,.9.5.9,1.3v.4h-2.1c.1-1.1.5-1.7,1.2-1.7Zm2,4.6l-.4-.7c-.1.1-.5.5-1.2.5-1,0-1.5-.6-1.6-2h2.9c0-.3.1-.6.1-1.1,0-1.4-.7-2.1-1.8-2.1-1.2,0-2.2.9-2.2,3s.9,3.1,2.4,3.1c1.1,0,1.6-.6,1.8-.7Z"/>
      <path d="m180.47,14.8c-.1,0-.3-.1-.5-.1-.7,0-1,.4-1.2.9h0v-.8h-.9v5.8h1v-4.2c.1-.4.5-.8,1.1-.8.3,0,.4.1.5.1v-.9Z"/>
    </g>
    <g>
      <path d="m97.17,31.9h-.9v.8h2.8v-.8h-.9v-6.8h.9v-.7h-2.8v.7h.9v6.8Z"/>
      <path d="m102.47,27.5c.7,0,1,.4,1,1.4v3.7h1v-3.8c0-1.6-.6-2.1-1.7-2.1-.9,0-1.4.6-1.5.8h0v-.6h-.9v5.8h1v-4.4c.1-.4.5-.8,1.1-.8Z"/>
      <path d="m108.27,27.6l.1-.8h-1.3v-1c0-.8.3-1,.7-1,.3,0,.4.1.5.2l.2-.8c-.1-.1-.4-.2-.8-.2-.9,0-1.6.5-1.6,1.8v1.2l-.7.1v.6h.7v5h1v-5h1.2v-.1Z"/>
      <path d="m108.87,29.7c0,2.2,1,3,2.2,3,1.3,0,2.3-.9,2.3-3s-1-3-2.2-3-2.3.9-2.3,3Zm3.5,0c0,1.5-.5,2.2-1.3,2.2s-1.3-.6-1.3-2.2.5-2.2,1.3-2.2c.8,0,1.3.7,1.3,2.2Z"/>
      <path d="m117.27,26.8c-.1,0-.3-.1-.5-.1-.7,0-1,.4-1.2.9h0v-.8h-.9v5.8h1v-4.2c.1-.4.5-.8,1.1-.8.3,0,.4.1.5.1v-.9Z"/>
      <path d="m120.27,27.6c.6,0,.9.4.9,1.3v3.7h1v-4.5c.2-.3.6-.6,1.1-.6.6,0,1,.4,1,1.3v3.7h1v-3.9c0-1.4-.6-2-1.8-2-.7,0-1.3.4-1.5.8-.3-.5-.7-.8-1.4-.8-.8,0-1.3.5-1.4.8h0v-.6h-1v5.8h1v-4.4c.1-.2.5-.6,1.1-.6Z"/>
      <path d="m128.97,29.4h-.3c-1.3,0-2.4.4-2.4,1.8,0,.9.7,1.6,1.5,1.6.7,0,1.1-.5,1.2-.8h0v.6h.9c0-.2-.1-.7-.1-1.2v-2.6c0-1.5-.6-2.1-1.8-2.1-.9,0-1.5.4-1.7.7l.4.6c.2-.2.6-.5,1.2-.5s1,.3,1,1.3v.6h.1Zm0,.7v1.3c-.1.2-.4.6-1,.6-.5,0-.8-.3-.8-.9s.5-.9,1.4-.9l.4-.1Z"/>
      <path d="m133.97,32.5l-.1-.8c-.1.1-.3.2-.6.2-.5,0-.7-.2-.7-1.1v-3.2h1.3l.1-.8h-1.4v-1.6h-.9l-.1,1.6-.7.1v.6h.7v3.3c0,1.3.5,1.8,1.5,1.8.5.2.8,0,.9-.1Z"/>
      <path d="m135.47,25.5c.4,0,.6-.3.6-.7s-.3-.7-.6-.7c-.4,0-.7.3-.7.7,0,.4.3.7.7.7Zm.4,1.4h-1v5.8h1v-5.8Z"/>
      <path d="m137.17,29.7c0,2.2,1,3,2.2,3,1.3,0,2.3-.9,2.3-3s-1-3-2.2-3c-1.3,0-2.3.9-2.3,3Zm3.5,0c0,1.5-.5,2.2-1.3,2.2s-1.2-.6-1.2-2.2.5-2.2,1.3-2.2,1.2.7,1.2,2.2Z"/>
      <path d="m145.07,27.5c.7,0,1,.4,1,1.4v3.7h1v-3.8c0-1.6-.6-2.1-1.7-2.1-.9,0-1.4.6-1.5.8h0v-.6h-.9v5.8h1v-4.4c.1-.4.5-.8,1.1-.8Z"/>
      <path d="m151.37,27.3c-.2-.2-.6-.6-1.5-.6s-1.7.6-1.7,1.5c0,.8.4,1.3,1.2,1.7l.4.2c.6.3.8.5.8,1.1,0,.4-.3.7-.9.7s-1-.4-1.2-.6l-.5.8c.2.2.7.7,1.6.7,1.2,0,1.8-.7,1.8-1.6s-.5-1.3-1.3-1.8l-.4-.2c-.5-.3-.8-.6-.8-1,0-.3.3-.6.8-.6s.9.3,1,.5l.7-.8Z"/>
      <path d="m155.27,32.5l-.1-.8c-.1.1-.3.2-.6.2-.5,0-.7-.2-.7-1.1v-3.2h1.3l.1-.8h-1.4v-1.6h-.9l-.1,1.6-.7.2v.6h.7v3.3c0,1.3.5,1.8,1.5,1.8.5.1.8-.1.9-.2Z"/>
      <path d="m158.07,27.5c.6,0,.9.5.9,1.3v.4h-2.1c0-1.1.5-1.7,1.2-1.7Zm1.9,4.6l-.4-.7c-.1.1-.5.5-1.2.5-1,0-1.5-.6-1.6-2h2.9c0-.3.1-.6.1-1.1,0-1.4-.7-2.1-1.8-2.1-1.2,0-2.2.9-2.2,3s.9,3.1,2.4,3.1c1.2,0,1.7-.6,1.8-.7Z"/>
      <path d="m164.77,27.3c-.2-.2-.6-.6-1.5-.6-1.1,0-2.4.8-2.4,3s1,3,2.3,3c.9,0,1.3-.4,1.5-.6l-.4-.7c-.1.1-.4.4-1,.4-.8,0-1.4-.6-1.4-2.2,0-1.5.6-2.1,1.5-2.1.6,0,.9.3,1,.4l.4-.6Z"/>
      <path d="m167.97,27.5c.7,0,1,.4,1,1.4v3.7h1v-3.8c0-1.5-.6-2.1-1.6-2.1-.9,0-1.4.6-1.5.7h0v-3.4l-1,.1v8.5h1v-4.4c.1-.3.5-.7,1.1-.7Z"/>
      <path d="m173.47,27.5c.7,0,1,.4,1,1.4v3.7h1v-3.8c0-1.6-.6-2.1-1.7-2.1-.9,0-1.4.6-1.5.8h0v-.6h-.9v5.8h1v-4.4c.1-.4.5-.8,1.1-.8Z"/>
      <path d="m177.37,25.5c.4,0,.6-.3.6-.7s-.3-.7-.6-.7c-.4,0-.7.3-.7.7.1.4.3.7.7.7Zm.5,1.4h-1v5.8h1v-5.8Z"/>
      <path d="m183.47,26.9h-1.2l-1.5,2.2h-.4v-5.1l-1,.1v8.5h1v-2.7h.4l1.6,2.7h1.2l-2-3.1,1.9-2.6Z"/>
    </g>
  </g>
</svg>