<svg width="105" height="50" viewBox="0 0 105 50" fill="none" xmlns="http://www.w3.org/2000/svg">
<g clip-path="url(#clip0_355_33020)">
<path d="M30.4925 22.7865C31.6931 24.9424 32.3218 27.3698 32.3189 29.8374C32.3189 37.4919 26.3593 43.7675 19.0528 43.7675C11.7463 43.7675 5.78672 37.4919 5.78672 29.8374C5.78058 27.3707 6.40565 24.9435 7.60248 22.7865L4.00066 18C1.39757 21.3963 -0.00901914 25.5583 4.35199e-05 29.8374C4.35199e-05 34.8987 2.01062 39.7527 5.58948 43.3315C9.16833 46.9104 14.0223 48.921 19.0836 48.921C24.1448 48.921 28.9988 46.9104 32.5777 43.3315C36.1565 39.7527 38.1671 34.8987 38.1671 29.8374C38.1762 25.5583 36.7696 21.3963 34.1665 18L30.4925 22.7865Z" fill="white"/>
<path d="M85.4049 26.9181H104.795C104.941 27.884 105.009 28.8601 104.999 29.8369C104.999 40.4705 97.0281 49.0837 85.9151 49.0837C80.8807 48.9676 76.0916 46.8862 72.572 43.2846C69.0525 39.683 67.082 34.8471 67.082 29.8114C67.082 24.7757 69.0525 19.9398 72.572 16.3382C76.0916 12.7366 80.8807 10.6552 85.9151 10.5391C88.8921 10.5332 91.8288 11.2276 94.4879 12.5661C97.1471 13.9046 99.4542 15.8497 101.223 18.2444C104.806 23.0978 96.7121 21.755 96.7121 21.7041C95.5323 19.9282 93.9367 18.4671 92.064 17.448C90.1912 16.4288 88.0979 15.8823 85.966 15.8559C78.6902 15.8559 72.6999 22.1326 72.6999 29.8369C72.6999 37.5422 78.6595 43.7669 85.966 43.7669C93.4666 43.7669 98.8343 38.8786 99.2331 31.9082H85.4049V26.9181Z" fill="white"/>
<path d="M47.6572 43.1477H63.9853V48.3722H40.4727V44.5456L56.9025 16.4108H40.636V11.2266H63.5875V15.8498L47.6572 43.1477Z" fill="white"/>
<path d="M33.5852 10.3887L36.4838 6.60229C31.6684 2.37104 25.4842 0.0258103 19.0739 0C12.6649 0.0230757 6.48081 2.36487 1.66406 6.59274L4.5224 10.2762L5.08346 10.8988C8.92249 7.4332 13.9021 5.50076 19.0739 5.46956C24.2593 5.49894 29.2518 7.43914 33.0962 10.919L33.5852 10.3887Z" fill="white"/>
<path d="M30.482 14.421C27.2365 11.8465 23.2157 10.4453 19.073 10.4453C14.9304 10.4453 10.9095 11.8465 7.66406 14.421L11.0113 18.7684C13.2924 16.9174 16.1407 15.9072 19.0783 15.9072C22.016 15.9072 24.8642 16.9174 27.1453 18.7684L30.482 14.421Z" fill="white"/>
<path d="M24.4839 22.2477C22.7891 21.4888 20.9535 21.0956 19.0966 21.0938C17.2397 21.0919 15.4033 21.4815 13.707 22.2371L17.207 26.7988C17.8169 26.6364 18.4439 26.5474 19.0748 26.5336C19.7222 26.5321 20.3671 26.6145 20.9934 26.7786L24.4839 22.2477Z" fill="white"/>
</g>
<defs>
<clipPath id="clip0_355_33020">
<rect width="105" height="49.086" fill="white"/>
</clipPath>
</defs>
</svg>
