<?xml version="1.0" encoding="utf-8"?>
<!-- Generator: Adobe Illustrator 27.3.1, SVG Export Plug-In . SVG Version: 6.00 Build 0)  -->
<svg version="1.1" id="Layer_1" xmlns="http://www.w3.org/2000/svg" xmlns:xlink="http://www.w3.org/1999/xlink" x="0px" y="0px"
	 viewBox="0 0 53.2 78.7" style="enable-background:new 0 0 53.2 78.7;" xml:space="preserve">
<style type="text/css">
	.st0{fill:#FFFFFF;stroke:#FFFFFF;stroke-width:2;stroke-miterlimit:10;}
	.st1{fill:#FFFFFF;stroke:#FFFFFF;stroke-miterlimit:10;}
	.st2{fill:#FFFFFF;stroke:#FFFFFF;stroke-width:1.25;stroke-miterlimit:10;}
</style>
<g>
	<path class="st0" d="M40.7,37.4V26.2c0-3.3-1.1-6.3-3-8.7l2.4-4.2c0,0,0.1,0.1,0,0c3.7,3.3,5.7,8.4,5.7,13.7v11.3"/>
	<path class="st1" d="M15.6,17.7c-1.9,2.4-3,5.4-3,8.7v11.2l-5.1,0.7V27.1c0-5.3,1.9-10.4,5.7-13.5L15.6,17.7z"/>
	<polyline class="st0" points="1,68.6 1,39.2 26.6,35.4 52.2,39.2 52.2,68.6 	"/>
	<polyline class="st0" points="52.2,68.6 52.2,73.8 26.6,77.7 1,73.8 1,68.6 	"/>
</g>
<g>
	<g>
		<path class="st2" d="M21,19.3c1.7-0.8,3.7-1.2,5.7-1.2s4,0.4,5.7,1.2"/>
		<path class="st2" d="M21.9,21.3l-1.8-3.9c2.1-1.3,4.3-1.8,6.7-1.8c2.3,0,4.5,0.5,6.6,1.8l-1.8,4C28.5,19.9,24.9,19.9,21.9,21.3z"
			/>
	</g>
	<path class="st2" d="M34.9,15.1c-2.6-1.4-5-2.1-8-2.1s-5.6,0.8-8.1,2.2l-2.5-4.4c3.3-2.2,6.8-3.2,10.5-3.2s7.5,1,10.5,3.2
		L34.9,15.1z"/>
	<path class="st2" d="M38.5,8.6c-3.4-2.4-7.4-3.7-11.7-3.7c-4.2,0-8.5,1.2-11.9,3.6L12.5,5c4.2-2.9,9.1-4.4,14.2-4.4
		s9.5,1.7,13.6,4.6L38.5,8.6z"/>
</g>
</svg>
