<?xml version="1.0" encoding="UTF-8"?>
<svg id="Layer_1" data-name="Layer 1" xmlns="http://www.w3.org/2000/svg" viewBox="0 0 141.73 163.64">
  <defs>
    <style>
      .cls-1, .cls-2 {
        fill: none;
      }

      .cls-3 {
        fill: #fff;
      }

      .cls-4 {
        fill: #1d1d1b;
      }

      .cls-2 {
        stroke-width: 2px;
      }

      .cls-2, .cls-5, .cls-6, .cls-7 {
        stroke: #1d1d1b;
        stroke-miterlimit: 10;
      }

      .cls-5 {
        fill: #010101;
      }

      .cls-5, .cls-6, .cls-7 {
        stroke-width: .75px;
      }

      .cls-6 {
        fill: #e52521;
      }

      .cls-7 {
        fill: #ffcc03;
      }
    </style>
  </defs>
  <g id="Layer_2" data-name="Layer 2">
    <polygon class="cls-3" points="134.02 115.2 134.02 43.67 72.54 7.91 11.07 43.67 11.07 115.2 72.54 150.96 134.02 115.2"/>
  </g>
  <path class="cls-4" d="m70.87,0L0,40.91v81.82l70.87,40.91,70.86-40.91V40.91L70.87,0Zm54.09,113.05l-54.09,31.22-54.1-31.22v-62.47l54.1-31.22,54.09,31.22v62.47Z"/>
  <g>
    <path class="cls-4" d="m37.88,89.97c1.65,0,2.44.73,2.66.92l-.66,1.41c-.28-.25-.9-.76-1.92-.76-1.57,0-2.83.97-2.83,3.36s1.04,3.47,2.68,3.47c1.16,0,1.81-.49,2.12-.74l.5,1.33c-.31.28-1.06.99-2.89.99-2.55,0-4.38-1.37-4.38-5.03s2.37-4.97,4.72-4.97Z"/>
    <path class="cls-4" d="m49.65,99.8h-1.88v-4.1h-3.85v4.1h-1.88v-9.66h1.88v4.02h3.85v-4.02h1.88v9.66Z"/>
    <path class="cls-4" d="m57.37,99.8l-.84-2.6h-2.98l-.84,2.6h-1.88l3.56-9.66h1.47l3.54,9.66h-2.03Zm-2.31-7.26h-.03l-1.07,3.31h2.16l-1.06-3.31Z"/>
    <path class="cls-4" d="m62.46,90.14v8.12h3.84l-.11,1.54h-5.6v-9.66h1.88Z"/>
    <path class="cls-4" d="m69.52,90.14v8.12h3.84l-.11,1.54h-5.6v-9.66h1.88Z"/>
    <path class="cls-4" d="m80.2,91.68h-3.63v2.48h3.36v1.54h-3.36v2.56h4.09l-.11,1.54h-5.85v-9.66h5.62l-.11,1.54Z"/>
    <path class="cls-4" d="m89.78,99.8h-1.61l-3.98-6.04h-.03v6.04h-1.88v-9.66h1.61l3.98,6h.03v-6h1.88v9.66Z"/>
    <path class="cls-4" d="m99.13,99.03c-.31.28-1.19.94-3.03.94-2.59,0-4.54-1.33-4.54-5.04,0-3.42,2.42-4.96,4.86-4.96,1.74,0,2.58.74,2.83.95l-.66,1.42c-.25-.22-.88-.78-2.06-.78-1.62,0-3,1.01-3,3.38s1.05,3.46,2.83,3.46c.38,0,.71-.04,1.01-.11v-2.12h-1.67v-1.51h3.42v4.38Z"/>
    <path class="cls-4" d="m106.63,91.68h-3.63v2.48h3.36v1.54h-3.36v2.56h4.09l-.11,1.54h-5.85v-9.66h5.62l-.11,1.54Z"/>
  </g>
  <g>
    <path class="cls-2" d="m84.51,51.88s.06.05.09.08c3.62,3.22,5.62,8.27,5.62,13.57v11.3"/>
    <path class="cls-2" d="m51.99,76.87v-11.2c0-5.29,1.94-10.4,5.65-13.52"/>
    <path class="cls-2" d="m82.07,56.06c1.91,2.41,3.03,5.44,3.03,8.73v11.25"/>
    <path class="cls-2" d="m57.06,76.1v-11.15c0-3.26,1.12-6.28,3.01-8.65"/>
    <polyline class="cls-2" points="45.41 85.92 45.41 77.79 71.01 73.93 96.62 77.79 96.62 85.92"/>
    <polyline class="cls-2" points="96.62 103.67 96.62 112.36 71.01 116.23 45.41 112.36 45.41 103.67"/>
  </g>
  <rect class="cls-1" x="20.81" y="86.85" width="104.51" height="19.92"/>
  <g>
    <path class="cls-4" d="m53.85,86.01c-1.25,0-2.1-.86-2.1-2.5s.9-2.5,2.14-2.5,2.09.86,2.09,2.5-.9,2.5-2.14,2.5Zm.02-4.48c-.91,0-1.47.68-1.47,1.98s.56,1.98,1.47,1.98,1.46-.7,1.46-1.98-.56-1.98-1.46-1.98Z"/>
    <path class="cls-4" d="m59.79,81.47l-2.41,3.94h0s2.62.01,2.62.01l-.04.5h-3.37v-.38l2.45-3.94h0s-2.33-.01-2.33-.01v-.5h3.08v.38Z"/>
    <path class="cls-4" d="m64.17,85.58c-.14.1-.59.43-1.44.43-1.25,0-2.17-.68-2.17-2.52,0-1.74,1.15-2.48,2.3-2.48.78,0,1.16.31,1.29.41l-.2.49c-.1-.08-.46-.37-1.08-.37-.86,0-1.65.55-1.65,1.95s.56,2,1.59,2c.29,0,.55-.06.76-.13v-1.38h-.89v-.5h1.5v2.12Z"/>
    <path class="cls-4" d="m69,81.89c-.1-.08-.41-.33-.9-.33-.55,0-.81.25-.81.57,0,.38.16.6.75.95l.42.26c.57.36.96.76.96,1.39,0,.74-.57,1.27-1.56,1.27-.77,0-1.13-.3-1.3-.43l.22-.57c.15.14.53.44,1.06.44.65,0,.95-.3.95-.64,0-.42-.22-.62-.75-.97l-.43-.28c-.65-.43-.95-.75-.95-1.41,0-.62.55-1.14,1.41-1.14.7,0,1.05.29,1.14.36l-.22.53Z"/>
    <path class="cls-4" d="m72.61,84.36h-1.95c.04.78.41,1.14,1.02,1.14.53,0,.79-.23.88-.31l.17.41c-.11.11-.4.41-1.11.41-.95,0-1.53-.55-1.53-1.81,0-1.18.69-1.72,1.46-1.72.69,0,1.13.47,1.13,1.32,0,.22-.03.41-.06.57Zm-1.95-.44h1.47c.01-.08.01-.15.01-.22,0-.47-.25-.74-.64-.74-.47,0-.8.34-.84.96Z"/>
    <path class="cls-4" d="m75.73,83.22c-.07-.06-.32-.25-.69-.25-.61,0-1.06.35-1.06,1.22,0,.97.41,1.31,1,1.31.36,0,.58-.13.69-.22l.17.43c-.13.11-.4.3-.97.3-.88,0-1.49-.53-1.49-1.79s.84-1.74,1.62-1.74c.51,0,.76.19.9.29l-.18.45Z"/>
    <path class="cls-4" d="m79.27,85.92h-.53v-.38h-.01c-.11.13-.38.46-1.04.46-.69,0-1.07-.43-1.07-1.37v-2.08h.57v1.99c0,.67.2.95.65.95s.72-.23.86-.36v-2.58h.57v3.36Z"/>
    <path class="cls-4" d="m81.96,83.07s-.13-.06-.31-.06c-.45,0-.68.27-.78.48v2.44h-.57v-3.36h.53v.5h.01c.11-.25.33-.56.85-.56.14,0,.22.02.31.05l-.05.52Z"/>
    <path class="cls-4" d="m82.95,81.75c-.22,0-.4-.15-.4-.4s.17-.41.4-.41.41.16.41.41-.18.4-.41.4Zm.28,4.17h-.57v-3.36h.57v3.36Z"/>
    <path class="cls-4" d="m85.85,83.04h-.87v1.74c0,.53.13.72.5.72.18,0,.32-.06.39-.1l.06.46c-.06.04-.25.15-.6.15-.66,0-.92-.38-.92-1.15v-1.81h-.46v-.4l.46-.08.06-.94h.5v.94h.94l-.07.48Z"/>
    <path class="cls-4" d="m87.87,86.13c-.27.78-.59,1.23-1.31,1.23-.17,0-.27-.05-.29-.06v-.49s.13.05.26.05c.46,0,.67-.21.85-.74l.07-.2-1.23-3.35h.61l.9,2.63h.01l.83-2.63h.55l-1.25,3.57Z"/>
  </g>
  <g>
    <path class="cls-4" d="m65.21,68.25h0s1.86.01,1.86.01v.48h-2.56l-.04-.41c1.54-1.61,1.94-2.02,1.94-2.83,0-.56-.25-.89-.78-.89s-.86.32-.97.44l-.25-.41c.14-.15.54-.54,1.28-.54.88,0,1.32.53,1.32,1.31,0,.98-.6,1.64-1.79,2.83Z"/>
    <path class="cls-4" d="m69.24,68.83c-.84,0-1.39-.69-1.39-2.36s.64-2.36,1.48-2.36,1.39.69,1.39,2.36-.64,2.36-1.48,2.36Zm.04-4.22c-.5,0-.85.5-.85,1.86s.35,1.86.85,1.86.85-.5.85-1.86-.35-1.86-.85-1.86Z"/>
    <path class="cls-4" d="m72.21,68.25h0s1.86.01,1.86.01v.48h-2.56l-.04-.41c1.54-1.61,1.94-2.02,1.94-2.83,0-.56-.25-.89-.78-.89s-.86.32-.97.44l-.25-.41c.14-.15.54-.54,1.28-.54.88,0,1.32.53,1.32,1.31,0,.98-.6,1.64-1.79,2.83Z"/>
    <path class="cls-4" d="m76.56,66.44h0c.51.15.92.46.92,1.16,0,.74-.51,1.23-1.39,1.23-.62,0-1-.31-1.15-.48l.24-.47c.12.13.39.45.9.45.53,0,.82-.24.82-.69,0-.6-.43-.92-1.2-.92h-.15l-.03-.48h.26c.7,0,1.03-.41,1.03-.95,0-.38-.22-.69-.66-.69s-.72.22-.87.37l-.2-.39c.17-.19.57-.48,1.16-.48.67,0,1.13.39,1.13,1.15,0,.65-.35,1.01-.81,1.18Z"/>
  </g>
  <g>
    <path class="cls-4" d="m84.09,133.35c-.67.38-1.43.22-1.98-.75-.56-.98-.22-1.76.42-2.13.67-.38,1.42-.23,1.98.75.55.97.23,1.76-.42,2.13Zm-1.36-2.46c-.42.24-.54.74-.15,1.43.39.69.88.84,1.31.6.43-.25.54-.75.15-1.44-.4-.69-.88-.84-1.31-.6Z"/>
    <path class="cls-4" d="m86.27,128.81l-.14,2.76h0s1.38-.78,1.38-.78l.19.41-1.94,1.11-.17-.29.15-2.76h0s-1.24.7-1.24.7l-.22-.39,1.82-1.04.17.29Z"/>
    <path class="cls-4" d="m89.22,127.19l-.41.24c.18.09.33.22.43.4.33.58.06,1.18-.54,1.52-.08.05-.16.08-.24.11-.07.09-.16.25-.07.39.06.11.19.14.4.03l.55-.32c.57-.33,1.03-.28,1.3.2.29.51.07,1.27-.87,1.81-.64.37-1.16.33-1.43-.15-.24-.41-.02-.76.09-.94h0c-.17-.03-.3-.14-.39-.3-.16-.28.01-.56.06-.64h0c-.35.01-.69-.15-.92-.55-.35-.61-.06-1.18.5-1.5.15-.08.3-.14.45-.16l.94-.54.15.39Zm-1.31.69c-.31.18-.5.48-.28.87.22.39.58.38.88.21.31-.18.5-.48.28-.87-.22-.39-.58-.38-.88-.21Zm.83,2.57c-.09.16-.16.38,0,.64.17.31.45.32.86.09.66-.38.8-.79.64-1.07-.15-.26-.34-.28-.64-.11l-.6.34c-.09.05-.17.09-.24.11Z"/>
    <path class="cls-4" d="m91.29,126.29c-.14-.03-.43-.07-.73.1-.29.17-.36.37-.27.53.12.21.3.24.67.22h.26c.54-.04.91.06,1.13.45.23.41.13.94-.53,1.32-.45.26-.79.22-.98.18l-.06-.5c.19.05.48.1.8-.09.34-.2.45-.43.34-.6-.15-.26-.37-.26-.77-.25h-.26c-.51.02-.83-.1-1.04-.47-.23-.4-.04-.91.47-1.2.43-.25.75-.19.89-.16l.06.46Z"/>
    <path class="cls-4" d="m94.58,125.57l-1.57.9c.39.61.86.73,1.35.45.43-.25.53-.55.57-.66l.32.25c-.04.14-.13.52-.71.85-.77.44-1.48.26-2.06-.75-.54-.95-.23-1.71.38-2.06.56-.32,1.12-.14,1.51.54.1.18.16.34.21.49Zm-1.78.55l1.18-.68c-.03-.08-.06-.13-.09-.19-.22-.38-.54-.48-.86-.3-.38.22-.48.65-.24,1.16Z"/>
    <path class="cls-4" d="m96.57,123.21c-.08-.01-.37-.05-.67.12-.49.28-.69.77-.29,1.47.44.78.93.87,1.41.59.29-.17.41-.38.46-.5l.33.27c-.05.15-.18.43-.64.69-.71.41-1.44.26-2.02-.76-.56-.99-.12-1.79.51-2.15.41-.24.7-.2.86-.18l.06.45Z"/>
    <path class="cls-4" d="m98.79,124.92c-.18.1-.39.06-.5-.14-.11-.2-.05-.41.13-.51.18-.1.4-.06.51.14.11.2.04.41-.14.51Z"/>
    <path class="cls-4" d="m99.38,120.82c.24-.14.43-.18.56-.2l-.76-1.33.43-.31,2.3,4.04-.42.24-.17-.3h-.01c-.02.15-.05.53-.59.84-.59.34-1.32.12-1.82-.77-.59-1.04-.17-1.84.49-2.22Zm1.72,1.83l-.9-1.58c-.13-.01-.32,0-.56.14-.52.3-.7.79-.29,1.52.42.73.9.8,1.31.57.37-.21.42-.51.44-.65Z"/>
    <path class="cls-4" d="m103.93,120.21l-1.57.9c.39.61.86.73,1.35.45.43-.25.53-.55.57-.66l.32.25c-.04.14-.13.52-.71.85-.77.44-1.48.26-2.06-.75-.54-.95-.23-1.71.38-2.06.56-.32,1.12-.14,1.51.54.1.18.16.34.21.49Zm-1.78.55l1.18-.68c-.03-.07-.06-.13-.09-.19-.21-.38-.53-.48-.86-.3-.38.22-.48.65-.24,1.16Z"/>
  </g>
  <g>
    <g>
      <path class="cls-7" d="m65.43,57.84c1.74-.8,3.67-1.23,5.71-1.23s3.96.43,5.7,1.22"/>
      <path class="cls-7" d="m66.34,59.8l-1.81-3.94c2.09-1.27,4.32-1.85,6.65-1.85s4.46.48,6.56,1.83l-1.79,3.95c-3.02-1.37-6.64-1.36-9.61,0Z"/>
    </g>
    <path class="cls-6" d="m79.31,53.63c-2.56-1.44-5.02-2.13-7.95-2.13s-5.61.79-8.14,2.23l-2.48-4.38c3.26-2.21,6.82-3.18,10.53-3.18s7.46.97,10.52,3.17l-2.48,4.29Z"/>
    <path class="cls-5" d="m82.93,47.16c-3.41-2.42-7.44-3.7-11.65-3.7s-8.46,1.21-11.88,3.63l-2.37-3.54c4.15-2.94,9.13-4.43,14.25-4.43s9.51,1.68,13.65,4.62l-2,3.41Z"/>
  </g>
</svg>