<?xml version="1.0" encoding="utf-8"?>
<!-- Generator: Adobe Illustrator 27.3.1, SVG Export Plug-In . SVG Version: 6.00 Build 0)  -->
<svg version="1.1" id="Layer_1" xmlns="http://www.w3.org/2000/svg" xmlns:xlink="http://www.w3.org/1999/xlink" x="0px" y="0px"
	 viewBox="0 0 52.7 78.5" style="enable-background:new 0 0 52.7 78.5;" xml:space="preserve">
<style type="text/css">
	.st0{fill:none;stroke:#FFFFFF;stroke-width:1.5;stroke-miterlimit:10;}
	.st1{fill:#FFFFFF;stroke:#FFFFFF;stroke-width:1.25;stroke-miterlimit:10;}
</style>
<g>
	<path class="st0" d="M39.8,13.3C39.8,13.3,39.9,13.4,39.8,13.3c3.7,3.3,5.7,8.4,5.7,13.7v11.3"/>
	<path class="st0" d="M7.2,38.3V27.1c0-5.3,1.9-10.4,5.7-13.5"/>
	<path class="st0" d="M37.4,17.5c1.9,2.4,3,5.4,3,8.7v11.2"/>
	<path class="st0" d="M12.4,37.6V26.4c0-3.3,1.1-6.3,3-8.7"/>
	<polyline class="st0" points="0.8,68.6 0.8,39.2 26.4,35.4 51.9,39.2 51.9,68.6 	"/>
	<polyline class="st0" points="51.9,68.6 51.9,73.8 26.4,77.7 0.8,73.8 0.8,68.6 	"/>
</g>
<g>
	<g>
		<path class="st1" d="M20.8,19.3c1.7-0.8,3.7-1.2,5.7-1.2s4,0.4,5.7,1.2"/>
		<path class="st1" d="M21.6,21.3l-1.8-3.9c2.1-1.3,4.3-1.8,6.7-1.8c2.3,0,4.5,0.5,6.6,1.8l-1.8,4C28.2,19.9,24.6,19.9,21.6,21.3z"
			/>
	</g>
	<path class="st1" d="M34.7,15.1c-2.6-1.4-5-2.1-8-2.1s-5.6,0.8-8.1,2.2L16,10.8c3.3-2.2,6.8-3.2,10.5-3.2s7.5,1,10.5,3.2L34.7,15.1
		z"/>
	<path class="st1" d="M38.2,8.6c-3.4-2.4-7.4-3.7-11.7-3.7c-4.2,0-8.5,1.2-11.9,3.6L12.2,5c4.2-2.9,9.1-4.4,14.2-4.4
		s9.5,1.7,13.6,4.6L38.2,8.6z"/>
</g>
</svg>
