<?xml version="1.0" encoding="utf-8"?>
<!-- Generator: Adobe Illustrator 27.2.0, SVG Export Plug-In . SVG Version: 6.00 Build 0)  -->
<svg version="1.1" id="Layer_1" xmlns="http://www.w3.org/2000/svg" xmlns:xlink="http://www.w3.org/1999/xlink" x="0px" y="0px"
	 viewBox="0 0 73.9 78.1" style="enable-background:new 0 0 73.9 78.1;" xml:space="preserve">
<style type="text/css">
	.st0{fill:#FFFFFF;}
	.st1{fill:none;stroke:#FFFFFF;stroke-miterlimit:10;}
	.st2{fill:#FFCC03;stroke:#FFFFFF;stroke-miterlimit:10;}
	.st3{fill:#E52521;stroke:#FFFFFF;stroke-miterlimit:10;}
	.st4{fill:#020203;stroke:#FFFFFF;stroke-miterlimit:10;}
</style>
<g>
	<path class="st0" d="M4.7,51.3c1.7,0,2.4,0.7,2.7,0.9l-0.7,1.4c-0.3-0.2-0.9-0.8-1.9-0.8c-1.6,0-2.8,1-2.8,3.4c0,2.5,1,3.5,2.7,3.5
		c1.2,0,1.8-0.5,2.1-0.7l0.5,1.3c-0.3,0.3-1.1,1-2.9,1c-2.6,0-4.4-1.4-4.4-5C0,52.8,2.3,51.3,4.7,51.3z"/>
	<path class="st0" d="M16.5,61.2h-1.9v-4.1h-3.8v4.1H8.9v-9.7h1.9v4h3.8v-4h1.9V61.2z"/>
	<path class="st0" d="M24.2,61.2l-0.9-2.6h-3l-0.8,2.6h-1.9l3.6-9.7h1.5l3.5,9.7H24.2z M21.8,53.9L21.8,53.9l-1.1,3.3h2.2L21.8,53.9
		z"/>
	<path class="st0" d="M29.3,51.5v8.1h3.8L33,61.1h-5.6v-9.7h1.9V51.5z"/>
	<path class="st0" d="M36.3,51.5v8.1h3.8L40,61.1h-5.6v-9.7h1.9V51.5z"/>
	<path class="st0" d="M47,53h-3.6v2.5h3.4V57h-3.4v2.6h4.1l-0.1,1.5h-5.8v-9.7h5.6L47,53z"/>
	<path class="st0" d="M56.6,61.2H55l-4-6l0,0v6h-1.9v-9.7h1.6l4,6l0,0v-6h1.9V61.2z"/>
	<path class="st0" d="M65.9,60.4c-0.3,0.3-1.2,0.9-3,0.9c-2.6,0-4.5-1.3-4.5-5c0-3.4,2.4-5,4.9-5c1.7,0,2.6,0.7,2.8,0.9l-0.7,1.4
		c-0.2-0.2-0.9-0.8-2.1-0.8c-1.6,0-3,1-3,3.4s1.1,3.5,2.8,3.5c0.4,0,0.7,0,1-0.1v-2.1h-1.7V56h3.4L65.9,60.4L65.9,60.4z"/>
	<path class="st0" d="M73.4,53h-3.6v2.5h3.4V57h-3.4v2.6h4.1l-0.1,1.5H68v-9.7h5.6L73.4,53z"/>
</g>
<g>
	<path class="st1" d="M51.3,13.2C51.3,13.2,51.4,13.3,51.3,13.2C55,16.5,57,21.6,57,26.9v11.3"/>
	<path class="st1" d="M18.8,38.2V27c0-5.3,1.9-10.4,5.7-13.5"/>
	<path class="st1" d="M48.9,17.4c1.9,2.4,3,5.4,3,8.7v11.2"/>
	<path class="st1" d="M23.9,37.5V26.3c0-3.3,1.1-6.3,3-8.7"/>
	<polyline class="st1" points="12.2,47.3 12.2,39.1 37.8,35.3 63.4,39.1 63.4,47.3 	"/>
	<polyline class="st1" points="63.4,65 63.4,73.7 37.8,77.6 12.2,73.7 12.2,65 	"/>
</g>
<g>
	<path class="st0" d="M20.6,47.4c-1.2,0-2.1-0.9-2.1-2.5s0.9-2.5,2.1-2.5s2.1,0.9,2.1,2.5C22.8,46.5,21.9,47.4,20.6,47.4z
		 M20.7,42.9c-0.9,0-1.5,0.7-1.5,2s0.6,2,1.5,2s1.5-0.7,1.5-2C22.1,43.6,21.6,42.9,20.7,42.9z"/>
	<path class="st0" d="M26.6,42.8l-2.4,3.9l0,0h2.6v0.5h-3.4v-0.4l2.5-3.9l0,0h-2.3v-0.5h3V42.8z"/>
	<path class="st0" d="M31,46.9c-0.1,0.1-0.6,0.4-1.4,0.4c-1.2,0-2.2-0.7-2.2-2.5c0-1.7,1.2-2.5,2.3-2.5c0.8,0,1.2,0.3,1.3,0.4
		l-0.2,0.5c-0.1-0.1-0.5-0.4-1.1-0.4c-0.9,0-1.7,0.6-1.7,1.9c0,1.4,0.6,2,1.6,2c0.3,0,0.5-0.1,0.8-0.1v-1.4h-0.9v-0.5H31L31,46.9
		L31,46.9z"/>
	<path class="st0" d="M35.8,43.2c-0.1-0.1-0.4-0.3-0.9-0.3s-0.8,0.2-0.8,0.6c0,0.4,0.2,0.6,0.8,0.9l0.4,0.3c0.6,0.4,1,0.8,1,1.4
		c0,0.7-0.6,1.3-1.6,1.3c-0.8,0-1.1-0.3-1.3-0.4l0.2-0.6c0.2,0.1,0.5,0.4,1.1,0.4c0.7,0,1-0.3,1-0.6c0-0.4-0.2-0.6-0.8-1l-0.4-0.3
		c-0.7-0.4-1-0.8-1-1.4c0-0.6,0.5-1.1,1.4-1.1c0.7,0,1,0.3,1.1,0.4L35.8,43.2z"/>
	<path class="st0" d="M39.4,45.7h-2c0,0.8,0.4,1.1,1,1.1c0.5,0,0.8-0.2,0.9-0.3l0.2,0.4c-0.1,0.1-0.4,0.4-1.1,0.4
		c-1,0-1.5-0.6-1.5-1.8s0.7-1.7,1.5-1.7c0.7,0,1.1,0.5,1.1,1.3C39.5,45.4,39.4,45.6,39.4,45.7z M37.5,45.3H39c0-0.1,0-0.2,0-0.2
		c0-0.5-0.2-0.7-0.6-0.7C37.8,44.3,37.5,44.7,37.5,45.3z"/>
	<path class="st0" d="M42.5,44.6c-0.1-0.1-0.3-0.2-0.7-0.2c-0.6,0-1.1,0.3-1.1,1.2c0,1,0.4,1.3,1,1.3c0.4,0,0.6-0.1,0.7-0.2l0.2,0.4
		c-0.1,0.1-0.4,0.3-1,0.3c-0.9,0-1.5-0.5-1.5-1.8c0-1.2,0.8-1.7,1.6-1.7c0.5,0,0.8,0.2,0.9,0.3L42.5,44.6z"/>
	<path class="st0" d="M46.1,47.3h-0.5v-0.4l0,0c-0.1,0.1-0.4,0.5-1,0.5c-0.7,0-1.1-0.4-1.1-1.4v-2.1h0.6v2c0,0.7,0.2,0.9,0.7,0.9
		s0.7-0.2,0.9-0.4v-2.6h0.6v3.5H46.1z"/>
	<path class="st0" d="M48.8,44.4c0,0-0.1-0.1-0.3-0.1c-0.4,0-0.7,0.3-0.8,0.5v2.4h-0.6v-3.4h0.5v0.5l0,0c0.1-0.2,0.3-0.6,0.8-0.6
		c0.1,0,0.2,0,0.3,0.1L48.8,44.4z"/>
	<path class="st0" d="M49.7,43.1c-0.2,0-0.4-0.2-0.4-0.4s0.2-0.4,0.4-0.4s0.4,0.2,0.4,0.4S50,43.1,49.7,43.1z M50,47.3h-0.6v-3.4H50
		V47.3z"/>
	<path class="st0" d="M52.6,44.4h-0.9v1.7c0,0.5,0.1,0.7,0.5,0.7c0.2,0,0.3-0.1,0.4-0.1l0.1,0.5c-0.1,0-0.2,0.2-0.6,0.2
		c-0.7,0-0.9-0.4-0.9-1.2v-1.8h-0.5V44l0.5-0.1l0.1-0.9h0.5v0.9h0.9L52.6,44.4z"/>
	<path class="st0" d="M54.7,47.5c-0.3,0.8-0.6,1.2-1.3,1.2c-0.2,0-0.3-0.1-0.3-0.1v-0.5c0,0,0.1,0.1,0.3,0.1c0.5,0,0.7-0.2,0.8-0.7
		l0.1-0.2L53.1,44h0.5l0.9,2.6l0,0l0.8-2.6h0.6L54.7,47.5z"/>
</g>
<g>
	<path class="st0" d="M32,29.6L32,29.6h1.9v0.5h-2.6v-0.4c1.5-1.6,1.9-2,1.9-2.8c0-0.6-0.2-0.9-0.8-0.9c-0.5,0-0.9,0.3-1,0.4
		L31.2,26c0.1-0.2,0.5-0.5,1.3-0.5c0.9,0,1.3,0.5,1.3,1.3C33.8,27.8,33.2,28.4,32,29.6z"/>
	<path class="st0" d="M36,30.2c-0.8,0-1.4-0.7-1.4-2.4c0-1.7,0.6-2.4,1.5-2.4s1.4,0.7,1.4,2.4S36.9,30.2,36,30.2z M36.1,26
		c-0.5,0-0.8,0.5-0.8,1.9s0.3,1.9,0.8,1.9s0.8-0.5,0.8-1.9S36.6,26,36.1,26z"/>
	<path class="st0" d="M39,29.6L39,29.6h1.9v0.5h-2.6v-0.4c1.5-1.6,1.9-2,1.9-2.8c0-0.6-0.2-0.9-0.8-0.9c-0.5,0-0.9,0.3-1,0.4
		L38.2,26c0.1-0.2,0.5-0.5,1.3-0.5c0.9,0,1.3,0.5,1.3,1.3C40.8,27.8,40.2,28.4,39,29.6z"/>
	<path class="st0" d="M43.4,27.8L43.4,27.8c0.5,0.1,0.9,0.5,0.9,1.1c0,0.7-0.5,1.2-1.4,1.2c-0.6,0-1-0.3-1.2-0.5l0.2-0.5
		c0.1,0.1,0.4,0.5,0.9,0.5s0.8-0.2,0.8-0.7c0-0.6-0.4-0.9-1.2-0.9h-0.2v-0.5h0.4c0.7,0,1-0.4,1-1c0-0.4-0.2-0.7-0.7-0.7
		c-0.4,0-0.7,0.2-0.9,0.4l-0.2-0.4c0.2-0.2,0.6-0.5,1.2-0.5c0.7,0,1.1,0.4,1.1,1.2C44.2,27.3,43.8,27.6,43.4,27.8z"/>
</g>
<g>
	<g>
		<path class="st2" d="M32.2,19.2c1.7-0.8,3.7-1.2,5.7-1.2s4,0.4,5.7,1.2"/>
		<path class="st2" d="M33.1,21.2l-1.8-3.9c2.1-1.3,4.3-1.8,6.7-1.8c2.3,0,4.5,0.5,6.6,1.8l-1.8,4C39.7,19.8,36.1,19.8,33.1,21.2z"
			/>
	</g>
	<path class="st3" d="M46.1,15c-2.6-1.4-5-2.1-8-2.1s-5.6,0.8-8.1,2.2l-2.5-4.4c3.3-2.2,6.8-3.2,10.5-3.2s7.5,1,10.5,3.2L46.1,15z"
		/>
	<path class="st4" d="M49.7,8.5C46.3,6.1,42.3,4.8,38,4.8c-4.2,0-8.5,1.2-11.9,3.6l-2.4-3.5c4.2-2.9,9.1-4.4,14.2-4.4
		s9.5,1.7,13.6,4.6L49.7,8.5z"/>
</g>
</svg>
