<?xml version="1.0" encoding="utf-8"?>
<!-- Generator: Adobe Illustrator 27.2.0, SVG Export Plug-In . SVG Version: 6.00 Build 0)  -->
<svg version="1.1" id="Layer_1" xmlns="http://www.w3.org/2000/svg" xmlns:xlink="http://www.w3.org/1999/xlink" x="0px" y="0px"
	 viewBox="0 0 73.9 78.5" style="enable-background:new 0 0 73.9 78.5;" xml:space="preserve">
<style type="text/css">
	.st0{fill:#FFFFFF;}
	.st1{fill:none;stroke:#FFFFFF;stroke-width:1.5;stroke-miterlimit:10;}
	.st2{fill:#FFCC03;stroke:#FFFFFF;stroke-width:1.25;stroke-miterlimit:10;}
	.st3{fill:#E52521;stroke:#FFFFFF;stroke-width:1.25;stroke-miterlimit:10;}
	.st4{fill:#020203;stroke:#FFFFFF;stroke-width:1.25;stroke-miterlimit:10;}
</style>
<g>
	<path class="st0" d="M4.7,55.1c1.7,0,2.4,0.7,2.7,0.9l-0.7,1.4c-0.3-0.2-0.9-0.8-1.9-0.8c-1.6,0-2.8,1-2.8,3.4c0,2.5,1,3.5,2.7,3.5
		c1.2,0,1.8-0.5,2.1-0.7l0.5,1.3c-0.3,0.3-1.1,1-2.9,1c-2.6,0-4.4-1.4-4.4-5C0,56.6,2.3,55.1,4.7,55.1z"/>
	<path class="st0" d="M16.5,65h-1.9v-4.1h-3.8V65H8.9v-9.7h1.9v4h3.8v-4h1.9V65z"/>
	<path class="st0" d="M24.2,65l-0.9-2.6h-3L19.5,65h-1.9l3.6-9.7h1.5l3.5,9.7H24.2z M21.8,57.7L21.8,57.7L20.7,61h2.2L21.8,57.7z"/>
	<path class="st0" d="M29.3,55.3v8.1h3.8L33,64.9h-5.6v-9.7L29.3,55.3L29.3,55.3z"/>
	<path class="st0" d="M36.3,55.3v8.1h3.8L40,64.9h-5.6v-9.7L36.3,55.3C36.3,55.2,36.3,55.3,36.3,55.3z"/>
	<path class="st0" d="M47,56.8h-3.6v2.5h3.4v1.5h-3.4v2.6h4.1l-0.1,1.5h-5.8v-9.7h5.6L47,56.8z"/>
	<path class="st0" d="M56.6,65H55l-4-6l0,0v6h-1.9v-9.7h1.6l4,6l0,0v-6h1.9V65z"/>
	<path class="st0" d="M65.9,64.2c-0.3,0.3-1.2,0.9-3,0.9c-2.6,0-4.5-1.3-4.5-5c0-3.4,2.4-5,4.9-5c1.7,0,2.6,0.7,2.8,0.9l-0.7,1.4
		c-0.2-0.2-0.9-0.8-2.1-0.8c-1.6,0-3,1-3,3.4s1.1,3.5,2.8,3.5c0.4,0,0.7,0,1-0.1v-2.1h-1.7v-1.5h3.4L65.9,64.2L65.9,64.2z"/>
	<path class="st0" d="M73.4,56.8h-3.6v2.5h3.4v1.5h-3.4v2.6h4.1l-0.1,1.5H68v-9.7h5.6L73.4,56.8z"/>
</g>
<g>
	<path class="st1" d="M50.7,13.3C50.7,13.3,50.8,13.4,50.7,13.3c3.7,3.3,5.7,8.4,5.7,13.7v11.3"/>
	<path class="st1" d="M18.1,38.3V27.1c0-5.3,1.9-10.4,5.7-13.5"/>
	<path class="st1" d="M48.3,17.5c1.9,2.4,3,5.4,3,8.7v11.2"/>
	<path class="st1" d="M23.2,37.6V26.4c0-3.3,1.1-6.3,3-8.7"/>
	<polyline class="st1" points="11.6,52.1 11.6,39.2 37.2,35.4 62.8,39.2 62.8,52.1 	"/>
	<polyline class="st1" points="62.8,68.6 62.8,73.8 37.2,77.7 11.6,73.8 11.6,68.6 	"/>
</g>
<g>
	<path class="st0" d="M20.6,51.2c-1.2,0-2.1-0.9-2.1-2.5s0.9-2.5,2.1-2.5s2.1,0.9,2.1,2.5C22.8,50.3,21.9,51.2,20.6,51.2z
		 M20.7,46.7c-0.9,0-1.5,0.7-1.5,2s0.6,2,1.5,2s1.5-0.7,1.5-2C22.1,47.4,21.6,46.7,20.7,46.7z"/>
	<path class="st0" d="M26.6,46.6l-2.4,3.9l0,0h2.6V51h-3.4v-0.4l2.5-3.9l0,0h-2.3v-0.5h3C26.6,46.2,26.6,46.6,26.6,46.6z"/>
	<path class="st0" d="M31,50.7c-0.1,0.1-0.6,0.4-1.4,0.4c-1.2,0-2.2-0.7-2.2-2.5c0-1.7,1.2-2.5,2.3-2.5c0.8,0,1.2,0.3,1.3,0.4
		L30.8,47c-0.1-0.1-0.5-0.4-1.1-0.4c-0.9,0-1.7,0.6-1.7,1.9c0,1.4,0.6,2,1.6,2c0.3,0,0.5-0.1,0.8-0.1V49h-0.9v-0.5H31V50.7L31,50.7z
		"/>
	<path class="st0" d="M35.8,47c-0.1-0.1-0.4-0.3-0.9-0.3s-0.8,0.2-0.8,0.6c0,0.4,0.2,0.6,0.8,0.9l0.4,0.3c0.6,0.4,1,0.8,1,1.4
		c0,0.7-0.6,1.3-1.6,1.3c-0.8,0-1.1-0.3-1.3-0.4l0.2-0.6c0.2,0.1,0.5,0.4,1.1,0.4c0.7,0,1-0.3,1-0.6c0-0.4-0.2-0.6-0.8-1l-0.4-0.3
		c-0.7-0.4-1-0.8-1-1.4c0-0.6,0.5-1.1,1.4-1.1c0.7,0,1,0.3,1.1,0.4L35.8,47z"/>
	<path class="st0" d="M39.4,49.5h-2c0,0.8,0.4,1.1,1,1.1c0.5,0,0.8-0.2,0.9-0.3l0.2,0.4c-0.1,0.1-0.4,0.4-1.1,0.4
		c-1,0-1.5-0.6-1.5-1.8s0.7-1.7,1.5-1.7c0.7,0,1.1,0.5,1.1,1.3C39.5,49.2,39.4,49.4,39.4,49.5z M37.5,49.1H39c0-0.1,0-0.2,0-0.2
		c0-0.5-0.2-0.7-0.6-0.7C37.8,48.1,37.5,48.5,37.5,49.1z"/>
	<path class="st0" d="M42.5,48.4c-0.1-0.1-0.3-0.2-0.7-0.2c-0.6,0-1.1,0.3-1.1,1.2c0,1,0.4,1.3,1,1.3c0.4,0,0.6-0.1,0.7-0.2l0.2,0.4
		c-0.1,0.1-0.4,0.3-1,0.3c-0.9,0-1.5-0.5-1.5-1.8c0-1.2,0.8-1.7,1.6-1.7c0.5,0,0.8,0.2,0.9,0.3L42.5,48.4z"/>
	<path class="st0" d="M46.1,51.1h-0.5v-0.4l0,0c-0.1,0.1-0.4,0.5-1,0.5c-0.7,0-1.1-0.4-1.1-1.4v-2.1h0.6v2c0,0.7,0.2,0.9,0.7,0.9
		s0.7-0.2,0.9-0.4v-2.6h0.6v3.5H46.1z"/>
	<path class="st0" d="M48.8,48.2c0,0-0.1-0.1-0.3-0.1c-0.4,0-0.7,0.3-0.8,0.5V51h-0.6v-3.4h0.5v0.5l0,0c0.1-0.2,0.3-0.6,0.8-0.6
		c0.1,0,0.2,0,0.3,0.1L48.8,48.2z"/>
	<path class="st0" d="M49.7,46.9c-0.2,0-0.4-0.2-0.4-0.4s0.2-0.4,0.4-0.4s0.4,0.2,0.4,0.4S50,46.9,49.7,46.9z M50,51.1h-0.6v-3.4H50
		V51.1z"/>
	<path class="st0" d="M52.6,48.2h-0.9v1.7c0,0.5,0.1,0.7,0.5,0.7c0.2,0,0.3-0.1,0.4-0.1l0.1,0.5c-0.1,0-0.2,0.2-0.6,0.2
		c-0.7,0-0.9-0.4-0.9-1.2v-1.8h-0.5v-0.4l0.5-0.1l0.1-0.9h0.5v0.9h0.9L52.6,48.2z"/>
	<path class="st0" d="M54.7,51.3c-0.3,0.8-0.6,1.2-1.3,1.2c-0.2,0-0.3-0.1-0.3-0.1v-0.5c0,0,0.1,0.1,0.3,0.1c0.5,0,0.7-0.2,0.8-0.7
		l0.1-0.2l-1.2-3.3h0.5l0.9,2.6l0,0l0.8-2.6h0.6L54.7,51.3z"/>
</g>
<g>
	<g>
		<path class="st2" d="M31.6,19.3c1.7-0.8,3.7-1.2,5.7-1.2s4,0.4,5.7,1.2"/>
		<path class="st2" d="M32.5,21.3l-1.8-3.9c2.1-1.3,4.3-1.8,6.7-1.8c2.3,0,4.5,0.5,6.6,1.8l-1.8,4C39.1,19.9,35.5,19.9,32.5,21.3z"
			/>
	</g>
	<path class="st3" d="M45.5,15.1c-2.6-1.4-5-2.1-8-2.1s-5.6,0.8-8.1,2.2l-2.5-4.4c3.3-2.2,6.8-3.2,10.5-3.2s7.5,1,10.5,3.2
		L45.5,15.1z"/>
	<path class="st4" d="M49.1,8.6c-3.4-2.4-7.4-3.7-11.7-3.7c-4.2,0-8.5,1.2-11.9,3.6L23.1,5c4.2-2.9,9.1-4.4,14.2-4.4
		s9.5,1.7,13.6,4.6L49.1,8.6z"/>
</g>
</svg>
