<?xml version="1.0" encoding="utf-8"?>
<!-- Generator: Adobe Illustrator 27.5.0, SVG Export Plug-In . SVG Version: 6.00 Build 0)  -->
<svg version="1.1" id="Layer_1" xmlns="http://www.w3.org/2000/svg" xmlns:xlink="http://www.w3.org/1999/xlink" x="0px" y="0px"
	 viewBox="0 0 73.9 78.5" enable-background="new 0 0 73.9 78.5" xml:space="preserve">
<g>
	<path fill="none" stroke="#000000" stroke-width="1.5" stroke-miterlimit="10" d="M50.7,13.3C50.7,13.3,50.8,13.4,50.7,13.3
		c3.7,3.3,5.7,8.4,5.7,13.7v11.3"/>
	<path fill="none" stroke="#000000" stroke-width="1.5" stroke-miterlimit="10" d="M18.1,38.3V27.1c0-5.3,1.9-10.4,5.7-13.5"/>
	<path fill="none" stroke="#000000" stroke-width="1.5" stroke-miterlimit="10" d="M48.3,17.5c1.9,2.4,3,5.4,3,8.7v11.2"/>
	<path fill="none" stroke="#000000" stroke-width="1.5" stroke-miterlimit="10" d="M23.2,37.6V26.4c0-3.3,1.1-6.3,3-8.7"/>
	<polyline fill="none" stroke="#000000" stroke-width="1.5" stroke-miterlimit="10" points="11.6,52.1 11.6,39.2 37.2,35.4 
		62.8,39.2 62.8,52.1 	"/>
	<polyline fill="none" stroke="#000000" stroke-width="1.5" stroke-miterlimit="10" points="62.8,68.6 62.8,73.8 37.2,77.7 
		11.6,73.8 11.6,68.6 	"/>
</g>
<g>
	<path d="M20.6,51.2c-1.2,0-2.1-0.9-2.1-2.5s0.9-2.5,2.1-2.5s2.1,0.9,2.1,2.5C22.8,50.3,21.9,51.2,20.6,51.2z M20.7,46.7
		c-0.9,0-1.5,0.7-1.5,2s0.6,2,1.5,2s1.5-0.7,1.5-2C22.1,47.4,21.6,46.7,20.7,46.7z"/>
	<path d="M26.6,46.6l-2.4,3.9l0,0h2.6V51h-3.4v-0.4l2.5-3.9l0,0h-2.3v-0.5h3C26.6,46.2,26.6,46.6,26.6,46.6z"/>
	<path d="M31,50.7c-0.1,0.1-0.6,0.4-1.4,0.4c-1.2,0-2.2-0.7-2.2-2.5c0-1.7,1.2-2.5,2.3-2.5c0.8,0,1.2,0.3,1.3,0.4L30.8,47
		c-0.1-0.1-0.5-0.4-1.1-0.4c-0.9,0-1.7,0.6-1.7,1.9c0,1.4,0.6,2,1.6,2c0.3,0,0.5-0.1,0.8-0.1V49h-0.9v-0.5H31V50.7L31,50.7z"/>
	<path d="M35.8,47c-0.1-0.1-0.4-0.3-0.9-0.3s-0.8,0.2-0.8,0.6c0,0.4,0.2,0.6,0.8,0.9l0.4,0.3c0.6,0.4,1,0.8,1,1.4
		c0,0.7-0.6,1.3-1.6,1.3c-0.8,0-1.1-0.3-1.3-0.4l0.2-0.6c0.2,0.1,0.5,0.4,1.1,0.4c0.7,0,1-0.3,1-0.6c0-0.4-0.2-0.6-0.8-1l-0.4-0.3
		c-0.7-0.4-1-0.8-1-1.4c0-0.6,0.5-1.1,1.4-1.1c0.7,0,1,0.3,1.1,0.4L35.8,47z"/>
	<path d="M39.4,49.5h-2c0,0.8,0.4,1.1,1,1.1c0.5,0,0.8-0.2,0.9-0.3l0.2,0.4c-0.1,0.1-0.4,0.4-1.1,0.4c-1,0-1.5-0.6-1.5-1.8
		s0.7-1.7,1.5-1.7c0.7,0,1.1,0.5,1.1,1.3C39.5,49.2,39.4,49.4,39.4,49.5z M37.5,49.1H39c0-0.1,0-0.2,0-0.2c0-0.5-0.2-0.7-0.6-0.7
		C37.8,48.1,37.5,48.5,37.5,49.1z"/>
	<path d="M42.5,48.4c-0.1-0.1-0.3-0.2-0.7-0.2c-0.6,0-1.1,0.3-1.1,1.2c0,1,0.4,1.3,1,1.3c0.4,0,0.6-0.1,0.7-0.2l0.2,0.4
		c-0.1,0.1-0.4,0.3-1,0.3c-0.9,0-1.5-0.5-1.5-1.8c0-1.2,0.8-1.7,1.6-1.7c0.5,0,0.8,0.2,0.9,0.3L42.5,48.4z"/>
	<path d="M46.1,51.1h-0.5v-0.4l0,0c-0.1,0.1-0.4,0.5-1,0.5c-0.7,0-1.1-0.4-1.1-1.4v-2.1h0.6v2c0,0.7,0.2,0.9,0.7,0.9
		s0.7-0.2,0.9-0.4v-2.6h0.6v3.5H46.1z"/>
	<path d="M48.8,48.2c0,0-0.1-0.1-0.3-0.1c-0.4,0-0.7,0.3-0.8,0.5V51h-0.6v-3.4h0.5v0.5l0,0c0.1-0.2,0.3-0.6,0.8-0.6
		c0.1,0,0.2,0,0.3,0.1L48.8,48.2z"/>
	<path d="M49.7,46.9c-0.2,0-0.4-0.2-0.4-0.4s0.2-0.4,0.4-0.4s0.4,0.2,0.4,0.4S50,46.9,49.7,46.9z M50,51.1h-0.6v-3.4H50V51.1z"/>
	<path d="M52.6,48.2h-0.9v1.7c0,0.5,0.1,0.7,0.5,0.7c0.2,0,0.3-0.1,0.4-0.1l0.1,0.5c-0.1,0-0.2,0.2-0.6,0.2c-0.7,0-0.9-0.4-0.9-1.2
		v-1.8h-0.5v-0.4l0.5-0.1l0.1-0.9h0.5v0.9h0.9L52.6,48.2z"/>
	<path d="M54.7,51.3c-0.3,0.8-0.6,1.2-1.3,1.2c-0.2,0-0.3-0.1-0.3-0.1v-0.5c0,0,0.1,0.1,0.3,0.1c0.5,0,0.7-0.2,0.8-0.7l0.1-0.2
		l-1.2-3.3h0.5l0.9,2.6l0,0l0.8-2.6h0.6L54.7,51.3z"/>
</g>
<g>
	<g>
		<path fill="#FFCC03" stroke="#000000" stroke-width="1.25" stroke-miterlimit="10" d="M31.6,19.3c1.7-0.8,3.7-1.2,5.7-1.2
			s4,0.4,5.7,1.2"/>
		<path fill="#FFCC03" stroke="#000000" stroke-width="1.25" stroke-miterlimit="10" d="M32.5,21.3l-1.8-3.9
			c2.1-1.3,4.3-1.8,6.7-1.8c2.3,0,4.5,0.5,6.6,1.8l-1.8,4C39.1,19.9,35.5,19.9,32.5,21.3z"/>
	</g>
	<path fill="#E52521" stroke="#000000" stroke-width="1.25" stroke-miterlimit="10" d="M45.5,15.1c-2.6-1.4-5-2.1-8-2.1
		s-5.6,0.8-8.1,2.2l-2.5-4.4c3.3-2.2,6.8-3.2,10.5-3.2s7.5,1,10.5,3.2L45.5,15.1z"/>
	<path fill="#020203" stroke="#000000" stroke-width="1.25" stroke-miterlimit="10" d="M49.1,8.6c-3.4-2.4-7.4-3.7-11.7-3.7
		c-4.2,0-8.5,1.2-11.9,3.6L23.1,5c4.2-2.9,9.1-4.4,14.2-4.4s9.5,1.7,13.6,4.6L49.1,8.6z"/>
</g>
<path d="M11,54.9c1.8,0,2.7,0.8,2.9,0.9l-0.7,1.5c-0.2-0.2-1-0.8-2.1-0.8c-1.7,0-3,1-3,3.6s1.1,3.7,2.9,3.7c1.2,0,2-0.5,2.3-0.8
	l0.6,1.5c-0.3,0.3-1.2,1.1-3.2,1.1C8,65.6,6,64.1,6,60.2S8.5,54.9,11,54.9L11,54.9z"/>
<path d="M19.7,65.5v-4.4c0-1.1-0.4-1.6-1.2-1.6c-0.6,0-1.1,0.3-1.3,0.5v5.4h-1.9V54.8l1.9-0.2v4.2l0,0c0.3-0.3,0.9-0.9,2-0.9
	c1.5,0,2.4,1,2.4,2.9v4.7H19.7L19.7,65.5z"/>
<path d="M26.5,61.2h0.3v-0.3c0-0.9-0.4-1.4-1.2-1.4c-0.9,0-1.5,0.5-1.7,0.7L23.2,59c0.3-0.4,1.2-1.1,2.7-1.1c1.7,0,2.7,1,2.7,3.1
	v2.5c0,0.9,0.1,1.5,0.1,2H27c0-0.2,0-0.5,0-0.8l0,0c-0.3,0.4-0.7,1-1.8,1c-1.2,0-2.1-0.9-2.1-2.2C23.1,61.9,24.6,61.2,26.5,61.2
	L26.5,61.2z M25.7,64.2c0.6,0,0.9-0.3,1.1-0.5v-1.3h-0.4c-1,0.1-1.5,0.3-1.5,0.9C24.9,63.8,25.2,64.2,25.7,64.2L25.7,64.2z"/>
<path d="M32.4,63.1c0,0.8,0.2,1,0.7,1c0.3,0,0.5-0.1,0.6-0.1l0.1,1.4c-0.2,0.1-0.6,0.3-1.3,0.3c-1.2,0-2-0.6-2-2.2v-8.6l1.9-0.2
	C32.4,54.6,32.4,63.1,32.4,63.1z"/>
<path d="M36.8,63.1c0,0.8,0.2,1,0.7,1c0.3,0,0.5-0.1,0.6-0.1l0.1,1.4c-0.2,0.1-0.6,0.3-1.3,0.3c-1.2,0-2-0.6-2-2.2v-8.6l1.9-0.2
	C36.8,54.6,36.8,63.1,36.8,63.1z"/>
<path d="M44.7,62.3h-3.9c0.1,1.2,0.8,1.7,2,1.7c0.9,0,1.6-0.4,1.8-0.6l0.4,1.3c-0.2,0.2-0.9,0.9-2.6,0.9c-2,0-3.4-1.1-3.4-3.9
	c0-2.6,1.5-3.8,3.4-3.8c1.6,0,2.6,1,2.6,2.9C44.8,61.6,44.8,62,44.7,62.3L44.7,62.3z M40.7,61h2.4c0-0.1,0-0.2,0-0.3
	c0-0.8-0.4-1.3-1-1.3C41.3,59.4,40.8,59.9,40.7,61z"/>
<path d="M50.9,65.5v-4.4c0-1.1-0.4-1.6-1.2-1.6c-0.6,0-1.1,0.3-1.3,0.5v5.4h-1.9V58h1.8v0.8l0,0c0.3-0.4,0.9-1,2.1-1
	c1.6,0,2.4,1,2.4,2.9v4.7C52.8,65.5,50.9,65.5,50.9,65.5z"/>
<path d="M56.8,68.7c-1.9,0-2.9-0.7-2.9-1.9c0-0.9,0.7-1.4,1.2-1.7l0,0c-0.3-0.2-0.4-0.6-0.4-1c0-0.8,0.7-1.3,0.9-1.4l0,0
	c-0.7-0.4-1.2-1.1-1.2-2.1c0-1.7,1.3-2.5,2.9-2.5c0.4,0,0.8,0.1,1.2,0.2H61l-0.2,1.2H60c0.2,0.3,0.3,0.7,0.3,1.2
	c0,1.7-1.3,2.5-2.9,2.5c-0.2,0-0.5,0-0.7-0.1c-0.2,0.1-0.3,0.3-0.3,0.5c0,0.3,0.2,0.4,0.5,0.4h1.6c1.6,0,2.5,0.6,2.5,2
	C60.9,67.4,59.5,68.7,56.8,68.7L56.8,68.7z M57,67.3c1.4,0,2.2-0.5,2.2-1.2c0-0.5-0.3-0.7-1-0.7h-1.6c-0.2,0-0.4,0-0.6-0.1
	c-0.2,0.2-0.4,0.4-0.4,0.9C55.6,67,56.1,67.3,57,67.3L57,67.3z M57.4,59.3c-0.7,0-1.3,0.3-1.3,1.2s0.6,1.2,1.2,1.2s1.2-0.3,1.2-1.2
	S58,59.3,57.4,59.3z"/>
<path d="M67.7,62.3h-3.9c0.1,1.2,0.8,1.7,2,1.7c0.9,0,1.6-0.4,1.8-0.6l0.4,1.3c-0.2,0.2-0.9,0.9-2.6,0.9c-2,0-3.4-1.1-3.4-3.9
	c0-2.6,1.5-3.8,3.4-3.8c1.6,0,2.6,1,2.6,2.9C67.8,61.6,67.8,62,67.7,62.3L67.7,62.3z M63.7,61h2.4c0-0.1,0-0.2,0-0.3
	c0-0.8-0.4-1.3-1-1.3C64.4,59.4,63.8,59.9,63.7,61z"/>
</svg>
