<?xml version="1.0" encoding="utf-8"?>
<!-- Generator: Adobe Illustrator 27.1.1, SVG Export Plug-In . SVG Version: 6.00 Build 0)  -->
<svg version="1.1" id="a" xmlns="http://www.w3.org/2000/svg" xmlns:xlink="http://www.w3.org/1999/xlink" x="0px" y="0px"
	 viewBox="0 0 24 24" style="enable-background:new 0 0 24 24;" xml:space="preserve">
<style type="text/css">
	.st0{fill:#FFFFFF;}
</style>
<path class="st0" d="M5.8,9.3v6.2C7,15.8,8,17,8,18.4c0,1.7-1.3,3-3,3s-3-1.3-3-3c0-1.4,1-2.6,2.2-2.9V9.3C3,8.9,2,7.8,2,6.4
	c0-1.7,1.3-3,3-3s3,1.3,3,3C8,7.8,7,8.9,5.8,9.3z M19.8,15.5V8.4c0-1.5-1.2-2.8-2.8-2.8h-2.2l1.7-1.7c0.3-0.3,0.3-0.8,0-1.1
	s-0.8-0.3-1.1,0l-3,3c-0.3,0.3-0.3,0.8,0,1.1l3,3c0.1,0.1,0.3,0.2,0.5,0.2c0.2,0,0.4-0.1,0.5-0.2c0.3-0.3,0.3-0.8,0-1.1l-1.7-1.7H17
	c0.7,0,1.2,0.6,1.2,1.3v7.1C17,15.8,16,17,16,18.4c0,1.7,1.3,3,3,3s3-1.3,3-3C22,17,21,15.8,19.8,15.5L19.8,15.5z"/>
</svg>
