<?xml version="1.0" encoding="utf-8"?>
<!-- Generator: Adobe Illustrator 26.5.0, SVG Export Plug-In . SVG Version: 6.00 Build 0)  -->
<svg version="1.1" id="_1-Human_Resources" xmlns="http://www.w3.org/2000/svg" xmlns:xlink="http://www.w3.org/1999/xlink" x="0px"
	 y="0px" viewBox="0 0 48 48" style="enable-background:new 0 0 48 48;" xml:space="preserve">
<style type="text/css">
	.st0{fill:#FFFFFF;}
	.st1{fill:#FFFFFF;}
</style>
<circle class="st0" cx="25" cy="24" r="3"/>
<path class="st1" d="M21,41.3c0-0.4-0.3-0.8-0.7-1c-1.2-0.3-2.4-0.8-3.5-1.4c-0.4-0.2-0.9-0.1-1.2,0.2l-3.3,3.3l-5.7-5.7l3.3-3.3
	c0.3-0.3,0.4-0.8,0.2-1.2c-0.6-1.1-1.1-2.3-1.4-3.5c-0.1-0.4-0.5-0.7-1-0.7H3v-8h4.7c0.4,0,0.8-0.3,1-0.7c0.3-1.2,0.8-2.4,1.4-3.5
	c0.2-0.4,0.1-0.9-0.2-1.2l-3.3-3.3l5.7-5.7l3.3,3.3c0.3,0.3,0.8,0.4,1.2,0.2c1.1-0.6,2.3-1.1,3.5-1.4c0.4-0.1,0.7-0.5,0.7-1V2h8v5h2
	V2c0-1.1-0.9-2-2-2h-8c-1.1,0-2,0.9-2,2v4c-0.9,0.3-1.7,0.6-2.5,1l-2.8-2.8c-0.8-0.8-2-0.8-2.8,0L5.2,9.9c-0.8,0.8-0.8,2,0,2.8
	L8,15.5c-0.4,0.8-0.7,1.6-1,2.5H3c-1.1,0-2,0.9-2,2v8c0,1.1,0.9,2,2,2h4c0.3,0.9,0.6,1.7,1,2.5l-2.8,2.8c-0.8,0.8-0.8,2,0,2.8l0,0
	l5.7,5.7c0.8,0.8,2,0.8,2.8,0l2.8-2.8c0.8,0.4,1.6,0.7,2.5,1v4c0,1.1,0.9,2,2,2h1v-2h-1V41.3z"/>
<path class="st1" d="M45,2h2V0h-2c-5.5,0-10,5.5-10,10v6c0,3.9,2.3,8.9,6,10.7v0.6c-2.5,1-11.3,4.4-13.6,5.9c-2,1.3-3.3,3.4-3.4,5.8
	v9h2v-9c0.1-1.7,1.1-3.3,2.6-4.2c1.8-1.2,9.1-4.1,13.2-5.7l2.5,2.5c0.2,0.2,0.4,0.3,0.7,0.3v7h2v-8c0-0.6-0.4-1-1-1h-0.6L43,27.6V26
	c0-0.4-0.3-0.8-0.7-0.9C39.2,23.9,37,19.4,37,16v-6C37,6.4,40.7,2,45,2z"/>
<rect x="32" y="39" class="st1" width="2" height="9"/>
<path class="st1" d="M18,24c0-3.9,3.1-7,7-7s7,3.1,7,7c0,1.2-0.3,2.3-0.8,3.3l1.8,1c2.4-4.4,0.7-9.8-3.6-12.2s-9.8-0.7-12.2,3.6
	s-0.7,9.8,3.6,12.2c0.7,0.4,1.4,0.6,2.2,0.8l0.5-1.9C20.2,30.1,18,27.2,18,24z"/>
<rect x="24" y="5" class="st1" width="2" height="2"/>
<rect x="11" y="36" class="st1" width="2" height="2"/>
<rect x="11" y="10" class="st1" width="2" height="2"/>
<rect x="6" y="23" class="st1" width="2" height="2"/>
<path class="st1" d="M21,24c0,2.2,1.8,4,4,4s4-1.8,4-4s-1.8-4-4-4S21,21.8,21,24z M27,24c0,1.1-0.9,2-2,2s-2-0.9-2-2s0.9-2,2-2
	S27,22.9,27,24z"/>
<rect x="45" y="41" class="st1" width="2" height="2"/>
<rect x="45" y="45" class="st1" width="2" height="2"/>
</svg>
