<?xml version="1.0" encoding="utf-8"?>
<!-- Generator: Adobe Illustrator 27.1.1, SVG Export Plug-In . SVG Version: 6.00 Build 0)  -->
<svg version="1.1" id="Ebene_1" xmlns="http://www.w3.org/2000/svg" xmlns:xlink="http://www.w3.org/1999/xlink" x="0px" y="0px"
	 viewBox="0 0 68 31.8" style="enable-background:new 0 0 68 31.8;" xml:space="preserve">
<style type="text/css">
	.st0{fill:#FF0000;}
	.st1{fill:#FFCC00;}
</style>
<g>
	<path d="M19.8,14.8c0.8,1.4,1.2,3,1.2,4.6c0.1,4.9-3.7,8.9-8.6,9c-4.9-0.1-8.7-4.2-8.6-9c0-1.6,0.4-3.2,1.2-4.6l-2.4-3.1
		C0.9,13.9,0,16.6,0,19.3c-0.1,6.8,5.4,12.4,12.3,12.5c6.8,0.1,12.4-5.4,12.5-12.3c0-0.1,0-0.1,0-0.2c0-2.8-0.9-5.5-2.6-7.7
		L19.8,14.8z"/>
	<path d="M55.3,17.4h12.5c0.1,0.6,0.1,1.3,0.1,1.9c0.2,6.7-5.2,12.3-11.9,12.5c-0.2,0-0.3,0-0.5,0c-6.9,0.1-12.5-5.5-12.6-12.4
		C43,12.5,48.5,6.9,55.4,6.8c4,0,7.7,1.8,10.1,5c0,0-2.9,2.3-2.9,2.2c-1.5-2.3-4.2-3.8-7-3.8c-4.9,0.1-8.7,4.2-8.6,9.1
		c-0.1,4.9,3.7,8.9,8.6,9c4.9,0,8.3-3.2,8.6-7.7h-8.9V17.4z"/>
	<path d="M30.9,27.9h10.6v3.4H26.2v-2.5l10.6-18.2H26.3V7.2h14.9v3L30.9,27.9z"/>
	<path d="M21.8,6.7l1.9-2.4c-6.4-5.7-16.1-5.7-22.6,0l1.8,2.4l0.4,0.4c5.2-4.7,13-4.7,18.2,0L21.8,6.7z"/>
	<path class="st0" d="M19.8,9.3C15.4,5.9,9.3,5.9,5,9.3l2.2,2.8c3-2.5,7.4-2.5,10.5,0L19.8,9.3z"/>
	<path class="st1" d="M15.9,14.4c-2.2-1-4.8-1-7,0l2.3,3c0.8-0.2,1.7-0.2,2.5,0L15.9,14.4z"/>
</g>
</svg>
