<?xml version="1.0" encoding="utf-8"?>
<!-- Generator: Adobe Illustrator 27.1.1, SVG Export Plug-In . SVG Version: 6.00 Build 0)  -->
<svg version="1.1" id="a" xmlns="http://www.w3.org/2000/svg" xmlns:xlink="http://www.w3.org/1999/xlink" x="0px" y="0px"
	 viewBox="0 0 24 24" style="enable-background:new 0 0 24 24;" xml:space="preserve">
<style type="text/css">
	.st0{fill:#FFFFFF;}
</style>
<path class="st0" d="M22.8,12c0,5.9-4.8,10.7-10.8,10.7S1.2,17.9,1.2,12S6.1,1.2,12,1.2c0.4,0,0.8,0.3,0.8,0.8v7.6
	c1,0.3,1.8,1.3,1.8,2.4c0,1.4-1.1,2.5-2.5,2.5S9.5,13.4,9.5,12c0-1.1,0.7-2.1,1.8-2.4V6.8C8.7,7.2,6.8,9.4,6.8,12
	c0,2.9,2.4,5.2,5.2,5.2s5.2-2.4,5.2-5.2c0-1.7-0.9-3.3-2.2-4.3V6c2.2,1.1,3.8,3.4,3.8,6c0,3.7-3,6.7-6.8,6.7s-6.8-3-6.8-6.7
	c0-3.5,2.6-6.3,6-6.7V2.8C6.5,3.2,2.8,7.2,2.8,12c0,5.1,4.1,9.2,9.2,9.2s9.2-4.1,9.2-9.2c0-4-2.6-7.5-6.2-8.7V2c0-0.1,0-0.2,0-0.3
	C19.5,3,22.8,7.2,22.8,12z"/>
</svg>
