<?xml version="1.0" encoding="utf-8"?>
<!-- Generator: Adobe Illustrator 27.1.1, SVG Export Plug-In . SVG Version: 6.00 Build 0)  -->
<svg version="1.1" id="Layer_1" xmlns="http://www.w3.org/2000/svg" xmlns:xlink="http://www.w3.org/1999/xlink" x="0px" y="0px"
	 viewBox="0 0 38 48" style="enable-background:new 0 0 38 48;" xml:space="preserve">
<style type="text/css">
	.st0{fill:#FFFFFF;}
</style>
<g id="_25-Human_Resources">
	<path class="st0" d="M37.7,8.3l-8-8C29.5,0.1,29.3,0,29,0H3C1.3,0,0,1.3,0,3v42c0,1.7,1.3,3,3,3h32c1.7,0,3-1.3,3-3V9
		C38,8.7,37.9,8.5,37.7,8.3z M36,45c0,0.6-0.4,1-1,1H3c-0.6,0-1-0.4-1-1V3c0-0.6,0.4-1,1-1h25v5c0,1.7,1.3,3,3,3h2V8h-2
		c-0.6,0-1-0.4-1-1V3.4l6,6V45z"/>
	<rect x="6" y="6" class="st0" width="10" height="2"/>
	<rect x="6" y="10" class="st0" width="2" height="2"/>
	<rect x="10" y="10" class="st0" width="2" height="2"/>
	<rect x="18" y="38" class="st0" width="2" height="2"/>
	<rect x="22" y="38" class="st0" width="2" height="2"/>
	<rect x="14" y="38" class="st0" width="2" height="2"/>
</g>
</svg>
