<?xml version="1.0" encoding="utf-8"?>
<!-- Generator: Adobe Illustrator 27.1.1, SVG Export Plug-In . SVG Version: 6.00 Build 0)  -->
<svg version="1.1" id="a" xmlns="http://www.w3.org/2000/svg" xmlns:xlink="http://www.w3.org/1999/xlink" x="0px" y="0px"
	 viewBox="0 0 24 24" style="enable-background:new 0 0 24 24;" xml:space="preserve">
<style type="text/css">
	.st0{fill:#FFFFFF;}
</style>
<path class="st0" d="M11.4,21.6c0.4,0.3,0.9,0.3,1.3,0c4.5-3.7,7.2-9.1,7.4-14.9c0-0.4-0.2-0.8-0.6-0.9l-7-3.5
	c-0.3-0.1-0.6-0.1-0.9,0l-7,3.5C4.2,6,4,6.3,4,6.7C4.2,12.5,6.9,17.9,11.4,21.6L11.4,21.6z M8.3,10.4c0.4-0.4,1-0.4,1.4,0l1.3,1.3
	l3.3-3.3c0.4-0.4,1-0.4,1.4,0c0.4,0.4,0.4,1,0,1.4l-4,4c-0.2,0.2-0.5,0.3-0.7,0.3s-0.5-0.1-0.7-0.3l-2-2C7.9,11.4,7.9,10.8,8.3,10.4
	L8.3,10.4z"/>
</svg>
