<svg xmlns="http://www.w3.org/2000/svg" viewBox="0 0 24 22">
  <path d="M9.4 4.3A6.8 6.8 0 0 1 12 5.5V19a10 10 0 0 1 2.6-1 11 11 0 0 1 2.9-.5 10.8 10.8 0 0 1 3.5.5V4.5a7.3 7.3 0 0 1 2 1V20a.8.8 0 0 1-.2.3.6.6 0 0 1-.3.2.5.5 0 0 1-.3 0 9.1 9.1 0 0 0-2.2-.8 11 11 0 0 0-2.6-.3 11.8 11.8 0 0 0-2.8.5 10 10 0 0 0-2.6 1 7.4 7.4 0 0 0-2.6-1.1 12 12 0 0 0-2.9-.4 10.8 10.8 0 0 0-2.4.3 11.8 11.8 0 0 0-2.4.8h-.2a.6.6 0 0 1-.4 0A.5.5 0 0 1 1 20V5.5a6.8 6.8 0 0 1 2.6-1.2 11 11 0 0 1 3-.3 10.6 10.6 0 0 1 2.8.3ZM19 12l-5 4.5v-11L19 1Z" data-name="publication-deluxe"/>
</svg>
