<svg xmlns="http://www.w3.org/2000/svg" width="42.38" height="39.48">
  <g data-name="frequent-questions">
    <g data-name="Gruppe 3459" fill="#0077b6" transform="translate(159.28 76.55)">
      <circle data-name="Ellipse 57" cx="1.07" cy="1.07" r="1.07" transform="translate(-143.07 -57.85)"/>
      <path data-name="Pfad 3603" d="M-142-59.71a.75.75 0 0 1-.75-.75v-2.29a.75.75 0 0 1 .75-.75 3.15 3.15 0 0 0 3.15-3.15A3.15 3.15 0 0 0-142-69.8a3.15 3.15 0 0 0-3.15 3.15.75.75 0 0 1-.75.75.75.75 0 0 1-.75-.75A4.66 4.66 0 0 1-142-71.3a4.66 4.66 0 0 1 4.65 4.65 4.66 4.66 0 0 1-3.9 4.59v1.6a.75.75 0 0 1-.75.75Z"/>
    </g>
    <g data-name="Gruppe 3460">
      <path data-name="Pfad 3604" d="M33.75 39.48a.75.75 0 0 1-.45-.15l-6.97-5.24h-6.8a.75.75 0 0 1-.75-.75v-4.12a.75.75 0 0 1 .75-.75.75.75 0 0 1 .75.75v3.37h6.3a.75.75 0 0 1 .45.15L33 37.23v-3.89a.75.75 0 0 1 .22-.53.65.65 0 0 1 .54-.22l7.12.05v-18.7h-4.3a.75.75 0 0 1-.75-.74.75.75 0 0 1 .75-.75h5.05a.75.75 0 0 1 .75.75v20.2a.75.75 0 0 1-.22.53.63.63 0 0 1-.53.22l-7.12-.05v4.63a.75.75 0 0 1-.42.67.75.75 0 0 1-.34.08Z" fill="#0077b6"/>
    </g>
    <g data-name="Gruppe 3461">
      <path data-name="Pfad 3605" d="M8.63 32.26a.74.74 0 0 1-.33-.08.75.75 0 0 1-.42-.67v-4.64l-7.12.05a.65.65 0 0 1-.53-.21.75.75 0 0 1-.23-.54V.75A.75.75 0 0 1 .75 0h33.02a.75.75 0 0 1 .75.75v25.3a.75.75 0 0 1-.75.75l-17.72.07L9.1 32.1a.75.75 0 0 1-.46.16Zm0-6.9a.75.75 0 0 1 .52.23.75.75 0 0 1 .23.53V30l5.96-4.48a.75.75 0 0 1 .45-.15h7.06L33 25.3V1.5H1.5v23.92l7.12-.05Zm25.13.69Z" fill="#0077b6"/>
    </g>
  </g>
</svg>
