<svg xmlns="http://www.w3.org/2000/svg" width="51.6" height="38.8">
  <g data-name="financial-support">
    <g data-name="Gruppe 3485" fill="#0077b6">
      <path data-name="Pfad 3597" d="M25 21.2H6V1.5h39.2v11.4a.8.8 0 0 0 .7.7.8.8 0 0 0 .8-.7V.7a.8.8 0 0 0-.8-.7H5.3a.8.8 0 0 0-.7.8V22a.8.8 0 0 0 .7.7h19.8a.8.8 0 0 0 .7-.7.8.8 0 0 0-.7-.8Z"/>
      <path data-name="Pfad 3598" d="M9.6 4.4A.8.8 0 0 0 9 5a.8.8 0 0 0 .7.8h4.7a.8.8 0 0 0 .8-.8.8.8 0 0 0-.8-.7Z"/>
      <path data-name="Pfad 3599" d="M37 4.4a.8.8 0 0 0-.8.7.8.8 0 0 0 .7.8h4.7a.8.8 0 0 0 .8-.8.8.8 0 0 0-.8-.7Z"/>
      <path data-name="Pfad 3600" d="M50.8 28a.8.8 0 0 0 .8-.7v-5.4a.8.8 0 0 0-.8-.8h-4.1v-4.6a.8.8 0 0 0-.8-.7H28.6a.8.8 0 0 0-.8.7V22a.8.8 0 0 0 .8.7h4.2v4h-4.2a.8.8 0 0 0-.8.7v5.4a.8.8 0 0 0 .8.7h4.2V38a.8.8 0 0 0 .7.8h17.3a.8.8 0 0 0 .8-.8v-5.3a.8.8 0 0 0-.8-.8h-4.1V28Zm-.7-1.5h-2.2v-3.9H50Zm-5-5.4h-12v-3.8h12Zm-15.8-3.8h2.3V21h-2.3Zm5 5.3h12v4h-12Zm-5 5.4h2.3V32h-2.3Zm5 5.4h12v3.9h-12ZM50 37.3h-2.2v-3.9H50Zm-5-5.4h-12V28h12Z"/>
      <path data-name="Pfad 3601" d="M23 31.9h-4.2v-4.6a.8.8 0 0 0-.7-.8H.7a.8.8 0 0 0-.7.8v5.4a.8.8 0 0 0 .7.7H5V38a.8.8 0 0 0 .8.8H23a.8.8 0 0 0 .7-.8v-5.3a.8.8 0 0 0-.7-.8Zm-5.7 0h-2.2V28h2.2ZM1.5 28h12V32h-12Zm5 5.4h2.2v3.9H6.4Zm15.7 3.9h-12v-3.9h12Z"/>
      <path data-name="Pfad 3602" d="M30.1 9.1a4.9 4.9 0 0 1 .8 3.7.8.8 0 0 0 .6.8.8.8 0 0 0 .9-.6 6.4 6.4 0 0 0-1-4.8 6.4 6.4 0 0 0-4.2-2.6 6.4 6.4 0 0 0-7.4 5.2 6.4 6.4 0 0 0 5.2 7.4.8.8 0 0 0 .8-.6.8.8 0 0 0-.6-.9 5 5 0 0 1-4-5.7A5 5 0 0 1 27 7a4.9 4.9 0 0 1 3.2 2.1Z"/>
    </g>
  </g>
</svg>
