<svg xmlns="http://www.w3.org/2000/svg" viewBox="0 0 44 44">
<path d="M12.9,30.8c0.9,1.4,1.4,2.9,1.4,4.6v5c0,0.4-0.3,0.8-0.8,0.8s-0.8-0.3-0.8-0.8v-5c0-1.3-0.4-2.6-1.1-3.7l-1.9-2.8
	c-0.1-0.2-0.3-0.4-0.4-0.5c-0.2-0.1-0.4-0.2-0.6-0.3C8.5,28,8.2,28,8,28c-0.2,0-0.4,0.1-0.6,0.2c-0.3,0.2-0.6,0.5-0.7,0.9
	c-0.1,0.4-0.1,0.8,0.1,1.1L9.1,34c0.2,0.4,0.1,0.8-0.3,1c-0.4,0.2-0.8,0.1-1-0.3L5.6,31c-0.2-0.4-0.3-0.9-0.3-1.4c0,0,0,0,0-0.1
	v-6.5c0-0.5-0.2-0.9-0.5-1.2c-0.7-0.7-1.8-0.7-2.5,0c-0.3,0.3-0.5,0.8-0.5,1.2v8.6c0,1.5,0.5,3,1.5,4.2l3.4,4.2
	c0.3,0.3,0.2,0.8-0.1,1.1c-0.1,0.1-0.3,0.2-0.5,0.2c-0.2,0-0.4-0.1-0.6-0.3l-3.4-4.2c-1.2-1.5-1.8-3.3-1.8-5.1v-8.6
	c0-0.9,0.3-1.7,1-2.3c1.2-1.2,3.4-1.2,4.6,0c0.6,0.6,1,1.4,1,2.3v3.8c0.3-0.2,0.7-0.3,1-0.4c0.4-0.1,0.8-0.1,1.2,0
	c0.4,0.1,0.8,0.3,1.1,0.5c0.3,0.2,0.6,0.6,0.8,0.9L12.9,30.8z M27.2,28.8c-1.5,0.6-3,0.9-4.6,1c0,0-0.1,0-0.1,0c0,0-0.1,0-0.1,0
	c-0.2,0-0.3,0-0.5,0c-0.1,0-0.3,0-0.4,0c0,0-0.1,0-0.1,0c-0.1,0-0.1,0-0.2,0c-3.5-0.2-6.7-1.7-9.2-4.2c-2.6-2.7-4-6.2-4-10
	c0-0.1,0-0.2,0-0.2c0,0,0,0,0,0c0,0,0,0,0-0.1c0.1-2.6,0.8-5,2.2-7.1c0-0.1,0.1-0.2,0.2-0.3c0.4-0.6,0.9-1.3,1.5-1.8
	c2.5-2.6,5.9-4,9.4-4.1c0.2,0,0.4,0,0.7,0c0.2,0,0.3,0,0.5,0c0,0,0.1,0,0.1,0c1.6,0.1,3.2,0.4,4.6,1c1.7,0.7,3.2,1.7,4.5,3
	c0.6,0.6,1.1,1.2,1.6,1.9c0,0,0,0,0,0c0.6,0.8,1,1.7,1.4,2.6c0.6,1.5,0.9,3,1,4.6c0,0.1,0,0.1,0,0.2c0,0,0,0.1,0,0.1
	c0,0.1,0,0.3,0,0.4c0,1.8-0.4,3.6-1.1,5.3c-0.7,1.7-1.7,3.2-3,4.5C30.5,27,28.9,28,27.2,28.8z M22.1,28.3c1.3-1.8,2.3-3.6,3.1-5.4
	h-6.6c0.8,1.8,1.8,3.6,3.1,5.4c0.1,0,0.1,0,0.2,0C22,28.3,22.1,28.3,22.1,28.3z M25.8,21.5c0.6-1.8,1-3.6,1.1-5.4H17
	c0.1,1.8,0.4,3.6,1.1,5.4H25.8z M10.9,21.5h5.6c-0.6-1.8-0.9-3.6-1-5.4h-6C9.6,18,10.1,19.8,10.9,21.5z M9.6,14.6h6
	c0.1-1.8,0.4-3.6,1-5.4h-5.2C10.4,10.8,9.7,12.7,9.6,14.6z M18.8,7.7h6.3c-0.7-1.5-1.7-2.9-2.9-4.2c0,0-0.1,0-0.1,0
	c-0.1,0-0.2,0-0.3,0C20.5,4.8,19.5,6.2,18.8,7.7z M18.1,9.2c-0.7,1.7-1.1,3.5-1.1,5.4h9.9c-0.1-1.8-0.4-3.6-1.1-5.4H18.1z M32.4,9.2
	h-5.1c0.6,1.7,1,3.5,1,5.4h5.9c-0.1-1.2-0.4-2.4-0.9-3.5C33.1,10.4,32.8,9.8,32.4,9.2z M27.4,21.5H33c0.1-0.3,0.3-0.5,0.4-0.8
	c0.6-1.4,0.9-3,0.9-4.5h-6C28.3,17.9,27.9,19.6,27.4,21.5z M26.7,4.4c-0.8-0.3-1.6-0.6-2.4-0.7c1,1.3,1.8,2.6,2.4,4h4.6
	c-0.2-0.2-0.4-0.4-0.6-0.6C29.6,5.9,28.2,5,26.7,4.4z M13,7.1c-0.2,0.2-0.3,0.4-0.5,0.6h4.7c0.6-1.4,1.4-2.7,2.4-4
	C17.1,4.1,14.8,5.3,13,7.1z M13.1,24.5c1.8,1.9,4.1,3.1,6.7,3.6c-1.1-1.7-2-3.4-2.7-5.1h-5.2C12.2,23.5,12.6,24,13.1,24.5z
	 M26.7,27.4c1.5-0.6,2.9-1.5,4-2.7c0.5-0.5,1-1.1,1.4-1.7h-5.3c-0.7,1.7-1.6,3.5-2.7,5.2C25,28,25.8,27.7,26.7,27.4z M42.9,20.8
	c-1.2-1.2-3.4-1.2-4.6,0c-0.6,0.6-1,1.4-1,2.3v3.8c-0.3-0.2-0.7-0.3-1-0.4c-0.4-0.1-0.8-0.1-1.2,0c-0.4,0.1-0.8,0.3-1.1,0.5
	c-0.3,0.2-0.6,0.6-0.8,0.9l-1.9,2.8c-0.9,1.4-1.4,2.9-1.4,4.6v5c0,0.4,0.3,0.8,0.8,0.8s0.8-0.3,0.8-0.8v-5c0-1.3,0.4-2.6,1.1-3.7
	l1.9-2.9c0.1-0.2,0.3-0.3,0.4-0.5c0.2-0.1,0.4-0.2,0.6-0.3c0.2,0,0.4-0.1,0.6,0c0.2,0,0.4,0.1,0.6,0.2c0.3,0.2,0.6,0.5,0.7,0.9
	c0.1,0.4,0.1,0.8-0.1,1.1L35,34c-0.2,0.4-0.1,0.8,0.3,1c0.4,0.2,0.8,0.1,1-0.3l2.3-3.8c0.2-0.4,0.3-0.9,0.3-1.3c0,0,0,0,0-0.1v-6.5
	c0-0.5,0.2-0.9,0.5-1.2c0.7-0.7,1.8-0.7,2.5,0c0.3,0.3,0.5,0.8,0.5,1.2v8.6c0,1.5-0.5,3-1.5,4.2l-3.4,4.2c-0.3,0.3-0.2,0.8,0.1,1.1
	c0.1,0.1,0.3,0.2,0.5,0.2c0.2,0,0.4-0.1,0.6-0.3l3.4-4.2c1.2-1.5,1.8-3.3,1.8-5.1v-8.6C43.9,22.3,43.5,21.4,42.9,20.8z"/>
</svg>
