<svg xmlns="http://www.w3.org/2000/svg" viewBox="0 0 44 44">
<path d="M5.1,22.8c0,0.4-0.3,0.8-0.8,0.8h-3c-0.4,0-0.8-0.3-0.8-0.8S0.9,22,1.3,22h3C4.7,22,5.1,22.4,5.1,22.8z M42.8,22h-3
	c-0.4,0-0.8,0.3-0.8,0.8s0.3,0.8,0.8,0.8h3c0.4,0,0.8-0.3,0.8-0.8S43.2,22,42.8,22z M37.6,7.1l-3,3c-0.3,0.3-0.3,0.8,0,1.1
	c0.1,0.1,0.3,0.2,0.5,0.2s0.4-0.1,0.5-0.2l3-3c0.3-0.3,0.3-0.8,0-1.1S37.9,6.8,37.6,7.1z M8,11.2c0.1,0.1,0.3,0.2,0.5,0.2
	s0.4-0.1,0.5-0.2c0.3-0.3,0.3-0.8,0-1.1l-3-3C5.8,6.9,5.3,6.9,5,7.2S4.7,8,5,8.3L8,11.2z M21.8,5.6c0.4,0,0.8-0.3,0.8-0.8V1
	c0-0.4-0.3-0.8-0.8-0.8S21.1,0.6,21.1,1v3.8C21.1,5.2,21.4,5.6,21.8,5.6z M35.9,18.5c0.5,0.8,0.7,1.7,0.7,2.7c0,0.9-0.2,1.8-0.7,2.7
	c-0.4,0.7-0.9,1.2-1.5,1.7c0,0.2,0,0.5,0,0.7c0,1.4-0.5,2.7-1.5,3.7c-0.8,0.8-1.8,1.4-3,1.6c0,0.3-0.1,0.7-0.3,1
	c-0.2,0.5-0.5,1-1,1.4c-0.4,0.4-0.9,0.7-1.4,1c-0.1,0.1-0.3,0.1-0.5,0.1v3.2c0,1.2-0.6,3.3-4.2,3.5V43c0,0.4-0.3,0.8-0.8,0.8
	s-0.8-0.3-0.8-0.8v-1.4c-3.6-0.2-4.2-2.3-4.2-3.5v-3.2c-0.1,0-0.3-0.1-0.4-0.1c-0.5-0.2-1-0.5-1.4-1c-0.4-0.4-0.7-0.9-1-1.4
	c-0.1-0.3-0.2-0.7-0.3-1c-1.1-0.2-2.2-0.8-3-1.6c-1-1-1.5-2.3-1.5-3.6c0-0.2,0-0.4,0-0.7c-0.6-0.5-1.1-1-1.5-1.7
	c-0.5-0.8-0.7-1.7-0.7-2.7c0-0.9,0.3-1.8,0.7-2.7c0.4-0.7,0.9-1.2,1.5-1.7c0-0.2,0-0.5,0-0.7c0-1.3,0.5-2.6,1.5-3.6
	c0.8-0.8,1.8-1.4,3-1.6c0-0.3,0.1-0.7,0.3-1c0.2-0.5,0.5-1,1-1.4C15.5,8,16,7.7,16.6,7.5c0.5-0.2,1.1-0.3,1.7-0.3
	c0.9,0,1.8,0.3,2.6,0.8c0.4,0.3,0.8,0.6,1.1,0.9c0.3-0.4,0.7-0.7,1.1-0.9c0.7-0.5,1.6-0.7,2.5-0.8c0.6,0,1.2,0.1,1.8,0.3
	c0.5,0.2,1,0.5,1.4,0.9c0.4,0.4,0.7,0.9,1,1.4c0.1,0.3,0.2,0.7,0.3,1c1.1,0.2,2.2,0.8,3,1.6c1,1,1.5,2.3,1.5,3.7c0,0.2,0,0.5,0,0.7
	C35,17.3,35.5,17.8,35.9,18.5z M17.5,12.2c-0.1,0.1-0.1,0.2-0.1,0.3s0,0.2,0.1,0.3c0.1,0.1,0.4,0.1,0.6,0c0.1-0.1,0.1-0.2,0.1-0.3
	s0-0.2-0.1-0.3c-0.1-0.1-0.2-0.1-0.3-0.1C17.7,12.1,17.6,12.1,17.5,12.2z M18.5,35.1v1.6h6.9v-1.6H18.5z M25.4,38.2h-6.9
	c0,0.5,0.1,2,3.4,2S25.4,38.8,25.4,38.2z M35.1,21.1c0-0.7-0.2-1.3-0.5-1.9c-0.3-0.6-0.8-1.1-1.4-1.4c-0.3-0.2-0.4-0.5-0.4-0.8
	c0.1-0.3,0.1-0.6,0.1-0.9c0-0.7-0.2-1.4-0.6-2l-2.7,1.3c-0.6,0.3-1.2,0.4-1.8,0.4c0,0,0,0,0,0c-0.4,0-0.9-0.1-1.3-0.2
	c-0.3,0.2-0.7,0.4-1.1,0.4c-0.5,0-1-0.2-1.3-0.6c-0.4-0.4-0.6-0.8-0.6-1.3c0-0.5,0.2-1,0.6-1.3c0.7-0.7,2-0.7,2.7,0
	c0.4,0.4,0.6,0.8,0.6,1.3c0,0.1,0,0.1,0,0.2c0.2,0,0.3,0.1,0.5,0.1c0,0,0,0,0,0c0.4,0,0.8-0.1,1.2-0.3l2.2-1.1
	c-0.6-0.4-1.3-0.6-2-0.7c-0.4,0-0.7-0.4-0.7-0.8c0-0.4-0.1-0.7-0.2-1.1c-0.1-0.3-0.3-0.7-0.6-0.9c-0.3-0.3-0.6-0.5-1-0.6
	c-0.4-0.2-0.8-0.2-1.2-0.2c-0.6,0-1.2,0.2-1.8,0.6c-0.5,0.3-1,0.8-1.2,1.3c-0.3,0.5-1.1,0.5-1.3,0c-0.3-0.5-0.7-1-1.2-1.3
	c-0.1-0.1-0.3-0.2-0.4-0.2c-0.1,0.8-0.2,1.5-0.4,2.2c0.3,0.4,0.5,0.8,0.5,1.3c0,0.5-0.2,1-0.6,1.3c-0.4,0.4-0.8,0.6-1.3,0.6
	c-0.5,0-1-0.2-1.3-0.6c-0.4-0.4-0.6-0.8-0.6-1.3c0-0.5,0.2-1,0.6-1.3c0.4-0.4,0.9-0.5,1.4-0.5c0.2-0.6,0.3-1.3,0.4-2
	c-0.3,0-0.7,0.1-1,0.2c-0.4,0.1-0.7,0.4-1,0.6c-0.3,0.3-0.5,0.6-0.6,0.9c-0.1,0.3-0.2,0.7-0.2,1.1c0,0.4-0.3,0.7-0.7,0.8
	c-1,0.1-2,0.5-2.7,1.3c-0.7,0.7-1.1,1.6-1,2.6c0,0.2,0,0.3,0.1,0.5c1,0.3,2,0.7,2.9,1.4c0.1,0.1,0.2,0.1,0.2,0.2l1.2-0.9
	c0,0,0-0.1,0-0.1c0-0.5,0.2-1,0.6-1.3c0.7-0.7,2-0.7,2.7,0c0.4,0.4,0.6,0.8,0.6,1.3c0,0.5-0.2,1-0.6,1.3c-0.4,0.4-0.8,0.6-1.3,0.6
	c-0.4,0-0.9-0.2-1.2-0.4l-0.8,0.6c0.3,0.4,0.6,0.8,0.9,1.2c0.5,0,1,0.2,1.3,0.5c0.4,0.4,0.6,0.8,0.6,1.3s-0.2,1-0.6,1.3
	c-0.4,0.4-0.8,0.6-1.3,0.6c-0.5,0-1-0.2-1.3-0.6c-0.4-0.4-0.6-0.8-0.6-1.3c0-0.5,0.2-0.9,0.5-1.3c-0.5-0.7-1-1.3-1.7-1.8
	c-0.8-0.6-1.6-0.9-2.5-1.2c-0.5,0.3-0.9,0.8-1.2,1.3c-0.3,0.6-0.5,1.2-0.5,1.9c0,0.7,0.2,1.3,0.5,1.9c0.3,0.6,0.8,1.1,1.4,1.4
	c0.3,0.2,0.4,0.5,0.3,0.8C11,25.6,11,25.9,11,26.2c0,1,0.4,1.9,1,2.6c0.6,0.7,1.5,1.1,2.4,1.2c0.4-0.1,0.8-0.3,1.1-0.5
	c0.2-0.2,0.4-0.3,0.5-0.5c0,0-0.1-0.1-0.1-0.1c-0.4-0.4-0.6-0.8-0.6-1.3c0-0.5,0.2-1,0.6-1.3c0.7-0.7,2-0.7,2.7,0
	c0.4,0.4,0.6,0.8,0.6,1.3c0,0.5-0.2,1-0.6,1.3c-0.3,0.3-0.7,0.5-1.1,0.5c-0.3,0.5-0.6,0.9-1.1,1.3c-0.3,0.2-0.6,0.4-1,0.6
	c0,0.2,0.1,0.4,0.2,0.6c0.1,0.3,0.3,0.7,0.6,0.9c0.3,0.3,0.6,0.5,1,0.6c0.4,0.1,0.8,0.2,1.2,0.2h2.9v-6.4l-2.4-3
	c-0.3-0.3-0.2-0.8,0.1-1.1c0.3-0.3,0.8-0.2,1.1,0.1l1.9,2.4l1.8-2.4c0.2-0.3,0.7-0.4,1.1-0.1c0.3,0.2,0.4,0.7,0.1,1l-2.2,3v6.5h2.9
	c0.4,0,0.8-0.1,1.2-0.2c0.4-0.1,0.7-0.4,1-0.6c0.3-0.3,0.5-0.6,0.6-0.9c0.1-0.2,0.1-0.3,0.1-0.5c0,0-0.1-0.1-0.1-0.1
	c-0.4-0.7-0.8-1.1-1.2-1.3c-0.3,0.3-0.8,0.5-1.2,0.5c-0.5,0-1-0.2-1.3-0.6c-0.4-0.4-0.6-0.8-0.6-1.3c0-0.5,0.2-1,0.6-1.3
	c0.7-0.7,2-0.7,2.7,0c0.4,0.4,0.6,0.8,0.6,1.3c0,0,0,0,0,0.1c0.6,0.2,1.1,0.7,1.6,1.4c1-0.1,1.9-0.5,2.5-1.2c0.7-0.7,1.1-1.6,1-2.6
	c0-0.3,0-0.6-0.1-0.9c-0.1-0.3,0.1-0.7,0.3-0.8c0.6-0.4,1.1-0.8,1.4-1.4C35,22.5,35.1,21.8,35.1,21.1z M26.3,28.6
	c0-0.1,0-0.2-0.1-0.3c-0.1-0.1-0.2-0.1-0.3-0.1c-0.1,0-0.2,0-0.3,0.1s-0.1,0.2-0.1,0.3c0,0.1,0,0.2,0.1,0.3c0.1,0.1,0.4,0.1,0.6,0
	c0-0.1,0.1-0.1,0.1-0.1C26.3,28.7,26.3,28.6,26.3,28.6z M17.6,27.5c0-0.1,0-0.2-0.1-0.3c-0.1-0.1-0.2-0.1-0.3-0.1
	c-0.1,0-0.2,0-0.3,0.1c-0.1,0.1-0.1,0.2-0.1,0.3c0,0.1,0,0.2,0.1,0.3c0.1,0.1,0.4,0.2,0.6,0C17.6,27.7,17.6,27.6,17.6,27.5z
	 M15.7,22.3c0,0.1,0,0.2,0.1,0.3c0.2,0.2,0.4,0.2,0.6,0c0.1-0.1,0.1-0.2,0.1-0.3s0-0.2-0.1-0.3c-0.1-0.1-0.2-0.1-0.3-0.1
	s-0.2,0-0.3,0.1C15.7,22.1,15.7,22.2,15.7,22.3z M16.9,17.4c0.2,0.2,0.4,0.2,0.6,0c0.1-0.1,0.1-0.2,0.1-0.3s0-0.2-0.1-0.3
	c-0.1-0.1-0.2-0.1-0.3-0.1s-0.2,0-0.3,0.1c-0.1,0.1-0.1,0.2-0.1,0.3C16.8,17.2,16.9,17.3,16.9,17.4z M25.8,14.1c0-0.1,0-0.2-0.1-0.3
	c-0.1-0.1-0.2-0.1-0.3-0.1s-0.2,0-0.3,0.1S25,14,25,14.1c0,0.1,0,0.2,0.1,0.3c0.2,0.2,0.4,0.2,0.6,0C25.8,14.3,25.8,14.2,25.8,14.1z
	 M31.6,22.2c0.4,0.4,0.6,0.8,0.6,1.3c0,0,0,0,0,0c0,0.5-0.2,1-0.5,1.4c-0.3,0.4-0.8,0.6-1.3,0.6c0,0,0,0,0,0c-0.5,0-1-0.2-1.3-0.5
	c-0.3-0.3-0.5-0.7-0.6-1.2c0,0,0,0,0,0c-0.8-0.2-1.6-0.6-2.2-1.2c-0.5-0.5-0.8-1-1.1-1.6c0,0,0,0,0,0c0,0,0,0,0,0
	c-0.5,0-1-0.2-1.3-0.5c-0.4-0.3-0.6-0.8-0.6-1.3c0-0.5,0.2-1,0.5-1.4c0.3-0.4,0.8-0.6,1.3-0.6c0.5,0,1,0.2,1.4,0.5
	c0.4,0.4,0.6,0.8,0.6,1.3c0,0,0,0,0,0c0,0.5-0.2,0.9-0.5,1.3c0.2,0.4,0.4,0.8,0.8,1.2c0.4,0.4,0.9,0.7,1.5,0.8c0,0,0.1,0,0.1,0.1
	c0,0,0-0.1,0.1-0.1c0.4-0.4,0.8-0.6,1.3-0.6C30.7,21.7,31.2,21.9,31.6,22.2z M24.7,19.4c0.1,0.1,0.2,0.1,0.3,0.1
	c0.1,0,0.2,0,0.3-0.1s0.1-0.2,0.1-0.3c0-0.1,0-0.2-0.1-0.3c-0.1-0.1-0.2-0.1-0.3-0.1c0,0,0,0,0,0c-0.1,0-0.2,0-0.3,0.1
	c-0.1,0.1-0.1,0.2-0.1,0.3C24.6,19.2,24.7,19.3,24.7,19.4z M30.7,23.6c0-0.1,0-0.2-0.1-0.3c-0.1-0.1-0.2-0.1-0.3-0.1c0,0,0,0,0,0
	c-0.1,0-0.2,0-0.3,0.1c-0.1,0.1-0.1,0.2-0.1,0.3c0,0.1,0,0.2,0.1,0.3c0.1,0.1,0.2,0.1,0.3,0.1c0.1,0,0.2,0,0.3-0.1
	C30.6,23.8,30.7,23.7,30.7,23.6z"/>
</svg>
