<svg xmlns="http://www.w3.org/2000/svg" viewBox="0 0 234 96.68">
  <defs>
    <style>
      .cls-10,.cls-11,.cls-15,.cls-16,.cls-2,.cls-3,.cls-4,.cls-5,.cls-6,.cls-7,.cls-8,.cls-9{fill-rule:evenodd}.cls-2{fill:#c0003c}.cls-3{fill:#5f316e}.cls-4{fill:#004b76}.cls-5{fill:#00818b}.cls-6{fill:#cd5038}.cls-7{fill:#80cdec}.cls-8{fill:#00854a}.cls-9{fill:#f9e03a}.cls-10{fill:#c1ca31}.cls-11{fill:#597c39}.cls-16{fill:#576164}
    </style>
  </defs>
  <g id="Ebene_2" data-name="napi-logo">
    <g id="Ebene_1-2">
      <path id="Fill-1" class="cls-2" d="m32.52 6.23.52.72 4.55 6.26.32-.44-4.87-6.7-.28-.4"/>
      <path id="Fill-2" class="cls-3" d="m26.17 39.84.52.72v-2.87l-.52-.17v2.32z"/>
      <path id="Fill-3" class="cls-3" d="M26.17 43.08v.58l.52.17v-.92l-.52.17z"/>
      <path id="Fill-4" class="cls-3" d="M26.17 63.13v.57l.45.15.07-.09v-.69l-.07-.09-.45.15z"/>
      <path id="Fill-5" class="cls-3" d="M26.17 69.81v.57l.52.17v-.91l-.52.17z"/>
      <path id="Fill-6" class="cls-3" d="m26.17 91.13.52.27v-1.71l-.52.17Z"/>
      <path id="Fill-8" class="cls-3" d="M26.17 54.55v1.35l.52-.17v-1.9l-.52.72z"/>
      <path id="Fill-10" class="cls-3" d="M26.69 16.57a1.05 1.05 0 0 1-.52.32v1.33l.52.72Z"/>
      <path id="Fill-12" class="cls-3" d="m26.69 42.11-.25.34.25-.08v-.26z"/>
      <path id="Fill-14" class="cls-3" d="m26.69 52.26-.52-.72v2.13l.52-.72v-.69z"/>
      <path id="Fill-16" class="cls-3" d="M26.69 57.19v-.91l-.52.17v.57l.52.17z"/>
      <path id="Fill-18" class="cls-3" d="M26.17 77.61v5.02l.52-.17v-4.68l-.52-.17z"/>
      <path id="Fill-20" class="cls-3" d="m26.38 50.95.31.43v-.33l-.31-.1z"/>
      <path id="Fill-22" class="cls-3" d="M26.17 57.56v3.91l.52.72v-4.46l-.52-.17z"/>
      <path id="Fill-24" class="cls-3" d="m26.69 19.82-.52-.71v4.5l.52.17v-3.96z"/>
      <path id="Fill-26" class="cls-3" d="m26.17 62.58.13-.04-.13-.19v.23z"/>
      <path id="Fill-28" class="cls-3" d="M26.17 44.2v5.02l.52-.17v-4.68l-.52-.17z"/>
      <path id="Fill-30" class="cls-3" d="M26.69 77.23v-.91l-.52.17v.57l.52.17z"/>
      <path id="Fill-32" class="cls-3" d="M26.17 28.09v.84l.52-.71v-.29l-.52.16z"/>
      <path id="Fill-34" class="cls-3" d="M26.69 27.38v-3.05l-.52-.17v3.39l.52-.17z"/>
      <path id="Fill-36" class="cls-3" d="M26.69 50.51v-.91l-.52.17v.57l.52.17z"/>
      <path id="Fill-38" class="cls-3" d="M26.69 83.91V83l-.52.17v.57l.52.17z"/>
      <path id="Fill-40" class="cls-3" d="m26.69 29.1-.24.33.24.32v-.65z"/>
      <path id="Fill-42" class="cls-3" d="M26.17 64.25v.23l.13-.19-.13-.04z"/>
      <path id="Fill-44" class="cls-3" d="M26.17 65.36v3.9l.52-.17v-4.45l-.52.72z"/>
      <path id="Fill-46" class="cls-3" d="m26.38 75.88.31-.1v-.33l-.31.43z"/>
      <path id="Fill-48" class="cls-3" d="m26.69 73.88-.52-.72v2.13l.52-.72v-.69z"/>
      <path id="Fill-50" class="cls-3" d="m26.17 30.29.35.12-.35-.49v.37z"/>
      <path id="Fill-52" class="cls-3" d="M26.69 37.14v-1.72l-.52.17v1.38l.52.17z"/>
      <path id="Fill-54" class="cls-3" d="m26.17 41.94.44-.6-.44-.61v1.21z"/>
      <path id="Fill-56" class="cls-3" d="M26.17 86.98v2.33l.52-.17v-2.88l-.52.72z"/>
      <path id="Fill-58" class="cls-3" d="M26.17 30.84v4.2l.52-.17v-3.86l-.52-.17z"/>
      <path id="Fill-60" class="cls-3" d="M26.17 70.93v1.35l.52.72v-1.9l-.52-.17z"/>
      <path id="Fill-62" class="cls-3" d="m26.69 84.46-.52-.17v1.81l.52-.72v-.92z"/>
      <path id="Fill-64" class="cls-4" d="M32.52 95.94a1.87 1.87 0 0 0 .52.32v-2l-.52.17Z"/>
      <path id="Fill-66" class="cls-4" d="m32.73 59.7.31.42v-.32l-.31-.1z"/>
      <path id="Fill-68" class="cls-4" d="M33.04 59.25V55.9l-.52.71v2.47l.52.17z"/>
      <path id="Fill-70" class="cls-4" d="m33.04 17.76-.52-.72v3.15l.52-.72v-1.71z"/>
      <path id="Fill-72" class="cls-4" d="M32.52 46.27v.89l.52-.17v-.55l-.52-.17z"/>
      <path id="Fill-74" class="cls-4" d="M33.04 70.93v-3.35l-.52.17v2.47l.52.71z"/>
      <path id="Fill-76" class="cls-4" d="M32.52 0v16.16l.52.72V0h-.52z"/>
      <path id="Fill-78" class="cls-4" d="M33.04 38.5v-5.14l-.52.72v3.7l.52.72z"/>
      <path id="Fill-80" class="cls-4" d="m32.52 79.13.52.17v-1.78l-.52.71v.9z"/>
      <path id="Fill-82" class="cls-4" d="m32.52 60.52.14-.05-.14-.18v.23z"/>
      <path id="Fill-84" class="cls-4" d="M33.04 55.01v-.8l-.52.17v1.35l.52-.72z"/>
      <path id="Fill-86" class="cls-4" d="m32.76 5.68.28.39"/>
      <path id="Fill-88" class="cls-4" d="m32.52 39.04.36.12-.36-.5v.38z"/>
      <path id="Fill-90" class="cls-4" d="M33.04 25.31v-4.96l-.52.72v4.41l.52-.17z"/>
      <path id="Fill-92" class="cls-4" d="M32.52 39.59v.88l.52-.17v-.55l-.52-.16z"/>
      <path id="Fill-94" class="cls-4" d="m32.74 67.13.3-.1v-.32l-.3.42z"/>
      <path id="Fill-96" class="cls-4" d="M33.04 27.69v-1.3l-.52-.17v.75l.52.72z"/>
      <path id="Fill-98" class="cls-4" d="M33.04 49.31v-1.78l-.52.17v.89l.52.72z"/>
      <path id="Fill-100" class="cls-4" d="m32.52 66.54.14-.18-.14-.05v.23z"/>
      <path id="Fill-102" class="cls-4" d="M32.52 27.85v4.51l.49.16.03-.04v-3.91l-.52-.72z"/>
      <path id="Fill-104" class="cls-4" d="M32.52 72.99v.89l.52-.17v-.55l-.52-.17z"/>
      <path id="Fill-106" class="cls-4" d="M33.04 72.62v-.8l-.52-.72v1.35l.52.17z"/>
      <path id="Fill-108" class="cls-4" d="M32.52 79.67v.89l.52-.17v-.55l-.52-.17z"/>
      <path id="Fill-110" class="cls-4" d="m32.98 65.91.06-.08V61l-.06-.08-.46.14v4.71l.46.14z"/>
      <path id="Fill-112" class="cls-4" d="m32.52 32.98.12-.04-.12-.04v.08z"/>
      <path id="Fill-114" class="cls-4" d="M32.52 86.36v.89l.52-.17v-.56l-.52-.16z"/>
      <path id="Fill-116" class="cls-4" d="M33.04 45.89v-.8l-.47.65.47.15z"/>
      <path id="Fill-118" class="cls-4" d="m33.04 80.94-.47.15.47.65v-.8z"/>
      <path id="Fill-120" class="cls-4" d="M33.04 76.64v-2.38l-.52.17v2.92l.52-.71z"/>
      <path id="Fill-122" class="cls-4" d="m33.04 82.63-.52-.72v3.9l.52.17v-3.35z"/>
      <path id="Fill-124" class="cls-4" d="m33.04 88.33-.52.72v4.88l.52-.17v-5.43z"/>
      <path id="Fill-126" class="cls-4" d="M32.52 52.95v.89l.52-.17v-.55l-.52-.17z"/>
      <path id="Fill-128" class="cls-4" d="M32.52 87.79v.37l.36-.49-.36.12z"/>
      <path id="Fill-130" class="cls-4" d="m33.04 50.19-.52-.71v2.92l.52.17v-2.38z"/>
      <path id="Fill-132" class="cls-4" d="M33.04 44.2v-3.35l-.52.17v3.9l.52-.72z"/>
      <path id="Fill-134" class="cls-2" d="M38.88 75.06v3.44l.52-.17v-3.1l-.52-.17z"/>
      <path id="Fill-136" class="cls-2" d="M38.88 25.79v1.95l.52.17v-1.4l-.52-.72z"/>
      <path id="Fill-138" class="cls-2" d="M39.4.86 38.88.8v2.48l.52.72Z"/>
      <path id="Fill-140" class="cls-2" d="m39.04 46.76.36-.49v-.8l-.52.17v.89l.16.23z"/>
      <path id="Fill-142" class="cls-2" d="M38.88 28.29v2.62l.52-.16v-2.3l-.52-.16z"/>
      <path id="Fill-144" class="cls-2" d="M39.4 74.68v-2.49l-.52.17v2.15l.52.17z"/>
      <path id="Fill-146" class="cls-2" d="M39.4 54.63v-2.48l-.52.17v2.15l.52.16z"/>
      <path id="Fill-148" class="cls-2" d="M38.88 41.65v3.44l.52-.17v-3.1l-.52-.17z"/>
      <path id="Fill-150" class="cls-2" d="m39.4 55.18-.52-.17v2.33l.16.23.36-.49v-1.9z"/>
      <path id="Fill-152" class="cls-2" d="m38.87 94.32.53.43v-2.51l-.53.17Z"/>
      <path id="Fill-154" class="cls-2" d="m39.36 58.01.04.04v-.09l-.04.05z"/>
      <path id="Fill-156" class="cls-2" d="m39.04 69.26-.16.23v2.33l.52-.17v-1.9l-.36-.49z"/>
      <path id="Fill-158" class="cls-2" d="m39.4 35.14-.52-.17v.75l.16.23.36-.49v-.32z"/>
      <path id="Fill-160" class="cls-2" d="M39.4 61.32v-2.38l-.07-.09-.45.15v2.15l.52.17z"/>
      <path id="Fill-162" class="cls-2" d="m38.88 24.45.46-.63-.46.14v.49z"/>
      <path id="Fill-164" class="cls-2" d="m39.4 24.61-.37.51.37.5v-1.01z"/>
      <path id="Fill-166" class="cls-2" d="M38.88 14.98v8.44l.52-.17v-7.56l-.52-.71z"/>
      <path id="Fill-168" class="cls-2" d="M38.88 61.69v3.45l.52-.17v-3.11l-.52-.17z"/>
      <path id="Fill-170" class="cls-2" d="m39.04 36.83-.16.23v1.35l.52-.17v-.92l-.36-.49z"/>
      <path id="Fill-172" class="cls-2" d="m39.36 68.82.04.05v-.1l-.04.05z"/>
      <path id="Fill-174" class="cls-2" d="M39.4 14.81v-3.2l-.52.71v1.77l.52.72z"/>
      <path id="Fill-176" class="cls-2" d="m39.4 4.88-.52-.71v7.27l.52-.71V4.88z"/>
      <path id="Fill-178" class="cls-2" d="m39.33 67.98.07-.09v-2.38l-.52.17v2.15l.45.15z"/>
      <path id="Fill-180" class="cls-2" d="m39.36 36.39.04.04v-.09l-.04.05z"/>
      <path id="Fill-182" class="cls-2" d="m38.88 81.19.52.17v-.8l-.36-.49-.16.23v.89z"/>
      <path id="Fill-184" class="cls-2" d="M38.88 48.33v3.44l.52-.17v-3.1l-.52-.17z"/>
      <path id="Fill-186" class="cls-2" d="m39.04 90.88-.16.23v.75l.52-.17v-.32l-.36-.49z"/>
      <path id="Fill-188" class="cls-2" d="m39.36 79.63.04.05v-.1l-.04.05z"/>
      <path id="Fill-190" class="cls-2" d="M39.4 88.04v-2.48l-.52.17v2.14l.52.17z"/>
      <path id="Fill-192" class="cls-2" d="m39.23 47.9-.19-.26-.12.16.31.1z"/>
      <path id="Fill-194" class="cls-2" d="M38.88 81.74v3.44l.52-.17v-3.1l-.52-.17z"/>
      <path id="Fill-196" class="cls-2" d="m39.23 78.93-.31.1.12.16.19-.26z"/>
      <path id="Fill-198" class="cls-2" d="M39.4 34.59v-3.3l-.52.17v2.96l.52.17z"/>
      <path id="Fill-200" class="cls-2" d="M39.4 41.27v-2.48l-.52.17v2.14l.52.17z"/>
      <path id="Fill-202" class="cls-2" d="m39.36 47.2.04.04v-.09l-.04.05z"/>
      <path id="Fill-204" class="cls-2" d="m39.4 88.59-.52-.17v1.35l.16.23.36-.48v-.93z"/>
      <path id="Fill-206" class="cls-2" d="m39.36 90.44.04.05v-.09l-.04.04z"/>
      <path id="Fill-208" class="cls-5" d="M45.23 90.48v1.81l.52-.71v-.93l-.52-.17z"/>
      <path id="Fill-210" class="cls-5" d="M45.23 34.53v1.81l.52-.16v-.93l-.52-.72z"/>
      <path id="Fill-212" class="cls-5" d="m45.75 24.44-.52-.72v3.71l.52-.72v-2.27z"/>
      <path id="Fill-214" class="cls-5" d="m45.45 77.19.3.42v-.32l-.3-.1z"/>
      <path id="Fill-216" class="cls-5" d="M45.23 88.59v1.21l.52-.17v-.32l-.52-.72z"/>
      <path id="Fill-218" class="cls-5" d="M45.23 82.37v.74l.52-.16v-1.3l-.52.72z"/>
      <path id="Fill-220" class="cls-5" d="M45.75 14.99v-1.36l-.52-.72v2.79l.52-.71z"/>
      <path id="Fill-222" class="cls-5" d="M45.23 28.31v.54l.52-.17V27.6l-.52.71z"/>
      <path id="Fill-224" class="cls-5" d="m45.75 57.25-.52-.17v2.78l.52-.72v-1.89z"/>
      <path id="Fill-226" class="cls-5" d="M45.23 95.18c.18-.05.35-.09.52-.15v-2.57l-.52.72Z"/>
      <path id="Fill-228" class="cls-5" d="M45.23 71.56v4.87l.52-.16v-5.43l-.52.72z"/>
      <path id="Fill-230" class="cls-5" d="M45.75 7.34a1.81 1.81 0 0 1-.52-.06V12l.52.72Z"/>
      <path id="Fill-232" class="cls-5" d="M45.75 21.18v-5.31l-.52.72v4.76l.52-.17z"/>
      <path id="Fill-234" class="cls-5" d="M45.23 60.74v2.33l.52-.17v-2.87l-.52.71z"/>
      <path id="Fill-236" class="cls-5" d="m45.23 56.39.14-.05-.14-.18v.23z"/>
      <path id="Fill-238" class="cls-5" d="M45.23 50.4v4.87l.52.72v-5.43l-.52-.16z"/>
      <path id="Fill-240" class="cls-5" d="M45.23 83.8v3.91l.52.71v-4.45l-.52-.17z"/>
      <path id="Fill-242" class="cls-5" d="M45.23 39.12v3.91l.52-.17v-4.45l-.52.71z"/>
      <path id="Fill-244" class="cls-5" d="M45.23 70.44v.23l.14-.19-.14-.04z"/>
      <path id="Fill-246" class="cls-5" d="M45.75 29.97v-.74l-.52.16v.41l.52.17z"/>
      <path id="Fill-248" class="cls-5" d="M45.23 43.71v.75l.52.72v-1.3l-.52-.17z"/>
      <path id="Fill-250" class="cls-5" d="m45.44 49.64.31-.1v-.32l-.31.42z"/>
      <path id="Fill-252" class="cls-5" d="m45.75 78.5-.52-.72v3.7l.52-.71V78.5z"/>
      <path id="Fill-254" class="cls-5" d="M45.23 63.76v2.32l.52.72v-2.87l-.52-.17z"/>
      <path id="Fill-256" class="cls-5" d="M45.23 30.35v3.3l.52.72v-3.85l-.52-.17z"/>
      <path id="Fill-258" class="cls-5" d="M45.75 23.56v-1.83l-.52.17v.94l.52.72z"/>
      <path id="Fill-260" class="cls-5" d="m45.75 46.06-.52-.72v3.71l.52-.72v-2.27z"/>
      <path id="Fill-262" class="cls-5" d="m45.75 37.2-.52-.17v1.21l.52-.72v-.32z"/>
      <path id="Fill-264" class="cls-5" d="M45.23 66.97v2.78l.52-.17v-1.9l-.52-.71z"/>
      <path id="Fill-266" class="cls-6" d="M51.59 52.46v.75l.52.72v-1.3l-.52-.17z"/>
      <path id="Fill-268" class="cls-6" d="m52.11 29.66-.52.72v1.21l.26.37.26.08v-2.38z"/>
      <path id="Fill-270" class="cls-6" d="M51.59 65.82v1.87l.52-.17v-1.53l-.52-.17z"/>
      <path id="Fill-272" class="cls-6" d="m51.8 85.94.31.42v-.32l-.31-.1z"/>
      <path id="Fill-274" class="cls-6" d="m51.8 40.89.31-.1v-.32l-.31.42z"/>
      <path id="Fill-276" class="cls-6" d="M51.59 32.47v1.81l.52-.17v-.92l-.52-.72z"/>
      <path id="Fill-278" class="cls-6" d="m51.94 61.44-.35.11v.37l.35-.48z"/>
      <path id="Fill-280" class="cls-6" d="m52.11 51.28-.48.65.48.15v-.8z"/>
      <path id="Fill-282" class="cls-6" d="m51.59 64.02.52.72v-2.65l-.52.72v1.21z"/>
      <path id="Fill-284" class="cls-6" d="m51.94 65.39-.35-.48v.37l.35.11z"/>
      <path id="Fill-286" class="cls-6" d="M52.11 43.12v-1.78l-.52.17v.89l.52.72z"/>
      <path id="Fill-288" class="cls-6" d="M51.59 21.66v5.12l.52-.16v-4.24l-.52-.72z"/>
      <path id="Fill-290" class="cls-6" d="m52.11 92.72-.52-.17v1.35l.26-.06h.14l.12-.16Z"/>
      <path id="Fill-292" class="cls-6" d="M51.59 79.19v1.86l.52-.17v-1.52l-.52-.17z"/>
      <path id="Fill-294" class="cls-6" d="m52.11 76.43-.52-.72v2.93l.52.17v-2.38z"/>
      <path id="Fill-296" class="cls-6" d="M51.59 86.53v1.2l.52-.17v-.32l-.52-.71z"/>
      <path id="Fill-298" class="cls-6" d="m51.59 72.74.13-.19-.13-.05v.24z"/>
      <path id="Fill-300" class="cls-6" d="m52.04 72.11.07-.09v-3.96l-.52.17v3.73l.45.15z"/>
      <path id="Fill-302" class="cls-6" d="M51.59 45.78v1.86l.52-.17v-1.52l-.52-.17z"/>
      <path id="Fill-304" class="cls-6" d="M51.59 73.62v.75l.52-.17v-1.3l-.52.72z"/>
      <path id="Fill-306" class="cls-6" d="M52.11 50.4v-2.38l-.52.17v2.92l.52-.71z"/>
      <path id="Fill-308" class="cls-6" d="m51.85 19.2.26-.08v-.27l-.26.35z"/>
      <path id="Fill-310" class="cls-6" d="M52.11 82.83v-1.4l-.52.17v1.95l.52-.72z"/>
      <path id="Fill-312" class="cls-6" d="M52.11 45.4V44l-.52-.72v1.95l.52.17z"/>
      <path id="Fill-314" class="cls-6" d="M52.11 28.77v-1.61l-.52.17v2.16l.52-.72z"/>
      <path id="Fill-316" class="cls-6" d="M52.11 92.17v-4.06l-.52.17V92l.52.17z"/>
      <path id="Fill-318" class="cls-6" d="M52.11 21.5v-1.83l-.52.17v.94l.52.72z"/>
      <path id="Fill-320" class="cls-6" d="M52.11 38.72v-4.06l-.52.17v3.72l.52.17z"/>
      <path id="Fill-322" class="cls-6" d="M51.59 39.1v1.2l.52-.71v-.32l-.52-.17z"/>
      <path id="Fill-324" class="cls-6" d="M51.59 59.14v1.87l.52-.17v-1.53l-.52-.17z"/>
      <path id="Fill-326" class="cls-6" d="M52.11 85.49v-1.78l-.52.72v.89l.52.17z"/>
      <path id="Fill-328" class="cls-6" d="M52.11 58.77v-3.96l-.07-.09-.45.15v3.73l.52.17z"/>
      <path id="Fill-330" class="cls-6" d="m51.59 54.32.13-.04-.13-.19v.23z"/>
      <path id="Fill-332" class="cls-6" d="m52.11 74.75-.48.15.48.65v-.8z"/>
      <path id="Fill-334" class="cls-6" d="M52.11 12.83a1.55 1.55 0 0 1-.31 0h-.21v5.84l.52-.71Z"/>
      <path id="Fill-336" class="cls-7" d="M57.94 30.4v1.16l.42-.58-.42-.58z"/>
      <path id="Fill-338" class="cls-7" d="m57.94 92.35.52-.17V88.1l-.52-.17v4.42z"/>
      <path id="Fill-340" class="cls-7" d="M58.46 47.47v-1.51l-.52.17v1.17l.52.17z"/>
      <path id="Fill-342" class="cls-7" d="M57.94 43.25v2.33l.52-.17v-2.88l-.52.72z"/>
      <path id="Fill-344" class="cls-7" d="M57.94 59.9a4.17 4.17 0 0 0 .52-.48v-.1l-.52.17Z"/>
      <path id="Fill-346" class="cls-7" d="m57.94 94.78.52.11v-2.17l-.52.17v1.89z"/>
      <path id="Fill-348" class="cls-7" d="m58.3 52.69-.36.12v.37l.36-.49z"/>
      <path id="Fill-350" class="cls-7" d="M58.46 34.1v-1.51l-.52.17v1.18l.52.16z"/>
      <path id="Fill-352" class="cls-7" d="M57.94 81.25v2.33l.52.71v-2.87l-.52-.17z"/>
      <path id="Fill-354" class="cls-7" d="M57.94 86.5v.89l.52.17v-1.52l-.25.09-.27.37z"/>
      <path id="Fill-356" class="cls-7" d="m58.15 32.15.31-.1v-.32l-.31.42z"/>
      <path id="Fill-358" class="cls-7" d="m57.99 54 .47.15v-.8l-.47.65z"/>
      <path id="Fill-360" class="cls-7" d="M57.94 21.63v3.09l.52-.17v-3.64l-.52.72z"/>
      <path id="Fill-362" class="cls-7" d="M57.94 19.59v1.16l.42-.58-.42-.58z"/>
      <path id="Fill-364" class="cls-7" d="M58.46 19.43V17.6l-.52.17v.94l.52.72z"/>
      <path id="Fill-366" class="cls-7" d="M57.94 41.22v1.15l.42-.58-.42-.57z"/>
      <path id="Fill-368" class="cls-7" d="M58.46 80.87v-1.51l-.52.17v1.17l.52.17z"/>
      <path id="Fill-370" class="cls-7" d="m57.94 17.23.52-.17v-6.72h-.18l-.34.47Z"/>
      <path id="Fill-372" class="cls-7" d="M58.46 30.24V25.1l-.52.17v4.25l.52.72z"/>
      <path id="Fill-374" class="cls-7" d="M57.94 75.69v3.3l.52-.17v-3.85l-.52.72z"/>
      <path id="Fill-376" class="cls-7" d="M57.94 74.57v.23l.14-.19-.14-.04z"/>
      <path id="Fill-378" class="cls-7" d="m58.3 74.14-.36-.49v.37l.36.12z"/>
      <path id="Fill-380" class="cls-7" d="m58.46 94.78-.31-.1.31.43v-.33z"/>
      <path id="Fill-382" class="cls-7" d="m58.21 40.7.25.09v-1.52l-.52.17v.89l.27.37z"/>
      <path id="Fill-384" class="cls-7" d="M58.46 73.48v-.8l-.47.15.47.65z"/>
      <path id="Fill-386" class="cls-7" d="M57.94 47.84v3.3l.52.72v-3.85l-.52-.17z"/>
      <path id="Fill-388" class="cls-7" d="M58.46 71.86a2.79 2.79 0 0 1-.52-.51v1l.52-.16Z"/>
      <path id="Fill-390" class="cls-7" d="m57.94 58.94.52-.17v-4.08l-.52-.17v4.42z"/>
      <path id="Fill-392" class="cls-7" d="M57.94 34.48v4.42l.52-.17v-4.08l-.52-.17z"/>
      <path id="Fill-394" class="cls-7" d="M57.94 84.46v1.15l.42-.57-.42-.58z"/>
      <path id="Fill-396" class="cls-7" d="m57.94 52.26.14-.04-.14-.19v.23z"/>
      <path id="Fill-398" class="cls-8" d="m64.81 44.6-.52.72v3.76l.27.37.25.08V44.6z"/>
      <path id="Fill-400" class="cls-8" d="M64.29 28.34v1.81l.52-.17v-.92l-.52-.72z"/>
      <path id="Fill-402" class="cls-8" d="m64.81 55.41-.47.65.47.15v-.8z"/>
      <path id="Fill-404" class="cls-8" d="m64.44 22.61.37-.51v-6.56l-.52.17v6.95l.15-.05z"/>
      <path id="Fill-406" class="cls-8" d="m64.65 82.89-.36-.49v.37l.36.12z"/>
      <path id="Fill-408" class="cls-8" d="M64.81 54.53v-3.85l-.06-.09-.46.15v4.51l.52-.72z"/>
      <path id="Fill-410" class="cls-8" d="m64.29 83.6.44-.14-.44-.14v.28z"/>
      <path id="Fill-412" class="cls-8" d="M64.29 56.59v.29l.18-.06.18-.06Z"/>
      <path id="Fill-414" class="cls-8" d="m64.29 27.46.52.72v-5.15l-.05.02-.47.65v3.76z"/>
      <path id="Fill-416" class="cls-8" d="M64.81 38.99v-1.78l-.52.17v.89l.52.72z"/>
      <path id="Fill-418" class="cls-8" d="m64.29 36 .52.17v-2.38l-.52.72V36z"/>
      <path id="Fill-420" class="cls-8" d="M64.81 32.91v-2.38l-.52.17v2.92l.52-.71z"/>
      <path id="Fill-422" class="cls-8" d="m64.81 39.87-.52-.72v3.53l.52.17v-2.98z"/>
      <path id="Fill-424" class="cls-8" d="m64.29 36.83.45-.14-.45-.15v.29z"/>
      <path id="Fill-426" class="cls-8" d="m64.29 43.51.45-.14-.45-.14v.28z"/>
      <path id="Fill-428" class="cls-8" d="M64.29 77.75v3.76l.52.72v-4.82l-.06-.09-.19.06Z"/>
      <path id="Fill-430" class="cls-8" d="m64.29 15.16.52-.17v-2.82l-.52.71v2.28z"/>
      <path id="Fill-432" class="cls-8" d="m64.65 43.94-.36.12v.37l.36-.49z"/>
      <path id="Fill-434" class="cls-8" d="m64.81 8.65-.52-.14V12l.52-.72Z"/>
      <path id="Fill-436" class="cls-8" d="m64.29 50.2.14-.05-.14-.19v.24z"/>
      <path id="Fill-438" class="cls-9" d="M71.17 38.23v-.43l-.52-.71v.97l.52.17z"/>
      <path id="Fill-440" class="cls-9" d="M70.65 38.61v2.84l.52-.17v-2.5l-.52-.17z"/>
      <path id="Fill-442" class="cls-9" d="M71.17 36.92v-1.07l-.39.54.39.53z"/>
      <path id="Fill-444" class="cls-9" d="M71.17 24.16v-3.19l-.52.17v3.74l.52-.72z"/>
      <path id="Fill-446" class="cls-9" d="m70.65 28.09.52-.17v-2.88l-.52.72v2.33z"/>
      <path id="Fill-448" class="cls-9" d="M70.65 45.29v1.21l.52-.72v-.32l-.52-.17z"/>
      <path id="Fill-450" class="cls-9" d="m71.17 12.43-.52-.25v.91l.52-.16Z"/>
      <path id="Fill-452" class="cls-9" d="m70.78 47.2.39.53v-1.07l-.39.54z"/>
      <path id="Fill-454" class="cls-9" d="m71 35.2-.35.11v.38l.35-.49z"/>
      <path id="Fill-456" class="cls-9" d="m70.65 48.13.14-.04-.14-.19v.23z"/>
      <path id="Fill-458" class="cls-9" d="m70.65 34.77.52-.17v-6.14l-.52.17v6.14z"/>
      <path id="Fill-460" class="cls-9" d="M70.65 51.97v2.84l.52-.17v-2.5l-.52-.17z"/>
      <path id="Fill-462" class="cls-9" d="M71.17 44.91v-3.08l-.52.17v2.74l.52.17z"/>
      <path id="Fill-464" class="cls-9" d="m71.05 13.51-.4.13v.43l.4-.56z"/>
      <path id="Fill-466" class="cls-9" d="M71.17 51.6v-2.98l-.06-.09-.46.15v2.75l.52.17z"/>
      <path id="Fill-468" class="cls-9" d="m70.65 20.59.52-.17v-6.19l-.52.72v5.64z"/>
      <path id="Fill-470" class="cls-10" d="m77 53.49.52.17v-.54l-.52.17v.2z"/>
      <path id="Fill-472" class="cls-10" d="m77 52.75.52-.17v-3.85l-.52.72v3.3z"/>
      <path id="Fill-474" class="cls-10" d="m77 44.95.52.72v-4.83l-.52-.17v4.28z"/>
      <path id="Fill-476" class="cls-10" d="m77.14 46.02-.14-.19v.23l.14-.04z"/>
      <path id="Fill-478" class="cls-10" d="M77.52 46.98v-.43l-.06-.09-.46.15v.2l.52.17z"/>
      <path id="Fill-480" class="cls-10" d="M77 47.35v1.21l.52-.71v-.33l-.52-.17z"/>
      <path id="Fill-482" class="cls-3" d="m46.81 91 .22.07-.13-.19-.09.12z"/>
      <path id="Fill-484" class="cls-3" d="m27.23 84.64.32-.45-.86-.28-.52-.17-.88-.28-.84.27 1.72.56.52.17.54.18z"/>
      <path id="Fill-486" class="cls-3" d="m15.36 80.23-.32.44 5.84 1.9.32-.44-5.84-1.9z"/>
      <path id="Fill-488" class="cls-3" d="m12.28 79.22-.32.45 5.84 1.89.32-.44-5.84-1.9z"/>
      <path id="Fill-490" class="cls-3" d="m36.23 87.01-.66-.21-.84.27 2.02.66-.52-.72z"/>
      <path id="Fill-492" class="cls-3" d="m56.13 93.48-.84.27 2.02.66-.52-.72-.66-.21z"/>
      <path id="Fill-494" class="cls-3" d="m21.4 82.74 2.21.72.84-.27-2.73-.89-.32.44z"/>
      <path id="Fill-496" class="cls-3" d="m40.46 88.93 3.71 1.21.84-.27-4.23-1.38-.32.44z"/>
      <path id="Fill-498" class="cls-3" d="m34.23 86.69.5-.16-.31-.1-.19.26z"/>
      <path id="Fill-500" class="cls-3" d="m53.49 92.62-.32.44 1.28.42.85-.27-1.81-.59z"/>
      <path id="Fill-502" class="cls-3" d="m52.65 92.89.32-.44-.86-.28-.52-.17-4.24-1.37.52.71 3.72 1.21.52.17.54.17z"/>
      <path id="Fill-504" class="cls-3" d="m33.04 86.52.55.18.32-.44-.87-.28-.52-.17-4.45-1.45-.32.44 4.77 1.55.52.17z"/>
      <path id="Fill-506" class="cls-3" d="m39.4 88.59.54.18.32-.45-.86-.28-.52-.17-1.81-.58.52.71 1.29.42.52.17z"/>
      <path id="Fill-508" class="cls-3" d="m45.75 90.65.55.18.28-.39-.07-.09-.66-.21-.84.27.22.07.52.17z"/>
      <path id="Fill-510" class="cls-4" d="m56.9 87.05-.77-.25-.84.27 1.29.42.32-.44z"/>
      <path id="Fill-512" class="cls-4" d="m37.83 80.85-2.26-.73-.84.27 2.78.91.32-.45z"/>
      <path id="Fill-514" class="cls-4" d="m19.29 74.83-.32.44 4.64 1.51.84-.28-5.16-1.67z"/>
      <path id="Fill-516" class="cls-4" d="m44.52 83.35.49-.16-.3-.1-.19.26z"/>
      <path id="Fill-518" class="cls-4" d="m50.96 85.67-.14-.19-.08.11.22.08z"/>
      <path id="Fill-520" class="cls-4" d="M44.19 82.92 41 81.88l.52.72 2.35.76.32-.44z"/>
      <path id="Fill-522" class="cls-4" d="m57.42 87.22-.33.44.85.27.52.17.85.28a1.68 1.68 0 0 1 .49-.38l-1.34-.43-.52-.17Z"/>
      <path id="Fill-524" class="cls-4" d="m30.72 78.54.47.65.29-.4-.76-.25z"/>
      <path id="Fill-526" class="cls-4" d="m25.02 76.86-.57.19.35.12.22-.31z"/>
      <path id="Fill-528" class="cls-4" d="m26.69 77.78 3.71 1.2-.52-.71-3.19-1.04-.52-.17-.53-.17-.32.44.85.28.52.17z"/>
      <path id="Fill-530" class="cls-4" d="m32.52 79.13-.52-.17-.32.44.84.27.52.17.85.28.84-.27-1.69-.55-.52-.17z"/>
      <path id="Fill-532" class="cls-4" d="m38.88 81.19-.53-.17-.32.44.85.28.52.17 1.28.41-.52-.71-.76-.25-.52-.17z"/>
      <path id="Fill-534" class="cls-4" d="m45.75 83.97 4.47 1.45.28-.38-.06-.09-4.59-1.49-.84.27.22.07.52.17z"/>
      <path id="Fill-536" class="cls-4" d="m51.59 85.32-.31-.1.52.72.31.1 2.34.76.84-.27-3.18-1.04-.52-.17z"/>
      <path id="Fill-538" class="cls-2" d="m14.17 66.48-4.2-1.36-.32.44 3.68 1.19.84-.27z"/>
      <path id="Fill-540" class="cls-2" d="m4.73 63.41-.84.28 5.24 1.7.32-.44-4.72-1.54z"/>
      <path id="Fill-542" class="cls-2" d="m44.96 76.52.05-.02-.08-.02.03.04z"/>
      <path id="Fill-544" class="cls-2" d="m35.3 73.52-.3.1.12.16.18-.26z"/>
      <path id="Fill-546" class="cls-2" d="m24.39 69.84.06-.02-.09-.02.03.04z"/>
      <path id="Fill-548" class="cls-2" d="m23.21 69.42-.32.44.72.24.27-.09-.36-.49-.31-.1z"/>
      <path id="Fill-550" class="cls-2" d="m26.17 70.93.52.17 2.04.66.32-.44-2.36-.77-.52-.17-.88-.28-.57.18.16.23 1.29.42z"/>
      <path id="Fill-552" class="cls-2" d="m55.24 79.86.05-.02-.08-.02.03.04z"/>
      <path id="Fill-554" class="cls-2" d="m57.94 81.25.52.17 2.04.66.32-.44-2.36-.77-.52-.17-1.81-.58-.57.19.17.22 2.21.72z"/>
      <path id="Fill-556" class="cls-2" d="m.82 62.14-.82.28 1.48.49.32-.44Z"/>
      <path id="Fill-558" class="cls-2" d="m42.28 75.62-.32.44 2.21.72.27-.09-.35-.49-1.81-.58z"/>
      <path id="Fill-560" class="cls-2" d="m65.52 83.2.06-.01-.09-.03.03.04z"/>
      <path id="Fill-562" class="cls-2" d="m3.89 63.14-1.57-.51-.32.45 1.04.33.85-.27z"/>
      <path id="Fill-564" class="cls-2" d="m15.01 66.75-.85.28 1.86.6.32-.44-1.33-.44z"/>
      <path id="Fill-566" class="cls-2" d="m16.86 67.36-.32.44 5.84 1.89.32-.44-5.84-1.89z"/>
      <path id="Fill-568" class="cls-2" d="m34.68 73.18.05-.02-.09-.02.04.04z"/>
      <path id="Fill-570" class="cls-2" d="m61.34 81.81-.32.44 3.27 1.07.44.14.27-.09-.35-.48-.36-.12-2.95-.96z"/>
      <path id="Fill-572" class="cls-2" d="m33.04 72.62-.52-.17-2.95-.96-.32.44 3.27 1.06.52.17.85.28.27-.09-.36-.49-.76-.24z"/>
      <path id="Fill-574" class="cls-2" d="m39.4 75.23 2.04.66.32-.44-2.36-.77-.52-.17-2.96-.96-.32.44 3.28 1.07.52.17z"/>
      <path id="Fill-576" class="cls-2" d="m45.75 77.29 2.05.66.32-.44-2.27-.73-.57.18.17.23.3.1z"/>
      <path id="Fill-578" class="cls-2" d="m52.11 79.36 2.04.66.28-.39-.06-.09-2.26-.73-.52-.17-2.96-.96-.32.44 3.28 1.07.52.17z"/>
      <path id="Fill-580" class="cls-5" d="m20.47 62.4 3.14 1.02.84-.28-3.66-1.19-.32.45z"/>
      <path id="Fill-582" class="cls-5" d="m13.38 59.55-7.13-2.32-.32.44 7.13 2.32.32-.44z"/>
      <path id="Fill-584" class="cls-5" d="m48.01 70.8-1.8-.59-.33.44 2.65.86-.52-.71z"/>
      <path id="Fill-586" class="cls-5" d="m37.73 67.46-2.16-.7-.84.27 3.52 1.14-.52-.71z"/>
      <path id="Fill-588" class="cls-5" d="m13.9 59.71-.17.23.44-.14-.27-.09z"/>
      <path id="Fill-590" class="cls-5" d="m58.81 74.85-.13-.18-.09.11.22.07z"/>
      <path id="Fill-592" class="cls-5" d="m20.27 61.78-2.26-.73.52.71 1.42.47.32-.45z"/>
      <path id="Fill-594" class="cls-5" d="m26.82 64.46 1.15.37-.52-.71-.31-.1-.32.44z"/>
      <path id="Fill-596" class="cls-5" d="m33.18 66.52.71.23.84-.27-1.23-.4-.32.44z"/>
      <path id="Fill-598" class="cls-5" d="m4.72 56.73-.84.28 1.53.49.32-.44-1.01-.33z"/>
      <path id="Fill-600" class="cls-5" d="m39.53 68.59 4.64 1.51.84-.28-5.16-1.67-.32.44z"/>
      <path id="Fill-602" class="cls-5" d="m52.24 72.72 2.21.72.84-.28-2.73-.88-.32.44z"/>
      <path id="Fill-604" class="cls-5" d="m64.29 76.63-.42-.63-4.74-1.54.52.72Z"/>
      <path id="Fill-606" class="cls-5" d="M2.73 56.08a4.23 4.23 0 0 1-.8.29l1.07.36.85-.27Z"/>
      <path id="Fill-608" class="cls-5" d="m17.17 60.78-2.16-.71-.84.28 3.52 1.14-.52-.71z"/>
      <path id="Fill-610" class="cls-5" d="m26.3 64.29.32-.44-.45-.15-.88-.29-.84.28 1.72.56.13.04z"/>
      <path id="Fill-612" class="cls-5" d="m32.66 66.36.32-.45-.46-.15-4.23-1.37.52.71 3.71 1.21.14.05z"/>
      <path id="Fill-614" class="cls-5" d="m38.88 67.83-.31-.1.47.65.29-.4-.45-.15z"/>
      <path id="Fill-616" class="cls-5" d="m45.37 70.48.22-.3-.58.19.22.07.14.04z"/>
      <path id="Fill-618" class="cls-5" d="m51.72 72.55.32-.44-.46-.15-2.73-.89.52.72 2.21.71.14.05z"/>
      <path id="Fill-620" class="cls-5" d="m58.08 74.61.28-.39-.06-.08-.36-.12-1.81-.58-.84.27 2.65.86.14.04z"/>
      <path id="Fill-622" class="cls-6" d="m43.46 63.18.71.23.84-.27-1.23-.4-.32.44z"/>
      <path id="Fill-624" class="cls-6" d="m21.09 55.37-3.27-1.06-.32.44 4.11 1.33-.52-.71z"/>
      <path id="Fill-626" class="cls-6" d="m14.17 53.66 2.81.92.33-.44-2.3-.75-.84.27z"/>
      <path id="Fill-628" class="cls-6" d="m12.17 53.02 1.16.37.84-.27-2.52-.82.52.72z"/>
      <path id="Fill-630" class="cls-6" d="m10.81 52.03-.63-.21-.32.44 1.47.48-.52-.71z"/>
      <path id="Fill-632" class="cls-6" d="m21.93 55.64.52.72 1.16.37.43-.14.16-.21-2.27-.74z"/>
      <path id="Fill-634" class="cls-6" d="m4.73 50.05-.22.07c.06.16.13.31.18.47l4.65 1.51.32-.45Z"/>
      <path id="Fill-636" class="cls-6" d="m55.87 66.84-.58.19.36.11.22-.3z"/>
      <path id="Fill-638" class="cls-6" d="m30.75 59.05 1.15.37-.52-.71-.31-.1-.32.44z"/>
      <path id="Fill-640" class="cls-6" d="m42.5 62.33.47.64.29-.4-.76-.24z"/>
      <path id="Fill-642" class="cls-6" d="m54.45 66.75.84-.27-2.51-.81.52.71 1.15.37z"/>
      <path id="Fill-644" class="cls-6" d="m50.13 64.81-.32.44 1.77.57.53.17.35.12-.52-.72-.36-.11-1.45-.47z"/>
      <path id="Fill-646" class="cls-6" d="m36.91 60.51-1.34-.44-.84.28 1.86.6.32-.44z"/>
      <path id="Fill-648" class="cls-6" d="M57.23 67.66a5.4 5.4 0 0 0-.1-.58l-.64-.21-.32.44Z"/>
      <path id="Fill-650" class="cls-6" d="m26.69 57.73 3.54 1.15.32-.44-3.86-1.25-.52-.17-.88-.29-.84.28 1.72.55.52.17z"/>
      <path id="Fill-652" class="cls-6" d="m32.52 59.08-.3-.1.51.72.31.1.85.27.84-.27-1.69-.55-.52-.17z"/>
      <path id="Fill-654" class="cls-6" d="m39.4 61.86 2.78.91-.52-.72-2.26-.73-.52-.17-1.46-.47-.32.44 1.78.57.52.17z"/>
      <path id="Fill-656" class="cls-6" d="m45.75 63.93 3.55 1.15.32-.44-3.77-1.23-.84.28.22.07.52.17z"/>
      <path id="Fill-658" class="cls-7" d="m24.45 49.78-2.7-.88-.32.44 2.18.71.84-.27z"/>
      <path id="Fill-660" class="cls-7" d="m16.1 47.61 4.81 1.56.32-.44-5.65-1.83.52.71z"/>
      <path id="Fill-662" class="cls-7" d="m25.13 50.1-.68.22 1.09.36-.41-.58z"/>
      <path id="Fill-664" class="cls-7" d="m33.04 52.57-.52-.17-3.88-1.26-.32.44 4.2 1.37.52.17.85.27.43-.14.16-.21-1.44-.47z"/>
      <path id="Fill-666" class="cls-7" d="m14.11 46.42-.04.05.1-.03-.06-.02z"/>
      <path id="Fill-668" class="cls-7" d="m46.42 56.92.48.65.29-.4-.77-.25z"/>
      <path id="Fill-670" class="cls-7" d="m27.8 51.41.32-.44-1.43-.46-.52-.17-.31-.1.52.71.31.1 1.11.36z"/>
      <path id="Fill-672" class="cls-7" d="m35.41 53.45-.68.21 1.09.36-.41-.57z"/>
      <path id="Fill-674" class="cls-7" d="m13.27 46.69.32-.44-8.29-2.7.52.72 7.45 2.42z"/>
      <path id="Fill-676" class="cls-7" d="m5 44-.39-.53a.53.53 0 0 1-.06.1"/>
      <path id="Fill-678" class="cls-7" d="m14.17 46.98 1.09.36-.42-.57-.67.21z"/>
      <path id="Fill-680" class="cls-7" d="m41.03 55.71 3.14 1.02.84-.27-3.66-1.19-.32.44z"/>
      <path id="Fill-682" class="cls-7" d="m55.29 60.35.65.21a1.25 1.25 0 0 1 .27-.1l-.21-.33Z"/>
      <path id="Fill-684" class="cls-7" d="m53.74 59.84.71.23.84-.27-1.23-.4-.32.44z"/>
      <path id="Fill-686" class="cls-7" d="m39.4 55.18 1.11.36.32-.44-1.43-.47-.52-.16-2.74-.89.52.71 2.22.72.52.17z"/>
      <path id="Fill-688" class="cls-7" d="m45.75 57.25.36.11-.42-.57-.68.22.22.07.52.17z"/>
      <path id="Fill-690" class="cls-7" d="m52.11 59.31 1.11.36.32-.44-1.43-.47-.52-.16-3.88-1.27-.33.45 4.21 1.36.52.17z"/>
      <path id="Fill-692" class="cls-8" d="m40.07 48.17.52.72 3.58 1.16.43-.14.16-.21-4.69-1.53z"/>
      <path id="Fill-694" class="cls-8" d="m58.46 54.15-.47-.16-.32.45.27.08.52.17 1.85.61-.51-.72-1.34-.43z"/>
      <path id="Fill-696" class="cls-8" d="M5.85 37.05c0 .21.07.4.1.58l3 1-.52-.71Z"/>
      <path id="Fill-698" class="cls-8" d="m18.67 41.22-.64-.21-.32.44 1.48.48-.52-.71z"/>
      <path id="Fill-700" class="cls-8" d="m12.07 39.62.84-.27-3.69-1.2.52.72 2.33.75z"/>
      <path id="Fill-702" class="cls-8" d="m12.91 39.9 4.28 1.39.32-.45-3.76-1.22-.84.28z"/>
      <path id="Fill-704" class="cls-8" d="m50.35 51.52.47.64.3-.4-.77-.24z"/>
      <path id="Fill-706" class="cls-8" d="m57.47 53.83-1.34-.44-.84.28 1.86.6.32-.44z"/>
      <path id="Fill-708" class="cls-8" d="m38.41 47.63-2.84-.92-.84.27 3.36 1.09.32-.44z"/>
      <path id="Fill-710" class="cls-8" d="m24.84 43.77.24-.33-.63.2.39.13z"/>
      <path id="Fill-712" class="cls-8" d="m32.05 45.57-2.26-.74.52.72 1.42.46.32-.44z"/>
      <path id="Fill-714" class="cls-8" d="m20.03 42.21 3.58 1.16.84-.27-4.94-1.61.52.72z"/>
      <path id="Fill-716" class="cls-8" d="m60.63 54.85.52.72 2.35.76.32-.44-3.19-1.04z"/>
      <path id="Fill-718" class="cls-8" d="m26.69 44.37 2.78.9-.52-.71-2.26-.73-.52-.17-.49-.16-.32.44.81.26.52.17z"/>
      <path id="Fill-720" class="cls-8" d="m32.57 45.74-.32.44.27.09.52.17.85.27.84-.27-1.69-.55-.47-.15z"/>
      <path id="Fill-722" class="cls-8" d="m38.6 48.24.27.09.53.17.35.12-.52-.72-.31-.1-.32.44z"/>
      <path id="Fill-724" class="cls-8" d="m45.75 50.56 4.28 1.4-.51-.72-3.67-1.19-.84.28.22.07.52.16z"/>
      <path id="Fill-726" class="cls-8" d="m51.63 51.93-.32.44.27.09.53.17 2.34.76.84-.27-3.18-1.04-.48-.15z"/>
      <path id="Fill-728" class="cls-8" d="m64.34 56.06-.32.44.27.09.44.14.84-.27-.76-.25-.47-.15z"/>
      <path id="Fill-730" class="cls-9" d="m61.59 49.03 2.65.86-.52-.71-1.81-.59-.32.44z"/>
      <path id="Fill-732" class="cls-9" d="m44.38 43.3.63-.2-1.01-.33.38.53z"/>
      <path id="Fill-734" class="cls-9" d="m67.75 50.49-1.33-.44-.84.28 1.85.6.32-.44z"/>
      <path id="Fill-736" class="cls-9" d="m54.28 46.11.39.53.22-.07.15-.21-.76-.25z"/>
      <path id="Fill-738" class="cls-9" d="m42.53 42.84 1.15.37-.52-.71-.31-.1-.32.44z"/>
      <path id="Fill-740" class="cls-9" d="m34.1 39.96.63-.2-1.01-.33.38.53z"/>
      <path id="Fill-742" class="cls-9" d="m35.98 40.16-.41-.13-.84.27.93.3.32-.44z"/>
      <path id="Fill-744" class="cls-9" d="m12.17 33 .66.22-.4-.55a2.91 2.91 0 0 1-.26.33"/>
      <path id="Fill-746" class="cls-9" d="m13.67 33.46 7.45 2.42.32-.44-8.29-2.69.52.71z"/>
      <path id="Fill-748" class="cls-9" d="m22.83 36.13-.23-.32-.64-.2-.32.44.72.23.47-.15z"/>
      <path id="Fill-750" class="cls-9" d="m26.17 36.97-2.13-.69-.37.12.28.4 2.22.72.52.17 2.08.67.32-.44-2.4-.78-.52-.17z"/>
      <path id="Fill-752" class="cls-9" d="m33.04 39.75.36.12-.52-.72-.36-.11-2.91-.95-.33.44 3.24 1.06.52.16z"/>
      <path id="Fill-754" class="cls-9" d="m39.4 41.82 2.61.85.32-.44-2.93-.96-.52-.17-2.38-.77-.32.44 2.7.88.52.17z"/>
      <path id="Fill-756" class="cls-9" d="m45.75 43.88 2.62.85.32-.44-2.84-.92-.84.27.22.07.52.17z"/>
      <path id="Fill-758" class="cls-9" d="m52.11 45.95 1.85.6-.52-.71-1.33-.44-.52-.17-2.38-.77-.33.44 2.71.88.52.17z"/>
      <path id="Fill-760" class="cls-9" d="m58.46 48.01 2.62.85.32-.44-2.94-.95-.52-.17-1.81-.59-.83.27 2.64.86.52.17z"/>
      <path id="Fill-762" class="cls-9" d="m64.56 49.45.39.53.63-.2-.77-.25-.25-.08z"/>
      <path id="Fill-764" class="cls-9" d="m70.65 51.43-2.38-.77-.32.44 2.7.87.52.17 2.61.85.29-.39-.07-.08-2.83-.92-.52-.17z"/>
      <path id="Fill-766" class="cls-10" d="m64.81 42.85-.52-.17-4.8-1.56-.32.44 5.12 1.67.45.14.43-.14.15-.21-.51-.17z"/>
      <path id="Fill-768" class="cls-10" d="m52.81 39.5 1.64.53.84-.27-2.16-.71-.32.45z"/>
      <path id="Fill-770" class="cls-10" d="m47.09 37.09-.31-.1-.32.44 1.14.37-.51-.71z"/>
      <path id="Fill-772" class="cls-10" d="m58.46 40.78-.25-.08.47.65.29-.4-.51-.17z"/>
      <path id="Fill-774" class="cls-10" d="m71.88 45.69 3.14 1.02.84-.27-3.66-1.19-.32.44z"/>
      <path id="Fill-776" class="cls-10" d="m36.8 33.75-2.48-.81-.84.27 3.84 1.25-.52-.71z"/>
      <path id="Fill-778" class="cls-10" d="m40.1 35.37 4.07 1.32.84-.28-4.59-1.49-.32.45z"/>
      <path id="Fill-780" class="cls-10" d="m78.23 47.76.22.07-.14-.19-.08.12z"/>
      <path id="Fill-782" class="cls-10" d="m21.94 29.47 3.11 1 .32-.44-2.58-.84-.85.28z"/>
      <path id="Fill-784" class="cls-10" d="M12.82 26a.93.93 0 0 0-.18.13 1.19 1.19 0 0 0-.17.31l4.29 1.39-.52-.71Z"/>
      <path id="Fill-786" class="cls-10" d="m21.11 29.19.83-.27-4.86-1.58.52.71 3.51 1.14z"/>
      <path id="Fill-788" class="cls-10" d="m27.36 30.68.52.71 4.64 1.51.12.04.09-.03.28-.39-.49-.16-5.16-1.68z"/>
      <path id="Fill-790" class="cls-10" d="m57.37 40.43-1.24-.4-.84.27 2.6.85-.52-.72z"/>
      <path id="Fill-792" class="cls-10" d="m67.65 43.77-1.23-.4-.84.27 2.59.85-.52-.72z"/>
      <path id="Fill-794" class="cls-10" d="m26.69 31.01.35.11-.52-.71-.35-.12-.28-.09-.32.44.6.2.52.17z"/>
      <path id="Fill-796" class="cls-10" d="m39.4 35.14.19.06.32-.44-.51-.17-.52-.17-1.24-.4.52.72.72.23.52.17z"/>
      <path id="Fill-798" class="cls-10" d="m45.75 37.2.19.06.32-.44-.41-.13-.84.27.22.07.52.17z"/>
      <path id="Fill-800" class="cls-10" d="m52.11 39.27.18.06.33-.44-.51-.17-.52-.17-3.67-1.19.52.72 3.15 1.02.52.17z"/>
      <path id="Fill-802" class="cls-10" d="m71.17 45.46.19.06.32-.44-.51-.17-.52-.17-2.16-.7.52.72 1.64.53.52.17z"/>
      <path id="Fill-804" class="cls-10" d="m77.52 47.52.19.07.29-.39-.07-.09-.41-.13-.52-.17-.3-.1-.84.27 1.14.38.52.16z"/>
      <path id="Fill-806" class="cls-11" d="m26.17 24.16.52.17 2.29.74.32-.44-2.61-.85-.52-.17-5.16-1.68.52.72 4.64 1.51z"/>
      <path id="Fill-808" class="cls-11" d="m32.23 26.13.29.09.52.17 3.58 1.16.32-.44-3.87-1.26-.84.28z"/>
      <path id="Fill-810" class="cls-11" d="m69.25 37.61-2.83-.92-.84.27 3.35 1.09.32-.44z"/>
      <path id="Fill-812" class="cls-11" d="m31.65 25.77.58-.19-.94-.3.36.49z"/>
      <path id="Fill-814" class="cls-11" d="m75.02 40.03.43-.14.16-.21-3.19-1.04.52.71 2.08.68z"/>
      <path id="Fill-816" class="cls-11" d="m45.23 30.35.52.17 4.12 1.34.32-.44-4.44-1.44-.52-.17-.63-.21-.4.13-.17.23 1.2.39z"/>
      <path id="Fill-818" class="cls-11" d="m76.7 40-.84.27 1.14.37.52.17.37.12c0-.16.09-.33.13-.5l-.5-.16-.52-.14Z"/>
      <path id="Fill-820" class="cls-11" d="m30.45 25-.63-.2-.33.44 1.48.48-.52-.72z"/>
      <path id="Fill-822" class="cls-11" d="m16.9 21.15 3.79 1.23-.52-.72-3.33-1.08a3.68 3.68 0 0 1 .06.57"/>
      <path id="Fill-824" class="cls-11" d="m50.39 32.03 1.14.37-.52-.72-.3-.09-.32.44z"/>
      <path id="Fill-826" class="cls-11" d="m42.09 29.33.83.27.84-.27-2.19-.71.52.71z"/>
      <path id="Fill-828" class="cls-11" d="m62.13 35.3.48.65.29-.4-.77-.25z"/>
      <path id="Fill-830" class="cls-11" d="m56.54 33.48-.41-.13-.84.27.93.3.32-.44z"/>
      <path id="Fill-832" class="cls-11" d="m39.4 28.45 1.85.61-.52-.72-1.33-.43-.52-.17-1.42-.46-.32.44 1.74.57.52.16z"/>
      <path id="Fill-834" class="cls-11" d="m51.85 31.96.52.71 2.08.68.84-.27-3.18-1.04-.26-.08z"/>
      <path id="Fill-836" class="cls-11" d="m58.46 34.65 3.35 1.09-.51-.72-2.84-.92-.52-.17-.88-.28-.32.44 1.2.39.52.17z"/>
      <path id="Fill-838" class="cls-11" d="m64.29 36-.88-.29-.32.45 1.2.39.45.14.84-.27-.77-.25-.52-.17z"/>
      <path id="Fill-840" class="cls-11" d="m70.65 38.06-.88-.28-.32.44 1.2.39.52.17.92.3-.51-.71-.41-.14-.52-.17z"/>
      <path id="Fill-842" class="cls-2" d="m62.92 79.63 1.37-1.88.27-.37-.84.27-1.11 1.54.31.44z"/>
      <path id="Fill-844" class="cls-2" d="m54.75 90.88-.32-.44-1.46 2-.32.44-.54.75-.11.17a4.51 4.51 0 0 1 .76-.16l.42-.58.32-.44Z"/>
      <path id="Fill-846" class="cls-2" d="m58.36 85.04-.42.57-.05.07.76-.24-.29-.4z"/>
      <path id="Fill-848" class="cls-2" d="M56.58 87.49 54.75 90l.32.44 2.02-2.78.33-.44.52-.72.27-.37-.84.27-.47.65-.32.44z"/>
      <path id="Fill-850" class="cls-2" d="m60.5 82.08-1.82 2.51.32.45 2.02-2.79.32-.44 1.27-1.74-.33-.44-1.46 2.01-.32.44z"/>
      <path id="Fill-852" class="cls-5" d="m60.13 72.67-.5-.19-1 1.3.32.45Z"/>
      <path id="Fill-854" class="cls-5" d="m79.16 46.48-.3-.47-.55.75.32.44Z"/>
      <path id="Fill-856" class="cls-5" d="m47.22 90.44.71-.97-.84.27-.19.26.32.44z"/>
      <path id="Fill-858" class="cls-5" d="m51.59 83.55-.77 1.04.33.45.44-.61.52-.72 2.17-2.99-.84.27-1.33 1.84-.52.72z"/>
      <path id="Fill-860" class="cls-5" d="m57.94 74.8-3.19 4.39.32.44 2.87-3.94.52-.72.13-.19.09-.11-.32-.44-.28.38-.14.19z"/>
      <path id="Fill-862" class="cls-5" d="m46.58 90.44-.29.39-.54.75-.52.71L43 95.41l.13.17h.42l1.71-2.36.52-.72 1.03-1.5.09-.12Z"/>
      <path id="Fill-864" class="cls-5" d="m50.82 85.48-.32-.44-.28.38-2.61 3.61.84-.28 2.29-3.16.08-.11z"/>
      <path id="Fill-866" class="cls-5" d="m54.15 80.02-.19.26.76-.25-.29-.4-.28.39z"/>
      <path id="Fill-868" class="cls-5" d="M73.78 53 73 54l.84-.27.44-.61.58-.79-.49-.21Z"/>
      <path id="Fill-870" class="cls-5" d="m78 47.2-.28.39-.19.26-.52.71-2.61 3.6.11.15a.13.13 0 0 1 0-.06l.37.12L77 49.45l.52-.72.71-1 .08-.11Z"/>
      <path id="Fill-872" class="cls-6" d="m74.71 41.79 1.06-1.46-.84.27-.54.75.32.44z"/>
      <path id="Fill-874" class="cls-6" d="m50.03 74.87.77-.24-.29-.4-.48.64z"/>
      <path id="Fill-876" class="cls-6" d="m64.02 56.5.32-.44.47-.65 1.72-2.36-.32-.45-1.4 1.93-.52.72-.46.64-.33.44-.76 1.05.84-.27.44-.61z"/>
      <path id="Fill-878" class="cls-6" d="m43.29 85.04.71-.98-.84.27-.19.27.32.44z"/>
      <path id="Fill-880" class="cls-6" d="m40.46 88.93.32-.44 2.19-3.01-.32-.44-2.39 3.28-.32.45-.54.75-.36.48.32.44.04-.04 1.06-1.47z"/>
      <path id="Fill-882" class="cls-6" d="m45.23 82.37.52-.72 1.15-1.58-.32-.44-.83 1.14-.52.71-1.04 1.44-.32.44-.19.26.84-.27.19-.26.52-.72z"/>
      <path id="Fill-884" class="cls-6" d="m70.14 47.2-1.04 1.43.84-.27.52-.72-.32-.44z"/>
      <path id="Fill-886" class="cls-6" d="m36.81 93.08.4.32.44-.59-.84.27z"/>
      <path id="Fill-888" class="cls-6" d="m39.04 90.88-.32-.44-1.39 1.92.83-.27.72-.98.16-.23z"/>
      <path id="Fill-890" class="cls-6" d="m52.04 72.11-.32.44-.13.19-.76 1.04.32.44.44-.6.52-.72.13-.18.32-.44 2.19-3.02-.32-.44-2.32 3.2-.07.09z"/>
      <path id="Fill-892" class="cls-6" d="m47.8 77.95-.9 1.24.32.44 1.09-1.51.32-.44 1.72-2.37-.84.28-1.39 1.92-.32.44z"/>
      <path id="Fill-894" class="cls-6" d="m55.87 66.84-.22.3-.9 1.24.32.44 1.1-1.51.32-.44.22-.3-.84.27z"/>
      <path id="Fill-896" class="cls-6" d="m67.43 50.93-.9 1.23.32.44 1.1-1.5.32-.44 1.15-1.58-.84.27-.83 1.14-.32.44z"/>
      <path id="Fill-898" class="cls-6" d="m71.36 45.52-.19.26-.52.72-.19.26.32.44.39-.54.71-.97.32-.44 2.19-3.02-.32-.44-2.39 3.29-.32.44z"/>
      <path id="Fill-900" class="cls-6" d="m76.29 39.62.71-1 .52-.72.12-.16-.27-.51-.37.51-1.39 1.92-.16.21Z"/>
      <path id="Fill-902" class="cls-7" d="m66.21 41.79-.89 1.23-.15.21.84-.27.52-.73-.32-.44z"/>
      <path id="Fill-904" class="cls-7" d="m62.61 46.76.32.44 1.36-1.88.52-.72.68-.93-.84.27-.36.5-1.68 2.32z"/>
      <path id="Fill-906" class="cls-7" d="m75.45 30-.33-.43-3.6 4.95.84-.27Z"/>
      <path id="Fill-908" class="cls-7" d="m33.72 87.4-.84.27-.36.49-3.63 5a2.25 2.25 0 0 1 .57 0l3-4.19.52-.72Z"/>
      <path id="Fill-910" class="cls-7" d="m46.11 69.47.76-.25-.29-.4-.47.65z"/>
      <path id="Fill-912" class="cls-7" d="m57.47 53.83-.32.44-2.4 3.3.32.44 2.6-3.57.32-.44.47-.65.22-.3-.28-.39-.1.03-.36.49-.47.65z"/>
      <path id="Fill-914" class="cls-7" d="m59.13 52.42-.22.07.09.11.13-.18z"/>
      <path id="Fill-916" class="cls-7" d="m35.12 85.48-.32-.44-.89 1.22-.32.44-.19.26.83-.27.19-.26.7-.95z"/>
      <path id="Fill-918" class="cls-7" d="m39.36 79.63.04-.05.67-.92-.84.27-.19.26.32.44z"/>
      <path id="Fill-920" class="cls-7" d="m45.23 70.67-2.26 3.11.32.45 1.94-2.67.52-.72.13-.19.33-.44.21-.3-.83.27-.22.3-.14.19z"/>
      <path id="Fill-922" class="cls-7" d="m51.94 61.44-.35.48-.77 1.05.32.44.45-.6.52-.72.67-.93-.84.28z"/>
      <path id="Fill-924" class="cls-7" d="m71 35.2-.35.49-.19.26.32.44.39-.54.67-.93-.84.28z"/>
      <path id="Fill-926" class="cls-7" d="m38.35 81.02.52-.72.17-.23-.32-.44-.89 1.22-.32.45-2.39 3.29.32.45 2.59-3.58.32-.44z"/>
      <path id="Fill-928" class="cls-7" d="m42.28 75.62.69-.95-.32-.45-.89 1.23-.32.44-1.69 2.33.84-.28 1.37-1.88.32-.44z"/>
      <path id="Fill-930" class="cls-7" d="m49.3 65.08-2.4 3.3.32.44 2.59-3.57.32-.44.69-.96-.32-.44-.88 1.23-.32.44z"/>
      <path id="Fill-932" class="cls-7" d="m54.06 59.4.69-.95-.32-.44-.89 1.22-.32.44-.76 1.05.84-.27.44-.61.32-.44z"/>
      <path id="Fill-934" class="cls-7" d="m61.92 48.59.69-.95-.32-.44-.89 1.22-.32.44-2.27 3.12.85-.28 1.93-2.67.33-.44z"/>
      <path id="Fill-936" class="cls-7" d="m68.93 38.05-2.4 3.3.32.44 2.6-3.57.32-.44.69-.95-.32-.44-.89 1.22-.32.44z"/>
      <path id="Fill-938" class="cls-8" d="m30.87 79.63-1.4 1.93.84-.28.88-1.21-.32-.44z"/>
      <path id="Fill-940" class="cls-8" d="m62.29 36.39-1.05 1.43.84-.27.53-.72-.32-.44z"/>
      <path id="Fill-942" class="cls-8" d="m66.85 30.98 1.07-1.46-.84.27-.55.75.32.44z"/>
      <path id="Fill-944" class="cls-8" d="m55.21 47.01-.22.07.08.12.14-.19z"/>
      <path id="Fill-946" class="cls-8" d="m26.17 87 .52-.72 1.06-1.46.32-.44L29.79 82l-.84.27-1.4 1.92-.32.45-.54.74-.52.72-3 4.15h.14L24 90Z"/>
      <path id="Fill-948" class="cls-8" d="m71.17 24.16-.52.72-3.06 4.2.85-.28 2.21-3.04.52-.72 3.87-5.33-.84.27-3.03 4.18z"/>
      <path id="Fill-950" class="cls-8" d="m42.18 64.06.76-.25-.29-.4-.47.65z"/>
      <path id="Fill-952" class="cls-8" d="M76 18.46a2.73 2.73 0 0 0-.33-.43l-.9 1.24.84-.28Z"/>
      <path id="Fill-954" class="cls-8" d="m50.5 52.6-1.97 2.72.84-.28 1.45-2-.32-.44z"/>
      <path id="Fill-956" class="cls-8" d="m39.04 69.26-.32-.44-2.9 3.99.84-.27 2.22-3.05.16-.23z"/>
      <path id="Fill-958" class="cls-8" d="m39.33 67.98-.29.4.32.44.04-.05.13-.18.32-.44 2.65-3.65-.84.28-2.26 3.11-.07.09z"/>
      <path id="Fill-960" class="cls-8" d="m51.59 51.11-.47.65-.3.4.33.44.16-.23.32-.44.48-.65 2.64-3.64-.28-.39-.1.03-2.26 3.12-.52.71z"/>
      <path id="Fill-962" class="cls-8" d="m58.46 42.53.22-.3-.32-.44-.42.58-2.9 3.99-.15.21.84-.27 2.21-3.05.52-.72z"/>
      <path id="Fill-964" class="cls-8" d="m32 78.96.52-.73.52-.71 2.08-2.85-.33-.44-1.75 2.41-.52.71-1.04 1.44-.29.4.32.44.17-.23.32-.44z"/>
      <path id="Fill-966" class="cls-8" d="m35.43 74.23.17-.24.32-.44.22-.3-.84.27-.18.26.31.45z"/>
      <path id="Fill-968" class="cls-8" d="m43.78 62.74 1.45-2 .52-.71 1.15-1.58-.32-.44-.83 1.13-.52.72-1.97 2.71-.29.4.32.44.17-.23.32-.44z"/>
      <path id="Fill-970" class="cls-8" d="m46.9 57.57.32.44.16-.23.33-.44 1.14-1.58-.84.27-.82 1.14-.29.4z"/>
      <path id="Fill-972" class="cls-8" d="m58.68 41.35.32.44.17-.23.32-.44 2.07-2.85-.84.27-1.75 2.41-.29.4z"/>
      <path id="Fill-974" class="cls-8" d="m63.41 35.71.88-1.2.52-.72 1.72-2.37-.32-.44-1.4 1.93-.52.71-1.39 1.93-.29.4.32.44.16-.23.32-.45z"/>
      <path id="Fill-976" class="cls-9" d="m21.4 82.74.32-.44 3.6-4.97.32-.44.22-.3-.84.27-.22.31-3.6 4.96-.32.44-1.69 2.32.84-.27 1.37-1.88z"/>
      <path id="Fill-978" class="cls-9" d="m62.92 25.58 1.37-1.88.47-.65-.84.27-1.31 1.82.31.44z"/>
      <path id="Fill-980" class="cls-9" d="m27.26 74.67-.32-.44-.25.34-.52.72-.63.86.84-.27.31-.43.57-.78z"/>
      <path id="Fill-982" class="cls-9" d="m52.81 39.5.32-.45 1.62-2.22-.32-.44-1.81 2.5-.33.44-.18.26-.52.71-.63.86.84-.27.31-.42.7-.97z"/>
      <path id="Fill-984" class="cls-9" d="m46.9 47.64-.32-.44-.83 1.13-.52.72-.47.65-.16.21.84-.27.31-.42 1.15-1.58z"/>
      <path id="Fill-986" class="cls-9" d="m62.29 25.58-3.61 4.96.32.44 3.61-4.96-.32-.44z"/>
      <path id="Fill-988" class="cls-9" d="m41.03 55.71.32-.44 1.62-2.22-.32-.45-1.82 2.5-.32.44-1.11 1.54-.36.49.32.44.04-.05 1.63-2.25z"/>
      <path id="Fill-990" class="cls-9" d="m31.51 68.82.71-.98-.84.28-.19.26.32.44z"/>
      <path id="Fill-992" class="cls-9" d="m38.72 58.01-.47.65.76-.25-.29-.4z"/>
      <path id="Fill-994" class="cls-9" d="m33.18 66.52.32-.44 1.61-2.23-.32-.44-1.75 2.42-.06.08-.32.45-.14.18-.62.86.84-.27.3-.42.14-.19z"/>
      <path id="Fill-996" class="cls-9" d="m14.73 91 .56.11 4.22-5.8-.84.27Z"/>
      <path id="Fill-998" class="cls-9" d="m51.28 41.61-.22.07.08.11.14-.18z"/>
      <path id="Fill-1000" class="cls-9" d="m58.68 31.42-.32-.44-.42.58-.63.86.84-.27.31-.42.22-.31z"/>
      <path id="Fill-1002" class="cls-9" d="m43.29 52.6 1.64-2.25-.84.28-1.12 1.53.32.44z"/>
      <path id="Fill-1004" class="cls-9" d="m71.68 12.65-.11.15.26-.09-.15-.06"/>
      <path id="Fill-1006" class="cls-9" d="m71.05 13.51-.4.56-5.84 8.02-.37.52.84-.28 5.37-7.38.52-.72.72-.99-.84.27z"/>
      <path id="Fill-1008" class="cls-9" d="m29.57 71.49 1.62-2.23-.32-.44-1.82 2.5-.32.44-1.47 2.02.32.44 1.67-2.29.32-.44z"/>
      <path id="Fill-1010" class="cls-9" d="m36.59 60.95-1.47 2.02.32.44 1.67-2.29.32-.44 1.14-1.58-.84.27-.82 1.14-.32.44z"/>
      <path id="Fill-1012" class="cls-9" d="m48.37 44.73-1.47 2.03.32.44 1.67-2.3.32-.44 1.61-2.23-.28-.38-.1.03-1.75 2.41-.32.44z"/>
      <path id="Fill-1014" class="cls-9" d="m56.22 33.92-1.47 2.03.32.44 1.67-2.3.32-.44.57-.79-.83.27-.26.35-.32.44z"/>
      <path id="Fill-1016" class="cls-10" d="m34.48 53.04-.16.21.77-.25-.3-.4-.31.44z"/>
      <path id="Fill-1018" class="cls-10" d="m27.58 63.41.71-.97-.84.27-.19.26.32.44z"/>
      <path id="Fill-1020" class="cls-10" d="m47.35 36.2-.22.07.09.12.13-.19z"/>
      <path id="Fill-1022" class="cls-10" d="m64.29 12.88.52-.71 4.74-6.52a1.24 1.24 0 0 0-.31-.26h-.11l-4.32 5.94-.52.72-3 4.14.84-.28Z"/>
      <path id="Fill-1024" class="cls-10" d="M21.1 71.46 19 74.38c0 .1-.09.19-.13.29l.44.15 2.64-3.63Z"/>
      <path id="Fill-1026" class="cls-10" d="m54.16 25.95.44-.14-.17-.23-.27.37z"/>
      <path id="Fill-1028" class="cls-10" d="m22.89 69.86.32-.44.12-.16-.32-.44-.31.43-.32.44-.77 1.05.84-.27.44-.61z"/>
      <path id="Fill-1030" class="cls-10" d="m59 20.17 2.61-3.59-.84.27-2.09 2.88.32.44z"/>
      <path id="Fill-1032" class="cls-10" d="m26.69 64.64.13-.18.32-.44.12-.16-.32-.45-.25.35-.07.09-.32.44-.13.19-2.84 3.9.32.44 2.52-3.46.52-.72z"/>
      <path id="Fill-1034" class="cls-10" d="m32.52 55.73-1.33 1.84.32.44 1.01-1.4.52-.71 1.6-2.21-.84.28-.76 1.04-.52.72z"/>
      <path id="Fill-1036" class="cls-10" d="m39.04 46.76.32.44.04-.05 1.6-2.2-.84.27-.76 1.05-.36.49z"/>
      <path id="Fill-1038" class="cls-10" d="m51.59 29.49-.77 1.05.33.44.44-.6.52-.72 2.37-3.27-.84.27-1.53 2.12-.52.71z"/>
      <path id="Fill-1040" class="cls-10" d="m58.46 20.91.22-.3-.32-.44-.42.58-3.19 4.39.32.44 2.87-3.95.52-.72z"/>
      <path id="Fill-1042" class="cls-10" d="m31.07 58.61.12-.16-.32-.44-.32.43-.32.44L27.97 62l.84-.28 1.94-2.67.32-.44z"/>
      <path id="Fill-1044" class="cls-10" d="m38.92 47.8.12-.16-.32-.44-.32.43-.32.44-2.97 4.09.33.44 3.16-4.36.32-.44z"/>
      <path id="Fill-1046" class="cls-10" d="m42.85 42.4.12-.17-.32-.44-.32.44-.32.44-1.33 1.84.84-.28 1.01-1.39.32-.44z"/>
      <path id="Fill-1048" class="cls-10" d="m45.94 37.26-.19.26-.52.72-2.26 3.11.32.44 1.94-2.67.52-.71.71-.98.32-.44.12-.16-.28-.39-.11.03-.25.35-.32.44z"/>
      <path id="Fill-1050" class="cls-10" d="m50.71 31.58.11-.16-.32-.44-.31.44-.32.44-2.84 3.9.84-.27 2.52-3.46.32-.45z"/>
      <path id="Fill-1052" class="cls-11" d="m30.4 47.85.76-.25-.29-.4-.47.65z"/>
      <path id="Fill-1054" class="cls-11" d="m40.1 35.37.32-.45 2.55-3.5-.32-.44-2.74 3.78-.32.44-.19.26-.36.49.32.44.04-.05.7-.97z"/>
      <path id="Fill-1056" class="cls-11" d="m47.22 25.58 3.6-4.97-.31-.43-.02.01-3.59 4.95.32.44z"/>
      <path id="Fill-1058" class="cls-11" d="m43.29 30.98.74-1.02.17-.23-.84.27-.39.54.32.44z"/>
      <path id="Fill-1060" class="cls-11" d="m19.09 63.41-1.4 1.93.84-.28.88-1.21-.32-.44z"/>
      <path id="Fill-1062" class="cls-11" d="m57.94 10.82.34-.47a6.13 6.13 0 0 1-.62 0l-2.91 4 .32.44Z"/>
      <path id="Fill-1064" class="cls-11" d="m23.65 58.01.71-.98-.84.28-.19.26.32.44z"/>
      <path id="Fill-1066" class="cls-11" d="m51.33 19.92-.3.1.12.15.18-.25z"/>
      <path id="Fill-1068" class="cls-11" d="m18 65.78-.84.27-.83 1.14-.32.44L13.57 71l.43.29 2.54-3.5.32-.44Z"/>
      <path id="Fill-1070" class="cls-11" d="m26.69 53.83.57-.78-.32-.45-.25.35-.52.72-1.97 2.71-.16.21.84-.27 1.29-1.77.52-.72z"/>
      <path id="Fill-1072" class="cls-11" d="m39.04 36.83-.32-.44-1.97 2.71.84-.27 1.29-1.77.16-.23z"/>
      <path id="Fill-1074" class="cls-11" d="m45.75 27.59 1.15-1.57-.32-.44-.83 1.13-.52.72-1.35 1.86.84-.27.51-.71.52-.72z"/>
      <path id="Fill-1076" class="cls-11" d="m51.85 19.2.26-.35 2.64-3.64-.32-.44-2.32 3.2-.53.71-.57.8.84-.28z"/>
      <path id="Fill-1078" class="cls-11" d="m20.79 61.95 2.54-3.5-.32-.44-2.74 3.77-.32.45-.54.74.32.44.74-1.02.32-.44z"/>
      <path id="Fill-1080" class="cls-11" d="m27.8 51.41-.54.75.32.44.74-1.02.32-.44 2.08-2.85-.84.27-1.76 2.41-.32.44z"/>
      <path id="Fill-1082" class="cls-11" d="m32.57 45.74.47-.65 2.08-2.86-.32-.44-1.76 2.41-.52.72-.47.65-.32.44-.54.75.32.44.74-1.02.32-.44z"/>
      <path id="Fill-1084" class="cls-11" d="m35.66 40.6-.54.75.32.44.74-1.02.32-.44.57-.79-.84.27-.25.35-.32.44z"/>
      <path id="Fill-1086" class="cls-3" d="m74.71 41.79-.32-.44-.34-.46-.52.17.54.73.32.44 2.61 3.6.14.19.52-.17-.14-.18-.52-.72-2.29-3.16z"/>
      <path id="Fill-1088" class="cls-3" d="m56.55 17.68.51-.17-2-2.74-.32-.45-1.5-2.06a3 3 0 0 1-.41.32l1.59 2.19.32.44Z"/>
      <path id="Fill-1090" class="cls-3" d="m58.36 20.17.32.44 2.27 3.13.52-.17-2.47-3.4-.32-.44-.22-.3-.52-.72-.56-.76-.51.17 1.07 1.47.42.58z"/>
      <path id="Fill-1092" class="cls-3" d="m77.46 46.46.06.09.41.56.06.09.32.44.14.19 2 2.69a2.15 2.15 0 0 0 .12-.73l-1.28-1.69-.52-.72-.14-.18-.32-.44-.31-.47Z"/>
      <path id="Fill-1094" class="cls-3" d="m70.46 35.95-.34-.47-.51.17.53.74.32.44.19.26.52.72.41.56.52.71 1.11 1.54.52-.17-.79-1.1-.52-.71-1.25-1.72-.39-.53-.32-.44z"/>
      <path id="Fill-1096" class="cls-3" d="m66.53 31.42 2.75 3.79.52-.17-2.95-4.06-.32-.44-.33-.46-.52.17.53.73.32.44z"/>
      <path id="Fill-1098" class="cls-3" d="m62.61 26.02 1.68 2.32.52.72.55.74.52-.16-1.07-1.46-.52-.72-1.37-1.88-.31-.44-.82-1.12-.52.16 1.02 1.4.32.44z"/>
      <path id="Fill-1100" class="cls-4" d="m51.59 21.66.52.72 2.32 3.2.17.22.52-.16-.05-.06-.32-.44-2.64-3.65-.52-.71-.44-.61-.12-.15-.52.16.31.43.77 1.05z"/>
      <path id="Fill-1102" class="cls-4" d="m39.4 4-.52-.72L36.59.15l-.45.25 2.74 3.77.52.71 2.12 2.92.32-.44L39.4 4z"/>
      <path id="Fill-1104" class="cls-4" d="m45.23 12.91.52.72.49.68.32-.44-.81-1.12-.52-.72-3.07-4.23-.32.44 3.39 4.67z"/>
      <path id="Fill-1106" class="cls-4" d="m50.19 19.74.52-.17-3.83-5.26-.32.44 3.63 4.99z"/>
      <path id="Fill-1108" class="cls-4" d="m58.36 30.98.32.44.32.45.52-.17-.52-.72-.32-.44-.22-.3-.52-.72-2.5-3.44-.52.17 3.02 4.15.42.58z"/>
      <path id="Fill-1110" class="cls-4" d="m64.81 39.87 1.4 1.92.32.44.33.45.52-.17-.53-.72-.32-.44-1.72-2.36-.52-.72-.52-.72-.52.17 1.04 1.43.52.72z"/>
      <path id="Fill-1112" class="cls-4" d="m68.17 44.49 1.97 2.71.32.44.19.26.14.19.51-.17-.13-.19-.39-.53-.32-.44-1.45-2-.52-.72-.79-1.09-.52.17.47.65.52.72z"/>
      <path id="Fill-1114" class="cls-4" d="m61.81 35.74.48.65.32.44.32.44.52-.16-.53-.72-.31-.44-.48-.65-2.29-3.16-.51.17 1.97 2.71.51.72z"/>
      <path id="Fill-1116" class="cls-2" d="M69.2 55.83"/>
      <path id="Fill-1118" class="cls-2" d="m44.36 21.64-1.4-1.93-.32.44 1.2 1.66.52-.17z"/>
      <path id="Fill-1120" class="cls-2" d="m68.88 55.39-2.02-2.79-.33-.44-1.26-1.74-.52.17.06.09 1.4 1.92 2.15 2.96"/>
      <path id="Fill-1122" class="cls-2" d="m70.94 58.24-2.02-2.78-.32-.44-1.27-1.74-.52.17.07.08 1.4 1.93 2.14 2.95"/>
      <path id="Fill-1124" class="cls-2" d="m39.4 15.69 2.92 4.02.32-.44-3.24-4.46-.52-.72-.65-.88-.32.44.97 1.33.52.71z"/>
      <path id="Fill-1126" class="cls-2" d="m45.75 24.44.83 1.14.32.44 1.34 1.85.52-.17-1.54-2.12-.32-.44-1.15-1.58-.52-.72-.55-.76-.52.17 1.07 1.47.52.72z"/>
      <path id="Fill-1128" class="cls-2" d="m57.89 41.15.05.07.42.57.32.44 1.82 2.52.52-.17L59 41.79l-.32-.44-.47-.65-.27-.37-.53-.72-.51.17.47.65.52.72z"/>
      <path id="Fill-1130" class="cls-2" d="m62.61 47.64 1.11 1.54.52.71.05.07.14.19.52-.17-.39-.53-.27-.37-1.36-1.88-.32-.44-1.27-1.74-.51.17 1.46 2.01.32.44z"/>
      <path id="Fill-1132" class="cls-2" d="m54.75 36.83 1.83 2.51.51-.17-2.02-2.78-.32-.44-1.26-1.74-.52.17 1.46 2.01.32.44z"/>
      <path id="Fill-1134" class="cls-2" d="m50.82 31.42.19.26.52.72.06.07.52.72.54.75.52-.17-.8-1.1-.52-.71-.26-.37-.45-.61-.32-.44-1.74-2.4-.52.17 1.94 2.67.32.44z"/>
      <path id="Fill-1136" class="cls-5" d="m47.09 37.09.51.71 2.62 3.6.52-.16-2.3-3.16-.52-.72-.7-.97-.09-.12-.51.17.28.39.19.26z"/>
      <path id="Fill-1138" class="cls-5" d="m51.59 43.28.52.72 1.33 1.84.52.71.19.26.52-.17-.39-.53-2.17-2.99-.52-.72-.44-.61-.09-.11-.52.17.28.38.77 1.05z"/>
      <path id="Fill-1140" class="cls-5" d="m37.8 24.31.59.81.32-.44-.39-.54-.52.17z"/>
      <path id="Fill-1142" class="cls-5" d="m59 52.6-.09-.11-.51.17.28.39 1.11 1.53.52.72 1.53 2.09a3 3 0 0 1 .59-.06l-1.28-1.76-.52-.71Z"/>
      <path id="Fill-1144" class="cls-5" d="m61.47 56-.08-.12-.52.17.28.39L62.27 58l.52.71 1.52 2.09a3.05 3.05 0 0 1 .6-.06L63.63 59l-.52-.71Z"/>
      <path id="Fill-1146" class="cls-5" d="m33.66 18.62.32-.45-.98-1.29-.52-.72-2.21-3h-.67l2.88 4 .52.72Z"/>
      <path id="Fill-1148" class="cls-5" d="m38 23.7-3.7-5.08-.32.44 3.5 4.81.52-.17z"/>
      <path id="Fill-1150" class="cls-5" d="m57.94 52.03.14.19.51-.17-.13-.19-.52-.71-2.87-3.95-.08-.12-.52.17.28.39 3.19 4.39z"/>
      <path id="Fill-1152" class="cls-5" d="m39.4 26.51 1.33 1.83.52.72.64.88.52-.17-.32-.44-.52-.71-2.17-3-.37-.5-.32.44.17.23.52.72z"/>
      <path id="Fill-1154" class="cls-5" d="m42.97 31.42 2.26 3.11.52.72.54.75.52-.17-1.06-1.46-.52-.72-1.94-2.67-.32-.44-.24-.33-.52.17.44.6.32.44z"/>
      <path id="Fill-1156" class="cls-6" d="m54.43 58.01.32.44.9 1.24.52-.17-1.1-1.51-.32-.44-2.19-3.02-.52.17.07.09 2.32 3.2z"/>
      <path id="Fill-1158" class="cls-6" d="m57.67 61.55-.32-.44-2.19-3.02-.52.17.06.09 2.32 3.2.16.21.52-.16-.03-.05z"/>
      <path id="Fill-1160" class="cls-6" d="m36.05 31.83-.95-1.31-.32.44.75 1.04.52-.17z"/>
      <path id="Fill-1162" class="cls-6" d="m26.69 18.94-.52-.72-.79-1.08-.28.5 1.07 1.47.52.71 3.05 4.2.32-.44-3.37-4.64z"/>
      <path id="Fill-1164" class="cls-6" d="m32.52 26.97-.55-.76-.52.17 1.07 1.47.52.72 1.42 1.95.32-.44-1.74-2.39-.52-.72z"/>
      <path id="Fill-1166" class="cls-6" d="m45.75 46.06.83 1.14.32.44.9 1.24.51-.17-1.09-1.51-.32-.44-1.15-1.58-.52-.72-.52-.72-.52.17 1.04 1.43.52.72z"/>
      <path id="Fill-1168" class="cls-6" d="m50.03 51.96.47.64.32.44.77 1.05.13.19.52-.17-.13-.18-.52-.72-.45-.61-.32-.44-.47-.65-1.72-2.36-.51.17 1.39 1.92.52.72z"/>
      <path id="Fill-1170" class="cls-6" d="m37.32 34.46 1.4 1.93.32.44.36.48.54.75.52-.16-1.06-1.47-.04-.04-.32-.44-.16-.23-.72-.98-.52-.72-1.27-1.75-.52.17.95 1.31.52.71z"/>
      <path id="Fill-1172" class="cls-6" d="m30.97 25.72.16.22.52-.17-.36-.5-.91-1.25-.32.44.39.54.52.72z"/>
      <path id="Fill-1174" class="cls-6" d="m42.97 42.23.19.26.52.72.19.26.51-.17-.38-.53-.71-.98-.32-.44-2.19-3.01-.52.17 2.39 3.28.32.44z"/>
      <path id="Fill-1176" class="cls-7" d="m29.5 34.51 1.04 1.42.32-.44-.84-1.15-.52.17z"/>
      <path id="Fill-1178" class="cls-7" d="m25.09 28.44.72.99.32-.45-.52-.71-.52.17z"/>
      <path id="Fill-1180" class="cls-7" d="m64.81 82.23-.52-.72-1.37-1.88-.31-.44-.69-.95-.52.17.89 1.22.32.44 1.68 2.32.36.5.35.48.52-.17-.03-.04-.68-.93z"/>
      <path id="Fill-1182" class="cls-7" d="m54.06 67.43-.52.17.89 1.22.32.44 2.4 3.3.52-.17-2.6-3.57-.32-.44-.69-.95z"/>
      <path id="Fill-1184" class="cls-7" d="m51.14 63.41-.32-.44-.69-.95-.51.17.88 1.22.32.44.76 1.05.36.49.52.72.76 1.05.52-.17-.44-.61-.52-.71-.67-.93-.53-.72-.44-.61z"/>
      <path id="Fill-1186" class="cls-7" d="m21 21.93-4.79-6.58a.65.65 0 0 0-.15.36 1.27 1.27 0 0 0 0 .34l4.08 5.61.52.72L24.77 28l.52-.17-3.76-5.18Z"/>
      <path id="Fill-1188" class="cls-7" d="m26.52 30.41.52.71 2.14 2.94.52-.16-1.82-2.51-.52-.71-.67-.93-.24-.32-.32.44.04.05.35.49z"/>
      <path id="Fill-1190" class="cls-7" d="m32.88 39.16.52.71.18.26.52-.17-.38-.53-.68-.93-.52-.72-1.34-1.85-.32.44 1.66 2.29.36.5z"/>
      <path id="Fill-1192" class="cls-7" d="m57.47 73 .47.65.36.49.06.09.32.44.13.18 2.27 3.12.51-.17-1.94-2.67-.52-.72-.13-.18-.32-.45-.22-.3-.47-.65-.52.17z"/>
      <path id="Fill-1194" class="cls-7" d="m46.1 57.36.48.65.32.44 2.39 3.3.52-.17-2.59-3.57-.32-.44-.48-.65-.21-.3-.52.17.41.57z"/>
      <path id="Fill-1196" class="cls-7" d="m42.97 53.05 2.26 3.11.14.18.51-.17-.13-.18-.52-.72-1.94-2.67-.32-.44-.69-.95-.52.17.89 1.22.32.45z"/>
      <path id="Fill-1198" class="cls-7" d="m39.04 47.64.19.26.52.72 1.69 2.32.52-.17-1.37-1.88-.52-.72-.67-.93-.04-.04-.32-.44-.16-.23-.53-.72-.52.17.89 1.22.32.44z"/>
      <path id="Fill-1200" class="cls-7" d="m35.12 42.23 2.39 3.3.52-.16-2.59-3.58-.32-.44-.7-.95-.51.17.89 1.22.32.44z"/>
      <path id="Fill-1202" class="cls-8" d="m41.66 62.05.52.72.47.64.29.4.52-.16-.17-.24-.32-.44-.47-.64-2.65-3.65-.52.17.07.09 2.26 3.11z"/>
      <path id="Fill-1204" class="cls-8" d="m60.33 87.75.51-.18-1.35-1.86-.52.17Z"/>
      <path id="Fill-1206" class="cls-8" d="m17.6 28.06-.52-.72-1.92-2.64a4.32 4.32 0 0 1-.39.34l1.47 2 .52.71 1.66 2.29.52-.17Z"/>
      <path id="Fill-1208" class="cls-8" d="m18.74 30.51 3.14 4.32.32-.44-2.94-4.05-.52.17z"/>
      <path id="Fill-1210" class="cls-8" d="m27.75 42.02-.5-.68-.32.43.3.42.52-.17z"/>
      <path id="Fill-1212" class="cls-8" d="m38.72 58.01.29.4.52-.17-.13-.19-.04-.04-.32-.44-.17-.23-2.21-3.05-.52-.71-.22-.3-.51.17.41.57 2.9 3.99z"/>
      <path id="Fill-1214" class="cls-8" d="m26.17 39.85-2.22-3.05-.28-.4-.52.17 3.02 4.16.44.61.32-.45-.24-.33-.52-.71z"/>
      <path id="Fill-1216" class="cls-8" d="m33.04 50.19 1.76 2.41.29.4.51-.16-.16-.24-.32-.44-2.08-2.85-.52-.72-.52-.72-.52.17 1.04 1.44.52.71z"/>
      <path id="Fill-1218" class="cls-8" d="m45.75 67.68.83 1.14.29.4.52-.17-.17-.23-.32-.44-1.15-1.58-.52-.72-1.45-1.99-.52.17 1.97 2.71.52.71z"/>
      <path id="Fill-1220" class="cls-8" d="m52.11 76.43 2.26 3.12.06.08.29.4.52-.17-.03-.04-.14-.19-.32-.44-2.64-3.64-.48-.65-.51.17.47.64.52.72z"/>
      <path id="Fill-1222" class="cls-8" d="m58.36 85.04.29.4.52-.17-.17-.23-.32-.45-.22-.3-.52-.71-2.21-3.05-.17-.22-.52.16 2.9 3.99.42.58z"/>
      <path id="Fill-1224" class="cls-8" d="m48.53 71.51 1.98 2.72.29.4.51-.17-.16-.23-.32-.45-1.46-1.99-.52-.72-1.14-1.58-.52.17.82 1.14.52.71z"/>
      <path id="Fill-1226" class="cls-8" d="m29.47 45.27 1.4 1.93.29.4.52-.17-.17-.23-.32-.44-.88-1.21-.52-.72-1.72-2.36-.52.16 1.4 1.93.52.71z"/>
      <path id="Fill-1228" class="cls-8" d="m22.83 36.13.51-.17-.82-1.13-.32.44.4.54.23.32z"/>
      <g class="cls-12">
        <path id="Fill-1230" class="cls-9" d="m58.46 95.11-.31-.43-.52-.68-.57-.79-.52.17.25.35.52.71.63.86.42.58.32.44.2.28a1 1 0 0 0 .31.11 1.3 1.3 0 0 0 .38-.05l-.57-.81-.32-.44Z"/>
      </g>
      <path id="Fill-1233" class="cls-9" d="m13.67 33.46-.52-.71-.25-.35-.4.14-.07.1.4.55 3.64 5L17 38Z"/>
      <path id="Fill-1235" class="cls-9" d="m34.8 63.41.32.44 1.47 2.03.51-.17-1.66-2.3-.32-.44-1.62-2.22-.52.17.06.08 1.76 2.41z"/>
      <path id="Fill-1237" class="cls-9" d="m16.79 38.64 1.16 1.6.32-.44-.96-1.33-.52.17z"/>
      <path id="Fill-1239" class="cls-9" d="m25.32 49.49-2-2.75-.32.44 1.8 2.48.52-.17z"/>
      <path id="Fill-1241" class="cls-9" d="m21.2 44.7 1.48 2.04.32-.44-1.28-1.77-.52.17z"/>
      <path id="Fill-1243" class="cls-9" d="m26.17 51.54.52.72.25.34.32.45 1.47 2.02.52-.17-1.67-2.3-.32-.44-.57-.78-.31-.43-.52-.71-.22-.3-.51.16.41.58.63.86z"/>
      <path id="Fill-1245" class="cls-9" d="m45.75 78.5.83 1.13.32.44 1.47 2.03.52-.17-1.67-2.3-.32-.44-1.15-1.58-.3-.42-.17-.23-.52.17.47.65.52.72z"/>
      <path id="Fill-1247" class="cls-9" d="m50.5 85.04.32.44.14.19.62.86.53.71.19.26.51-.17-.7-.97-.31-.42-.52-.72-.14-.18-.32-.45-1.61-2.22-.52.17 1.75 2.41.06.09z"/>
      <path id="Fill-1249" class="cls-9" d="m38.25 68.17.47.65.32.44.36.49 1.11 1.53.52-.16-1.63-2.25-.04-.05-.32-.44-.47-.65-1.15-1.58-.51.17.82 1.14.52.71z"/>
      <path id="Fill-1251" class="cls-9" d="m19.19 41.93 1.69 2.33.51-.17-1.36-1.88-.52-.72-.92-1.25-.32.44.4.54.52.71z"/>
      <path id="Fill-1253" class="cls-9" d="m54.75 90.88 1.47 2.03.52-.17-1.67-2.3-.32-.44-1.62-2.22-.51.16 1.81 2.5.32.44z"/>
      <path id="Fill-1255" class="cls-9" d="m42.97 74.67 1.12 1.53.35.49.52-.17-.04-.04-1.63-2.25-.32-.45-1.62-2.22-.52.17 1.82 2.5.32.44z"/>
      <path id="Fill-1257" class="cls-9" d="m31.19 58.45.19.26.51.71.63.87.14.18.52-.17-.14-.18-.31-.42-.51-.72-.71-.97-.32-.44-1.62-2.23-.52.17 1.82 2.5.32.44z"/>
      <path id="Fill-1259" class="cls-10" d="m15.04 46.16-.37-.52-.32.45.17.23.52-.16z"/>
      <path id="Fill-1261" class="cls-10" d="m26.94 63.41.32.44.19.27.52.71 2.26 3.11.52-.16-1.94-2.68-.52-.71-.71-.98-.32-.44-.12-.16-.52.17.07.09.25.34z"/>
      <path id="Fill-1263" class="cls-10" d="M47.22 90.44 46.9 90l-.12-.16-.52.17.25.34.07.09.32.44.13.19 2.34 3.21a5.61 5.61 0 0 0 .59-.06l-2.09-2.88-.52-.71Z"/>
      <path id="Fill-1265" class="cls-10" d="m10.96 40.53-.52.17 3.59 4.94.32-.44-3.39-4.67z"/>
      <path id="Fill-1267" class="cls-10" d="m9.74 38.87-.52-.72-2.39-3.3a3.17 3.17 0 0 0-.61 0l2.17 3 .51.71 1.22 1.67.51-.17Z"/>
      <path id="Fill-1269" class="cls-10" d="m21.61 56.08.77 1.05.51-.16-.44-.61-.52-.72-2.54-3.49-.32.44 2.02 2.78.52.71z"/>
      <path id="Fill-1271" class="cls-10" d="m15.58 46.9-.22-.3-.52.16.42.58 3.19 4.39.52-.17-2.87-3.95-.52-.71z"/>
      <path id="Fill-1273" class="cls-10" d="m42.97 85.48 2.26 3.11.52.72.19.26.52-.17-.71-.98-.52-.71-1.94-2.67-.32-.44-.12-.17-.52.17.32.44.32.44z"/>
      <path id="Fill-1275" class="cls-10" d="m39.04 80.07.36.49.76 1.05.52.71 1.33 1.84.52-.17-1.01-1.39-.52-.72-1.6-2.2-.04-.05-.32-.44-.12-.16-.51.17.31.43.32.44z"/>
      <path id="Fill-1277" class="cls-10" d="m35.12 74.67 2.97 4.09.51-.17-3.17-4.36-.31-.45-.12-.16-.52.17.31.44.33.44z"/>
      <path id="Fill-1279" class="cls-10" d="m31.19 69.26 1.33 1.84.52.72.76 1.04.36.49.52-.17-.04-.04-1.6-2.21-.52-.71-1.01-1.4-.32-.44-.12-.16-.52.17.32.43.32.44z"/>
      <path id="Fill-1281" class="cls-10" d="m23.33 58.45 2.84 3.9.13.19.52-.17-.13-.18-.52-.72-2.52-3.46-.32-.44-.11-.16-.52.17.31.43.32.44z"/>
      <path id="Fill-1283" class="cls-11" d="m16.54 59.03-1.07-1.48-.32.44.87 1.21.52-.17z"/>
      <path id="Fill-1285" class="cls-11" d="m40.42 91.9-.51.17 2.58 3.56h.61l-.1-.22Z"/>
      <path id="Fill-1287" class="cls-11" d="m5.82 44.27-.52-.71-.42-.56c-.1.16-.18.33-.29.49L5 44l3.19 4.39.52-.17Z"/>
      <path id="Fill-1289" class="cls-11" d="m8.49 48.83 1.61 2.22.32-.44-1.41-1.95-.52.17z"/>
      <path id="Fill-1291" class="cls-11" d="m12.42 54.23 2.41 3.32.32-.44-2.22-3.05-.51.17z"/>
      <path id="Fill-1293" class="cls-11" d="m26.69 73.88.25.35.32.44.54.74.52-.16-.74-1.02-.32-.45-.57-.78-.52-.72-1.29-1.77-.17-.23-.51.17 1.97 2.71.52.72z"/>
      <path id="Fill-1295" class="cls-11" d="m33.04 82.63 1.76 2.41.32.44.54.75.52-.17-.74-1.02-.32-.45-2.08-2.85-.47-.65-.52.17.47.65.52.72z"/>
      <path id="Fill-1297" class="cls-11" d="m36.75 87.73 1.97 2.71.32.44.36.49.19.26.51-.17-.7-.97-.04-.05-.32-.44-.16-.23L37.59 88l-.52-.71-.57-.79-.52.17.25.34.52.72z"/>
      <path id="Fill-1299" class="cls-11" d="m30.4 78.98.47.65.32.44.54.75.52-.17-.74-1.02-.32-.44-.47-.65-2.08-2.85-.51.17 1.75 2.41.52.71z"/>
      <path id="Fill-1301" class="cls-11" d="m17.69 61.49 1.4 1.92.32.44.54.75.52-.17-.74-1.02-.32-.44-.88-1.21-.52-.71-1.15-1.58-.52.17.83 1.14.52.71z"/>
      <path id="Fill-1303" class="cls-11" d="m11.33 52.74.77 1.05.51-.17-.44-.6-.52-.72-.91-1.25-.32.44.39.54.52.71z"/>
      <path id="Fill-1305" class="cls-11" d="m23.33 69.26.19.26.36.49.51-.17-.03-.04-.71-.98-.32-.44-2.54-3.5-.52.17 2.74 3.77.32.44z"/>
      <path id="Fill-1307" class="cls-3" d="m8.49 48.83.51-.17 3.7-1.2.52-.72-4.53 1.48-.52.17-3.88 1.26.22.47.22-.07Z"/>
      <path id="Fill-1309" class="cls-3" d="m68.44 28.81-.84.27-1.72.56-.52.17-.54.17-.53.17-4.77 1.55-.52.17-.54.18-.31.1-.83.27-2 .66-.84.27-1.28.42-.52.16-.54.18-.53.17-3.71 1.21-.84.27-.22.07-.52.17-.54.18-.52.17-.22.07-.84.27-3.74 1.21-.52.16-.54.18-.53.17-1.28.42-.84.27-2 .66-.63.2-.52.17-.54.18-.52.16L27.75 42l-.52.17-.54.18-.25.08-.52.72.25-.08.52-.17.86-.28.52-.17L32.52 41l.52-.17.87-.28.51-.17.31-.1.84-.27.66-.22.84-.27 1.8-.58.53-.17.86-.28.52-.17L45 37l.84-.27.66-.22h.11l.51-.17.22-.07 4.23-1.37.53-.17.86-.28.52-.17 1.8-.59.84-.27.67-.22.83-.27.31-.1.52-.17.87-.28.51-.17 4.45-1.44.53-.17.86-.28.52-.17.88-.29.83-.27 2.74-.89.52-.17 3.24-1.05a4 4 0 0 1 .43-.69l-3.67 1.2-.52.17Z"/>
      <path id="Fill-1311" class="cls-3" d="m14.84 46.77.52-.17 5.84-1.9.51-.17 2.74-.89.63-.2.52-.72-1.15.38-.84.27-2.22.72-.51.17-5.84 1.9-.52.16-.35.12-.1.03-.52.72.62-.21.67-.21z"/>
      <path id="Fill-1313" class="cls-4" d="m69.8 35-.52.17-3.7 1.21-.84.27-.45.14-.84.28-.52.17-.85.27-.84.27-2.78.91-.52.17-.85.27-.51.17-1.29.42-.84.27-2.34.76-.31.1-.84.28-.22.07-.52.16-4.47 1.46-.52.17-.23.11-.62.2-.52.17-2.35.76-.84.28-1.28.41-.53.17-.84.28-.52.16-2.78.91-.84.27L33 47l-.52.17-.84.27-.52.17-.76.25-3.71 1.2-.52.17-.85.27-.52.17-.35.12-.84.27-3.49 1.14-.52.71 4.89-1.59.67-.22.52-.16.53-.17.52-.17 3.19-1 .84-.27.76-.25.52-.17.52-.17.52-.17 1.69-.57.84-.27 2.26-.73.52-.17.52-.17.53-.17.76-.25L41 45l3.19-1 .52-.17.3-.1.84-.27 4.59-1.49h.1l.52-.17.22-.07.3-.1.53-.17 3.18-1 .84-.27.77-.25.52-.17.52-.17.52-.17 2.26-.73.84-.27 1.69-.55.52-.17.52-.17.53-.17.76-.25.84-.27 3.19-1 .51-.17.53-.17.35-.31.84-.28L77 33.25l.38-.13a.83.83 0 0 0 0-.15 2.63 2.63 0 0 0-.06-.39l-.32.12-4.64 1.51-.84.27-.35.12-.52.17Z"/>
      <path id="Fill-1315" class="cls-4" d="m6.35 56.2.52-.71-3 1-.87.24-2.88.94a2 2 0 0 0 .26.46L3.89 57l.84-.28Z"/>
      <path id="Fill-1317" class="cls-4" d="m12.93 54.06 1.24-.4.84-.27 3.72-1.21.51-.71-.27.09-.52.17-4.28 1.39-.84.27-.72.23-.52.17-4.38 1.43-.52.71 5.22-1.7.52-.17z"/>
      <path id="Fill-1319" class="cls-2" d="m3.89 63.69.84-.27 7.64-2.49.52-.71-9 2.92-.85.28.85.27z"/>
      <path id="Fill-1321" class="cls-2" d="m74.05 40.89.88-.29.84-.27h.09l.84-.33.3-.1.52-.17.58-.19a2.51 2.51 0 0 0 0-.54l-.56.19-.52.16-.71.24-.84.27L75 40l-1.29.42-.52.17-2 .66-.52.17-3.27 1.06-.52.17L66 43l-.84.27-.43.14-.45.14L61 44.58l-.52.17-2 .66-.52.17-2.22.72-.83.27-.22.07-.52.17-2 .66-.53.17-3.27 1.07-.52.16-2 .67-.31.1-.83.27-.44.14-2.27.72-.52.17-2 .66-.53.17-3.35 1.07-.51.16-.77.25-.43.14-.85.28-.52.17-3.27 1.06-.52.17-2 .66-.52.17-1.29.42-.84.27-.43.14-.72.24-.51.16L16.54 59l-.54.2-1.85.6-.44.14-.52.72 1-.31.84-.28 1.33-.43.52-.17 5.84-1.89.52-.17.3-.1.84-.27h.09l.84-.28.88-.28.52-.17 2.36-.77.52-.17 3-1 .52-.17.69-.2.84-.28h.09l.68-.22.52-.17 2.94-1 .53-.17 2.36-.77.52-.17 1.81-.58.84-.28h.08l.84-.28 2.27-.73.51-.17 2.95-1 .53-.17 2.26-.73h.1l.52-.17.22-.07h.08l.84-.27 1.81-.59.52-.16 2.36-.77.52-.17 3-1 .36-.12.84-.27h.09l.84-.27.76-.25.47-.17 3-1 .52-.17 2.36-.77Z"/>
      <path id="Fill-1323" class="cls-5" d="m6.42 69.12.12-.12"/>
      <path id="Fill-1325" class="cls-5" d="m77.66 45.85-.52.17H77l-1.14.37-.84.27-3.72 1.26-.51.16-.14.05-.71.23-.84.27-3.52 1.15L65 50l-.52.17h-.14l-4.69 1.53-.84.27-.22.08-.51.17h-.14l-2.65.86-.84.27-2.21.72-.52.17h-.14l-2.21.76-.84.28-2.64.86-.52.17h-.14l-.22.07-.84.27-4.64 1.51-.52.17-.76.25-3.52 1.22-.84.27-.71.24-.52.16-.14.05-3.71 1.2L28 62l-1.15.37-.52.17h-.13l-1.72.56-.84.28-3.14 1-.5.22-1.42.46-.84.28-3.52 1.14-.84.28-6 1.93-.38.47a3.28 3.28 0 0 1 .46 0L14.17 67l.84-.27 2.16-.71.84-.27 2.26-.73.52-.17 3.66-1.19.84-.27.88-.29.45-.15.52-.17.31-.1.84-.27 4.23-1.38.46-.14.52-.17 1.23-.4.84-.28 2.16-.7.84-.27.3-.1.46-.15.52-.17L45 57l.68-.22.52-.17L48 56l.84-.27 2.73-.89.46-.15.52-.17 2.73-.88.84-.28 1.81-.58.36-.12h.1l.51-.17.23-.07 5.15-1.68.46-.15.52-.17.31-.09.83-.28 2.17-.7.84-.27 1.23-.4.46-.15.51-.17L75.86 47l.84-.27.3-.1.46-.15.52-.17"/>
      <path id="Fill-1327" class="cls-6" d="m63.58 57.11-.84.27-.18.06c.71.68 1.27-.39 1.91-.62l-.18.06Z"/>
      <path id="Fill-1329" class="cls-7" d="m56.75 66-.36.12-1.1.35-.84.27-.71.24-.52.16-1.11.37-.53.17-4.19 1.36-.52.17-.76.25-.36.11-.52.17-.22.07-.84.28-3.14 1-.52.16-1.11.37-.53.17-2.21.72-.84.27-1.09.35-.52.17-.27.09-.85.27-.52.17-4.2 1.36-.52.17-1.11.37-.31.1-.84.27-1.09.35-.84.28-7.56 2.49-.24.07-.49.71.21-.07 8.87-2.88.57-.19.84-.27.31-.1.52-.17 1.43-.46.52-.17 3.88-1.26.52-.17 1.44-.47.52-.17.3-.1.84-.27 2.73-.89.53-.17 1.43-.46.52-.17L45 70.37l.58-.19.84-.27.76-.25.52-.17 3.87-1.26.53-.17 1.43-.46.52-.17 1.23-.4.58-.19.84-.27.22-.07c-.06-.16-.11-.33-.18-.49"/>
      <path id="Fill-1331" class="cls-8" d="m58.74 72.05-.28.09-.52.16-.27.09-.52.17-1.86.6-.84.28-2.34.76-.53.17-.27.09-.52.17-.76.24-4.28 1.39-.52.17-.23.07-.52.17-.27.09-3.58 1.16-.84.27-.35.12-.53.17-.27.09-.52.17-3.35 1.09-.84.27-.85.27-.52.17-.27.09-.52.17-1.42.46-.84.28-2.78.9-.52.17-1.72.56-.84.27L20 84.62l-.84.28-8.86 2.88-.06.57 8.43-2.74.84-.27 4.94-1.61.84-.27.88-.29.52-.17 2.31-.73.84-.27 2.26-.74.52-.17.47-.15 1.69-.55.84-.27 2.83-.92.52-.17.31-.1.84-.27 4.69-1.53.52-.17.57-.18 3.66-1.19.84-.27.77-.25.51-.17.48-.15 3.18-1 .84-.27 1.29-.48.52-.17.47-.15.94-.3a5.8 5.8 0 0 1-.66-.33"/>
      <path id="Fill-1333" class="cls-9" d="m26.17 89.86.52-.17 5.83-1.9.36-.12.84-.27 1-.33.84-.27.41-.13.52-.17 2.37-.77.53-.17 2.93-1 .52-.17.31-.1.84-.27 1-.33.84-.27 2.84-.92.52-.17 2.37-.77.53-.17 1.35-.39.84-.27.76-.25.52-.17.57-.18 1.81-.59.52-.17 2.94-1 .52-.17 1.8-.59.84-.27.19-.06-.27-.42-.2.07-2.65.86-.51.17-2.62.85-.52.17-2.65.86-.52.17-.76.25-1.85.6-.53.17-2.69.88-.52.17-2.71.92-.52.17-.22.07-.49.16-.84.27-1.15.33-.52.17-2.61.83-.53.17-2.69.88-.52.17-.93.3-.5.16-.83.32-.36.12-.52.17-5.83 1.89-.52.17"/>
      <path id="Fill-1335" class="cls-10" d="m65.57 83.19-.52.17-.27.09-.44.14-5.12 1.67-.52.17-.76.24-2.6.85-.84.27-1.64.53-.52.17-.18.06-.53.17-3.14 1-.83.27-1.15.38-.52.17-.19.06-.52.17-.22.07-.84.27-4.12 1.35-.52.17-.18.06-.53.17-.71.23-.83.27-4.33 1.4-.52.17-1.27.41.33.44.94-.31.52-.17 3.77-1.22.83-.27 1.23-.4.53-.17.51-.17.51-.17L45 90.41l.84-.27.41-.13.52-.17.31-.1.84-.27 3.65-1.19.53-.17.5-.17.52-.17 2.16-.7.84-.27 1.24-.4.84-.28.25-.08.51-.16.52-.17 4.8-1.56.52-.17.42-.14c.38-.17.8-.34 1.18-.52l-.2-.32Z"/>
      <path id="Fill-1337" class="cls-11" d="m56.74 92.74-.52.17-.93.3-.84.27-1.09.36.45.27.15.08 1.33-.44.84-.27.41-.13.52-.17.88-.29.52-.16 1.73-.57c0-.16-.09-.33-.14-.5l-1.59.52-.52.17Z"/>
      <path id="Fill-1339" class="cls-10" d="m65.28 22.33-.84.28-.15.05-2.82.91-.52.17-2.49.81-.52.17-2.82.92-.52.17-.44.14-2 .67-.53.16-2.82.92-.52.17-2.49.81-.52.17-.51.17-.84.27h-.12l-.84.27-.51.17-.52.17-2.49.81-.53.16-2.82.92-.52.17-2 .64-.52.71.43-.14.84-.27 1.53-.5.52-.17 2.5-.81.53-.17 2.81-.91.52-.17.63-.21.84-.27.4-.13.63-.2.52-.17 2.81-.92.52-.17 2.5-.81.53-.17 1.53-.5.84-.27.44-.14.52-.17 2.5-.81.52-.17 2.81-.92.52-.17 2.13-.69.84-.27 5.84-1.89.52-.17 3-1 .84-.27 1.28-.42a3 3 0 0 0-.18-.48l-.58.18-.84.28-3.55 1.15-.52.17Z"/>
      <path id="Fill-1341" class="cls-10" d="m12.91 39.9.84-.28 3-1 .52-.17 2.53-.82.52-.72L17 38l-.52.16-3.56 1.16-.84.27-1.44.47-.51.17-4.66 1.54c-.08.21-.16.42-.26.63l5.23-1.7.52-.17Z"/>
      <path id="Fill-1343" class="cls-10" d="m23.67 36.4.37-.12 2.13-.69.52-.17 2.81-.91.52-.17 2.19-.71.52-.72-.09.03-.12.04-2.82.92-.52.16-2.49.81-.52.17-2.83.92-.51.17-.47.15-1.16.38-.52.71 2.47-.8.52-.17z"/>
      <path id="Fill-1345" class="cls-7" d="m45.75 21.18-.52.17-.87.29-.52.17-3.15 1-.51.71 4-1.29.52-.17.55-.18.52-.17 4.74-1.54L51 20l.3-.09.25-.08.53-.17 4.76-1.55.52-.17.55-.18.52-.17 2.31-.75.84-.27 2.68-.87.52-.17 5.84-1.9.4-.13.84-.27.67-.22-.73-.31-.26.09-.4.13-.52.17L64.81 15l-.52.17-2.16.7-.84.28-2.83.92-.52.17-.88.28-.51.17-4.44 1.44-.26.08-.84.28-.3.09-.52.17Z"/>
      <path id="Fill-1347" class="cls-7" d="m31.97 26.21.26-.08.84-.28 4.73-1.54.52-.17.55-.18.47-.14.52-.72-.46.15-.53.17-.87.28-.52.17-4.44 1.44-.52.17-.29.1-.58.19-.52.17-2.81.91-.52.71 3.65-1.18.52-.17z"/>
      <path id="Fill-1349" class="cls-7" d="m12.9 32.4 5.84-1.89.52-.17 2.68-.87.84-.28 2.31-.75.52-.17.56-.18.52-.17.28-.09.51-.71-.79.26-.52.17-.88.28-.52.17-2.83.92-.84.27-2.16.71-.52.17-5.53 1.79a6.19 6.19 0 0 1-.39.67Z"/>
      <path id="Fill-1351" class="cls-7" d="m47.72 12.28-1.16 1.59-.32.44-.49.68-.52.71-2.59 3.57-.32.44-2.46 3.39-.52.72-.47.63-.16.23-.32.44-1.45 2-.32.44-1.84 2.53-.32.44-1.42 2-.28.39-.52.72-1.35 1.86-.33.44-1.44 2-.32.44-1.84 2.53-.32.44-.44.61-.57.78-.52.72-.24.33L23 46.3l-.32.44-1.45 2-.32.44-1.67 2.3-.51.71-1.42 2-.33.44-1.83 2.53-.32.44-1.45 2-.32.45-.17.23-.52.71L9.45 65l-.32.44L6.54 69l-.12.16h.61l.34-.47 2.28-3.13.32-.44 3.24-4.46.52-.72.17-.23L15.15 58l.32-.44 2-2.8.32-.44 1.25-1.72.32-.44.17-.24.52-.71 1.35-1.86.32-.44L23 47.18l.32-.44 2-2.8.32-.44.24-.33.52-.72.25-.34.24-.33.32-.45 2-2.8.33-.44 1.25-1.72.32-.44 1.34-1.85.52-.72.52-.71L34.78 31l.32-.44 2-2.8.32-.44 1.25-1.72.32-.44.37-.51.78-1.07.51-.71 2-2.68.32-.44 2.27-3.12.52-.72.81-1.12.33-.44 1-1.44a.81.81 0 0 1-.21-.59"/>
      <path id="Fill-1353" class="cls-6" d="m43.05 5.7-1.21 1.66-.32.44-2.12 2.93-.53.71-1 1.33-.32.44-3.61 5-.32.44-.62.85-.52.72-2.46 3.39-.32.44-.44.61-.33.44-1.48 2.05-.52.72-.28.38-.52.71v.06l-.32.44-.44.6-.32.44-2.85 3.89-.32.44-.44.61-.32.44-.76 1-.52.72-1.56 2.2-.33.44-.44.6-.32.45-2.84 3.91-.32.44-.44.61-.32.44v.05l-.52.72-2.29 3.15-.32.44-.44.6-.32.45-2.51 3.39-.52.71-.62.86-.32.44-3.61 5-.32.44-1 1.33-.22.29a1.81 1.81 0 0 0 .23 0 1.54 1.54 0 0 0 .51-.12l.36-.44.64-.92.32-.44 3.61-5 .32-.44.94-1.3.52-.71 2.15-3 .32-.44.24-.33.32-.44 2.81-3.86.52-.72.24-.34.32-.44 3-4.19L18 41l.25-.33.32-.44 2.08-2.87.51-.71.45-.61.32-.44.24-.34.32-.44 3.05-4.19.32-.44.24-.33.32-.44.24-.33 1.12-1.54.51-.71 1.17-1.61.33-.44.24-.34.32-.44 2.14-2.95.52-.72.99-1.28.32-.44 3.61-5 .32-.44.64-.88.53-.72 2.44-3.36.32-.45 1.42-2a4.58 4.58 0 0 0-.53-.14"/>
      <path id="Stroke-1355" d="m16.72 72.59 63.08-20.5" style="fill:none;stroke:#cd5038;stroke-width:.52px"/>
      <path id="Fill-1357" class="cls-4" d="m71.62 48.36-.51.17.06.08L74 52.52l.07.08.32.44c0-.2.06-.44.11-.73l-.11-.15Z"/>
      <path id="Fill-1359" class="cls-4" d="m74.42 52.24-.52.17.06.09 2.4 3.29.52-.16-2.46-3.39z"/>
      <path id="Fill-1361" class="cls-10" d="m69.13 5.31-58.41 80.4.42.3 58.41-80.4-.42-.3z"/>
      <path id="Fill-1363" class="cls-2" d="m31.14 4.3.52.72 4.54 6.26.21-.38-4.75-6.77-.29-.39"/>
      <g class="cls-14">
        <path id="Fill-1401" class="cls-15" d="M97.11 35.23h8.63a.79.79 0 0 1 .77.82.78.78 0 0 1-.77.79h-9.53a.88.88 0 0 1-.91-.84V22.3a.89.89 0 0 1 .91-.89h9.53a.81.81 0 0 1 0 1.61h-8.63v5.28h7.46a.81.81 0 0 1 .79.82.79.79 0 0 1-.79.79h-7.46Z"/>
      </g>
      <g class="cls-14">
        <path id="Fill-1402" class="cls-15" d="M109.71 26.42a.81.81 0 0 1 .83.79v9.07a.84.84 0 0 1-1.67 0v-9.07a.81.81 0 0 1 .84-.79m-1-4.69a1 1 0 1 1 1 1 1 1 0 0 1-1-1"/>
      </g>
      <g class="cls-14">
        <path id="Fill-1403" class="cls-15" d="M113.8 27.24a.84.84 0 0 1 1.68 0v1.11a3.81 3.81 0 0 1 3.58-1.93 4.44 4.44 0 0 1 3 .93 4.37 4.37 0 0 1 1.22 3.42v5.51a.82.82 0 0 1-.84.79.8.8 0 0 1-.81-.79v-5.15a3.41 3.41 0 0 0-.84-2.6 2.77 2.77 0 0 0-2-.66 2.88 2.88 0 0 0-2.67 1.56 5.88 5.88 0 0 0-.59 2.7v4.15a.84.84 0 0 1-1.68 0Z"/>
      </g>
      <g class="cls-14">
        <path id="Fill-1404" class="cls-15" d="M132.15 22.09a.89.89 0 0 1 .91-.88.91.91 0 0 1 .91.88v13.15h7.38a.8.8 0 0 1 0 1.6h-8.29a.89.89 0 0 1-.91-.88Z"/>
      </g>
      <g class="cls-14">
        <path id="Fill-1405" class="cls-15" d="M150.17 35.1v-3.2a16 16 0 0 0-3.38.41c-1 .25-1.72.75-1.72 1.66 0 1.27 1.31 1.79 2.58 1.79a5.57 5.57 0 0 0 2.52-.66m-4.58-3.72a16.44 16.44 0 0 1 4.58-.74v-.32a2.65 2.65 0 0 0-.53-1.9 2.3 2.3 0 0 0-1.83-.66 5.42 5.42 0 0 0-2 .38c-.59.23-.86.46-1.13.46a.64.64 0 0 1-.64-.66c0-.43.52-.73 1.11-1a7.28 7.28 0 0 1 2.88-.55 3.85 3.85 0 0 1 3 1.09 4.09 4.09 0 0 1 .86 2.79v6a.82.82 0 0 1-.84.79.81.81 0 0 1-.83-.72 6.07 6.07 0 0 1-3 .72c-1.81 0-3.67-1-3.67-3a2.76 2.76 0 0 1 2.09-2.68"/>
      </g>
      <g class="cls-14">
        <path id="Fill-1406" class="cls-15" d="M154.94 27.24a.84.84 0 0 1 1.68 0v1.11a3.81 3.81 0 0 1 3.58-1.93 4.44 4.44 0 0 1 3 .93 4.37 4.37 0 0 1 1.22 3.42v5.51a.82.82 0 0 1-.84.79.8.8 0 0 1-.81-.79v-5.15a3.41 3.41 0 0 0-.84-2.6 2.77 2.77 0 0 0-2-.66 2.86 2.86 0 0 0-2.67 1.56 5.88 5.88 0 0 0-.59 2.7v4.15a.84.84 0 0 1-1.68 0Z"/>
      </g>
      <g class="cls-14">
        <path id="Fill-1407" class="cls-15" d="M174.36 35.46v-7.23a5.92 5.92 0 0 0-2.22-.4 3.38 3.38 0 0 0-2.9 1.47 4.24 4.24 0 0 0-.68 2.45 3.53 3.53 0 0 0 .9 2.53 4.67 4.67 0 0 0 3.43 1.18Zm-1.63 1.38a6.31 6.31 0 0 1-4.53-1.56 4.75 4.75 0 0 1-1.34-3.51 5.68 5.68 0 0 1 1-3.42 5 5 0 0 1 4.15-2 6.87 6.87 0 0 1 2.31.41V22a.83.83 0 0 1 1.68 0v14a.85.85 0 0 1-.93.88Z"/>
      </g>
      <g class="cls-14">
        <path id="Fill-1408" class="cls-15" d="M179.82 37.05a1 1 0 0 1-1-1 1 1 0 0 1 2.08 0 1 1 0 0 1-1 1"/>
      </g>
      <g class="cls-14">
        <path id="Fill-1409" class="cls-16" d="M105.61 44.5a1 1 0 0 1 .9-.64.88.88 0 0 1 .93.89 1.16 1.16 0 0 1-.09.38l-5.5 13.66a1.34 1.34 0 0 1-1.29.93 1.31 1.31 0 0 1-1.27-.93l-5.44-13.64a1.16 1.16 0 0 1-.09-.38.89.89 0 0 1 .93-.91.92.92 0 0 1 .88.64l5 12.82Z"/>
      </g>
      <g class="cls-14">
        <path id="Fill-1410" class="cls-16" d="M110.07 49.08a.82.82 0 0 1 .84.79v9.06a.84.84 0 0 1-1.68 0v-9.06a.82.82 0 0 1 .84-.79m-1-4.69a1 1 0 1 1 1 1 1 1 0 0 1-1-1"/>
      </g>
      <g class="cls-14">
        <path id="Fill-1411" class="cls-16" d="M121.85 53.65a3.51 3.51 0 0 0-.84-2.24 3.16 3.16 0 0 0-2.36-1 3.26 3.26 0 0 0-2.56 1.09 3.83 3.83 0 0 0-.81 2.15Zm1.15 4.44c0 .34-.25.57-.84.89a7.14 7.14 0 0 1-3.24.74 5.3 5.3 0 0 1-4.06-1.67 5.48 5.48 0 0 1-1.33-3.79 5.36 5.36 0 0 1 1.35-3.69 4.91 4.91 0 0 1 3.74-1.49 4.68 4.68 0 0 1 3.56 1.42 4.76 4.76 0 0 1 1.25 3.33.92.92 0 0 1-.89 1h-7.29a4 4 0 0 0 .88 2.27 3.68 3.68 0 0 0 2.87 1.26 5.3 5.3 0 0 0 2.44-.54c.43-.23.66-.41.93-.41a.67.67 0 0 1 .63.68Z"/>
      </g>
      <g class="cls-14">
        <path id="Fill-1412" class="cls-16" d="M126 44.68a.84.84 0 0 1 1.67 0v14.25a.84.84 0 0 1-1.67 0Z"/>
      </g>
      <g class="cls-14">
        <path id="Fill-1413" class="cls-16" d="M138.65 53.65a3.45 3.45 0 0 0-.84-2.24 3.14 3.14 0 0 0-2.35-1 3.26 3.26 0 0 0-2.56 1.09 3.77 3.77 0 0 0-.82 2.15Zm1.18 4.44c0 .34-.25.57-.84.89a7.11 7.11 0 0 1-3.24.74 5.28 5.28 0 0 1-4.05-1.67 5.49 5.49 0 0 1-1.34-3.79 5.37 5.37 0 0 1 1.36-3.69 4.9 4.9 0 0 1 3.74-1.49 4.57 4.57 0 0 1 4.8 4.75.92.92 0 0 1-.88 1h-7.3a4 4 0 0 0 .89 2.27 3.65 3.65 0 0 0 2.85 1.24 5.37 5.37 0 0 0 2.45-.54c.43-.23.65-.41.93-.41a.66.66 0 0 1 .63.7Z"/>
      </g>
      <g class="cls-14">
        <path id="Fill-1414" class="cls-16" d="M160.13 46.58c-.36 0-.77-.4-1.68-.72a6.92 6.92 0 0 0-2.38-.36 6.26 6.26 0 0 0-6.16 6.27 6.12 6.12 0 0 0 6.16 6.32 7.3 7.3 0 0 0 2.41-.38c1-.34 1.4-.75 1.76-.75a.84.84 0 0 1 .84.84c0 .52-.47.84-1.11 1.13a9.19 9.19 0 0 1-3.87.79 7.75 7.75 0 0 1-8.1-7.95 8.07 8.07 0 0 1 8.07-7.91 9 9 0 0 1 3.78.75c.66.27 1.09.64 1.09 1.13a.81.81 0 0 1-.84.84"/>
      </g>
      <g class="cls-14">
        <path id="Fill-1415" class="cls-16" d="M163.53 44.68a.84.84 0 0 1 1.67 0V51a3.81 3.81 0 0 1 3.58-1.93 4.44 4.44 0 0 1 3 .93 4.39 4.39 0 0 1 1.22 3.43v5.5a.82.82 0 0 1-.84.79.8.8 0 0 1-.81-.79v-5.14a3.43 3.43 0 0 0-.84-2.61 2.77 2.77 0 0 0-2-.66 2.89 2.89 0 0 0-2.67 1.57 5.84 5.84 0 0 0-.59 2.69v4.15a.84.84 0 0 1-1.67 0Z"/>
      </g>
      <g class="cls-14">
        <path id="Fill-1416" class="cls-16" d="M181.63 57.75v-3.19a14.81 14.81 0 0 0-3.38.41c-1 .24-1.72.74-1.72 1.65 0 1.27 1.31 1.79 2.58 1.79a5.57 5.57 0 0 0 2.52-.66M177.05 54a16.45 16.45 0 0 1 4.58-.75V53a2.67 2.67 0 0 0-.53-1.9 2.33 2.33 0 0 0-1.83-.66 5.22 5.22 0 0 0-2 .39c-.59.22-.86.45-1.13.45a.64.64 0 0 1-.64-.66c0-.43.52-.72 1.11-1a7.28 7.28 0 0 1 2.88-.55 3.89 3.89 0 0 1 3 1.09 4.09 4.09 0 0 1 .81 2.84v6a.82.82 0 0 1-.84.79.8.8 0 0 1-.83-.72 6.07 6.07 0 0 1-3 .72c-1.81 0-3.67-.95-3.67-3a2.75 2.75 0 0 1 2.09-2.79"/>
      </g>
      <g class="cls-14">
        <path id="Fill-1417" class="cls-16" d="M186.4 49.89a.84.84 0 0 1 1.68 0V51a3.8 3.8 0 0 1 3.58-1.92 3.77 3.77 0 0 1 4.19 4.35v5.5a.82.82 0 0 1-.84.79.8.8 0 0 1-.81-.79v-5.14a3.43 3.43 0 0 0-.84-2.61 2.77 2.77 0 0 0-2-.66 2.89 2.89 0 0 0-2.67 1.57 5.84 5.84 0 0 0-.59 2.69v4.15a.84.84 0 0 1-1.68 0Z"/>
      </g>
      <g class="cls-14">
        <path id="Fill-1418" class="cls-16" d="M206 51.16c-.25 0-.39-.11-.79-.3a4.26 4.26 0 0 0-1.81-.38 3.77 3.77 0 0 0-3.86 3.9 4.07 4.07 0 0 0 1.05 2.87 3.79 3.79 0 0 0 2.83 1.09 4.72 4.72 0 0 0 1.85-.32c.44-.18.53-.31.8-.31a.68.68 0 0 1 .66.68c0 .4-.32.65-1 .9a6.46 6.46 0 0 1-2.4.43 5.5 5.5 0 0 1-4.1-1.54 5.39 5.39 0 0 1-1.4-3.8A5.23 5.23 0 0 1 199 51a5.6 5.6 0 0 1 4.38-1.92 5.72 5.72 0 0 1 2.51.54c.52.25.77.5.77.88a.66.66 0 0 1-.68.66"/>
      </g>
      <g class="cls-14">
        <path id="Fill-1419" class="cls-16" d="M216 53.65a3.45 3.45 0 0 0-.84-2.24 3.14 3.14 0 0 0-2.35-1 3.23 3.23 0 0 0-2.56 1.09 3.77 3.77 0 0 0-.82 2.15Zm1.18 4.44c0 .34-.25.57-.84.89a7.11 7.11 0 0 1-3.24.74 5.28 5.28 0 0 1-4.05-1.67 5.49 5.49 0 0 1-1.34-3.79 5.37 5.37 0 0 1 1.36-3.69 4.9 4.9 0 0 1 3.74-1.49 4.57 4.57 0 0 1 4.8 4.75.92.92 0 0 1-.88 1h-7.3a3.91 3.91 0 0 0 .89 2.27 3.65 3.65 0 0 0 2.85 1.24 5.37 5.37 0 0 0 2.45-.54c.43-.23.65-.41.93-.41a.66.66 0 0 1 .64.7Z"/>
      </g>
      <g class="cls-14">
        <path id="Fill-1420" class="cls-16" d="M220.2 49.89a.84.84 0 0 1 1.68 0V51a3.8 3.8 0 0 1 3.58-1.92 3.77 3.77 0 0 1 4.19 4.35v5.5a.83.83 0 0 1-.84.79.81.81 0 0 1-.82-.79v-5.14a3.43 3.43 0 0 0-.83-2.61 2.79 2.79 0 0 0-2-.66 2.87 2.87 0 0 0-2.67 1.57 5.84 5.84 0 0 0-.59 2.69v4.15a.84.84 0 0 1-1.68 0Z"/>
      </g>
      <g class="cls-14">
        <path id="Fill-1421" class="cls-16" d="M233.05 59.68a.93.93 0 0 1-.94-1 .95.95 0 0 1 1.89 0 .93.93 0 0 1-.95 1"/>
      </g>
    </g>
  </g>
</svg>
