<svg xmlns="http://www.w3.org/2000/svg" viewBox="0 0 133.67 36"><!-- title removed by grunt task --><g id="130478b2-cf8e-4fd6-9314-290ff7c1fb5c" data-name="bpa-type-en"><path d="M35.86,22.85a2.18,2.18,0,0,0-.72.11,1.58,1.58,0,0,0-.52.3,1.51,1.51,0,0,0-.36.44,2.55,2.55,0,0,0-.24.5h0V23H32.63v8.76h1.48V25.35a2.12,2.12,0,0,1,.56-.81,1.5,1.5,0,0,1,1.08-.38,1.7,1.7,0,0,1,.5.06l.23.09L36.67,23l-.31-.1A2.14,2.14,0,0,0,35.86,22.85ZM23.3,11.7a3.3,3.3,0,0,1-.39.26,2.75,2.75,0,0,1-.54.22,2.4,2.4,0,0,1-.69.09A2.08,2.08,0,0,1,20,11.54a4,4,0,0,1-.66-2.28h4.47c0-.21,0-.45.07-.72a9.37,9.37,0,0,0,0-1,3.49,3.49,0,0,0-.71-2.38,2.52,2.52,0,0,0-2-.8,3.12,3.12,0,0,0-1.3.27,3,3,0,0,0-1.06.81,4.19,4.19,0,0,0-.72,1.4,7,7,0,0,0-.26,2A7.78,7.78,0,0,0,18.12,11a4.07,4.07,0,0,0,.72,1.46,2.84,2.84,0,0,0,1.13.85,4,4,0,0,0,1.49.27,4.29,4.29,0,0,0,1.08-.12,3.73,3.73,0,0,0,.77-.31,2.59,2.59,0,0,0,.49-.34l.27-.27-.55-1A1.58,1.58,0,0,1,23.3,11.7ZM19.86,6.25a1.46,1.46,0,0,1,1.26-.66,1.22,1.22,0,0,1,1.05.5,2.35,2.35,0,0,1,.37,1.42c0,.13,0,.25,0,.37s0,.2,0,.26H19.31A3.53,3.53,0,0,1,19.86,6.25ZM14,30.11a3.3,3.3,0,0,1-.39.26,2.75,2.75,0,0,1-.54.22,2.4,2.4,0,0,1-.69.09A2.08,2.08,0,0,1,10.7,30,4,4,0,0,1,10,27.67h4.47c0-.21.05-.45.07-.72a9.37,9.37,0,0,0,0-1,3.49,3.49,0,0,0-.71-2.38,2.51,2.51,0,0,0-2-.79,3.11,3.11,0,0,0-1.3.26,3,3,0,0,0-1.06.81,4.19,4.19,0,0,0-.72,1.4,6.67,6.67,0,0,0-.26,2,7.78,7.78,0,0,0,.25,2.13,4.07,4.07,0,0,0,.72,1.46,2.84,2.84,0,0,0,1.13.85,4,4,0,0,0,1.49.27,4.35,4.35,0,0,0,1.08-.12,3.73,3.73,0,0,0,.77-.31,2.59,2.59,0,0,0,.49-.34L14.8,31l-.55-1A1.58,1.58,0,0,1,14,30.11Zm-3.44-5.45A1.46,1.46,0,0,1,11.84,24a1.23,1.23,0,0,1,1.06.5,2.35,2.35,0,0,1,.37,1.42c0,.13,0,.25,0,.37s0,.2,0,.26H10A3.53,3.53,0,0,1,10.59,24.66Zm19.48,5.45a2.63,2.63,0,0,1-.39.26,2.92,2.92,0,0,1-.53.22,2.53,2.53,0,0,1-.7.09,2,2,0,0,1-1.7-.73,3.88,3.88,0,0,1-.67-2.28h4.47c0-.21.05-.45.07-.72a9.37,9.37,0,0,0,0-1A3.49,3.49,0,0,0,30,23.59a2.51,2.51,0,0,0-2-.79,3.15,3.15,0,0,0-1.3.26,3,3,0,0,0-1.06.81,4.19,4.19,0,0,0-.72,1.4,7,7,0,0,0-.26,2,7.78,7.78,0,0,0,.25,2.13,4.07,4.07,0,0,0,.72,1.46,2.88,2.88,0,0,0,1.14.85,3.9,3.9,0,0,0,1.48.27,4.24,4.24,0,0,0,1.08-.12,3.73,3.73,0,0,0,.77-.31,2.59,2.59,0,0,0,.49-.34l.27-.27-.54-1Zm-3.44-5.45A1.46,1.46,0,0,1,27.89,24a1.25,1.25,0,0,1,1.06.5,2.42,2.42,0,0,1,.36,1.42c0,.13,0,.25,0,.37a.84.84,0,0,1,0,.26H26.08A3.53,3.53,0,0,1,26.63,24.66ZM21.3,23.07a3.45,3.45,0,0,0-.51-.16,3.91,3.91,0,0,0-.73-.06,4.45,4.45,0,0,0-1.39.23,3.12,3.12,0,0,0-1.24.77,4.06,4.06,0,0,0-.89,1.45,5.94,5.94,0,0,0-.35,2.22,7.59,7.59,0,0,0,.24,2.05A4.19,4.19,0,0,0,17.1,31a2.62,2.62,0,0,0,1,.79,2.92,2.92,0,0,0,1.17.24,2.46,2.46,0,0,0,1.54-.46,2.13,2.13,0,0,0,.4-.39,1.54,1.54,0,0,0,.2-.3h0v.93h1.35V18.71l-1.48.16Zm0,6.75a3,3,0,0,1-.21.26,2.54,2.54,0,0,1-.34.28,1.87,1.87,0,0,1-.47.23,2,2,0,0,1-.62.09,1.66,1.66,0,0,1-.73-.17A1.56,1.56,0,0,1,18.3,30a2.84,2.84,0,0,1-.42-1,6,6,0,0,1-.16-1.52,5.81,5.81,0,0,1,.19-1.57,3,3,0,0,1,.52-1,1.9,1.9,0,0,1,.78-.58,2.77,2.77,0,0,1,1-.17,2.06,2.06,0,0,1,.66.09,2,2,0,0,1,.47.22Zm-20,1.95H2.88V26.35H7V25.09H2.88V20.44H7.37l.11-1.26H1.3ZM13.56,4.38a2.82,2.82,0,0,0-.92.14,3,3,0,0,0-.67.32,2,2,0,0,0-.43.37,2.45,2.45,0,0,0-.22.29h0V.3L9.8.46v12.9h1.48V6.61A4,4,0,0,1,12,6a1.78,1.78,0,0,1,1.1-.33,1.36,1.36,0,0,1,1.14.49,2.62,2.62,0,0,1,.37,1.59v5.64h1.48V7.62a3.64,3.64,0,0,0-.68-2.49A2.32,2.32,0,0,0,13.56,4.38ZM.09,2H3.45V13.36H5V2H8.4L8.51.77H.09Zm108,20.77a2.87,2.87,0,0,0-.8.1,3.29,3.29,0,0,0-.66.29,2.82,2.82,0,0,0-.51.38,2.77,2.77,0,0,0-.34.39,2.2,2.2,0,0,0-2.12-1.16,2.44,2.44,0,0,0-1.46.44,2.64,2.64,0,0,0-.46.4,2.78,2.78,0,0,0-.27.36h0V23h-1.35v8.76h1.48V25l.27-.29a2,2,0,0,1,.39-.3,2.1,2.1,0,0,1,.5-.23,2.13,2.13,0,0,1,.65-.09,1.12,1.12,0,0,1,1,.47,2.93,2.93,0,0,1,.31,1.55v5.64h1.48V25.9c0-.17,0-.33,0-.49s0-.29,0-.42a3.39,3.39,0,0,1,.64-.58,1.72,1.72,0,0,1,1-.3,1.41,1.41,0,0,1,1.14.47,2.54,2.54,0,0,1,.38,1.55v5.64h1.48V25.9C110.76,23.83,109.87,22.8,108.09,22.8Zm9.9,7.31a2.5,2.5,0,0,1-.38.26,2.75,2.75,0,0,1-.54.22,2.45,2.45,0,0,1-.69.09,2.08,2.08,0,0,1-1.71-.73,4,4,0,0,1-.66-2.28h4.47c0-.21,0-.45.07-.72a9.37,9.37,0,0,0,0-1,3.49,3.49,0,0,0-.71-2.38,2.53,2.53,0,0,0-2-.79,3.1,3.1,0,0,0-1.29.26,3,3,0,0,0-1.06.81,4.19,4.19,0,0,0-.72,1.4,6.67,6.67,0,0,0-.26,2,7.78,7.78,0,0,0,.25,2.13,4.07,4.07,0,0,0,.72,1.46,2.84,2.84,0,0,0,1.13.85,4,4,0,0,0,1.49.27,4.35,4.35,0,0,0,1.08-.12,3.42,3.42,0,0,0,.76-.31,2.7,2.7,0,0,0,.5-.34l.27-.27-.55-1A1.81,1.81,0,0,1,118,30.11Zm-3.44-5.45a1.49,1.49,0,0,1,1.26-.66,1.23,1.23,0,0,1,1.06.5,2.35,2.35,0,0,1,.37,1.42c0,.13,0,.25,0,.37s0,.2,0,.26H114A3.63,3.63,0,0,1,114.55,24.66ZM97.18,23.53a1.85,1.85,0,0,0-.8-.56,3,3,0,0,0-1.06-.17,2.56,2.56,0,0,0-.91.14,3.51,3.51,0,0,0-.7.34,2.4,2.4,0,0,0-.47.4A2.34,2.34,0,0,0,93,24h0V23H91.61v8.76h1.48V25a3.72,3.72,0,0,1,.7-.64,1.75,1.75,0,0,1,1.09-.33,1.36,1.36,0,0,1,1.14.49,2.61,2.61,0,0,1,.38,1.59v5.64h1.47V26a5.43,5.43,0,0,0-.18-1.51A2.57,2.57,0,0,0,97.18,23.53Zm35.62,6.89a1.5,1.5,0,0,1-.34.17,1.62,1.62,0,0,1-.57.09.89.89,0,0,1-.8-.34,2.35,2.35,0,0,1-.24-1.27V24.22h1.92L133,23h-2.1V20.57h-1.31L129.37,23l-1.06.22v1h1.06v5.05a3.07,3.07,0,0,0,.57,2.09,2.17,2.17,0,0,0,1.7.63,2.38,2.38,0,0,0,.93-.15,3.67,3.67,0,0,0,.44-.23ZM89.53,22.85a2.18,2.18,0,0,0-.72.11,1.58,1.58,0,0,0-.52.3,1.69,1.69,0,0,0-.36.44,2.55,2.55,0,0,0-.24.5h0V23H86.3v8.76h1.48V25.35a2.24,2.24,0,0,1,.56-.81,1.5,1.5,0,0,1,1.08-.38,1.66,1.66,0,0,1,.5.06l.23.09L90.34,23l-.3-.1A2.3,2.3,0,0,0,89.53,22.85Zm36.59.68a1.74,1.74,0,0,0-.8-.56,3,3,0,0,0-1.06-.17,2.6,2.6,0,0,0-.91.14,3.17,3.17,0,0,0-.69.34,2.21,2.21,0,0,0-.48.4A1.54,1.54,0,0,0,122,24h0V23h-1.35v8.76H122V25a4,4,0,0,1,.69-.64,1.78,1.78,0,0,1,1.1-.33,1.36,1.36,0,0,1,1.14.49,2.62,2.62,0,0,1,.37,1.59v5.64h1.48V26a5.43,5.43,0,0,0-.18-1.51A2.72,2.72,0,0,0,126.12,23.53ZM83.74,30.11a2.5,2.5,0,0,1-.38.26,3.37,3.37,0,0,1-.54.22,2.53,2.53,0,0,1-.7.09,2,2,0,0,1-1.7-.73,3.88,3.88,0,0,1-.67-2.28h4.47c0-.21,0-.45.08-.72s0-.6,0-1a3.44,3.44,0,0,0-.71-2.38,2.5,2.5,0,0,0-2-.79,3.18,3.18,0,0,0-1.3.26,2.92,2.92,0,0,0-1,.81,4,4,0,0,0-.73,1.4,7,7,0,0,0-.26,2,7.75,7.75,0,0,0,.26,2.13,4.07,4.07,0,0,0,.72,1.46,2.78,2.78,0,0,0,1.13.85,3.92,3.92,0,0,0,1.49.27A4.21,4.21,0,0,0,83,31.87a3.52,3.52,0,0,0,.77-.31,2.3,2.3,0,0,0,.49-.34l.27-.27-.54-1ZM80.3,24.66A1.49,1.49,0,0,1,81.56,24a1.25,1.25,0,0,1,1.06.5A2.42,2.42,0,0,1,83,25.92c0,.13,0,.25,0,.37a1.51,1.51,0,0,1,0,.26h-3.2A3.53,3.53,0,0,1,80.3,24.66ZM55.68,21.39a2.83,2.83,0,0,1,1.14-.86,3.69,3.69,0,0,1,1.36-.25,3.18,3.18,0,0,1,.92.11,3.34,3.34,0,0,1,.68.25,2.62,2.62,0,0,1,.46.3l.28.25.74-1.11a4.54,4.54,0,0,0-.36-.31,3,3,0,0,0-.57-.37,4.74,4.74,0,0,0-.86-.31A5.3,5.3,0,0,0,58.25,19a6,6,0,0,0-2,.34,4.49,4.49,0,0,0-1.71,1.1,5.7,5.7,0,0,0-1.23,2,8.52,8.52,0,0,0-.46,3,11.23,11.23,0,0,0,.37,3.13,5.46,5.46,0,0,0,1,2,4,4,0,0,0,1.59,1.11,5.87,5.87,0,0,0,2,.33,6.16,6.16,0,0,0,1.29-.12,5.68,5.68,0,0,0,1-.31,4.13,4.13,0,0,0,.67-.34,3.27,3.27,0,0,0,.38-.29V25.39H57.67v1.26h2v3.66a4.46,4.46,0,0,1-.75.22,4.29,4.29,0,0,1-.9.09,3.6,3.6,0,0,1-1.49-.28,2.55,2.55,0,0,1-1.08-.91,4.63,4.63,0,0,1-.66-1.63,11.79,11.79,0,0,1-.21-2.41,8.36,8.36,0,0,1,.3-2.42A4.58,4.58,0,0,1,55.68,21.39ZM42.91,30V26a3.5,3.5,0,0,0-.7-2.41,2.63,2.63,0,0,0-2-.74,4,4,0,0,0-1,.1,4.35,4.35,0,0,0-.75.28,3,3,0,0,0-.56.35l-.37.32.62,1a6.3,6.3,0,0,1,.69-.5,2,2,0,0,1,1.1-.29,1.43,1.43,0,0,1,1.1.42,2.3,2.3,0,0,1,.4,1.54v.84H41a7,7,0,0,0-1.41.13,3.28,3.28,0,0,0-1.16.46,2.42,2.42,0,0,0-.79.83,2.61,2.61,0,0,0-.29,1.28,2.74,2.74,0,0,0,.17,1,2.27,2.27,0,0,0,.5.78,2.23,2.23,0,0,0,.74.51,2.41,2.41,0,0,0,.93.18,2,2,0,0,0,.73-.12,2.17,2.17,0,0,0,.52-.31,1.66,1.66,0,0,0,.37-.38,2.22,2.22,0,0,0,.22-.37h0l.06,1H43c0-.12,0-.36-.07-.72S42.91,30.33,42.91,30Zm-1.46-.07a2,2,0,0,0-.21.26,1.35,1.35,0,0,1-.3.28,1.45,1.45,0,0,1-.41.22,1.49,1.49,0,0,1-.54.09,1.12,1.12,0,0,1-.86-.33,1.47,1.47,0,0,1-.31-1,1.14,1.14,0,0,1,.55-1.06A3.44,3.44,0,0,1,41,28l.48,0Zm6.17.8a1.49,1.49,0,0,1-.33,0,.62.62,0,0,1-.54-.22,1.36,1.36,0,0,1-.16-.77v-11l-1.48.16v11a2.27,2.27,0,0,0,.46,1.62,1.61,1.61,0,0,0,1.21.46,2.73,2.73,0,0,0,.78-.09,2.49,2.49,0,0,0,.4-.15l-.13-1.09Zm21.29-6.8a2.82,2.82,0,0,0-1.07-.82,3.63,3.63,0,0,0-2.7,0,3,3,0,0,0-1.11.82,4.14,4.14,0,0,0-.77,1.43A6.8,6.8,0,0,0,63,27.39a7.55,7.55,0,0,0,.26,2.11A4.18,4.18,0,0,0,64,30.93a2.7,2.7,0,0,0,1.07.81,3.77,3.77,0,0,0,2.7,0,3,3,0,0,0,1.13-.81,4,4,0,0,0,.75-1.44,6.8,6.8,0,0,0,.28-2.1,7.14,7.14,0,0,0-.27-2.08A3.92,3.92,0,0,0,68.91,23.88Zm-1,6a1.59,1.59,0,0,1-1.41.77A1.63,1.63,0,0,1,65,29.91a4.7,4.7,0,0,1-.51-2.52,5,5,0,0,1,.5-2.54,1.66,1.66,0,0,1,2.84,0,4.86,4.86,0,0,1,.51,2.54A4.72,4.72,0,0,1,67.86,29.91Zm6.86-2q-.21.75-.36,1.35a6.19,6.19,0,0,0-.19,1.17h0A6.48,6.48,0,0,0,74,29.2c-.1-.41-.21-.86-.35-1.35L72.32,23H70.74l2.72,8.76h1.33L77.49,23H76.07Z"/></g></svg>