<svg xmlns="http://www.w3.org/2000/svg" viewBox="0 0 109 36"><!-- title removed by grunt task --><g id="3da45a87-9abc-4227-9a43-2177867bc929" data-name="bpa-type"><g id="f85afc64-f50d-4014-9254-4b0c122674c9" data-name="Name"><path d="M.1,13.35V.76H2.47a9.65,9.65,0,0,1,2.67.33,4.49,4.49,0,0,1,1.9,1A4.16,4.16,0,0,1,8.16,4a8.93,8.93,0,0,1,.37,2.77,9.09,9.09,0,0,1-.44,3,5.36,5.36,0,0,1-1.24,2,5,5,0,0,1-2,1.19,8.46,8.46,0,0,1-2.6.38ZM1.68,2V12h.61a6,6,0,0,0,1.93-.29,3.22,3.22,0,0,0,1.42-.91A4.1,4.1,0,0,0,6.53,9.2a8.73,8.73,0,0,0,.3-2.45,7.52,7.52,0,0,0-.29-2.24,3.66,3.66,0,0,0-.85-1.46,3.08,3.08,0,0,0-1.37-.79A6.53,6.53,0,0,0,2.47,2ZM12,13.35H10.52V4.59H12ZM11.27,2.47a.92.92,0,0,1-.73-.29,1,1,0,0,1-.28-.76,1,1,0,0,1,.28-.75A1,1,0,0,1,12,.67a1,1,0,0,1,.27.75,1.07,1.07,0,0,1-.27.76A.92.92,0,0,1,11.27,2.47Zm8.61,5.08a9,9,0,0,1,0,1c0,.28-.05.52-.07.73H15.3A3.88,3.88,0,0,0,16,11.53a2.07,2.07,0,0,0,1.7.73,2.4,2.4,0,0,0,.69-.09A3.54,3.54,0,0,0,18.9,12a2.63,2.63,0,0,0,.39-.26,1.58,1.58,0,0,0,.22-.2l.55,1-.27.26a2.21,2.21,0,0,1-.49.35,3.25,3.25,0,0,1-.77.3,3.8,3.8,0,0,1-1.08.13A3.86,3.86,0,0,1,16,13.3a2.9,2.9,0,0,1-1.14-.85A4.16,4.16,0,0,1,14.11,11a7.78,7.78,0,0,1-.25-2.13,7,7,0,0,1,.26-2,4.1,4.1,0,0,1,.72-1.4,2.82,2.82,0,0,1,1.06-.81,3.12,3.12,0,0,1,1.3-.27,2.52,2.52,0,0,1,2,.8A3.49,3.49,0,0,1,19.88,7.55Zm-2.77-2a1.48,1.48,0,0,0-1.26.65,3.57,3.57,0,0,0-.55,1.9h3.19c0-.06,0-.15,0-.26s0-.24,0-.38a2.32,2.32,0,0,0-.37-1.41A1.2,1.2,0,0,0,17.11,5.58ZM6.7,22.37a3.59,3.59,0,0,1-.16,1.15,2.64,2.64,0,0,1-.45.85,2.42,2.42,0,0,1-.66.58,3.51,3.51,0,0,1-.77.33v0a2.78,2.78,0,0,1,.92.35,2.71,2.71,0,0,1,.75.64,3,3,0,0,1,.51.9A3.25,3.25,0,0,1,7,28.34a3.56,3.56,0,0,1-.25,1.37A2.88,2.88,0,0,1,6,30.79a3.89,3.89,0,0,1-1.36.71,6.58,6.58,0,0,1-1.95.26H.1V19.16H2.52a7,7,0,0,1,1.91.23A3.57,3.57,0,0,1,5.74,20a2.53,2.53,0,0,1,.74,1A3.73,3.73,0,0,1,6.7,22.37Zm-1.6.06A1.87,1.87,0,0,0,4.48,21a2.85,2.85,0,0,0-2-.57H1.68v4.35h.83a2.69,2.69,0,0,0,1.93-.63A2.22,2.22,0,0,0,5.1,22.43Zm.23,5.8a2,2,0,0,0-.66-1.61A2.77,2.77,0,0,0,2.76,26H1.68v4.42h1a3,3,0,0,0,2-.56A2.08,2.08,0,0,0,5.33,28.23Zm9.79,3.53H13.77v-1h0a2.39,2.39,0,0,1-.7.72,3.17,3.17,0,0,1-.69.34,2.52,2.52,0,0,1-.89.14,2.89,2.89,0,0,1-1-.17,1.85,1.85,0,0,1-.8-.56,2.71,2.71,0,0,1-.5-1,5.87,5.87,0,0,1-.17-1.51V23h1.48v5.63a2.68,2.68,0,0,0,.35,1.56,1.32,1.32,0,0,0,1.11.47,1.79,1.79,0,0,0,1.07-.32,3.4,3.4,0,0,0,.7-.63V23h1.48Zm7,0V26.12a2.64,2.64,0,0,0-.37-1.6A1.36,1.36,0,0,0,20.65,24a1.77,1.77,0,0,0-1.1.32,4.39,4.39,0,0,0-.69.64v6.76H17.38V23h1.35v1h0a1.54,1.54,0,0,1,.23-.32,2.48,2.48,0,0,1,.48-.4,3.17,3.17,0,0,1,.69-.34,2.6,2.6,0,0,1,.91-.14,3,3,0,0,1,1.06.17,1.91,1.91,0,0,1,.81.56,2.71,2.71,0,0,1,.51,1A5.43,5.43,0,0,1,23.64,26v5.75Zm3.29-4.26a6.17,6.17,0,0,1,.34-2.22,4.07,4.07,0,0,1,.9-1.45,3.12,3.12,0,0,1,1.24-.77,4.44,4.44,0,0,1,1.38-.23,3.84,3.84,0,0,1,.73.06,3.25,3.25,0,0,1,.52.16v-4.2L32,18.69V31.76H30.68v-.94h0a3,3,0,0,1-.2.31,2.21,2.21,0,0,1-.41.38,2.33,2.33,0,0,1-.63.33,2.75,2.75,0,0,1-.9.13,3,3,0,0,1-1.18-.24,2.59,2.59,0,0,1-1-.79,4.23,4.23,0,0,1-.67-1.38A7.67,7.67,0,0,1,25.45,27.5Zm3.46,3.16a2,2,0,0,0,.62-.09,2,2,0,0,0,.48-.23,2.42,2.42,0,0,0,.34-.28,2,2,0,0,0,.21-.26V24.4a2.56,2.56,0,0,0-.47-.22,2.13,2.13,0,0,0-.67-.09,2.67,2.67,0,0,0-1,.17,1.9,1.9,0,0,0-.78.58,3,3,0,0,0-.52,1A5.43,5.43,0,0,0,27,27.45,6.49,6.49,0,0,0,27.13,29a3,3,0,0,0,.43,1,1.73,1.73,0,0,0,.62.54A1.69,1.69,0,0,0,28.91,30.66Zm11-4.71a9.37,9.37,0,0,1,0,1c0,.27-.05.51-.07.72H35.34A4,4,0,0,0,36,29.93a2.08,2.08,0,0,0,1.71.73,2.4,2.4,0,0,0,.69-.09,2.75,2.75,0,0,0,.54-.22,3.3,3.3,0,0,0,.39-.26,2.53,2.53,0,0,0,.22-.2l.55,1-.27.27a2.84,2.84,0,0,1-.5.35,4,4,0,0,1-.76.3,4.35,4.35,0,0,1-1.08.12A4,4,0,0,1,36,31.7a2.84,2.84,0,0,1-1.13-.85,4.07,4.07,0,0,1-.72-1.46,7.75,7.75,0,0,1-.25-2.12,6.7,6.7,0,0,1,.26-2,4.19,4.19,0,0,1,.72-1.4A3,3,0,0,1,35.94,23a3.11,3.11,0,0,1,1.3-.26,2.53,2.53,0,0,1,2,.79A3.49,3.49,0,0,1,39.92,26Zm-2.78-2a1.49,1.49,0,0,0-1.26.66,3.67,3.67,0,0,0-.54,1.9h3.19c0-.07,0-.15,0-.27s0-.24,0-.37a2.35,2.35,0,0,0-.37-1.42A1.23,1.23,0,0,0,37.14,24Zm8.53.79a4.33,4.33,0,0,0-.53-.45,1.66,1.66,0,0,0-1-.28,1.32,1.32,0,0,0-.89.27.83.83,0,0,0-.31.66,1.18,1.18,0,0,0,.28.81,4,4,0,0,0,.87.68l.55.33A5.33,5.33,0,0,1,46,27.93a2.4,2.4,0,0,1,.51,1.58,2.36,2.36,0,0,1-.72,1.75,2.8,2.8,0,0,1-2.07.71,3.3,3.3,0,0,1-.93-.11,3.55,3.55,0,0,1-.7-.25,2.15,2.15,0,0,1-.5-.32,2.55,2.55,0,0,1-.33-.32L42,29.8l.26.26a2.34,2.34,0,0,0,.38.28,2.22,2.22,0,0,0,.49.23,2.06,2.06,0,0,0,.64.09,1.53,1.53,0,0,0,1-.29.91.91,0,0,0,.35-.71,1.71,1.71,0,0,0-.08-.54,1.33,1.33,0,0,0-.25-.41,2.33,2.33,0,0,0-.4-.35L43.84,28l-.55-.35A5.53,5.53,0,0,1,42,26.54a2.34,2.34,0,0,1-.47-1.5,2.2,2.2,0,0,1,.19-.9,2.13,2.13,0,0,1,.54-.72,2.69,2.69,0,0,1,.81-.47,2.77,2.77,0,0,1,1-.17,3.28,3.28,0,0,1,.88.1,2.36,2.36,0,0,1,.62.25,3,3,0,0,1,.44.31l.29.27Zm6.46-.48-.24-.09a1.63,1.63,0,0,0-.49-.06,1.52,1.52,0,0,0-1.09.38,2.24,2.24,0,0,0-.56.81v6.43H48.28V23h1.35v1.18h0a2.55,2.55,0,0,1,.24-.5,1.92,1.92,0,0,1,.37-.44,1.48,1.48,0,0,1,.52-.3,2.18,2.18,0,0,1,.72-.11,1.75,1.75,0,0,1,.5.06l.3.09ZM59,26a9.37,9.37,0,0,1,0,1c0,.27-.05.51-.07.72H54.41a4,4,0,0,0,.66,2.28,2.08,2.08,0,0,0,1.71.73,2.4,2.4,0,0,0,.69-.09,2.75,2.75,0,0,0,.54-.22,2.63,2.63,0,0,0,.39-.26,1.58,1.58,0,0,0,.22-.2l.55,1-.27.27a3.13,3.13,0,0,1-.49.35,4.42,4.42,0,0,1-.77.3,4.29,4.29,0,0,1-1.08.12,4,4,0,0,1-1.49-.27,2.84,2.84,0,0,1-1.13-.85,4.07,4.07,0,0,1-.72-1.46A7.75,7.75,0,0,1,53,27.27a7,7,0,0,1,.26-2,4.19,4.19,0,0,1,.72-1.4A3,3,0,0,1,55,23a3.11,3.11,0,0,1,1.3-.26,2.51,2.51,0,0,1,2,.79A3.49,3.49,0,0,1,59,26Zm-2.77-2a1.46,1.46,0,0,0-1.26.66,3.57,3.57,0,0,0-.55,1.9H57.6c0-.07,0-.15,0-.27s0-.24,0-.37a2.35,2.35,0,0,0-.37-1.42A1.22,1.22,0,0,0,56.22,24Zm11,.16h-1.1a3,3,0,0,1,.42,1.57A3.28,3.28,0,0,1,66.34,27a2.66,2.66,0,0,1-.64.94,2.91,2.91,0,0,1-1,.59,3.6,3.6,0,0,1-1.2.2H63.3l-.24,0a1.83,1.83,0,0,0-.46.29.66.66,0,0,0-.23.53.57.57,0,0,0,.21.45,1.09,1.09,0,0,0,.68.17h1.11a5.12,5.12,0,0,1,1.15.13,2.58,2.58,0,0,1,.92.41,2,2,0,0,1,.62.72,2.44,2.44,0,0,1,.22,1.06,2.83,2.83,0,0,1-.31,1.3,3,3,0,0,1-.84,1,4.2,4.2,0,0,1-1.34.66,6.29,6.29,0,0,1-1.75.23A3.2,3.2,0,0,1,60.91,35a2.14,2.14,0,0,1-.73-1.76,1.87,1.87,0,0,1,.17-.85,2.67,2.67,0,0,1,.41-.62,3,3,0,0,1,.48-.42l.4-.24v0a1.43,1.43,0,0,1-.57-1.22,1.36,1.36,0,0,1,.45-1,2,2,0,0,1,.34-.27l.27-.14v0a2.57,2.57,0,0,1-1.09-1,3.67,3.67,0,0,1-.17-3,2.57,2.57,0,0,1,.64-.92,2.54,2.54,0,0,1,.94-.55,3.62,3.62,0,0,1,1.16-.18,3,3,0,0,1,1.16.22h2.67Zm-4.07,7.34a4.5,4.5,0,0,1-.68-.05,2,2,0,0,0-.32.22,1.42,1.42,0,0,0-.28.31,2.06,2.06,0,0,0-.21.42,2,2,0,0,0-.08.58c0,.94.52,1.4,1.55,1.4a3.05,3.05,0,0,0,2-.52,1.49,1.49,0,0,0,.64-1.19,1,1,0,0,0-.4-.9,1.92,1.92,0,0,0-1.08-.27Zm2-5.77a1.74,1.74,0,0,0-.45-1.35,1.52,1.52,0,0,0-1-.4,1.63,1.63,0,0,0-1.1.4,1.74,1.74,0,0,0-.46,1.35,1.72,1.72,0,0,0,.46,1.35,1.6,1.6,0,0,0,2.14,0A1.71,1.71,0,0,0,65.12,25.71Zm5.28,6.05H68.92V23H70.4Zm-.73-10.88a1,1,0,0,1-.73-.29,1.06,1.06,0,0,1-.28-.77,1,1,0,0,1,.28-.75,1,1,0,0,1,.73-.29.94.94,0,0,1,.71.29,1.08,1.08,0,0,1,.27.75,1.1,1.1,0,0,1-.27.77A.94.94,0,0,1,69.67,20.88ZM78.28,26a9.37,9.37,0,0,1,0,1c0,.27,0,.51-.07.72H73.7a3.88,3.88,0,0,0,.67,2.28,2,2,0,0,0,1.7.73,2.53,2.53,0,0,0,.7-.09,2.92,2.92,0,0,0,.53-.22,2.63,2.63,0,0,0,.39-.26,1.58,1.58,0,0,0,.22-.2l.55,1-.27.27a3.13,3.13,0,0,1-.49.35,4.42,4.42,0,0,1-.77.3,4.24,4.24,0,0,1-1.08.12,3.9,3.9,0,0,1-1.48-.27,2.81,2.81,0,0,1-1.14-.85,4.07,4.07,0,0,1-.72-1.46,7.75,7.75,0,0,1-.25-2.12,7,7,0,0,1,.26-2,4.19,4.19,0,0,1,.72-1.4A3,3,0,0,1,74.3,23a3.11,3.11,0,0,1,1.3-.26,2.51,2.51,0,0,1,2,.79A3.49,3.49,0,0,1,78.28,26Zm-2.77-2a1.46,1.46,0,0,0-1.26.66,3.57,3.57,0,0,0-.55,1.9h3.19c0-.07,0-.15,0-.27s0-.24,0-.37a2.35,2.35,0,0,0-.37-1.42A1.22,1.22,0,0,0,75.51,24Zm8.59.31-.24-.09a1.59,1.59,0,0,0-.49-.06,1.5,1.5,0,0,0-1.08.38,2.12,2.12,0,0,0-.56.81v6.43H80.25V23H81.6v1.18h0a2.55,2.55,0,0,1,.24-.5,1.66,1.66,0,0,1,.36-.44,1.58,1.58,0,0,1,.52-.3,2.18,2.18,0,0,1,.72-.11,1.66,1.66,0,0,1,.5.06l.3.09Zm7.59,7.47H90.34v-1h0a2.34,2.34,0,0,1-.24.32,2.4,2.4,0,0,1-.47.4,2.87,2.87,0,0,1-.68.34A2.56,2.56,0,0,1,88,32a2.89,2.89,0,0,1-1-.17,1.85,1.85,0,0,1-.8-.56,2.56,2.56,0,0,1-.5-1,5.46,5.46,0,0,1-.17-1.51V23H87v5.63a2.6,2.6,0,0,0,.35,1.56,1.32,1.32,0,0,0,1.11.47,1.79,1.79,0,0,0,1.07-.32,4,4,0,0,0,.7-.63V23h1.47Zm7,0V26.12a2.63,2.63,0,0,0-.38-1.6A1.36,1.36,0,0,0,97.22,24a1.76,1.76,0,0,0-1.09.32,5,5,0,0,0-.7.64v6.76H94V23h1.35v1h0a2.34,2.34,0,0,1,.24-.32,2.21,2.21,0,0,1,.48-.4,3.17,3.17,0,0,1,.69-.34,2.6,2.6,0,0,1,.91-.14,3,3,0,0,1,1.06.17,1.88,1.88,0,0,1,.8.56,2.57,2.57,0,0,1,.51,1,5,5,0,0,1,.19,1.51v5.75Zm10-7.62h-1.09a3,3,0,0,1,.42,1.57A3.28,3.28,0,0,1,107.8,27a2.53,2.53,0,0,1-.64.94,2.81,2.81,0,0,1-1,.59,3.58,3.58,0,0,1-1.19.2h-.24l-.24,0a2,2,0,0,0-.45.29.66.66,0,0,0-.24.53.57.57,0,0,0,.21.45,1.11,1.11,0,0,0,.68.17h1.12a5.26,5.26,0,0,1,1.15.13,2.66,2.66,0,0,1,.92.41,2,2,0,0,1,.61.72,2.31,2.31,0,0,1,.22,1.06,2.83,2.83,0,0,1-.3,1.3,3,3,0,0,1-.85,1,4.24,4.24,0,0,1-1.33.66,6.39,6.39,0,0,1-1.75.23,3.25,3.25,0,0,1-2.14-.61,2.14,2.14,0,0,1-.73-1.76,2,2,0,0,1,.17-.85,3.51,3.51,0,0,1,.41-.62,2.67,2.67,0,0,1,.49-.42l.39-.24v0a1.43,1.43,0,0,1-.57-1.22,1.34,1.34,0,0,1,.14-.61,1.52,1.52,0,0,1,.31-.41,2.06,2.06,0,0,1,.35-.27,2.46,2.46,0,0,1,.26-.14v0a2.49,2.49,0,0,1-1.08-1,3.14,3.14,0,0,1-.41-1.71,3.4,3.4,0,0,1,.23-1.28,2.57,2.57,0,0,1,.64-.92,2.54,2.54,0,0,1,.94-.55,3.66,3.66,0,0,1,1.16-.18,3.08,3.08,0,0,1,1.17.22h2.66Zm-4.07,7.34a4.36,4.36,0,0,1-.67-.05,1.66,1.66,0,0,0-.32.22,1.05,1.05,0,0,0-.28.31,1.38,1.38,0,0,0-.21.42,1.72,1.72,0,0,0-.09.58c0,.94.52,1.4,1.55,1.4a3.1,3.1,0,0,0,2-.52,1.51,1.51,0,0,0,.63-1.19,1,1,0,0,0-.4-.9,1.86,1.86,0,0,0-1.07-.27Zm2-5.77a1.74,1.74,0,0,0-.45-1.35,1.56,1.56,0,0,0-1-.4,1.65,1.65,0,0,0-1.1.4,1.74,1.74,0,0,0-.45,1.35,1.71,1.71,0,0,0,.45,1.35,1.61,1.61,0,0,0,2.15,0A1.71,1.71,0,0,0,106.59,25.71Z"/></g></g></svg>