<svg xmlns="http://www.w3.org/2000/svg" viewBox="0 0 44 44">
<path d="M11.1,19.2c5.1,0,10.5-1.6,10.5-4.5V10c0,0,0,0,0,0c0-2.9-5.4-4.5-10.5-4.5S0.5,7,0.5,9.9c0,0,0,0,0,0v18.9
	c0,2.9,5.4,4.5,10.5,4.5c0.1,0,0.2,0,0.2,0c2.5,0,5.1-0.4,7.4-1.3c0.4-0.1,0.6-0.6,0.4-1c-0.1-0.4-0.6-0.6-1-0.4
	c-2.2,0.8-4.6,1.2-7.1,1.2c-5.6,0-9-1.8-9-3v-2.2c2,1.4,5.6,2.1,9,2.1c0.1,0,0.1,0,0.2,0c2.5,0,5-0.4,7.3-1.2c0.4-0.1,0.6-0.6,0.5-1
	c-0.1-0.4-0.6-0.6-1-0.5c-2.2,0.8-4.6,1.2-7,1.2c-5.6,0-9-1.8-9-3v-2.4c2,1.4,5.7,2.1,9.3,2.1c2.5,0,5.1-0.4,7.4-1.3
	c0.4-0.1,0.6-0.6,0.4-1c-0.1-0.4-0.6-0.6-1-0.4c-2.1,0.8-4.5,1.2-6.9,1.2c-5.7,0-9.3-1.8-9.3-3v-2.4C4,18.5,7.6,19.2,11.1,19.2z
	 M11.1,17.7c-5.6,0-9-1.8-9-3v-2.3c2,1.4,5.6,2.1,9,2.1c3.5,0,7.1-0.7,9-2.1v2.3C20.1,15.9,16.7,17.7,11.1,17.7z M11.1,6.9
	c5.6,0,9,1.8,9,3s-3.4,3-9,3c-5.6,0-9-1.8-9-3S5.4,6.9,11.1,6.9z M43.5,18.4c-0.1-0.3-0.2-0.6-0.4-0.8c-0.2-0.2-0.5-0.3-0.8-0.4
	c-0.3-0.1-0.6,0-0.9,0.1l-18.9,8c-0.3,0.1-0.6,0.4-0.7,0.7c-0.2,0.3-0.2,0.6-0.2,0.9c0,0.3,0.2,0.6,0.4,0.9c0.2,0.2,0.5,0.4,0.8,0.5
	l7.7,1.9l2,7.7c0,0,0,0,0,0c0.1,0.3,0.3,0.6,0.5,0.8c0.2,0.2,0.5,0.4,0.9,0.4c0.1,0,0.2,0,0.2,0c0.3,0,0.5-0.1,0.7-0.2
	c0.3-0.2,0.5-0.4,0.7-0.7l8-18.9C43.6,19,43.6,18.7,43.5,18.4z M42.1,18.8l-8,18.8c0,0-0.1,0-0.1,0c0,0,0,0,0-0.1l-2.1-8.1
	c-0.1-0.3-0.3-0.5-0.5-0.5l-8.2-2.1l-0.6,0.5l0.5-0.6L42.1,18.8l0.1-0.8L42.1,18.8z"/>
</svg>
