<svg xmlns="http://www.w3.org/2000/svg" width="42.76" height="41.49">
  <g data-name="glossar-outline" transform="translate(247.34 77.56)" fill="#0077b6">
    <path data-name="Pfad 3635" d="m-204.62-38.66-9.66-30.51a.75.75 0 0 0-.94-.5l-5.14 1.63a.75.75 0 0 0-.49.95l3.7 11.68h-10.34v-21.4a.75.75 0 0 0-.75-.75h-9.18a.75.75 0 0 0-.75.75v14.51h-8.42a.75.75 0 0 0-.75.75v24.49a.75.75 0 0 0 .22.53.75.75 0 0 0 .53.22h30.17a.75.75 0 0 0 .74-.75v-13.7l4.5 14.18a.75.75 0 0 0 .7.52.74.74 0 0 0 .23-.03l2.49-.79 2.65-.84a.75.75 0 0 0 .5-.94Zm-37.53.85h-3.7V-60.8h7.68v22.99h-3.98Zm13.16 0h-7.68v-38.25h7.68Zm11.81 0h-10.3v-16.1h10.3Zm7.2.06-9.21-29.08 3.71-1.17 9.2 29.08Z"/>
    <path data-name="Pfad 3636" d="M-222.33-45.47a.75.75 0 0 0 .75-.75v-4.08a.75.75 0 0 0-.75-.75.75.75 0 0 0-.75.75v4.08a.75.75 0 0 0 .75.75Z"/>
    <path data-name="Pfad 3637" d="M-232.83-45.47a.75.75 0 0 0 .75-.75v-26.22a.75.75 0 0 0-.75-.75.75.75 0 0 0-.75.75v26.22a.75.75 0 0 0 .75.75Z"/>
    <path data-name="Pfad 3638" d="M-242-45.48a.75.75 0 0 0 .75-.75v-10.25a.75.75 0 0 0-.75-.75.75.75 0 0 0-.75.75v10.25a.75.75 0 0 0 .75.75Z"/>
    <circle data-name="Ellipse 69" cx="1.11" cy="1.11" r="1.11" transform="translate(-243.12 -42.57)"/>
    <circle data-name="Ellipse 70" cx="1.11" cy="1.11" r="1.11" transform="translate(-233.94 -42.57)"/>
    <path data-name="Pfad 3639" d="M-222.33-40.34a1.11 1.11 0 0 0 1.12-1.12 1.11 1.11 0 0 0-1.12-1.11 1.11 1.11 0 0 0-1.11 1.11 1.11 1.11 0 0 0 1.11 1.12Z"/>
  </g>
</svg>
