<svg xmlns="http://www.w3.org/2000/svg" viewBox="0 0 22 22">
  <path d="M10.24 19.43a5.42 5.42 0 0 1-7.67-7.67l2.85-2.84v.66A7.13 7.13 0 0 0 5.83 12l-1.47 1.52a2.91 2.91 0 0 0 4.12 4.12l3.1-3.1a2.87 2.87 0 0 0 0-4.12 1.26 1.26 0 1 1 1.78-1.78 5.43 5.43 0 0 1 0 7.66Zm6.34-6.35v-.66a7.1 7.1 0 0 0-.41-2.42l1.47-1.5a2.92 2.92 0 0 0 .85-2.06 2.9 2.9 0 0 0-2.91-2.91 2.92 2.92 0 0 0-2.06.85l-3.13 3.1a3 3 0 0 0-.85 2.08 2.9 2.9 0 0 0 .85 2.07 1.23 1.23 0 0 1 .39.88 1.28 1.28 0 0 1-1.26 1.23 1.2 1.2 0 0 1-.88-.36 5.43 5.43 0 0 1 0-7.66l3.1-3.1a5.42 5.42 0 1 1 7.66 7.66Z" data-name="share-link"/>
</svg>
