<svg xmlns="http://www.w3.org/2000/svg" viewBox="0 0 22 18">
  <path d="M5.7 2.5a.3.3 0 0 0 0-.5l-1-1a.3.3 0 0 0-.4 0 11.2 11.2 0 0 0 0 16 .3.3 0 0 0 .4 0l1-1a.3.3 0 0 0 0-.5 9.2 9.2 0 0 1 0-13Zm2.6 2.1-1-1a.3.3 0 0 0-.4 0 7.5 7.5 0 0 0 0 10.7.3.3 0 0 0 .4 0l1-1a.3.3 0 0 0 0-.5 5.5 5.5 0 0 1 0-7.7.3.3 0 0 0 0-.5Zm6.8-1a.3.3 0 0 0-.4 0l-1 1a.3.3 0 0 0 0 .5 5.5 5.5 0 0 1 0 7.8.3.3 0 0 0 0 .5l1 1a.3.3 0 0 0 .4 0 7.5 7.5 0 0 0 0-10.7ZM11 7a2 2 0 1 0 2 2 2 2 0 0 0-2-2Zm6.7-6a.3.3 0 0 0-.4 0l-1 1a.3.3 0 0 0 0 .6 9.2 9.2 0 0 1 0 13 .3.3 0 0 0 0 .4l1 1a.3.3 0 0 0 .4 0 11.2 11.2 0 0 0 0-16Z" data-name="add-podcast"/>
</svg>
