<svg xmlns="http://www.w3.org/2000/svg" width="37.926" height="41.499">
  <g data-name="publication-outline" fill="#0077b6">
    <path data-name="Pfad 3606" d="M37.619 3.335a.749.749 0 0 0-.671-.109L18.963 8.957.978 3.221a.746.746 0 0 0-.67.109.748.748 0 0 0-.308.605v31a.75.75 0 0 0 .522.715l18.209 5.807a.762.762 0 0 0 .228.035.738.738 0 0 0 .228-.035l18.217-5.8a.75.75 0 0 0 .522-.715v-31a.749.749 0 0 0-.307-.607ZM1.5 4.967l16.713 5.33v29.426L1.5 34.393Zm34.926 29.426-16.713 5.33V10.297l16.713-5.33Z"/>
    <path data-name="Pfad 3607" d="m3.212 1.463 15.521 5.018a.758.758 0 0 0 .23.037.759.759 0 0 0 .231-.037l15.52-5.018a.75.75 0 0 0 .483-.944.749.749 0 0 0-.942-.483l-15.29 4.943L3.676.036a.75.75 0 0 0-.944.483.749.749 0 0 0 .48.944Z"/>
    <path data-name="Pfad 3608" d="M24.191 33.675a.737.737 0 0 0 .23-.037l7.76-2.509a.75.75 0 0 0 .483-.944.749.749 0 0 0-.945-.483l-7.759 2.509a.75.75 0 0 0-.483.945.751.751 0 0 0 .714.519Z"/>
    <path data-name="Pfad 3609" d="m13.968 32.211-7.76-2.509a.748.748 0 0 0-.944.483.749.749 0 0 0 .482.944l7.76 2.51a.778.778 0 0 0 .231.036.751.751 0 0 0 .718-.518.751.751 0 0 0-.487-.946Z"/>
  </g>
</svg>
