<svg xmlns="http://www.w3.org/2000/svg" viewBox="0 0 44 44">
<path d="M40.5,43.8H1.7c-0.4,0-0.8-0.3-0.8-0.8V29.6c0-0.4,0.1-0.8,0.3-1.1c0.2-0.3,0.4-0.6,0.7-0.9l7.7-6.5
	c0.4-0.3,0.8-0.5,1.3-0.5c0.5,0,0.9,0.1,1.3,0.3s0.7,0.5,1,0.9c0.2,0.4,0.4,0.8,0.4,1.3v4.1l7.2-6c0.4-0.3,0.8-0.5,1.3-0.5
	c0.5,0,0.9,0.1,1.3,0.3c0.4,0.2,0.7,0.5,1,0.9c0.2,0.4,0.4,0.8,0.4,1.3V31h13.9c0.7,0,1.3,0.3,1.8,0.7c0.5,0.5,0.7,1.1,0.7,1.8V43
	C41.3,43.4,40.9,43.8,40.5,43.8z M21.4,42.2h18.4v-8.7c0-0.3-0.1-0.5-0.3-0.7c-0.2-0.2-0.4-0.3-0.7-0.3H24.1c-0.4,0-0.8-0.3-0.8-0.8
	v-8.7c0-0.2,0-0.4-0.1-0.5c-0.1-0.2-0.2-0.3-0.4-0.4c-0.2-0.1-0.3-0.1-0.5-0.1c-0.2,0-0.4,0.1-0.5,0.2l-8.4,7
	c-0.2,0.2-0.5,0.2-0.8,0.1c-0.3-0.1-0.4-0.4-0.4-0.7v-5.7c0-0.2,0-0.4-0.1-0.5c-0.1-0.2-0.2-0.3-0.4-0.4c-0.2-0.1-0.3-0.1-0.5-0.1
	c-0.2,0-0.4,0.1-0.5,0.2l-7.7,6.5c-0.2,0.1-0.3,0.2-0.3,0.4c-0.1,0.1-0.1,0.3-0.1,0.4v12.6h3.7v-3.6c0-1.1,0.4-2.2,1.2-3
	s1.8-1.2,3-1.2c1.1,0,2.2,0.4,3,1.2c0.2,0.2,0.3,0.4,0.5,0.6c0.1-0.2,0.3-0.4,0.5-0.6c0.8-0.8,1.9-1.2,3-1.2s2.2,0.4,3,1.2
	c0.8,0.8,1.2,1.8,1.2,3V42.2z M14.5,42.2h5.4v-3.6c0-0.7-0.3-1.4-0.8-1.9c-1-1-2.8-1-3.8,0c-0.5,0.5-0.8,1.2-0.8,1.9V42.2z
	 M7.6,42.2H13v-3.6c0-0.7-0.3-1.4-0.8-1.9c-1-1-2.8-1-3.8,0c-0.5,0.5-0.8,1.2-0.8,1.9V42.2z M24.9,31.8L24.9,31.8L24.9,31.8z
	 M35.3,38.1h-1.7c-0.4,0-0.8-0.3-0.8-0.8s0.3-0.8,0.8-0.8h1.7c0.4,0,0.8,0.3,0.8,0.8S35.8,38.1,35.3,38.1z M28.4,38.1h-1.7
	c-0.4,0-0.8-0.3-0.8-0.8s0.3-0.8,0.8-0.8h1.7c0.4,0,0.8,0.3,0.8,0.8S28.9,38.1,28.4,38.1z M41.6,28.2c-0.1,0-0.1,0-0.2,0
	c-0.4-0.1-0.6-0.5-0.5-0.9c0.5-2,0.4-4.1-0.2-6c-0.4-1.3-1.1-2.5-1.9-3.6l0.1,2.1c0,0.4-0.3,0.8-0.7,0.8c-0.4,0-0.8-0.3-0.8-0.7
	l-0.3-4.2c0,0,0,0,0,0c0-0.1,0-0.2,0-0.3c0-0.1,0.1-0.2,0.1-0.2c0,0,0,0,0,0c0,0,0,0,0,0c0,0,0,0,0,0c0,0,0,0,0,0c0,0,0,0,0,0l0,0
	c0,0,0,0,0,0l0,0c0,0,0,0,0,0l0,0c0,0,0,0,0,0c0.1-0.1,0.1-0.1,0.2-0.2c0.1,0,0.1-0.1,0.2-0.1h0l0,0c0,0,0,0,0,0l0,0
	c0,0,0.1,0,0.1,0l4.2-0.3c0.4,0,0.8,0.3,0.8,0.7c0,0.4-0.3,0.8-0.7,0.8l-2.6,0.2c1.1,1.3,2,2.8,2.5,4.5c0.7,2.2,0.8,4.6,0.2,6.8
	C42.3,27.9,42,28.2,41.6,28.2z M27.8,19.6C27.8,19.6,27.8,19.6,27.8,19.6c-0.5,0-0.8-0.4-0.7-0.8l0.1-1.5c0-0.4,0.4-0.7,0.8-0.7
	c0.4,0,0.7,0.4,0.7,0.8l-0.1,1.5C28.6,19.3,28.2,19.6,27.8,19.6z M6.7,18.1c-0.1,0-0.1,0-0.2,0c0,0,0,0-0.1,0h0h0
	c-0.1,0-0.2-0.1-0.2-0.1c-0.1-0.1-0.1-0.1-0.2-0.2L4.1,14c-0.2-0.4,0-0.8,0.3-1c0.4-0.2,0.8,0,1,0.3l1.2,2.3c0.7-1.6,1.8-3,3.1-4.1
	c1.7-1.5,3.9-2.6,6.2-3c0.4-0.1,0.8,0.2,0.9,0.6c0.1,0.4-0.2,0.8-0.6,0.9c-2,0.4-3.9,1.3-5.4,2.6c-1,0.9-1.9,2-2.5,3.2l1.9-1
	c0.4-0.2,0.8,0,1,0.3c0.2,0.4,0,0.8-0.3,1L7.1,18c0,0,0,0,0,0C7,18.1,6.9,18.1,6.7,18.1C6.8,18.1,6.8,18.1,6.7,18.1L6.7,18.1
	C6.8,18.1,6.7,18.1,6.7,18.1z M34.3,17.4c-0.2,0-0.4-0.1-0.6-0.3l-1-1.1c-0.3-0.3-0.2-0.8,0.1-1.1c0.3-0.3,0.8-0.2,1.1,0.1l1,1.1
	c0.3,0.3,0.2,0.8-0.1,1.1C34.7,17.4,34.5,17.4,34.3,17.4z M21.7,16.5c-0.2,0-0.4-0.1-0.6-0.3c-0.3-0.3-0.2-0.8,0.1-1.1l1.1-1
	c0.3-0.3,0.8-0.2,1.1,0.1c0.3,0.3,0.2,0.8-0.1,1.1l-1.1,1C22.1,16.4,21.9,16.5,21.7,16.5z M28.5,15.1c-0.1,0-0.3,0-0.4,0
	c-1.4-0.1-2.7-0.7-3.6-1.8c-0.9-1.1-1.4-2.4-1.3-3.8S24,6.9,25.1,6c1-0.9,2.4-1.4,3.8-1.3c1.4,0.1,2.7,0.7,3.6,1.8
	c0.9,1.1,1.4,2.4,1.3,3.8s-0.7,2.7-1.8,3.6C30.9,14.7,29.7,15.1,28.5,15.1z M28.5,6.2c-0.9,0-1.8,0.3-2.4,0.9
	c-0.7,0.6-1.2,1.6-1.3,2.5c-0.1,1,0.2,1.9,0.9,2.7c0.7,0.8,1.6,1.2,2.5,1.3c1,0.1,1.9-0.2,2.7-0.9c0.7-0.6,1.2-1.6,1.3-2.5
	c0.1-1-0.2-1.9-0.9-2.7c-0.6-0.8-1.6-1.2-2.5-1.3C28.7,6.2,28.6,6.2,28.5,6.2z M37.4,11.3C37.4,11.3,37.4,11.3,37.4,11.3l-1.5-0.1
	c-0.4,0-0.7-0.4-0.7-0.8c0-0.4,0.4-0.7,0.8-0.7l1.5,0.1c0.4,0,0.7,0.4,0.7,0.8C38.1,11,37.8,11.3,37.4,11.3z M21.1,10.1
	C21,10.1,21,10.1,21.1,10.1L19.5,10c-0.4,0-0.7-0.4-0.7-0.8c0-0.4,0.4-0.7,0.8-0.7l1.5,0.1c0.4,0,0.7,0.4,0.7,0.8
	C21.8,9.8,21.5,10.1,21.1,10.1z M34.1,5.8c-0.2,0-0.4-0.1-0.6-0.3c-0.3-0.3-0.2-0.8,0.1-1.1l1.1-1c0.3-0.3,0.8-0.2,1.1,0.1
	c0.3,0.3,0.2,0.8-0.1,1.1l-1.1,1C34.5,5.7,34.3,5.8,34.1,5.8z M23.6,5c-0.2,0-0.4-0.1-0.6-0.3l-1-1.1c-0.3-0.3-0.2-0.8,0.1-1.1
	c0.3-0.3,0.8-0.2,1.1,0.1l1,1.1c0.3,0.3,0.2,0.8-0.1,1.1C24,5,23.8,5,23.6,5z M29,3.2C29,3.2,29,3.2,29,3.2c-0.5,0-0.8-0.4-0.7-0.8
	l0.1-1.5c0-0.4,0.4-0.7,0.8-0.7c0.4,0,0.7,0.4,0.7,0.8l-0.1,1.5C29.7,2.9,29.4,3.2,29,3.2z"/>
</svg>
