<svg xmlns="http://www.w3.org/2000/svg" viewBox="0 0 22 22">
  <path d="M6.8 1h8.4A5.8 5.8 0 0 1 21 6.8v8.4a5.8 5.8 0 0 1-5.8 5.8H6.8A5.8 5.8 0 0 1 1 15.2V6.8A5.8 5.8 0 0 1 6.8 1Zm-.2 2A3.6 3.6 0 0 0 4 4a3.6 3.6 0 0 0-1 2.6v8.8A3.6 3.6 0 0 0 4 18a3.6 3.6 0 0 0 2.6 1h8.8a3.6 3.6 0 0 0 3.6-3.6V6.6A3.6 3.6 0 0 0 15.4 3ZM11 6a5 5 0 0 1 3.5 8.6 5 5 0 1 1-7-7.1A5 5 0 0 1 11 6Zm0 2a3 3 0 0 0-2.1.9A2.8 2.8 0 0 0 8 11a2.9 2.9 0 0 0 3 3 2.9 2.9 0 0 0 3-3 2.8 2.8 0 0 0-.8-2.1A3 3 0 0 0 11 8Zm5.3-3.5a1.5 1.5 0 0 1 .8.4 1.2 1.2 0 0 1 .4.8A1.2 1.2 0 0 1 16.3 7 1.2 1.2 0 0 1 15 5.7a1.2 1.2 0 0 1 .3-.8 1.4 1.4 0 0 1 1-.4Z" data-name="instagram"/>
</svg>
