<svg xmlns="http://www.w3.org/2000/svg" viewBox="0 0 20 15">
  <g data-name="backward">
    <path d="M9.8 8H9L7 9v1h1.5v3.8a.3.3 0 0 0 .3.2h1a.3.3 0 0 0 .2-.3V8.3a.3.3 0 0 0-.3-.3ZM13 8a2 2 0 0 0-2 2v2a2 2 0 0 0 4 0v-2a2 2 0 0 0-2-2Zm.5 4a.5.5 0 0 1-1 0v-2a.5.5 0 0 1 1 0Z"/>
    <path d="M18.8 4h-14L6 2.6a.2.2 0 0 0 0-.3L5 1.3a.2.2 0 0 0-.3 0L2 3.7l-1 1a.3.3 0 0 0 0 .4l1 1 2.6 2.6a.2.2 0 0 0 .3 0l1-1a.2.2 0 0 0 0-.4L4.8 6H17v3.8a.3.3 0 0 0 .3.2h1.4a.3.3 0 0 0 .3-.3V4.3a.3.3 0 0 0-.3-.3Z"/>
  </g>
</svg>
