<svg xmlns="http://www.w3.org/2000/svg" width="41.92" height="41.48">
  <g data-name="corona-virus" transform="translate(-10.2 -10.41)" fill="#0077b6">
    <path data-name="Pfad 3640" d="M51.37 28.45a.75.75 0 0 0-.75.75v1h-2.34a.72.72 0 0 0-.1.02 16.97 16.97 0 0 0-4.89-11l1.58-1.58.72.72a.75.75 0 0 0 1.05-1.06l-2.49-2.49a.75.75 0 0 0-1.06 1.06l.72.72-1.63 1.62A16.77 16.77 0 0 0 31.7 14.2v-2.29h1.01a.75.75 0 0 0 0-1.5H29.2a.75.75 0 0 0 0 1.5h1.01v2.32a16.78 16.78 0 0 0-10.9 4.88v-.01l-1.66-1.66.72-.71a.75.75 0 0 0-1.07-1.06l-2.49 2.49a.75.75 0 0 0 1.07 1.06l.71-.72 1.66 1.66.05.03a16.57 16.57 0 0 0-4.14 10.44.7.7 0 0 0-.11-.02H11.7V29.6a.75.75 0 0 0-1.5 0v3.52a.75.75 0 0 0 1.5 0v-1.01h2.34a.66.66 0 0 0 .12-.03A16.55 16.55 0 0 0 18.96 43l.08.08-1.6 1.59-.71-.72a.75.75 0 1 0-1.06 1.06l2.49 2.5a.75.75 0 0 0 1.06-1.07l-.71-.71 1.63-1.64a17.18 17.18 0 0 0 10.47 4v2.31H29.6a.75.75 0 0 0 0 1.5h3.52a.75.75 0 1 0 0-1.5h-1v-2.33a17.18 17.18 0 0 0 11.04-4.72l1.51 1.52-.71.71a.75.75 0 1 0 1.06 1.06l1.24-1.24.01-.01 1.23-1.24a.75.75 0 0 0-1.06-1.06l-.71.72-1.56-1.56a16.98 16.98 0 0 0 4.03-10.56.72.72 0 0 0 .08.01h2.34v1.02a.75.75 0 1 0 1.5 0V29.2a.75.75 0 0 0-.75-.75ZM42.18 42.2a15.8 15.8 0 0 1-22.16-.27 15.24 15.24 0 0 1-.2-21.22l.45-.47a15.44 15.44 0 0 1 21.81-.11l.09.08a15.58 15.58 0 0 1 .01 21.99Z"/>
    <path data-name="Pfad 3641" d="M38.78 23.8a3.23 3.23 0 0 0 .26 6.45h.26a3.23 3.23 0 0 0 1.83-5.69 3.2 3.2 0 0 0-2.35-.76Zm.4 4.95a1.73 1.73 0 0 1-1.46-2.85 1.72 1.72 0 0 1 1.18-.6h.14a1.73 1.73 0 0 1 .14 3.45Z"/>
    <path data-name="Pfad 3642" d="M27.35 19.97a3.23 3.23 0 0 0-.43 6.45h.22a3.23 3.23 0 0 0 .21-6.45Zm.93 4.52a1.73 1.73 0 1 1-1.14-3.03h.11a1.73 1.73 0 0 1 1.03 3.03Z"/>
    <path data-name="Pfad 3643" d="M35.36 35.89a3.23 3.23 0 1 0-.43 6.45h.21a3.23 3.23 0 0 0 .22-6.45Zm-.33 4.95a1.73 1.73 0 0 1 .11-3.46h.12a1.73 1.73 0 0 1-.23 3.46Z"/>
    <path data-name="Pfad 3644" d="M22.99 32.06a3.23 3.23 0 0 0 .25 6.45l.26-.01a3.23 3.23 0 1 0-.51-6.44Zm.4 4.94a1.73 1.73 0 1 1 1.58-1.86A1.72 1.72 0 0 1 23.38 37Z"/>
    <circle data-name="Ellipse 71" cx="1.11" cy="1.11" r="1.11" transform="translate(33.42 19.78)"/>
    <path data-name="Pfad 3645" d="M27.77 40.3a1.11 1.11 0 1 0 1.12 1.11 1.11 1.11 0 0 0-1.12-1.11Z"/>
    <path data-name="Pfad 3646" d="M32.68 30.94a1.11 1.11 0 1 0-1.12 1.11 1.11 1.11 0 0 0 1.12-1.11Z"/>
    <circle data-name="Ellipse 72" cx="1.11" cy="1.11" r="1.11" transform="translate(19.78 26.66)"/>
    <path data-name="Pfad 3647" d="M41.42 33.42a1.11 1.11 0 1 0 1.11 1.12 1.11 1.11 0 0 0-1.11-1.12Z"/>
  </g>
</svg>
