<svg xmlns="http://www.w3.org/2000/svg" viewBox="0 0 144.67 36"><!-- title removed by grunt task --><g id="536dc17f-e1e2-4009-a5a0-d17b4470c666" data-name="bpa-type-fr"><path d="M21.91,29.72a3.59,3.59,0,0,1-.69.63,1.8,1.8,0,0,1-1.08.32A1.31,1.31,0,0,1,19,30.2a2.6,2.6,0,0,1-.36-1.56V23H17.21v5.75a5.46,5.46,0,0,0,.17,1.51,2.43,2.43,0,0,0,.5,1,1.88,1.88,0,0,0,.8.56,2.89,2.89,0,0,0,1.05.17,2.81,2.81,0,0,0,.89-.14,3.08,3.08,0,0,0,.68-.34,2.4,2.4,0,0,0,.47-.4,2.34,2.34,0,0,0,.24-.32h0v1h1.35V23H21.91ZM126,19.23v0h-1.79L122.8,21.6h1.37ZM28.72,27.86c-.13.5-.25.95-.35,1.35a5.48,5.48,0,0,0-.19,1.17h0A8.81,8.81,0,0,0,28,29.19c-.1-.41-.22-.86-.35-1.35L26.33,23H24.74l2.72,8.76H28.8L31.5,23H30.07Zm-14.31-4a2.82,2.82,0,0,0-1.07-.82A3.38,3.38,0,0,0,12,22.79a3.34,3.34,0,0,0-1.34.26,3.15,3.15,0,0,0-1.12.82,4,4,0,0,0-.76,1.43,6.78,6.78,0,0,0-.29,2.08,7.17,7.17,0,0,0,.27,2.11,4,4,0,0,0,.72,1.43,2.66,2.66,0,0,0,1.08.81A3.49,3.49,0,0,0,11.9,32a3.63,3.63,0,0,0,1.35-.25,2.93,2.93,0,0,0,1.12-.81,4.18,4.18,0,0,0,.76-1.44,7.14,7.14,0,0,0,.27-2.1,7.52,7.52,0,0,0-.26-2.08A4.09,4.09,0,0,0,14.41,23.87Zm-1,6a1.69,1.69,0,0,1-2.84,0A4.7,4.7,0,0,1,10,27.38a4.87,4.87,0,0,1,.5-2.54,1.57,1.57,0,0,1,1.41-.8,1.62,1.62,0,0,1,1.43.8,4.86,4.86,0,0,1,.51,2.54A4.81,4.81,0,0,1,13.37,29.9ZM7.52,23H4.85a3.2,3.2,0,0,0-1.17-.21A3.66,3.66,0,0,0,2.52,23a2.62,2.62,0,0,0-.94.55,2.55,2.55,0,0,0-.63.92,3.67,3.67,0,0,0,.17,3,2.51,2.51,0,0,0,1.09,1v0l-.27.14a2.63,2.63,0,0,0-.35.26,1.76,1.76,0,0,0-.31.42,1.31,1.31,0,0,0-.13.61,1.44,1.44,0,0,0,.56,1.22v0l-.39.24a2.63,2.63,0,0,0-.48.42,2.67,2.67,0,0,0-.41.62,1.87,1.87,0,0,0-.18.85A2.18,2.18,0,0,0,1,35a3.25,3.25,0,0,0,2.14.61,6.34,6.34,0,0,0,1.75-.23,4.14,4.14,0,0,0,1.33-.66,3,3,0,0,0,.85-1,2.83,2.83,0,0,0,.3-1.3,2.31,2.31,0,0,0-.22-1.06,1.93,1.93,0,0,0-.61-.72,2.49,2.49,0,0,0-.92-.41,4.66,4.66,0,0,0-1.15-.13H3.34A1.13,1.13,0,0,1,2.65,30a.57.57,0,0,1-.21-.45A.66.66,0,0,1,2.68,29a1.83,1.83,0,0,1,.46-.29l.23,0h.24a3.6,3.6,0,0,0,1.2-.2,2.77,2.77,0,0,0,1-.59A2.5,2.5,0,0,0,6.41,27a3.28,3.28,0,0,0,.23-1.25,3,3,0,0,0-.42-1.57H7.31ZM2.57,31.44a4.5,4.5,0,0,0,.68,0H4.36a1.92,1.92,0,0,1,1.08.27,1,1,0,0,1,.4.9,1.52,1.52,0,0,1-.64,1.19,3.07,3.07,0,0,1-2,.52c-1,0-1.55-.46-1.55-1.4a1.73,1.73,0,0,1,.08-.58A1.38,1.38,0,0,1,2,32a1.21,1.21,0,0,1,.28-.31A1.66,1.66,0,0,1,2.57,31.44Zm2.18-4.37a1.56,1.56,0,0,1-1.08.41,1.53,1.53,0,0,1-1.06-.41,1.68,1.68,0,0,1-.46-1.35,1.71,1.71,0,0,1,.46-1.35A1.63,1.63,0,0,1,3.7,24a1.56,1.56,0,0,1,1,.4,1.74,1.74,0,0,1,.45,1.35A1.71,1.71,0,0,1,4.75,27.07Zm33,3a2.63,2.63,0,0,1-.39.26,2.75,2.75,0,0,1-.54.22,2.4,2.4,0,0,1-.69.09,2,2,0,0,1-1.7-.73,3.88,3.88,0,0,1-.67-2.28h4.47c0-.21.05-.45.07-.72a9.37,9.37,0,0,0,0-1,3.49,3.49,0,0,0-.71-2.38,2.51,2.51,0,0,0-2-.79,3.11,3.11,0,0,0-1.3.26,3,3,0,0,0-1.06.81,4.19,4.19,0,0,0-.72,1.4,7,7,0,0,0-.26,2,7.75,7.75,0,0,0,.25,2.12,4.07,4.07,0,0,0,.72,1.46,2.81,2.81,0,0,0,1.14.85,3.86,3.86,0,0,0,1.48.27A4.24,4.24,0,0,0,37,31.86a3.73,3.73,0,0,0,.77-.31,2.59,2.59,0,0,0,.49-.34l.27-.27-.54-1Zm-3.44-5.45A1.46,1.46,0,0,1,35.57,24a1.22,1.22,0,0,1,1,.5A2.35,2.35,0,0,1,37,25.91c0,.13,0,.25,0,.37a1.32,1.32,0,0,1,0,.26H33.76A3.53,3.53,0,0,1,34.31,24.65ZM2.94.76H1.35V13.35H7.42L7.53,12H2.94ZM9.37,12.45a2.84,2.84,0,0,0,1.13.85,3.92,3.92,0,0,0,1.49.27,4.21,4.21,0,0,0,1.07-.12,3.52,3.52,0,0,0,.77-.31,2.3,2.3,0,0,0,.49-.34l.28-.27-.55-1-.23.2a2.5,2.5,0,0,1-.38.26,2.75,2.75,0,0,1-.54.22,2.5,2.5,0,0,1-.69.09,2.07,2.07,0,0,1-1.71-.73,3.88,3.88,0,0,1-.67-2.28H14.3c0-.21,0-.45.08-.72s0-.6,0-1a3.44,3.44,0,0,0-.71-2.38,2.5,2.5,0,0,0-2-.79,3.1,3.1,0,0,0-1.29.26,2.87,2.87,0,0,0-1.06.81,3.85,3.85,0,0,0-.72,1.4,6.68,6.68,0,0,0-.27,2A7.73,7.73,0,0,0,8.65,11,4.07,4.07,0,0,0,9.37,12.45Zm1-6.21a1.49,1.49,0,0,1,1.26-.66,1.24,1.24,0,0,1,1.06.5,2.42,2.42,0,0,1,.36,1.42c0,.13,0,.25,0,.37a1.51,1.51,0,0,1,0,.26H9.83A3.53,3.53,0,0,1,10.38,6.24Zm99.61,13v0H108.2l-1.44,2.41h1.37ZM143.73,30.6a1.27,1.27,0,0,1-.21.07,1.51,1.51,0,0,1-.34,0,.62.62,0,0,1-.53-.22,1.34,1.34,0,0,1-.16-.77v-11l-1.48.16v11a2.22,2.22,0,0,0,.46,1.62,1.59,1.59,0,0,0,1.2.46,2.81,2.81,0,0,0,.79-.09,2.49,2.49,0,0,0,.4-.15ZM117.2,23.06a3.45,3.45,0,0,0-.51-.16,4,4,0,0,0-.74-.06,4.44,4.44,0,0,0-1.38.23,3.12,3.12,0,0,0-1.24.77,4.07,4.07,0,0,0-.9,1.45,6.17,6.17,0,0,0-.34,2.22,7.67,7.67,0,0,0,.24,2.06A4.23,4.23,0,0,0,113,31a2.54,2.54,0,0,0,1,.79,2.92,2.92,0,0,0,1.17.24,2.75,2.75,0,0,0,.9-.13,2.56,2.56,0,0,0,.64-.33,2.47,2.47,0,0,0,.4-.38,3,3,0,0,0,.2-.31h0v.93h1.35V18.7l-1.47.16Zm0,6.75a3,3,0,0,1-.21.26,2.54,2.54,0,0,1-.34.28,2,2,0,0,1-.48.23,2,2,0,0,1-.62.09,1.84,1.84,0,0,1-.73-.16,1.73,1.73,0,0,1-.62-.54,3,3,0,0,1-.43-1,6.49,6.49,0,0,1-.15-1.52,5.43,5.43,0,0,1,.19-1.57,3,3,0,0,1,.52-1,1.9,1.9,0,0,1,.78-.58,2.67,2.67,0,0,1,1-.17,2.13,2.13,0,0,1,.67.09,2,2,0,0,1,.47.22Zm-15.11-9.58a1,1,0,0,1,.8-.33,1.4,1.4,0,0,1,.49.08,1.72,1.72,0,0,1,.31.16l.31-1.22a2.13,2.13,0,0,0-.44-.2,2.06,2.06,0,0,0-.8-.13,3.12,3.12,0,0,0-.93.14,2,2,0,0,0-.77.48,2.69,2.69,0,0,0-.53.84,3.43,3.43,0,0,0-.2,1.22V23l-1,.2v1h1v7.55h1.48V24.21h1.79l.18-1.21h-2V21.43A1.88,1.88,0,0,1,102.09,20.23Zm7.83,9.87a2.5,2.5,0,0,1-.38.26,2.75,2.75,0,0,1-.54.22,2.45,2.45,0,0,1-.69.09,2.08,2.08,0,0,1-1.71-.73,4,4,0,0,1-.66-2.28h4.47c0-.21,0-.45.07-.72a9.37,9.37,0,0,0,0-1,3.49,3.49,0,0,0-.71-2.38,2.53,2.53,0,0,0-2-.79,3.1,3.1,0,0,0-1.29.26,3,3,0,0,0-1.06.81,4.19,4.19,0,0,0-.72,1.4,6.7,6.7,0,0,0-.26,2,7.75,7.75,0,0,0,.25,2.12,4.07,4.07,0,0,0,.72,1.46,2.84,2.84,0,0,0,1.13.85,4,4,0,0,0,1.49.27,4.35,4.35,0,0,0,1.08-.12,3.42,3.42,0,0,0,.76-.31,2.7,2.7,0,0,0,.5-.34l.27-.27-.55-1A1.81,1.81,0,0,1,109.92,30.1Zm-3.44-5.45a1.49,1.49,0,0,1,1.26-.66,1.23,1.23,0,0,1,1.06.5,2.35,2.35,0,0,1,.37,1.42c0,.13,0,.25,0,.37s0,.2,0,.26h-3.19A3.63,3.63,0,0,1,106.48,24.65ZM126,30.1a3.3,3.3,0,0,1-.39.26,2.75,2.75,0,0,1-.54.22,2.4,2.4,0,0,1-.69.09,2.08,2.08,0,0,1-1.71-.73,4,4,0,0,1-.66-2.28h4.47c0-.21,0-.45.07-.72a9.37,9.37,0,0,0,0-1,3.49,3.49,0,0,0-.71-2.38,2.51,2.51,0,0,0-2-.79,3.11,3.11,0,0,0-1.3.26,3,3,0,0,0-1.06.81,4.19,4.19,0,0,0-.72,1.4,6.7,6.7,0,0,0-.26,2,7.75,7.75,0,0,0,.25,2.12,4.07,4.07,0,0,0,.72,1.46,2.84,2.84,0,0,0,1.13.85,4,4,0,0,0,1.49.27,4.35,4.35,0,0,0,1.08-.12,3.73,3.73,0,0,0,.77-.31,2.59,2.59,0,0,0,.49-.34l.27-.27-.55-1A1.58,1.58,0,0,1,126,30.1Zm-3.44-5.45a1.46,1.46,0,0,1,1.25-.66,1.23,1.23,0,0,1,1.06.5,2.35,2.35,0,0,1,.37,1.42c0,.13,0,.25,0,.37s0,.2,0,.26H122A3.53,3.53,0,0,1,122.53,24.65Zm9.23-1.81A2.18,2.18,0,0,0,131,23a1.48,1.48,0,0,0-.52.3,1.73,1.73,0,0,0-.37.44,3.22,3.22,0,0,0-.23.5h0V23h-1.35v8.76H130V25.34a2.2,2.2,0,0,1,.55-.81,1.54,1.54,0,0,1,1.09-.38,1.59,1.59,0,0,1,.49.06l.24.09.18-1.31-.3-.1A2.2,2.2,0,0,0,131.76,22.84Zm7,7.1v-4a3.5,3.5,0,0,0-.69-2.41,2.63,2.63,0,0,0-2-.74,3.9,3.9,0,0,0-.95.1,4.35,4.35,0,0,0-.75.28,3,3,0,0,0-.56.35l-.37.32.62,1a6.3,6.3,0,0,1,.69-.5,2,2,0,0,1,1.1-.29,1.43,1.43,0,0,1,1.1.42,2.3,2.3,0,0,1,.39,1.54v.84h-.45a7.21,7.21,0,0,0-1.42.13,3.66,3.66,0,0,0-1.16.46,2.48,2.48,0,0,0-.78.83,2.61,2.61,0,0,0-.29,1.28,2.74,2.74,0,0,0,.17,1,2.4,2.4,0,0,0,.49.78,2.3,2.3,0,0,0,1.67.69,2,2,0,0,0,.73-.12,2.06,2.06,0,0,0,.53-.31,1.66,1.66,0,0,0,.37-.38,2.22,2.22,0,0,0,.22-.37h0l.06,1h1.4a7.06,7.06,0,0,1-.07-.72C138.82,30.68,138.8,30.32,138.8,29.94Zm-1.46-.07-.21.26a1.11,1.11,0,0,1-.29.28,1.45,1.45,0,0,1-.41.22,1.55,1.55,0,0,1-.55.09,1.1,1.1,0,0,1-.85-.33,1.47,1.47,0,0,1-.31-1,1.13,1.13,0,0,1,.54-1.05,3.35,3.35,0,0,1,1.61-.37l.47,0ZM69.69,22.79a2.87,2.87,0,0,0-.8.1,3.29,3.29,0,0,0-.66.29,2.82,2.82,0,0,0-.51.38,3.82,3.82,0,0,0-.35.39,2.19,2.19,0,0,0-2.11-1.16,2.44,2.44,0,0,0-1.46.44,2.64,2.64,0,0,0-.46.4,2.78,2.78,0,0,0-.27.36h0V23H61.68v8.76h1.48V25l.27-.29a2,2,0,0,1,.39-.3,2.1,2.1,0,0,1,.5-.23A2.13,2.13,0,0,1,65,24.1a1.12,1.12,0,0,1,1,.47,2.94,2.94,0,0,1,.31,1.56v5.63h1.48V25.89c0-.17,0-.33,0-.49s0-.29,0-.42a3.39,3.39,0,0,1,.64-.58,1.72,1.72,0,0,1,1-.3,1.41,1.41,0,0,1,1.14.47,2.55,2.55,0,0,1,.38,1.56v5.63h1.48V25.89C72.36,23.82,71.47,22.79,69.69,22.79Zm-26.15.05a2.18,2.18,0,0,0-.72.11,1.58,1.58,0,0,0-.52.3,1.51,1.51,0,0,0-.36.44,2.55,2.55,0,0,0-.24.5h0V23H40.31v8.76h1.48V25.34a2.12,2.12,0,0,1,.56-.81,1.5,1.5,0,0,1,1.08-.38,1.59,1.59,0,0,1,.49.06l.24.09L44.34,23l-.3-.1A2.14,2.14,0,0,0,43.54,22.84ZM59.12,30.1a2.63,2.63,0,0,1-.39.26,2.75,2.75,0,0,1-.54.22,2.4,2.4,0,0,1-.69.09,2,2,0,0,1-1.7-.73,3.88,3.88,0,0,1-.67-2.28H59.6c0-.21,0-.45.07-.72a9.37,9.37,0,0,0,0-1A3.49,3.49,0,0,0,59,23.58a2.51,2.51,0,0,0-2-.79,3.11,3.11,0,0,0-1.3.26,3,3,0,0,0-1.06.81,4.19,4.19,0,0,0-.72,1.4,7,7,0,0,0-.26,2,7.75,7.75,0,0,0,.25,2.12,4.07,4.07,0,0,0,.72,1.46,2.81,2.81,0,0,0,1.14.85,3.86,3.86,0,0,0,1.48.27,4.24,4.24,0,0,0,1.08-.12,3.73,3.73,0,0,0,.77-.31,2.59,2.59,0,0,0,.49-.34l.27-.27-.54-1Zm-3.44-5.45A1.46,1.46,0,0,1,56.94,24a1.22,1.22,0,0,1,1.05.5,2.35,2.35,0,0,1,.37,1.42c0,.13,0,.25,0,.37a1.32,1.32,0,0,1,0,.26H55.13A3.53,3.53,0,0,1,55.68,24.65Zm-4.49-1.13a1.83,1.83,0,0,0-.81-.56,2.89,2.89,0,0,0-1.05-.17,2.62,2.62,0,0,0-.92.14,3.41,3.41,0,0,0-.69.34,2.14,2.14,0,0,0-.47.4A1.34,1.34,0,0,0,47,24h0V23H45.62v8.76H47.1V25a4,4,0,0,1,.69-.64,1.8,1.8,0,0,1,1.1-.33,1.36,1.36,0,0,1,1.14.49,2.64,2.64,0,0,1,.37,1.6v5.63h1.48V26a5.43,5.43,0,0,0-.18-1.51A2.57,2.57,0,0,0,51.19,23.52Zm42.87,7.06a1.62,1.62,0,0,1-.57.09.89.89,0,0,1-.8-.34,2.35,2.35,0,0,1-.24-1.27V24.21h1.92L94.55,23h-2.1V20.56H91.14L91,23l-1.06.22v1H91v5.05a3.07,3.07,0,0,0,.57,2.09,2.14,2.14,0,0,0,1.69.63,2.46,2.46,0,0,0,.94-.15,2.69,2.69,0,0,0,.43-.23l-.2-1.19A1.76,1.76,0,0,1,94.06,30.58Zm-6.34-7.06a1.8,1.8,0,0,0-.8-.56,3,3,0,0,0-1.06-.17,2.6,2.6,0,0,0-.91.14,3.17,3.17,0,0,0-.69.34,2.21,2.21,0,0,0-.48.4,2.34,2.34,0,0,0-.24.32h0V23H82.16v8.76h1.48V25a4,4,0,0,1,.69-.64A1.77,1.77,0,0,1,85.42,24a1.35,1.35,0,0,1,1.14.49,2.63,2.63,0,0,1,.38,1.6v5.63h1.48V26a5,5,0,0,0-.19-1.51A2.57,2.57,0,0,0,87.72,23.52ZM79.59,30.1a2.5,2.5,0,0,1-.38.26,2.75,2.75,0,0,1-.54.22,2.5,2.5,0,0,1-.69.09,2.08,2.08,0,0,1-1.71-.73,3.89,3.89,0,0,1-.66-2.28h4.47c0-.21,0-.45.07-.72s0-.6,0-1a3.49,3.49,0,0,0-.71-2.38,2.53,2.53,0,0,0-2-.79,3.1,3.1,0,0,0-1.29.26,3,3,0,0,0-1.06.81,4.19,4.19,0,0,0-.72,1.4,6.68,6.68,0,0,0-.27,2,7.73,7.73,0,0,0,.26,2.12,4.07,4.07,0,0,0,.72,1.46,2.84,2.84,0,0,0,1.13.85,4,4,0,0,0,1.49.27,4.35,4.35,0,0,0,1.08-.12,3.42,3.42,0,0,0,.76-.31,2.7,2.7,0,0,0,.5-.34l.27-.27-.55-1A1.81,1.81,0,0,1,79.59,30.1Zm-3.44-5.45A1.49,1.49,0,0,1,77.41,24a1.24,1.24,0,0,1,1.06.5,2.42,2.42,0,0,1,.37,1.42c0,.13,0,.25,0,.37s0,.2,0,.26H75.61A3.54,3.54,0,0,1,76.15,24.65Z"/></g></svg>