<svg xmlns="http://www.w3.org/2000/svg" viewBox="0 0 22 25">
  <g data-name="threema">
    <path d="M4 20a2 2 0 1 0 2 2 2 2 0 0 0-2-2Zm7 0a2 2 0 1 0 2 2 2 2 0 0 0-2-2Zm7 0a2 2 0 1 0 2 2 2 2 0 0 0-2-2Z" style="fill:RGB(64,230,106)"/>
    <path d="M11 5h-.2a1.4 1.4 0 0 0-1.3 1.4v1.8h3V6.5A1.4 1.4 0 0 0 11.1 5Z"/>
    <path d="M11 1C5.5 1 1 4.4 1 8.6a6.5 6.5 0 0 0 2 4.7 1.4 1.4 0 0 1 .3 1.6L2 17.5l4-1.3a5.7 5.7 0 0 1 1.7-.2 6 6 0 0 1 1 0 13.2 13.2 0 0 0 2.3.3c5.5 0 10-3.4 10-7.6S16.5 1 11 1Zm3.5 11.3c0 .3-.4.6-.8.6H8.1a.5.5 0 0 1-.5-.6V8.9a.6.6 0 0 1 .5-.7h.2V6.5a2.5 2.5 0 0 1 2.5-2.6h.3a2.6 2.6 0 0 1 2.6 2.6v1.8a.7.7 0 0 1 .8.7Z"/>
  </g>
</svg>
