<?xml version="1.0" encoding="utf-8"?>
<svg xmlns="http://www.w3.org/2000/svg" width="62.3" height="62.3">
  <path d="M52.3 62.2H10.1c-.6 0-1.2-.4-1.2-1.2V1.2c0-.6.5-1.2 1.2-1.2h42.2c.6 0 1.2.4 1.2 1.2V61c-.2.8-.6 1.2-1.2 1.2zM11.2 60h39.9V2.4H11.2V60z"/>
  <path d="M43.8 47.1H18.5c-.6 0-1.2-.4-1.2-1.2s.4-1.2 1.2-1.2h25.1c.6 0 1.2.4 1.2 1.2s-.4 1.2-1 1.2zM36.7 53.2H18.5c-.6 0-1.2-.4-1.2-1.2s.4-1.2 1.2-1.2h18.2c.6 0 1.2.4 1.2 1.2s-.6 1.2-1.2 1.2zM37.2 23.3c.7 1.2 1.3 1.2 2.2 1.2-.7-.6-1.2-1.3-1.5-1.6l-1.3-2.2.1-.4.7 1.2c.7 1.2 1.3 1.2 2.2 1.2-.7-.6-1.2-1.3-1.5-1.6l-1.3-2.2c-.1-.7-.4-1.3-1-1.8l.4-.1c-.9 0-1.8-.4-2.2-.4-.3 0-.4.1-.4.4 0 .3.3.6.9.6h.4c.3.4.4.7.4 1.3 0 .9-1.2 1.6-2.2 1.6H33a2 2 0 0 1-.6-1.3c0-.7.4-1.3.4-2.1 0-.4-.3-.7-.3-.9l.3-.4h-.3l-1.5-.1-.3.1-.7-.1c-.6 0-.7.3-.7.4l.3.7.6-.1c.3 0 .6.3.7.6h-.4l-1-.1s.1.3.4.4c.4.1 1 .1 1 .3l-.3.1-1-.3c0 .1.6.6 1 .7-.4.4-.9 1-1 1.8h-.1c-1.2 0-2.2-.7-2.2-1.6 0-.4.3-.9.4-1.3h.4c.6 0 .7-.3.9-.6 0-.3-.1-.4-.4-.4-.4 0-1.3.4-2.2.4l.4.1c-.6.4-.9 1-1 1.8l-1.3 2.2c-.3.3-.7 1-1.5 1.6.9 0 1.5 0 2.2-1.2l.7-1.2.1.4-1.3 2.2c-.3.4-.7 1-1.5 1.6.9 0 1.5 0 2.2-1.2l1.2-1.9.3.3-1.6 2.7c-.1.3-.6.9-1.2 1.5l-.6.6 1.2-.1c.3-.1.6-.4 1-1l1.6-2.7.3.1-2.1 3.3-.1.1-1.3 1.5c.9 0 1.5 0 2.2-1.2l.1-.3 1.9-3.1.4.1-1.8 3-.6.9c-.3.3-.7 1-1.5 1.6.9 0 1.5 0 2.2-1.2l.9-1.3 1.6-2.7.1.6a4 4 0 0 1-.7 2.1l-1 1.2h.7l-1 1.5-1-.1c-.3 0-.3.1-.3.3 0 .3.1.6.3.6 0-.1.1-.3.7-.3-.1.1-.6.6-.6 1 0 .3.3.6.6.6v-.1c0-.3.3-.6.4-.9v.1c0 .7 0 1 .4 1l.4-.1c-.3-.3-.3-.4-.3-.9v-.6h.3s.6 0 .7.3c.1-.1.4-.3.4-.6 0-.1-.1-.3-.4-.3h-.7l.7-1.2.3.4c0-.3.1-1 .6-1.5l.1 1.3c0 1.6-.4 3-1.3 3.1.1.1.3.3.6.3s.4-.3.6-.7l.4.7h.2l.4-.7c.1.3.3.7.6.7s.4-.1.6-.3c-.9-.3-1.3-1.5-1.3-3.1l.1-1.3c.4.4.6 1.3.6 1.5l.3-.4c.3.4.7.9.7 1.2H32c-.3 0-.4.1-.4.3 0 .3.3.4.4.6.1-.3.7-.3.7-.3h.3v.6c0 .4 0 .6-.3.9l.4.1c.4 0 .4-.3.4-1v-.1c.1.3.4.6.4.9v.1c.3 0 .6-.3.6-.6s-.6-.7-.6-1c.6 0 .7.1.7.3.1-.1.3-.3.3-.6 0-.1 0-.3-.3-.3l-1 .1-1-1.5h.7a4 4 0 0 1-1-1.2c-.4-.6-.7-1.3-.7-2.1l.1-.6 1.6 2.7.9 1.3c.7 1.2 1.3 1.2 2.2 1.2-.7-.6-1.2-1.3-1.5-1.6l-.6-.9-1.8-3 .4-.1 1.9 3.1.1.3c.7 1.2 1.3 1.2 2.2 1.2-.6-.4-1-1-1.3-1.5l-.1-.1-2.1-3.3.3-.1 1.6 2.7c.3.6.6.9 1 1l1.2.1.8-.2-1.2-1.5-1.6-2.7.3-.3 1.2 1.8z"/>
  <path d="M31.1 36.9a13.4 13.4 0 0 1-.4-26.8h.6c7.3 0 13.3 6 13.3 13.2v.1a13.6 13.6 0 0 1-13.5 13.5zm.1-24.5h-.4c-5.8.1-10.6 4.9-10.6 10.9 0 6.1 4.9 11.4 11.1 11.4s11.2-5.1 11.2-11.2v-.1c-.2-6.1-5.2-11-11.3-11z"/>
</svg>
