<svg xmlns="http://www.w3.org/2000/svg" width="41.5" height="41.5">
  <path data-name="world" d="M20.9 0h-1A20.2 20.2 0 0 0 0 20.3a21 21 0 0 0 20.7 21.2 20.8 20.8 0 0 0 20.8-20.8v-.2A20.7 20.7 0 0 0 20.9 0Zm10.4 20.7a32.6 32.6 0 0 1-1.2 8.9h-8.6v-9h9.8Zm-29.8 0h7.2a35 35 0 0 0 1.2 8.9H3.8a20 20 0 0 1-2.3-9Zm20-12V1.5a7.4 7.4 0 0 1 4.3 2.3A15.8 15.8 0 0 1 29 8.7Zm8 1.5a30.5 30.5 0 0 1 1.8 9h-9.8v-9ZM20 1.6v7.1h-7.6C14.2 4.7 17 2 20 1.6Zm0 8.6v9h-9.8a29.9 29.9 0 0 1 1.6-9Zm-11.3 9H1.6a18.6 18.6 0 0 1 2.8-9h5.8a31.7 31.7 0 0 0-1.5 9Zm1.5 1.4H20v9h-8.5a33.4 33.4 0 0 1-1.3-9ZM20 31.1V40a7.2 7.2 0 0 1-4.1-2.3 17.8 17.8 0 0 1-4-6.6Zm1.5 8.8v-8.8h8.1c-1.7 5-4.7 8.4-8.1 8.8Zm11.3-20.8a32.4 32.4 0 0 0-1.6-9h5.7a19 19 0 0 1 3 9Zm3-10.4h-5.2a17.9 17.9 0 0 0-3.8-6l-.4-.4a19.2 19.2 0 0 1 9.4 6.4ZM15 2.3a16.8 16.8 0 0 0-4.3 6.4H5.5A18.8 18.8 0 0 1 15 2.3ZM4.6 31.1h5.8a19.7 19.7 0 0 0 4.4 7.7l.4.4A19.3 19.3 0 0 1 4.6 31Zm21.6 8a18.9 18.9 0 0 0 5-8h5.7a19.4 19.4 0 0 1-10.7 8Zm11.6-9.5h-6.2a33.6 33.6 0 0 0 1.2-9H40a19.2 19.2 0 0 1-2.2 9Z" fill="#0077b6"/>
</svg>
