<svg xmlns="http://www.w3.org/2000/svg" viewBox="0 0 26 20">
  <g data-name="picture">
    <path d="M10.8 10.1a3.1 3.1 0 0 0 1 .7 3 3 0 0 0 1.2.2 3.3 3.3 0 0 0 1.2-.3 2.8 2.8 0 0 0 1-.6A2.8 2.8 0 0 0 16 8a2.8 2.8 0 0 0-.2-1.2 3 3 0 0 0-.6-1 3.1 3.1 0 0 0-1-.6 2.9 2.9 0 0 0-1.1-.2h-.2a2.8 2.8 0 0 0-1.1.2 3.1 3.1 0 0 0-1 .6 2.7 2.7 0 0 0-.6 1 3 3 0 0 0-.2 1.1v.2a2.8 2.8 0 0 0 .2 1.1 3 3 0 0 0 .6 1Z"/>
    <path d="M24.8 1H1.1a.3.3 0 0 0-.2.3v17.4a.3.3 0 0 0 .3.3h23.4a.3.3 0 0 0 .3-.3V1.4a.3.3 0 0 0-.3-.3ZM23 17h-6v-3.8a.3.3 0 0 0-.3-.2H9.3a.3.3 0 0 0-.3.3V17H3V3h20Z"/>
  </g>
</svg>
