<?xml version="1.0" encoding="utf-8"?>
<svg version="1.1" id="Ebene_1" xmlns="http://www.w3.org/2000/svg" x="0" y="0" viewBox="0 0 632.93 175.29" style="enable-background:new 0 0 632.93 175.29" xml:space="preserve">
  <style>
    .st0{fill:#0097a9}.st1{fill:#90cad4}.st2{fill:#58666d}
  </style>
  <path class="st0" d="m79.1 139.52 50.02-6.09-52.6 28.21a12.48 12.48 0 0 1-17.89-14.48l10.98-38.25 9.49 30.61z"/>
  <path class="st1" d="M86.24 112.04a9.89 9.89 0 1 1 9.36 17.43 9.89 9.89 0 0 1-9.36-17.43z"/>
  <path class="st0" d="M67.67 38.64 30.7 72.87l26.11-53.68a12.48 12.48 0 0 1 22.98 1.26L93.3 57.89 67.67 38.64z"/>
  <path class="st1" d="M78.26 65.13a9.9 9.9 0 1 1-17.8-8.66 9.9 9.9 0 0 1 17.8 8.66z"/>
  <path class="st0" d="M129.07 51.02 85.08 26.43l59.12 8.24a12.49 12.49 0 0 1 5.91 22.25l-31.43 24.41 10.39-30.31z"/>
  <path class="st1" d="M107.63 69.5a9.9 9.9 0 1 1 2.42-19.65 9.9 9.9 0 1 1-2.42 19.65z"/>
  <path class="st0" d="m136.11 113.71 9.36-49.51 10.94 58.68a12.48 12.48 0 0 1-19.23 12.64l-33.12-22.06 32.05.25z"/>
  <path class="st1" d="M112.09 98.57a9.9 9.9 0 1 1 19.45-3.63 9.9 9.9 0 0 1-19.45 3.63z"/>
  <g>
    <path class="st0" d="m36.71 93.23 21.13 45.74-42.98-41.41a12.48 12.48 0 0 1 8.3-21.47l39.78-1.28-26.23 18.42z"/>
    <path class="st1" d="M64.97 91.12a9.9 9.9 0 1 1-13.65 14.33 9.9 9.9 0 0 1 13.65-14.33z"/>
  </g>
  <g>
    <path class="st2" d="M206.94 43.32v4.28h-13.59v9.56h12.49v4.23h-12.49v13.29h-5.33V43.32h18.92zM210.63 53.28a23.08 23.08 0 0 1 4.4-1.87 16.82 16.82 0 0 1 8.36-.17 6.56 6.56 0 0 1 4.73 4.1c.45 1.11.67 2.46.67 4.06v15.28h-4.13l-.55-2.54h-.15a8.32 8.32 0 0 1-3.23 2.31c-1.23.48-2.59.72-4.08.72-2.36 0-4.25-.63-5.7-1.89a6.36 6.36 0 0 1-2.17-5.03c0-1.29.27-2.41.8-3.36a6.73 6.73 0 0 1 2.24-2.36 10.9 10.9 0 0 1 3.43-1.42c1.33-.31 2.79-.47 4.38-.47h3.98v-1.79c0-1.49-.4-2.53-1.19-3.11a5.48 5.48 0 0 0-3.28-.87c-.86 0-1.83.14-2.91.42-1.08.28-2.31.8-3.71 1.57l-1.89-3.58zm13.04 10.74-3.14.05c-2.36.07-4.01.48-4.98 1.24-.96.76-1.44 1.66-1.44 2.69 0 .66.11 1.21.32 1.64.22.43.51.78.87 1.04.36.27.79.46 1.27.57a6.73 6.73 0 0 0 4.53-.6 7.04 7.04 0 0 0 2.56-2.21v-4.42zM246.51 71.29c1.06 0 2-.12 2.81-.37s1.55-.54 2.21-.87l1.04 3.68c-.8.43-1.76.78-2.89 1.05-1.13.27-2.37.4-3.73.4-1.73 0-3.34-.26-4.85-.77a11 11 0 0 1-3.93-2.29 10.74 10.74 0 0 1-2.64-3.81c-.65-1.53-.97-3.3-.97-5.33 0-1.86.3-3.54.9-5.05.6-1.51 1.44-2.79 2.54-3.86a11.12 11.12 0 0 1 3.93-2.44 14.5 14.5 0 0 1 5.03-.85c1.03 0 2.06.08 3.11.25 1.04.17 2.2.55 3.46 1.14l-1.14 3.73a9.98 9.98 0 0 0-4.88-1.29 7.5 7.5 0 0 0-5.57 2.14c-1.43 1.43-2.14 3.45-2.14 6.07 0 1.59.22 2.93.67 4.01a7.16 7.16 0 0 0 1.77 2.61 6.5 6.5 0 0 0 2.46 1.42c.91.29 1.85.43 2.81.43zM262.48 74.67h-5.13V39.29h5.13v14.58a16.99 16.99 0 0 1 3.51-2.19 9.9 9.9 0 0 1 4.25-.9c1.33 0 2.49.2 3.48.6 1 .4 1.82.95 2.46 1.64s1.13 1.53 1.44 2.49c.31.96.47 2.01.47 3.14v16.02h-5.13V59.79c0-1.76-.37-3.02-1.09-3.78-.73-.76-1.79-1.14-3.19-1.14-1.03 0-2.08.26-3.16.77s-2.1 1.22-3.06 2.12v16.91zM289.8 66.31v8.36h-5.08V39.29h5.08v21.7l8.91-9.8h6.27l-9.46 9.9 9.9 13.59h-6.02l-7.42-10.55-2.18 2.18zM329.97 62.68c0 1.96-.31 3.72-.92 5.28a10.87 10.87 0 0 1-6.24 6.37c-1.43.56-2.97.85-4.63.85-1.66 0-3.19-.27-4.6-.8a10.54 10.54 0 0 1-3.68-2.31c-1.04-1.01-1.86-2.26-2.44-3.76s-.87-3.2-.87-5.13c0-1.99.31-3.75.92-5.28a11.36 11.36 0 0 1 2.51-3.88 10.52 10.52 0 0 1 3.73-2.41c1.43-.55 2.97-.82 4.63-.82 1.66 0 3.19.26 4.6.77 1.41.52 2.64 1.27 3.68 2.26 1.04 1 1.86 2.24 2.44 3.73.57 1.5.87 3.21.87 5.13zm-5.33.25c0-1.49-.18-2.76-.55-3.81a7.56 7.56 0 0 0-1.44-2.56 5.34 5.34 0 0 0-2.04-1.44 6.94 6.94 0 0 0-4.73-.05c-.76.27-1.44.71-2.04 1.34a6.65 6.65 0 0 0-1.42 2.54 12.9 12.9 0 0 0-.52 3.98c0 1.46.18 2.72.55 3.78a7.74 7.74 0 0 0 1.44 2.61c.6.68 1.29 1.18 2.07 1.49.78.32 1.57.47 2.36.47.8 0 1.58-.13 2.34-.4a5.05 5.05 0 0 0 2.04-1.37 6.88 6.88 0 0 0 1.42-2.59c.35-1.06.52-2.4.52-3.99zM340.22 74.67h-5.13V51.18h3.98l.7 3.14a13.63 13.63 0 0 1 3.53-2.59 9.8 9.8 0 0 1 4.43-.95c1.69 0 3.08.33 4.16 1a6.31 6.31 0 0 1 2.46 2.79 13 13 0 0 1 3.76-2.79c1.38-.66 2.89-1 4.55-1 2.46 0 4.3.67 5.55 2.02 1.24 1.34 1.87 3.24 1.87 5.7v16.17h-5.13V59.3c0-1.43-.31-2.52-.92-3.28-.61-.76-1.62-1.14-3.01-1.14-2.12 0-4.08.95-5.87 2.84v16.97h-5.13V59.3c0-1.43-.31-2.52-.92-3.28-.61-.76-1.62-1.14-3.01-1.14-2.12 0-4.08 1-5.87 2.99v16.8zM381.72 74.67h-5.13V51.18h3.98l.7 3.14a13.63 13.63 0 0 1 3.53-2.59 9.8 9.8 0 0 1 4.43-.95c1.69 0 3.08.33 4.16 1a6.31 6.31 0 0 1 2.46 2.79 13 13 0 0 1 3.76-2.79c1.38-.66 2.89-1 4.55-1 2.46 0 4.3.67 5.55 2.02 1.24 1.34 1.87 3.24 1.87 5.7v16.17h-5.13V59.3c0-1.43-.31-2.52-.92-3.28-.61-.76-1.62-1.14-3.01-1.14-2.12 0-4.08.95-5.87 2.84v16.97h-5.13V59.3c0-1.43-.31-2.52-.92-3.28-.61-.76-1.62-1.14-3.01-1.14-2.12 0-4.08 1-5.87 2.99v16.8zM421.24 45.36c-.9 0-1.61-.27-2.14-.82a2.86 2.86 0 0 1-.8-2.06c0-.83.27-1.52.8-2.07a2.83 2.83 0 0 1 2.14-.82 2.8 2.8 0 0 1 2.94 2.89c0 .86-.27 1.56-.82 2.09-.56.53-1.26.79-2.12.79zm-2.59 29.31V51.18h5.13v23.49h-5.13zM444.38 55.96c-1.06-.5-2.05-.85-2.96-1.07-.91-.22-1.82-.32-2.71-.32-1.39 0-2.45.26-3.16.77a2.44 2.44 0 0 0-1.07 2.07c0 .66.26 1.24.8 1.72.53.48 1.62.95 3.28 1.42l1.49.45c2.16.66 3.79 1.53 4.9 2.59a5.65 5.65 0 0 1 1.67 4.28c0 2.19-.83 3.96-2.49 5.3-1.66 1.34-3.93 2.02-6.82 2.02-1.56 0-3.01-.14-4.35-.42a16.27 16.27 0 0 1-3.61-1.17l1.19-3.88c.96.46 1.99.85 3.08 1.14 1.09.3 2.22.45 3.38.45 1.43 0 2.54-.25 3.33-.75.8-.5 1.19-1.26 1.19-2.29 0-.96-.36-1.65-1.07-2.07-.71-.41-1.82-.85-3.31-1.32l-1.54-.45c-2.09-.7-3.64-1.58-4.65-2.64a5.8 5.8 0 0 1-1.52-4.18c0-1.03.21-1.96.65-2.79a6.55 6.55 0 0 1 1.79-2.14 8.33 8.33 0 0 1 2.76-1.39 12.1 12.1 0 0 1 3.56-.5c1.23 0 2.48.12 3.76.35 1.28.23 2.46.6 3.56 1.09l-1.13 3.73zM465.08 55.96c-1.06-.5-2.05-.85-2.96-1.07-.91-.22-1.82-.32-2.71-.32-1.39 0-2.45.26-3.16.77a2.44 2.44 0 0 0-1.07 2.07c0 .66.26 1.24.8 1.72.53.48 1.62.95 3.28 1.42l1.49.45c2.16.66 3.79 1.53 4.9 2.59a5.65 5.65 0 0 1 1.67 4.28c0 2.19-.83 3.96-2.49 5.3-1.66 1.34-3.93 2.02-6.82 2.02-1.56 0-3.01-.14-4.35-.42a16.27 16.27 0 0 1-3.61-1.17l1.19-3.88c.96.46 1.99.85 3.08 1.14 1.09.3 2.22.45 3.38.45 1.43 0 2.54-.25 3.33-.75.8-.5 1.19-1.26 1.19-2.29 0-.96-.36-1.65-1.07-2.07-.71-.41-1.82-.85-3.31-1.32l-1.54-.45c-2.09-.7-3.64-1.58-4.65-2.64a5.8 5.8 0 0 1-1.52-4.18c0-1.03.21-1.96.65-2.79a6.55 6.55 0 0 1 1.79-2.14 8.33 8.33 0 0 1 2.76-1.39 12.1 12.1 0 0 1 3.56-.5c1.23 0 2.48.12 3.76.35 1.28.23 2.46.6 3.56 1.09l-1.13 3.73zM475.38 45.36c-.9 0-1.61-.27-2.14-.82a2.86 2.86 0 0 1-.8-2.06c0-.83.27-1.52.8-2.07a2.83 2.83 0 0 1 2.14-.82 2.8 2.8 0 0 1 2.94 2.89c0 .86-.27 1.56-.82 2.09-.55.53-1.26.79-2.12.79zm-2.59 29.31V51.18h5.13v23.49h-5.13zM506.98 62.68c0 1.96-.31 3.72-.92 5.28a10.87 10.87 0 0 1-6.24 6.37c-1.43.56-2.97.85-4.63.85s-3.19-.27-4.6-.8a10.54 10.54 0 0 1-3.68-2.31c-1.04-1.01-1.86-2.26-2.44-3.76s-.87-3.2-.87-5.13c0-1.99.31-3.75.92-5.28a11.36 11.36 0 0 1 2.51-3.88 10.52 10.52 0 0 1 3.73-2.41c1.43-.55 2.97-.82 4.63-.82s3.19.26 4.6.77c1.41.52 2.64 1.27 3.68 2.26 1.04 1 1.86 2.24 2.44 3.73.58 1.5.87 3.21.87 5.13zm-5.32.25c0-1.49-.18-2.76-.55-3.81a7.56 7.56 0 0 0-1.44-2.56 5.34 5.34 0 0 0-2.04-1.44 6.94 6.94 0 0 0-4.73-.05c-.76.27-1.44.71-2.04 1.34a6.65 6.65 0 0 0-1.42 2.54 12.9 12.9 0 0 0-.52 3.98c0 1.46.18 2.72.55 3.78a7.74 7.74 0 0 0 1.44 2.61c.6.68 1.29 1.18 2.07 1.49.78.32 1.57.47 2.36.47.8 0 1.58-.13 2.34-.4a5.05 5.05 0 0 0 2.04-1.37 6.88 6.88 0 0 0 1.42-2.59c.34-1.06.52-2.4.52-3.99zM517.24 74.67h-5.13V51.18h4.03l.7 3.14c1.16-1.13 2.38-2 3.66-2.61a10 10 0 0 1 4.35-.92c2.49 0 4.41.68 5.77 2.04 1.36 1.36 2.04 3.3 2.04 5.82v16.02h-5.13V59.3c0-1.36-.35-2.44-1.04-3.23-.7-.8-1.74-1.19-3.13-1.19-1.06 0-2.12.26-3.16.77a10.59 10.59 0 0 0-2.96 2.21v16.81zM192.81 91.32v31.35h-4.58V91.32h4.58zM204.51 122.67h-4.38V99.28h3.43l.65 3.23a13.32 13.32 0 0 1 3.66-2.66c1.28-.61 2.75-.92 4.4-.92 2.39 0 4.26.67 5.62 2.02 1.36 1.34 2.04 3.21 2.04 5.6v16.12h-4.38V107.2c0-1.43-.37-2.56-1.12-3.41-.75-.85-1.88-1.27-3.41-1.27-2.32 0-4.5 1.04-6.52 3.14v17.01zM238.74 102.57h-6.87v13.59c0 1.16.29 1.94.87 2.34.58.4 1.33.6 2.26.6a15.93 15.93 0 0 0 4.28-.74l.7 3.33a16.94 16.94 0 0 1-5.77 1c-2.32 0-4.01-.51-5.08-1.52-1.06-1.01-1.59-2.48-1.59-4.4v-14.18h-3.48v-3.28h3.48v-7.46h4.33v7.46h6.87v3.26zM264.47 111.48H247.7v.2c0 2.59.7 4.58 2.11 5.97s3.33 2.09 5.75 2.09c1.26 0 2.38-.1 3.36-.3.98-.2 2.05-.53 3.21-1l.9 3.24a16 16 0 0 1-3.41 1.04c-1.31.26-2.71.4-4.21.4-1.69 0-3.28-.23-4.75-.7a10.79 10.79 0 0 1-3.91-2.17 9.98 9.98 0 0 1-2.66-3.76 13.93 13.93 0 0 1-.97-5.47c0-1.82.27-3.48.82-4.98a11.06 11.06 0 0 1 2.31-3.81c1-1.04 2.2-1.86 3.61-2.44 1.41-.58 2.99-.87 4.75-.87 1.49 0 2.84.25 4.06.75a8.97 8.97 0 0 1 5.1 5.32c.46 1.26.7 2.65.7 4.18v2.31zm-4.53-3.14c0-.86-.11-1.67-.32-2.41a5.73 5.73 0 0 0-1-1.97 4.79 4.79 0 0 0-1.72-1.34 5.9 5.9 0 0 0-2.54-.5c-1.82 0-3.31.58-4.45 1.74a7.87 7.87 0 0 0-2.11 4.58l12.14-.1zM269.3 107.05c0-1.29.23-2.45.7-3.46a7 7 0 0 1 1.97-2.56 8.71 8.71 0 0 1 3.01-1.57 13.03 13.03 0 0 1 6.61-.17h10.1v3.23h-1.54l-3.98-.55a7.25 7.25 0 0 1 1.99 5.03c0 1.29-.23 2.45-.7 3.46a7.14 7.14 0 0 1-1.94 2.56 8.29 8.29 0 0 1-2.99 1.57c-1.16.35-2.42.52-3.78.52-1.03 0-1.92-.07-2.69-.2-.76.27-1.29.61-1.59 1.02-.3.42-.45.85-.45 1.32 0 .76.26 1.28.77 1.54.51.27 1.2.4 2.06.4h6.17c2.59 0 4.57.59 5.95 1.77a5.98 5.98 0 0 1 2.06 4.8c0 1.29-.28 2.45-.85 3.48a7.75 7.75 0 0 1-2.41 2.64 11.58 11.58 0 0 1-3.81 1.67 20.4 20.4 0 0 1-5.03.57c-3.38 0-6.08-.61-8.09-1.82a5.86 5.86 0 0 1-3.01-5.35c0-1.23.39-2.26 1.17-3.09a7.38 7.38 0 0 1 3.06-1.89 5.35 5.35 0 0 1-1.49-1.47c-.33-.51-.5-1.2-.5-2.07 0-1.03.31-1.91.92-2.64a6.26 6.26 0 0 1 2.51-1.74 7.13 7.13 0 0 1-3.11-2.61 8.07 8.07 0 0 1-1.09-4.39zm5.33 15.62c-1.69.76-2.54 1.96-2.54 3.58 0 2.92 2.36 4.38 7.07 4.38 1.39 0 2.57-.13 3.53-.4a7.49 7.49 0 0 0 2.34-1.04c.6-.43 1.04-.91 1.32-1.44.28-.53.42-1.08.42-1.64 0-1.39-.47-2.31-1.42-2.76a8.28 8.28 0 0 0-3.56-.67h-7.16zm9.1-15.52c0-1.76-.46-3.05-1.37-3.88a5.16 5.16 0 0 0-3.61-1.24 5.2 5.2 0 0 0-3.61 1.24c-.91.83-1.37 2.06-1.37 3.68 0 1.73.46 2.99 1.37 3.81a5.24 5.24 0 0 0 3.61 1.22c1.49 0 2.7-.4 3.61-1.19.92-.81 1.37-2.02 1.37-3.64zM296.47 122.67V99.28h3.29l.75 4.68a7.7 7.7 0 0 1 7.27-5.02 8.97 8.97 0 0 1 3.68.7l-.85 3.83a6.6 6.6 0 0 0-3.04-.7 7 7 0 0 0-2.66.5c-.81.33-1.53.83-2.14 1.49a7.17 7.17 0 0 0-1.44 2.46c-.35.98-.52 2.1-.52 3.36v12.09h-4.34zM314.59 101.38c.8-.4 1.54-.75 2.24-1.07a16.04 16.04 0 0 1 4.23-1.22c.73-.1 1.53-.15 2.39-.15 1.29 0 2.48.14 3.56.42 1.08.28 2.01.75 2.79 1.42a6.59 6.59 0 0 1 1.82 2.61c.43 1.08.65 2.43.65 4.06v15.23h-3.63l-.55-2.59h-.1a9.1 9.1 0 0 1-3.38 2.34 11.57 11.57 0 0 1-7.19.23 7.48 7.48 0 0 1-2.46-1.34 5.92 5.92 0 0 1-1.62-2.12 6.63 6.63 0 0 1-.57-2.79c0-2.46.97-4.32 2.91-5.6 1.94-1.28 4.5-1.92 7.69-1.92h4.48v-1.99c0-1.69-.43-2.84-1.29-3.46a5.9 5.9 0 0 0-3.48-.92c-.86 0-1.85.14-2.96.42a16.1 16.1 0 0 0-3.81 1.62l-1.72-3.18zm13.28 10.5-3.68.1c-2.49.07-4.26.51-5.3 1.32a3.65 3.65 0 0 0-1.57 2.96c0 .7.12 1.29.35 1.77.23.48.54.85.92 1.12.38.27.83.46 1.34.57a7.66 7.66 0 0 0 4.95-.6 7.87 7.87 0 0 0 2.99-2.46v-4.78zM351.22 102.57h-6.87v13.59c0 1.16.29 1.94.87 2.34.58.4 1.33.6 2.26.6a15.93 15.93 0 0 0 4.28-.74l.7 3.33a16.97 16.97 0 0 1-5.78 1c-2.32 0-4.01-.51-5.08-1.52s-1.59-2.48-1.59-4.4v-14.18h-3.48v-3.28h3.48v-7.46h4.33v7.46h6.87v3.26zM359.92 93.26a2.8 2.8 0 0 1-1.97-.77c-.55-.51-.82-1.15-.82-1.92s.27-1.41.82-1.94c.55-.53 1.2-.8 1.97-.8.73 0 1.38.27 1.94.8s.85 1.18.85 1.94-.28 1.4-.85 1.92c-.56.52-1.21.77-1.94.77zm-2.18 29.41V99.28h4.38v23.39h-4.38zM390.73 110.73c0 1.96-.3 3.71-.9 5.25a11.53 11.53 0 0 1-2.46 3.91 10.33 10.33 0 0 1-3.66 2.41c-1.39.55-2.9.82-4.53.82a12.8 12.8 0 0 1-4.5-.77c-1.38-.51-2.57-1.28-3.58-2.29s-1.81-2.26-2.39-3.73a13.9 13.9 0 0 1-.87-5.1c0-1.96.3-3.7.9-5.23.6-1.53 1.42-2.81 2.46-3.86 1.05-1.04 2.26-1.84 3.66-2.39s2.9-.82 4.53-.82 3.13.25 4.5.75a9.78 9.78 0 0 1 5.97 5.95c.58 1.48.87 3.18.87 5.1zm-4.58.25c0-1.56-.2-2.89-.6-3.98a7.8 7.8 0 0 0-1.57-2.69 5.93 5.93 0 0 0-2.21-1.52 7.18 7.18 0 0 0-2.54-.47c-.86 0-1.71.13-2.54.4-.83.27-1.56.73-2.19 1.39a7.16 7.16 0 0 0-1.52 2.66 13.17 13.17 0 0 0-.57 4.21c0 1.56.2 2.9.6 4.01a7.8 7.8 0 0 0 1.57 2.71c.65.7 1.38 1.21 2.21 1.54s1.68.5 2.54.5 1.71-.14 2.54-.42a5.24 5.24 0 0 0 2.19-1.44 7.47 7.47 0 0 0 1.52-2.69c.38-1.12.57-2.52.57-4.21zM400.43 122.67h-4.38V99.28h3.43l.65 3.23a13.32 13.32 0 0 1 3.66-2.66c1.28-.61 2.75-.92 4.4-.92 2.39 0 4.26.67 5.62 2.02s2.04 3.21 2.04 5.6v16.12h-4.38V107.2c0-1.43-.37-2.56-1.12-3.41-.75-.85-1.88-1.27-3.41-1.27-2.32 0-4.5 1.04-6.52 3.14v17.01zM435.77 103.66a12.32 12.32 0 0 0-5.68-1.39c-1.59 0-2.77.29-3.53.87a2.76 2.76 0 0 0-1.14 2.31c0 .7.27 1.3.8 1.82s1.64 1.02 3.33 1.52l1.49.45c2.22.66 3.91 1.52 5.05 2.56s1.72 2.46 1.72 4.25c0 2.12-.79 3.83-2.36 5.13-1.58 1.29-3.77 1.94-6.59 1.94-1.49 0-2.93-.13-4.3-.4a15.77 15.77 0 0 1-3.56-1.09l1.04-3.43c.96.46 2.01.84 3.13 1.12 1.13.28 2.27.42 3.43.42 1.49 0 2.68-.26 3.56-.8.88-.53 1.32-1.41 1.32-2.64 0-1.06-.38-1.82-1.14-2.26-.76-.45-1.86-.89-3.29-1.32l-1.54-.5c-2.16-.7-3.76-1.57-4.8-2.61a5.53 5.53 0 0 1-1.57-4.06 6.05 6.05 0 0 1 2.42-4.83c.75-.56 1.63-1 2.66-1.32a11.7 11.7 0 0 1 3.38-.47c1.16 0 2.36.11 3.61.32 1.24.22 2.43.57 3.56 1.07l-1 3.34zM451.69 87.09c.93 0 1.9.13 2.91.4 1.01.27 1.92.6 2.71 1l-.9 3.04c-.66-.27-1.29-.47-1.89-.62a7.77 7.77 0 0 0-1.89-.22c-1.59 0-2.73.45-3.41 1.34-.68.9-1.02 2.42-1.02 4.58v2.69h7.12v3.28h-7.12v20.11h-4.33v-20.11h-3.43V99.3h3.43v-4.13c0-2.59.67-4.58 2.01-5.97 1.36-1.41 3.29-2.11 5.81-2.11zM458.66 101.38c.8-.4 1.54-.75 2.24-1.07a16.04 16.04 0 0 1 4.23-1.22c.73-.1 1.53-.15 2.39-.15 1.29 0 2.48.14 3.56.42 1.08.28 2.01.75 2.79 1.42a6.59 6.59 0 0 1 1.82 2.61c.43 1.08.65 2.43.65 4.06v15.23h-3.63l-.55-2.59h-.1a9.1 9.1 0 0 1-3.38 2.34 11.57 11.57 0 0 1-7.19.23 7.48 7.48 0 0 1-2.46-1.34 5.92 5.92 0 0 1-1.62-2.12 6.63 6.63 0 0 1-.57-2.79c0-2.46.97-4.32 2.91-5.6 1.94-1.28 4.5-1.92 7.69-1.92h4.48v-1.99c0-1.69-.43-2.84-1.29-3.46a5.9 5.9 0 0 0-3.48-.92c-.86 0-1.85.14-2.96.42a16.1 16.1 0 0 0-3.81 1.62l-1.72-3.18zm2.54-9.71c0-.63.25-1.19.75-1.69a2.39 2.39 0 0 1 3.48 0c.5.5.75 1.06.75 1.69 0 .66-.25 1.25-.75 1.77-.5.51-1.08.77-1.74.77-.66 0-1.24-.26-1.74-.77a2.49 2.49 0 0 1-.75-1.77zm10.75 20.21-3.68.1c-2.49.07-4.26.51-5.3 1.32a3.65 3.65 0 0 0-1.57 2.96c0 .7.12 1.29.35 1.77.23.48.54.85.92 1.12.38.27.83.46 1.34.57a7.66 7.66 0 0 0 4.95-.6 7.87 7.87 0 0 0 2.99-2.46v-4.78zm-2.49-20.21c0-.63.25-1.19.75-1.69a2.39 2.39 0 0 1 3.48 0c.5.5.75 1.06.75 1.69 0 .66-.25 1.25-.75 1.77-.5.51-1.08.77-1.74.77-.66 0-1.24-.26-1.74-.77a2.49 2.49 0 0 1-.75-1.77zM487.18 122.67h-4.38V87.34h4.38v14.93a15.73 15.73 0 0 1 3.63-2.39 10.1 10.1 0 0 1 4.38-.95c1.29 0 2.42.19 3.38.57a6.15 6.15 0 0 1 3.75 4c.32.93.47 1.94.47 3.04v16.12h-4.38v-15.03c0-1.79-.37-3.09-1.09-3.91-.73-.81-1.84-1.22-3.33-1.22a7.6 7.6 0 0 0-3.41.85 14.84 14.84 0 0 0-3.41 2.39v16.93zM512.51 93.26a2.8 2.8 0 0 1-1.97-.77c-.55-.51-.82-1.15-.82-1.92s.27-1.41.82-1.94c.55-.53 1.2-.8 1.97-.8.73 0 1.38.27 1.94.8s.85 1.18.85 1.94-.28 1.4-.85 1.92-1.21.77-1.94.77zm-2.19 29.41V99.28h4.38v23.39h-4.38zM521.51 107.05c0-1.29.23-2.45.7-3.46a7 7 0 0 1 1.97-2.56 8.71 8.71 0 0 1 3.01-1.57 13.03 13.03 0 0 1 6.61-.17h10.1v3.23h-1.54l-3.98-.55a7.25 7.25 0 0 1 1.99 5.03c0 1.29-.23 2.45-.7 3.46a7.14 7.14 0 0 1-1.94 2.56c-.83.7-1.83 1.22-2.99 1.57s-2.42.52-3.78.52c-1.03 0-1.92-.07-2.69-.2-.76.27-1.29.61-1.59 1.02-.3.42-.45.85-.45 1.32 0 .76.26 1.28.77 1.54.51.27 1.2.4 2.07.4h6.17c2.59 0 4.57.59 5.95 1.77a5.98 5.98 0 0 1 2.06 4.8c0 1.29-.28 2.45-.85 3.48a7.75 7.75 0 0 1-2.41 2.64 11.58 11.58 0 0 1-3.81 1.67 20.4 20.4 0 0 1-5.03.57c-3.38 0-6.08-.61-8.09-1.82a5.86 5.86 0 0 1-3.01-5.35c0-1.23.39-2.26 1.17-3.09a7.38 7.38 0 0 1 3.06-1.89 5.35 5.35 0 0 1-1.49-1.47c-.33-.51-.5-1.2-.5-2.07 0-1.03.31-1.91.92-2.64a6.26 6.26 0 0 1 2.51-1.74 7.13 7.13 0 0 1-3.11-2.61 8.07 8.07 0 0 1-1.1-4.39zm5.33 15.62c-1.69.76-2.54 1.96-2.54 3.58 0 2.92 2.36 4.38 7.07 4.38 1.39 0 2.57-.13 3.53-.4a7.49 7.49 0 0 0 2.34-1.04c.6-.43 1.04-.91 1.32-1.44.28-.53.42-1.08.42-1.64 0-1.39-.47-2.31-1.42-2.76a8.28 8.28 0 0 0-3.56-.67h-7.16zm9.11-15.52c0-1.76-.46-3.05-1.37-3.88-.91-.83-2.12-1.24-3.61-1.24s-2.7.42-3.61 1.24c-.91.83-1.37 2.06-1.37 3.68 0 1.73.46 2.99 1.37 3.81.91.81 2.11 1.22 3.61 1.22s2.7-.4 3.61-1.19c.91-.81 1.37-2.02 1.37-3.64zM553.16 114.12v8.56h-4.33V87.34h4.33v22l9.41-10.05H568l-9.6 9.85 10.05 13.54h-5.18l-7.76-10.9-2.35 2.34zM590.94 111.48h-16.77v.2c0 2.59.7 4.58 2.12 5.97 1.41 1.39 3.33 2.09 5.75 2.09 1.26 0 2.38-.1 3.36-.3.98-.2 2.05-.53 3.21-1l.9 3.24a16 16 0 0 1-3.41 1.04c-1.31.26-2.71.4-4.21.4-1.69 0-3.28-.23-4.75-.7a10.79 10.79 0 0 1-3.91-2.17 9.98 9.98 0 0 1-2.66-3.76 13.93 13.93 0 0 1-.97-5.47c0-1.82.27-3.48.82-4.98a11.06 11.06 0 0 1 2.31-3.81c1-1.04 2.2-1.86 3.61-2.44 1.41-.58 2.99-.87 4.75-.87 1.49 0 2.84.25 4.06.75a8.97 8.97 0 0 1 5.1 5.32c.46 1.26.7 2.65.7 4.18v2.31zm-4.53-3.14c0-.86-.11-1.67-.32-2.41a5.73 5.73 0 0 0-1-1.97 4.79 4.79 0 0 0-1.72-1.34 5.9 5.9 0 0 0-2.54-.5c-1.83 0-3.31.58-4.45 1.74a7.94 7.94 0 0 0-2.12 4.58l12.15-.1zM599 93.26a2.8 2.8 0 0 1-1.97-.77c-.55-.51-.82-1.15-.82-1.92s.27-1.41.82-1.94c.55-.53 1.2-.8 1.97-.8.73 0 1.38.27 1.94.8s.85 1.18.85 1.94-.28 1.4-.85 1.92-1.21.77-1.94.77zm-2.19 29.41V99.28h4.38v23.39h-4.38zM620.65 102.57h-6.87v13.59c0 1.16.29 1.94.87 2.34.58.4 1.33.6 2.26.6a15.93 15.93 0 0 0 4.28-.74l.7 3.33a16.97 16.97 0 0 1-5.78 1c-2.32 0-4.01-.51-5.08-1.52s-1.59-2.48-1.59-4.4v-14.18h-3.48v-3.28h3.48v-7.46h4.33v7.46h6.87v3.26z"/>
  </g>
</svg>
