<svg xmlns="http://www.w3.org/2000/svg" width="41.501" height="41.5" viewBox="0 0 41.501 41.5">
  <g id="Gruppe_3509" data-name="email-outline" transform="translate(-9 -9)">
    <g id="Gruppe_3508" data-name="Gruppe 3508" transform="translate(-1.406 -1.406)">
      <path id="Pfad_3668" data-name="Pfad 3668" d="M51.884,29.509a.754.754,0,0,0-.342-.465l-6.069-4.155V11.156a.75.75,0,0,0-.75-.75H17.59a.75.75,0,0,0-.75.75V24.883l-6.062,4.156a.749.749,0,0,0-.372.648V51.156a.75.75,0,0,0,.75.75h40a.75.75,0,0,0,.75-.75V29.719A.743.743,0,0,0,51.884,29.509Zm-6.411-2.8,4.24,2.9-4.24,2.276Zm-28.633,0v5.152l-4.216-2.262Zm33.566,23.7h-38.5v-19.5l11.069,5.939a.75.75,0,1,0,.709-1.321l-5.358-2.876a.748.748,0,0,0,.014-.144v-20.6H43.973V25.243c0,.026,0,.053,0,.079v7.369l-5.347,2.87a.75.75,0,0,0,.709,1.322l11.071-5.942Z" fill="#0077b6"/>
      <path id="Pfad_3669" data-name="Pfad 3669" d="M30.2,34.691,14.944,46.967a.75.75,0,1,0,.94,1.169l14.8-11.91L46.445,48.149a.75.75,0,1,0,.9-1.2L31.127,34.677A.751.751,0,0,0,30.2,34.691Z" fill="#0077b6"/>
      <path id="Pfad_3670" data-name="Pfad 3670" d="M31.151,31.905h.057a8.406,8.406,0,0,0,4.786-1.487.75.75,0,0,0-.85-1.236A6.919,6.919,0,0,1,31.2,30.405a.246.246,0,0,1-.047,0,7.068,7.068,0,1,1,7.063-7.067,2.461,2.461,0,0,1-.513,1.638,1.432,1.432,0,0,1-1.113.5h0a1.51,1.51,0,0,1-1.632-1.465v-.649c0-.01,0-.019,0-.029a3.854,3.854,0,1,0-.911,2.442,3.138,3.138,0,0,0,2.54,1.2h0a2.93,2.93,0,0,0,2.246-1.021,3.922,3.922,0,0,0,.88-2.621,8.565,8.565,0,1,0-8.568,8.567Zm0-6.261a2.307,2.307,0,1,1,2.306-2.316l0,.01v.028A2.308,2.308,0,0,1,31.155,25.644Z" fill="#0077b6"/>
    </g>
  </g>
</svg>
