<svg xmlns="http://www.w3.org/2000/svg" viewBox="0 0 172 95">
  <g style="isolation:isolate">
    <g style="mix-blend-mode:multiply" data-name="bpa-logo">
      <path d="M62.91 14.84V2.25h2.37a9.65 9.65 0 0 1 2.72.33 4.6 4.6 0 0 1 1.9 1A4.16 4.16 0 0 1 71 5.47a8.93 8.93 0 0 1 .37 2.77 9.09 9.09 0 0 1-.44 3 5.24 5.24 0 0 1-1.24 2 5 5 0 0 1-2 1.19 8.12 8.12 0 0 1-2.6.38ZM64.5 3.51v10h.6a6 6 0 0 0 1.9-.26 3.43 3.43 0 0 0 1.43-.92 4 4 0 0 0 .88-1.64 8.68 8.68 0 0 0 .3-2.45A7.52 7.52 0 0 0 69.35 6a3.55 3.55 0 0 0-.85-1.46 3.17 3.17 0 0 0-1.37-.79 6.53 6.53 0 0 0-1.85-.24Zm10.31 11.33h-1.48V6.08h1.48ZM74.08 4a.93.93 0 0 1-.73-.3 1 1 0 0 1-.28-.76 1 1 0 0 1 .28-.75 1 1 0 0 1 .73-.29.94.94 0 0 1 .71.29 1 1 0 0 1 .27.75 1.07 1.07 0 0 1-.27.76.91.91 0 0 1-.71.3Zm8.61 5a9.37 9.37 0 0 1 0 1c0 .27 0 .51-.07.72h-4.51a3.88 3.88 0 0 0 .67 2.28 2 2 0 0 0 1.7.73 2.53 2.53 0 0 0 .7-.09 2.92 2.92 0 0 0 .53-.22 2.63 2.63 0 0 0 .39-.26l.23-.2.54 1-.27.27a2.59 2.59 0 0 1-.49.34 3.25 3.25 0 0 1-.77.3 3.8 3.8 0 0 1-1.08.13 3.9 3.9 0 0 1-1.48-.27 2.81 2.81 0 0 1-1.14-.85 4.07 4.07 0 0 1-.72-1.46 7.78 7.78 0 0 1-.25-2.13 7 7 0 0 1 .26-2 4.19 4.19 0 0 1 .72-1.4 3 3 0 0 1 1.06-.81A3.15 3.15 0 0 1 80 5.86a2.52 2.52 0 0 1 2 .8A3.49 3.49 0 0 1 82.69 9Zm-2.77-2a1.46 1.46 0 0 0-1.26.66 3.53 3.53 0 0 0-.55 1.89h3.19a1.32 1.32 0 0 0 0-.26v-.37a2.42 2.42 0 0 0-.3-1.35 1.25 1.25 0 0 0-1.08-.5ZM69.51 23.87a3.67 3.67 0 0 1-.16 1.13 2.7 2.7 0 0 1-.45.84 2.38 2.38 0 0 1-.65.58 3 3 0 0 1-.78.33 2.92 2.92 0 0 1 .92.35 2.71 2.71 0 0 1 .75.64 3.29 3.29 0 0 1 .51.9 3.25 3.25 0 0 1 .19 1.14 3.56 3.56 0 0 1-.25 1.37 2.73 2.73 0 0 1-.8 1.08 3.89 3.89 0 0 1-1.36.71 6.53 6.53 0 0 1-2 .26h-2.52V20.65h2.42a7 7 0 0 1 1.91.23 3.57 3.57 0 0 1 1.31.65 2.53 2.53 0 0 1 .74 1 3.75 3.75 0 0 1 .22 1.34Zm-1.6.05a1.88 1.88 0 0 0-.62-1.44 2.85 2.85 0 0 0-2-.57h-.79v4.35h.82a2.73 2.73 0 0 0 1.93-.62 2.26 2.26 0 0 0 .66-1.72Zm.24 5.8a2.07 2.07 0 0 0-.67-1.61 2.75 2.75 0 0 0-1.91-.59H64.5v4.41h1a3.05 3.05 0 0 0 2-.55 2.11 2.11 0 0 0 .65-1.66Zm9.78 3.53h-1.35v-1a2.39 2.39 0 0 1-.7.72 3.17 3.17 0 0 1-.69.34 2.48 2.48 0 0 1-.89.15 2.89 2.89 0 0 1-1.05-.18 1.83 1.83 0 0 1-.79-.55 2.69 2.69 0 0 1-.51-1 5.85 5.85 0 0 1-.17-1.5v-5.74h1.48v5.64a2.68 2.68 0 0 0 .35 1.56 1.31 1.31 0 0 0 1.11.46 1.77 1.77 0 0 0 1.08-.32 3.59 3.59 0 0 0 .69-.63v-6.71h1.48Zm7 0v-5.64A2.66 2.66 0 0 0 84.6 26a1.36 1.36 0 0 0-1.14-.48 1.78 1.78 0 0 0-1.1.33 4 4 0 0 0-.69.63v6.76h-1.48v-8.75h1.35v1a1.54 1.54 0 0 1 .23-.32 2.48 2.48 0 0 1 .48-.4 3.41 3.41 0 0 1 .69-.34 2.87 2.87 0 0 1 .92-.14 3.17 3.17 0 0 1 1 .17 1.91 1.91 0 0 1 .81.56 2.64 2.64 0 0 1 .51 1 5.43 5.43 0 0 1 .18 1.51v5.75ZM88.26 29a6.21 6.21 0 0 1 .34-2.22 3.94 3.94 0 0 1 .9-1.44 3 3 0 0 1 1.24-.78 4.45 4.45 0 0 1 1.39-.23 3.17 3.17 0 0 1 .73.07 2.6 2.6 0 0 1 .51.15v-4.2l1.48-.16v13.06h-1.36v-.93c0 .07-.11.17-.2.3a2.1 2.1 0 0 1-.4.38 2.4 2.4 0 0 1-.64.33 2.74 2.74 0 0 1-.9.14 2.93 2.93 0 0 1-1.17-.25 2.46 2.46 0 0 1-1-.79 4.13 4.13 0 0 1-.67-1.38 7.67 7.67 0 0 1-.25-2.05Zm3.46 3.16a1.93 1.93 0 0 0 .62-.09 1.79 1.79 0 0 0 .48-.23 2 2 0 0 0 .34-.28 2 2 0 0 0 .21-.26v-5.4a2.56 2.56 0 0 0-.47-.22 2.06 2.06 0 0 0-.66-.09 2.52 2.52 0 0 0-1 .18 1.8 1.8 0 0 0-.78.57 3 3 0 0 0-.52 1 5.48 5.48 0 0 0-.19 1.57 5.9 5.9 0 0 0 .25 1.55 2.84 2.84 0 0 0 .42 1 1.58 1.58 0 0 0 1.35.7Zm11-4.71a9.25 9.25 0 0 1 0 1c0 .27 0 .51-.07.72h-4.5a3.94 3.94 0 0 0 .66 2.28 2.08 2.08 0 0 0 1.71.73 2.4 2.4 0 0 0 .69-.09 2.25 2.25 0 0 0 .54-.22 3.31 3.31 0 0 0 .39-.25l.22-.2.55 1-.27.26a2.59 2.59 0 0 1-.49.35 4.42 4.42 0 0 1-.77.3 4.26 4.26 0 0 1-1.08.13 4 4 0 0 1-1.49-.28 2.76 2.76 0 0 1-1.13-.85 4.07 4.07 0 0 1-.68-1.45 7.75 7.75 0 0 1-.25-2.12 6.74 6.74 0 0 1 .26-2 4.29 4.29 0 0 1 .72-1.4 3 3 0 0 1 1.06-.81 3.28 3.28 0 0 1 1.3-.26 2.51 2.51 0 0 1 2 .79 3.51 3.51 0 0 1 .64 2.36Zm-2.77-2a1.46 1.46 0 0 0-1.26.66 3.57 3.57 0 0 0-.55 1.9h3.19v-.64A2.35 2.35 0 0 0 101 26a1.22 1.22 0 0 0-1-.53Zm8.52.79a4.33 4.33 0 0 0-.53-.45 1.66 1.66 0 0 0-1-.28 1.33 1.33 0 0 0-.89.27.83.83 0 0 0-.31.66 1.16 1.16 0 0 0 .28.81 4 4 0 0 0 .87.68l.55.33a5.76 5.76 0 0 1 1.4 1.14 2.4 2.4 0 0 1 .51 1.58 2.35 2.35 0 0 1-.72 1.75 2.8 2.8 0 0 1-2.07.72 3.71 3.71 0 0 1-.93-.11 4.3 4.3 0 0 1-.7-.26 2.15 2.15 0 0 1-.5-.32 2 2 0 0 1-.33-.32l.71-1.17.26.26a2.34 2.34 0 0 0 .38.28 2.22 2.22 0 0 0 .49.23 2.06 2.06 0 0 0 .64.09 1.53 1.53 0 0 0 1-.29.89.89 0 0 0 .35-.71 1.71 1.71 0 0 0-.08-.54 1.33 1.33 0 0 0-.25-.41 2.33 2.33 0 0 0-.4-.35l-.55-.36-.54-.35a5.18 5.18 0 0 1-1.29-1.12 2.34 2.34 0 0 1-.47-1.5 2 2 0 0 1 .2-.9 2 2 0 0 1 .53-.71 2.77 2.77 0 0 1 .82-.48 2.94 2.94 0 0 1 1-.17 3.28 3.28 0 0 1 .88.1 3.06 3.06 0 0 1 .63.25 3.46 3.46 0 0 1 .43.31l.29.27Zm6.46-.48-.24-.09a2 2 0 0 0-.49-.05 1.52 1.52 0 0 0-1.09.37 2.2 2.2 0 0 0-.55.81v6.43h-1.48v-8.74h1.35v1.18a3.8 3.8 0 0 1 .24-.5 1.92 1.92 0 0 1 .37-.44 1.87 1.87 0 0 1 .52-.3 2.18 2.18 0 0 1 .72-.11 1.75 1.75 0 0 1 .5.06l.3.09Zm6.86 1.66a9.25 9.25 0 0 1 0 1c0 .27 0 .51-.07.72h-4.47a3.86 3.86 0 0 0 .67 2.28 2 2 0 0 0 1.7.73 2.53 2.53 0 0 0 .7-.09 2.35 2.35 0 0 0 .53-.22 2.64 2.64 0 0 0 .39-.25l.23-.2.54 1-.27.26a2.59 2.59 0 0 1-.49.35 4.42 4.42 0 0 1-.77.3 4.2 4.2 0 0 1-1.08.13 3.9 3.9 0 0 1-1.48-.28 2.72 2.72 0 0 1-1.14-.85 4.07 4.07 0 0 1-.72-1.46 7.75 7.75 0 0 1-.25-2.12 7.08 7.08 0 0 1 .26-2 4.29 4.29 0 0 1 .72-1.4 3 3 0 0 1 1.06-.81 3.32 3.32 0 0 1 1.3-.26 2.51 2.51 0 0 1 2 .79 3.51 3.51 0 0 1 .65 2.4Zm-2.77-2a1.46 1.46 0 0 0-1.26.66 3.57 3.57 0 0 0-.55 1.9h3.19a1.45 1.45 0 0 0 0-.27v-.37a2.35 2.35 0 0 0-.37-1.42 1.22 1.22 0 0 0-1.03-.45Zm11 .17H129a3 3 0 0 1 .42 1.57 3.31 3.31 0 0 1-.22 1.25 2.85 2.85 0 0 1-.64.94 2.88 2.88 0 0 1-1 .58 3.6 3.6 0 0 1-1.2.2h-.47a1.83 1.83 0 0 0-.46.29.7.7 0 0 0-.23.53.54.54 0 0 0 .21.45 1 1 0 0 0 .68.17h1.11a5.12 5.12 0 0 1 1.15.13 2.72 2.72 0 0 1 .93.41 2 2 0 0 1 .61.72 2.47 2.47 0 0 1 .22 1.06 2.69 2.69 0 0 1-.31 1.3 3 3 0 0 1-.84 1 4.2 4.2 0 0 1-1.34.66 5.92 5.92 0 0 1-1.75.24 3.22 3.22 0 0 1-2.13-.62 2.14 2.14 0 0 1-.73-1.76 1.83 1.83 0 0 1 .17-.84 2.85 2.85 0 0 1 .41-.63 3 3 0 0 1 .48-.42l.4-.24a1.43 1.43 0 0 1-.57-1.22 1.27 1.27 0 0 1 .14-.6 1.53 1.53 0 0 1 .31-.42 2 2 0 0 1 .34-.27l.27-.13a2.51 2.51 0 0 1-1.09-1 3.67 3.67 0 0 1-.17-3 2.57 2.57 0 0 1 .64-.92 2.54 2.54 0 0 1 .94-.55 3.62 3.62 0 0 1 1.16-.18 3.08 3.08 0 0 1 1.17.22h2.66ZM126 33a3.49 3.49 0 0 1-.68 0 2 2 0 0 0-.31.22 1.44 1.44 0 0 0-.29.31 1.68 1.68 0 0 0-.29 1c0 .94.52 1.41 1.55 1.41a3.11 3.11 0 0 0 2-.52 1.52 1.52 0 0 0 .64-1.2 1 1 0 0 0-.4-.9 1.92 1.92 0 0 0-1.08-.27Zm2-5.76a1.75 1.75 0 0 0-.44-1.35 1.53 1.53 0 0 0-1-.41 1.61 1.61 0 0 0-1.1.41 1.72 1.72 0 0 0-.46 1.35 1.74 1.74 0 0 0 .46 1.35 1.64 1.64 0 0 0 2.15 0 1.78 1.78 0 0 0 .32-1.38Zm5.28 6h-1.48v-8.75h1.48Zm-.73-10.88a1 1 0 0 1-.73-.29 1.06 1.06 0 0 1-.28-.77 1 1 0 0 1 .28-.75 1 1 0 0 1 .73-.29.94.94 0 0 1 .71.29 1.08 1.08 0 0 1 .27.75 1.1 1.1 0 0 1-.27.77.94.94 0 0 1-.78.3Zm8.61 5.07a9.25 9.25 0 0 1 0 1c0 .27 0 .51-.07.72h-4.47a3.86 3.86 0 0 0 .67 2.28 2 2 0 0 0 1.7.73 2.53 2.53 0 0 0 .7-.09 2.35 2.35 0 0 0 .53-.22 2.64 2.64 0 0 0 .39-.25l.23-.2.54 1-.27.26a2.59 2.59 0 0 1-.49.35 4.42 4.42 0 0 1-.77.3 4.2 4.2 0 0 1-1.08.13 3.9 3.9 0 0 1-1.48-.28 2.72 2.72 0 0 1-1.14-.85 4.07 4.07 0 0 1-.72-1.46 7.75 7.75 0 0 1-.25-2.12 7.08 7.08 0 0 1 .26-2 4.29 4.29 0 0 1 .72-1.4 3 3 0 0 1 1.06-.81 3.32 3.32 0 0 1 1.3-.26 2.51 2.51 0 0 1 2 .79 3.51 3.51 0 0 1 .57 2.39Zm-2.77-2a1.46 1.46 0 0 0-1.26.66 3.57 3.57 0 0 0-.55 1.9h3.19a.91.91 0 0 0 0-.27v-.37a2.42 2.42 0 0 0-.36-1.42 1.25 1.25 0 0 0-1.09-.46Zm8.59.31-.23-.09a2.2 2.2 0 0 0-.5-.05 1.49 1.49 0 0 0-1.08.37 2.24 2.24 0 0 0-.56.81v6.43h-1.48v-8.72h1.35v1.18a2.85 2.85 0 0 1 .24-.5 1.88 1.88 0 0 1 .36-.44 2 2 0 0 1 .52-.3 2.18 2.18 0 0 1 .72-.11 1.66 1.66 0 0 1 .5.06l.31.09Zm7.59 7.47h-1.35v-1a2.34 2.34 0 0 1-.24.32 2.64 2.64 0 0 1-.46.4 3.17 3.17 0 0 1-.69.34 2.56 2.56 0 0 1-.89.15 2.89 2.89 0 0 1-1.05-.18 1.92 1.92 0 0 1-.8-.55 2.68 2.68 0 0 1-.5-1 5.85 5.85 0 0 1-.17-1.5v-5.7h1.48v5.64a2.6 2.6 0 0 0 .35 1.56 1.31 1.31 0 0 0 1.11.46 1.72 1.72 0 0 0 1.07-.32 3.68 3.68 0 0 0 .7-.63v-6.71h1.47Zm7.05 0v-5.6a2.73 2.73 0 0 0-.37-1.6 1.36 1.36 0 0 0-1.15-.48 1.77 1.77 0 0 0-1.09.33 4 4 0 0 0-.69.63v6.76h-1.48v-8.76h1.35v1a2.34 2.34 0 0 1 .24-.32 2.21 2.21 0 0 1 .48-.4 3.17 3.17 0 0 1 .69-.34 2.85 2.85 0 0 1 .91-.14 3.23 3.23 0 0 1 1.06.17 1.88 1.88 0 0 1 .8.56 2.64 2.64 0 0 1 .51 1 5 5 0 0 1 .12 1.48v5.75Zm10-7.61h-1.09a3 3 0 0 1 .42 1.57 3.31 3.31 0 0 1-.23 1.25 2.58 2.58 0 0 1-.64.94 2.7 2.7 0 0 1-1 .58 3.58 3.58 0 0 1-1.19.2h-.48a2 2 0 0 0-.45.29.68.68 0 0 0-.24.53.54.54 0 0 0 .21.45 1.06 1.06 0 0 0 .69.17h1.11a5.19 5.19 0 0 1 1.15.13 2.66 2.66 0 0 1 .92.41 1.93 1.93 0 0 1 .61.72 2.33 2.33 0 0 1 .22 1.06 2.8 2.8 0 0 1-.3 1.3 2.9 2.9 0 0 1-.85 1 4.14 4.14 0 0 1-1.33.66 6 6 0 0 1-1.75.24 3.25 3.25 0 0 1-2.14-.62 2.14 2.14 0 0 1-.73-1.76 2 2 0 0 1 .17-.84 3.26 3.26 0 0 1 .41-.63 2.67 2.67 0 0 1 .49-.42l.39-.24a1.42 1.42 0 0 1-.56-1.22 1.26 1.26 0 0 1 .13-.6 1.76 1.76 0 0 1 .31-.42 2.06 2.06 0 0 1 .35-.27l.26-.13a2.43 2.43 0 0 1-1.08-1 3.13 3.13 0 0 1-.41-1.7 3.41 3.41 0 0 1 .23-1.29 2.7 2.7 0 0 1 .64-.92 2.54 2.54 0 0 1 .94-.55 3.66 3.66 0 0 1 1.16-.18 3 3 0 0 1 1.17.22h2.66Zm-4.18 7.4a3.39 3.39 0 0 1-.67 0 1.66 1.66 0 0 0-.32.22 1.4 1.4 0 0 0-.28.31 1.33 1.33 0 0 0-.21.43 1.62 1.62 0 0 0-.09.57q0 1.41 1.56 1.41a3.15 3.15 0 0 0 2-.52 1.55 1.55 0 0 0 .64-1.2 1 1 0 0 0-.41-.9 1.86 1.86 0 0 0-1.07-.27Zm2-5.76a1.71 1.71 0 0 0-.45-1.35 1.53 1.53 0 0 0-1-.41 1.57 1.57 0 0 0-1.09.41 1.68 1.68 0 0 0-.46 1.35 1.71 1.71 0 0 0 .46 1.35 1.56 1.56 0 0 0 1.05.4 1.61 1.61 0 0 0 1.09-.4 1.74 1.74 0 0 0 .36-1.38Z" data-name="Name"/>
      <g data-name="Adler-und-Saeulenelement">
        <path d="M22.62 13.83a7.35 7.35 0 0 0 .07-1.06v-.69c3 0 5.73-2.24 5.73-4.78a4.62 4.62 0 0 0-1.31-2.84l.32-.07a5.11 5.11 0 0 1 1.72 3.52c0 3-3 5.86-6.51 5.92m-3.1-10.58a2 2 0 0 0-.38-.91c0-.31.14-.61.64-.36-.27.27-.06.76-.06.76s.55-.25.43-.62c.82.2.23 1.3-.63 1.13m-.71 1.56a3.16 3.16 0 0 0-.63-1.27 1.78 1.78 0 0 0-1.32-.7 3.3 3.3 0 0 0-1 .25 2.81 2.81 0 0 1-.32-.89c0-.22.38-.45 1.09-.45 1.59 0 2.53.71 2.53 1.91a2.85 2.85 0 0 1-.32 1.15m4.07 20.4a1 1 0 0 1 .38.07A21.88 21.88 0 0 0 25.56 29a16.85 16.85 0 0 1 2.45-.24.38.38 0 0 1 .28.07.45.45 0 0 1 .09.32 1.65 1.65 0 0 1-.21.78 2.16 2.16 0 0 0-1.68-.51 3.06 3.06 0 0 0-.71.12h-.14l.48.48c.74.74 1.39 1.39 1.39 1.82a1.09 1.09 0 0 1-.48.74 4.07 4.07 0 0 0-1.62-2.42l-.06-.05v1.04c0 1.5-.15 1.72-.67 1.72a.92.92 0 0 1-.28-.05 2.49 2.49 0 0 0 .41-1.67v-.69a5.12 5.12 0 0 1 .06-.8v-.12h-.08a9.62 9.62 0 0 0-1-.09 2.19 2.19 0 0 0-1.6.4 1.23 1.23 0 0 1-.48-.73c0-.31.19-.34.44-.34a3.66 3.66 0 0 1 .42 0 10.32 10.32 0 0 0 1.78.12h.06v-.06a11.89 11.89 0 0 0-2-3.08c.1-.36.19-.59.54-.59m-9.47 3.67v.06h.06a10.42 10.42 0 0 0 1.78-.12 3.32 3.32 0 0 1 .41 0c.26 0 .45 0 .45.34a1.23 1.23 0 0 1-.48.73 2.22 2.22 0 0 0-1.6-.4 9.18 9.18 0 0 0-1 .09h-.08v.12a4.92 4.92 0 0 1 .07.8v.69a2.44 2.44 0 0 0 .41 1.67.92.92 0 0 1-.28.05c-.52 0-.67-.22-.67-1.72v-1.04l-.07.05a4.1 4.1 0 0 0-1.61 2.42 1.09 1.09 0 0 1-.48-.74c0-.43.64-1.08 1.39-1.82l.43-.43v-.05h-.14a3.16 3.16 0 0 0-.71-.12 2.15 2.15 0 0 0-1.68.51 1.65 1.65 0 0 1-.21-.78.51.51 0 0 1 .08-.32.42.42 0 0 1 .29-.07 16.85 16.85 0 0 1 2.45.24 21.76 21.76 0 0 0 2.29-3.67.92.92 0 0 1 .38-.07c.34 0 .44.23.54.59a11.89 11.89 0 0 0-2 3.08m-4.74-21a5.11 5.11 0 0 1 1.72-3.52l.32.07A4.57 4.57 0 0 0 9.41 7.3c0 2.56 2.74 4.78 5.83 4.78v.69a8.78 8.78 0 0 0 .06 1.06c-3.5 0-6.58-2.86-6.58-5.92m23.44 5.39c1.57 2.48 2.8 2.44 4.66 2.44a13.39 13.39 0 0 1-3-3.46L30.91 7.7A6.75 6.75 0 0 0 28.8 4a3.58 3.58 0 0 0 .86-.43c-1.87 0-3.72-1-4.75-1a1 1 0 0 0-1.07.91c0 .58.63 1.17 1.73 1.17a7.07 7.07 0 0 0 .92-.09 4.39 4.39 0 0 1 1.07 2.65c0 2-2.4 3.57-4.82 3.57h-.41a5.47 5.47 0 0 1-.95-2.29c0-1.6 1-2.9 1-4.48a3 3 0 0 0-.66-1.85 2.77 2.77 0 0 0 .7-.84 1.83 1.83 0 0 1-.68.08c-1.16 0-2.11-.3-3-.3-.53 0-.67.16-.67.32a.52.52 0 0 0 0 .14 2.79 2.79 0 0 0-.6-.17 4.79 4.79 0 0 0-.88-.08c-1.12 0-1.52.47-1.52.88a3.41 3.41 0 0 0 .58 1.44 3.36 3.36 0 0 1 1.2-.37c.6 0 1.12.56 1.41 1.24a6.54 6.54 0 0 1-.89.06 6.83 6.83 0 0 1-2-.39s.31.56.92.78a11.34 11.34 0 0 0 2.21.45.92.92 0 0 1-.43.49.23.23 0 0 1-.14 0 10.51 10.51 0 0 1-2.14-.64s-.06 0-.06 0c0 .42 1.1 1.35 2.07 1.71a11 11 0 0 0-2.31 3.74h-.41c-2.42 0-4.83-1.56-4.83-3.57a4.35 4.35 0 0 1 1.08-2.65 7.07 7.07 0 0 0 .92.09c1.1 0 1.69-.59 1.73-1.17a1 1 0 0 0-1.08-.91c-1 0-2.87 1-4.75 1A4 4 0 0 0 9 4a6.81 6.81 0 0 0-2.1 3.7L4 12.28a13.39 13.39 0 0 1-3 3.46c1.86 0 3.09 0 4.66-2.44l1.47-2.36a6 6 0 0 0 .4.9L4.6 16.52a13.11 13.11 0 0 1-3 3.45c1.85 0 3.08 0 4.65-2.44l2.52-4 .59.59-3.58 5.65a13.14 13.14 0 0 1-3 3.45c1.85 0 3.08.05 4.65-2.44l3.46-5.54c.23.15.47.28.71.42l-4.26 6.76a13.18 13.18 0 0 1-3 3.45c1.86 0 3.09 0 4.66-2.44l4.35-7c.26.09.52.19.79.27l-4.96 7.92a13.49 13.49 0 0 1-3 3.45c1.85 0 3.08 0 4.65-2.44L16 17.24h.16a4.37 4.37 0 0 1 .24 1.3c0 2.63-1.73 5-3.8 6.76a1.57 1.57 0 0 0 .57.08 5.69 5.69 0 0 0 .9-.06 21.5 21.5 0 0 1-2 3.23 15.5 15.5 0 0 0-2.32-.21c-.68 0-.75.39-.75.75a1.78 1.78 0 0 0 .62 1.37c.13-.31.38-.73 1.63-.73h.13c-.37.4-1.51 1.33-1.51 2.08a1.36 1.36 0 0 0 1.25 1.23 1.68 1.68 0 0 1 0-.42 3.22 3.22 0 0 1 1-1.8 2.81 2.81 0 0 0 0 .3c0 1.43.13 2.09 1 2.09a1.51 1.51 0 0 0 .86-.32 1.94 1.94 0 0 1-.62-1.77v-.69a3.89 3.89 0 0 0 0-.6 3.79 3.79 0 0 1 .71-.05s1.28-.1 1.6.57c.35-.32.85-.77.85-1.27 0-.33-.15-.7-.82-.7-.25 0-1 .15-1.7.15a17.56 17.56 0 0 1 1.65-2.39 1.9 1.9 0 0 0 .63 1 6.73 6.73 0 0 1 1.21-3.24 15.72 15.72 0 0 1 .23 2.82c0 3.55-.85 6.17-2.67 6.67a1.57 1.57 0 0 0 1.26.78c.66 0 1-.75 1.39-1.45.19.52.72 1.8 1.25 1.8s1.06-1.28 1.25-1.8c.37.7.73 1.45 1.39 1.45a1.54 1.54 0 0 0 1.25-.78c-1.81-.5-2.66-3.12-2.66-6.67a15.72 15.72 0 0 1 .23-2.82 6.84 6.84 0 0 1 1.21 3.24 1.81 1.81 0 0 0 .62-1 16.93 16.93 0 0 1 1.66 2.39c-.66 0-1.46-.15-1.71-.15-.66 0-.81.37-.81.7 0 .5.5.95.85 1.27.31-.67 1.6-.57 1.6-.57a3.79 3.79 0 0 1 .71.05 2.94 2.94 0 0 0 0 .6v.69a1.94 1.94 0 0 1-.62 1.77 1.47 1.47 0 0 0 .86.32c.9 0 1-.66 1-2.09a3 3 0 0 0 0-.3 3.2 3.2 0 0 1 1 1.8 1.62 1.62 0 0 1 0 .42 1.36 1.36 0 0 0 1.25-1.23c0-.75-1.14-1.68-1.51-2.08h.13c1.25 0 1.5.42 1.63.73a1.78 1.78 0 0 0 .62-1.37c0-.36-.08-.75-.75-.75a15.5 15.5 0 0 0-2.32.21 22.33 22.33 0 0 1-2-3.23 5.89 5.89 0 0 0 .9.06 1.59 1.59 0 0 0 .58-.08c-2.07-1.8-3.8-4.13-3.8-6.76a4.37 4.37 0 0 1 .24-1.3h.16L27 25.63c1.57 2.48 2.8 2.44 4.65 2.44a13.3 13.3 0 0 1-3-3.45l-4.92-7.88c.27-.08.53-.18.79-.27l4.35 7c1.57 2.48 2.8 2.44 4.65 2.44a13.3 13.3 0 0 1-3-3.45l-4.23-6.76c.24-.14.47-.27.7-.42l3.47 5.54c1.57 2.49 2.8 2.44 4.65 2.44a13.14 13.14 0 0 1-3-3.45l-3.56-5.68c.21-.19.41-.39.6-.59l2.52 4C33.17 20 34.4 20 36.25 20a13.11 13.11 0 0 1-3-3.45l-2.93-4.68a6 6 0 0 0 .4-.9ZM51.5 33.25h-5.37V2.57h5.37Z"/>
        <path d="M51.5 63.92h-5.37V33.25h5.37Z" style="fill:red"/>
        <path d="M51.5 94.59h-5.37V63.92h5.37Z" style="fill:#fc0"/>
      </g>
    </g>
  </g>
</svg>
