<svg xmlns="http://www.w3.org/2000/svg" xmlns:xlink="http://www.w3.org/1999/xlink" viewBox="0 0 170 10.13">
  <defs>
    <style>.cls-1{fill:#fff;}.cls-1,.cls-2{fill-rule:evenodd;}</style>
  </defs>
  <g id="Ebene_2" data-name="napi-typo">
    <g id="Ebene_1-2">
      <path id="Fill-1365" class="cls-2" d="M5.89.56V8H5.22L.71,1.72c0,.28,0,.55,0,.83V8H0V.56H.66L5.19,6.8c0-.3,0-.61,0-.9V.56Z"/>
      <path id="Fill-1367" class="cls-2" d="M9.32,7.51a2.49,2.49,0,0,0,1.82-.76V5.68A5.28,5.28,0,0,0,9.5,5.4c-.93,0-1.45.33-1.45,1.08s.51,1,1.27,1m2.53-3.07V8h-.61l-.06-.58a2.91,2.91,0,0,1-2,.74C8,8.12,7.34,7.56,7.34,6.5S8.1,4.82,9.39,4.82a5.67,5.67,0,0,1,1.75.28V4.4c0-1.06-.55-1.5-1.56-1.5a4.2,4.2,0,0,0-1.78.36V2.59a4.63,4.63,0,0,1,1.81-.35c1.55,0,2.24.7,2.24,2.2"/>
      <path id="Fill-1369" class="cls-2" d="M17,7.2v.6a3.91,3.91,0,0,1-1.5.26c-1.17,0-1.74-.59-1.74-1.94V3.07h-.92V2.41h.93L14,1.13h.5V2.41h2.39v.66H14.5v3c0,1,.36,1.36,1.26,1.36A3.35,3.35,0,0,0,17,7.2"/>
      <g class="cls-3">
        <path id="Fill-1371" class="cls-2" d="M18.08,8h.71V2.41h-.71ZM17.88.57A.54.54,0,0,1,18.43,0,.53.53,0,0,1,19,.57a.55.55,0,1,1-1.1,0Z"/>
      </g>
      <g class="cls-3">
        <path id="Fill-1373" class="cls-2" d="M24.93,5.18c0-1.44-.76-2.31-2-2.31s-2,.87-2,2.31.78,2.3,2,2.3,2-.86,2-2.3m-4.7,0A2.65,2.65,0,0,1,23,2.24a2.62,2.62,0,0,1,2.7,2.93,2.72,2.72,0,1,1-5.43,0"/>
      </g>
      <g class="cls-3">
        <path id="Fill-1374" class="cls-2" d="M31.92,4.51V8H31.2V4.58c0-1.15-.54-1.71-1.53-1.71a2.24,2.24,0,0,0-1.85,1V8H27.1V2.41h.62l.07.74a2.51,2.51,0,0,1,2-.91c1.4,0,2.12.78,2.12,2.27"/>
      </g>
      <g class="cls-3">
        <path id="Fill-1375" class="cls-2" d="M35.17,7.51A2.49,2.49,0,0,0,37,6.75V5.68a5.28,5.28,0,0,0-1.64-.28c-.93,0-1.45.33-1.45,1.08s.51,1,1.27,1m2.52-3.07V8h-.61l0-.58a2.91,2.91,0,0,1-2,.74c-1.16,0-1.83-.56-1.83-1.62s.76-1.68,2.06-1.68A5.67,5.67,0,0,1,37,5.1V4.4c0-1.06-.55-1.5-1.57-1.5a4.12,4.12,0,0,0-1.77.36V2.59a4.58,4.58,0,0,1,1.8-.35c1.56,0,2.24.7,2.24,2.2"/>
      </g>
      <g class="cls-3">
        <polygon id="Fill-1376" class="cls-2" points="39.45 7.96 40.17 7.96 40.17 0.03 39.45 0.03 39.45 7.96"/>
      </g>
      <g class="cls-3">
        <path id="Fill-1377" class="cls-2" d="M42.35,4.79h3.41c0-1.3-.58-1.92-1.59-1.92a1.86,1.86,0,0,0-1.82,1.92m4.13.09v.51H42.34a1.94,1.94,0,0,0,2.09,2.08,3.65,3.65,0,0,0,1.77-.39v.68a4.43,4.43,0,0,1-1.87.36c-1.74,0-2.72-1.1-2.72-2.93s1-2.95,2.57-2.95,2.3.93,2.3,2.64"/>
      </g>
      <g class="cls-3">
        <path id="Fill-1378" class="cls-2" d="M50.85,2.3V3a1.91,1.91,0,0,0-.59-.08,1.85,1.85,0,0,0-1.65,1.14V8H47.9V2.41h.61l.08.84a2,2,0,0,1,1.75-1,1.83,1.83,0,0,1,.51.06"/>
      </g>
      <g class="cls-3">
        <path id="Fill-1379" class="cls-2" d="M58.13,5.19,56.67,1.45,55.21,5.19Zm.25.64H55L54.14,8h-.81l3-7.4H57L60,8h-.82Z"/>
      </g>
      <g class="cls-3">
        <path id="Fill-1380" class="cls-2" d="M66,8h-.86L63.7,6c-.31-.43-.52-.58-1-.58h-.89V8h-.72V0h.72V4.72h.88c.53,0,.78-.3,1.13-.77L65,2.41h.81L64.46,4.27a2.11,2.11,0,0,1-.8.74,1.36,1.36,0,0,1,.66.6Z"/>
      </g>
      <g class="cls-3">
        <path id="Fill-1381" class="cls-2" d="M70.47,7.2v.6a3.88,3.88,0,0,1-1.5.26c-1.16,0-1.73-.59-1.73-1.94V3.07h-.92V2.41h.93l.2-1.28H68V2.41h2.39v.66H68v3c0,1,.36,1.36,1.26,1.36a3.26,3.26,0,0,0,1.25-.24"/>
      </g>
      <g class="cls-3">
        <path id="Fill-1382" class="cls-2" d="M71.53,8h.72V2.41h-.72ZM71.34.57A.54.54,0,0,1,71.89,0a.53.53,0,0,1,.55.57.55.55,0,1,1-1.1,0Z"/>
      </g>
      <g class="cls-3">
        <path id="Fill-1383" class="cls-2" d="M78.39,5.18c0-1.44-.76-2.31-2-2.31s-2,.87-2,2.31.78,2.3,2,2.3,2-.86,2-2.3m-4.7,0a2.72,2.72,0,1,1,5.43,0,2.65,2.65,0,0,1-2.73,2.95,2.62,2.62,0,0,1-2.7-2.93"/>
      </g>
      <g class="cls-3">
        <path id="Fill-1384" class="cls-2" d="M85.38,4.51V8h-.72V4.58c0-1.15-.54-1.71-1.53-1.71a2.24,2.24,0,0,0-1.85,1V8h-.72V2.41h.61l.08.74a2.49,2.49,0,0,1,2-.91c1.4,0,2.12.78,2.12,2.27"/>
      </g>
      <g class="cls-3">
        <path id="Fill-1385" class="cls-2" d="M86.74,7.71V7a4,4,0,0,0,2,.47c1,0,1.53-.33,1.53-1s-.37-.86-1.52-1.06c-1.37-.22-1.93-.65-1.93-1.58s.79-1.6,2.14-1.6a5.13,5.13,0,0,1,1.74.27V3.2a4.6,4.6,0,0,0-1.74-.33c-1,0-1.43.29-1.43.9s.35.78,1.6,1S91,5.46,91,6.44s-.81,1.68-2.24,1.68a4.28,4.28,0,0,1-2-.41"/>
      </g>
      <g class="cls-3">
        <path id="Fill-1386" class="cls-2" d="M96.58,5.12c0-1.46-.62-2.25-1.73-2.25a2.21,2.21,0,0,0-1.81,1V7.25a4.35,4.35,0,0,0,1.45.23c1.39,0,2.09-.93,2.09-2.36m.73,0c0,1.82-1,3-2.8,3A5.76,5.76,0,0,1,93,7.93v2h-.71V2.41h.61l.07.76a2.45,2.45,0,0,1,2-.93c1.49,0,2.32,1.08,2.32,2.85"/>
      </g>
      <g class="cls-3">
        <polygon id="Fill-1387" class="cls-2" points="98.76 7.96 99.48 7.96 99.48 0.03 98.76 0.03 98.76 7.96"/>
      </g>
      <g class="cls-3">
        <path id="Fill-1388" class="cls-2" d="M102.8,7.51a2.49,2.49,0,0,0,1.82-.76V5.68A5.28,5.28,0,0,0,103,5.4c-.93,0-1.45.33-1.45,1.08s.51,1,1.27,1m2.52-3.07V8h-.61l0-.58a2.91,2.91,0,0,1-2,.74c-1.16,0-1.83-.56-1.83-1.62s.76-1.68,2.06-1.68a5.67,5.67,0,0,1,1.75.28V4.4c0-1.06-.55-1.5-1.57-1.5a4.15,4.15,0,0,0-1.77.36V2.59a4.58,4.58,0,0,1,1.8-.35c1.56,0,2.24.7,2.24,2.2"/>
      </g>
      <g class="cls-3">
        <path id="Fill-1389" class="cls-2" d="M111.9,4.51V8h-.72V4.58c0-1.15-.54-1.71-1.53-1.71a2.24,2.24,0,0,0-1.85,1V8h-.72V2.41h.61l.08.74a2.49,2.49,0,0,1,2-.91c1.4,0,2.12.78,2.12,2.27"/>
      </g>
      <g class="cls-3">
        <polygon id="Fill-1390" class="cls-2" points="116.48 7.96 117.22 7.96 117.22 0.56 116.48 0.56 116.48 7.96"/>
      </g>
      <g class="cls-3">
        <path id="Fill-1391" class="cls-2" d="M124,4.51V8h-.71V4.58c0-1.15-.54-1.71-1.54-1.71a2.25,2.25,0,0,0-1.85,1V8h-.71V2.41h.61l.07.74a2.51,2.51,0,0,1,2-.91c1.41,0,2.12.78,2.12,2.27"/>
      </g>
      <g class="cls-3">
        <path id="Fill-1392" class="cls-2" d="M129.17,7.2v.6a4,4,0,0,1-1.51.26c-1.16,0-1.73-.59-1.73-1.94V3.07H125V2.41h.93l.2-1.28h.51V2.41H129v.66h-2.39v3c0,1,.36,1.36,1.26,1.36a3.35,3.35,0,0,0,1.26-.24"/>
      </g>
      <g class="cls-3">
        <path id="Fill-1393" class="cls-2" d="M130.52,4.79h3.41c0-1.3-.58-1.92-1.58-1.92a1.86,1.86,0,0,0-1.83,1.92m4.13.09v.51h-4.14a1.94,1.94,0,0,0,2.09,2.08,3.65,3.65,0,0,0,1.77-.39v.68a4.43,4.43,0,0,1-1.87.36c-1.74,0-2.72-1.1-2.72-2.93s1-2.95,2.58-2.95,2.29.93,2.29,2.64"/>
      </g>
      <g class="cls-3">
        <path id="Fill-1394" class="cls-2" d="M136.52,4.15c0,.83.53,1.29,1.46,1.29s1.47-.47,1.47-1.29-.54-1.33-1.47-1.33a1.27,1.27,0,0,0-1.46,1.33M140,8.44c0-.52-.35-.72-1.13-.78l-1.7-.14c-.59.24-.93.62-.93,1.08,0,.63.47,1,1.65,1,1.45,0,2.12-.4,2.11-1.11m.67,0c0,1.08-1.07,1.73-2.78,1.73-1.55,0-2.33-.47-2.33-1.41a1.56,1.56,0,0,1,1-1.39.92.92,0,0,1-.55-.82,1.07,1.07,0,0,1,.51-.9,1.7,1.7,0,0,1-.69-1.45A1.91,1.91,0,0,1,138,2.24a2.65,2.65,0,0,1,.58.06A6.63,6.63,0,0,1,140.64,2V2.6c-.42,0-.85,0-1.29,0a1.7,1.7,0,0,1,.78,1.5A1.89,1.89,0,0,1,138,6a2.8,2.8,0,0,1-1-.15.62.62,0,0,0-.34.53c0,.31.23.48.82.52L139,7c1,.08,1.62.44,1.62,1.36"/>
      </g>
      <g class="cls-3">
        <path id="Fill-1395" class="cls-2" d="M144.88,2.3V3a1.91,1.91,0,0,0-.59-.08,1.83,1.83,0,0,0-1.65,1.14V8h-.72V2.41h.62l.08.84a2,2,0,0,1,1.74-1,1.86,1.86,0,0,1,.52.06"/>
      </g>
      <g class="cls-3">
        <path id="Fill-1396" class="cls-2" d="M147.4,7.51a2.49,2.49,0,0,0,1.82-.76V5.68a5.28,5.28,0,0,0-1.64-.28c-.93,0-1.45.33-1.45,1.08s.51,1,1.27,1m2.53-3.07V8h-.62l-.05-.58a2.91,2.91,0,0,1-2,.74c-1.16,0-1.83-.56-1.83-1.62s.76-1.68,2.06-1.68a5.67,5.67,0,0,1,1.75.28V4.4c0-1.06-.55-1.5-1.57-1.5a4.15,4.15,0,0,0-1.77.36V2.59a4.6,4.6,0,0,1,1.81-.35c1.55,0,2.24.7,2.24,2.2"/>
      </g>
      <g class="cls-3">
        <path id="Fill-1397" class="cls-2" d="M155.1,7.2v.6a4,4,0,0,1-1.51.26c-1.16,0-1.73-.59-1.73-1.94V3.07h-.92V2.41h.93l.2-1.28h.51V2.41H155v.66h-2.39v3c0,1,.36,1.36,1.26,1.36a3.35,3.35,0,0,0,1.26-.24"/>
      </g>
      <g class="cls-3">
        <path id="Fill-1398" class="cls-2" d="M156.15,8h.72V2.41h-.72ZM156,.57a.54.54,0,0,1,.55-.57.53.53,0,0,1,.55.57.55.55,0,1,1-1.1,0Z"/>
      </g>
      <g class="cls-3">
        <path id="Fill-1399" class="cls-2" d="M163,5.18c0-1.44-.76-2.31-2-2.31s-2,.87-2,2.31.78,2.3,2,2.3,2-.86,2-2.3m-4.7,0A2.65,2.65,0,0,1,161,2.24a2.62,2.62,0,0,1,2.7,2.93,2.72,2.72,0,1,1-5.43,0"/>
      </g>
      <g class="cls-4">
        <path id="Fill-1400" class="cls-2" d="M170,4.51V8h-.72V4.58c0-1.15-.54-1.71-1.53-1.71a2.24,2.24,0,0,0-1.85,1V8h-.72V2.41h.61l.08.74a2.49,2.49,0,0,1,2-.91c1.4,0,2.12.78,2.12,2.27"/>
      </g>
    </g>
  </g>
</svg>