<?xml version="1.0" encoding="utf-8"?>
<svg version="1.1" id="Logo" xmlns="http://www.w3.org/2000/svg" x="0" y="0" viewBox="0 0 150.8 77.1" style="enable-background:new 0 0 150.8 77.1" xml:space="preserve">
  <style>
    .st4{fill:#039}
  </style>
  <linearGradient id="SVGID_1_" gradientUnits="userSpaceOnUse" x1="81.8" y1="35.1" x2="29.2" y2="5.6" gradientTransform="matrix(1 0 0 -1 0 77.3)">
    <stop offset=".1" style="stop-color:#94caef"/>
    <stop offset="1" style="stop-color:#133d8c"/>
  </linearGradient>
  <path d="m80.7 52.5-.2.2c-1 .9-2.1 1.6-3.4 1.8 1.6-1.6 2.7-3.5 2.7-5.4.1-3.5-3-5-6.6-4-1.9.5-4.4 2.1-7.1 3.9l-4.7-4.9 1.1-.8c5.2-3.5 10.1-6.3 15.4-4.8 2.7.7 4.7 3 5.2 6a9 9 0 0 1-2.4 8z" style="fill:url(#SVGID_1_)"/>
  <linearGradient id="SVGID_2_" gradientUnits="userSpaceOnUse" x1="76.2" y1="44.9" x2="23.7" y2="15.4" gradientTransform="matrix(1 0 0 -1 0 77.3)">
    <stop offset=".1" style="stop-color:#94caef"/>
    <stop offset="1" style="stop-color:#133d8c"/>
  </linearGradient>
  <path d="m59 53.6-.4.3a26.1 26.1 0 0 1-15.1 4.4h-.9c-12-.4-18.2-8-18.5-8.4 3.5 3.8 8 5.4 11.4 5.8l1.7.1c5.7 0 11.6-3.3 17.2-6.9l4.6 4.7z" style="fill:url(#SVGID_2_)"/>
  <linearGradient id="SVGID_3_" gradientUnits="userSpaceOnUse" x1="21.2" y1="53.7" x2="31" y2="20.9" gradientTransform="matrix(1 0 0 -1 0 77.3)">
    <stop offset=".1" style="stop-color:#000"/>
    <stop offset=".1" style="stop-color:#330500"/>
    <stop offset=".5" style="stop-color:#c00808"/>
    <stop offset=".6" style="stop-color:#e3000f"/>
    <stop offset=".8" style="stop-color:#f8d200"/>
  </linearGradient>
  <path d="M35.4 55.7c-3.4-.4-7.9-2-11.4-5.8a22.5 22.5 0 0 1-5.4-16c.1-5.6 1.6-10.1 4.2-11.4.5-.2 1-.4 1.5-.4 1.1 0 2.3.4 3.8 1.3-2 5-2.1 13.6 1.3 23.4 1.2 3.2 3.1 6.6 6 8.9z" style="fill:url(#SVGID_3_)"/>
  <linearGradient id="SVGID_4_" gradientUnits="userSpaceOnUse" x1="32.1" y1="57.9" x2="72.6" y2="20.4" gradientTransform="matrix(1 0 0 -1 0 77.3)">
    <stop offset=".2" style="stop-color:#94caef"/>
    <stop offset=".9" style="stop-color:#133d8c"/>
  </linearGradient>
  <path d="M80.5 52.6a20.6 20.6 0 0 1-9.3 5.2h-.1l-.9.2H70l-2.1.2c-2.5 0-5.4-1.2-8.4-4.1l-.6-.6-4.7-4.8c-8.8-9.2-19.2-21.4-26-25.3a8.2 8.2 0 0 0-3.8-1.3c-.5 0-1.1.1-1.5.4 1.2-.6 5.7-2.8 9.5-3.6h.2l.7-.1c6 0 18.2 14.5 28.2 25.1l4.7 4.9.7.6c3.5 3.3 6.5 5 9.2 5l1.1-.1a5 5 0 0 0 3.3-1.7z" style="fill:url(#SVGID_4_)"/>
  <g>
    <path class="st4" d="M74.2 18.8c1.4 0 2.5.5 3.2 1.5.7 1 1 2.3 1 4h-7.5a5 5 0 0 0 .9 3.1c.6.8 1.6 1.1 2.9 1.1l1.6-.2c.5-.1 1-.4 1.6-.7l.4 1-1.7.7c-.5.2-1.1.2-1.9.2-1.7 0-3-.5-3.9-1.5-.9-1-1.3-2.3-1.3-3.9s.4-2.9 1.2-3.8c.9-1.1 2-1.5 3.5-1.5zm-.1 1c-1 0-1.7.3-2.2.9-.5.6-.8 1.5-.9 2.5h6.2c-.3-2.2-1.3-3.4-3.1-3.4zM83.6 28.3c.5 0 1.1-.2 1.9-.6.7-.4 1.3-.9 1.8-1.5V19h1.3v10.2h-1.1l-.2-1.6c-.4.5-1 .9-1.7 1.3a4 4 0 0 1-2 .5c-1 0-1.8-.3-2.3-.9-.5-.6-.8-1.4-.8-2.5v-7h1.3v6.8c-.1 1.7.5 2.5 1.8 2.5zM94.2 18.8c.8 0 1.4.1 2 .4.6.3 1 .7 1.3 1.1a3.2 3.2 0 0 1-.1 3.6c-.4.6-1 1.2-1.9 2l-1.7 1.4h4.6l.2 1.8h-8v-1.6l3.6-3.1 1.4-1.4c.3-.4.4-.8.4-1.1 0-.4-.2-.8-.5-1-.4-.2-.8-.4-1.4-.4-.8 0-1.8.3-2.8.9l-.4-1.9a8 8 0 0 1 3.3-.7zM104.3 29.4a4.8 4.8 0 0 1-4.4-2.6 6 6 0 0 1-.6-2.8c0-1 .2-1.9.6-2.7.4-.8 1-1.4 1.8-1.9s1.6-.7 2.6-.7c.9 0 1.8.2 2.6.7.8.4 1.4 1.1 1.8 1.9.4.8.6 1.7.6 2.7 0 1-.2 2-.6 2.8-.4.8-1 1.5-1.8 1.9-.7.5-1.6.7-2.6.7zm0-8.7c-.5 0-1 .1-1.5.4a3 3 0 0 0-1 1.2c-.2.5-.4 1.1-.4 1.7 0 .6.1 1.2.4 1.8.2.5.6.9 1 1.2.4.3.9.4 1.5.4s1-.1 1.5-.4a3 3 0 0 0 1-1.2c.2-.5.4-1.1.4-1.7 0-.6-.1-1.2-.4-1.7a4 4 0 0 0-1-1.2c-.4-.3-.9-.5-1.5-.5z"/>
  </g>
  <g>
    <path class="st4" d="M94.2 31.9c.8 0 1.4.1 2 .4.6.3 1 .7 1.3 1.1a3.2 3.2 0 0 1-.1 3.6c-.4.6-1 1.2-1.9 2l-1.7 1.4h4.6l.2 1.8h-8v-1.6l3.6-3.1 1.4-1.4c.3-.4.4-.8.4-1.1 0-.4-.2-.8-.5-1-.4-.2-.8-.4-1.4-.4-.8 0-1.8.3-2.8.9l-.4-1.9a8 8 0 0 1 3.3-.7zM104.4 42.5a4.8 4.8 0 0 1-4.4-2.6 6 6 0 0 1-.6-2.8c0-1 .2-1.9.6-2.7.4-.8 1-1.4 1.8-1.9s1.6-.7 2.6-.7c.9 0 1.8.2 2.6.7.8.4 1.4 1.1 1.8 1.9.4.8.6 1.7.6 2.7 0 1-.2 2-.6 2.8-.4.8-1 1.5-1.8 1.9-.8.5-1.7.7-2.6.7zm0-8.6c-.5 0-1 .1-1.5.4a3 3 0 0 0-1 1.2c-.2.5-.4 1.1-.4 1.7 0 .6.1 1.2.4 1.8.2.5.6.9 1 1.2.4.3.9.4 1.5.4s1-.1 1.5-.4a3 3 0 0 0 1-1.2c.2-.5.4-1.1.4-1.7 0-.6-.1-1.2-.4-1.7a4 4 0 0 0-1-1.2c-.5-.4-1-.5-1.5-.5zM111.8 41.4l-.3.6-.6.3-.6-.3-.3-.6.3-.6c.2-.2.4-.2.6-.2l.6.2.3.6zM121.2 42.3h-.9l-.2-.8-1.3.8a4 4 0 0 1-1.5.3 4 4 0 0 1-3.4-1.5 6 6 0 0 1-1.2-3.9c0-1 .2-1.9.6-2.7a5 5 0 0 1 1.6-1.9 4 4 0 0 1 2.5-.7c.8 0 1.6.3 2.5.9v-5.1l1.3-.2v14.8zm-1.3-1.9V34c-.3-.3-.7-.6-1.1-.7-.4-.2-.9-.3-1.4-.3a3 3 0 0 0-2.5 1.2c-.6.8-.9 1.8-.9 3 0 1.3.3 2.4.8 3.1.5.8 1.4 1.2 2.5 1.2 1 0 1.9-.4 2.6-1.1zM127.8 31.9c1.4 0 2.5.5 3.2 1.5.7 1 1 2.3 1 4h-7.5a5 5 0 0 0 .9 3.1c.6.8 1.6 1.1 2.9 1.1l1.6-.2c.5-.1 1-.4 1.6-.7l.4 1-1.7.7c-.5.2-1.1.2-1.9.2-1.7 0-3-.5-3.9-1.5-.9-1-1.3-2.3-1.3-3.9s.4-2.9 1.2-3.8c1-1 2.1-1.5 3.5-1.5zm0 1.1c-1 0-1.7.3-2.2.9-.5.6-.8 1.5-.9 2.5h6.2c-.4-2.3-1.3-3.4-3.1-3.4z"/>
  </g>
</svg>
