<svg xmlns="http://www.w3.org/2000/svg" viewBox="0 0 44 44">
<path d="M9.6,11C9.6,11,9.6,11,9.6,11L9.6,11c-1.2,0-2.4-0.5-3.2-1.4c-0.8-0.9-1.3-2-1.3-3.3c0-2.5,2-4.6,4.5-4.6
	c2.5,0,4.5,2.1,4.5,4.6c0,1.2-0.5,2.4-1.3,3.2S10.8,11,9.6,11z M9.6,3.3c-1.7,0-3,1.4-3,3.1c0,0.8,0.3,1.6,0.9,2.2
	c0.6,0.6,1.3,0.9,2.1,0.9h0c0,0,0,0,0,0c0.8,0,1.6-0.3,2.1-0.9c0.6-0.6,0.9-1.4,0.9-2.2C12.7,4.7,11.3,3.3,9.6,3.3
	C9.6,3.3,9.6,3.3,9.6,3.3z M9.6,11C9.6,11,9.6,11,9.6,11L9.6,11c-1.2,0-2.4-0.5-3.2-1.4c-0.8-0.9-1.3-2-1.3-3.3c0-2.5,2-4.6,4.5-4.6
	c2.5,0,4.5,2.1,4.5,4.6c0,1.2-0.5,2.4-1.3,3.2S10.8,11,9.6,11z M9.6,3.3c-1.7,0-3,1.4-3,3.1c0,0.8,0.3,1.6,0.9,2.2
	c0.6,0.6,1.3,0.9,2.1,0.9h0c0,0,0,0,0,0c0.8,0,1.6-0.3,2.1-0.9c0.6-0.6,0.9-1.4,0.9-2.2C12.7,4.7,11.3,3.3,9.6,3.3
	C9.6,3.3,9.6,3.3,9.6,3.3z M12.4,34.6c0.8-0.8,1.2-1.8,1.2-2.9l0-5.5c0-0.4-0.3-0.8-0.7-0.8c0,0,0,0,0,0c-0.4,0-0.7,0.3-0.8,0.7
	l0,5.5c0,0.7-0.3,1.3-0.7,1.8c-0.5,0.5-1.1,0.7-1.8,0.7c-0.7,0-1.3-0.3-1.8-0.7c-0.5-0.5-0.7-1.1-0.7-1.8l0-5.5
	c0-0.4-0.3-0.8-0.7-0.8c-0.4,0-0.7-0.2-1-0.4s-0.4-0.6-0.4-1l0-6.6c0-1,0.4-1.9,1.1-2.6c0.7-0.7,1.6-1.1,2.5-1.1c0,0,0,0,0,0l2.2,0
	c1,0,1.8,0.4,2.5,1.1c0.3,0.3,0.8,0.3,1.1,0c0.3-0.3,0.3-0.8,0-1.1c-0.9-1-2.2-1.5-3.6-1.5l-2.2,0c0,0,0,0,0,0
	c-1.3,0-2.6,0.5-3.6,1.5c-1,1-1.5,2.3-1.5,3.6l0,6.6c0,0.8,0.3,1.5,0.8,2.1c0.4,0.4,0.8,0.6,1.3,0.8l0,4.9c0,1.1,0.4,2.1,1.2,2.9
	c0.8,0.8,1.8,1.2,2.8,1.2c0,0,0,0,0,0C10.6,35.8,11.6,35.4,12.4,34.6z M33,11.1C33,11.1,33,11.1,33,11.1L33,11.1
	c-2.5,0-4.5-2.1-4.5-4.6c0-1.2,0.5-2.4,1.3-3.2c0.9-0.9,2-1.3,3.2-1.3c0,0,0,0,0,0c2.5,0,4.5,2.1,4.5,4.6
	C37.6,9.1,35.5,11.1,33,11.1z M33,9.6C33,9.6,33,9.6,33,9.6c1.7,0,3-1.4,3-3.1c0-1.7-1.3-3.1-3-3.1c0,0,0,0,0,0
	c-0.8,0-1.6,0.3-2.1,0.9C30.3,4.9,30,5.7,30,6.5C30,8.2,31.4,9.6,33,9.6L33,9.6z M35.8,34.7c0.8-0.8,1.2-1.8,1.2-2.9l0-4.7l3.6,0
	c0,0,0,0,0,0c0.2,0,0.5-0.1,0.6-0.3c0.1-0.2,0.2-0.4,0.1-0.7l-2.1-6.5l0-2.1c0-1.4-0.5-2.7-1.5-3.6c-0.9-1-2.2-1.5-3.6-1.5l-2.2,0
	c0,0,0,0,0,0c-1.3,0-2.6,0.5-3.6,1.5c-0.3,0.3-0.3,0.8,0,1.1c0.3,0.3,0.8,0.3,1.1,0c0.7-0.7,1.6-1.1,2.5-1.1c0,0,0,0,0,0l2.2,0
	c1,0,1.8,0.4,2.5,1.1c0.7,0.7,1,1.6,1,2.6l0,2.2c0,0.1,0,0.2,0,0.2l1.8,5.6l-3.3,0c0,0,0,0,0,0c-0.2,0-0.4,0.1-0.5,0.2
	c-0.1,0.1-0.2,0.3-0.2,0.5l0,5.5c0,0.7-0.3,1.3-0.7,1.8c-0.5,0.5-1.1,0.7-1.8,0.7c0,0,0,0,0,0c-0.7,0-1.3-0.3-1.8-0.7
	c-0.5-0.5-0.7-1.1-0.7-1.8l0-5.5c0-0.4-0.3-0.8-0.7-0.8c0,0,0,0,0,0c-0.4,0-0.7,0.3-0.8,0.7l0,5.5c0,1.1,0.4,2.1,1.2,2.9
	c0.7,0.8,1.8,1.2,2.8,1.2c0,0,0,0,0,0C34,35.9,35,35.5,35.8,34.7z M37.1,39.8c4.3-1.8,6.6-4.2,6.7-6.9c0-1.3-0.5-2.5-1.6-3.7
	c-0.3-0.3-0.8-0.3-1.1,0c-0.3,0.3-0.3,0.8,0,1.1c0.8,0.9,1.2,1.8,1.2,2.7c0,2-2.1,4-5.7,5.5c-3.9,1.6-9,2.5-14.4,2.5
	c-0.1,0-0.1,0-0.2,0c-11,0-20.3-3.8-20.3-8.1c0-0.9,0.4-1.8,1.2-2.7c0.3-0.3,0.3-0.8,0-1.1c-0.3-0.3-0.8-0.3-1.1,0
	c-1.1,1.2-1.6,2.4-1.6,3.7c0,5.3,9.5,9.6,21.8,9.6c0.1,0,0.1,0,0.2,0C27.8,42.3,33.1,41.4,37.1,39.8z M24.3,36.2
	C24.3,36.2,24.3,36.2,24.3,36.2l-6.4,0c-0.4,0-0.7-0.3-0.7-0.7l-1-10.5l-1.4,0c-0.4,0-0.7-0.3-0.7-0.8l0-4.5c0-2,0.7-3.9,2.1-5.3
	c1.3-1.4,3.2-2.2,5-2.2c0,0,0,0,0,0c1.9,0,3.7,0.8,5,2.2c1.3,1.4,2.1,3.3,2.1,5.3l0,0l0,4.5c0,0.2-0.1,0.4-0.2,0.5
	c-0.1,0.1-0.3,0.2-0.5,0.2c0,0,0,0,0,0l-1.4,0l-1,10.5C25,35.9,24.7,36.2,24.3,36.2z M18.6,34.6l5,0l1-10.5c0-0.4,0.4-0.7,0.7-0.7
	c0,0,0,0,0,0l1.4,0l0-3.7c0-1.6-0.6-3.1-1.6-4.2c-1.1-1.1-2.5-1.7-4-1.7c-1.5,0-2.9,0.6-4,1.7c-1.1,1.1-1.7,2.6-1.7,4.2l0,3.7l1.4,0
	c0.4,0,0.7,0.3,0.7,0.7L18.6,34.6z M27.6,19.7L27.6,19.7L27.6,19.7z M21.1,11.1C21.1,11.1,21.1,11.1,21.1,11.1
	C21.1,11.1,21.1,11.1,21.1,11.1c-2.5,0-4.5-2.1-4.5-4.6c0-1.2,0.5-2.4,1.3-3.2s2-1.3,3.2-1.3c0,0,0,0,0,0c2.5,0,4.5,2.1,4.5,4.6
	C25.6,9,23.6,11.1,21.1,11.1z M21.1,9.6C21.1,9.6,21.1,9.6,21.1,9.6c1.7,0,3-1.4,3-3.1c0-1.7-1.3-3.1-3-3.1c0,0,0,0,0,0
	c-0.8,0-1.6,0.3-2.1,0.9c-0.6,0.6-0.9,1.4-0.9,2.2C18.1,8.2,19.4,9.6,21.1,9.6L21.1,9.6z"/>
</svg>
