<svg xmlns="http://www.w3.org/2000/svg" viewBox="0 0 47 27">
  <g data-name="tags-disable">
    <path d="M43 1H4a3 3 0 0 0-3 3v19a3 3 0 0 0 3 3h39a3 3 0 0 0 3-3V4a3 3 0 0 0-3-3Zm2 22a2 2 0 0 1-2 2H4a2 2 0 0 1-2-2V4a2 2 0 0 1 2-2h39a2 2 0 0 1 2 2Z"/>
    <path d="M16.2 8h-1.7a.4.4 0 0 0-.3.2L10 18.8a.2.2 0 0 0 .2.2H12a.4.4 0 0 0 .3-.2l.7-1.7a.4.4 0 0 1 .3-.3h3.8a.4.4 0 0 1 .3.3l.7 1.7a.4.4 0 0 0 .4.2h1.9a.2.2 0 0 0 .2-.2L16.6 8.2a.4.4 0 0 0-.4-.2Zm.3 6.8h-2.3a.2.2 0 0 1-.1-.3l1.2-3.1c0-.1.1-.1.1 0l1.2 3.1a.2.2 0 0 1-.1.3Z"/>
    <rect x="22" y="14" width="5" height="2" rx=".3" ry=".3"/>
    <path d="M36.8 8h-8a.3.3 0 0 0-.3.3v1.6a.3.3 0 0 0 .3.3h5s.1 0 0 .1l-5.2 6.4a.9.9 0 0 0-.1.5v1.6a.3.3 0 0 0 .2.2h8a.3.3 0 0 0 .3-.3v-1.6a.3.3 0 0 0-.3-.3h-5c-.1 0-.2 0-.1-.1l5.2-6.4a.8.8 0 0 0 .2-.5V8.2a.3.3 0 0 0-.3-.2Z"/>
  </g>
</svg>
