<svg id="151737a3-999c-48b4-a99b-33abfe86e362" data-name="bpa-logo-small" xmlns="http://www.w3.org/2000/svg" viewBox="0 0 52 35"><!-- title removed by grunt task --><path d="M22.62,13.83a7.35,7.35,0,0,0,.07-1.06c0-.2,0-.43,0-.69,3,0,5.73-2.24,5.73-4.78a4.62,4.62,0,0,0-1.31-2.84l.32-.07a5.11,5.11,0,0,1,1.72,3.52c0,3-3,5.86-6.51,5.92M19.54,3.25a2,2,0,0,0-.38-.91c0-.31.14-.61.64-.36-.27.27-.06.76-.06.76s.55-.25.43-.62c.82.2.23,1.3-.63,1.13m-.71,1.56a3.16,3.16,0,0,0-.63-1.27,1.78,1.78,0,0,0-1.32-.7,3.3,3.3,0,0,0-1,.25,2.81,2.81,0,0,1-.32-.89c0-.22.38-.45,1.09-.45,1.59,0,2.53.71,2.53,1.91a2.85,2.85,0,0,1-.32,1.15m4.07,20.4a1,1,0,0,1,.38.07A21.88,21.88,0,0,0,25.56,29l0,0h0a16.85,16.85,0,0,1,2.45-.24h0a.38.38,0,0,1,.28.07.45.45,0,0,1,.09.32,1.65,1.65,0,0,1-.21.78,2.16,2.16,0,0,0-1.68-.51,3.06,3.06,0,0,0-.71.12l-.07,0-.07,0,.48.48c.74.74,1.39,1.39,1.39,1.82a1.09,1.09,0,0,1-.48.74,4.07,4.07,0,0,0-1.62-2.42l-.06-.05,0,.27c0,.19,0,.47,0,.77,0,1.5-.15,1.72-.67,1.72a.92.92,0,0,1-.28-.05,2.49,2.49,0,0,0,.41-1.67v-.69a5.12,5.12,0,0,1,.06-.8l0-.12h-.08a9.62,9.62,0,0,0-1-.09,2.19,2.19,0,0,0-1.6.4,1.23,1.23,0,0,1-.48-.73c0-.31.19-.34.44-.34a3.66,3.66,0,0,1,.42,0,10.32,10.32,0,0,0,1.78.12h.06l0-.06a11.89,11.89,0,0,0-2-3.08c.1-.36.19-.59.54-.59m-9.47,3.67,0,.06h.06a10.42,10.42,0,0,0,1.78-.12,3.32,3.32,0,0,1,.41,0c.26,0,.45,0,.45.34a1.23,1.23,0,0,1-.48.73,2.22,2.22,0,0,0-1.6-.4,9.18,9.18,0,0,0-1,.09h-.08v.12a4.92,4.92,0,0,1,.07.8v.69a2.44,2.44,0,0,0,.41,1.67.92.92,0,0,1-.28.05c-.52,0-.67-.22-.67-1.72,0-.3,0-.58,0-.77v-.27l-.07.05a4.1,4.1,0,0,0-1.61,2.42,1.09,1.09,0,0,1-.48-.74c0-.43.64-1.08,1.39-1.82l.43-.43,0-.05-.14,0a3.16,3.16,0,0,0-.71-.12,2.15,2.15,0,0,0-1.68.51,1.65,1.65,0,0,1-.21-.78.51.51,0,0,1,.08-.32.42.42,0,0,1,.29-.07h0a16.85,16.85,0,0,1,2.45.24h0v0a21.76,21.76,0,0,0,2.29-3.67.92.92,0,0,1,.38-.07c.34,0,.44.23.54.59a11.89,11.89,0,0,0-2,3.08m-4.74-21a5.11,5.11,0,0,1,1.72-3.52l.32.07A4.57,4.57,0,0,0,9.41,7.3c0,2.56,2.74,4.78,5.83,4.78q0,.33,0,.69a8.78,8.78,0,0,0,.06,1.06c-3.5,0-6.58-2.86-6.58-5.92M32.16,13.3c1.57,2.48,2.8,2.44,4.66,2.44a13.39,13.39,0,0,1-3-3.46L30.91,7.7A6.75,6.75,0,0,0,28.8,4a3.58,3.58,0,0,0,.86-.43c-1.87,0-3.72-1-4.75-1a1,1,0,0,0-1.07.91c0,.58.63,1.17,1.73,1.17a7.07,7.07,0,0,0,.92-.09,4.39,4.39,0,0,1,1.07,2.65c0,2-2.4,3.57-4.82,3.57h-.41a5.47,5.47,0,0,1-.95-2.29c0-1.6,1-2.9,1-4.48a3,3,0,0,0-.66-1.85,2.77,2.77,0,0,0,.7-.84,1.83,1.83,0,0,1-.68.08c-1.16,0-2.11-.3-3-.3-.53,0-.67.16-.67.32a.52.52,0,0,0,0,.14,2.79,2.79,0,0,0-.6-.17,4.79,4.79,0,0,0-.88-.08c-1.12,0-1.52.47-1.52.88a3.41,3.41,0,0,0,.58,1.44,3.36,3.36,0,0,1,1.2-.37c.6,0,1.12.56,1.41,1.24a6.54,6.54,0,0,1-.89.06,6.83,6.83,0,0,1-2-.39s0,0,0,0,.31.56.92.78a11.34,11.34,0,0,0,2.21.45.92.92,0,0,1-.43.49.23.23,0,0,1-.14,0,10.51,10.51,0,0,1-2.14-.64s-.06,0-.06,0c0,.42,1.1,1.35,2.07,1.71a11,11,0,0,0-2.31,3.74h-.41c-2.42,0-4.83-1.56-4.83-3.57a4.35,4.35,0,0,1,1.08-2.65,7.07,7.07,0,0,0,.92.09c1.1,0,1.69-.59,1.73-1.17a1,1,0,0,0-1.08-.91c-1,0-2.87,1-4.75,1A4,4,0,0,0,9,4,6.81,6.81,0,0,0,6.9,7.7L4,12.28a13.39,13.39,0,0,1-3,3.46c1.86,0,3.09,0,4.66-2.44l1.47-2.36a6,6,0,0,0,.4.9L4.6,16.52a13.11,13.11,0,0,1-3,3.45c1.85,0,3.08,0,4.65-2.44l2.52-4,.59.59L5.78,19.77a13.14,13.14,0,0,1-3,3.45c1.85,0,3.08.05,4.65-2.44l3.46-5.54c.23.15.47.28.71.42L7.34,22.42a13.18,13.18,0,0,1-3,3.45c1.86,0,3.09,0,4.66-2.44l4.35-7c.26.09.52.19.79.27L9.18,24.62a13.49,13.49,0,0,1-3,3.45c1.85,0,3.08,0,4.65-2.44L16,17.24l.16,0a4.37,4.37,0,0,1,.24,1.3c0,2.63-1.73,5-3.8,6.76a1.57,1.57,0,0,0,.57.08,5.69,5.69,0,0,0,.9-.06,21.5,21.5,0,0,1-2,3.23,15.5,15.5,0,0,0-2.32-.21c-.68,0-.75.39-.75.75a1.78,1.78,0,0,0,.62,1.37c.13-.31.38-.73,1.63-.73h.13c-.37.4-1.51,1.33-1.51,2.08a1.36,1.36,0,0,0,1.25,1.23,1.68,1.68,0,0,1,0-.42,3.22,3.22,0,0,1,1-1.8,2.81,2.81,0,0,0,0,.3c0,1.43.13,2.09,1,2.09a1.51,1.51,0,0,0,.86-.32,1.94,1.94,0,0,1-.62-1.77v-.69a3.89,3.89,0,0,0,0-.6,3.79,3.79,0,0,1,.71-.05s1.28-.1,1.6.57c.35-.32.85-.77.85-1.27,0-.33-.15-.7-.82-.7-.25,0-1,.15-1.7.15a17.56,17.56,0,0,1,1.65-2.39,1.9,1.9,0,0,0,.63,1,6.73,6.73,0,0,1,1.21-3.24,15.72,15.72,0,0,1,.23,2.82c0,3.55-.85,6.17-2.67,6.67a1.57,1.57,0,0,0,1.26.78c.66,0,1-.75,1.39-1.45.19.52.72,1.8,1.25,1.8s1.06-1.28,1.25-1.8c.37.7.73,1.45,1.39,1.45a1.54,1.54,0,0,0,1.25-.78c-1.81-.5-2.66-3.12-2.66-6.67a15.72,15.72,0,0,1,.23-2.82,6.84,6.84,0,0,1,1.21,3.24,1.81,1.81,0,0,0,.62-1,16.93,16.93,0,0,1,1.66,2.39c-.66,0-1.46-.15-1.71-.15-.66,0-.81.37-.81.7,0,.5.5.95.85,1.27.31-.67,1.6-.57,1.6-.57a3.79,3.79,0,0,1,.71.05,2.94,2.94,0,0,0,0,.6v.69a1.94,1.94,0,0,1-.62,1.77,1.47,1.47,0,0,0,.86.32c.9,0,1-.66,1-2.09a3,3,0,0,0,0-.3,3.2,3.2,0,0,1,1,1.8,1.62,1.62,0,0,1,0,.42,1.36,1.36,0,0,0,1.25-1.23c0-.75-1.14-1.68-1.51-2.08h.13c1.25,0,1.5.42,1.63.73a1.78,1.78,0,0,0,.62-1.37c0-.36-.08-.75-.75-.75a15.5,15.5,0,0,0-2.32.21,22.33,22.33,0,0,1-2-3.23,5.89,5.89,0,0,0,.9.06,1.59,1.59,0,0,0,.58-.08c-2.07-1.8-3.8-4.13-3.8-6.76a4.37,4.37,0,0,1,.24-1.3l.16,0L27,25.63c1.57,2.48,2.8,2.44,4.65,2.44a13.3,13.3,0,0,1-3-3.45l-4.92-7.88c.27-.08.53-.18.79-.27l4.35,7c1.57,2.48,2.8,2.44,4.65,2.44a13.3,13.3,0,0,1-3-3.45l-4.23-6.76c.24-.14.47-.27.7-.42l3.47,5.54c1.57,2.49,2.8,2.44,4.65,2.44a13.14,13.14,0,0,1-3-3.45l-3.56-5.68c.21-.19.41-.39.6-.59l2.52,4C33.17,20,34.4,20,36.25,20a13.11,13.11,0,0,1-3-3.45l-2.93-4.68a6,6,0,0,0,.4-.9Z"/><path d="M51.5,12.57H46.13v-11H51.5Z"/><path d="M51.5,23.57H46.13v-11H51.5Z" style="fill:red"/><path d="M51.5,34.57H46.13v-11H51.5Z" style="fill:#fc0"/></svg>