<svg xmlns="http://www.w3.org/2000/svg" viewBox="0 0 22 23">
  <path d="M3 9.9 9 6a1.6 1.6 0 0 1 1.1-.4 1 1 0 0 1 .7.7.7.7 0 0 1-.1.8 5.3 5.3 0 0 1-.9.7l-3 2.3a.5.5 0 0 0-.1.6c0 .2.4.4.8.4l9.5 1.4a.7.7 0 0 1 .5.2.8.8 0 0 1 .2.6.8.8 0 0 1-.7.8l-6.3-.6c-.3 0-.4.1-.5.3s.2.3.5.4L17 16a.7.7 0 0 1 .5 1c0 .4-.4.6-1 .4l-6.2-1.1c-.4-.1-.6 0-.6.2s0 .5.3.6l5.2 1.9a.7.7 0 0 1 .2.2.6.6 0 0 1 .2.4.7.7 0 0 1-.3.5.7.7 0 0 1-.4.2h-.2l-5.4-1.7c-.3-.1-.6 0-.7.1s0 .4.3.6l3.6 1.8a.6.6 0 0 1 .2.7c-.1.3-.4.4-1 .2q-8.2-3-9.6-4.1A5 5 0 0 1 1 16a4.9 4.9 0 0 1-.5-2 5 5 0 0 1 0-1 8.4 8.4 0 0 1 .3-.8 10.4 10.4 0 0 1 1-1.2A8.4 8.4 0 0 1 3 9.9ZM5.5 2l-.9 5.3 3-1.8L7 1.7C7 1.2 6.7.9 6.3 1s-.8.4-1 1Zm5.8 2.9 5.6-3.7a.8.8 0 0 1 1.2.3.9.9 0 0 1-.3 1.3l-4.4 3.7a.4.4 0 0 0 0 .6.4.4 0 0 0 .6 0l5.8-4a.8.8 0 0 1 1.3.4 1 1 0 0 1-.4 1.5l-6 4a.3.3 0 0 0 0 .4c0 .2.3.2.6 0L20.3 7a.5.5 0 0 1 .2 0 .6.6 0 0 1 .2 0 .8.8 0 0 1 .6.1.8.8 0 0 1 .2.6.8.8 0 0 1-.2.5.9.9 0 0 1-.3.3L16.2 11l-6.2-.7c-.7-.2-.8-.4-.4-.7l1.3-1 1.2-1a1.4 1.4 0 0 0 .2-.4 1.3 1.3 0 0 0 .1-.6 1.3 1.3 0 0 0 0-.5 2.2 2.2 0 0 0-.3-.4 2 2 0 0 0-.9-.8Z" data-name="sign-language"/>
</svg>
