<?xml version="1.0" encoding="utf-8"?>
<!-- Generator: Adobe Illustrator 26.0.1, SVG Export Plug-In . SVG Version: 6.00 Build 0)  -->
<svg version="1.1" id="Ebene_1" xmlns="http://www.w3.org/2000/svg" xmlns:xlink="http://www.w3.org/1999/xlink" x="0px" y="0px"
	 viewBox="0 0 125.17 128.8" style="enable-background:new 0 0 125.17 128.8;" xml:space="preserve">
<style type="text/css">
	.st0{fill:#FFFFFF;}
</style>
<g>
	<g>
		<path class="st0" d="M54.64,109.21v0.02h2.5v0.82h-3.74l-0.07-0.67c2.16-2.31,2.65-2.87,2.65-3.9c0-0.73-0.34-1.14-1.03-1.14
			c-0.73,0-1.16,0.43-1.34,0.62l-0.39-0.71c0.23-0.24,0.81-0.77,1.87-0.77c1.24,0,1.93,0.73,1.93,1.88
			C57.03,106.67,56.24,107.6,54.64,109.21z"/>
		<path class="st0" d="M60.15,110.18c-1.24,0-2.05-1.01-2.05-3.35c0-2.35,0.89-3.35,2.13-3.35c1.24,0,2.05,1.01,2.05,3.35
			C62.27,109.18,61.38,110.18,60.15,110.18z M60.19,104.35c-0.63,0-1.05,0.66-1.05,2.47c0,1.85,0.43,2.47,1.05,2.47
			s1.05-0.63,1.05-2.47C61.24,105.01,60.81,104.35,60.19,104.35z"/>
		<path class="st0" d="M64.54,109.21v0.02h2.5v0.82h-3.74l-0.07-0.67c2.16-2.31,2.65-2.87,2.65-3.9c0-0.73-0.34-1.14-1.03-1.14
			c-0.73,0-1.16,0.43-1.34,0.62l-0.39-0.71c0.23-0.24,0.81-0.77,1.87-0.77c1.24,0,1.93,0.73,1.93,1.88
			C66.92,106.67,66.14,107.6,64.54,109.21z"/>
		<path class="st0" d="M69.44,109.21v0.02h2.5v0.82h-3.74l-0.07-0.67c2.16-2.31,2.65-2.87,2.65-3.9c0-0.73-0.34-1.14-1.03-1.14
			c-0.73,0-1.16,0.43-1.34,0.62l-0.39-0.71c0.23-0.24,0.81-0.77,1.87-0.77c1.24,0,1.93,0.73,1.93,1.88
			C71.82,106.67,71.04,107.6,69.44,109.21z"/>
	</g>
	<path class="st0" d="M68.39,24.37c1.39,0.28,2.72,0.7,4,1.24c1.27,0.54,2.48,1.2,3.62,1.96l2.98-4.41
		c-1.42-0.96-2.93-1.78-4.52-2.45c-1.59-0.67-3.26-1.2-5-1.55c-1.73-0.35-3.53-0.54-5.36-0.54c-1.84,0-3.63,0.19-5.36,0.54
		c-1.73,0.35-3.4,0.88-5,1.55c-1.59,0.67-3.1,1.5-4.52,2.45c-1.42,0.96-2.73,2.05-3.94,3.25c-1.2,1.2-2.29,2.52-3.25,3.94
		c-0.96,1.42-1.78,2.93-2.45,4.52c-0.67,1.59-1.2,3.26-1.55,5c-0.35,1.73-0.54,3.53-0.54,5.36c0,1.84,0.19,3.63,0.54,5.36
		c0.35,1.73,0.88,3.4,1.55,5c0.67,1.59,1.5,3.1,2.45,4.52c0.96,1.42,2.05,2.73,3.25,3.94c1.2,1.2,2.52,2.29,3.94,3.25l2.98-4.41
		c-1.13-0.77-2.19-1.64-3.15-2.6s-1.83-2.02-2.6-3.15c-0.77-1.13-1.42-2.34-1.96-3.62c-0.54-1.27-0.96-2.61-1.24-4
		c-0.28-1.39-0.43-2.82-0.43-4.29c0-1.47,0.15-2.9,0.43-4.29c0.28-1.39,0.7-2.72,1.24-4c0.54-1.27,1.2-2.48,1.96-3.62
		c0.77-1.13,1.64-2.19,2.6-3.15s2.02-1.83,3.15-2.6c1.13-0.77,2.34-1.42,3.62-1.96c1.27-0.54,2.61-0.96,4-1.24
		c1.39-0.28,2.82-0.43,4.29-0.43C65.57,23.94,67.01,24.09,68.39,24.37z"/>
	<polygon class="st0" points="90.71,42.57 90.71,42.57 90.71,42.57 84.31,42.57 61.46,42.57 61.46,47.89 80.75,47.89 60.36,78.34 
		66.77,78.34 88.18,46.35 90.71,42.57 	"/>
	<path class="st0" d="M23.9,97.02c0.42,0,0.8-0.04,1.14-0.12c0.34-0.08,0.57-0.17,0.7-0.25l0.19-0.11v-2.12h-2.28V92.8h3.97v4.56
		c-0.04,0.04-0.09,0.08-0.16,0.14c-0.07,0.05-0.22,0.15-0.45,0.3c-0.23,0.15-0.48,0.28-0.75,0.39c-0.26,0.11-0.61,0.21-1.03,0.3
		c-0.43,0.09-0.87,0.14-1.33,0.14c-1.48,0-2.73-0.5-3.75-1.49c-1.02-0.99-1.53-2.23-1.53-3.7c0-1.48,0.5-2.72,1.5-3.71
		c1-0.99,2.24-1.48,3.71-1.48c0.46,0,0.9,0.05,1.33,0.16c0.43,0.11,0.78,0.23,1.05,0.37c0.28,0.14,0.52,0.29,0.73,0.44
		c0.21,0.15,0.36,0.28,0.46,0.38l0.14,0.16l-1.18,1.15c-0.02-0.03-0.05-0.07-0.1-0.11c-0.05-0.05-0.15-0.13-0.3-0.25
		c-0.15-0.12-0.32-0.22-0.5-0.32c-0.18-0.09-0.42-0.17-0.72-0.25c-0.3-0.08-0.6-0.11-0.92-0.11c-0.99,0-1.82,0.35-2.47,1.05
		c-0.66,0.7-0.98,1.55-0.98,2.53c0,0.99,0.34,1.83,1.02,2.53C22.07,96.66,22.9,97.02,23.9,97.02z"/>
	<path class="st0" d="M46.09,97.02c0.42,0,0.8-0.04,1.14-0.12c0.34-0.08,0.57-0.17,0.7-0.25l0.19-0.11v-2.12h-2.28V92.8h3.97v4.56
		c-0.04,0.04-0.09,0.08-0.16,0.14c-0.07,0.05-0.22,0.15-0.45,0.3c-0.23,0.15-0.48,0.28-0.75,0.39c-0.26,0.11-0.61,0.21-1.03,0.3
		c-0.43,0.09-0.87,0.14-1.33,0.14c-1.48,0-2.73-0.5-3.75-1.49c-1.02-0.99-1.53-2.23-1.53-3.7c0-1.48,0.5-2.72,1.5-3.71
		c1-0.99,2.24-1.48,3.71-1.48c0.46,0,0.9,0.05,1.33,0.16c0.43,0.11,0.78,0.23,1.05,0.37c0.28,0.14,0.52,0.29,0.73,0.44
		c0.21,0.15,0.36,0.28,0.46,0.38l0.14,0.16l-1.18,1.15c-0.02-0.03-0.05-0.07-0.1-0.11c-0.05-0.05-0.15-0.13-0.3-0.25
		c-0.15-0.12-0.32-0.22-0.5-0.32c-0.18-0.09-0.42-0.17-0.72-0.25c-0.3-0.08-0.6-0.11-0.92-0.11c-0.99,0-1.82,0.35-2.47,1.05
		c-0.66,0.7-0.98,1.55-0.98,2.53c0,0.99,0.34,1.83,1.02,2.53C44.26,96.66,45.1,97.02,46.09,97.02z"/>
	<path class="st0" d="M53.68,90.04v2.44h4.02v1.64h-4.02v2.7h4.45v1.64h-6.17V88.41h6.08v1.64H53.68z"/>
	<path class="st0" d="M60.26,98.45V88.41h3.3c0.99,0,1.8,0.29,2.41,0.88c0.61,0.58,0.92,1.33,0.92,2.25c0,0.77-0.2,1.41-0.59,1.94
		c-0.39,0.53-0.94,0.89-1.65,1.07l2.51,3.9h-2.01l-2.38-3.79h-0.79v3.79H60.26z M63.35,93.03c0.56,0,1-0.13,1.32-0.38
		c0.32-0.25,0.47-0.62,0.47-1.11s-0.16-0.86-0.47-1.11c-0.32-0.25-0.76-0.38-1.32-0.38h-1.36v2.98H63.35z"/>
	<path class="st0" d="M68.96,88.41h1.59l3.27,5.05l3.27-5.05h1.59v10.04h-1.72v-6.74l-3.14,4.78l-3.14-4.78v6.74h-1.72V88.41z"/>
	<path class="st0" d="M79.84,98.45l3.9-10.04h1.75l3.9,10.04h-1.74l-0.92-2.38H82.5l-0.92,2.38H79.84z M84.62,90.57l-1.51,3.92h3.01
		L84.62,90.57z"/>
	<path class="st0" d="M90.49,88.41h1.55l5.02,6.91v-6.91h1.72v10.04h-1.55l-5.02-6.9v6.9h-1.72V88.41z"/>
	<path class="st0" d="M104.97,94.49v3.96h-1.72v-3.96l-3.43-6.08h1.89l2.45,4.49l2.45-4.49h1.78L104.97,94.49z"/>
	<polyline class="st0" points="37.24,88.41 37.24,88.41 29.23,88.41 29.23,90.04 34.1,90.04 28.77,98.45 30.87,98.45 37.24,88.41 	
		"/>
</g>
</svg>
