<svg xmlns="http://www.w3.org/2000/svg" viewBox="0 0 44 44">
<path d="M34.8,35.7c-0.3-0.3-0.8-0.3-1.1,0s-0.3,0.8,0,1.1l2.1,2.1h-8.5c0-0.1,0-0.1,0-0.2V37c0-1.8-0.8-3.7-2.2-5
	c-1.4-1.3-3.3-2-5.3-2c0,0,0,0,0,0c-2,0-3.9,0.7-5.3,2c-1.4,1.3-2.2,3.1-2.2,4.9v1.7c0,0.1,0,0.2,0,0.2H1.8l0-13.1
	c0-1.3,0.5-2.7,1.3-3.6c0.8-0.9,1.9-1.5,3.1-1.5h2.6c1.2,0,2.3,0.5,3.1,1.5c0.3,0.3,0.7,0.3,1.1,0.1c0.3-0.3,0.3-0.8,0.1-1.1
	c-1.1-1.2-2.6-2-4.2-2H6.2c-1.6,0-3.1,0.7-4.2,2c-1.1,1.2-1.7,2.9-1.7,4.6l0,13.8c0,0.4,0.3,0.7,0.8,0.7h34.8l-2.1,2.1
	c-0.3,0.3-0.3,0.8,0,1.1c0.1,0.1,0.3,0.2,0.5,0.2s0.4-0.1,0.5-0.2l3.4-3.4c0.3-0.3,0.3-0.8,0-1.1L34.8,35.7z M13.9,38.6v-1.7
	c0-1.5,0.6-2.8,1.8-3.8c1.1-1,2.7-1.6,4.3-1.6c0,0,0,0,0,0c1.6,0,3.2,0.6,4.3,1.6c1.1,1,1.7,2.4,1.7,3.9v1.7c0,0.1,0,0.2,0,0.2H13.8
	C13.8,38.8,13.9,38.7,13.9,38.6z M19.8,28.7C19.8,28.7,19.8,28.7,19.8,28.7c1.4,0,2.7-0.5,3.7-1.5c1-1,1.5-2.3,1.5-3.7
	c0-2.9-2.3-5.3-5.2-5.3c0,0,0,0,0,0c-1.4,0-2.7,0.5-3.7,1.5c-1,1-1.5,2.3-1.5,3.7C14.6,26.3,16.9,28.7,19.8,28.7z M17.2,20.7
	c0.7-0.7,1.6-1.1,2.6-1.1c0,0,0,0,0,0c2,0,3.7,1.7,3.7,3.8c0,1-0.4,2-1.1,2.7c-0.7,0.7-1.7,1.1-2.6,1.1c-2,0-3.7-1.7-3.7-3.8
	C16.1,22.4,16.5,21.4,17.2,20.7z M7,17.2C7,17.2,7,17.2,7,17.2c3.2,0,5.8-2.6,5.8-5.8c0-3.2-2.6-5.8-5.7-5.9c-1.5,0-3,0.6-4.1,1.7
	c-1.1,1.1-1.7,2.6-1.7,4.1C1.2,14.6,3.8,17.2,7,17.2z M4,8.3c0.8-0.8,1.9-1.3,3-1.3c0,0,0,0,0,0c2.3,0,4.2,2,4.2,4.4
	c0,2.4-1.9,4.3-4.2,4.3c0,0,0,0,0,0c-2.3,0-4.2-2-4.2-4.4C2.7,10.2,3.2,9.1,4,8.3z M30.3,11.9C30.3,11.9,30.3,11.9,30.3,11.9
	c1.6,0,3-0.6,4.1-1.7c1.1-1.1,1.7-2.6,1.7-4.1c0-3.2-2.6-5.8-5.7-5.9c0,0,0,0,0,0c-1.5,0-3,0.6-4.1,1.7c-1.1,1.1-1.7,2.6-1.7,4.1
	C24.6,9.3,27.2,11.9,30.3,11.9z M27.4,3c0.8-0.8,1.9-1.3,3-1.3c0,0,0,0,0,0c2.3,0,4.2,2,4.2,4.4c0,1.2-0.5,2.2-1.3,3.1
	c-0.8,0.8-1.9,1.3-3,1.3c0,0,0,0,0,0c-2.3,0-4.2-2-4.2-4.4C26.1,4.9,26.5,3.8,27.4,3z M39.4,23.4l0,5.9c0,0.4-0.3,0.7-0.8,0.7
	c0,0,0,0,0,0c-0.4,0-0.7-0.3-0.7-0.8l0-5.9c0-2.1-0.8-4.2-2.2-5.8c-1.4-1.5-3.4-2.4-5.4-2.4c0,0,0,0,0,0c-2,0-3.9,0.8-5.4,2.3
	c-0.3,0.3-0.8,0.3-1.1,0c-0.3-0.3-0.3-0.8,0-1.1c1.7-1.8,4.1-2.8,6.5-2.8c0,0,0,0,0,0c2.4,0,4.8,1,6.5,2.9
	C38.5,18.4,39.4,20.8,39.4,23.4z"/>
</svg>
