<?xml version="1.0" encoding="utf-8"?>
<svg xmlns="http://www.w3.org/2000/svg" xmlns:xlink="http://www.w3.org/1999/xlink" viewBox="0 0 184.3 133.2" style="enable-background:new 0 0 184.25 133.23" xml:space="preserve">
  <defs>
    <path id="a" d="M-18-14h220v150H-18z"/>
  </defs>
  <clipPath id="b">
    <use xlink:href="#a" style="overflow:visible"/>
  </clipPath>
  <g style="clip-path:url(#b)">
    <defs>
      <path id="c" d="M-18-14h220v150H-18z"/>
    </defs>
    <clipPath id="e">
      <use xlink:href="#c" style="overflow:visible"/>
    </clipPath>
    <defs>
      <filter id="d" filterUnits="userSpaceOnUse" x=".2" y="-.3" width="183.8" height="134.4">
        <feColorMatrix values="1 0 0 0 0  0 1 0 0 0  0 0 1 0 0  0 0 0 1 0"/>
      </filter>
    </defs>
    <g style="clip-path:url(#e);mask:url(#SVGID_5_)">
      <defs>
        <path id="h" d="M0 0h184v134H0z"/>
      </defs>
      <clipPath id="i">
        <use xlink:href="#h" style="overflow:visible"/>
      </clipPath>
      <path style="opacity:.35;clip-path:url(#i)" d="M0 0h184v134H0z"/>
    </g>
  </g>
  <path style="clip-path:url(#b);fill:#2b5da9" d="M5 5h173v123H5z"/>
  <path d="M5 101h173v14H5v-14zm0-28v14-14zm64-27h109v14H69V46zm0-28h109v14H69V18zM31 5h13v27h25v14H44v27h134v14H5V73h26V46H5V32h26V5z" style="clip-path:url(#b);fill:#fff"/>
</svg>
