<svg xmlns="http://www.w3.org/2000/svg" viewBox="0 0 25 18" style="enable-background:new 0 0 25 18" xml:space="preserve">
  <path d="M24.8 0H.2L0 .2v17.5c0 .2.1.3.2.3h24.5l.2-.2V.2c.1-.1 0-.2-.1-.2zM23 16H2V2h21v14z"/>
  <path d="M5.4 13h1.4l.2-.2.5-1.2h2.6l.5 1.2.2.2h1.4l.2-.1c0-.1.1-.2 0-.2L9.2 5.2 8.9 5h-.1l-.3.2-3.4 7.5v.2l.3.1zm3.4-4.5.6 1.5H8.2l.6-1.5zM13.7 13h2.2c.8 0 1.5-.2 2.2-.5a4 4 0 0 0 1.5-1.4c.2-.7.4-1.3.4-2.1s-.2-1.5-.5-2.1A4 4 0 0 0 18 5.5a5 5 0 0 0-2.2-.5h-2.1c-.1 0-.3.1-.3.3v7.5c0 .1.1.2.3.2zm1.6-6.2h.6c.5 0 .9.1 1.2.3l.8.7.2 1.2c0 .7-.2 1.2-.6 1.6-.4.4-1 .6-1.7.6h-.6V6.8z"/>
</svg>
