<svg xmlns="http://www.w3.org/2000/svg" viewBox="0 0 29 20">
  <path d="M15.3 8H18v5.8a.3.3 0 0 0 .3.2h1.4a.3.3 0 0 0 .3-.3V8h2.8a.3.3 0 0 0 .2-.3V6.3a.3.3 0 0 0-.3-.2h-7.4a.3.3 0 0 0-.3.3v1.5a.3.3 0 0 0 .3.2Zm12.4-7H1.4a.3.3 0 0 0-.3.3v17.4a.3.3 0 0 0 .3.3h26.4a.3.3 0 0 0 .3-.3V1.4a.3.3 0 0 0-.3-.3ZM26 17H3V3h23ZM9.5 14a3.5 3.5 0 0 0 3.5-3.5V6.2a.3.3 0 0 0-.3-.2h-1.4a.3.3 0 0 0-.3.3v4.2a1.5 1.5 0 0 1-3 0V6.2a.3.3 0 0 0-.3-.2H6.3a.3.3 0 0 0-.2.3v4.2A3.5 3.5 0 0 0 9.5 14Z" data-name="subtitle"/>
</svg>
