<svg xmlns:i="http://ns.adobe.com/AdobeIllustrator/10.0/"
  xmlns="http://www.w3.org/2000/svg" viewBox="0 0 36 33.59" xml:space="preserve">
  <path d="M21.72 12.77c.04-.33.06-.67.06-1v-.69c3.06 0 5.74-2.25 5.74-4.78a4.57 4.57 0 0 0-1.32-2.84l.32-.07c1 .89 1.61 2.14 1.7 3.48 0 3-3 5.85-6.5 5.92M18.64 2.21a2.05 2.05 0 0 0-.39-.91c0-.31.14-.61.64-.36-.27.27-.06.76-.06.76s.55-.26.44-.62c.82.2.23 1.3-.63 1.13m-.71 1.56c-.12-.47-.34-.9-.64-1.27-.3-.42-.77-.69-1.29-.73a3.5 3.5 0 0 0-1 .25 2.62 2.62 0 0 1-.32-.9c0-.22.38-.44 1.1-.44 1.58 0 2.52.71 2.52 1.91-.04.42-.16.82-.37 1.18M22 24.16c.13 0 .26.02.38.07.64 1.3 1.4 2.53 2.29 3.68a16.8 16.8 0 0 1 2.45-.24c.1-.01.2.01.28.07.07.09.1.2.09.31-.01.28-.08.55-.21.79a2.14 2.14 0 0 0-1.68-.51c-.24.01-.48.05-.71.12h-.14l.48.49c.77.83 1.44 1.43 1.44 1.83-.04.31-.22.58-.48.74a4.06 4.06 0 0 0-1.62-2.42h-.06v1.04c0 1.49-.15 1.72-.67 1.72-.09.01-.19.01-.28 0 .33-.49.48-1.08.41-1.67v-.7c0-.27.03-.53.06-.8v-.11h-.08a8.47 8.47 0 0 0-1-.1 2.22 2.22 0 0 0-1.6.41 1.3 1.3 0 0 1-.48-.73c0-.32.19-.34.45-.34h.41c.59.09 1.18.13 1.78.12h.06v-.06a11.87 11.87 0 0 0-2-3.09c.1-.35.2-.59.54-.59m-9.47 3.68v.06h.06c.55-.01 1.1-.06 1.64-.16h.41c.26 0 .45 0 .45.34a1.3 1.3 0 0 1-.48.73 2.18 2.18 0 0 0-1.6-.41c-.33.01-.67.05-1 .1H12v.11c.03.27.06.53.06.8v.7c-.05.58.1 1.15.42 1.63-.09.01-.19.01-.28 0-.52 0-.67-.23-.67-1.72V29l-.06.05a4.04 4.04 0 0 0-1.61 2.42 1 1 0 0 1-.53-.7c0-.43.65-1.07 1.39-1.81l.43-.43v-.06h-.14a2.85 2.85 0 0 0-.71-.12 2.14 2.14 0 0 0-1.68.51c-.13-.24-.2-.51-.21-.79a.5.5 0 0 1 .14-.3.4.4 0 0 1 .28-.07c.82.02 1.64.1 2.45.24a22.13 22.13 0 0 0 2.28-3.68.99.99 0 0 1 .38-.07c.35 0 .44.24.54.59-.82.92-1.5 1.96-2 3.09m-4.7-21c.08-1.36.7-2.62 1.72-3.52l.32.07a4.58 4.58 0 0 0-1.31 2.84c0 2.56 2.73 4.78 5.82 4.78v.69c-.01.35 0 .69.03 1.04-3.5 0-6.58-2.86-6.58-5.92m23.47 5.38c1.57 2.49 2.8 2.45 4.66 2.45a13.25 13.25 0 0 1-3-3.46L30 6.65a6.82 6.82 0 0 0-2.12-3.73c.31-.1.6-.24.87-.42-1.88 0-3.73-1-4.75-1a1 1 0 0 0-1.08.91c0 .58.63 1.16 1.73 1.16.31 0 .62-.04.92-.09a4.35 4.35 0 0 1 1.08 2.65c0 2-2.41 3.58-4.83 3.58h-.41a5.57 5.57 0 0 1-1-2.28c0-1.6 1.05-2.9 1.05-4.48a2.9 2.9 0 0 0-.67-1.85c.29-.23.53-.52.7-.85-.22.08-.45.11-.68.09-1.16 0-2.11-.3-3-.3-.53 0-.67.16-.67.31a.38.38 0 0 0 0 .15 3.06 3.06 0 0 0-.59-.17 5.14 5.14 0 0 0-.88-.08c-1.13 0-1.52.47-1.52.87.07.52.27 1.01.57 1.44.4-.2.84-.31 1.28-.34.6 0 1.13.57 1.41 1.24a5.22 5.22 0 0 1-2.88-.32s.31.56.92.78c.72.22 1.46.37 2.21.45a.94.94 0 0 1-.43.49 9.98 9.98 0 0 1-2.28-.65h-.05c0 .42 1.09 1.35 2.07 1.71a10.85 10.85 0 0 0-2.39 3.85h-.41c-2.42 0-4.82-1.57-4.82-3.58a4.4 4.4 0 0 1 1.07-2.65c.3.05.61.09.92.09 1.1 0 1.69-.58 1.74-1.16a1 1 0 0 0-1.07-.92H12c-1 0-2.88 1-4.76 1 .27.18.56.32.87.42A6.77 6.77 0 0 0 6 6.65l-2.87 4.59a13.25 13.25 0 0 1-3 3.46c1.86 0 3.09 0 4.66-2.45L6.26 9.9c.11.31.24.61.4.9l-2.97 4.67a13.07 13.07 0 0 1-3 3.46c1.85 0 3.08 0 4.65-2.44l2.52-4c.19.2.39.4.6.58l-3.59 5.7a12.87 12.87 0 0 1-3 3.45c1.85 0 3.08.05 4.65-2.44L10 14.2l.7.41-4.27 6.77a13.37 13.37 0 0 1-3 3.45c1.85 0 3.08 0 4.65-2.44l4.36-7c.25.1.51.2.78.28l-4.95 7.9a13.37 13.37 0 0 1-3 3.45c1.85 0 3.08.05 4.65-2.43l5.24-8.39h.16c.14.42.22.86.24 1.3 0 2.64-1.73 5-3.8 6.76.19.06.38.09.58.08.3.01.6-.01.9-.05a21.96 21.96 0 0 1-2 3.23c-.77-.13-1.54-.2-2.32-.22-.67 0-.75.4-.75.75-.01.53.22 1.03.62 1.38.13-.31.38-.73 1.63-.73h.13c-.44.43-1.55 1.36-1.55 2.07.06.66.59 1.18 1.25 1.24a1.48 1.48 0 0 1 0-.42c.13-.69.48-1.33 1-1.8v.3c0 1.43.13 2.08 1 2.08.31-.01.61-.12.86-.31a1.93 1.93 0 0 1-.62-1.77v-.69c.02-.2.02-.41 0-.61.24-.02.47-.02.71 0 0 0 1.29-.1 1.6.57.35-.32.86-.78.86-1.27 0-.33-.16-.71-.83-.71-.25 0-1 .16-1.7.16a17 17 0 0 1 1.66-2.39c.1.39.31.74.62 1a6.88 6.88 0 0 1 1.21-3.24c.16.93.24 1.87.23 2.82 0 3.55-.85 6.17-2.66 6.67.26.46.73.75 1.25.78.66 0 1-.75 1.39-1.46.19.53.72 1.8 1.25 1.8s1.06-1.27 1.25-1.8c.37.71.73 1.46 1.39 1.46.52-.03 1-.33 1.26-.78-1.82-.5-2.67-3.12-2.67-6.67-.01-.95.07-1.89.23-2.82.68.96 1.1 2.07 1.21 3.24.31-.26.53-.61.63-1 .61.75 1.15 1.54 1.62 2.38-.66 0-1.45-.16-1.7-.16-.67 0-.82.38-.82.71 0 .49.51 1 .86 1.27.3-.67 1.59-.57 1.59-.57.24-.02.47-.02.71 0-.02.2-.02.41 0 .61v.69c.11.66-.12 1.33-.62 1.77.25.19.55.3.86.31.91 0 1-.65 1-2.08v-.3c.52.47.87 1.11 1 1.8.02.14.02.28 0 .42A1.38 1.38 0 0 0 27 30.77c0-.74-1.15-1.67-1.52-2.08h.13c1.25 0 1.5.42 1.63.73.4-.35.63-.85.62-1.38 0-.35-.07-.75-.75-.75-.78.02-1.55.09-2.32.22a21.96 21.96 0 0 1-2-3.23c.3.04.6.06.9.05.19.01.39-.02.57-.08-2.07-1.79-3.8-4.12-3.8-6.76.02-.44.1-.88.24-1.3h.16l5.24 8.39c1.57 2.48 2.8 2.43 4.65 2.43a13.37 13.37 0 0 1-3-3.45l-4.92-7.87c.27-.08.53-.18.79-.28l4.35 7c1.57 2.48 2.8 2.44 4.65 2.44a13.37 13.37 0 0 1-3-3.45l-4.23-6.77.7-.41 3.42 5.55c1.57 2.49 2.8 2.44 4.65 2.44a13.2 13.2 0 0 1-3-3.45l-3.55-5.69c.2-.18.4-.38.59-.58l2.52 4c1.57 2.48 2.8 2.44 4.65 2.44a13.07 13.07 0 0 1-3-3.46l-2.99-4.7c.16-.29.29-.59.4-.9l1.47 2.36z"/>
</svg>
