<svg xmlns="http://www.w3.org/2000/svg" viewBox="0 0 44 44">
<path d="M43,29.8l-4.1,0c-0.4,0-0.8-0.1-1.1-0.4c-0.3-0.3-0.5-0.7-0.5-1l0-10.9c0-0.4,0.2-0.8,0.5-1.1c0.1-0.1,0.3-0.2,0.4-0.2
	c0.1,0,0.1,0,0.2-0.1c0.2-0.1,0.4-0.1,0.6-0.1H43c0.4,0,0.8-0.3,0.8-0.8s-0.3-0.8-0.8-0.8l-4.1,0c-0.3,0-0.7,0-1,0.1l-9.2-3.6
	c-0.6-0.2-1.3-0.3-2-0.3c-0.7,0-1.3,0.2-1.9,0.5l-4.6,2.3c0,0-0.1,0-0.1,0.1L20,13.4c-0.6-0.4-1.3-0.7-2.1-0.8
	c-0.7-0.1-1.5,0-2.2,0.3L9,15.7c-0.1-0.2-0.3-0.4-0.5-0.6c-0.6-0.5-1.4-0.8-2.2-0.8H1c-0.4,0-0.8,0.3-0.8,0.8s0.3,0.8,0.8,0.8l5.4,0
	c0.4,0,0.8,0.1,1.1,0.4C7.8,16.6,8,17,8,17.3l0,10.9c0,0.4-0.2,0.8-0.5,1.1c-0.3,0.3-0.7,0.4-1.2,0.4H1c-0.4,0-0.8,0.3-0.8,0.8
	s0.3,0.8,0.8,0.8l5.3,0c0.1,0,0.1,0,0.2,0c0.8,0,1.5-0.3,2.1-0.8c0.2-0.2,0.4-0.5,0.6-0.8h2.6l6,4.6c0.4,0.4,1,0.7,1.6,0.8
	c0.1,0,0.1,0,0.2,0c0.6,0,1.1-0.2,1.6-0.6l6-4.9l8.7-1.7l0,0.5c0,0.8,0.4,1.6,1,2.1c0.6,0.5,1.3,0.8,2,0.8c0.1,0,0.1,0,0.2,0H43
	c0.4,0,0.8-0.3,0.8-0.8S43.4,29.8,43,29.8z M20.1,33.3c-0.2,0.2-0.4,0.2-0.7,0.2c-0.2,0-0.5-0.1-0.6-0.3c0,0-0.1-0.1-0.1-0.1
	l-6.2-4.8c-0.1-0.1-0.3-0.2-0.5-0.2H9.5l0-10.9c0-0.1,0-0.1,0-0.2l6.8-2.9c0.5-0.2,1-0.2,1.5-0.2c0.4,0.1,0.8,0.2,1.2,0.4
	c-0.2,0.3-0.4,0.6-0.6,1c-0.3,0.9-0.3,1.9,0,2.7c0.2,0.5,0.4,0.9,0.8,1.3c0.3,0.4,0.8,0.7,1.2,0.9c0.5,0.2,0.9,0.3,1.4,0.3
	c0,0,0,0,0,0c0.5,0,1-0.1,1.4-0.3l1.3-0.5l4.4,4.9c0.2,0.2,0.2,0.5,0.2,0.7c0,0.3-0.2,0.5-0.3,0.6l-2.6,2.1c0,0,0,0,0,0L20.1,33.3z
	 M29.4,27.6l0.3-0.3c0.5-0.4,0.8-1,0.9-1.6c0.1-0.6-0.1-1.3-0.5-1.8L26,19.3l1.9-0.8c0.4-0.2,0.6-0.6,0.4-1c-0.2-0.4-0.6-0.6-1-0.4
	l-4.6,2c-0.3,0.1-0.6,0.2-0.9,0.2c-0.3,0-0.6-0.1-0.9-0.2c-0.3-0.1-0.5-0.3-0.7-0.5c-0.2-0.2-0.4-0.5-0.5-0.8
	c-0.2-0.5-0.2-1.1,0-1.7c0.2-0.5,0.6-1,1.1-1.3l4.6-2.3c0.4-0.2,0.9-0.3,1.3-0.4c0.5,0,0.9,0,1.3,0.2l8.2,3.2
	c-0.4,0.5-0.7,1.1-0.7,1.8l0,9L29.4,27.6z"/>
</svg>
