<svg xmlns="http://www.w3.org/2000/svg" viewBox="0 0 247 270.8" xml:space="preserve">
  <path fill="#009CB2" d="M168 .3V79h79M55.3 43.4V0H168l79 79v191.8H90m0 0H55.2V0M175.3 3.3"/>
  <path fill="#FFF" d="M0 43.9h110.4V114H0z"/>
  <g fill="#000A3E">
    <path d="M46.4 76c.8 1.7 1.2 3.5 1.2 5.6 0 2.1-.4 4-1.2 5.5a9 9 0 0 1-8.3 5c-2.6 0-4.7-1-6.2-2.8v10.6h-5.6V71.3h4.9l.5 2.8a7.6 7.6 0 0 1 6.4-3c1.9 0 3.5.4 5 1.3s2.5 2 3.3 3.7zM42 81.6c0-1.7-.5-3.1-1.4-4.2s-2.2-1.6-3.7-1.6-2.7.5-3.6 1.6c-1 1-1.4 2.5-1.4 4.2 0 1.8.5 3.3 1.4 4.4.9 1 2.1 1.6 3.6 1.6s2.8-.6 3.7-1.7c1-1 1.4-2.5 1.4-4.3zM71.3 91.9h-5l-.5-2.9c-1.5 2-3.7 3.1-6.4 3.1a9 9 0 0 1-8.3-5 12 12 0 0 1-1.2-5.6c0-2 .5-3.9 1.3-5.5a9 9 0 0 1 8.3-5c2.6 0 4.7 1 6.2 2.9v-10h5.6v28zm-5.6-10.3c0-1.8-.4-3.2-1.3-4.3s-2.1-1.6-3.7-1.6c-1.5 0-2.7.5-3.6 1.6-1 1-1.4 2.5-1.4 4.3s.5 3.2 1.4 4.3c1 1 2.1 1.6 3.6 1.6 1.6 0 2.8-.5 3.7-1.6.9-1.1 1.3-2.5 1.3-4.3zM81.4 63.9H86v4.8h-3.5c-1 0-1.6.5-1.6 1.6v1H86v4.8H81v15.8h-5.7V69.5c0-1.8.5-3.2 1.6-4.2 1-1 2.6-1.4 4.6-1.4z"/>
  </g>
  <path fill="#0FF" d="m168 0 79 79h-79z"/>
  <g>
    <path fill="#19224B" d="M95.2 158.3H207v14H95.2z"/>
  </g>
  <g>
    <path fill="#19224B" d="M95.2 194.4h61.2v14H95.2z"/>
  </g>
</svg>
