<?xml version="1.0" encoding="utf-8"?>
<svg xmlns="http://www.w3.org/2000/svg" viewBox="0 0 277.3 53.2" style="enable-background:new 0 0 277.3 53.2" xml:space="preserve">
  <path d="M.9 12.9V.4h2.3C4.3.4 5 .6 5.8.7s1.4.6 1.8 1.1c.5.5.9 1.1 1.1 1.8.3.8.3 1.7.3 2.8 0 1.2-.2 2.1-.5 2.9-.3.8-.8 1.5-1.2 2-.5.5-1.2.9-2 1.2-.8.3-1.7.3-2.6.3H.9v.1zM2.6 1.7v9.9H3c.8 0 1.4-.2 2-.3.6-.2 1.1-.5 1.4-.8.4-.5.6-.9.9-1.7.2-.6.3-1.5.3-2.4s-.2-1.7-.3-2.3c-.2-.6-.5-1.1-.9-1.5-.3-.3-.8-.6-1.4-.8-.6-.2-1.2-.3-1.8-.3h-.6v.2zm10.2 11.2h-1.5V4.2h1.5v8.7zM12 2.1c-.3 0-.6-.2-.8-.3-.2-.2-.3-.5-.3-.8s.2-.6.3-.8c.2-.2.5-.3.8-.3.3 0 .5.2.8.3.2.2.3.5.3.8s-.2.6-.3.8c-.3.2-.5.3-.8.3zm8.5 5V8.8h-4.4c0 1.1.3 1.8.6 2.3.5.5.9.8 1.7.8.3 0 .5 0 .8-.2.2 0 .5-.2.6-.2.2-.2.3-.2.3-.3l.2-.2.6 1.1-.3.3c-.2.2-.3.3-.5.3-.2.2-.5.2-.8.3-.3.2-.6.2-1.1.2-.6 0-1.1-.2-1.5-.3s-.7-.4-1-.9c-.3-.3-.6-.9-.8-1.5-.2-.6-.3-1.2-.3-2.1 0-.8.2-1.4.3-2 .2-.6.5-1.1.8-1.4.3-.3.6-.6 1.1-.8s.8-.3 1.2-.3c.8 0 1.5.3 2 .8.4.6.5 1.4.5 2.4zm-2.7-1.9c-.5 0-.9.2-1.2.6-.3.5-.5 1.1-.6 1.8h3.2V7c0-.6-.2-1.1-.3-1.4-.4-.3-.7-.4-1.1-.4zm15.3-1.6c0 .5 0 .8-.2 1.1-.2.3-.3.6-.5.9-.2.3-.5.5-.6.6-.3.2-.5.3-.8.3.3 0 .6.2.9.3.3.2.5.3.8.6.2.3.3.6.5.9.2.3.2.8.2 1.1 0 .5-.2.9-.3 1.4-.2.5-.5.8-.8 1.1-.3.3-.8.6-1.4.8-.6.2-1.2.3-2 .3h-2.6V.5h2.4c.8 0 1.4 0 1.8.2.5.2.9.3 1.4.6.5.3.6.6.8 1.1.4.3.4.8.4 1.2zm-1.5 0c0-.6-.2-1.1-.6-1.4-.5-.3-1.1-.6-2-.6h-.8v4.3h.8c.9 0 1.5-.2 2-.6.3-.3.6-.9.6-1.7zm.2 5.8c0-.6-.2-1.2-.6-1.7-.5-.5-1.1-.6-1.8-.6h-1.1v4.4h.9c.9 0 1.7-.2 2-.6.4-.3.6-.7.6-1.5zM41 7.1V8.8h-4.6c0 1.1.3 1.8.6 2.3.5.5.9.8 1.7.8.3 0 .5 0 .8-.2.2 0 .5-.2.6-.2.2-.2.3-.2.3-.3l.2-.2.6 1.1-.3.3c-.2.2-.3.3-.5.3-.2.2-.5.2-.8.3-.3.2-.6.2-1.1.2-.6 0-1.1-.2-1.5-.3s-.7-.4-1-.9c-.3-.3-.6-.9-.8-1.5-.2-.6-.3-1.2-.3-2.1 0-.8.2-1.4.3-2 .2-.6.5-1.1.8-1.4.3-.3.6-.6 1.1-.8.5-.2.8-.3 1.2-.3.8 0 1.5.3 2 .8.4.6.7 1.4.7 2.4zm-2.7-1.9c-.5 0-.9.2-1.2.6-.3.5-.5 1.1-.6 1.8h3.2V7c0-.6-.2-1.1-.3-1.4-.3-.3-.6-.4-1.1-.4zm4.1 5.4c0-.5.2-.9.3-1.2.2-.3.5-.6.8-.8.3-.2.8-.3 1.2-.5.5-.2.9-.2 1.4-.2h.5v-.8c0-.8-.2-1.2-.5-1.5-.3-.3-.6-.5-1.1-.5s-.8.2-1.1.3c-.3.2-.5.3-.8.5l-.6-.9.3-.3c.2-.2.3-.3.6-.3.2-.2.5-.2.8-.3.3 0 .6-.2.9-.2.9 0 1.5.3 2 .8s.8 1.2.8 2.4V13h-1.4v-.9c0 .2-.2.3-.2.3-.2.2-.2.3-.3.3-.2.2-.3.2-.5.3s-.5.2-.8.2c-.3 0-.6 0-.9-.2-.3-.2-.5-.3-.8-.5-.2-.2-.3-.5-.5-.8.1-.3-.1-.6-.1-1.1zm2.7 1.3c.2 0 .5 0 .6-.2.2 0 .3-.2.5-.2l.3-.3c.2-.2.2-.2.2-.3v-2h-.5c-.8 0-1.2.2-1.5.3-.3.2-.6.6-.6 1.1 0 .5.2.8.3 1.1 0 .3.3.5.7.5zm11.1 1h-1.4V12l-.3.3-.5.5c-.2.2-.5.3-.6.3s-.6.2-.9.2c-.5 0-.8 0-1.1-.2s-.6-.3-.8-.6c-.2-.3-.5-.6-.5-.9-.2-.6-.2-1.1-.2-1.7V4.3h1.5v5.6c0 .8.2 1.2.3 1.5.3.3.6.5 1.1.5.5 0 .8-.2 1.1-.3.3-.2.5-.5.8-.6V4.3h1.5V13zm6-7.4h-1.8v7.4h-1.5V5.5h-1.1v-.9l1.1-.2V2.7c0-.5 0-.9.2-1.2.2-.3.3-.6.5-.8.2-.2.5-.3.8-.5.3-.2.6-.2.9-.2.3 0 .6 0 .8.2.2.2.3.2.5.2v.9s-.2-.2-.3-.2c-.2 0-.3-.2-.5-.2-.3 0-.6.2-.8.3-.2.2-.3.6-.3 1.2v1.5h1.8l-.3 1.6zm5.1 0h-2v4.9c0 .6.2 1.1.3 1.2.2.2.5.3.8.3.2 0 .5 0 .6-.2.2 0 .3-.2.3-.2l.2 1.2s-.2.2-.5.2c-.3.2-.6.2-.9.2-.8 0-1.4-.2-1.7-.6-.3-.5-.6-1.1-.6-2.1v-5h-1.1v-.9l1.1-.2.2-2.4h1.4v2.4h2.1l-.2 1.2zm5.5 0s-.2 0-.3-.2H72c-.5 0-.8.2-1.1.3-.3.3-.5.5-.6.8v6.4h-1.5V4.1h1.4v1.2c0-.2.2-.3.3-.5.2-.2.2-.3.3-.5.2-.2.3-.2.5-.3.2 0 .5-.2.8-.2h.5c.2 0 .2 0 .3.2v1.5zm.9 5.1c0-.5.2-.9.3-1.2.2-.3.5-.6.8-.8.3-.2.8-.3 1.2-.5.5-.2.9-.2 1.4-.2h.5v-.8c0-.8-.2-1.2-.5-1.5-.3-.3-.6-.5-1.1-.5-.5 0-.8.2-1.1.3-.3.2-.5.3-.8.5l-.6-.9c.2 0 .2 0 .4-.1.2-.2.3-.3.6-.3.2-.2.5-.2.8-.3.3-.2.6-.2.9-.2.9 0 1.5.3 2 .8s.8 1.2.8 2.4V13.2h-1.4v-.9c0 .2-.2.3-.2.3-.2.2-.2.3-.3.3-.2.2-.3.2-.5.3-.2.2-.5.2-.8.2s-.6 0-.9-.2c-.3-.2-.5-.3-.8-.5-.2-.2-.3-.5-.5-.8-.2-.5-.2-.8-.2-1.3zm2.6 1.3c.2 0 .5 0 .6-.2.2 0 .3-.2.5-.2l.3-.3c.2-.2.2-.2.2-.3v-2h-.5c-.8 0-1.2.2-1.5.3-.3.2-.6.6-.6 1.1 0 .5.2.8.3 1.1.1.3.2.5.7.5zm11.3-6.6h-1.1c.3.5.5.9.5 1.5 0 .5 0 .9-.2 1.2-.2.3-.3.6-.6.9-.3.3-.6.5-.9.6-.3.2-.8.2-1.2.2h-.6c-.2 0-.3.2-.5.3s-.3.3-.3.5 0 .3.2.5.3.2.6.2h1.1c.5 0 .8 0 1.1.2.3.2.6.2.9.5.3.2.5.5.6.8.2.3.2.6.2 1.1 0 .5-.2.9-.3 1.2-.2.5-.5.8-.9 1.1-.3.3-.8.5-1.4.6-.5.2-1.1.3-1.7.3-.9 0-1.7-.2-2.1-.6-.5-.5-.8-.9-.8-1.7 0-.3 0-.6.2-.9.2-.3.3-.5.5-.6s.3-.3.5-.5.3-.2.5-.3c-.3-.3-.6-.6-.6-1.2 0-.3 0-.5.2-.6.2-.2.2-.3.3-.5.2-.2.3-.2.3-.3.2 0 .2-.2.3-.2-.5-.2-.8-.5-1.1-.9-.3-.5-.5-1.1-.5-1.7 0-.5.2-.9.3-1.2.2-.3.3-.6.6-.9.3-.3.6-.5.9-.6s.8-.2 1.2-.2.8 0 1.2.2h2.6v1zm-4 7.3H83c-.1 0-.2.2-.3.2l-.3.3c-.2.2-.3.3-.3.5s-.2.3-.2.6c0 .9.5 1.4 1.5 1.4.9 0 1.5-.2 2-.5s.6-.8.6-1.2-.2-.8-.5-.9c-.3-.2-.6-.3-1.1-.3h-.8zm2-5.6c0-.6-.2-1.1-.5-1.4-.3-.3-.6-.5-1.1-.5s-.8.2-1.1.5c-.3.3-.5.8-.5 1.4 0 .6.2 1.1.5 1.4.3.3.6.5 1.1.5s.8-.2 1.1-.5c.3-.3.5-.8.5-1.4zM93 5.5h-1.8v4.9c0 .6.2 1.1.3 1.2.2.2.5.3.8.3.2 0 .5 0 .6-.2.2 0 .3-.2.3-.2l.2 1.2s-.2.2-.5.2c-.3.2-.6.2-.9.2-.8 0-1.4-.2-1.7-.6-.5-.3-.6-1.1-.6-2v-5h-1.1v-.9l1.1-.2.2-2.4h1.4v2.4h2.1L93 5.5zm7 1.6V8.8h-4.4c0 1.1.3 1.8.6 2.3.5.5.9.8 1.7.8.3 0 .5 0 .8-.2.2 0 .5-.2.6-.2.2-.2.3-.2.3-.3l.2-.2.6 1.1-.3.3c-.2.2-.3.3-.5.3-.2.2-.5.2-.8.3-.3.2-.6.2-1.1.2-.6 0-1.1-.2-1.5-.3-.5-.2-.8-.5-1.1-.9-.3-.3-.6-.9-.8-1.5-.2-.6-.3-1.2-.3-2.1 0-.8.2-1.4.3-2 .2-.6.5-1.1.8-1.4.3-.3.6-.6 1.1-.8.5-.2.8-.3 1.2-.3.8 0 1.5.3 2 .8.5.6.6 1.4.6 2.4zm-2.7-1.9c-.5 0-.9.2-1.2.6-.3.5-.5 1.1-.6 1.8h3.2V7c0-.6-.2-1.1-.3-1.4-.2-.3-.7-.4-1.1-.4zm8.2 3.5c0-.9.2-1.7.3-2.3.3-.6.5-1.1.9-1.4.3-.3.8-.6 1.2-.8.5-.2.9-.2 1.4-.2h.8c.2 0 .3.2.5.2V.1l1.5-.2v13h-1.4V12s-.2.2-.2.3c-.2.2-.3.3-.5.3-.2.2-.3.3-.6.3-.3.2-.6.2-.9.2-.5 0-.8-.2-1.2-.3-.3-.2-.8-.5-.9-.8-.3-.3-.5-.8-.6-1.4-.3-.4-.3-1.2-.3-1.9zm3.3 3.2c.3 0 .5 0 .6-.2.2 0 .3-.2.5-.2.2-.2.3-.2.3-.3.2-.2.2-.2.2-.3V5.6c-.2-.2-.3-.2-.5-.2s-.5-.2-.6-.2c-.3 0-.6 0-.9.2-.3.2-.6.3-.8.6-.2.3-.5.6-.5 1.1-.2.5-.2.9-.2 1.5s0 1.1.2 1.5.3.8.5.9c.2.3.5.5.6.6.2.1.5.3.6.3zm11-4.8V8.8h-4.4c0 1.1.3 1.8.6 2.3.5.5.9.8 1.7.8.3 0 .5 0 .8-.2.2 0 .5-.2.6-.2.2-.2.3-.2.3-.3l.2-.2.6 1.1-.3.3c-.2.2-.3.3-.5.3-.2.2-.5.2-.8.3s-.6.2-1.1.2c-.6 0-1.1-.2-1.5-.3s-.8-.5-1.1-.9c-.3-.3-.6-.9-.8-1.5-.2-.6-.3-1.2-.3-2.1 0-.8.2-1.4.3-2 .2-.6.5-1.1.8-1.4.3-.3.6-.6 1.1-.8.5-.2.8-.3 1.2-.3.8 0 1.5.3 2 .8.4.6.6 1.4.6 2.4zM117 5.2c-.5 0-.9.2-1.2.6-.3.5-.5 1.1-.6 1.8h3.2V7c0-.6-.2-1.1-.3-1.4-.3-.3-.6-.4-1.1-.4zm8.6.3s-.2 0-.3-.2h-.5c-.5 0-.8.2-1.1.3-.3.3-.5.5-.6.8v6.4h-1.5V4.1h1.5v1.2c0-.2.2-.3.3-.5.2-.2.2-.3.3-.5s.3-.2.5-.3c.2 0 .5-.2.8-.2h.5c.2 0 .2 0 .3.2l-.2 1.5zm11.7-1.9c0 .5 0 .8-.2 1.1-.2.3-.3.6-.5.9-.2.3-.5.5-.6.6-.3.2-.5.3-.8.3.3 0 .6.2.9.3.3.2.5.3.8.6.2.3.3.6.5.9.2.3.2.8.2 1.1 0 .5-.2.9-.3 1.4-.2.5-.5.8-.8 1.1s-.8.6-1.4.8c-.6.2-1.2.3-2 .3h-2.4V.5h2.4c.8 0 1.4 0 1.8.2.5.2.9.3 1.4.6.3.3.6.6.8 1.1.2.3.2.8.2 1.2zm-1.6 0c0-.6-.2-1.1-.6-1.4-.5-.3-1.1-.6-2-.6h-.8v4.3h.8c.9 0 1.5-.2 2-.6.3-.3.6-.9.6-1.7zm.2 5.8c0-.6-.2-1.2-.6-1.7-.5-.5-1.1-.6-1.8-.6h-1.1v4.4h.9c.9 0 1.7-.2 2-.6.4-.3.6-.7.6-1.5zm9.7 3.5h-1.4V12l-.3.3-.5.5c-.2.2-.5.3-.6.3-.2 0-.6.2-.9.2-.5 0-.8 0-1.1-.2s-.6-.3-.8-.6c-.2-.3-.5-.6-.5-.9-.2-.5-.2-.9-.2-1.5V4.5h1.5V10c0 .8.2 1.2.3 1.5.3.3.6.5 1.1.5s.8-.2 1.1-.3.5-.5.8-.6V4.4h1.5v8.5zm7 0V7.3c0-.8-.2-1.2-.3-1.5-.3-.3-.6-.5-1.1-.5-.5 0-.8.2-1.1.3s-.5.5-.8.6v6.7h-1.5V4.2h1.4v.9l.3-.3.5-.5c.2-.2.5-.3.8-.3s.6-.2.9-.2c.5 0 .8 0 1.1.2.3.2.6.3.8.6.2.3.5.6.5.9.2.5.2.9.2 1.5v5.6h-1.5v.3zm3.4-4.2c0-.9.2-1.7.3-2.3.3-.6.5-1.1.9-1.4.3-.3.8-.6 1.2-.8.5-.2.9-.2 1.4-.2h.8c.2 0 .3.2.5.2V.1l1.5-.2v13h-1.4V12s-.2.2-.2.3c-.2.2-.3.3-.5.3-.2.2-.3.3-.6.3-.3.2-.6.2-.9.2-.5 0-.8-.2-1.2-.3-.3-.2-.8-.5-.9-.8-.3-.3-.5-.8-.6-1.4-.3-.4-.3-1.2-.3-1.9zm3.3 3.2c.3 0 .5 0 .6-.2.2 0 .3-.2.5-.2.2-.2.3-.2.3-.3.2-.2.2-.2.2-.3V5.6c-.2-.2-.3-.2-.5-.2s-.5-.2-.6-.2c-.3 0-.6 0-.9.2-.3.2-.6.3-.8.6-.2.3-.5.6-.5 1.1-.2.5-.2.9-.2 1.5s0 1.1.2 1.5.3.8.5.9c.2.3.5.5.6.6.1.1.3.3.6.3zm10.9-4.8V8.8h-4.6c0 1.1.3 1.8.6 2.3.5.5.9.8 1.7.8.3 0 .5 0 .8-.2.2 0 .5-.2.6-.2.2-.2.3-.2.3-.3l.2-.2.6 1.1-.3.3c-.2.2-.3.3-.5.3-.2.2-.5.2-.8.3-.3.2-.6.2-1.1.2-.6 0-1.1-.2-1.5-.3-.5-.2-.8-.5-1.1-.9-.3-.3-.6-.9-.8-1.5-.2-.6-.3-1.2-.3-2.1 0-.8.2-1.4.3-2 .2-.6.5-1.1.8-1.4.3-.3.6-.6 1.1-.8.5-.2.8-.3 1.2-.3.8 0 1.5.3 2 .8.5.6.8 1.4.8 2.4zm-2.7-1.9c-.5 0-.9.2-1.2.6-.3.5-.5 1.1-.6 1.8h3.2V7c0-.6-.2-1.1-.3-1.4-.3-.3-.6-.4-1.1-.4zm8.4.7-.5-.5c-.3-.2-.6-.3-1.1-.3-.5 0-.6.2-.9.3-.2.2-.3.5-.3.6 0 .3.2.6.3.8.2.2.5.5.9.6l.6.3c.6.3 1.1.8 1.4 1.1.3.5.5.9.5 1.5 0 .8-.3 1.2-.8 1.7s-1.2.8-2.1.8c-.3 0-.6 0-.9-.2-.3-.2-.5-.2-.8-.3-.2-.2-.3-.2-.5-.3-.2-.2-.3-.2-.3-.3l.8-1.2.3.3.3.3c.2.2.3.2.5.2s.5.2.6.2c.5 0 .8-.2 1.1-.3s.3-.5.3-.8c0-.2 0-.5-.2-.6 0-.2-.2-.3-.3-.5-.2-.2-.3-.3-.5-.3-.2-.2-.3-.3-.6-.3l-.6-.3c-.6-.3-.9-.8-1.2-1.1-.3-.5-.5-.9-.5-1.5 0-.3 0-.6.2-.9.2-.3.3-.5.6-.8.3-.2.5-.3.8-.5.3-.2.6-.2.9-.2s.6 0 .9.2c.3 0 .5.2.6.3.2.2.3.2.5.3l.3.3-.3 1.4zm6.5-.4s-.2 0-.3-.2h-.5c-.5 0-.8.2-1.1.3-.3.3-.5.5-.6.8v6.4h-1.5V4.1h1.4v1.2c0-.2.2-.3.3-.5.2-.2.2-.3.3-.5.2-.2.3-.2.5-.3.2 0 .5-.2.8-.2h.5c.2 0 .2 0 .3.2v1.5zm6.7 1.6V8.8h-4.4c0 1.1.3 1.8.6 2.3.5.5.9.8 1.7.8.3 0 .5 0 .8-.2.2 0 .5-.2.6-.2.2-.2.3-.2.3-.3l.2-.2.6 1.1-.3.3c-.2.2-.3.3-.5.3-.2.2-.5.2-.8.3-.3.2-.6.2-1.1.2-.6 0-1.1-.2-1.5-.3-.5-.2-.8-.5-1.1-.9-.3-.3-.6-.9-.8-1.5-.2-.6-.3-1.2-.3-2.1 0-.8.2-1.4.3-2 .2-.6.5-1.1.8-1.4.3-.3.6-.6 1.1-.8.5-.2.8-.3 1.2-.3.8 0 1.5.3 2 .8.4.6.6 1.4.6 2.4zm-2.7-1.9c-.5 0-.9.2-1.2.6-.3.5-.5 1.1-.6 1.8h3.2V7c0-.6-.2-1.1-.3-1.4-.4-.3-.7-.4-1.1-.4zm10.9.1h-1.1c.3.5.5.9.5 1.5 0 .5 0 .9-.2 1.2-.2.3-.3.6-.6.9-.3.3-.6.5-.9.6-.3.2-.8.2-1.2.2h-.6c-.2 0-.3.2-.5.3-.2.2-.3.3-.3.5s0 .3.2.5.3.2.6.2h1.1c.5 0 .8 0 1.1.2.3.2.6.2.9.5.3.2.5.5.6.8.2.3.2.6.2 1.1 0 .5-.2.9-.3 1.2-.2.5-.5.8-.9 1.1-.3.3-.8.5-1.4.6-.5.2-1.1.3-1.7.3-.9 0-1.7-.2-2.1-.6-.5-.5-.8-.9-.8-1.7 0-.3 0-.6.2-.9.2-.3.3-.5.5-.6s.3-.3.5-.5.3-.2.5-.3c-.3-.3-.6-.6-.6-1.2 0-.3 0-.5.2-.6.2-.2.2-.3.3-.5.2-.2.3-.2.3-.3.2 0 .2-.2.3-.2-.5-.2-.8-.5-1.1-.9-.3-.5-.5-1.1-.5-1.7 0-.5.2-.9.3-1.2.2-.3.3-.6.6-.9.3-.3.6-.5.9-.6s.8-.2 1.2-.2.8 0 1.2.2h2.6v1zm-4 7.3h-.6c-.2 0-.2.2-.3.2l-.3.3c-.1.1-.2.3-.2.5s-.2.3-.2.6c0 .9.5 1.4 1.5 1.4.9 0 1.5-.2 2-.5s.6-.8.6-1.2-.2-.8-.5-.9-.6-.3-1.1-.3h-.9zm1.9-5.6c0-.6-.2-1.1-.5-1.4-.3-.3-.6-.5-1.1-.5-.5 0-.8.2-1.1.5-.3.3-.5.8-.5 1.4 0 .6.2 1.1.5 1.4.3.3.6.5 1.1.5.5 0 .8-.2 1.1-.5.3-.3.5-.8.5-1.4zm5.3 5.9H199V4.2h1.5v8.7zm-.8-10.8c-.3 0-.6-.2-.8-.3-.2-.2-.3-.5-.3-.8s.2-.6.3-.8c.2-.2.5-.3.8-.3.3 0 .5.2.8.3.2.2.3.5.3.8s-.2.6-.3.8c-.3.2-.5.3-.8.3zm8.5 5V8.8h-4.6c0 1.1.3 1.8.6 2.3.5.5.9.8 1.7.8.3 0 .5 0 .8-.2.2 0 .5-.2.6-.2.2-.2.3-.2.3-.3l.2-.2.6 1.1-.3.3c-.2.2-.3.3-.5.3-.2.2-.5.2-.8.3s-.6.2-1.1.2c-.6 0-1.1-.2-1.5-.3s-.8-.5-1.1-.9c-.3-.3-.6-.9-.8-1.5-.2-.6-.3-1.2-.3-2.1 0-.8.2-1.4.3-2 .2-.6.5-1.1.8-1.4.3-.3.6-.6 1.1-.8s.8-.3 1.2-.3c.8 0 1.5.3 2 .8.5.6.8 1.4.8 2.4zm-2.7-1.9c-.5 0-.9.2-1.2.6-.3.5-.5 1.1-.6 1.8h3.2V7c0-.6-.2-1.1-.3-1.4-.3-.3-.6-.4-1.1-.4zm8.5.3s-.2 0-.3-.2h-.5c-.5 0-.8.2-1.1.3-.3.3-.5.5-.6.8v6.4H210V4.1h1.4v1.2c0-.2.2-.3.3-.5.2-.2.2-.3.3-.5.2-.2.3-.2.5-.3.2 0 .5-.2.8-.2h.5c.2 0 .2 0 .3.2v1.5zm7.6 7.4h-1.4V12l-.3.3-.5.5c-.2.2-.5.3-.6.3-.2 0-.6.2-.9.2-.5 0-.8 0-1.1-.2s-.6-.3-.8-.6c-.2-.3-.5-.6-.5-.9-.2-.5-.2-.9-.2-1.5V4.5h1.5V10c0 .8.2 1.2.3 1.5.3.3.6.5 1.1.5s.8-.2 1.1-.3.5-.5.8-.6V4.4h1.5v8.5zm6.9 0V7.3c0-.8-.2-1.2-.3-1.5-.3-.3-.6-.5-1.1-.5s-.8.2-1.1.3c-.3.2-.5.5-.8.6v6.7h-1.5V4.2h1.4v.9l.3-.3.5-.5c.2-.2.5-.3.8-.3s.6-.2.9-.2c.5 0 .8 0 1.1.2.3.2.6.3.8.6.2.3.5.6.5.9.2.5.2.9.2 1.5v5.6h-1.5v.3zm9.8-7.6h-1.1c.3.5.5.9.5 1.5 0 .5 0 .9-.2 1.2-.2.3-.3.6-.6.9-.3.3-.6.5-.9.6-.3.2-.8.2-1.2.2h-.6c-.2 0-.3.2-.5.3s-.3.3-.3.5 0 .3.2.5.3.2.6.2h1.1c.5 0 .8 0 1.1.2.3.2.6.2.9.5.3.2.5.5.6.8.2.3.2.6.2 1.1 0 .5-.2.9-.3 1.2s-.5.8-.9 1.1c-.3.3-.8.5-1.4.6-.5.2-1.1.3-1.7.3-.9 0-1.7-.2-2.1-.6-.5-.5-.8-.9-.8-1.7 0-.3 0-.6.2-.9.2-.3.3-.5.5-.6l.5-.5c.2-.2.3-.2.5-.3-.3-.3-.6-.6-.6-1.2 0-.3 0-.5.2-.6.2-.2.2-.3.3-.5.2-.2.3-.2.3-.3.2 0 .2-.2.3-.2-.5-.2-.8-.5-1.1-.9-.3-.5-.5-1.1-.5-1.7 0-.5.2-.9.3-1.2.2-.3.3-.6.6-.9.3-.3.6-.5.9-.6.3-.2.8-.2 1.2-.2s.8 0 1.2.2h2.6v1zm-3.9 7.3h-.6c-.2 0-.2.2-.3.2l-.3.3c-.2.2-.2.3-.2.5s-.2.3-.2.6c0 .9.5 1.4 1.5 1.4.9 0 1.5-.2 2-.5s.6-.8.6-1.2-.2-.8-.5-.9-.6-.3-1.1-.3h-.9zm2-5.6c0-.6-.2-1.1-.5-1.4-.3-.3-.6-.5-1.1-.5s-.8.2-1.1.5c-.3.3-.5.8-.5 1.4 0 .6.2 1.1.5 1.4.3.3.6.5 1.1.5s.8-.2 1.1-.5c.3-.3.5-.8.5-1.4zM4.3 23.7H2.6v7.4H1.1v-7.4H0v-1.1l1.1-.2v-1.7c0-.5 0-.9.2-1.2s.3-.6.5-.8.5-.3.8-.5.8-.3 1.1-.3.6 0 .8.2c.2.2.3.2.5.2l-.3 1.2s-.2-.2-.3-.2c-.2 0-.3-.2-.5-.2-.3 0-.6.2-.8.3-.2.2-.3.6-.3 1.2v1.5h2l-.5 1.6zm7.6 7.5h-1.4v-.9l-.3.3c-.2.1-.3.3-.5.4-.2.2-.5.3-.6.3-.2 0-.6.2-.9.2-.5 0-.8 0-1.1-.2-.3-.2-.6-.3-.8-.6s-.5-.6-.5-.9c-.2-.5-.2-.9-.2-1.5v-5.6h1.5v5.6c0 .8.2 1.2.3 1.5.3.3.6.5 1.1.5s.8-.2 1.1-.3.5-.5.8-.6v-6.7H12v8.5h-.1zM8.2 19.9c0 .3-.2.5-.3.6-.2.2-.3.3-.6.3s-.5-.2-.6-.3c-.2-.2-.3-.5-.3-.6 0-.3.2-.5.3-.6.1-.1.3-.3.6-.3s.5.2.6.3c.2.2.3.5.3.6zm2.7 0c0 .3-.2.5-.3.6-.2.2-.3.3-.6.3s-.5-.2-.6-.3c-.2-.2-.3-.5-.3-.6 0-.3.2-.5.3-.6.2-.1.3-.3.6-.3s.5.2.6.3c.2.2.3.5.3.6zm7 3.8s-.2 0-.3-.2h-.5c-.5 0-.8.2-1.1.3-.3.3-.5.5-.6.8V31H14v-8.7h1.4v1.2c0-.2.2-.3.3-.5.2-.2.2-.3.3-.5.2-.2.3-.2.5-.3.2 0 .5-.2.8-.2h.5c.2 0 .2 0 .3.2v1.5zm15.5-5v12.5h-1.5v-9.5c0 .3-.2.8-.3 1.4-.2.6-.5 1.2-.6 2l-2.1 6.1h-1.2l-2.1-6.1c-.3-.8-.5-1.4-.6-2-.2-.6-.3-1.1-.3-1.4v9.5h-1.5V18.7H25l2.9 8.7c.2.5.3.8.3 1.2.2.3.2.8.2.9 0-.3 0-.6.2-.9.2-.3.2-.8.3-1.2l2.9-8.7h1.6zm4 12.5h-1.5v-8.7h1.5v8.7zm-.6-10.8c-.3 0-.6-.2-.8-.3-.2-.2-.3-.5-.3-.8 0-.3.2-.6.3-.8.2-.2.5-.3.8-.3s.5.2.8.3.3.5.3.8c0 .3-.2.6-.3.8s-.5.3-.8.3zm9.1 3.2h-1.1c.3.5.5.9.5 1.5 0 .5 0 .9-.2 1.2-.2.3-.3.6-.6.9-.3.3-.6.5-.9.6-.3.2-.7.2-1.2.2h-.6c-.1 0-.3.2-.5.3-.2.3-.3.5-.3.6s0 .3.2.5.3.2.6.2h1.1c.5 0 .8 0 1.1.2.3.2.6.2.9.5.3.2.5.5.6.8.2.3.2.6.2 1.1 0 .5-.2.9-.3 1.2-.2.5-.5.8-.9 1.1-.3.3-.8.5-1.4.6-.5.2-1.1.3-1.7.3-.9 0-1.7-.2-2.1-.6s-.8-.9-.8-1.7c0-.3 0-.6.2-.9.2-.3.3-.5.5-.6l.5-.5c.2-.2.3-.2.5-.3-.3-.3-.6-.6-.6-1.2 0-.3 0-.5.2-.6s.2-.3.3-.5c.2-.2.3-.2.3-.3.2 0 .2-.2.3-.2-.5-.2-.8-.5-1.1-.9-.3-.5-.5-1.1-.5-1.7 0-.5.2-.9.3-1.2.2-.3.3-.6.6-.9.3-.3.6-.5.9-.6.3-.2.8-.2 1.2-.2.5 0 .8 0 1.2.2h2.6v.9zM42 30.9h-.6c-.2 0-.2.2-.3.2l-.3.3c-.2.2-.2.3-.2.5s-.2.3-.2.6c0 .9.5 1.4 1.5 1.4.9 0 1.5-.2 2-.5s.6-.8.6-1.2-.2-.8-.5-.9c-.3-.2-.6-.3-1.1-.3H42zm1.8-5.7c0-.6-.2-1.1-.5-1.4-.3-.3-.6-.5-1.1-.5-.5 0-.8.2-1.1.5-.3.3-.5.8-.5 1.4s.2 1.1.5 1.4c.3.3.6.5 1.1.5.5 0 .8-.2 1.1-.5.3-.3.5-.8.5-1.4zm7.6-1.5s-.2 0-.3-.2h-.5c-.5 0-.8.2-1.1.3-.3.3-.5.5-.6.8V31h-1.5v-8.7h1.4v1.2c0-.2.2-.3.3-.5.2-.2.2-.3.3-.5.2-.2.3-.2.5-.3.2 0 .5-.2.8-.2h.5c.2 0 .2 0 .3.2v1.5zm.9 5.2c0-.5.2-.9.3-1.2s.5-.6.8-.8c.3-.2.8-.3 1.2-.5.5-.2.9-.2 1.4-.2h.5v-.8c0-.8-.2-1.2-.5-1.5-.3-.3-.6-.5-1.1-.5s-.8.2-1.1.3c-.3.2-.5.3-.8.5l-.6-.9.3-.3c.2-.2.3-.3.6-.3.2-.2.5-.2.8-.3.3 0 .6-.2.9-.2.9 0 1.5.3 2 .8s.8 1.2.8 2.4V31.3h-1.4v-.9c0 .2-.2.3-.2.3-.2.2-.2.3-.3.3-.2.2-.3.2-.5.3-.2.2-.5.2-.8.2-.3 0-.6 0-.9-.2-.3-.2-.5-.3-.8-.5-.2-.2-.3-.5-.5-.8-.1-.4-.1-.7-.1-1.1zm2.6 1.2c.2 0 .5 0 .6-.2.2 0 .3-.2.5-.2l.3-.3c.2-.2.2-.2.2-.3v-2H56c-.8 0-1.2.2-1.5.3-.3.2-.6.6-.6 1.1 0 .5.2.8.3 1.1.1.3.4.5.7.5zm8.8-6.4h-1.8v4.9c0 .6.2 1.1.3 1.2.2.2.5.3.8.3.2 0 .5 0 .6-.2.2 0 .3-.2.3-.2L64 31s-.2.2-.5.2c-.3.2-.6.2-.9.2-.8 0-1.4-.2-1.7-.6-.3-.5-.6-1.1-.6-2.1v-5h-1.1v-.9l1.1-.2.2-2.4h1.4v2.4h2l-.2 1.1zm3.2 7.5h-1.5v-8.7h1.5v8.7zm-.8-10.8c-.3 0-.6-.2-.8-.3s-.3-.5-.3-.8c0-.3.2-.6.3-.8.2-.2.5-.3.8-.3.3 0 .5.2.8.3.2.2.3.5.3.8 0 .3-.2.6-.3.8-.3.1-.5.3-.8.3zm2.6 6.4c0-.8.2-1.5.3-2.1.2-.6.5-1.1.8-1.4.3-.3.8-.6 1.1-.8.5-.2.9-.3 1.4-.3.5 0 .9.2 1.4.3.5.2.8.5 1.1.8.3.3.6.9.8 1.4.2.6.3 1.2.3 2.1 0 .8-.2 1.5-.3 2.1-.2.6-.5 1.1-.8 1.4-.3.3-.8.6-1.1.8-.5.2-.9.3-1.4.3-.5 0-.9-.2-1.4-.3s-.9-.3-1.2-.8c-.3-.3-.6-.9-.8-1.4-.2-.6-.2-1.2-.2-2.1zm5.3 0c0-1.2-.2-2-.5-2.6-.3-.5-.8-.8-1.4-.8s-1.1.3-1.4.8-.5 1.4-.5 2.6c0 1.2.2 2 .5 2.4.3.5.8.8 1.4.8s1.1-.3 1.4-.8c.4-.5.5-1.2.5-2.4zm8.1 4.4v-5.6c0-.8-.2-1.2-.3-1.5-.3-.3-.6-.5-1.1-.5s-.8.2-1.1.3-.5.5-.8.6v6.7h-1.5v-8.7h1.4v.9l.3-.3.5-.5c.2-.2.5-.3.8-.3.3 0 .6-.2.9-.2.5 0 .8 0 1.1.2.3.2.6.3.8.6s.5.6.5.9c.2.5.2.9.2 1.5V31h-1.5v.2zm3.5-1.1c0-.3.2-.6.3-.8.2-.2.5-.3.6-.3.3 0 .6.2.9.5.2.3.3.8.3 1.4 0 .5 0 .8-.2 1.1-.2.3-.3.6-.5.8l-.6.6c-.3.2-.5.3-.8.3l-.2-.7c.3-.2.6-.5.9-.8.3-.3.3-.6.5-1.2-.3 0-.5-.2-.8-.3-.4 0-.4-.3-.4-.6zm7.7 1.1V18.7h6.1l-.2 1.2h-4.4v4.6H99v1.2h-4.1V31h-1.5v.2zm9.3-2c0 .3 0 .6.2.8.2.2.3.2.6.2h.5l.2 1.1s-.2.2-.5.2c-.2 0-.5.2-.8.2-.5 0-.9-.2-1.2-.5s-.5-.9-.5-1.7V18.6l1.5-.2v10.8zm8.7 2h-1.4v-.9l-.3.3-.5.5c-.2.2-.5.3-.6.3s-.6.2-.9.2c-.5 0-.8 0-1.1-.2-.3-.2-.6-.3-.8-.6-.2-.3-.5-.6-.5-.9-.2-.5-.2-.9-.2-1.5v-5.6h1.5v5.6c0 .8.2 1.2.3 1.5.3.3.6.5 1.1.5.5 0 .8-.2 1.1-.3s.5-.5.8-.6v-6.7h1.5v8.5zm-3.5-11.3c0 .3-.2.5-.3.6-.2.2-.3.3-.6.3s-.5-.2-.6-.3c-.2-.2-.3-.5-.3-.6 0-.3.2-.5.3-.6s.3-.3.6-.3.5.2.6.3c.1.2.3.5.3.6zm2.7 0c0 .3-.2.5-.3.6-.2.2-.3.3-.6.3s-.5-.2-.6-.3c-.2-.2-.3-.5-.3-.6 0-.3.2-.5.3-.6s.3-.3.6-.3.5.2.6.3.3.5.3.6zm7.9 4.3-.2-.2c-.2 0-.2-.2-.3-.2s-.3-.2-.5-.2-.3-.2-.6-.2-.6 0-.9.2c-.3.2-.5.3-.8.6-.2.3-.3.6-.5.9-.2.5-.2.9-.2 1.5s0 1.2.2 1.7.3.8.5 1.1c.2.3.5.5.6.6.3.2.6.2.9.2.5 0 .8-.2 1.1-.3.3-.2.5-.3.5-.3l.6 1.1-.3.3c-.2.2-.3.2-.5.3-.2.2-.5.2-.6.3-.3 0-.6.2-.9.2-.5 0-.9-.2-1.4-.3-.5-.2-.8-.5-1.1-.8-.3-.3-.6-.8-.8-1.4-.2-.6-.3-1.4-.3-2.1 0-.8.2-1.5.3-2.1.2-.6.5-1.1.9-1.4.3-.3.8-.6 1.2-.8s.9-.3 1.4-.3c.3 0 .6 0 .9.2.3 0 .5.2.6.2.2.2.3.2.5.3l.3.3-.6.6zm6.8 7v-5.6c0-.8-.2-1.2-.3-1.5-.3-.3-.6-.5-1.1-.5-.5 0-.8.2-1.1.3-.3.2-.5.5-.8.6v6.7h-1.5V18.4l1.5-.2v5.2s.2-.2.2-.3c.2-.2.3-.3.5-.3s.5-.2.6-.3c.3-.2.6-.2.9-.2.8 0 1.4.3 1.8.8.5.5.6 1.4.6 2.4v5.6c.1.1-1.3.1-1.3.1zm7.5-7.5h-2v4.9c0 .6.2 1.1.3 1.2.2.2.5.3.8.3.2 0 .5 0 .6-.2.2-.2.3-.2.3-.2l.2 1.2s-.2.2-.5.2c-.3.2-.6.2-.9.2-.8 0-1.4-.2-1.7-.6-.3-.3-.6-1.1-.6-2v-5h-1.1v-1.1l1.1-.2.2-2.4h1.4v2.4h2.1l-.2 1.3zm3 5.5c0 .3 0 .6.2.8.2.2.3.2.6.2h.5l.2 1.1s-.2.2-.5.2c-.2 0-.5.2-.8.2-.5 0-.9-.2-1.2-.5-.3-.3-.5-.9-.5-1.7V18.6l1.5-.2v10.8zm4.1 2h-1.5v-8.7h1.5v8.7zm-.7-10.8c-.3 0-.6-.2-.8-.3-.2-.2-.3-.5-.3-.8 0-.3.2-.6.3-.8.2-.2.5-.3.8-.3s.5.2.8.3c.2.2.3.5.3.8 0 .3-.2.6-.3.8-.2.1-.5.3-.8.3zm7.7 10.8v-5.6c0-.8-.2-1.2-.3-1.5-.3-.3-.6-.5-1.1-.5-.5 0-.8.2-1.1.3s-.5.5-.8.6v6.7H142v-8.7h1.4v.9l.3-.3.5-.5c.2-.2.5-.3.8-.3s.6-.2.9-.2c.5 0 .8 0 1.1.2.3.2.6.3.8.6.2.3.5.6.5.9.2.5.2.9.2 1.5V31H147v.2zm9.9-7.6h-1.1c.3.5.5.9.5 1.5 0 .5 0 .9-.2 1.2-.2.3-.3.6-.6.9-.3.3-.6.5-.9.6-.3.2-.8.2-1.2.2h-.6c-.2 0-.3.2-.5.3-.2.2-.3.3-.3.5s0 .3.2.5.3.2.6.2h1.1c.5 0 .8 0 1.1.2.3.2.6.2.9.5.3.2.5.5.6.8.2.3.2.6.2 1.1 0 .5-.2.9-.3 1.2-.2.5-.5.8-.9 1.1-.3.3-.8.5-1.4.6-.5.2-1.1.3-1.7.3-.9 0-1.7-.2-2.1-.6s-.8-.9-.8-1.7c0-.3 0-.6.2-.9.2-.3.3-.5.5-.6l.5-.5c.2-.2.3-.2.5-.3-.3-.3-.6-.6-.6-1.2 0-.3 0-.5.2-.6.2-.2.2-.3.3-.5.2-.2.3-.2.3-.3.2 0 .2-.2.3-.2-.5-.2-.8-.5-1.1-.9-.3-.5-.5-1.1-.5-1.7 0-.5.2-.9.3-1.2.2-.3.3-.6.6-.9.3-.3.6-.5.9-.6s.8-.2 1.2-.2.8 0 1.2.2h2.6v1zm-3.9 7.3h-.6c-.2 0-.2.2-.3.2l-.3.3c-.2.2-.2.3-.2.5s-.2.3-.2.6c0 .9.5 1.4 1.5 1.4.9 0 1.5-.2 2-.5s.6-.8.6-1.2-.2-.8-.5-.9c-.3-.2-.6-.3-1.1-.3h-.9zm1.8-5.7c0-.6-.2-1.1-.5-1.4-.3-.3-.6-.5-1.1-.5-.5 0-.8.2-1.1.5-.3.3-.5.8-.5 1.4s.2 1.1.5 1.4c.3.3.6.5 1.1.5.5 0 .8-.2 1.1-.5.3-.3.5-.8.5-1.4zm9.3.2V27.1h-4.4c0 1.1.3 1.8.6 2.3.5.5.9.8 1.7.8.3 0 .5 0 .8-.2s.5-.2.6-.2c.2-.2.3-.2.3-.3l.2-.2.6 1.1-.3.3c-.1.1-.3.3-.5.3-.2.2-.5.2-.8.3-.3.2-.6.2-1.1.2-.6 0-1.1-.2-1.5-.3-.5-.2-.8-.5-1.1-.9-.3-.3-.6-.9-.8-1.5-.2-.6-.3-1.2-.3-2.1 0-.8.2-1.4.3-2 .2-.6.5-1.1.8-1.4.3-.3.6-.6 1.1-.8.5-.2.8-.3 1.2-.3.8 0 1.5.3 2 .8.3.6.6 1.3.6 2.4zm-2.8-2c-.5 0-.9.2-1.2.6-.3.5-.5 1.1-.6 1.8h3.2v-.6c0-.6-.2-1.1-.3-1.4-.3-.2-.6-.4-1.1-.4zm14.6 7.8h-1.4v-.9l-.3.3-.5.5c-.2.2-.5.3-.6.3-.2 0-.6.2-.9.2-.5 0-.8 0-1.1-.2-.3-.2-.6-.3-.8-.6-.2-.3-.5-.6-.5-.9-.2-.5-.2-.9-.2-1.5v-5.6h1.5v5.6c0 .8.2 1.2.3 1.5.3.3.6.5 1.1.5.5 0 .8-.2 1.1-.3.3-.2.5-.5.8-.6v-6.7h1.5v8.5zm7 0v-5.6c0-.8-.2-1.2-.3-1.5-.3-.3-.6-.5-1.1-.5-.5 0-.8.2-1.1.3s-.5.5-.8.6v6.7H178v-8.7h1.4v.9l.3-.3.5-.5c.2-.2.5-.3.8-.3.3 0 .6-.2.9-.2.5 0 .8 0 1.1.2.3.2.6.3.8.6.2.3.5.6.5.9.2.5.2.9.2 1.5V31H183v.2zm3.2-4.3c0-.9.2-1.7.3-2.3.3-.6.5-1.1.9-1.4.3-.3.8-.6 1.2-.8s.9-.2 1.4-.2h.8c.2 0 .3.2.5.2v-4.1l1.5-.2v13.1h-1.4v-.9s-.2.2-.2.3c-.2.2-.3.3-.5.3-.2.2-.3.3-.6.3-.3.2-.6.2-.9.2-.5 0-.8-.2-1.2-.3-.3-.2-.8-.5-.9-.8-.3-.3-.5-.8-.6-1.4-.2-.5-.3-1.2-.3-2zm3.5 3.2c.3 0 .5 0 .6-.2.2 0 .3-.2.5-.2.2-.2.3-.2.3-.3.2-.2.2-.2.2-.3v-5.3c-.2-.2-.3-.2-.5-.2s-.5-.2-.6-.2c-.3 0-.6 0-.9.2s-.6.3-.8.6c-.2.3-.5.6-.5 1.1-.2.5-.2.9-.2 1.5s0 1.1.2 1.5c.2.5.3.8.5.9.2.3.5.5.6.6.1.1.3.3.6.3zm10.2-10.3h-1.4v-1.1h4.3v1.1h-1.4v10.1h1.4V31h-4.3v-1.1h1.4V19.8zm9.2 11.4v-5.6c0-.8-.2-1.2-.3-1.5-.3-.3-.6-.5-1.1-.5s-.8.2-1.1.3c-.3.2-.5.5-.8.6v6.7H204v-8.7h1.4v.9l.3-.3.5-.5c.2-.2.5-.3.8-.3.3-.2.6-.2.9-.2.5 0 .8 0 1.1.2.3.2.6.3.8.6s.5.6.5.9c.2.5.2.9.2 1.5V31H209v.2zm7.5-7.5h-2v4.9c0 .6.2 1.1.3 1.2.2.2.5.3.8.3.2 0 .5 0 .6-.2.2-.2.3-.2.3-.2l.2 1.2s-.2.2-.5.2c-.3.2-.6.2-.9.2-.8 0-1.4-.2-1.7-.6-.3-.5-.6-1.1-.6-2.1v-5h-1.1v-.9l1.1-.2.2-2.4h1.4v2.4h2.1l-.2 1.2zm7.1 1.7V27.1h-4.6c0 1.1.3 1.8.6 2.3.5.5.9.8 1.7.8.3 0 .5 0 .8-.2.3-.2.5-.2.6-.2.2-.2.3-.2.3-.3l.2-.2.6 1.1-.3.3c-.2.2-.3.3-.5.3-.2.2-.5.2-.8.3-.3.2-.6.2-1.1.2-.6 0-1.1-.2-1.5-.3-.5-.2-.8-.5-1.1-.9-.3-.3-.6-.9-.8-1.5-.2-.6-.3-1.2-.3-2.1 0-.8.2-1.4.3-2 .2-.6.5-1.1.8-1.4.3-.3.6-.6 1.1-.8.5-.2.8-.3 1.2-.3.8 0 1.5.3 2 .8.5.6.8 1.3.8 2.4zm-2.7-2c-.5 0-.9.2-1.2.6s-.5 1.1-.6 1.8h3.2v-.6c0-.6-.2-1.1-.3-1.4-.3-.2-.6-.4-1.1-.4zm10.8.2h-1.1c.3.5.5.9.5 1.5 0 .5 0 .9-.2 1.2-.2.3-.3.6-.6.9-.3.3-.6.5-.9.6-.3.2-.8.2-1.2.2h-.6c-.2 0-.3.2-.5.3-.2.2-.3.3-.3.5s0 .3.2.5.3.2.6.2h1.1c.5 0 .8 0 1.1.2s.6.2.9.5c.3.2.5.5.6.8.2.3.2.6.2 1.1 0 .5-.2.9-.3 1.2-.2.5-.5.8-.9 1.1-.3.3-.8.5-1.4.6-.5.2-1.1.3-1.7.3-.9 0-1.7-.2-2.1-.6-.5-.5-.8-.9-.8-1.7 0-.3 0-.6.2-.9.2-.3.3-.5.5-.6l.5-.5c.2-.2.3-.2.5-.3-.3-.3-.6-.6-.6-1.2 0-.3 0-.5.2-.6.2-.2.2-.3.3-.5.2-.2.3-.2.3-.3.2 0 .2-.2.3-.2-.5-.2-.8-.5-1.1-.9-.3-.5-.5-1.1-.5-1.7 0-.5.2-.9.3-1.2.2-.3.3-.6.6-.9.3-.3.6-.5.9-.6.3-.2.8-.2 1.2-.2s.8 0 1.2.2h2.6v1zm-4 7.3h-.6c-.2 0-.2.2-.3.2l-.3.3c-.2.2-.2.3-.2.5s-.2.3-.2.6c0 .9.5 1.4 1.5 1.4.9 0 1.5-.2 2-.5s.6-.8.6-1.2-.2-.8-.5-.9c-.3-.2-.6-.3-1.1-.3h-.9zm2-5.7c0-.6-.2-1.1-.5-1.4-.3-.3-.6-.5-1.1-.5s-.8.2-1.1.5c-.3.3-.5.8-.5 1.4s.2 1.1.5 1.4c.3.3.6.5 1.1.5s.8-.2 1.1-.5c.4-.3.5-.8.5-1.4zm7.5-1.5s-.2 0-.3-.2h-.5c-.5 0-.8.2-1.1.3-.3.3-.5.5-.6.8V31H233v-8.7h1.4v1.2c0-.2.2-.3.3-.5.2-.2.2-.3.3-.5.2-.2.3-.2.5-.3.2 0 .5-.2.8-.2h.5c.2 0 .2 0 .3.2v1.5zm.9 5.2c0-.5.2-.9.3-1.2.2-.3.5-.6.8-.8.3-.2.8-.3 1.2-.5.5-.2.9-.2 1.4-.2h.5v-.8c0-.8-.2-1.2-.5-1.5-.3-.3-.6-.5-1.1-.5s-.8.2-1.1.3-.5.3-.8.5l-.6-.9.3-.3c.2-.2.3-.3.6-.3.2-.2.5-.2.8-.3s.6-.2.9-.2c.9 0 1.5.3 2 .8s.8 1.2.8 2.4V31.3H242v-.9c0 .2-.2.3-.2.3-.2.2-.2.3-.3.3-.2.2-.3.2-.5.3s-.5.2-.8.2-.6 0-.9-.2c-.3-.2-.5-.3-.8-.5-.2-.2-.3-.5-.5-.8-.1-.4-.1-.7-.1-1.1zm2.6 1.2c.2 0 .5 0 .6-.2.2-.2.3-.2.5-.2l.3-.3c.2-.2.2-.2.2-.3v-2h-.5c-.8 0-1.2.2-1.5.3-.3.2-.6.6-.6 1.1 0 .5.2.8.3 1.1.1.3.4.5.7.5zm8.8-6.4h-1.8v4.9c0 .6.2 1.1.3 1.2.2.2.5.3.8.3.2 0 .5 0 .6-.2.2 0 .3-.2.3-.2l.2 1.2s-.2.2-.5.2c-.3.2-.6.2-.9.2-.8 0-1.4-.2-1.7-.6-.3-.5-.6-1.1-.6-2.1v-5h-1.1v-.9l1.1-.2.2-2.4h1.4v2.4h2.1l-.4 1.2zm3.2 7.5H251v-8.7h1.5v8.7zm-.8-10.8c-.3 0-.6-.2-.8-.3s-.2-.5-.2-.8c0-.3.2-.6.3-.8.2-.2.5-.3.8-.3.3 0 .5.2.8.3.2.2.3.5.3.8 0 .3-.2.6-.3.8-.3.1-.6.3-.9.3zm2.6 6.4c0-.8.2-1.5.3-2.1.2-.6.5-1.1.8-1.4.3-.3.8-.6 1.1-.8.5-.2.9-.3 1.4-.3s.9.2 1.4.3c.5.2.8.5 1.1.8.3.3.6.9.8 1.4.2.6.3 1.2.3 2.1 0 .8-.2 1.5-.3 2.1-.2.6-.5 1.1-.8 1.4-.3.3-.8.6-1.1.8-.5.2-.9.3-1.4.3s-.9-.2-1.4-.3c-.5-.2-.8-.5-1.1-.8-.3-.3-.6-.9-.8-1.4-.2-.6-.3-1.2-.3-2.1zm5.3 0c0-1.2-.2-2-.5-2.6-.3-.5-.8-.8-1.4-.8s-1.1.3-1.4.8c-.3.5-.5 1.4-.5 2.6 0 1.2.2 2 .5 2.4.3.5.8.8 1.4.8s1.1-.3 1.4-.8c.4-.5.5-1.2.5-2.4zm8.1 4.4v-5.6c0-.8-.2-1.2-.3-1.5-.3-.3-.6-.5-1.1-.5-.5 0-.8.2-1.1.3s-.5.5-.8.6v6.7H263v-8.7h1.4v.9l.3-.3.5-.5c.2-.2.5-.3.8-.3.3 0 .6-.2.9-.2.5 0 .8 0 1.1.2.3.2.6.3.8.6.2.3.5.6.5.9.2.5.2.9.2 1.5V31H268v.2zM8.7 48.5c-.2 0-.2.2-.3.3-.2.2-.5.3-.6.3-.3.2-.6.2-.9.3-.3.2-.8.2-1.2.2-.8 0-1.4-.2-2-.3-.6-.2-1.1-.6-1.5-1.1-.5-.5-.8-1.2-1.1-2-.3-.9-.3-1.8-.3-3s.2-2.1.5-3 .8-1.5 1.2-2 1.1-.9 1.7-1.1 1.2-.3 2-.3c.5 0 .9 0 1.2.2s.6.2.9.3c.3.2.5.3.6.3.2 0 .3.2.3.3L8.4 39l-.3-.3c-.2-.2-.3-.2-.5-.3-.2-.2-.5-.2-.6-.4-.3 0-.6-.2-.9-.2-.5 0-.9.2-1.4.3-.5.2-.8.5-1.1.9-.3.5-.6 1-.7 1.6-.2.6-.3 1.5-.3 2.4 0 .9 0 1.7.2 2.4.2.6.3 1.2.6 1.7.2.5.6.8 1 .9.5.2.9.3 1.5.3.3 0 .6 0 .9-.2.3 0 .5-.2.8-.2v-3.6H5.2v-1.2h3.5v5.4zm3.5-1.1c0 .3 0 .6.2.8.2.2.3.2.6.2h.5l.2 1.1s-.2.2-.5.2-.5.2-.8.2c-.5 0-.9-.2-1.2-.5-.3-.3-.5-.9-.5-1.7V36.8l1.5-.2v10.8zm8.3-3.8V45.3h-4.4c0 1.1.3 1.8.6 2.3.5.5.9.8 1.7.8.3 0 .5 0 .8-.2.2 0 .5-.2.6-.2.2-.2.3-.2.3-.3l.2-.2.6 1.1-.3.3c-.2.2-.3.3-.5.3-.2.2-.5.2-.8.3-.3.2-.6.2-1.1.2-.6 0-1.1-.2-1.5-.3-.5-.2-.8-.5-1.1-.9-.3-.3-.6-.9-.8-1.5-.2-.6-.3-1.2-.3-2.1 0-.8.2-1.4.3-2 .2-.6.5-1.1.8-1.4.3-.3.6-.6 1.1-.8.5-.2.8-.3 1.2-.3.8 0 1.5.3 2 .8.3.6.6 1.4.6 2.4zm-2.7-2c-.5 0-.9.2-1.2.6-.3.5-.5 1.1-.6 1.8h3.2v-.6c0-.6-.2-1.1-.3-1.4-.4-.2-.7-.4-1.1-.4zm6.1 7.8h-1.5v-8.7h1.5v8.7zm-.8-10.8c-.3 0-.6-.2-.8-.3-.2-.2-.3-.5-.3-.8 0-.3.2-.6.3-.8s.5-.3.8-.3c.3 0 .5.2.8.3.2.2.3.5.3.8 0 .3-.2.6-.3.8-.2.2-.5.3-.8.3zm7.9 3.8-.2-.2c-.2 0-.2-.2-.3-.2h-.4c-.1 0-.3-.2-.6-.2s-.6 0-.9.2c-.3.2-.5.3-.8.6-.3.3-.3.6-.5.9-.2.5-.2.9-.2 1.5s0 1.2.2 1.7.3.8.5 1.1c.2.3.5.5.6.6.3.2.6.2.9.2.5 0 .8-.2 1.1-.3.3-.2.5-.3.5-.3l.6 1.1-.3.3c-.2.2-.3.2-.5.3-.2.2-.5.2-.6.3-.3 0-.6.2-.9.2-.5 0-.9-.2-1.4-.3-.5-.2-.8-.5-1.1-.8s-.6-.8-.8-1.4c-.2-.6-.3-1.4-.3-2.1s.2-1.5.3-2.1c.2-.6.5-1.1.9-1.4.3-.3.8-.6 1.2-.8.5-.2.9-.3 1.4-.3.3 0 .6 0 .9.2.3 0 .5.2.6.2.2.2.3.2.5.3l.3.3-.7.4zm6.8 7v-5.6c0-.8-.2-1.2-.3-1.5-.3-.3-.6-.5-1.1-.5s-.8.2-1.1.3c-.3.2-.5.5-.8.6v6.7H33V36.6l1.5-.2v5.2s.2-.2.2-.3c.2-.2.3-.3.5-.3.2-.2.5-.2.6-.3.3-.2.6-.2.9-.2.8 0 1.4.3 1.8.8s.6 1.4.6 2.4v5.6c.1.1-1.3.1-1.3.1zM48 44.7c0 .9-.2 1.7-.3 2.3-.2.6-.5 1.1-.9 1.5-.3.3-.8.6-1.2.8-.5.2-1.1.3-1.5.3-.3 0-.6 0-.9-.2-.3 0-.5-.2-.8-.3-.2-.2-.3-.2-.5-.3-.2-.2-.3-.2-.3-.3V36.3l1.5-.2v5c0-.2.2-.2.3-.3.2-.2.3-.3.5-.3.2-.2.3-.2.6-.3.3-.2.5-.2.8-.2.9 0 1.7.3 2.1 1.1.3 1 .6 2.1.6 3.6zm-1.5.1c0-1.1-.2-1.8-.5-2.4-.3-.5-.8-.8-1.4-.8-.5 0-.8.2-1.1.3-.3.2-.5.5-.6.6v5.3c.2 0 .3.2.5.2.2.2.5.2.6.2.3 0 .6 0 .9-.2.3-.2.6-.3.8-.6.2-.3.5-.6.5-1.1.2-.2.3-.9.3-1.5zm8.8-1.2V45.3h-4.4c0 1.1.3 1.8.6 2.3.5.5.9.8 1.7.8.3 0 .5 0 .8-.2.2 0 .5-.2.6-.2.2-.2.3-.2.3-.3l.2-.2.6 1.1-.3.3c-.2.2-.3.3-.5.3-.2.2-.5.2-.8.3s-.6.2-1.1.2c-.6 0-1.1-.2-1.5-.3-.5-.2-.8-.5-1.1-.9-.3-.3-.6-.9-.8-1.5-.2-.6-.3-1.2-.3-2.1 0-.8.2-1.4.3-2 .2-.6.5-1.1.8-1.4.3-.3.6-.6 1.1-.8.5-.2.8-.3 1.2-.3.8 0 1.5.3 2 .8.5.6.6 1.4.6 2.4zm-2.7-2c-.5 0-.9.2-1.2.6-.3.5-.5 1.1-.6 1.8H54v-.6c0-.6-.2-1.1-.3-1.4-.2-.2-.7-.4-1.1-.4zm9.6 7.8v-5.6c0-.8-.2-1.2-.3-1.5-.3-.3-.6-.5-1.1-.5-.5 0-.8.2-1.1.3-.3.2-.5.5-.8.6v6.7h-1.5V36.6l1.5-.2v5.2s.2-.2.2-.3c.2-.2.3-.3.5-.3.2-.2.5-.2.6-.3.3-.2.6-.2.9-.2.8 0 1.4.3 1.8.8s.6 1.4.6 2.4v5.6c0 .1-1.3.1-1.3.1zm3-2.3c0-.5.2-.9.3-1.2.2-.3.5-.6.8-.8.3-.2.8-.3 1.2-.5.5-.2.9-.2 1.4-.2h.5v-.8c0-.8-.2-1.2-.5-1.5-.3-.3-.6-.5-1.1-.5s-.8.4-1.1.5c-.3.2-.5.3-.8.5l-.6-.9.3-.3c.2-.2.3-.3.6-.3.2-.2.5-.2.8-.3.3 0 .6-.2.9-.2.9 0 1.5.3 2 .8s.8 1.2.8 2.4V49.7h-1.4v-.9c0 .2-.2.3-.2.3-.2.2-.2.3-.3.3-.2.2-.3.2-.5.3s-.5.2-.8.2c-.3 0-.6 0-.9-.2s-.5-.3-.8-.5c-.2-.2-.3-.5-.5-.8.1-.5-.1-.8-.1-1.3zm2.6 1.2c.2 0 .5 0 .6-.2.2 0 .3-.2.5-.2l.3-.3c.2-.2.2-.2.2-.3v-2h-.5c-.8 0-1.2.2-1.5.3-.3.2-.6.6-.6 1.1 0 .5.2.8.3 1.1.1.4.4.5.7.5zm9.9 1.1v-5.6c0-.8-.2-1.2-.3-1.5-.3-.3-.6-.5-1.1-.5s-.8.2-1.1.3c-.3.2-.5.5-.8.6v6.7H73v-8.7h1.4v.9l.3-.3.5-.5c.2-.2.5-.3.8-.3.3-.2.6-.2.9-.2.5 0 .8 0 1.1.2.3.2.6.3.8.6s.5.6.5.9c.2.5.2.9.2 1.5v5.6H78v.3zm3.3-4.3c0-.9.2-1.7.3-2.3.3-.6.5-1.1.9-1.4.3-.3.8-.6 1.2-.8.5-.2.9-.2 1.4-.2h.8c.2 0 .3.2.5.2v-4.1l1.5-.2v13.1h-1.4v-.9s-.2.2-.2.3c0 .2-.3.3-.5.3-.2.2-.3.3-.6.3-.3.2-.6.2-.9.2-.5 0-.8-.2-1.2-.3-.3-.2-.8-.5-.9-.8-.3-.3-.5-.8-.6-1.4-.3-.4-.3-1.2-.3-2zm3.4 3.2c.3 0 .5 0 .6-.2.2 0 .3-.2.5-.2.2-.2.3-.2.3-.3.2-.2.2-.2.2-.3V42h-.6c-.2 0-.5-.2-.6-.2-.3 0-.6 0-.9.2-.3.2-.6.3-.8.6-.2.3-.5.6-.5 1.1-.2.5-.2.9-.2 1.5s0 1.1.2 1.5c.2.5.3.8.5.9.2.3.5.5.6.6.2 0 .5.1.7.1zm6.8-.9c0 .3 0 .6.2.8.2.2.3.2.6.2h.5l.2 1.1s-.2.2-.5.2-.5.2-.8.2c-.5 0-.9-.2-1.2-.5-.3-.3-.5-.9-.5-1.7V36.8l1.5-.2v10.8zm8.7 2h-1.4v-.9l-.3.3-.5.5c-.2.2-.5.3-.6.3-.3.2-.6.2-.9.2-.5 0-.8 0-1.1-.2-.3-.2-.6-.3-.8-.6-.2-.3-.5-.6-.5-.9-.2-.5-.2-.9-.2-1.5V41h1.5v5.6c0 .8.2 1.2.3 1.5.3.3.6.5 1.1.5s.8-.2 1.1-.3c.3-.2.5-.5.8-.6V41h1.5v8.5zm7 0v-5.6c0-.8-.2-1.2-.3-1.5-.3-.3-.6-.5-1.1-.5-.5 0-.8.2-1.1.3-.3.2-.5.5-.8.6v6.7h-1.5v-8.7h1.4v.9l.3-.3.5-.5c.2-.2.5-.3.8-.3.3-.2.6-.2.9-.2.5 0 .8 0 1.1.2s.6.3.8.6c.2.3.5.6.5.9.2.5.2.9.2 1.5v5.6h-1.5v.3zm9.8-7.6h-1.1c.3.5.5.9.5 1.5 0 .5 0 .9-.2 1.2-.2.3-.3.6-.6.9-.3.3-.6.5-.9.6-.3.2-.8.2-1.2.2h-.6c-.1 0-.3.2-.5.3-.2.2-.3.3-.3.5s0 .3.2.5.3.2.6.2h1.4c.5 0 .8 0 1.1.2.3.2.6.2.9.5.3.2.5.5.6.8s.2.6.2 1.1c0 .5-.2.9-.3 1.2-.2.5-.5.8-.9 1.1-.3.3-.8.5-1.4.6-.5.2-1.1.3-1.7.3-.9 0-1.7-.2-2.1-.6-.5-.5-.8-.9-.8-1.7 0-.3 0-.6.2-.9s.3-.5.5-.6l.5-.5c.2-.2.3-.2.5-.3-.3-.3-.6-.6-.6-1.2 0-.3 0-.5.2-.6.2-.2.2-.3.3-.5.2-.2.3-.2.3-.3.2 0 .2-.2.3-.2-.5-.2-.8-.5-1.1-.9-.3-.5-.5-1.1-.5-1.7 0-.5.2-.9.3-1.2.2-.3.3-.6.6-.9s.6-.5.9-.6c.3-.2.8-.2 1.2-.2.5 0 .8 0 1.2.2h2.7l-.4 1zm-3.9 7.3h-.6c-.2 0-.2.2-.3.2l-.3.3c-.1.1-.2.3-.2.5s-.2.3-.2.6c0 .9.5 1.4 1.5 1.4.9 0 1.5-.2 2-.5s.6-.8.6-1.2-.2-.8-.5-.9c-.3-.2-.6-.3-1.1-.3h-.9zm2-5.6c0-.6-.2-1.1-.5-1.4-.3-.3-.6-.5-1.1-.5-.5 0-.8.2-1.1.5-.3.3-.5.8-.5 1.4s.2 1.1.5 1.4.6.5 1.1.5c.5 0 .8-.2 1.1-.5.3-.4.5-.8.5-1.4zm7.4-1.1-.5-.5c-.3-.2-.6-.3-1.1-.3s-.6.2-.9.3c-.2.2-.3.5-.3.6 0 .3.2.6.3.8.2.2.5.5.9.6l.6.3c.6.3 1.1.8 1.4 1.1.3.5.5.9.5 1.5 0 .8-.3 1.2-.8 1.7s-1.2.8-2.1.8c-.3 0-.6 0-.9-.2-.3 0-.5-.2-.8-.3-.2-.2-.3-.2-.5-.3-.2-.2-.3-.2-.3-.3l.8-1.2.3.3.3.3c.2.2.3.2.5.2s.5.2.6.2c.5 0 .8-.2 1.1-.3.3-.2.3-.5.3-.8 0-.2 0-.5-.2-.6 0-.2-.2-.3-.3-.5-.2-.2-.3-.3-.5-.3-.2-.2-.3-.3-.6-.3l-.6-.3c-.6-.3-.9-.8-1.2-1.1-.3-.5-.5-.9-.5-1.5 0-.3 0-.6.2-.9s.3-.5.6-.8c.3-.2.5-.3.8-.5.3-.2.6-.2.9-.2.3 0 .6 0 .9.2.3 0 .5.2.6.3.2.2.3.2.5.3l.3.3-.3 1.4zm6.4 0-.5-.5c-.3-.2-.6-.3-1.1-.3-.5 0-.6.2-.9.3-.2.2-.3.5-.3.6 0 .3.2.6.3.8.2.2.5.5.9.6l.6.3c.6.3 1.1.8 1.4 1.1.3.5.5.9.5 1.5 0 .8-.3 1.2-.8 1.7s-1.2.8-2.1.8c-.3 0-.6 0-.9-.2-.3 0-.5-.2-.8-.3-.2-.2-.3-.2-.5-.3-.2-.2-.3-.2-.3-.3l.8-1.2.3.3.3.3c.2.2.3.2.5.2s.5.2.6.2c.5 0 .8-.2 1.1-.3.3-.2.3-.5.3-.8 0-.2 0-.5-.2-.6 0-.2-.2-.3-.3-.5-.2-.2-.3-.3-.5-.3s-.3-.3-.6-.3l-.3.2c-.6-.3-.9-.8-1.2-1.1-.3-.5-.5-.9-.5-1.5 0-.3 0-.6.2-.9.2-.3.3-.5.6-.8.3-.2.5-.3.8-.5.3-.2.6-.2.9-.2.3 0 .6 0 .9.2.3 0 .5.2.6.3.2.2.3.2.5.3l.3.3-.6.9zm6.2-.4H133v4.9c0 .6.2 1.1.3 1.2.2.2.5.3.8.3.2 0 .5 0 .6-.2.2 0 .3-.2.3-.2l.2 1.2s-.2.2-.5.2c-.3.2-.6.2-.9.2-.8 0-1.4-.2-1.7-.6-.3-.5-.6-1.1-.6-2.1v-5h-1.1V41l1.1-.2.2-2.4h1.4v2.4h2.1l-.4 1.2zm7.2 1.6V45.3h-4.4c0 1.1.3 1.8.6 2.3.5.5.9.8 1.7.8.3 0 .5 0 .8-.2.2 0 .5-.2.6-.2.2-.2.3-.2.3-.3l.2-.2.6 1.1-.3.3c-.2.2-.3.3-.5.3-.2.2-.5.2-.8.3s-.6.2-1.1.2c-.6 0-1.1-.2-1.5-.3-.5-.2-.8-.5-1.1-.9-.3-.3-.6-.9-.8-1.5-.2-.6-.3-1.2-.3-2.1 0-.8.2-1.4.3-2 .2-.6.5-1.1.8-1.4.3-.3.6-.6 1.1-.8.5-.2.8-.3 1.2-.3.8 0 1.5.3 2 .8.3.6.6 1.4.6 2.4zm-2.8-2c-.5 0-.9.2-1.2.6-.3.5-.5 1.1-.6 1.8h3.2v-.6c0-.6-.2-1.1-.3-1.4-.3-.2-.6-.4-1.1-.4zm6.1 5.8c0 .3 0 .6.2.8.2.2.3.2.6.2h.5l.2 1.1s-.2.2-.5.2c-.2 0-.5.2-.8.2-.5 0-.9-.2-1.2-.5-.3-.3-.5-.9-.5-1.7V36.8l1.5-.2v10.8zm4.1 0c0 .3 0 .6.2.8.2.2.3.2.6.2h.5l.2 1.1s-.2.2-.5.2c-.2 0-.5.2-.8.2-.5 0-.9-.2-1.2-.5-.3-.3-.5-.9-.5-1.7V36.8l1.5-.2v10.8zm8.4-3.8V45.3h-4.4c0 1.1.3 1.8.6 2.3.5.5.9.8 1.7.8.3 0 .5 0 .8-.2.2 0 .5-.2.6-.2.2-.2.3-.2.3-.3l.2-.2.6 1.1-.3.3c-.2.2-.3.3-.5.3-.2.2-.5.2-.8.3-.3.2-.6.2-1.1.2-.6 0-1.1-.2-1.5-.3-.5-.2-.8-.5-1.1-.9-.3-.3-.6-.9-.8-1.5-.2-.6-.3-1.2-.3-2.1 0-.8.2-1.4.3-2 .2-.6.5-1.1.8-1.4.3-.3.6-.6 1.1-.8.5-.2.8-.3 1.2-.3.8 0 1.5.3 2 .8.3.6.6 1.4.6 2.4zm-2.9-2c-.5 0-.9.2-1.2.6-.3.5-.5 1.1-.6 1.8h3.2v-.6c0-.6-.2-1.1-.3-1.4-.2-.2-.7-.4-1.1-.4zm14.9-3.4h-4.4v4.3h4.1v1.2h-4.1V48h4.9l-.2 1.4h-6.4V36.9h6.1v1.3zm10.6 6.3c0 1.7-.3 2.9-1.1 3.8-.8.9-1.7 1.2-3 1.2s-2.4-.5-3-1.2c-.6-.8-1.1-2.1-1.1-3.8v-7.6h1.5v7.6c0 1.2.2 2.3.6 2.7.5.6 1.1.9 2 .9.9 0 1.5-.3 2-.9.5-.6.6-1.5.6-2.9v-7.6h1.5v7.8zm6.7 0h-4.3v-1.2h4.3v1.2zm10.3 4.9h-1.7l-1.2-4h-3.8l-1.1 4h-1.5l4.1-12.5h1.2l4 12.5zm-3.3-5.2-.9-3.3c-.2-.5-.3-.9-.3-1.4-.2-.5-.2-.8-.2-1.1 0 .3 0 .6-.2 1.1-.2.5-.2.8-.3 1.4l-1.1 3.5h2.9v-.2zm8.4-2.2s-.2 0-.3-.2h-.5c-.5 0-.8.2-1.1.3-.3.3-.5.5-.6.8v6.4h-1.5v-8.7h1.4v1.2c0-.2.2-.3.3-.5.2-.2.2-.3.3-.5.2-.2.3-.2.5-.3.2 0 .5-.2.8-.2h.5c.2 0 .2 0 .3.2V42zm7.9 2.7c0 .9-.2 1.7-.3 2.3-.2.6-.5 1.1-.9 1.5-.3.3-.8.6-1.2.8-.5.2-1.1.3-1.5.3-.3 0-.6 0-.9-.2-.3 0-.5-.2-.8-.3-.2-.2-.3-.2-.5-.3-.2-.2-.3-.2-.3-.3V36.3l1.5-.2v5c0-.2.2-.2.3-.3.2-.2.3-.3.5-.3.2-.2.3-.2.6-.3.3 0 .5-.2.8-.2.9 0 1.7.3 2.1 1.1.3 1 .6 2.1.6 3.6zm-1.6.1c0-1.1-.2-1.8-.5-2.4-.3-.5-.8-.8-1.4-.8-.5 0-.8.2-1.1.3-.3.2-.5.5-.6.6v5.3c.2 0 .3.2.5.2.2.2.5.2.6.2.3 0 .6 0 .9-.2.3-.2.6-.3.8-.6.2-.3.5-.6.5-1.1.2-.2.3-.9.3-1.5zm9-1.2V45.3h-4.4c0 1.1.3 1.8.6 2.3.5.5.9.8 1.7.8.3 0 .5 0 .8-.2.3-.2.5-.2.6-.2.2-.2.3-.2.3-.3l.2-.2.6 1.1-.3.3c-.2.2-.3.3-.5.3-.2.2-.5.2-.8.3-.3.2-.6.2-1.1.2-.6 0-1.1-.2-1.5-.3-.5-.2-.8-.5-1.1-.9-.3-.3-.6-.9-.8-1.5-.2-.6-.3-1.2-.3-2.1 0-.8.2-1.4.3-2 .2-.6.5-1.1.8-1.4.3-.3.6-.6 1.1-.8.5-.2.8-.3 1.2-.3.8 0 1.5.3 2 .8.3.6.6 1.4.6 2.4zm-2.7-2c-.5 0-.9.2-1.2.6-.3.5-.5 1.1-.6 1.8h3.2v-.6c0-.6-.2-1.1-.3-1.4-.4-.2-.7-.4-1.1-.4zm6.1 7.8h-1.5v-8.7h1.5v8.7zm-.8-10.8c-.3 0-.6-.2-.8-.3-.2-.2-.3-.5-.3-.8 0-.3.2-.6.3-.8.2-.2.5-.3.8-.3s.5.2.8.3.3.5.3.8c0 .3-.2.6-.3.8-.2.2-.5.3-.8.3zm6.7 3.4h-1.8v4.9c0 .6.2 1.1.3 1.2.2.2.5.3.8.3.2 0 .5 0 .6-.2.2 0 .3-.2.3-.2l.2 1.2s-.2.2-.5.2c-.3.2-.6.2-.9.2-.8 0-1.4-.2-1.7-.6-.3-.5-.6-1.1-.6-2.1v-5h-1.1V41l1.1-.2.2-2.4h1.4v2.4h2.1l-.4 1.2zm6.5 7.4v-5.6c0-.8-.2-1.2-.3-1.5-.3-.3-.6-.5-1.1-.5s-.8.2-1.1.3c-.3.2-.5.5-.8.6v6.7h-1.5v-8.7h1.4v.9l.3-.3.5-.5c.2-.2.5-.3.8-.3.3-.2.6-.2.9-.2.5 0 .8 0 1.1.2s.6.3.8.6c.2.3.5.6.5.9.2.5.2.9.2 1.5v5.6h-1.5v.3zm9.1-5.8V45.3h-4.4c0 1.1.3 1.8.6 2.3.5.5.9.8 1.7.8.3 0 .5 0 .8-.2.3-.2.5-.2.6-.2.2-.2.3-.2.3-.3l.2-.2.6 1.1-.3.3c-.2.2-.3.3-.5.3-.2.2-.5.2-.8.3s-.6.2-1.1.2c-.6 0-1.1-.2-1.5-.3-.5-.2-.8-.5-1.1-.9-.3-.3-.6-.9-.8-1.5-.2-.6-.3-1.2-.3-2.1 0-.8.2-1.4.3-2 .2-.6.5-1.1.8-1.4.3-.3.6-.6 1.1-.8.5-.2.8-.3 1.2-.3.8 0 1.5.3 2 .8.5.6.6 1.4.6 2.4zm-2.7-2c-.5 0-.9.2-1.2.6-.3.5-.5 1.1-.6 1.8h3.2v-.6c0-.6-.2-1.1-.3-1.4-.3-.2-.6-.4-1.1-.4zm9.4 7.8v-5.6c0-.8-.2-1.2-.3-1.5-.3-.3-.6-.5-1.1-.5s-.8.2-1.1.3c-.3.2-.5.5-.8.6v6.7h-1.5V36.6l1.5-.2v5.2s.2-.2.2-.3c.2-.2.3-.3.5-.3s.5-.2.6-.3c.3-.2.6-.2.9-.2.8 0 1.4.3 1.8.8s.6 1.4.6 2.4v5.6c.1.1-1.3.1-1.3.1zm8.2 0v-5.6c0-.8-.2-1.2-.3-1.5s-.6-.5-1.1-.5c-.3 0-.5 0-.6.2-.2 0-.3.2-.5.2-.2.2-.3.2-.3.3l-.3.3v6.7H253v-8.7h1.4v.9c0-.2.2-.2.3-.3l.5-.5c.2-.2.5-.3.6-.3.3-.2.5-.2.8-.2 1.1 0 1.7.5 2.1 1.2.2-.2.2-.3.3-.5.2-.2.3-.3.5-.3.2-.2.5-.2.6-.3.2-.2.5-.2.8-.2 1.8 0 2.6 1.1 2.6 3v5.8H262v-5.6c0-.8-.2-1.2-.3-1.5-.3-.3-.6-.5-1.1-.5-.5 0-.8.2-1.1.3-.3.2-.5.5-.6.6v6.8h-1.2v.2zm13.9-5.8V45.3h-4.4c0 1.1.3 1.8.6 2.3.5.5.9.8 1.7.8.3 0 .5 0 .8-.2.3-.2.5-.2.6-.2.2-.2.3-.2.3-.3l.2-.2.6 1.1-.3.3c-.2.2-.3.3-.5.3-.2.2-.5.2-.8.3s-.6.2-1.1.2c-.6 0-1.1-.2-1.5-.3-.5-.2-.8-.5-1.1-.9-.3-.3-.6-.9-.8-1.5-.2-.6-.3-1.2-.3-2.1 0-.8.2-1.4.3-2 .2-.6.5-1.1.8-1.4.3-.3.6-.6 1.1-.8.5-.2.8-.3 1.2-.3.8 0 1.5.3 2 .8.3.6.6 1.4.6 2.4zm-2.8-2c-.5 0-.9.2-1.2.6-.3.5-.5 1.1-.6 1.8h3.2v-.6c0-.6-.2-1.1-.3-1.4-.3-.2-.6-.4-1.1-.4zm8.6.4s-.2 0-.3-.2h-.5c-.5 0-.8.2-1.1.3-.3.3-.5.5-.6.8v6.4h-1.5v-8.7h1.4v1.2c0-.2.2-.3.3-.5.2-.2.2-.3.3-.5.2-.2.3-.2.5-.3.2 0 .5-.2.8-.2h.5c.2 0 .2 0 .3.2V42z"/>
</svg>
