<svg xmlns="http://www.w3.org/2000/svg" viewBox="0 0 15.2 16" style="enable-background:new 0 0 15.2 16" xml:space="preserve">
  <path d="m15 10.3.1.4c-.3 1-.9 1.9-1.5 2.6l-.4.1-1.9-.7a5 5 0 0 1-1.6.9l-.4 2-.3.3-1.4.1-1.5-.1-.3-.3-.4-2a5 5 0 0 1-1.6-.9l-1.9.7c-.1.1-.3 0-.4-.1A7.6 7.6 0 0 1 0 10.7c-.1-.1 0-.3.1-.4L1.6 9V8l.1-.9L.1 5.7 0 5.4c.3-1 .9-1.9 1.5-2.6l.4-.1 1.9.7a5 5 0 0 1 1.6-.9l.4-2 .3-.3c1-.2 2-.2 3 0l.3.3.4 2a5 5 0 0 1 1.6.9l1.9-.7c.1-.1.3 0 .4.1.7.8 1.2 1.7 1.5 2.6.1.1 0 .3-.1.4l-1.5 1.3.1.9-.1.9 1.4 1.4zM10.6 8a3 3 0 0 0-3-3 3 3 0 0 0-3 3 3 3 0 0 0 3 3 3 3 0 0 0 3-3z"/>
</svg>
