<svg xmlns="http://www.w3.org/2000/svg" viewBox="0 0 24 20">
  <path d="M20.7 5.5v.6a13.6 13.6 0 0 1-3.2 8.7q-3.3 4-9.6 4.2a12.1 12.1 0 0 1-3.7-.6A13.2 13.2 0 0 1 1 17h1a9 9 0 0 0 3-.4A8.1 8.1 0 0 0 7.8 15 4.5 4.5 0 0 1 3.5 12a3.2 3.2 0 0 0 .8.1 4.5 4.5 0 0 0 1.2-.1 4.5 4.5 0 0 1-2.6-1.6 4.4 4.4 0 0 1-1-2.9 4.4 4.4 0 0 0 2 .5 4.4 4.4 0 0 1-1.4-1.6 4.6 4.6 0 0 1-.6-2.2 4.5 4.5 0 0 1 .6-2.3 12.6 12.6 0 0 0 4.1 3.4 13.3 13.3 0 0 0 5.3 1.4 3.5 3.5 0 0 1-.2-1A4.6 4.6 0 0 1 13 2.3 4.4 4.4 0 0 1 16.2 1a4.5 4.5 0 0 1 3.4 1.4 8.9 8.9 0 0 0 2.8-1 4.6 4.6 0 0 1-2 2.5A10 10 0 0 0 23 3a9.5 9.5 0 0 1-2.3 2.4Z" data-name="twitter"/>
</svg>
